<?xml version="1.0" encoding="UTF-8"?><svg id="Layer_1" xmlns="http://www.w3.org/2000/svg" viewBox="0 0 477.55 438.13"><defs><style>.cls-1{fill:none;stroke:#cda582;stroke-miterlimit:10;stroke-width:10px;}.cls-2{fill:#cda582;}</style></defs><path class="cls-2" d="m417.65,324.02c-.09-25.44.05-50.88-.75-76.3-.55-17.42-15.03-30.01-32.64-30.91-7.13-.37-13.48,1.79-19.56,5.18h0c-.41-.32-.56-.38-.6-.48-7.22-18.8-29.87-27.73-48.84-17.41-.58.31-2.54-.62-2.91-1.41-2.67-5.68-6.55-10.22-11.62-13.91-6.3-4.58-13.63-6.1-21.01-6.1-4.99,0-9.98,2.08-15.31,3.31v-3.19c0-12.35.06-24.71,0-37.06-.01-2.04-.02-4.08-.04-6.12-.05-4.63-.3-9.29-.9-13.88-.04-.4-.09-.8-.15-1.2-.99-6.99-4.55-12.97-9.64-17.59-8.07-7.34-17.67-10.22-28.77-8.7-10.07,1.38-17.38,6.48-23.01,14.53-2.81,4.02-4.29,8.39-5,12.96-.45,2.84-.6,5.76-.6,8.73,0,3.76.01,7.51,0,11.27.04,41.72.02,83.44.02,125.15v4.7c-1.03-.39-1.82-.51-2.38-.93-6.45-4.87-12.82-9.85-19.31-14.67-7.92-5.89-15.58-12.05-25.99-13.45-11.04-1.49-21.69-1.19-31.4,4.81-6.17,3.81-11.96,8.27-14.36,15.64-3.47,10.66-1.47,19.98,6.61,28.04,39.52,39.38,78.95,78.84,118.44,118.25,3.12,3.11,6.24,6.3,9.72,8.97,11.61,8.9,24.84,14.97,39.36,15.25,20.73.4,41.56,1.64,62.29-1.11,10.18-1.35,19.63-4.86,28.45-9.63,12.29-6.65,22.81-15.61,31.23-27,10.35-14,16.34-29.65,17.97-46.82.9-9.58.75-19.28.71-28.92Zm-17.1,19.01c-.12,18.13-5.45,34.84-16.96,48.9-10.93,13.35-24.82,22.86-41.95,26.6-6.28,1.37-12.8,2.03-19.24,2.19-14,.35-28.04.67-42.02.08-12.75-.53-24.81-4.63-34.01-13.68-41.57-40.88-82.83-82.07-124.17-123.19-6.51-6.47-5.13-12.67,3.26-17.65,9.7-5.76,23.94-4.68,34.05,3.54,12.57,10.22,25.9,19.49,38.87,29.23,3.08,2.31,6.09,3.66,9.93,1.63,4-2.11,5.16-5.56,5.16-9.68.01-13.12,0-26.24,0-39.36v-40.89h-.04c0-21.67.01-43.34,0-65.01,0-5.31-.01-10.63-.01-15.94,0-1.36.25-2.73.73-4.06,1.55-4.36,5.4-8.3,10.01-9.99,9-3.3,19.65,1.68,21.73,9.87.01.04.02.08.03.12.68,2.69,1.41,5.48,1.41,8.23,0,3.92.02,7.85.02,11.77.07,37.22.05,74.44.05,111.67,0,6.23,2.83,9.88,7.63,9.9,6.04.02,9.36-3.49,9.38-10.13.05-13.24-.06-26.49.08-39.74.03-2.63.46-5.42,1.41-7.85,4.24-10.82,17.58-11.93,25.42-6.54,5.87,4.03,7.03,10.03,7.14,16.3.25,13.5.1,27.01.16,40.51.02,3.34,2.68,6.8,5.53,7.43,4.04.89,8.35-.87,9.81-4.33.79-1.89,1.4-4.01,1.45-6.04.19-8.15-.3-16.33.24-24.45.8-11.95,10.01-17.38,20.17-15.3,8.9,1.82,13.72,8.72,13.81,18.24.07,8.02-.01,16.05.11,24.07.07,4.21,2.9,7.33,6.43,7.83,5.69.81,9.19-2.74,9.64-6.43.45-3.73.72-7.5.77-11.25.13-10.15,9.63-17.65,19.53-15.29,9.68,2.31,14.42,7.85,14.46,17.74.11,30.31.18,60.63-.02,90.95Z"/><path class="cls-2" d="m417.65,324.02c-.09-25.44.05-50.88-.75-76.3-.55-17.42-15.03-30.01-32.64-30.91-7.13-.37-13.48,1.79-19.56,5.18h0c-.41-.32-.56-.38-.6-.48-7.22-18.8-29.87-27.73-48.84-17.41-.58.31-2.54-.62-2.91-1.41-2.67-5.68-6.55-10.22-11.62-13.91-6.3-4.58-13.63-6.1-21.01-6.1-4.99,0-9.98,2.08-15.31,3.31v-3.19c0-12.35.06-24.71,0-37.06-.01-2.04-.02-4.08-.04-6.12-.05-4.63-.3-9.29-.9-13.88-.04-.4-.09-.8-.15-1.2-.99-6.99-4.55-12.97-9.64-17.59-8.07-7.34-17.67-10.22-28.77-8.7-10.07,1.38-17.38,6.48-23.01,14.53-2.81,4.02-4.29,8.39-5,12.96-.45,2.84-.6,5.76-.6,8.73,0,3.76.01,7.51,0,11.27.04,41.72.02,83.44.02,125.15v4.7c-1.03-.39-1.82-.51-2.38-.93-6.45-4.87-12.82-9.85-19.31-14.67-7.92-5.89-15.58-12.05-25.99-13.45-11.04-1.49-21.69-1.19-31.4,4.81-6.17,3.81-11.96,8.27-14.36,15.64-3.47,10.66-1.47,19.98,6.61,28.04,39.52,39.38,78.95,78.84,118.44,118.25,3.12,3.11,6.24,6.3,9.72,8.97,11.61,8.9,24.84,14.97,39.36,15.25,20.73.4,41.56,1.64,62.29-1.11,10.18-1.35,19.63-4.86,28.45-9.63,12.29-6.65,22.81-15.61,31.23-27,10.35-14,16.34-29.65,17.97-46.82.9-9.58.75-19.28.71-28.92Zm-17.1,19.01c-.12,18.13-5.45,34.84-16.96,48.9-10.93,13.35-24.82,22.86-41.95,26.6-6.28,1.37-12.8,2.03-19.24,2.19-14,.35-28.04.67-42.02.08-12.75-.53-24.81-4.63-34.01-13.68-41.57-40.88-82.83-82.07-124.17-123.19-6.51-6.47-5.13-12.67,3.26-17.65,9.7-5.76,23.94-4.68,34.05,3.54,12.57,10.22,25.9,19.49,38.87,29.23,3.08,2.31,6.09,3.66,9.93,1.63,4-2.11,5.16-5.56,5.16-9.68.01-13.12,0-26.24,0-39.36v-40.89h-.04c0-21.67.01-43.34,0-65.01,0-5.31-.01-10.63-.01-15.94,0-1.36.25-2.73.73-4.06,1.55-4.36,5.4-8.3,10.01-9.99,9-3.3,19.65,1.68,21.73,9.87.01.04.02.08.03.12.68,2.69,1.41,5.48,1.41,8.23,0,3.92.02,7.85.02,11.77.07,37.22.05,74.44.05,111.67,0,6.23,2.83,9.88,7.63,9.9,6.04.02,9.36-3.49,9.38-10.13.05-13.24-.06-26.49.08-39.74.03-2.63.46-5.42,1.41-7.85,4.24-10.82,17.58-11.93,25.42-6.54,5.87,4.03,7.03,10.03,7.14,16.3.25,13.5.1,27.01.16,40.51.02,3.34,2.68,6.8,5.53,7.43,4.04.89,8.35-.87,9.81-4.33.79-1.89,1.4-4.01,1.45-6.04.19-8.15-.3-16.33.24-24.45.8-11.95,10.01-17.38,20.17-15.3,8.9,1.82,13.72,8.72,13.81,18.24.07,8.02-.01,16.05.11,24.07.07,4.21,2.9,7.33,6.43,7.83,5.69.81,9.19-2.74,9.64-6.43.45-3.73.72-7.5.77-11.25.13-10.15,9.63-17.65,19.53-15.29,9.68,2.31,14.42,7.85,14.46,17.74.11,30.31.18,60.63-.02,90.95Z"/><path class="cls-2" d="m214.15,125.74h-17.26c-.45,2.84-.6,5.76-.6,8.73,0,3.76.01,7.51,0,11.27h17.14c0-5.31-.01-10.63-.01-15.94,0-1.36.25-2.73.73-4.06ZM437.39,0H40.16C18.02,0,0,18.02,0,40.16v65.42c0,22.14,18.02,40.16,40.16,40.16h126.14c0-3.75-.01-7.49-.01-11.24,0-2.62.08-5.57.37-8.76H40.16c-11.12,0-20.16-9.05-20.16-20.16V40.16c0-11.11,9.04-20.16,20.16-20.16h397.23c11.12,0,20.16,9.05,20.16,20.16v65.42c0,11.11-9.04,20.16-20.16,20.16h-143.74c.43,4.3.66,8.79.71,13.58.02,2.14.03,4.28.04,6.42h142.99c22.14,0,40.16-18.02,40.16-40.16V40.16c0-22.14-18.02-40.16-40.16-40.16Zm-173.93,125.74h-17.54c.68,2.69,1.41,5.48,1.41,8.23,0,3.92.02,7.85.02,11.77h17.05c-.01-2.04-.02-4.08-.04-6.12-.05-4.63-.3-9.29-.9-13.88Z"/><line class="cls-1" x1="413.28" y1="97.56" x2="413.28" y2="47.99"/><line class="cls-1" x1="388.49" y1="72.78" x2="438.07" y2="72.78"/></svg>