<?xml version="1.0" encoding="UTF-8"?><svg id="Layer_1" xmlns="http://www.w3.org/2000/svg" viewBox="0 0 296.52 386.85"><defs><style>.cls-1,.cls-2{fill:#d19e78;}.cls-3{fill:#cda582;}.cls-2{stroke:#cda582;stroke-miterlimit:10;stroke-width:.25px;}</style></defs><path class="cls-3" d="m75.24,216.71c-3.21-2.48-7.6-5.5-13.05-7.32,4.76,7.26,11.94,12.81,20.37,15.48-1.83-2.9-4.14-5.71-7.32-8.16Zm128.84,63.62c-3.68-2.39-7.71-3.19-11.98-3.25h-.01c-.11-.3-.18-.38-.17-.44,1.93-12.21-7.36-23.9-20.61-24.24-.4,0-1.16-1.11-1.11-1.64.32-3.84-.35-7.44-1.91-10.96-1.94-4.36-5.37-7.42-9.29-9.69-2.65-1.53-5.94-1.95-9.15-2.93l.31-.55.66-1.15c4.42-7.65,8.88-15.27,13.23-22.96,1.51-2.69,2.91-5.47,4.06-8.34,1.62-4.01,1.57-8.28.28-12.3-2.04-6.38-6.26-10.85-12.62-13.45-5.78-2.36-11.22-1.89-16.69.66-4.42,2.07-7.25,5.69-9.63,9.81-9.17,15.92-18.35,31.82-27.53,47.73-4.77,8.26-9.54,16.51-14.31,24.77-.46.79-.91,1.58-1.44,2.5-.43-.53-.81-.83-.98-1.23-1.94-4.56-3.79-9.17-5.76-13.72-2.4-5.56-4.59-11.18-9.69-15.12-5.41-4.18-11.16-7.29-18.16-7.08-4.45.13-8.89.73-12.43,3.91-5.11,4.6-6.91,10.17-5.09,16.93,8.92,33.05,17.77,66.12,26.66,99.17.7,2.61,1.38,5.27,2.41,7.75,3.44,8.29,8.61,15.58,16.24,20.18,10.89,6.58,21.58,13.63,33.44,18.52,5.83,2.41,11.93,3.44,18.08,3.62,8.57.23,16.91-1.3,24.88-4.77,9.79-4.27,17.78-10.74,23.91-19.37,3.42-4.81,6.31-10.01,9.25-15.15,7.76-13.55,15.64-27.02,23.01-40.77,5.05-9.43,1.22-20.56-7.86-26.44Zm-2.16,23.74c-9.24,16.14-18.5,32.28-27.91,48.33-5.63,9.59-13.59,16.84-24.02,20.78-9.9,3.74-20.2,4.53-30.45,1.26-3.76-1.19-7.42-2.84-10.9-4.74-7.54-4.1-15.1-8.24-22.35-12.84-6.61-4.2-11.76-10.08-13.88-17.71-9.54-34.48-18.83-69.02-28.18-103.56-1.48-5.43,1.16-8.31,7.14-8.38,6.93-.08,14.16,4.86,17.01,12.33,3.55,9.29,7.79,18.3,11.69,27.46.93,2.17,2.11,3.81,4.78,3.91,2.77.11,4.44-1.37,5.71-3.56,4.03-6.97,8.05-13.94,12.07-20.92,3.82-6.6,7.63-13.2,11.44-19.8.37-.64.74-1.28,1.11-1.92-.01-.01-.03-.02-.03-.02h.01c8.28-14.33,16.57-28.67,24.83-43.02,1.77-3.08,6.13-4.84,10.02-4.17,5.79,1.01,9.92,6.92,8.52,11.91-.48,1.67-.94,3.4-1.8,4.88-6.19,10.79-12.4,21.57-18.62,32.34-6.4,11.1-12.81,22.18-19.22,33.28-1.91,3.31-1.52,6.12,1.02,7.6,3.21,1.87,6.05,1.02,8.09-2.5,4.09-7.02,8.1-14.1,12.24-21.1.82-1.38,1.91-2.74,3.16-3.74,5.57-4.44,13-.94,15.51,4.33,1.88,3.94.66,7.49-1.21,10.85-4,7.25-8.23,14.38-12.34,21.58-1.01,1.78-.66,4.43.66,5.64,1.87,1.71,4.7,2.1,6.54.71,1-.76,1.98-1.7,2.63-2.76,2.6-4.28,4.85-8.77,7.62-12.92,4.1-6.11,10.66-6.17,15.42-1.95,4.17,3.7,4.61,8.85,1.74,13.93-2.42,4.29-4.93,8.53-7.33,12.83-1.25,2.26-.7,4.78,1.02,6.13,2.77,2.18,5.72,1.37,7.09-.46,1.39-1.84,2.69-3.76,3.86-5.74,3.19-5.35,10.54-6.42,15.07-2.13,4.44,4.2,5.26,8.59,2.24,13.86Z"/><path class="cls-1" d="m204.07,280.33c-3.68-2.39-7.71-3.19-11.98-3.25h-.01c-.11-.3-.18-.38-.17-.44,1.93-12.21-7.36-23.9-20.61-24.24-.4,0-1.16-1.11-1.11-1.64.32-3.84-.35-7.44-1.91-10.96-1.94-4.36-5.37-7.42-9.29-9.69-2.65-1.53-5.94-1.95-9.15-2.93l.31-.55.66-1.15c4.42-7.65,8.88-15.27,13.23-22.96,1.51-2.69,2.91-5.47,4.06-8.34,1.62-4.01,1.57-8.28.28-12.3-2.04-6.38-6.26-10.85-12.62-13.45-5.78-2.36-11.22-1.89-16.69.66-4.42,2.07-7.25,5.69-9.63,9.81-9.17,15.92-18.35,31.82-27.53,47.73-4.77,8.26-9.54,16.51-14.31,24.77-.46.79-.91,1.58-1.44,2.5-.43-.53-.81-.83-.98-1.23-1.94-4.56-3.79-9.17-5.76-13.72-2.4-5.56-4.59-11.18-9.69-15.12-5.41-4.18-11.16-7.29-18.16-7.08-4.45.13-8.89.73-12.43,3.91-5.11,4.6-6.91,10.17-5.09,16.93,8.92,33.05,17.77,66.12,26.66,99.17.7,2.61,1.38,5.27,2.41,7.75,3.44,8.29,8.61,15.58,16.24,20.18,10.89,6.58,21.58,13.63,33.44,18.52,5.83,2.41,11.93,3.44,18.08,3.62,8.57.23,16.91-1.3,24.88-4.77,9.79-4.27,17.78-10.74,23.91-19.37,3.42-4.81,6.31-10.01,9.25-15.15,7.76-13.55,15.64-27.02,23.01-40.77,5.05-9.43,1.22-20.56-7.86-26.44Zm-2.16,23.74c-9.24,16.14-18.5,32.28-27.91,48.33-5.63,9.59-13.59,16.84-24.02,20.78-9.9,3.74-20.2,4.53-30.45,1.26-3.76-1.19-7.42-2.84-10.9-4.74-7.54-4.1-15.1-8.24-22.35-12.84-6.61-4.2-11.76-10.08-13.88-17.71-9.54-34.48-18.83-69.02-28.18-103.56-1.48-5.43,1.16-8.31,7.14-8.38,6.93-.08,14.16,4.86,17.01,12.33,3.55,9.29,7.79,18.3,11.69,27.46.93,2.17,2.11,3.81,4.78,3.91,2.77.11,4.44-1.37,5.71-3.56,4.03-6.97,8.05-13.94,12.07-20.92,3.82-6.6,7.63-13.2,11.44-19.8.37-.64.74-1.28,1.11-1.92-.01-.01-.03-.02-.03-.02h.01c8.28-14.33,16.57-28.67,24.83-43.02,1.77-3.08,6.13-4.84,10.02-4.17,5.79,1.01,9.92,6.92,8.52,11.91-.48,1.67-.94,3.4-1.8,4.88-6.19,10.79-12.4,21.57-18.62,32.34-6.4,11.1-12.81,22.18-19.22,33.28-1.91,3.31-1.52,6.12,1.02,7.6,3.21,1.87,6.05,1.02,8.09-2.5,4.09-7.02,8.1-14.1,12.24-21.1.82-1.38,1.91-2.74,3.16-3.74,5.57-4.44,13-.94,15.51,4.33,1.88,3.94.66,7.49-1.21,10.85-4,7.25-8.23,14.38-12.34,21.58-1.01,1.78-.66,4.43.66,5.64,1.87,1.71,4.7,2.1,6.54.71,1-.76,1.98-1.7,2.63-2.76,2.6-4.28,4.85-8.77,7.62-12.92,4.1-6.11,10.66-6.17,15.42-1.95,4.17,3.7,4.61,8.85,1.74,13.93-2.42,4.29-4.93,8.53-7.33,12.83-1.25,2.26-.7,4.78,1.02,6.13,2.77,2.18,5.72,1.37,7.09-.46,1.39-1.84,2.69-3.76,3.86-5.74,3.19-5.35,10.54-6.42,15.07-2.13,4.44,4.2,5.26,8.59,2.24,13.86Z"/><path class="cls-2" d="m295.99,60.77l-21.17,133.67c-1.76,11.16-9.08,20.12-18.7,24.53-.18.05-.38.1-.58.14,9.48-5.17,16.38-14.75,17.58-26.25l14.74-140.2c.47-4.43.05-8.75-1.11-12.8-.66-2.28-1.54-4.48-2.66-6.55-1.07-2.03-2.34-3.94-3.79-5.71,3.82,2.25,7.11,5.25,9.69,8.77,1.32,1.77,2.44,3.67,3.37,5.67,2.63,5.66,3.66,12.13,2.62,18.73Z"/><path class="cls-2" d="m279.15,52.66l-14.74,140.2c-1.2,11.49-8.1,21.08-17.58,26.25-.19.06-.4.1-.6.15,9.3-5.95,15.72-16.14,16.34-27.94l7.69-146.65c.13-2.37,0-4.71-.33-6.98-.32-2.16-.83-4.26-1.53-6.29-.8-2.34-1.84-4.56-3.1-6.66-1.23-2.05-2.67-3.97-4.27-5.74,4.1,2.13,7.69,5.08,10.57,8.6,1.45,1.76,2.72,3.68,3.79,5.71,1.11,2.07,2,4.27,2.66,6.55,1.16,4.05,1.58,8.37,1.11,12.8Z"/><path class="cls-2" d="m261.53,44.66l-7.69,146.65c-.62,11.8-7.04,21.99-16.34,27.94-.2.04-.41.09-.62.12,9.06-6.73,14.95-17.49,14.95-29.58V36.83c0-.56,0-1.11-.04-1.67-.09-1.9-.32-3.77-.69-5.58-.45-2.23-1.1-4.38-1.94-6.45-.96-2.38-2.16-4.65-3.58-6.77-1.4-2.06-2.99-3.99-4.76-5.74,4.37,2,8.27,4.87,11.46,8.36,1.61,1.76,3.04,3.68,4.27,5.74,1.26,2.09,2.3,4.32,3.1,6.66.7,2.03,1.21,4.13,1.53,6.29.34,2.27.46,4.6.33,6.98Z"/><path class="cls-2" d="m.53,60.77l21.17,133.67c1.76,11.16,9.08,20.12,18.7,24.53.18.05.38.1.58.14-9.48-5.17-16.38-14.75-17.58-26.25L8.65,52.66c-.47-4.43-.05-8.75,1.11-12.8.66-2.28,1.54-4.48,2.66-6.55,1.07-2.03,2.34-3.94,3.79-5.71-3.82,2.25-7.11,5.25-9.69,8.77-1.32,1.77-2.44,3.67-3.37,5.67-2.63,5.66-3.66,12.13-2.62,18.73Z"/><path class="cls-2" d="m17.37,52.66l14.74,140.2c1.2,11.49,8.1,21.08,17.58,26.25.19.06.4.1.6.15-9.3-5.95-15.72-16.14-16.34-27.94l-7.69-146.65c-.13-2.37,0-4.71.33-6.98.32-2.16.83-4.26,1.53-6.29.8-2.34,1.84-4.56,3.1-6.66,1.23-2.05,2.67-3.97,4.27-5.74-4.1,2.13-7.69,5.08-10.57,8.6-1.45,1.76-2.72,3.68-3.79,5.71-1.11,2.07-2,4.27-2.66,6.55-1.16,4.05-1.58,8.37-1.11,12.8Z"/><path class="cls-2" d="m34.99,44.66l7.69,146.65c.62,11.8,7.04,21.99,16.34,27.94.2.04.41.09.62.12-9.06-6.73-14.95-17.49-14.95-29.58V36.83c0-.56,0-1.11.04-1.67.09-1.9.32-3.77.69-5.58.45-2.23,1.1-4.38,1.94-6.45.96-2.38,2.16-4.65,3.58-6.77,1.4-2.06,2.99-3.99,4.76-5.74-4.37,2-8.27,4.87-11.46,8.36-1.61,1.76-3.04,3.68-4.27,5.74-1.26,2.09-2.3,4.32-3.1,6.66-.7,2.03-1.21,4.13-1.53,6.29-.34,2.27-.46,4.6-.33,6.98Z"/><path class="cls-1" d="m168.11,194.18c-1.15,2.87-2.55,5.65-4.06,8.34-4.35,7.69-8.81,15.31-13.23,22.96l-.66,1.15h-12.05c6.22-10.77,12.43-21.55,18.62-32.34.86-1.48,1.32-3.21,1.8-4.88,1.4-4.99-2.73-10.9-8.52-11.91-3.89-.67-8.25,1.09-10.02,4.17-8.26,14.35-16.55,28.69-24.83,43.02h-.01s.02.01.03.02c-.37.64-.74,1.28-1.11,1.92h-12.15c9.18-15.91,18.36-31.81,27.53-47.73,2.38-4.12,5.21-7.74,9.63-9.81,5.47-2.55,10.91-3.02,16.69-.66,6.36,2.6,10.58,7.07,12.62,13.45,1.29,4.02,1.34,8.29-.28,12.3Z"/><path class="cls-1" d="m242.06,38v150.63c0,20.9-17.1,38-38,38h-34.57c-1.76-1.58-3.76-3.02-5.99-4.31-.11-.06-.23-.13-.34-.19,2.89-4.98,5.85-10.1,8.72-15.19,1.86-3.29,3.36-6.36,4.58-9.39,2.33-5.79,2.51-12.16.5-18.41-2.83-8.86-8.98-15.45-17.79-19.04-3.58-1.46-7.25-2.2-10.91-2.2-4.3,0-8.66,1.02-12.98,3.04-7.18,3.34-11.21,9.28-13.63,13.47-10.01,17.39-20.05,34.76-30.08,52.14-3.12-.19-6.14-.77-9.01-1.68-8.43-2.67-15.61-8.22-20.37-15.48-3.93-5.98-6.22-13.11-6.22-20.76V38C55.96,17.1,73.07,0,93.96,0h110.09c20.9,0,38,17.1,38,38Z"/></svg>