<?xml version="1.0" encoding="UTF-8"?><svg id="Layer_1" xmlns="http://www.w3.org/2000/svg" xmlns:xlink="http://www.w3.org/1999/xlink" viewBox="0 0 173.68 75.98"><defs><style>.cls-1{fill-rule:evenodd;}.cls-1,.cls-2,.cls-3{fill:#d19e77;}.cls-4{clip-path:url(#clippath-5);}.cls-4,.cls-5,.cls-6,.cls-7{fill:none;}.cls-6{clip-path:url(#clippath);}.cls-2{clip-rule:evenodd;}.cls-7{clip-path:url(#clippath-1);}</style><clipPath id="clippath"><path class="cls-3" d="m10.97,68.94s-.06.08-.09.11c-.03.04-.05.07-.07.11.09,0,.19.01.31.03h0s.05.02.07.05c.01.03.03.07.04.12.02.05.02.1.01.16,0,.02,0,.03,0,.06,0,.02,0,.04,0,.06-.02.04-.04.06-.07.06h-.05s-.04,0-.08.01c-.09.01-.19.05-.31.11,0,.03.01.05.02.07,0,.02.02.04.03.06.01.01.02.03.03.04,0,.01.02.02.02.04,0,.02.01.03.02.03.02.02.04.03.05.05.02.02.03.03.05.05.09.07.19.12.3.15.11.03.23.04.34.04.09-.12.16-.24.21-.35.05-.12.09-.23.12-.36.07-.26.09-.47.07-.61-.02-.14-.04-.23-.05-.27-.03-.08-.08-.13-.15-.16-.07-.03-.15-.05-.24-.03-.09.01-.19.05-.3.11-.11.06-.21.15-.32.26m-.86,1.66c-.06.13-.09.23-.11.3,0,.05,0,.09,0,.13s0,.08.02.11c.03.05.06.08.11.1.04.02.09.03.16.03s.15-.02.26-.07c.07-.03.14-.07.22-.11.08-.04.16-.09.25-.14.15-.1.26-.19.35-.28-.28-.02-.51-.11-.72-.29-.09-.08-.16-.18-.21-.3-.01.02-.03.03-.04.05-.01.01-.03.03-.04.05-.01.01-.03.04-.05.07-.02.03-.04.06-.07.1-.03.04-.05.09-.07.13-.02.05-.04.09-.05.12ZM.35,75.4c.05-.06.15-.17.29-.32.14-.15.31-.35.5-.58.19-.23.41-.5.66-.8.24-.3.5-.63.76-.98-.48.46-.89.87-1.23,1.22-.34.36-.56.61-.65.75-.08.13-.15.25-.2.37-.05.12-.09.23-.12.34Zm5.59-4.34c.27-.07.5-.17.69-.29.19-.12.35-.26.49-.41-.2.09-.38.18-.53.26-.15.09-.27.16-.36.22-.12.08-.21.15-.29.21Zm-2.19-.06l.04-.05c.03-.06.09-.15.16-.26.08-.12.16-.25.25-.39.09-.15.19-.3.29-.46.1-.16.2-.31.29-.44.09-.14.17-.26.23-.37.07-.1.11-.18.13-.22,0-.02.02-.03.04-.06.01-.02.03-.03.05-.06.02-.02.04-.04.07-.07,0,0,.02,0,.03-.02,0,0,.02-.02.05-.03.01,0,.03-.02.04-.02.02,0,.03-.01.04-.02.08-.03.17-.06.27-.1.11-.04.2-.06.3-.08.09-.01.17-.01.23,0,.06.01.07.06.05.12-.02.03-.04.06-.06.08-.02.03-.04.05-.07.08h0c-.09.14-.18.27-.28.41-.08.12-.18.25-.28.4-.11.15-.21.3-.31.45.25-.19.49-.36.72-.53.23-.17.45-.31.65-.44.2-.13.39-.24.56-.32.17-.09.32-.14.44-.17.17-.04.31-.02.42.04.1.06.19.17.25.33.07.16.08.4.03.73,0,.02,0,.03,0,.05s0,.04,0,.05c0,.01,0,.03,0,.05s0,.04-.01.05c.1-.02.19-.04.29-.06.1-.02.2-.04.3-.05.22-.04.46-.07.7-.08.14-.01.29-.02.44-.02.04-.03.07-.06.11-.08.13-.09.2-.14.23-.16,0,0,.01-.01.02-.01.03-.11.07-.2.12-.29.05-.09.1-.16.15-.23.05-.06.1-.12.15-.16.05-.05.08-.08.11-.1.06-.05.14-.1.23-.15.09-.04.18-.08.28-.1.1-.02.19-.03.29-.03s.18.02.26.06c.05.03.1.07.15.12.05.05.1.11.13.2,0,.02.01.05.02.07,0,.02.01.04.02.07.03.09.04.19.04.31,0,.12,0,.25-.03.41,0,0,0,.01,0,.02-.03.17-.07.32-.12.45-.05.12-.09.22-.12.3-.04.06-.06.09-.06.09,0,0-.01.01-.02.01h0c.05,0,.1-.02.15-.03.05-.02.1-.03.15-.05.17-.06.34-.13.49-.21.16-.08.3-.16.42-.23.07-.04.14-.08.2-.13.04-.03.08-.06.12-.1.29-.24.53-.45.72-.63-.11-.07-.18-.16-.23-.28-.04-.12-.06-.24-.06-.38,0-.12.03-.23.08-.32.05-.09.11-.17.17-.24.07-.08.15-.15.24-.21.08.01.16.04.23.07.06.03.11.07.17.12.05.05.09.11.1.19l-.02.02s-.01.01-.02.02c0,0-.02.02-.03.03-.07.07-.14.15-.2.25-.03.05-.06.1-.07.16-.02.05-.02.11,0,.16,0,.02,0,.03,0,.03.03.13.1.18.2.17.04,0,.09-.02.13-.04.05-.02.09-.04.14-.05.28-.11.5-.14.66-.11.05.02.11.04.17.06.06.03.11.07.16.13.09.1.11.24.05.41-.05.17-.14.34-.26.52-.12.18-.26.37-.41.55-.15.18-.29.35-.4.5-.11.15-.18.28-.21.38-.03.1.02.16.15.16.12.02.26,0,.42-.05.16-.04.32-.11.49-.19.17-.08.34-.17.52-.27.18-.1.35-.21.52-.32.4-.26.8-.55,1.22-.89h.35c-.48.41-.95.77-1.42,1.07-.2.13-.4.25-.62.37-.21.12-.43.22-.64.31-.21.09-.42.16-.62.2-.2.05-.39.06-.55.03-.2-.02-.34-.09-.39-.2-.06-.11-.07-.24-.04-.39.03-.15.1-.32.2-.49.1-.17.2-.34.31-.5.11-.16.21-.31.31-.43.1-.13.16-.22.18-.28.01-.02.03-.05.04-.08.01-.05.01-.09,0-.11-.02-.02-.04-.03-.07-.04-.03,0-.07,0-.12.01-.13.03-.24.05-.31.05-.07,0-.12,0-.15,0,0,0-.01,0-.01,0,0,0,0,0-.01,0-.04.04-.08.09-.12.12-.03.04-.06.07-.1.1-.03.03-.06.06-.1.08-.03.03-.07.06-.11.08-.04.03-.08.06-.13.1-.11.08-.22.16-.34.24-.12.08-.22.15-.31.21-.11.07-.21.14-.32.2l-.04-.03c-.14.08-.3.16-.46.25-.26.13-.51.22-.78.27-.03,0-.04,0-.06.01-.15.17-.32.32-.53.48-.2.15-.46.29-.76.42-.03.02-.06.03-.1.04-.03.01-.06.02-.09.04-.13.04-.24.06-.33.06-.09,0-.17,0-.23-.02-.07-.02-.13-.04-.18-.07-.04-.04-.08-.07-.11-.11-.03-.04-.06-.07-.08-.11-.07-.11-.1-.26-.09-.44,0-.08.02-.17.05-.28.04-.15.11-.3.19-.44.08-.14.17-.28.27-.41.06-.08.13-.15.19-.22-.15.02-.29.04-.43.06-.46.08-.88.17-1.26.28-.1.26-.24.47-.43.65-.19.18-.4.32-.63.43-.23.11-.46.19-.7.24-.24.05-.44.08-.62.08-.13-.03-.2-.08-.23-.16-.03-.08-.04-.14-.04-.18,0-.02,0-.05.03-.07.13-.12.31-.25.54-.4.23-.15.52-.29.86-.42.05-.02.1-.04.16-.06.05-.02.11-.04.16-.06.03-.05.06-.09.08-.14.02-.05.04-.09.07-.12.06-.13.1-.25.13-.37.03-.12.05-.23.07-.32.02-.11.03-.2.03-.29-.4.18-.83.43-1.3.74-.46.31-.93.66-1.41,1.04-.07.05-.14.1-.21.16-.07.05-.14.11-.21.17l-.13.19c-.14.2-.27.38-.39.56-.12.18-.22.32-.29.43-.35.54-.71,1.06-1.08,1.57-.37.5-.75.94-1.13,1.31-.08.08-.17.17-.29.29-.12.12-.24.23-.37.34-.13.11-.25.21-.36.29-.11.08-.2.12-.26.12-.08,0-.15-.02-.19-.07-.04-.05-.07-.08-.07-.09,0-.01-.01-.03-.02-.04,0-.02-.02-.03-.03-.06h0s-.01-.1-.02-.2c0-.1,0-.24.03-.39.03-.16.09-.34.18-.54.09-.2.24-.4.44-.61.11-.12.25-.26.43-.43.18-.17.38-.36.61-.58.09-.08.18-.17.28-.26.1-.09.2-.18.31-.27.19-.17.39-.35.6-.54.21-.18.42-.37.65-.56l.11-.13.12-.19Zm45.64-2.02c-.05-.01-.05-.07,0-.17.05-.1.11-.21.19-.33.08-.12.15-.24.22-.37.07-.12.09-.22.07-.3,0,0,0-.02,0-.03.01-.03.05-.07.12-.11.05-.04.14-.08.27-.14.13-.06.25-.09.36-.1.11-.01.19.02.23.1.04.07,0,.23-.12.46-.09.17-.2.32-.32.46-.12.14-.25.31-.39.51-.1,0-.19.02-.28.02-.07,0-.14.01-.21.02-.07,0-.12,0-.15-.02Zm6.84-3.56c.04-.13,0-.16-.12-.1-.12.06-.28.18-.48.35-.2.17-.42.38-.68.62-.25.24-.49.48-.71.71-.22.23-.42.44-.59.62-.17.18-.27.3-.31.35.49-.31.93-.61,1.33-.91.17-.13.34-.26.51-.41.17-.14.32-.29.47-.43.14-.14.26-.28.36-.42.1-.14.17-.26.21-.38Zm-16.13,5.51s-.1-.07-.17-.12c-.07-.05-.13-.12-.18-.19-.05-.07-.09-.15-.11-.24-.02-.07,0-.13.03-.2-.13.09-.25.17-.37.25-.18.12-.36.23-.55.34-.19.11-.37.21-.54.29-.18.09-.34.15-.5.2-.16.04-.29.06-.41.06-.18-.01-.34-.06-.49-.12-.13-.06-.25-.15-.36-.27-.11-.12-.17-.3-.18-.53-.01-.15,0-.3,0-.43.02-.14.04-.26.06-.37.03-.12.05-.23.09-.33-.45.36-.87.68-1.26.97-.17.12-.33.24-.49.35-.16.12-.31.22-.45.31-.14.09-.26.16-.37.21-.11.05-.18.08-.23.08-.26,0-.44-.05-.54-.16-.05.04-.1.08-.15.12-.52.37-1.04.72-1.57,1.05-.53.33-1.07.62-1.64.85-.56.23-1.14.39-1.74.48-.6.09-1.22.08-1.88-.03-.13-.02-.26-.05-.38-.08-.12-.03-.24-.06-.35-.1-.43-.15-.77-.35-1.02-.59-.25-.24-.43-.51-.55-.79-.12-.28-.19-.57-.21-.87-.02-.3-.01-.58.02-.84.03-.26.08-.5.13-.7.06-.21.1-.36.13-.47.11-.34.23-.66.37-.95.14-.3.28-.55.4-.77.15-.26.3-.5.45-.72.49-.7.97-1.31,1.44-1.83.47-.52.93-.96,1.38-1.34.45-.37.87-.68,1.28-.92.41-.24.79-.44,1.14-.59.82-.34,1.59-.49,2.32-.46.18,0,.35.05.5.12.13.06.25.15.37.28.12.13.21.3.26.52.01.06.02.12.03.19,0,.06,0,.13,0,.21s0,.16-.02.24c-.03.05-.07.09-.12.12-.04.04-.09.08-.14.11-.06.04-.13.06-.22.08h0s-.03-.02-.04-.05c0-.02,0-.03,0-.05-.01-.06-.02-.12-.03-.19,0-.06-.02-.12-.03-.17-.02-.06-.04-.11-.05-.16,0,0,0,0,0-.02h0c-.05-.15-.12-.26-.19-.34-.08-.08-.16-.14-.24-.18-.08-.04-.16-.06-.24-.07-.08-.01-.14-.02-.19-.02-.23-.02-.57.05-1.02.19-.45.14-.96.39-1.53.75-.58.36-1.19.84-1.84,1.44-.65.6-1.3,1.34-1.93,2.23-.63.88-1.09,1.7-1.39,2.47-.3.77-.41,1.44-.34,2.01.07.57.34,1.03.81,1.36.46.34,1.14.51,2.03.53.72.01,1.42-.1,2.08-.34.67-.24,1.3-.56,1.91-.94.61-.38,1.19-.8,1.76-1.26.13-.1.25-.21.38-.31.05-.06.13-.13.22-.22.14-.13.31-.28.5-.44.2-.16.41-.33.63-.5.23-.17.46-.33.69-.47.23-.15.45-.27.67-.38.22-.11.41-.18.58-.21.16-.02.31-.02.44.01.12.04.23.1.33.2.11.1.18.26.23.48,0,.01,0,.03-.01.03,0,0-.02,0-.03-.02-.03-.05-.06-.09-.11-.15-.05-.05-.11-.1-.18-.13-.07-.03-.15-.05-.24-.06-.09,0-.19.02-.3.08-.1.05-.23.13-.4.24-.17.11-.36.23-.56.38-.2.14-.4.29-.61.45-.21.16-.4.31-.56.46-.17.15-.3.29-.41.42-.11.13-.16.23-.15.3.03,0,.07-.03.14-.07.06-.04.14-.09.24-.16.11-.07.24-.17.42-.29.17-.13.36-.27.57-.44.21-.17.41-.32.6-.47.19-.15.36-.27.51-.38.15-.11.25-.17.31-.18.17-.03.3,0,.4.08l.02.02c.06.06.1.13.12.23.01.09,0,.18-.03.26-.03.08-.07.2-.11.38-.04.18-.07.36-.08.54,0,.18.01.35.06.48.05.14.15.2.31.2.12,0,.27-.03.43-.1.17-.06.34-.14.53-.24.19-.09.37-.2.56-.31.19-.11.36-.22.53-.33.17-.11.32-.21.45-.3l.07-.05c.07-.11.14-.21.21-.31.09-.13.17-.25.24-.36.07-.11.12-.2.14-.27.01-.04.04-.08.07-.12.03-.04.07-.05.12-.04.04.02.09.05.15.1.06.04.12.09.16.15.05.06.08.12.11.19.02.07.01.14-.03.2-.06.08-.13.17-.21.27-.08.1-.16.19-.24.28-.08.09-.14.17-.2.25-.06.08-.1.14-.12.19.41-.38.8-.7,1.17-.98.16-.12.32-.23.49-.34.17-.11.33-.2.48-.28.16-.08.3-.14.44-.17.13-.04.25-.04.35-.01.19.05.31.17.35.35.04.18.03.39-.04.63-.07.24-.18.5-.33.77-.15.27-.32.52-.51.74.15-.14.31-.28.49-.43.15-.13.33-.27.54-.43.2-.16.42-.32.65-.48.22-.16.43-.31.65-.45.21-.14.42-.26.61-.35.19-.1.37-.17.54-.21.17-.04.31-.06.42-.03.05.02.11.04.17.06.06.03.11.07.16.13.09.1.11.24.05.41-.05.17-.14.34-.26.52-.12.18-.26.37-.42.55-.16.18-.29.35-.4.5-.11.15-.18.28-.21.38-.03.1.02.16.14.16.12.02.26,0,.42-.05.16-.04.32-.11.49-.19.17-.08.34-.17.52-.27.18-.1.35-.21.52-.32.2-.13.41-.27.62-.42.12-.15.22-.29.32-.41.03-.03.1-.07.22-.12.12-.05.24-.09.36-.12.12-.03.23-.05.32-.04.09,0,.12.05.1.12-.13.19-.28.38-.46.59-.18.21-.33.4-.47.57-.13.18-.23.33-.27.45-.05.12,0,.19.13.2.12.02.26,0,.42-.05.16-.04.32-.11.49-.19.17-.08.34-.17.52-.27.18-.1.35-.21.52-.32.3-.19.6-.41.91-.65h0c.04-.17.09-.32.14-.47.15-.34.33-.66.54-.97.21-.31.41-.58.59-.79.03-.04.06-.07.09-.1.03-.03.05-.06.09-.09.35-.39.74-.78,1.17-1.16.43-.38.89-.74,1.39-1.08.08-.05.15-.08.22-.11.06-.02.13-.04.2-.05.07-.01.13,0,.2.03.04.02.08.06.13.12.05.07.08.16.07.29,0,.12-.05.28-.14.46-.09.18-.26.39-.5.64-.24.24-.57.52-1,.84-.43.32-.97.66-1.65,1.05l-.17.2c-.06.08-.13.18-.21.3-.08.12-.15.24-.23.38-.07.14-.14.28-.2.43-.06.15-.1.3-.12.46,0,.04-.01.09-.01.13,0,.04,0,.08,0,.13,0,.18.03.35.1.5h0s.07.08.12.11c.04.03.1.04.17.03.12,0,.27-.03.43-.1.17-.06.34-.14.53-.24.19-.09.37-.2.56-.31l.03-.02c.06-.07.14-.15.25-.26.14-.13.31-.28.5-.44.2-.16.41-.33.63-.5.23-.17.46-.33.69-.47.23-.15.45-.27.67-.38.22-.11.41-.18.58-.21.16-.02.31-.02.44.01.12.04.23.1.33.2.11.1.18.26.23.48,0,.01,0,.03-.01.03,0,0-.02,0-.03-.02-.03-.05-.06-.09-.11-.15-.05-.05-.11-.1-.18-.13-.07-.03-.15-.05-.24-.06-.09,0-.19.02-.3.08-.1.05-.23.13-.4.24-.17.11-.36.23-.56.38-.2.14-.4.29-.61.45-.21.16-.39.31-.56.46-.17.15-.3.29-.41.42-.11.13-.15.23-.15.3.03,0,.07-.03.14-.07.06-.04.14-.09.24-.16.11-.07.24-.17.42-.29.17-.13.36-.27.57-.44.21-.17.41-.32.6-.47.19-.15.36-.27.51-.38.15-.11.25-.17.31-.18.17-.03.3,0,.4.08l.02.02c.06.06.1.13.12.23.01.09,0,.18-.03.26-.03.08-.07.2-.11.38-.04.18-.07.36-.08.54,0,.18.01.35.06.48.05.14.15.2.31.2.12,0,.27-.03.43-.1.17-.06.34-.14.53-.24.19-.09.37-.2.56-.31.19-.11.36-.22.53-.33.17-.11.32-.21.45-.3.13-.09.24-.17.32-.22h.33c-.45.36-.89.68-1.3.95-.18.12-.36.23-.55.34-.19.11-.37.21-.54.29-.18.09-.34.15-.5.2-.16.04-.29.06-.41.06-.18-.01-.34-.06-.49-.12-.13-.06-.25-.15-.36-.27-.11-.12-.17-.3-.18-.53-.01-.15,0-.3,0-.43.02-.14.04-.26.06-.37.03-.12.05-.23.09-.33-.45.36-.87.68-1.26.97-.17.12-.33.24-.49.35-.16.12-.31.22-.45.31-.14.09-.26.16-.37.21-.11.05-.18.08-.23.08-.31,0-.51-.07-.59-.24-.03-.07-.05-.14-.04-.22-.1.06-.21.12-.31.18-.16.09-.32.17-.47.24-.15.07-.29.12-.42.15h-.03c-.21.06-.41.05-.62-.03-.03-.02-.05-.03-.08-.05-.03-.02-.05-.03-.08-.04-.15-.14-.24-.29-.29-.45-.02-.05-.03-.1-.04-.15,0-.05-.01-.1-.02-.15,0-.07,0-.15,0-.23,0-.04,0-.08,0-.12-.24.18-.47.34-.7.49-.2.13-.41.25-.62.37-.22.12-.43.22-.64.31-.21.09-.42.16-.62.2-.2.05-.39.06-.55.03-.25-.03-.39-.12-.43-.27-.04-.15-.02-.32.07-.52.03-.07.06-.14.1-.21-.04.03-.08.05-.12.08-.2.13-.41.25-.62.37-.22.12-.43.22-.64.31-.21.09-.42.16-.62.2-.2.05-.39.06-.55.03-.2-.02-.34-.09-.39-.2-.06-.11-.07-.24-.03-.39.04-.15.1-.32.2-.49.1-.17.2-.34.31-.5.11-.16.21-.31.31-.43.09-.13.16-.22.19-.28.03-.05.05-.1.05-.16,0,0-.02-.03-.07-.06-.05-.03-.15-.01-.31.04-.16.06-.39.2-.69.42-.3.22-.7.57-1.21,1.06-.38.35-.69.65-.93.9-.24.24-.44.44-.59.6-.15.15-.26.27-.33.36-.07.09-.12.15-.14.19-.03.04-.06.05-.1.03-.04-.02-.09-.05-.14-.09-.06-.04-.11-.09-.14-.15-.04-.06-.06-.14-.07-.21,0-.08.03-.17.1-.28.34-.46.64-.89.89-1.3.11-.17.21-.35.31-.52.1-.18.19-.34.26-.5.07-.16.13-.3.16-.43.03-.13.04-.23.02-.32-.03-.09-.11-.11-.25-.07-.14.04-.31.13-.51.27-.2.14-.41.3-.65.48-.23.19-.46.38-.68.56-.22.19-.41.36-.58.52-.17.16-.29.28-.37.34-.03.03-.06.05-.08.05s-.04,0-.05-.01Zm36.63,1.16c-.19-.2-.38-.42-.6-.65-.21-.23-.41-.46-.6-.67-.19-.21-.36-.4-.5-.57-.15-.17-.25-.28-.31-.35-.03,0-.06,0-.08-.05-.02-.04-.04-.08-.05-.14-.03-.07-.04-.14-.03-.2.01-.06.04-.11.07-.15.03-.05.08-.09.13-.14.06-.05.14-.07.24-.07,0,0,.01,0,.01,0,0,0,0,0,.01,0h.06s.09,0,.14,0c.05,0,.1,0,.14,0h.06c.36-.04.7-.09,1-.15.3-.06.58-.11.83-.13.08,0,.17-.02.27-.04.11-.02.22-.04.33-.05.11-.02.23-.03.35-.05.11-.02.22-.04.32-.06.58-.14,1.04-.29,1.39-.47.34-.18.57-.32.7-.41.28-.21.53-.43.74-.66.21-.23.39-.46.53-.68.14-.24.27-.48.39-.73.22-.53.38-1.02.47-1.48.04-.2.06-.39.08-.59.01-.2,0-.38-.02-.55-.03-.17-.08-.32-.17-.46-.08-.14-.2-.24-.36-.32-.2-.09-.47-.09-.8,0-.33.09-.69.24-1.1.47-.41.23-.85.52-1.32.87-.47.35-.96.75-1.45,1.19-.7.62-1.39,1.3-2.08,2.04-.69.74-1.34,1.48-1.96,2.22-.54.74-1.16,1.53-1.86,2.39l-.09.1s-.07.08-.1.12c-.03.05-.07.09-.12.15-.06.07-.14.17-.24.27-.09.11-.19.21-.28.3-.1.09-.19.18-.28.24-.09.07-.16.1-.21.1-.03,0-.05-.01-.07-.03-.01-.02-.03-.07-.06-.14-.03-.07-.05-.14-.06-.23-.01-.09,0-.18,0-.28.02-.1.07-.2.14-.29.1-.1.26-.28.49-.54.23-.26.5-.57.8-.94.3-.36.63-.75.97-1.18.35-.42.68-.85,1.01-1.28.33-.43.63-.84.9-1.25.27-.4.49-.76.65-1.06.25-.47.45-.93.61-1.36.16-.43.28-.83.35-1.2.07-.37.09-.7.07-.98-.03-.29-.1-.52-.23-.71-.12-.16-.37-.27-.75-.33-.39-.06-.88-.05-1.47.04-.59.09-1.27.27-2.04.53-.77.26-1.59.63-2.46,1.12-.19.1-.37.21-.54.32-.18.11-.34.21-.48.32-.17.1-.34.21-.52.33-.18.11-.35.22-.51.32-.16.1-.3.19-.43.28-.12.08-.22.15-.28.19-.07.04-.12.07-.15.08-.03.01-.05,0-.07,0-.01-.01-.02-.04,0-.07.04-.17.11-.32.2-.48.1-.15.2-.3.32-.43.12-.14.24-.26.36-.36.12-.1.22-.19.3-.26.68-.48,1.47-.93,2.36-1.35.9-.42,1.93-.76,3.1-1.03.11-.02.25-.05.41-.07.17-.03.35-.04.55-.06.2-.01.4-.01.61,0,.21,0,.4.03.59.08.25.08.49.19.72.35.23.16.42.38.58.66.14.26.24.56.29.88.05.32.04.7-.05,1.12-.08.42-.24.9-.47,1.44-.23.53-.55,1.14-.97,1.83l.74-.81c.53-.57,1.08-1.13,1.65-1.66.57-.54,1.13-1,1.68-1.4.55-.4,1.09-.7,1.61-.91.52-.21,1.01-.27,1.46-.19.38.09.67.29.88.59.09.13.17.29.23.47.06.19.1.41.11.67,0,.26-.01.56-.07.9-.05.34-.16.72-.31,1.16-.07.2-.15.39-.24.57-.09.18-.19.36-.3.54-.04.06-.11.16-.2.3-.1.14-.23.3-.39.48-.17.18-.36.37-.59.57-.23.2-.5.38-.81.55-.18.09-.41.2-.7.32-.29.12-.59.22-.92.3-.13.04-.29.07-.46.1-.17.03-.34.06-.52.08-.18.03-.35.05-.53.07-.17.02-.32.04-.45.05h0c-.06,0-.12.01-.16.02s-.07,0-.08,0c-.25.02-.46.05-.63.07-.17.03-.32.05-.45.07.18.2.39.45.64.77.25.32.55.72.89,1.21l.21.29c.31.4.6.73.87,1,.27.27.54.53.81.79.27.25.5.43.69.55.19.12.35.19.47.21.12.02.22.01.29-.03.07-.04.13-.1.17-.17.04-.07.07-.14.1-.21.02-.07.04-.13.06-.16.05-.09.09-.12.12-.09.01.01.02.04.03.07-.09.25-.2.43-.34.54-.13.11-.28.18-.43.19-.15.02-.31,0-.48-.06-.16-.06-.32-.13-.47-.22-.13-.08-.25-.15-.34-.21-.09-.07-.17-.14-.24-.2-.07-.07-.14-.14-.21-.21-.06-.08-.14-.16-.22-.25-.1-.09-.18-.18-.26-.26-.08-.08-.15-.17-.23-.26-.08-.09-.16-.18-.24-.28-.08-.1-.17-.2-.27-.32-.22-.25-.41-.48-.59-.69-.17-.21-.32-.4-.45-.55-.15-.18-.28-.34-.39-.48-.01.07.04.19.15.37.12.18.26.37.42.58.17.21.34.42.51.63.17.21.31.38.41.52.14.15.28.32.43.5.14.18.29.39.44.62l-1.53-1.69Zm37.47-2.01c-.51.19-.89.38-1.12.59-.24.21-.38.39-.42.55-.04.16-.01.27.1.33.11.06.25.05.43-.05.19-.11.36-.29.54-.55.17-.26.33-.55.48-.87Zm-3.64-.59s-.03.02-.04.03c0,0-.01,0-.02.01l-.02.02.17-.03c.17-.04.33-.11.47-.19.14-.08.23-.14.28-.18.03-.01.05-.05.07-.1v-.05c.01-.07-.02-.09-.09-.08-.07,0-.17.05-.31.15-.08.04-.16.1-.24.17-.09.07-.17.14-.26.21,0,0,0,.01-.01.01h0Zm-10.72-.29c-.2.14-.4.29-.59.45-.19.15-.37.3-.53.45-.16.14-.29.27-.38.39-.1.12-.14.22-.13.29.03.02.07.01.14-.01.06-.02.14-.05.25-.11.11-.06.26-.15.44-.28.13-.09.28-.19.43-.3.15-.11.3-.23.45-.35.15-.12.3-.25.44-.38.14-.13.27-.25.39-.37.02-.02.05-.05.09-.1.04-.05.06-.11.04-.17,0-.05-.06-.05-.16,0-.1.05-.22.11-.34.18-.12.08-.24.15-.35.21-.11.07-.17.11-.18.11Zm-3.5,6.23s.13-.14.31-.34c.18-.2.41-.46.69-.79.28-.33.59-.72.93-1.16.34-.44.69-.91,1.04-1.42-.24.15-.48.31-.7.47-.23.17-.44.34-.65.53-.03.02-.12.12-.29.29-.17.17-.35.38-.55.61-.15.17-.29.33-.42.5-.13.17-.23.33-.3.47-.03.06-.05.16-.09.3-.03.14-.02.32.03.54Zm-4.02-10.02c.04-.13,0-.16-.12-.1-.12.06-.28.18-.47.35-.2.17-.42.38-.68.62-.25.24-.49.48-.72.71-.22.23-.42.44-.59.62-.17.18-.27.3-.31.35.49-.31.93-.61,1.33-.91.17-.13.34-.26.51-.41.17-.14.32-.29.47-.43.14-.14.26-.28.36-.42.1-.14.17-.26.21-.38Zm-5.49,3.79c-.19.14-.39.29-.59.45-.2.15-.38.3-.53.45-.16.14-.28.27-.38.39-.1.12-.15.22-.14.29.03,0,.07-.03.14-.07.06-.04.14-.09.24-.16.11-.07.25-.17.43-.29.13-.1.28-.21.44-.34.16-.13.32-.25.47-.38.16-.12.31-.24.45-.35.14-.11.26-.2.36-.27.02-.01.05-.04.09-.08.04-.04.06-.09.05-.16,0-.05-.06-.05-.17,0-.11.05-.22.11-.35.18-.13.08-.24.15-.35.21-.11.07-.17.11-.18.11Zm-4.03-.27s-.06.08-.09.11c-.03.04-.05.07-.07.11.09,0,.19.01.31.03h0s.05.02.07.05c.01.03.03.07.04.12.02.05.02.1.01.16,0,.02,0,.03,0,.06,0,.02,0,.04,0,.06-.02.04-.04.06-.07.06h-.05s-.05,0-.08.01c-.09.01-.19.05-.31.11,0,.03.01.05.02.07,0,.02.02.04.03.06.01.01.02.03.03.04,0,.01.02.02.02.04,0,.02.01.03.02.03.02.02.04.03.05.05.02.02.03.03.05.05.09.07.19.12.3.15.11.03.23.04.34.04.09-.12.16-.24.21-.35.05-.12.09-.23.12-.36.07-.26.09-.47.07-.61-.02-.14-.04-.23-.05-.27-.03-.08-.08-.13-.15-.16-.07-.03-.15-.05-.24-.03-.09.01-.19.05-.3.11-.11.06-.21.15-.32.26Zm-.86,1.66c-.06.13-.09.23-.11.3,0,.05,0,.09,0,.13s0,.08.02.11c.03.05.06.08.11.1.04.02.09.03.16.03s.15-.02.26-.07c.07-.03.14-.07.22-.11.08-.04.16-.09.25-.14.15-.1.26-.19.35-.28-.27-.02-.51-.11-.72-.29-.09-.08-.16-.18-.21-.3-.01.02-.03.03-.04.05-.01.01-.03.03-.04.05-.01.01-.03.04-.05.07-.02.03-.04.06-.07.1-.03.04-.05.09-.07.13-.02.05-.04.09-.05.12Zm-.73.79c-.07-.11-.1-.26-.09-.44,0-.08.02-.17.05-.28.04-.15.11-.3.19-.44.08-.14.17-.28.27-.41.13-.17.27-.3.39-.39.13-.09.2-.14.23-.16,0,0,.01-.01.02-.01.03-.11.07-.2.12-.29.05-.09.1-.16.15-.23.05-.06.1-.12.15-.16.05-.05.09-.08.11-.1.06-.05.14-.1.23-.15.09-.04.18-.08.28-.1.1-.02.19-.03.29-.03s.18.02.26.06c.05.03.1.07.15.12.05.05.1.11.13.2,0,.02.01.05.02.07,0,.02.01.04.02.07.03.09.04.19.04.31,0,.12,0,.25-.03.41,0,0,0,.01,0,.02-.03.17-.07.32-.12.45-.05.12-.09.22-.12.3-.04.06-.06.09-.06.09,0,0-.01.01-.02.01h0c.05,0,.1-.02.15-.03.05-.02.1-.03.15-.05.17-.06.34-.13.49-.21.16-.08.3-.16.42-.23.14-.08.28-.17.4-.27h0c.17-.15.35-.31.55-.47.04-.03.1-.07.18-.13.08-.06.17-.11.26-.17.12-.08.27-.16.46-.25.18-.09.36-.17.54-.23.18-.06.34-.08.48-.07.15.01.25.08.31.22.03-.04.05-.07.08-.1.03-.03.05-.06.09-.1.4-.52.88-1.05,1.43-1.61.55-.55,1.17-1.06,1.86-1.52.08-.05.15-.08.22-.11.06-.02.13-.04.2-.05.07-.01.14,0,.2.03.04.02.08.06.13.12.05.07.08.16.07.29,0,.12-.05.28-.14.46-.09.18-.26.39-.5.64-.24.24-.58.52-1,.84-.43.32-.97.66-1.65,1.05l-.39.46s-.08.12-.16.21c-.07.09-.15.2-.24.32-.08.12-.17.25-.25.38-.08.13-.15.25-.19.37-.03.08-.06.17-.1.27-.03.1-.06.2-.08.3-.04.23-.02.43.05.58.07.15.2.23.39.22.12,0,.28-.05.46-.14.19-.08.38-.19.59-.32.21-.13.43-.27.65-.42.22-.15.43-.3.63-.44.5-.4,1-.77,1.47-1.22-.11-.07-.18-.16-.23-.28-.04-.12-.06-.24-.06-.38,0-.12.03-.23.08-.32.05-.09.11-.17.17-.24.07-.08.15-.15.24-.21.08.01.16.04.23.07.06.03.11.07.17.12.05.05.09.11.1.19l-.02.02s-.01.01-.02.02c0,0-.02.02-.03.03-.07.07-.14.15-.2.25-.03.05-.06.1-.07.16-.02.05-.02.11,0,.16,0,.02,0,.03,0,.03.03.13.1.18.2.17.04,0,.09-.02.13-.04.04-.02.09-.04.14-.05.28-.11.5-.14.66-.11.05.02.11.04.17.06.06.03.11.07.16.13.09.1.11.24.05.41-.05.17-.14.34-.26.52-.12.18-.26.37-.41.55-.15.18-.29.35-.4.5-.11.15-.18.28-.21.38-.03.1.02.16.15.16.12.02.26,0,.42-.05.16-.04.32-.11.49-.19.17-.08.34-.17.52-.27.18-.1.35-.21.52-.32.2-.13.41-.27.61-.42.12-.15.22-.29.33-.41.03-.03.1-.07.22-.12.12-.05.24-.09.36-.12.13-.03.23-.05.32-.04.09,0,.12.05.1.12-.13.19-.28.38-.46.59-.18.21-.33.4-.47.57-.13.18-.23.33-.27.45-.05.12,0,.19.13.2.12.02.26,0,.42-.05.16-.04.32-.11.49-.19.17-.08.34-.17.52-.27.18-.1.35-.21.52-.32.07-.05.14-.09.21-.14.02-.04.05-.09.08-.13.08-.11.23-.26.43-.46.2-.2.44-.41.71-.63.04-.03.11-.07.19-.13.08-.06.16-.11.25-.17.12-.08.27-.16.45-.25.18-.09.36-.17.53-.23.18-.06.34-.08.48-.07.15,0,.25.07.32.2.01-.04.03-.08.05-.12.02-.04.04-.08.06-.12,0-.01.03-.03.06-.04.03-.01.08,0,.15.04.03.01.06.04.1.07.04.03.08.06.11.1.03.03.06.07.08.11.02.04.02.08,0,.12-.05.1-.12.22-.19.37-.08.15-.17.32-.27.51-.06.11-.13.23-.2.36-.07.13-.14.26-.22.39-.05.08-.1.17-.15.26-.05.09-.1.18-.15.27.03-.01.06-.03.09-.04.03-.01.05-.02.09-.04.41-.16.81-.31,1.19-.44.39-.13.74-.24,1.07-.33.33-.09.61-.17.85-.23.07-.02.13-.03.19-.05l.15-.18c.12-.15.23-.28.33-.41.1-.12.19-.22.26-.29.07-.07.13-.14.17-.18.01,0,.03-.02.06-.03.03-.01.05-.03.09-.05.2-.04.34-.05.43-.04.09.01.16.02.23.02.02,0,.04.02.06.03.02.01.01.04-.02.07-.26.24-.52.52-.78.83-.27.32-.52.63-.75.95-.02.04-.04.07-.06.1-.02.03-.04.05-.05.07-.06.11-.1.2-.12.28-.01.07-.01.13,0,.17.01.05.04.09.08.12.02,0,.05.01.09.01.17-.02.4-.11.67-.29.27-.18.56-.39.85-.64.29-.24.58-.49.84-.74.27-.25.48-.45.64-.61.09-.09.15-.15.18-.18.03-.06.07-.12.12-.17.04-.05.08-.08.12-.08.05,0,.11-.01.19-.02.07,0,.14,0,.2.01.06.02.11.05.15.1.04.05.05.13.03.23-.07.17-.18.36-.33.57-.15.21-.31.43-.47.65-.17.22-.34.44-.51.65-.17.21-.31.4-.43.56-.11.16-.18.29-.22.4-.03.11,0,.16.11.17.12.02.27,0,.43-.06.17-.06.35-.13.54-.23.19-.1.39-.21.6-.34.2-.13.4-.26.59-.4.25-.18.51-.38.77-.59,0-.02.02-.03.03-.05.1-.17.21-.33.34-.47.12-.15.25-.27.36-.38.12-.11.21-.18.26-.22.01,0,.03-.02.05-.03.02-.01.05-.03.08-.05.11-.06.22-.11.33-.16.11-.05.22-.08.31-.11.08-.02.15-.02.21-.02.06,0,.12.02.16.06.11.08.19.17.22.26.03.09.03.18.01.26,0,.02-.01.03-.02.06,0,.02-.02.05-.04.09-.1.15-.24.26-.43.34-.19.08-.38.14-.58.18-.06.01-.11.02-.16.03-.05,0-.1,0-.15.02-.03,0-.06.01-.08.01s-.05,0-.07.01c-.02.03-.05.08-.08.14-.04.06-.07.12-.1.19-.03.07-.06.13-.09.19-.03.06-.04.11-.04.14,0,.02,0,.06,0,.11s.02.11.05.16c.03.05.06.1.12.14.05.04.13.06.24.06.03,0,.05,0,.09,0,.03,0,.06,0,.1-.02.2-.04.43-.12.69-.25.26-.13.52-.28.78-.43.26-.16.49-.31.71-.46.11-.08.21-.15.29-.2h0c.58-.47,1.06-.86,1.44-1.19.38-.33.61-.54.7-.62.03-.05.05-.09.08-.12.06-.06.14-.1.24-.12.11-.02.21-.03.32-.02.12,0,.25.02.39.04-.06,0-.12.05-.19.14-.07.08-.13.18-.2.28-.07.12-.14.26-.22.41-.07.22-.14.43-.21.62-.07.2-.14.39-.21.56.24-.03.46-.05.67-.07.21-.01.39-.03.55-.03.19,0,.36,0,.52,0h.64c-.51.03-.96.07-1.37.13-.41.06-.78.13-1.1.21-.2.5-.41.91-.61,1.23-.2.33-.4.58-.59.75-.19.17-.37.28-.55.32-.17.04-.33.03-.46-.04-.17-.08-.29-.17-.37-.27-.08-.1-.14-.2-.17-.29-.04-.11-.06-.22-.06-.34.06-.2.16-.38.3-.54.14-.15.31-.29.5-.41.19-.12.4-.22.64-.3.23-.08.47-.15.71-.21.11-.26.21-.51.3-.75.09-.24.17-.46.24-.66-.29.27-.57.51-.86.73-.2.15-.39.29-.56.42h.03c-.36.28-.71.54-1.06.78-.3.2-.62.4-.95.59-.33.19-.63.33-.9.41-.19.06-.35.09-.48.09s-.25-.01-.34-.04c-.11-.03-.19-.08-.26-.15-.08-.07-.14-.16-.18-.26-.06-.12-.09-.25-.08-.4-.14.11-.27.21-.41.31-.22.16-.44.31-.68.46-.24.15-.47.27-.71.38-.24.11-.47.19-.7.24-.23.05-.44.06-.63.03-.2-.03-.32-.13-.33-.29-.02-.16.02-.36.12-.6.1-.23.23-.48.4-.75.17-.27.35-.52.52-.75-.18.18-.38.37-.6.58-.22.21-.45.4-.68.57-.23.18-.46.32-.68.44-.22.12-.43.18-.61.19h-.12s-.07,0-.1-.01c-.12-.02-.21-.04-.28-.09-.07-.04-.12-.1-.15-.16-.03-.07-.05-.14-.05-.22s0-.16.02-.23c.02-.09.05-.18.09-.26.04-.09.08-.17.12-.24.04-.08.09-.14.13-.21-.2.05-.43.11-.68.18-.32.09-.66.2-1.04.33-.38.13-.76.27-1.16.44-.07.03-.17.07-.29.11-.12.05-.22.09-.28.12-.03.05-.06.09-.08.13-.02.04-.05.08-.08.13-.19.32-.4.65-.61.98-.21.33-.43.65-.66.96-.22.31-.45.61-.68.88-.23.28-.46.53-.68.76-.08.08-.17.17-.29.29-.12.12-.24.23-.37.34-.13.11-.25.2-.36.29-.11.08-.2.12-.27.12-.08.02-.14,0-.18-.06-.04-.05-.07-.09-.07-.1-.02-.03-.04-.08-.08-.14-.03-.06-.06-.14-.08-.23-.02-.09-.04-.19-.05-.3,0-.11,0-.23.03-.36.02-.1.07-.22.15-.36.08-.14.19-.3.31-.46.12-.17.26-.33.41-.5.15-.17.3-.33.46-.5.16-.16.31-.31.47-.45.16-.14.3-.25.44-.34.23-.19.47-.36.72-.52.25-.16.51-.31.78-.45.1-.15.19-.3.29-.46.1-.15.19-.31.28-.46.11-.17.21-.35.31-.53.1-.18.2-.36.29-.54.01-.02.02-.04.03-.07,0-.02.02-.04.03-.07-.1.1-.25.25-.45.45-.2.2-.43.41-.68.62-.25.21-.5.41-.76.59-.26.18-.49.3-.71.36-.15.04-.27.03-.36-.02-.09-.05-.16-.13-.2-.24-.03-.07-.04-.15-.04-.24-.19.12-.39.24-.6.36-.22.12-.43.22-.64.31-.21.09-.42.16-.62.2-.2.05-.39.06-.55.03-.25-.03-.39-.12-.43-.27-.04-.15-.02-.32.07-.52.03-.07.06-.14.1-.22-.04.03-.09.06-.13.09-.2.13-.4.25-.62.37-.21.12-.43.22-.64.31-.21.09-.42.16-.62.2-.2.05-.39.06-.55.03-.2-.02-.34-.09-.39-.2-.06-.11-.07-.24-.04-.39.03-.15.1-.32.2-.49.1-.17.2-.34.31-.5.11-.16.21-.31.31-.43.1-.13.16-.22.18-.28.01-.02.03-.05.04-.08.01-.05.01-.09,0-.11-.02-.02-.04-.03-.07-.04-.03,0-.07,0-.12.01-.13.03-.24.05-.31.05-.07,0-.12,0-.15,0,0,0-.01,0-.01,0,0,0,0,0-.01,0-.04.04-.08.09-.12.12-.03.04-.06.07-.1.1-.03.03-.06.06-.1.08-.03.03-.07.06-.11.08-.04.03-.08.06-.13.1-.28.21-.56.41-.84.63-.23.18-.46.34-.68.5-.2.14-.4.28-.61.42-.21.14-.41.25-.6.35-.19.1-.38.18-.55.24-.17.06-.31.09-.44.08-.19,0-.35-.04-.5-.1-.13-.05-.25-.14-.36-.25-.11-.12-.17-.29-.19-.52-.01-.15,0-.32.07-.5.06-.18.12-.36.19-.51.08-.19.17-.37.28-.55-.38.31-.73.59-1.05.83-.13.1-.27.21-.41.31-.14.1-.27.19-.39.28-.12.08-.22.15-.32.21-.09.06-.16.09-.21.1-.15.04-.27.03-.36-.02-.09-.05-.15-.12-.18-.21-.03-.09-.04-.2,0-.32.02-.11.08-.22.15-.32-.14.08-.28.16-.44.23-.26.13-.51.22-.78.27-.03,0-.04,0-.06.01-.15.17-.32.32-.53.48-.2.15-.46.29-.76.42-.03.02-.06.03-.1.04-.03.01-.06.02-.09.04-.13.04-.24.06-.33.06-.09,0-.17,0-.23-.02-.07-.02-.13-.04-.18-.07-.04-.04-.08-.07-.11-.11-.03-.04-.06-.07-.08-.11Zm15.05-2.4c-.05-.01-.05-.07,0-.17.05-.1.11-.21.19-.33.08-.12.15-.24.22-.37.07-.12.09-.22.07-.3,0,0,0-.02,0-.03.01-.03.05-.07.12-.11.05-.04.14-.08.27-.14.13-.06.25-.09.37-.1.11-.01.19.02.23.1.04.07,0,.23-.12.46-.09.17-.2.32-.32.46-.12.14-.25.31-.39.51-.1,0-.2.02-.28.02-.07,0-.14.01-.21.02-.07,0-.12,0-.15-.02Z"/></clipPath><clipPath id="clippath-1"><path class="cls-2" d="m153.3,40.09c5.32-6.29,12.59-14.05,16.4-20.65,1.31-2.28,2-4.63,2-7.03,0-3.52-1.24-6.22-3.73-8.14-2.49-1.93-4.14-2.9-8.5-2.9-3.1,0-5.83.46-8.18,1.39.8.7,1.48,1.45,2.02,2.26.61-.09,1.24-.13,1.88-.13,6.22,0,9.32,3.17,9.32,9.44,0,3.59-.83,6.97-2.56,10.14-2,3.68-6.34,9.12-9.49,12.42l.83,3.2Z"/></clipPath><clipPath id="clippath-5"><path class="cls-5" d="m131.98,25.91h-8.49c2.37,0,3.21-2.14,3.29-2.45v-15.29c0-1.76.15-3.06.46-3.9.31-.84.84-1.45,1.61-1.76.76-.31,1.91-.46,3.52-.46,4.51,0,7.72.99,9.71,2.98s2.98,4.97,2.98,8.87-.92,6.65-2.83,8.79c-1.91,2.14-5.35,3.21-10.4,3.21h.15Zm40.7,20.59c-1.22,1.22-18.66,7.12-21.05-2.77l-1.91-7.34c-.69-3.06-1.83-5.28-3.36-6.65-1.53-1.38-3.98-2.37-7.34-2.91l-.92-.15c3.59-.53,6.5-1.53,8.72-3.06,2.22-1.53,3.82-3.21,4.74-5.12.92-1.91,1.38-3.82,1.38-5.66,0-3.67-1.61-6.65-4.82-8.95-3.21-2.29-7.72-3.44-13.61-3.44l-18.5-.08v1.68c.69.08,1.22.23,1.68.38.84.31,1.38.84,1.68,1.68.31.84.46,2.14.46,3.98v35.7c0,1.83-.15,3.13-.46,3.98-.31.84-.84,1.38-1.68,1.68-.46.15-.99.31-1.68.38v1.68h14.76v-1.68c-.69-.08-1.22-.23-1.61-.38-.84-.31-1.38-.84-1.68-1.68-.31-.84-.46-2.14-.46-3.98v-16.59h7.26c1.91,0,3.44.38,4.51,1.22,1.07.84,1.83,1.91,2.37,3.29.54,1.38,1.07,3.29,1.68,5.81l1.68,7.19c.69,2.9,1.68,4.89,3.06,6.04,4.14,3.45,21.68,1.98,26.1-2.88l-.99-1.38Z"/></clipPath></defs><path class="cls-3" d="m10.97,68.94s-.06.08-.09.11c-.03.04-.05.07-.07.11.09,0,.19.01.31.03h0s.05.02.07.05c.01.03.03.07.04.12.02.05.02.1.01.16,0,.02,0,.03,0,.06,0,.02,0,.04,0,.06-.02.04-.04.06-.07.06h-.05s-.04,0-.08.01c-.09.01-.19.05-.31.11,0,.03.01.05.02.07,0,.02.02.04.03.06.01.01.02.03.03.04,0,.01.02.02.02.04,0,.02.01.03.02.03.02.02.04.03.05.05.02.02.03.03.05.05.09.07.19.12.3.15.11.03.23.04.34.04.09-.12.16-.24.21-.35.05-.12.09-.23.12-.36.07-.26.09-.47.07-.61-.02-.14-.04-.23-.05-.27-.03-.08-.08-.13-.15-.16-.07-.03-.15-.05-.24-.03-.09.01-.19.05-.3.11-.11.06-.21.15-.32.26m-.86,1.66c-.06.13-.09.23-.11.3,0,.05,0,.09,0,.13s0,.08.02.11c.03.05.06.08.11.1.04.02.09.03.16.03s.15-.02.26-.07c.07-.03.14-.07.22-.11.08-.04.16-.09.25-.14.15-.1.26-.19.35-.28-.28-.02-.51-.11-.72-.29-.09-.08-.16-.18-.21-.3-.01.02-.03.03-.04.05-.01.01-.03.03-.04.05-.01.01-.03.04-.05.07-.02.03-.04.06-.07.1-.03.04-.05.09-.07.13-.02.05-.04.09-.05.12ZM.35,75.4c.05-.06.15-.17.29-.32.14-.15.31-.35.5-.58.19-.23.41-.5.66-.8.24-.3.5-.63.76-.98-.48.46-.89.87-1.23,1.22-.34.36-.56.61-.65.75-.08.13-.15.25-.2.37-.05.12-.09.23-.12.34Zm5.59-4.34c.27-.07.5-.17.69-.29.19-.12.35-.26.49-.41-.2.09-.38.18-.53.26-.15.09-.27.16-.36.22-.12.08-.21.15-.29.21Zm-2.19-.06l.04-.05c.03-.06.09-.15.16-.26.08-.12.16-.25.25-.39.09-.15.19-.3.29-.46.1-.16.2-.31.29-.44.09-.14.17-.26.23-.37.07-.1.11-.18.13-.22,0-.02.02-.03.04-.06.01-.02.03-.03.05-.06.02-.02.04-.04.07-.07,0,0,.02,0,.03-.02,0,0,.02-.02.05-.03.01,0,.03-.02.04-.02.02,0,.03-.01.04-.02.08-.03.17-.06.27-.1.11-.04.2-.06.3-.08.09-.01.17-.01.23,0,.06.01.07.06.05.12-.02.03-.04.06-.06.08-.02.03-.04.05-.07.08h0c-.09.14-.18.27-.28.41-.08.12-.18.25-.28.4-.11.15-.21.3-.31.45.25-.19.49-.36.72-.53.23-.17.45-.31.65-.44.2-.13.39-.24.56-.32.17-.09.32-.14.44-.17.17-.04.31-.02.42.04.1.06.19.17.25.33.07.16.08.4.03.73,0,.02,0,.03,0,.05s0,.04,0,.05c0,.01,0,.03,0,.05s0,.04-.01.05c.1-.02.19-.04.29-.06.1-.02.2-.04.3-.05.22-.04.46-.07.7-.08.14-.01.29-.02.44-.02.04-.03.07-.06.11-.08.13-.09.2-.14.23-.16,0,0,.01-.01.02-.01.03-.11.07-.2.12-.29.05-.09.1-.16.15-.23.05-.06.1-.12.15-.16.05-.05.08-.08.11-.1.06-.05.14-.1.23-.15.09-.04.18-.08.28-.1.1-.02.19-.03.29-.03s.18.02.26.06c.05.03.1.07.15.12.05.05.1.11.13.2,0,.02.01.05.02.07,0,.02.01.04.02.07.03.09.04.19.04.31,0,.12,0,.25-.03.41,0,0,0,.01,0,.02-.03.17-.07.32-.12.45-.05.12-.09.22-.12.3-.04.06-.06.09-.06.09,0,0-.01.01-.02.01h0c.05,0,.1-.02.15-.03.05-.02.1-.03.15-.05.17-.06.34-.13.49-.21.16-.08.3-.16.42-.23.07-.04.14-.08.2-.13.04-.03.08-.06.12-.1.29-.24.53-.45.72-.63-.11-.07-.18-.16-.23-.28-.04-.12-.06-.24-.06-.38,0-.12.03-.23.08-.32.05-.09.11-.17.17-.24.07-.08.15-.15.24-.21.08.01.16.04.23.07.06.03.11.07.17.12.05.05.09.11.1.19l-.02.02s-.01.01-.02.02c0,0-.02.02-.03.03-.07.07-.14.15-.2.25-.03.05-.06.1-.07.16-.02.05-.02.11,0,.16,0,.02,0,.03,0,.03.03.13.1.18.2.17.04,0,.09-.02.13-.04.05-.02.09-.04.14-.05.28-.11.5-.14.66-.11.05.02.11.04.17.06.06.03.11.07.16.13.09.1.11.24.05.41-.05.17-.14.34-.26.52-.12.18-.26.37-.41.55-.15.18-.29.35-.4.5-.11.15-.18.28-.21.38-.03.1.02.16.15.16.12.02.26,0,.42-.05.16-.04.32-.11.49-.19.17-.08.34-.17.52-.27.18-.1.35-.21.52-.32.4-.26.8-.55,1.22-.89h.35c-.48.41-.95.77-1.42,1.07-.2.13-.4.25-.62.37-.21.12-.43.22-.64.31-.21.09-.42.16-.62.2-.2.05-.39.06-.55.03-.2-.02-.34-.09-.39-.2-.06-.11-.07-.24-.04-.39.03-.15.1-.32.2-.49.1-.17.2-.34.31-.5.11-.16.21-.31.31-.43.1-.13.16-.22.18-.28.01-.02.03-.05.04-.08.01-.05.01-.09,0-.11-.02-.02-.04-.03-.07-.04-.03,0-.07,0-.12.01-.13.03-.24.05-.31.05-.07,0-.12,0-.15,0,0,0-.01,0-.01,0,0,0,0,0-.01,0-.04.04-.08.09-.12.12-.03.04-.06.07-.1.1-.03.03-.06.06-.1.08-.03.03-.07.06-.11.08-.04.03-.08.06-.13.1-.11.08-.22.16-.34.24-.12.08-.22.15-.31.21-.11.07-.21.14-.32.2l-.04-.03c-.14.08-.3.16-.46.25-.26.13-.51.22-.78.27-.03,0-.04,0-.06.01-.15.17-.32.32-.53.48-.2.15-.46.29-.76.42-.03.02-.06.03-.1.04-.03.01-.06.02-.09.04-.13.04-.24.06-.33.06-.09,0-.17,0-.23-.02-.07-.02-.13-.04-.18-.07-.04-.04-.08-.07-.11-.11-.03-.04-.06-.07-.08-.11-.07-.11-.1-.26-.09-.44,0-.08.02-.17.05-.28.04-.15.11-.3.19-.44.08-.14.17-.28.27-.41.06-.08.13-.15.19-.22-.15.02-.29.04-.43.06-.46.08-.88.17-1.26.28-.1.26-.24.47-.43.65-.19.18-.4.32-.63.43-.23.11-.46.19-.7.24-.24.05-.44.08-.62.08-.13-.03-.2-.08-.23-.16-.03-.08-.04-.14-.04-.18,0-.02,0-.05.03-.07.13-.12.31-.25.54-.4.23-.15.52-.29.86-.42.05-.02.1-.04.16-.06.05-.02.11-.04.16-.06.03-.05.06-.09.08-.14.02-.05.04-.09.07-.12.06-.13.1-.25.13-.37.03-.12.05-.23.07-.32.02-.11.03-.2.03-.29-.4.18-.83.43-1.3.74-.46.31-.93.66-1.41,1.04-.07.05-.14.1-.21.16-.07.05-.14.11-.21.17l-.13.19c-.14.2-.27.38-.39.56-.12.18-.22.32-.29.43-.35.54-.71,1.06-1.08,1.57-.37.5-.75.94-1.13,1.31-.08.08-.17.17-.29.29-.12.12-.24.23-.37.34-.13.11-.25.21-.36.29-.11.08-.2.12-.26.12-.08,0-.15-.02-.19-.07-.04-.05-.07-.08-.07-.09,0-.01-.01-.03-.02-.04,0-.02-.02-.03-.03-.06h0s-.01-.1-.02-.2c0-.1,0-.24.03-.39.03-.16.09-.34.18-.54.09-.2.24-.4.44-.61.11-.12.25-.26.43-.43.18-.17.38-.36.61-.58.09-.08.18-.17.28-.26.1-.09.2-.18.31-.27.19-.17.39-.35.6-.54.21-.18.42-.37.65-.56l.11-.13.12-.19Zm45.64-2.02c-.05-.01-.05-.07,0-.17.05-.1.11-.21.19-.33.08-.12.15-.24.22-.37.07-.12.09-.22.07-.3,0,0,0-.02,0-.03.01-.03.05-.07.12-.11.05-.04.14-.08.27-.14.13-.06.25-.09.36-.1.11-.01.19.02.23.1.04.07,0,.23-.12.46-.09.17-.2.32-.32.46-.12.14-.25.31-.39.51-.1,0-.19.02-.28.02-.07,0-.14.01-.21.02-.07,0-.12,0-.15-.02Zm6.84-3.56c.04-.13,0-.16-.12-.1-.12.06-.28.18-.48.35-.2.17-.42.38-.68.62-.25.24-.49.48-.71.71-.22.23-.42.44-.59.62-.17.18-.27.3-.31.35.49-.31.93-.61,1.33-.91.17-.13.34-.26.51-.41.17-.14.32-.29.47-.43.14-.14.26-.28.36-.42.1-.14.17-.26.21-.38Zm-16.13,5.51s-.1-.07-.17-.12c-.07-.05-.13-.12-.18-.19-.05-.07-.09-.15-.11-.24-.02-.07,0-.13.03-.2-.13.09-.25.17-.37.25-.18.12-.36.23-.55.34-.19.11-.37.21-.54.29-.18.09-.34.15-.5.2-.16.04-.29.06-.41.06-.18-.01-.34-.06-.49-.12-.13-.06-.25-.15-.36-.27-.11-.12-.17-.3-.18-.53-.01-.15,0-.3,0-.43.02-.14.04-.26.06-.37.03-.12.05-.23.09-.33-.45.36-.87.68-1.26.97-.17.12-.33.24-.49.35-.16.12-.31.22-.45.31-.14.09-.26.16-.37.21-.11.05-.18.08-.23.08-.26,0-.44-.05-.54-.16-.05.04-.1.08-.15.12-.52.37-1.04.72-1.57,1.05-.53.33-1.07.62-1.64.85-.56.23-1.14.39-1.74.48-.6.09-1.22.08-1.88-.03-.13-.02-.26-.05-.38-.08-.12-.03-.24-.06-.35-.1-.43-.15-.77-.35-1.02-.59-.25-.24-.43-.51-.55-.79-.12-.28-.19-.57-.21-.87-.02-.3-.01-.58.02-.84.03-.26.08-.5.13-.7.06-.21.1-.36.13-.47.11-.34.23-.66.37-.95.14-.3.28-.55.4-.77.15-.26.3-.5.45-.72.49-.7.97-1.31,1.44-1.83.47-.52.93-.96,1.38-1.34.45-.37.87-.68,1.28-.92.41-.24.79-.44,1.14-.59.82-.34,1.59-.49,2.32-.46.18,0,.35.05.5.12.13.06.25.15.37.28.12.13.21.3.26.52.01.06.02.12.03.19,0,.06,0,.13,0,.21s0,.16-.02.24c-.03.05-.07.09-.12.12-.04.04-.09.08-.14.11-.06.04-.13.06-.22.08h0s-.03-.02-.04-.05c0-.02,0-.03,0-.05-.01-.06-.02-.12-.03-.19,0-.06-.02-.12-.03-.17-.02-.06-.04-.11-.05-.16,0,0,0,0,0-.02h0c-.05-.15-.12-.26-.19-.34-.08-.08-.16-.14-.24-.18-.08-.04-.16-.06-.24-.07-.08-.01-.14-.02-.19-.02-.23-.02-.57.05-1.02.19-.45.14-.96.39-1.53.75-.58.36-1.19.84-1.84,1.44-.65.6-1.3,1.34-1.93,2.23-.63.88-1.09,1.7-1.39,2.47-.3.77-.41,1.44-.34,2.01.07.57.34,1.03.81,1.36.46.34,1.14.51,2.03.53.72.01,1.42-.1,2.08-.34.67-.24,1.3-.56,1.91-.94.61-.38,1.19-.8,1.76-1.26.13-.1.25-.21.38-.31.05-.06.13-.13.22-.22.14-.13.31-.28.5-.44.2-.16.41-.33.63-.5.23-.17.46-.33.69-.47.23-.15.45-.27.67-.38.22-.11.41-.18.58-.21.16-.02.31-.02.44.01.12.04.23.1.33.2.11.1.18.26.23.48,0,.01,0,.03-.01.03,0,0-.02,0-.03-.02-.03-.05-.06-.09-.11-.15-.05-.05-.11-.1-.18-.13-.07-.03-.15-.05-.24-.06-.09,0-.19.02-.3.08-.1.05-.23.13-.4.24-.17.11-.36.23-.56.38-.2.14-.4.29-.61.45-.21.16-.4.31-.56.46-.17.15-.3.29-.41.42-.11.13-.16.23-.15.3.03,0,.07-.03.14-.07.06-.04.14-.09.24-.16.11-.07.24-.17.42-.29.17-.13.36-.27.57-.44.21-.17.41-.32.6-.47.19-.15.36-.27.51-.38.15-.11.25-.17.31-.18.17-.03.3,0,.4.08l.02.02c.06.06.1.13.12.23.01.09,0,.18-.03.26-.03.08-.07.2-.11.38-.04.18-.07.36-.08.54,0,.18.01.35.06.48.05.14.15.2.31.2.12,0,.27-.03.43-.1.17-.06.34-.14.53-.24.19-.09.37-.2.56-.31.19-.11.36-.22.53-.33.17-.11.32-.21.45-.3l.07-.05c.07-.11.14-.21.21-.31.09-.13.17-.25.24-.36.07-.11.12-.2.14-.27.01-.04.04-.08.07-.12.03-.04.07-.05.12-.04.04.02.09.05.15.1.06.04.12.09.16.15.05.06.08.12.11.19.02.07.01.14-.03.2-.06.08-.13.17-.21.27-.08.1-.16.19-.24.28-.08.09-.14.17-.2.25-.06.08-.1.14-.12.19.41-.38.8-.7,1.17-.98.16-.12.32-.23.49-.34.17-.11.33-.2.48-.28.16-.08.3-.14.44-.17.13-.04.25-.04.35-.01.19.05.31.17.35.35.04.18.03.39-.04.63-.07.24-.18.5-.33.77-.15.27-.32.52-.51.74.15-.14.31-.28.49-.43.15-.13.33-.27.54-.43.2-.16.42-.32.65-.48.22-.16.43-.31.65-.45.21-.14.42-.26.61-.35.19-.1.37-.17.54-.21.17-.04.31-.06.42-.03.05.02.11.04.17.06.06.03.11.07.16.13.09.1.11.24.05.41-.05.17-.14.34-.26.52-.12.18-.26.37-.42.55-.16.18-.29.35-.4.5-.11.15-.18.28-.21.38-.03.1.02.16.14.16.12.02.26,0,.42-.05.16-.04.32-.11.49-.19.17-.08.34-.17.52-.27.18-.1.35-.21.52-.32.2-.13.41-.27.62-.42.12-.15.22-.29.32-.41.03-.03.1-.07.22-.12.12-.05.24-.09.36-.12.12-.03.23-.05.32-.04.09,0,.12.05.1.12-.13.19-.28.38-.46.59-.18.21-.33.4-.47.57-.13.18-.23.33-.27.45-.05.12,0,.19.13.2.12.02.26,0,.42-.05.16-.04.32-.11.49-.19.17-.08.34-.17.52-.27.18-.1.35-.21.52-.32.3-.19.6-.41.91-.65h0c.04-.17.09-.32.14-.47.15-.34.33-.66.54-.97.21-.31.41-.58.59-.79.03-.04.06-.07.09-.1.03-.03.05-.06.09-.09.35-.39.74-.78,1.17-1.16.43-.38.89-.74,1.39-1.08.08-.05.15-.08.22-.11.06-.02.13-.04.2-.05.07-.01.13,0,.2.03.04.02.08.06.13.12.05.07.08.16.07.29,0,.12-.05.28-.14.46-.09.18-.26.39-.5.64-.24.24-.57.52-1,.84-.43.32-.97.66-1.65,1.05l-.17.2c-.06.08-.13.18-.21.3-.08.12-.15.24-.23.38-.07.14-.14.28-.2.43-.06.15-.1.3-.12.46,0,.04-.01.09-.01.13,0,.04,0,.08,0,.13,0,.18.03.35.1.5h0s.07.08.12.11c.04.03.1.04.17.03.12,0,.27-.03.43-.1.17-.06.34-.14.53-.24.19-.09.37-.2.56-.31l.03-.02c.06-.07.14-.15.25-.26.14-.13.31-.28.5-.44.2-.16.41-.33.63-.5.23-.17.46-.33.69-.47.23-.15.45-.27.67-.38.22-.11.41-.18.58-.21.16-.02.31-.02.44.01.12.04.23.1.33.2.11.1.18.26.23.48,0,.01,0,.03-.01.03,0,0-.02,0-.03-.02-.03-.05-.06-.09-.11-.15-.05-.05-.11-.1-.18-.13-.07-.03-.15-.05-.24-.06-.09,0-.19.02-.3.08-.1.05-.23.13-.4.24-.17.11-.36.23-.56.38-.2.14-.4.29-.61.45-.21.16-.39.31-.56.46-.17.15-.3.29-.41.42-.11.13-.15.23-.15.3.03,0,.07-.03.14-.07.06-.04.14-.09.24-.16.11-.07.24-.17.42-.29.17-.13.36-.27.57-.44.21-.17.41-.32.6-.47.19-.15.36-.27.51-.38.15-.11.25-.17.31-.18.17-.03.3,0,.4.08l.02.02c.06.06.1.13.12.23.01.09,0,.18-.03.26-.03.08-.07.2-.11.38-.04.18-.07.36-.08.54,0,.18.01.35.06.48.05.14.15.2.31.2.12,0,.27-.03.43-.1.17-.06.34-.14.53-.24.19-.09.37-.2.56-.31.19-.11.36-.22.53-.33.17-.11.32-.21.45-.3.13-.09.24-.17.32-.22h.33c-.45.36-.89.68-1.3.95-.18.12-.36.23-.55.34-.19.11-.37.21-.54.29-.18.09-.34.15-.5.2-.16.04-.29.06-.41.06-.18-.01-.34-.06-.49-.12-.13-.06-.25-.15-.36-.27-.11-.12-.17-.3-.18-.53-.01-.15,0-.3,0-.43.02-.14.04-.26.06-.37.03-.12.05-.23.09-.33-.45.36-.87.68-1.26.97-.17.12-.33.24-.49.35-.16.12-.31.22-.45.31-.14.09-.26.16-.37.21-.11.05-.18.08-.23.08-.31,0-.51-.07-.59-.24-.03-.07-.05-.14-.04-.22-.1.06-.21.12-.31.18-.16.09-.32.17-.47.24-.15.07-.29.12-.42.15h-.03c-.21.06-.41.05-.62-.03-.03-.02-.05-.03-.08-.05-.03-.02-.05-.03-.08-.04-.15-.14-.24-.29-.29-.45-.02-.05-.03-.1-.04-.15,0-.05-.01-.1-.02-.15,0-.07,0-.15,0-.23,0-.04,0-.08,0-.12-.24.18-.47.34-.7.49-.2.13-.41.25-.62.37-.22.12-.43.22-.64.31-.21.09-.42.16-.62.2-.2.05-.39.06-.55.03-.25-.03-.39-.12-.43-.27-.04-.15-.02-.32.07-.52.03-.07.06-.14.1-.21-.04.03-.08.05-.12.08-.2.13-.41.25-.62.37-.22.12-.43.22-.64.31-.21.09-.42.16-.62.2-.2.05-.39.06-.55.03-.2-.02-.34-.09-.39-.2-.06-.11-.07-.24-.03-.39.04-.15.1-.32.2-.49.1-.17.2-.34.31-.5.11-.16.21-.31.31-.43.09-.13.16-.22.19-.28.03-.05.05-.1.05-.16,0,0-.02-.03-.07-.06-.05-.03-.15-.01-.31.04-.16.06-.39.2-.69.42-.3.22-.7.57-1.21,1.06-.38.35-.69.65-.93.9-.24.24-.44.44-.59.6-.15.15-.26.27-.33.36-.07.09-.12.15-.14.19-.03.04-.06.05-.1.03-.04-.02-.09-.05-.14-.09-.06-.04-.11-.09-.14-.15-.04-.06-.06-.14-.07-.21,0-.08.03-.17.1-.28.34-.46.64-.89.89-1.3.11-.17.21-.35.31-.52.1-.18.19-.34.26-.5.07-.16.13-.3.16-.43.03-.13.04-.23.02-.32-.03-.09-.11-.11-.25-.07-.14.04-.31.13-.51.27-.2.14-.41.3-.65.48-.23.19-.46.38-.68.56-.22.19-.41.36-.58.52-.17.16-.29.28-.37.34-.03.03-.06.05-.08.05s-.04,0-.05-.01Zm36.63,1.16c-.19-.2-.38-.42-.6-.65-.21-.23-.41-.46-.6-.67-.19-.21-.36-.4-.5-.57-.15-.17-.25-.28-.31-.35-.03,0-.06,0-.08-.05-.02-.04-.04-.08-.05-.14-.03-.07-.04-.14-.03-.2.01-.06.04-.11.07-.15.03-.05.08-.09.13-.14.06-.05.14-.07.24-.07,0,0,.01,0,.01,0,0,0,0,0,.01,0h.06s.09,0,.14,0c.05,0,.1,0,.14,0h.06c.36-.04.7-.09,1-.15.3-.06.58-.11.83-.13.08,0,.17-.02.27-.04.11-.02.22-.04.33-.05.11-.02.23-.03.35-.05.11-.02.22-.04.32-.06.58-.14,1.04-.29,1.39-.47.34-.18.57-.32.7-.41.28-.21.53-.43.74-.66.21-.23.39-.46.53-.68.14-.24.27-.48.39-.73.22-.53.38-1.02.47-1.48.04-.2.06-.39.08-.59.01-.2,0-.38-.02-.55-.03-.17-.08-.32-.17-.46-.08-.14-.2-.24-.36-.32-.2-.09-.47-.09-.8,0-.33.09-.69.24-1.1.47-.41.23-.85.52-1.32.87-.47.35-.96.75-1.45,1.19-.7.62-1.39,1.3-2.08,2.04-.69.74-1.34,1.48-1.96,2.22-.54.74-1.16,1.53-1.86,2.39l-.09.1s-.07.08-.1.12c-.03.05-.07.09-.12.15-.06.07-.14.17-.24.27-.09.11-.19.21-.28.3-.1.09-.19.18-.28.24-.09.07-.16.1-.21.1-.03,0-.05-.01-.07-.03-.01-.02-.03-.07-.06-.14-.03-.07-.05-.14-.06-.23-.01-.09,0-.18,0-.28.02-.1.07-.2.14-.29.1-.1.26-.28.49-.54.23-.26.5-.57.8-.94.3-.36.63-.75.97-1.18.35-.42.68-.85,1.01-1.28.33-.43.63-.84.9-1.25.27-.4.49-.76.65-1.06.25-.47.45-.93.61-1.36.16-.43.28-.83.35-1.2.07-.37.09-.7.07-.98-.03-.29-.1-.52-.23-.71-.12-.16-.37-.27-.75-.33-.39-.06-.88-.05-1.47.04-.59.09-1.27.27-2.04.53-.77.26-1.59.63-2.46,1.12-.19.1-.37.21-.54.32-.18.11-.34.21-.48.32-.17.1-.34.21-.52.33-.18.11-.35.22-.51.32-.16.1-.3.19-.43.28-.12.08-.22.15-.28.19-.07.04-.12.07-.15.08-.03.01-.05,0-.07,0-.01-.01-.02-.04,0-.07.04-.17.11-.32.2-.48.1-.15.2-.3.32-.43.12-.14.24-.26.36-.36.12-.1.22-.19.3-.26.68-.48,1.47-.93,2.36-1.35.9-.42,1.93-.76,3.1-1.03.11-.02.25-.05.41-.07.17-.03.35-.04.55-.06.2-.01.4-.01.61,0,.21,0,.4.03.59.08.25.08.49.19.72.35.23.16.42.38.58.66.14.26.24.56.29.88.05.32.04.7-.05,1.12-.08.42-.24.9-.47,1.44-.23.53-.55,1.14-.97,1.83l.74-.81c.53-.57,1.08-1.13,1.65-1.66.57-.54,1.13-1,1.68-1.4.55-.4,1.09-.7,1.61-.91.52-.21,1.01-.27,1.46-.19.38.09.67.29.88.59.09.13.17.29.23.47.06.19.1.41.11.67,0,.26-.01.56-.07.9-.05.34-.16.72-.31,1.16-.07.2-.15.39-.24.57-.09.18-.19.36-.3.54-.04.06-.11.16-.2.3-.1.14-.23.3-.39.48-.17.18-.36.37-.59.57-.23.2-.5.38-.81.55-.18.09-.41.2-.7.32-.29.12-.59.22-.92.3-.13.04-.29.07-.46.1-.17.03-.34.06-.52.08-.18.03-.35.05-.53.07-.17.02-.32.04-.45.05h0c-.06,0-.12.01-.16.02s-.07,0-.08,0c-.25.02-.46.05-.63.07-.17.03-.32.05-.45.07.18.2.39.45.64.77.25.32.55.72.89,1.21l.21.29c.31.4.6.73.87,1,.27.27.54.53.81.79.27.25.5.43.69.55.19.12.35.19.47.21.12.02.22.01.29-.03.07-.04.13-.1.17-.17.04-.07.07-.14.1-.21.02-.07.04-.13.06-.16.05-.09.09-.12.12-.09.01.01.02.04.03.07-.09.25-.2.43-.34.54-.13.11-.28.18-.43.19-.15.02-.31,0-.48-.06-.16-.06-.32-.13-.47-.22-.13-.08-.25-.15-.34-.21-.09-.07-.17-.14-.24-.2-.07-.07-.14-.14-.21-.21-.06-.08-.14-.16-.22-.25-.1-.09-.18-.18-.26-.26-.08-.08-.15-.17-.23-.26-.08-.09-.16-.18-.24-.28-.08-.1-.17-.2-.27-.32-.22-.25-.41-.48-.59-.69-.17-.21-.32-.4-.45-.55-.15-.18-.28-.34-.39-.48-.01.07.04.19.15.37.12.18.26.37.42.58.17.21.34.42.51.63.17.21.31.38.41.52.14.15.28.32.43.5.14.18.29.39.44.62l-1.53-1.69Zm37.47-2.01c-.51.19-.89.38-1.12.59-.24.21-.38.39-.42.55-.04.16-.01.27.1.33.11.06.25.05.43-.05.19-.11.36-.29.54-.55.17-.26.33-.55.48-.87Zm-3.64-.59s-.03.02-.04.03c0,0-.01,0-.02.01l-.02.02.17-.03c.17-.04.33-.11.47-.19.14-.08.23-.14.28-.18.03-.01.05-.05.07-.1v-.05c.01-.07-.02-.09-.09-.08-.07,0-.17.05-.31.15-.08.04-.16.1-.24.17-.09.07-.17.14-.26.21,0,0,0,.01-.01.01h0Zm-10.72-.29c-.2.14-.4.29-.59.45-.19.15-.37.3-.53.45-.16.14-.29.27-.38.39-.1.12-.14.22-.13.29.03.02.07.01.14-.01.06-.02.14-.05.25-.11.11-.06.26-.15.44-.28.13-.09.28-.19.43-.3.15-.11.3-.23.45-.35.15-.12.3-.25.44-.38.14-.13.27-.25.39-.37.02-.02.05-.05.09-.1.04-.05.06-.11.04-.17,0-.05-.06-.05-.16,0-.1.05-.22.11-.34.18-.12.08-.24.15-.35.21-.11.07-.17.11-.18.11Zm-3.5,6.23s.13-.14.31-.34c.18-.2.41-.46.69-.79.28-.33.59-.72.93-1.16.34-.44.69-.91,1.04-1.42-.24.15-.48.31-.7.47-.23.17-.44.34-.65.53-.03.02-.12.12-.29.29-.17.17-.35.38-.55.61-.15.17-.29.33-.42.5-.13.17-.23.33-.3.47-.03.06-.05.16-.09.3-.03.14-.02.32.03.54Zm-4.02-10.02c.04-.13,0-.16-.12-.1-.12.06-.28.18-.47.35-.2.17-.42.38-.68.62-.25.24-.49.48-.72.71-.22.23-.42.44-.59.62-.17.18-.27.3-.31.35.49-.31.93-.61,1.33-.91.17-.13.34-.26.51-.41.17-.14.32-.29.47-.43.14-.14.26-.28.36-.42.1-.14.17-.26.21-.38Zm-5.49,3.79c-.19.14-.39.29-.59.45-.2.15-.38.3-.53.45-.16.14-.28.27-.38.39-.1.12-.15.22-.14.29.03,0,.07-.03.14-.07.06-.04.14-.09.24-.16.11-.07.25-.17.43-.29.13-.1.28-.21.44-.34.16-.13.32-.25.47-.38.16-.12.31-.24.45-.35.14-.11.26-.2.36-.27.02-.01.05-.04.09-.08.04-.04.06-.09.05-.16,0-.05-.06-.05-.17,0-.11.05-.22.11-.35.18-.13.08-.24.15-.35.21-.11.07-.17.11-.18.11Zm-4.03-.27s-.06.08-.09.11c-.03.04-.05.07-.07.11.09,0,.19.01.31.03h0s.05.02.07.05c.01.03.03.07.04.12.02.05.02.1.01.16,0,.02,0,.03,0,.06,0,.02,0,.04,0,.06-.02.04-.04.06-.07.06h-.05s-.05,0-.08.01c-.09.01-.19.05-.31.11,0,.03.01.05.02.07,0,.02.02.04.03.06.01.01.02.03.03.04,0,.01.02.02.02.04,0,.02.01.03.02.03.02.02.04.03.05.05.02.02.03.03.05.05.09.07.19.12.3.15.11.03.23.04.34.04.09-.12.16-.24.21-.35.05-.12.09-.23.12-.36.07-.26.09-.47.07-.61-.02-.14-.04-.23-.05-.27-.03-.08-.08-.13-.15-.16-.07-.03-.15-.05-.24-.03-.09.01-.19.05-.3.11-.11.06-.21.15-.32.26Zm-.86,1.66c-.06.13-.09.23-.11.3,0,.05,0,.09,0,.13s0,.08.02.11c.03.05.06.08.11.1.04.02.09.03.16.03s.15-.02.26-.07c.07-.03.14-.07.22-.11.08-.04.16-.09.25-.14.15-.1.26-.19.35-.28-.27-.02-.51-.11-.72-.29-.09-.08-.16-.18-.21-.3-.01.02-.03.03-.04.05-.01.01-.03.03-.04.05-.01.01-.03.04-.05.07-.02.03-.04.06-.07.1-.03.04-.05.09-.07.13-.02.05-.04.09-.05.12Zm-.73.79c-.07-.11-.1-.26-.09-.44,0-.08.02-.17.05-.28.04-.15.11-.3.19-.44.08-.14.17-.28.27-.41.13-.17.27-.3.39-.39.13-.09.2-.14.23-.16,0,0,.01-.01.02-.01.03-.11.07-.2.12-.29.05-.09.1-.16.15-.23.05-.06.1-.12.15-.16.05-.05.09-.08.11-.1.06-.05.14-.1.23-.15.09-.04.18-.08.28-.1.1-.02.19-.03.29-.03s.18.02.26.06c.05.03.1.07.15.12.05.05.1.11.13.2,0,.02.01.05.02.07,0,.02.01.04.02.07.03.09.04.19.04.31,0,.12,0,.25-.03.41,0,0,0,.01,0,.02-.03.17-.07.32-.12.45-.05.12-.09.22-.12.3-.04.06-.06.09-.06.09,0,0-.01.01-.02.01h0c.05,0,.1-.02.15-.03.05-.02.1-.03.15-.05.17-.06.34-.13.49-.21.16-.08.3-.16.42-.23.14-.08.28-.17.4-.27h0c.17-.15.35-.31.55-.47.04-.03.1-.07.18-.13.08-.06.17-.11.26-.17.12-.08.27-.16.46-.25.18-.09.36-.17.54-.23.18-.06.34-.08.48-.07.15.01.25.08.31.22.03-.04.05-.07.08-.1.03-.03.05-.06.09-.1.4-.52.88-1.05,1.43-1.61.55-.55,1.17-1.06,1.86-1.52.08-.05.15-.08.22-.11.06-.02.13-.04.2-.05.07-.01.14,0,.2.03.04.02.08.06.13.12.05.07.08.16.07.29,0,.12-.05.28-.14.46-.09.18-.26.39-.5.64-.24.24-.58.52-1,.84-.43.32-.97.66-1.65,1.05l-.39.46s-.08.12-.16.21c-.07.09-.15.2-.24.32-.08.12-.17.25-.25.38-.08.13-.15.25-.19.37-.03.08-.06.17-.1.27-.03.1-.06.2-.08.3-.04.23-.02.43.05.58.07.15.2.23.39.22.12,0,.28-.05.46-.14.19-.08.38-.19.59-.32.21-.13.43-.27.65-.42.22-.15.43-.3.63-.44.5-.4,1-.77,1.47-1.22-.11-.07-.18-.16-.23-.28-.04-.12-.06-.24-.06-.38,0-.12.03-.23.08-.32.05-.09.11-.17.17-.24.07-.08.15-.15.24-.21.08.01.16.04.23.07.06.03.11.07.17.12.05.05.09.11.1.19l-.02.02s-.01.01-.02.02c0,0-.02.02-.03.03-.07.07-.14.15-.2.25-.03.05-.06.1-.07.16-.02.05-.02.11,0,.16,0,.02,0,.03,0,.03.03.13.1.18.2.17.04,0,.09-.02.13-.04.04-.02.09-.04.14-.05.28-.11.5-.14.66-.11.05.02.11.04.17.06.06.03.11.07.16.13.09.1.11.24.05.41-.05.17-.14.34-.26.52-.12.18-.26.37-.41.55-.15.18-.29.35-.4.5-.11.15-.18.28-.21.38-.03.1.02.16.15.16.12.02.26,0,.42-.05.16-.04.32-.11.49-.19.17-.08.34-.17.52-.27.18-.1.35-.21.52-.32.2-.13.41-.27.61-.42.12-.15.22-.29.33-.41.03-.03.1-.07.22-.12.12-.05.24-.09.36-.12.13-.03.23-.05.32-.04.09,0,.12.05.1.12-.13.19-.28.38-.46.59-.18.21-.33.4-.47.57-.13.18-.23.33-.27.45-.05.12,0,.19.13.2.12.02.26,0,.42-.05.16-.04.32-.11.49-.19.17-.08.34-.17.52-.27.18-.1.35-.21.52-.32.07-.05.14-.09.21-.14.02-.04.05-.09.08-.13.08-.11.23-.26.43-.46.2-.2.44-.41.71-.63.04-.03.11-.07.19-.13.08-.06.16-.11.25-.17.12-.08.27-.16.45-.25.18-.09.36-.17.53-.23.18-.06.34-.08.48-.07.15,0,.25.07.32.2.01-.04.03-.08.05-.12.02-.04.04-.08.06-.12,0-.01.03-.03.06-.04.03-.01.08,0,.15.04.03.01.06.04.1.07.04.03.08.06.11.1.03.03.06.07.08.11.02.04.02.08,0,.12-.05.1-.12.22-.19.37-.08.15-.17.32-.27.51-.06.11-.13.23-.2.36-.07.13-.14.26-.22.39-.05.08-.1.17-.15.26-.05.09-.1.18-.15.27.03-.01.06-.03.09-.04.03-.01.05-.02.09-.04.41-.16.81-.31,1.19-.44.39-.13.74-.24,1.07-.33.33-.09.61-.17.85-.23.07-.02.13-.03.19-.05l.15-.18c.12-.15.23-.28.33-.41.1-.12.19-.22.26-.29.07-.07.13-.14.17-.18.01,0,.03-.02.06-.03.03-.01.05-.03.09-.05.2-.04.34-.05.43-.04.09.01.16.02.23.02.02,0,.04.02.06.03.02.01.01.04-.02.07-.26.24-.52.52-.78.83-.27.32-.52.63-.75.95-.02.04-.04.07-.06.1-.02.03-.04.05-.05.07-.06.11-.1.2-.12.28-.01.07-.01.13,0,.17.01.05.04.09.08.12.02,0,.05.01.09.01.17-.02.4-.11.67-.29.27-.18.56-.39.85-.64.29-.24.58-.49.84-.74.27-.25.48-.45.64-.61.09-.09.15-.15.18-.18.03-.06.07-.12.12-.17.04-.05.08-.08.12-.08.05,0,.11-.01.19-.02.07,0,.14,0,.2.01.06.02.11.05.15.1.04.05.05.13.03.23-.07.17-.18.36-.33.57-.15.21-.31.43-.47.65-.17.22-.34.44-.51.65-.17.21-.31.4-.43.56-.11.16-.18.29-.22.4-.03.11,0,.16.11.17.12.02.27,0,.43-.06.17-.06.35-.13.54-.23.19-.1.39-.21.6-.34.2-.13.4-.26.59-.4.25-.18.51-.38.77-.59,0-.02.02-.03.03-.05.1-.17.21-.33.34-.47.12-.15.25-.27.36-.38.12-.11.21-.18.26-.22.01,0,.03-.02.05-.03.02-.01.05-.03.08-.05.11-.06.22-.11.33-.16.11-.05.22-.08.31-.11.08-.02.15-.02.21-.02.06,0,.12.02.16.06.11.08.19.17.22.26.03.09.03.18.01.26,0,.02-.01.03-.02.06,0,.02-.02.05-.04.09-.1.15-.24.26-.43.34-.19.08-.38.14-.58.18-.06.01-.11.02-.16.03-.05,0-.1,0-.15.02-.03,0-.06.01-.08.01s-.05,0-.07.01c-.02.03-.05.08-.08.14-.04.06-.07.12-.1.19-.03.07-.06.13-.09.19-.03.06-.04.11-.04.14,0,.02,0,.06,0,.11s.02.11.05.16c.03.05.06.1.12.14.05.04.13.06.24.06.03,0,.05,0,.09,0,.03,0,.06,0,.1-.02.2-.04.43-.12.69-.25.26-.13.52-.28.78-.43.26-.16.49-.31.71-.46.11-.08.21-.15.29-.2h0c.58-.47,1.06-.86,1.44-1.19.38-.33.61-.54.7-.62.03-.05.05-.09.08-.12.06-.06.14-.1.24-.12.11-.02.21-.03.32-.02.12,0,.25.02.39.04-.06,0-.12.05-.19.14-.07.08-.13.18-.2.28-.07.12-.14.26-.22.41-.07.22-.14.43-.21.62-.07.2-.14.39-.21.56.24-.03.46-.05.67-.07.21-.01.39-.03.55-.03.19,0,.36,0,.52,0h.64c-.51.03-.96.07-1.37.13-.41.06-.78.13-1.1.21-.2.5-.41.91-.61,1.23-.2.33-.4.58-.59.75-.19.17-.37.28-.55.32-.17.04-.33.03-.46-.04-.17-.08-.29-.17-.37-.27-.08-.1-.14-.2-.17-.29-.04-.11-.06-.22-.06-.34.06-.2.16-.38.3-.54.14-.15.31-.29.5-.41.19-.12.4-.22.64-.3.23-.08.47-.15.71-.21.11-.26.21-.51.3-.75.09-.24.17-.46.24-.66-.29.27-.57.51-.86.73-.2.15-.39.29-.56.42h.03c-.36.28-.71.54-1.06.78-.3.2-.62.4-.95.59-.33.19-.63.33-.9.41-.19.06-.35.09-.48.09s-.25-.01-.34-.04c-.11-.03-.19-.08-.26-.15-.08-.07-.14-.16-.18-.26-.06-.12-.09-.25-.08-.4-.14.11-.27.21-.41.31-.22.16-.44.31-.68.46-.24.15-.47.27-.71.38-.24.11-.47.19-.7.24-.23.05-.44.06-.63.03-.2-.03-.32-.13-.33-.29-.02-.16.02-.36.12-.6.1-.23.23-.48.4-.75.17-.27.35-.52.52-.75-.18.18-.38.37-.6.58-.22.21-.45.4-.68.57-.23.18-.46.32-.68.44-.22.12-.43.18-.61.19h-.12s-.07,0-.1-.01c-.12-.02-.21-.04-.28-.09-.07-.04-.12-.1-.15-.16-.03-.07-.05-.14-.05-.22s0-.16.02-.23c.02-.09.05-.18.09-.26.04-.09.08-.17.12-.24.04-.08.09-.14.13-.21-.2.05-.43.11-.68.18-.32.09-.66.2-1.04.33-.38.13-.76.27-1.16.44-.07.03-.17.07-.29.11-.12.05-.22.09-.28.12-.03.05-.06.09-.08.13-.02.04-.05.08-.08.13-.19.32-.4.65-.61.98-.21.33-.43.65-.66.96-.22.31-.45.61-.68.88-.23.28-.46.53-.68.76-.08.08-.17.17-.29.29-.12.12-.24.23-.37.34-.13.11-.25.2-.36.29-.11.08-.2.12-.27.12-.08.02-.14,0-.18-.06-.04-.05-.07-.09-.07-.1-.02-.03-.04-.08-.08-.14-.03-.06-.06-.14-.08-.23-.02-.09-.04-.19-.05-.3,0-.11,0-.23.03-.36.02-.1.07-.22.15-.36.08-.14.19-.3.31-.46.12-.17.26-.33.41-.5.15-.17.3-.33.46-.5.16-.16.31-.31.47-.45.16-.14.3-.25.44-.34.23-.19.47-.36.72-.52.25-.16.51-.31.78-.45.1-.15.19-.3.29-.46.1-.15.19-.31.28-.46.11-.17.21-.35.31-.53.1-.18.2-.36.29-.54.01-.02.02-.04.03-.07,0-.02.02-.04.03-.07-.1.1-.25.25-.45.45-.2.2-.43.41-.68.62-.25.21-.5.41-.76.59-.26.18-.49.3-.71.36-.15.04-.27.03-.36-.02-.09-.05-.16-.13-.2-.24-.03-.07-.04-.15-.04-.24-.19.12-.39.24-.6.36-.22.12-.43.22-.64.31-.21.09-.42.16-.62.2-.2.05-.39.06-.55.03-.25-.03-.39-.12-.43-.27-.04-.15-.02-.32.07-.52.03-.07.06-.14.1-.22-.04.03-.09.06-.13.09-.2.13-.4.25-.62.37-.21.12-.43.22-.64.31-.21.09-.42.16-.62.2-.2.05-.39.06-.55.03-.2-.02-.34-.09-.39-.2-.06-.11-.07-.24-.04-.39.03-.15.1-.32.2-.49.1-.17.2-.34.31-.5.11-.16.21-.31.31-.43.1-.13.16-.22.18-.28.01-.02.03-.05.04-.08.01-.05.01-.09,0-.11-.02-.02-.04-.03-.07-.04-.03,0-.07,0-.12.01-.13.03-.24.05-.31.05-.07,0-.12,0-.15,0,0,0-.01,0-.01,0,0,0,0,0-.01,0-.04.04-.08.09-.12.12-.03.04-.06.07-.1.1-.03.03-.06.06-.1.08-.03.03-.07.06-.11.08-.04.03-.08.06-.13.1-.28.21-.56.41-.84.63-.23.18-.46.34-.68.5-.2.14-.4.28-.61.42-.21.14-.41.25-.6.35-.19.1-.38.18-.55.24-.17.06-.31.09-.44.08-.19,0-.35-.04-.5-.1-.13-.05-.25-.14-.36-.25-.11-.12-.17-.29-.19-.52-.01-.15,0-.32.07-.5.06-.18.12-.36.19-.51.08-.19.17-.37.28-.55-.38.31-.73.59-1.05.83-.13.1-.27.21-.41.31-.14.1-.27.19-.39.28-.12.08-.22.15-.32.21-.09.06-.16.09-.21.1-.15.04-.27.03-.36-.02-.09-.05-.15-.12-.18-.21-.03-.09-.04-.2,0-.32.02-.11.08-.22.15-.32-.14.08-.28.16-.44.23-.26.13-.51.22-.78.27-.03,0-.04,0-.06.01-.15.17-.32.32-.53.48-.2.15-.46.29-.76.42-.03.02-.06.03-.1.04-.03.01-.06.02-.09.04-.13.04-.24.06-.33.06-.09,0-.17,0-.23-.02-.07-.02-.13-.04-.18-.07-.04-.04-.08-.07-.11-.11-.03-.04-.06-.07-.08-.11Zm15.05-2.4c-.05-.01-.05-.07,0-.17.05-.1.11-.21.19-.33.08-.12.15-.24.22-.37.07-.12.09-.22.07-.3,0,0,0-.02,0-.03.01-.03.05-.07.12-.11.05-.04.14-.08.27-.14.13-.06.25-.09.37-.1.11-.01.19.02.23.1.04.07,0,.23-.12.46-.09.17-.2.32-.32.46-.12.14-.25.31-.39.51-.1,0-.2.02-.28.02-.07,0-.14.01-.21.02-.07,0-.12,0-.15-.02Z"/><g class="cls-6"><rect class="cls-3" x="0" y="60.36" width="117.51" height="15.62"/></g><path class="cls-1" d="m153.3,40.09c5.32-6.29,12.59-14.05,16.4-20.65,1.31-2.28,2-4.63,2-7.03,0-3.52-1.24-6.22-3.73-8.14-2.49-1.93-4.14-2.9-8.5-2.9-3.1,0-5.83.46-8.18,1.39.8.7,1.48,1.45,2.02,2.26.61-.09,1.24-.13,1.88-.13,6.22,0,9.32,3.17,9.32,9.44,0,3.59-.83,6.97-2.56,10.14-2,3.68-6.34,9.12-9.49,12.42l.83,3.2Z"/><g class="cls-7"><rect class="cls-3" x="151.29" y="1.37" width="20.41" height="38.72"/></g><path class="cls-3" d="m43.42,3.67c-.31.84-.46,2.14-.46,3.98v35.7c0,1.83.15,3.13.46,3.98s.84,1.38,1.68,1.68c.46.15,1.07.31,1.76.38v1.68h-14.98v-1.61c.76-.08,1.38-.23,1.83-.38.84-.31,1.38-.84,1.68-1.68s.46-2.14.46-3.98v-17.28H11.01v17.28c0,1.83.15,3.13.46,3.98s.84,1.38,1.68,1.68c.38.15.92.31,1.61.38v1.76H0v-1.76c.69-.08,1.22-.23,1.68-.38.84-.31,1.38-.84,1.68-1.68s.46-2.14.46-3.98V7.72c0-1.83-.15-3.13-.46-3.98s-.84-1.38-1.68-1.68c-.46-.15-.99-.31-1.68-.38V0h14.75v1.68c-.69.08-1.22.23-1.61.38-.84.31-1.38.84-1.68,1.68s-.46,2.14-.46,3.98v14.6c-.08.15-.92,2.45-3.36,2.45h28.21V7.8c0-1.83-.15-3.13-.46-3.98s-.84-1.38-1.68-1.68c-.46-.15-1.07-.31-1.83-.38V.15h14.98v1.68c-.69.08-1.3.23-1.76.38-.84.31-1.38.84-1.68,1.68v-.23Z"/><path class="cls-3" d="m89.94,49.77h7.42v1.45h-16.51v-1.53c1.22-.15,2.14-.38,2.75-.61.84-.38,1.22-1.07,1.22-2.06,0-.84-.31-1.99-.92-3.44l-4.66-11.85h-18.5l-3.13,7.64c-.99,2.6-1.53,4.59-1.53,5.96,0,1.45.54,2.52,1.61,3.21.61.38,1.45.69,2.52.84v1.68h-12.08v-1.45c2.52-.61,4.51-2.68,5.96-6.27L71.9.15h1.53l18.5,44.87c.38.84.76,1.61,1.22,2.22-.08.31-.92,2.45-3.29,2.45l.08.08Zm-11.31-19.34l-8.56-21.48-8.71,21.48h17.28Z"/><path class="cls-3" d="m113.22,49.61v1.61h-14.83v-1.68c.69-.08,1.22-.23,1.68-.38.84-.31,1.38-.84,1.68-1.68s.46-2.14.46-3.98V7.72c0-1.83-.15-3.13-.46-3.98s-.84-1.38-1.68-1.68c-.46-.15-.99-.31-1.68-.38V0h14.83v1.68c-.69.08-1.22.23-1.68.38-.84.31-1.38.84-1.68,1.68s-.46,2.14-.46,3.98v35.78c0,1.61.08,2.83.31,3.67-.08.31-.92,2.45-3.29,2.45h6.8Z"/><g class="cls-4"><rect class="cls-3" x="116.01" y=".38" width="57.67" height="53.83"/></g></svg>