<?xml version="1.0" encoding="UTF-8"?><svg id="Layer_1" xmlns="http://www.w3.org/2000/svg" width="196.86" height="97.89" viewBox="0 0 174.86 75.89"><defs><style>.cls-1{fill:rgba(255, 255, 255, 0.6);}</style></defs><path class="cls-1" d="M119.84,46.34c-1.02,.97-1.94,1.78-2.78,2.66-1.13,1.19-2.17,2.49-3.33,3.65-.39,.39-1.14,.82-1.57,.7-.81-.23-1.5-.87-1.5-1.89,0-1.03,0-2.06,0-3.3-1.43,1.26-2.55,2.48-3.89,3.38-1.51,1.01-3.14,1.95-4.84,2.56-3.3,1.18-5.68,.17-7.37-2.93-.5,.64-.91,1.29-1.44,1.83-1.36,1.39-2.64,2.89-4.17,4.05-3.18,2.42-6.81,.49-8.01-2.03-.7-1.45-.88-3.14-1.29-4.72-.07-.28-.09-.58-.17-1.09-3.49,.97-6.9,1.92-10.32,2.87,.46,1.22,1,2.29,1.27,3.42,.82,3.49-.56,6.34-2.89,8.78-2.93,3.07-6.67,4.79-10.65,6.03-2.8,.87-5.66,1.59-8.61,1.34-2.19-.19-4.32-.73-5.54-2.88-.97-1.73-.29-3.32,.64-4.76,1.75-2.7,4.25-4.59,6.97-6.24,4.16-2.52,8.63-4.33,13.19-5.94,.2-.07,.39-.19,.91-.47-1.1-.51-1.92-1.06-2.81-1.25-3.73-.81-7.47-1.57-11.22-2.25-3.52-.64-6.97-1.39-10.14-3.16-2.89-1.61-4.65-5.3-4.47-8.6,.32-5.72,3.46-9.75,7.41-13.38,.5-.46,.97-.95,1.53-1.32,.85-.55,.82-1.18,.47-2.01-1.74-4.1-3.39-8.25-5.2-12.32-.73-1.63-1.74-3.14-2.71-4.65-.28-.43-.91-.62-1.33-.98-.25-.21-.4-.54-.59-.82,.26-.17,.52-.49,.78-.49,2.74-.04,5.47-.04,8.21,0,.24,0,.62,.21,.69,.41,.08,.21-.05,.64-.23,.78-.87,.64-.82,1.37-.47,2.28,1.75,4.49,3.45,9,5.2,13.5,.13,.34,.5,.59,.75,.88,.28-.28,.67-.51,.81-.84,1.53-3.58,3.04-7.17,4.5-10.78,.38-.93,.56-1.94,.83-2.91,.23-.8,.28-1.54-.55-2.1-.18-.12-.3-.57-.22-.77,.08-.21,.44-.43,.69-.44,1.35-.04,2.7-.04,4.05,0,.23,0,.59,.25,.66,.46,.07,.22-.06,.67-.24,.77-1.7,.94-2.24,2.71-2.95,4.28-1.52,3.34-2.88,6.76-4.29,10.15-.08,.2-.1,.42-.2,.81,.47-.1,.83-.13,1.16-.25,2.85-1.03,5.78-1.56,8.82-1.39,1.02,.06,1.39-.29,1.38-1.34-.05-3.38-.04-6.75,0-10.13,.01-.95-.33-1.54-1.18-1.95-.34-.16-.53-.61-.79-.93,.37-.17,.74-.49,1.11-.5,2.47-.04,4.95-.04,7.43,0,.36,0,.72,.35,1.07,.54-.25,.28-.45,.69-.76,.81-.99,.39-1.39,1.15-1.4,2.11-.03,4.28-.04,8.55,0,12.83,0,.55,.25,1.22,.62,1.63,1.55,1.69,1.93,3.66,1.69,5.84-.01,.11-.06,.22-.06,.33,.16,2.77-1.86,4.67-2.81,6.99-.1,.23-.29,.47-.5,.6-.31,.19-.68,.27-1.02,.41-.02-.38-.16-.8-.05-1.14,.35-1.03,.79-2.02,1.18-3.04,.1-.27,.15-.56,.25-.98-.53-.05-.95-.13-1.38-.13-1.42-.02-2.85,.03-4.27-.03-.38-.02-.74-.33-1.11-.5,.25-.31,.43-.75,.76-.91,.81-.4,1.2-.97,1.2-1.86,0-1.76-.02-3.53,0-5.29,.02-.84-.36-1.07-1.15-1.12-2.7-.16-5.17,.73-7.64,1.61-.99,.35-2.01,.66-2.92,1.16-.64,.36-1.28,.93-1.6,1.57-.7,1.4-1.16,2.92-1.79,4.36-.18,.41-.58,.71-.88,1.06-.31-.34-.69-.63-.9-1.02-.34-.62-.56-1.29-.92-2.15-.89,.69-1.83,1.2-2.48,1.97-1.7,1.98-3.49,3.93-4.85,6.14-1.54,2.49-2,5.37-.92,8.2,.39,1.01,1.23,1.98,2.11,2.64,2.2,1.64,4.8,2.38,7.49,2.84,4.13,.7,8.29,1.3,12.37,2.24,2.05,.47,3.93,1.6,5.91,2.4,.36,.15,.79,.33,1.14,.25,3.61-.82,7.2-1.71,10.82-2.52,.79-.18,.91-.5,.92-1.29,.09-4.64,.26-9.29,.47-13.93,.08-1.72,.38-3.43,.47-5.14,.02-.36-.43-.88-.79-1.09-1.07-.6-2.23-1.04-3.32-1.62-.86-.46-1.28-1.21-1.2-2.23,.06-.78,.02-1.57,.01-2.36,0-.61,.17-1.03,.87-1.04,.67-.01,1.25,0,1.42,.89,.28,1.44,.71,2.85,1.92,3.84,.36,.29,.78,.5,1.39,.88,.16-.99,.27-1.75,.4-2.51,.18-1.03,.35-2.07,.55-3.1,.13-.63,.07-1.47,1.06-1.42,.76,.04,1.46,1.08,1.34,1.91-.22,1.56-.4,3.12-.68,4.67-.16,.9,.17,1.13,.99,1.13,2.95,.02,5.24-2.94,4.31-5.73-.48-1.44-1.77-2.08-3.09-2.56-2.22-.8-4.46-1.55-6.68-2.35-.52-.19-.98-.54-1.49-.78-2.97-1.38-3.84-3.85-3.42-6.88,.37-2.7,1.73-4.78,4.28-5.91,4.18-1.85,8.39-1.71,12.55,.02,2.25,.93,3.34,3.6,2.4,5.82-.14,.34-.89,.49-1.38,.58-.63,.12-.92-.27-1-.91-.27-2.07-1.16-3.78-3.04-4.87-1.92-1.12-5.95-.95-7.48,1.29-1.61,2.37-.88,5.26,1.79,6.24,2.49,.92,5.02,1.73,7.5,2.68,1.41,.54,2.62,1.37,3.59,2.6,2.15,2.73,1.25,7.44-1.28,9.57-2.24,1.89-4.82,2.47-7.61,2.53-.79,.02-1.27,.21-1.3,1.13-.28,6.4-.67,12.79-.84,19.19-.06,2.23,.39,4.46,.65,6.69,.06,.51,.27,1.02,.52,1.47,.49,.84,1.28,1.33,2.16,.73,1.78-1.22,3.55-2.48,5.18-3.89,1.11-.96,2.02-2.18,2.94-3.34,.32-.41,.5-.98,.6-1.51,.24-1.17,.32-2.38,.59-3.54,.26-1.12,1.05-1.54,2-1.24,1.05,.33,1.02,1.08,.85,1.99-.36,1.91-.74,3.83-.9,5.75-.15,1.64,.81,2.45,2.47,2.12,1.27-.26,2.6-.62,3.68-1.29,2.5-1.55,4.88-3.29,7.27-5.01,.35-.25,.51-.79,.69-1.23,.21-.51,0-1.37,.9-1.27,.81,.09,1.37,.62,1.39,1.51,.02,.97,0,1.95-.01,2.93v1.2c1.09-1.09,1.95-2,2.87-2.85,.9-.83,1.84-1.65,2.82-2.39,1.2-.91,2.54-.5,3.06,.93,.38,1.05,.64,2.15,.95,3.23,.09,.31,.17,.63,.32,1.17,1.08-.83,2.02-1.54,2.95-2.27,.71-.55,1.4-1.13,2.11-1.68,1.17-.91,2.5-.54,3.08,.88,.37,.9,.65,1.84,1.04,2.73,.69,1.54,2.18,2.25,3.8,1.82,3-.79,5.78-2.06,8.28-3.92,.21-.16,.52-.18,.77-.27,.08,.3,.32,.69,.21,.89-.39,.71-.8,1.45-1.37,2.01-1.64,1.6-3.63,2.62-5.84,3.23-2.96,.82-6.68-1.22-8.07-3.66-.64-1.12-.65-1.16-1.71-.35-1.22,.93-2.41,1.9-3.64,2.83-1.56,1.18-2.88,.76-3.52-1.13-.36-1.06-.62-2.15-.95-3.22-.06-.2-.21-.38-.49-.87v-.02Zm-71.65,23.8c5.32-.65,10.18-2.08,14.52-5.09,2.11-1.47,3.81-3.25,4.87-5.6,.74-1.63,.73-3.27-.02-4.9-.73-1.57-.8-1.6-2.47-1.03-.57,.2-1.12,.42-1.68,.64-5.74,2.17-11.27,4.76-15.95,8.83-1.03,.89-1.93,2.01-2.63,3.18-.92,1.56-.37,2.84,1.31,3.47,.69,.26,1.44,.36,2.05,.5Z"/><path class="cls-1" d="M125.71,12.37c.98,.77,2.23,1.54,3.22,2.56,3.26,3.35,1.75,7.8-1.29,10.01-2.04,1.48-4.37,1.91-6.8,1.93-4.23,.04-8.47,.03-12.71,0-.33,0-.65-.31-.98-.47,.21-.31,.36-.79,.64-.89,1.26-.44,1.54-1.32,1.53-2.54-.06-6.52-.1-13.04-.08-19.56,0-1.01-.47-1.48-1.24-1.91-.33-.19-.54-.59-.81-.89,.38-.17,.75-.49,1.12-.49,4.68-.03,9.37-.04,14.05,0,1.61,.01,3.09,.54,4.38,1.55,.95,.74,1.59,1.65,1.76,2.89,.25,1.76,.53,3.56-.49,5.14-.67,1.04-1.61,1.9-2.31,2.7h0Zm-7.45,13.14c.75,0,1.5,.02,2.25,0,2.7-.1,4.54-1.99,4.57-4.69,0-1.05,.03-2.1,0-3.15-.06-1.94-1-3.31-2.76-4.13-2.26-1.06-4.65-.5-6.98-.53-.19,0-.55,.52-.56,.79-.04,3.56-.03,7.12-.03,10.69,0,.7,.35,1.03,1.04,1.03h2.48Zm-3.51-18.99h0c0,1.35,.04,2.69-.01,4.04-.04,.94,.36,1.26,1.26,1.23,1.31-.04,2.62-.04,3.93,0,1.04,.03,1.8-.4,2.32-1.28,1.48-2.51,1.32-5.07,.17-7.62-.53-1.16-1.54-1.68-2.83-1.66-1.23,.02-2.47,.02-3.7,0-.8-.01-1.16,.34-1.14,1.15,.02,1.38,0,2.77,0,4.15h0Z"/><path class="cls-1" d="M14.69,4.14c-.05,.69-.1,1.11-.1,1.53,0,5.7,.02,11.4,0,17.1,0,1.33,.32,2.35,1.72,2.8,.22,.07,.49,.53,.45,.74-.05,.23-.44,.53-.7,.54-1.35,.06-2.7,.06-4.04,0-.26,0-.72-.33-.71-.51,0-.29,.25-.75,.5-.83,1.13-.38,1.41-1.14,1.41-2.25-.02-6.67,0-13.35,.03-20.02,0-.93-.45-1.42-1.26-1.78-.3-.13-.48-.57-.71-.86,.33-.17,.66-.49,.99-.5,1.87-.05,3.75,0,5.62-.04,.84-.02,1.27,.45,1.7,1.07,3.13,4.53,6.27,9.05,9.42,13.57,.32,.45,.67,.88,1.21,1.61,.06-.68,.11-1.02,.11-1.36,0-3.71,0-7.42,.01-11.14,0-1.09-.17-2-1.38-2.4-.26-.09-.39-.55-.58-.83,.26-.17,.51-.47,.78-.48,1.23-.05,2.47-.06,3.71,0,.28,.01,.65,.33,.76,.6,.06,.15-.26,.63-.5,.71-1.25,.42-1.44,1.36-1.44,2.49,.02,7.05,0,14.1,.01,21.14,0,.3,.06,.62-.02,.89-.1,.33-.28,.83-.49,.86-.33,.05-.8-.14-1.04-.39-.61-.64-1.18-1.34-1.67-2.08-1.92-2.84-3.79-5.72-5.7-8.56-2.47-3.66-4.98-7.29-7.48-10.94-.12-.18-.27-.33-.61-.73h0Z"/><path class="cls-1" d="M164.58,.09c2.92,0,5.85,0,8.77,0,1.43,0,1.63,.34,1.46,2.3-.08,.94-.53,1.26-1.67,1.05-.31-.06-.71-.32-.82-.6-.46-1.14-1.32-1.59-2.46-1.6-2.21-.02-4.42,0-6.64,0-.82,0-1.24,.37-1.23,1.23,.02,3.04,.02,6.07,0,9.11,0,.82,.34,1.14,1.14,1.13,1.65-.03,3.3-.05,4.95,0,.94,.03,1.62-.25,1.98-1.12,.36-.85,1.08-1.15,1.81-.81,.37,.17,.61,.91,.67,1.43,.1,.96,.09,1.95,0,2.92-.04,.4-.37,1.08-.6,1.09-.56,.03-1.5-.09-1.66-.44-.68-1.54-1.86-1.79-3.31-1.73-1.27,.05-2.55,.03-3.82,0-.79-.02-1.17,.27-1.17,1.1,.02,3.07,.02,6.15,0,9.22,0,.8,.3,1.16,1.12,1.15,2.47-.03,4.95-.03,7.42,0,.9,0,1.42-.44,1.67-1.22,.33-1.03,1.12-.82,1.85-.77,.79,.07,.75,.7,.77,1.27,0,.23,0,.45,0,.68-.01,1.55-.18,1.64-1.71,1.5-1.19-.11-2.39-.09-3.59-.09-4.61,0-9.22,0-13.83-.03-.44,0-.87-.35-1.31-.53,.29-.32,.6-.63,.87-.96,.32-.38,.73-.74,.9-1.19,.18-.47,.19-1.03,.19-1.55,0-6.3,0-12.6,.02-18.9,0-1.09-.21-1.9-1.35-2.29-.27-.09-.42-.53-.63-.81,.32-.18,.64-.52,.97-.53,3.07-.04,6.15-.02,9.22-.02h0Z"/><path class="cls-1" d="M142.53,26.93c-2.96,0-5.92,.02-8.88-.03-.44,0-.87-.36-1.3-.56,.3-.33,.53-.76,.9-.97,.68-.39,1.07-.84,1.08-1.67,.04-3.52,.17-7.04,.18-10.56,0-3.3-.13-6.59-.18-9.89-.01-.8-.31-1.31-1.07-1.67-.37-.17-.6-.66-.89-1,.41-.17,.81-.48,1.22-.49,2.47-.05,4.95-.04,7.42,0,.38,0,.76,.3,1.13,.47-.27,.31-.48,.72-.82,.9-.93,.49-1.37,1.18-1.36,2.25,.02,6.79,.02,13.57,0,20.36,0,1.06,.35,1.49,1.44,1.46,2.32-.05,4.65-.03,6.97-.01,.93,0,1.62-.32,1.9-1.24,.32-1.03,1.18-.87,1.85-.7,.31,.08,.51,.74,.67,1.17,.1,.27,0,.6,.02,.89,.08,.92-.34,1.26-1.26,1.25-3-.03-6-.01-9-.01v.05h0Z"/><path class="cls-1" d="M4.93,26.89c-1.31,0-2.63,.04-3.94-.02-.34-.02-.66-.33-.99-.5,.24-.32,.42-.77,.74-.92,.86-.4,1.19-.96,1.19-1.93-.02-6.72,.01-13.43,.05-20.14,0-.94-.37-1.54-1.22-1.95C.46,1.29,.29,.87,.06,.58,.37,.41,.68,.12,.99,.12c2.62-.04,5.25-.04,7.88,0,.3,0,.61,.3,.91,.46-.24,.29-.42,.7-.73,.83-1.03,.44-1.46,1.12-1.45,2.26,.04,6.49,.03,12.98,.02,19.47,0,1.19,.4,2.01,1.59,2.4,.26,.09,.41,.51,.62,.77-.28,.19-.55,.54-.84,.55-1.35,.06-2.7,.03-4.05,.03h0s0,0,0,0Z"/><path class="cls-1" d="M100.91,.08c1.27,0,2.55-.04,3.82,.03,.33,.02,.65,.35,.97,.53-.24,.28-.42,.69-.72,.81-1.04,.42-1.49,1.13-1.49,2.25,.01,6.45,0,12.9,0,19.34,0,1.14,.38,2.03,1.56,2.46,.27,.1,.43,.5,.64,.77-.31,.2-.61,.57-.92,.58-2.58,.06-5.17,.08-7.75,.05-.37,0-.73-.37-1.09-.56,.26-.31,.46-.77,.79-.9,1.37-.55,1.31-1.76,1.32-2.84,0-6.48-.05-12.96-.08-19.44,0-.87-.45-1.35-1.23-1.68-.33-.14-.56-.53-.83-.81,.36-.19,.72-.53,1.09-.55,1.31-.07,2.62-.03,3.93-.03h0Z"/><path class="cls-1" d="M165.71,71.64c1.47-.98,2.94-1.96,4.39-2.92,.09,.68,.17,1.22,.24,1.78-.32,.34-.81,.78-1.2,1.29-1,1.3-1.6,1.29-2.24,0-.83,0-1.63-.06-2.4,.02-.46,.05-.89,.34-1.33,.52-.76,.31-1.48,.53-1.75-.64-.72,.21-1.39,.66-1.84-.37-.21-.47-2.05,.19-2.6,.94-.64,.87-1.18,1.84-1.91,2.64-.38,.42-1.4,.91-1.56,.76-.66-.63-.13-1.33,.35-1.85,.58-.63,1.29-1.14,1.94-1.7,.28-.25,.56-.5,.98-.88-1.7,.41-3.09,1.07-4.67,.62-.28-.08-.65,.16-.97,.17-.35,0-.76,0-1.03-.17-.12-.08,.04-.59,.09-.91,.02-.14,.06-.28,.15-.73-.89,.63-1.56,1.12-2.25,1.58-1.35,.9-1.92,.74-2.38-.36-.85-.03-1.55-.13-2.22-.05-.41,.05-.77,.43-1.18,.54-.46,.13-.96,.13-1.45,.18,.07-.55,.07-1.13,.23-1.65,.09-.28,.46-.48,.69-.72,.58-.59,1.15-.75,1.65,.05,.35,.56,.71,.5,1.22,.24,1.55-.8,3.14-1.53,4.24-2.97,.13-.17,.35-.33,.55-.36,.3-.04,.61,.04,.91,.07-.06,.27-.03,.65-.2,.8-.6,.56-1.23,1.09-1.9,1.56-1.16,.8-1.61,1.55-1.46,2.77,1.51-.67,2.88-1.36,3.28-3.13,1.14,.73,1.46,1.63,.95,2.7,1.9-.03,2.27-2.07,3.52-2.94,.12,.1,.24,.21,.36,.31-.48,.84-.96,1.67-1.44,2.51,.09,.09,.19,.18,.28,.27,.42-.32,.82-.65,1.25-.95,.67-.47,1.32-.97,2.05-1.33,.3-.15,.77,.04,1.15,.08-.06,.35-.12,.69-.2,1.04-.03,.14-.1,.27,.01,.68,1.2-.58,2.39-1.16,3.59-1.74,.05,.07,.09,.15,.14,.22-.32,.5-.64,1.01-.96,1.51,.07,.07,.15,.13,.22,.2,.82-.69,1.64-1.38,2.46-2.07,.12,.09,.24,.18,.36,.26-.39,.77-.78,1.54-1.18,2.31,.06,.07,.11,.15,.17,.22,.62-.48,1.24-.96,1.85-1.45,.41-.32,.77-.72,1.22-.96,.21-.11,.58,.08,.88,.13-.14,.26-.24,.57-.44,.77-.27,.26-.62,.43-.94,.64,.11,.15,.21,.31,.32,.46h.02Z"/><path class="cls-1" d="M103.76,71.67c.7-.56,1.42-1.08,2.09-1.68,.86-.78,2.85-.53,3.25,.58,.42-.27,.79-.59,1.23-.74,.41-.15,.88-.12,1.33-.17-.04,.37-.07,.73-.13,1.09-.04,.22-.14,.42-.27,.77,1.78-.31,2.29-1.99,3.33-2.99,.13,.1,.26,.2,.4,.3-.46,.86-.92,1.73-1.46,2.75,1.14-.17,1.65-.82,2.19-1.55,.82-1.1,1.75-2.12,2.71-3.11,.21-.22,.72-.15,1.09-.22-.11,.38-.12,.87-.36,1.12-.57,.59-1.32,1-1.88,1.59-.44,.46-.69,1.1-1.03,1.65,.13,.12,.26,.25,.39,.37,.41-.24,.82-.48,1.22-.73,.72-.47,1.39-1.02,2.15-1.4,.9-.46,1.33-.12,1.31,.9,0,.33-.03,.66-.02,.99,0,.08,.14,.16,.29,.32,.66-.35,1.34-.72,2.12-1.13-1.05,1.71-2.56,1.92-3.82,.63-1.45,.62-2.88,1.52-4.32,.56-1.65,.19-3.18,.42-4.72,.48-.29,.01-.61-.64-1.09-1.18-.67,.61-1.54,1.39-2.41,2.18-.14-.11-.28-.22-.42-.33,.46-.83,.92-1.66,1.49-2.68-.37,.1-.63,.1-.72,.22-.89,1.21-2.34,1.18-3.58,1.6-.85,.29-1.05,.16-1.92-.93-1.33,.68-2.63,1.44-4.01,2.03-1.08,.45-2.25,.9-3.39,.96-2.98,.15-3.63-1.68-2.76-4.15,.95-2.7,2.87-4.74,5.53-5.92,.64-.29,1.48-.31,2.19-.21,.86,.13,.97,.77,.59,1.53-1.4-1.01-1.91-1.05-3.33-.04-1.63,1.16-2.97,2.62-3.9,4.42-.09,.17-.23,.35-.22,.51,.05,.93-.12,2.02,.3,2.75,.49,.86,1.62,.7,2.58,.48,1.85-.44,3.31-1.53,4.71-2.74,.53-.46,1.1-.91,1.73-1.21,1.04-.49,1.46-.13,1.36,1.03-.03,.33-.07,.66-.11,.99,.11,.11,.22,.22,.33,.34h0Z"/><path class="cls-1" d="M139.66,74.9c-.88-.66-1.79-1.28-2.62-2-.59-.51-1.07-1.15-1.56-1.77-.17-.21-.38-.61-.29-.76,.14-.24,.49-.4,.78-.48,1.45-.44,3-.65,4.34-1.3,1.25-.61,1.71-1.91,1.5-3.36-.14-.99-.66-1.1-1.4-.65-1.95,1.21-3.73,2.63-5.14,4.47-.91,1.18-1.87,2.34-2.83,3.49-.2,.24-.48,.42-.72,.62-.12-.07-.24-.14-.36-.22,.21-.43,.36-.91,.63-1.29,1.16-1.6,2.4-3.15,3.53-4.78,.39-.57,.61-1.29,.78-1.97,.33-1.3-.34-2.04-1.64-1.66-1.53,.45-3.01,1.1-4.47,1.74-.67,.29-1.27,.75-2.07,1.22,.08-1.21,.84-1.72,1.57-2.02,1.5-.63,3.06-1.19,4.65-1.56,1.77-.41,2.85,.77,2.59,2.59-.04,.32-.07,.63-.12,1.1,.96-.69,1.75-1.27,2.56-1.83,.34-.23,.71-.45,1.09-.57,1.53-.5,2.52,.34,2.32,1.95-.33,2.58-2.02,4.17-4.7,4.48-.44,.05-.86,.3-1.29,.46,.18,.4,.27,.87,.54,1.18,.8,.91,1.69,1.77,2.53,2.64-.07,.09-.14,.19-.22,.28h0Z"/><path class="cls-1" d="M84.96,71.65c.74-.42,1.47-.83,2.21-1.25,.06,.1,.11,.2,.17,.3-.78,.44-1.53,.97-2.36,1.29-.99,.38-1.27,.05-1.02-.99,.03-.13,.03-.28,.05-.58-.89,.45-1.68,.8-2.43,1.24-1.63,.96-1.63,.97-2.22-.77-1,.15-1.59,1.57-3.08,.95,.6-.52,1.09-.94,1.59-1.37-1.16,.36-2.07,1.01-2.77,2.04-.75,1.1-1.63,2.12-2.51,3.13-.16,.19-.56,.18-.85,.26-.02-.32-.17-.72-.03-.94,.4-.62,.9-1.17,1.38-1.74,.84-1,1.68-1.99,2.53-2.97,.43-.49,.61-1.08,1.66-.67,.61,.24,1.47,0,2.12,.64,.13,.13,.74-.04,.99-.24,1.46-1.1,1.71-1.04,2.12,.99,.39-.58,.63-.97,.91-1.33,.24-.31,.67-.88,.76-.83,.59,.31,1.44,.53,1.23,1.47-.09,.41-.39,.78-.59,1.17,.05,.07,.09,.14,.14,.21h0Z"/><path class="cls-1" d="M99.42,36.27c-.1,.35-.23,.9-.4,1.43-.46,1.51-1.18,1.79-2.48,.87-.26-.18-.52-.71-.43-.97,.34-1.05,.59-2.3,1.32-3.02,.56-.55,2.01,.62,1.98,1.68h0Z"/></svg>