<?xml version="1.0" encoding="UTF-8"?><svg id="Layer_1" xmlns="http://www.w3.org/2000/svg" viewBox="0 0 525.73 228.18"><defs><style>.cls-1{fill:#e4c653;}</style></defs><path class="cls-1" d="M360.3,139.34c-3.07,2.92-5.83,5.34-8.35,7.99-3.41,3.59-6.51,7.48-10,10.98-1.18,1.18-3.42,2.46-4.73,2.09-2.45-.69-4.5-2.62-4.52-5.68-.02-3.1,0-6.2,0-9.92-4.3,3.8-7.68,7.46-11.71,10.17-4.54,3.05-9.43,5.85-14.55,7.69-9.93,3.56-17.07,.5-22.17-8.82-1.49,1.91-2.74,3.87-4.33,5.5-4.08,4.17-7.94,8.68-12.55,12.19-9.56,7.28-20.47,1.46-24.09-6.09-2.09-4.35-2.66-9.44-3.88-14.2-.22-.85-.27-1.74-.51-3.29-10.5,2.92-20.74,5.77-31.02,8.63,1.39,3.66,3.01,6.87,3.81,10.27,2.48,10.49-1.68,19.05-8.68,26.41-8.8,9.24-20.06,14.4-32.02,18.12-8.41,2.62-17.01,4.78-25.9,4.02-6.59-.57-13-2.19-16.65-8.66-2.93-5.2-.88-9.99,1.91-14.3,5.25-8.11,12.78-13.8,20.96-18.77,12.5-7.58,25.94-13.02,39.67-17.85,.61-.21,1.16-.58,2.75-1.4-3.31-1.52-5.76-3.19-8.44-3.77-11.2-2.45-22.45-4.73-33.74-6.76-10.58-1.91-20.95-4.18-30.49-9.49-8.7-4.85-13.99-15.92-13.43-25.86,.96-17.19,10.4-29.3,22.29-40.23,1.49-1.37,2.93-2.87,4.61-3.96,2.56-1.66,2.46-3.55,1.4-6.05-5.24-12.33-10.19-24.79-15.63-37.04-2.18-4.9-5.22-9.44-8.15-13.97-.84-1.3-2.73-1.87-3.99-2.96-.74-.64-1.19-1.63-1.77-2.46,.79-.51,1.57-1.46,2.36-1.47,8.23-.11,16.46-.11,24.69-.02,.73,0,1.85,.64,2.08,1.24,.23,.63-.15,1.93-.7,2.34-2.62,1.93-2.48,4.13-1.41,6.86,5.26,13.51,10.38,27.07,15.64,40.59,.4,1.02,1.49,1.77,2.25,2.65,.83-.84,2-1.53,2.43-2.54,4.59-10.77,9.14-21.56,13.53-32.41,1.13-2.8,1.68-5.84,2.5-8.76,.68-2.42,.83-4.62-1.65-6.3-.54-.37-.91-1.7-.67-2.32,.24-.63,1.32-1.29,2.06-1.32,4.05-.13,8.12-.13,12.17,0,.7,.02,1.77,.76,1.97,1.38,.21,.65-.19,2.01-.73,2.31-5.12,2.82-6.72,8.14-8.86,12.86-4.56,10.05-8.65,20.32-12.91,30.51-.25,.6-.31,1.27-.59,2.43,1.41-.29,2.5-.38,3.49-.74,8.57-3.09,17.39-4.69,26.51-4.17,3.07,.17,4.19-.88,4.14-4.04-.15-10.15-.13-20.3,0-30.45,.04-2.87-.98-4.62-3.55-5.85-1.01-.48-1.59-1.84-2.37-2.81,1.11-.52,2.22-1.47,3.34-1.49,7.44-.13,14.89-.13,22.33,0,1.09,.02,2.15,1.05,3.23,1.61-.75,.84-1.35,2.07-2.28,2.44-2.97,1.18-4.18,3.47-4.2,6.34-.09,12.86-.12,25.72,.03,38.57,.02,1.66,.75,3.68,1.86,4.89,4.65,5.07,5.79,11.01,5.07,17.56-.04,.34-.19,.67-.17,1,.48,8.33-5.58,14.03-8.44,21.02-.29,.7-.86,1.41-1.5,1.79-.93,.56-2.04,.82-3.07,1.22-.07-1.15-.48-2.41-.14-3.42,1.04-3.09,2.38-6.08,3.56-9.13,.31-.8,.44-1.68,.75-2.96-1.59-.16-2.87-.39-4.16-.4-4.28-.05-8.57,.09-12.85-.09-1.13-.05-2.23-.98-3.34-1.51,.74-.94,1.3-2.26,2.27-2.73,2.43-1.19,3.61-2.93,3.61-5.58,0-5.3-.07-10.6,.03-15.9,.05-2.52-1.07-3.23-3.46-3.37-8.13-.48-15.54,2.2-22.98,4.84-2.97,1.05-6.05,1.97-8.77,3.5-1.91,1.08-3.84,2.81-4.8,4.73-2.1,4.22-3.5,8.78-5.39,13.11-.53,1.22-1.75,2.14-2.65,3.19-.92-1.01-2.06-1.9-2.7-3.07-1.02-1.85-1.69-3.89-2.77-6.45-2.68,2.08-5.51,3.62-7.47,5.91-5.11,5.95-10.48,11.83-14.57,18.46-4.62,7.5-6.02,16.15-2.76,24.66,1.16,3.04,3.69,5.96,6.34,7.94,6.62,4.93,14.42,7.17,22.52,8.53,12.43,2.09,24.93,3.91,37.2,6.73,6.15,1.41,11.83,4.8,17.76,7.23,1.08,.44,2.39,.99,3.42,.75,10.86-2.46,21.66-5.14,32.52-7.59,2.38-.54,2.74-1.49,2.78-3.88,.27-13.96,.79-27.92,1.42-41.87,.23-5.17,1.15-10.3,1.4-15.46,.05-1.08-1.28-2.66-2.38-3.28-3.22-1.81-6.7-3.14-9.97-4.88-2.59-1.38-3.84-3.63-3.61-6.71,.18-2.35,.06-4.73,.04-7.1-.02-1.82,.5-3.1,2.61-3.14,2.01-.04,3.75,0,4.27,2.67,.84,4.34,2.14,8.58,5.76,11.55,1.07,.88,2.36,1.51,4.18,2.65,.47-2.99,.8-5.27,1.19-7.54,.53-3.11,1.04-6.23,1.66-9.32,.38-1.89,.22-4.41,3.19-4.26,2.29,.11,4.38,3.24,4.04,5.75-.65,4.69-1.19,9.39-2.04,14.04-.49,2.7,.52,3.39,2.99,3.41,8.88,.07,15.74-8.85,12.95-17.23-1.45-4.34-5.31-6.26-9.3-7.7-6.67-2.41-13.4-4.66-20.07-7.08-1.57-.57-2.96-1.63-4.49-2.34-8.94-4.16-11.55-11.57-10.29-20.68,1.12-8.11,5.2-14.37,12.87-17.77,12.56-5.56,25.22-5.14,37.74,.06,6.77,2.81,10.04,10.81,7.21,17.49-.43,1.01-2.67,1.48-4.15,1.75-1.9,.35-2.77-.81-3.02-2.73-.82-6.23-3.49-11.36-9.13-14.63-5.78-3.36-17.9-2.87-22.48,3.87-4.85,7.14-2.65,15.8,5.37,18.76,7.49,2.76,15.09,5.21,22.55,8.06,4.23,1.61,7.88,4.12,10.79,7.83,6.45,8.21,3.75,22.37-3.85,28.78-6.73,5.67-14.49,7.42-22.87,7.61-2.38,.05-3.81,.64-3.92,3.39-.83,19.24-2.01,38.46-2.52,57.71-.18,6.69,1.16,13.42,1.96,20.12,.18,1.52,.8,3.08,1.57,4.42,1.47,2.54,3.85,4,6.5,2.19,5.36-3.66,10.66-7.46,15.56-11.7,3.35-2.9,6.07-6.55,8.85-10.04,.97-1.23,1.49-2.96,1.81-4.54,.71-3.53,.95-7.15,1.78-10.64,.79-3.36,3.15-4.62,6.01-3.73,3.17,.99,3.08,3.25,2.57,5.98-1.08,5.74-2.21,11.5-2.72,17.3-.44,4.94,2.43,7.37,7.42,6.36,3.81-.78,7.82-1.86,11.07-3.87,7.52-4.65,14.68-9.89,21.87-15.06,1.04-.75,1.52-2.39,2.06-3.7,.63-1.53,.01-4.13,2.72-3.83,2.44,.27,4.12,1.85,4.17,4.54,.05,2.93-.02,5.86-.04,8.8v3.61c3.27-3.27,5.85-6.02,8.62-8.58,2.72-2.51,5.52-4.96,8.48-7.19,3.61-2.73,7.64-1.51,9.2,2.79,1.15,3.16,1.93,6.47,2.86,9.71,.27,.94,.52,1.89,.97,3.51,3.24-2.49,6.07-4.63,8.87-6.82,2.13-1.66,4.21-3.39,6.34-5.06,3.51-2.75,7.53-1.63,9.26,2.64,1.1,2.71,1.94,5.53,3.13,8.2,2.07,4.64,6.54,6.77,11.43,5.48,9.02-2.37,17.38-6.18,24.89-11.79,.63-.47,1.55-.55,2.33-.82,.24,.91,.97,2.08,.64,2.67-1.16,2.14-2.4,4.37-4.12,6.04-4.93,4.81-10.92,7.87-17.56,9.71-8.9,2.46-20.08-3.67-24.26-10.99-1.93-3.37-1.94-3.5-5.14-1.06-3.67,2.8-7.26,5.71-10.94,8.5-4.69,3.55-8.67,2.29-10.59-3.41-1.07-3.19-1.87-6.47-2.85-9.69-.19-.61-.63-1.15-1.46-2.62l-.03-.05Zm-215.38,71.55c15.98-1.94,30.62-6.24,43.66-15.3,6.34-4.41,11.44-9.77,14.63-16.83,2.21-4.89,2.2-9.84-.06-14.74-2.18-4.72-2.42-4.82-7.42-3.1-1.7,.59-3.38,1.27-5.06,1.91-17.27,6.53-33.88,14.3-47.95,26.55-3.09,2.69-5.81,6.04-7.9,9.56-2.78,4.68-1.12,8.54,3.93,10.44,2.08,.78,4.34,1.07,6.17,1.51h0Z"/><path class="cls-1" d="M377.96,37.19c2.94,2.31,6.69,4.63,9.67,7.69,9.8,10.08,5.27,23.44-3.87,30.11-6.12,4.46-13.15,5.73-20.45,5.8-12.73,.13-25.47,.09-38.2,0-.98,0-1.96-.92-2.94-1.42,.63-.93,1.07-2.39,1.92-2.68,3.8-1.31,4.63-3.98,4.59-7.65-.19-19.61-.29-39.21-.24-58.82,0-3.04-1.4-4.45-3.74-5.75-1-.56-1.63-1.77-2.43-2.68,1.13-.52,2.25-1.47,3.38-1.48,14.08-.1,28.17-.12,42.25,0,4.85,.04,9.29,1.63,13.16,4.65,2.86,2.23,4.77,4.97,5.3,8.68,.76,5.3,1.6,10.69-1.46,15.44-2.01,3.12-4.84,5.71-6.94,8.11h0Zm-22.39,39.52c2.25,0,4.51,.07,6.76-.01,8.11-.29,13.65-5.99,13.73-14.1,.03-3.16,.09-6.32-.01-9.47-.19-5.83-3.02-9.95-8.29-12.43-6.79-3.2-13.97-1.49-21-1.59-.57,0-1.66,1.55-1.67,2.39-.12,10.71-.08,21.42-.09,32.13,0,2.11,1.05,3.1,3.12,3.09h7.45Zm-10.54-57.09h-.03c0,4.05,.11,8.1-.04,12.15-.11,2.84,1.09,3.79,3.8,3.7,3.93-.13,7.87-.11,11.81,0,3.14,.08,5.41-1.19,6.98-3.84,4.46-7.54,3.98-15.25,.52-22.92-1.58-3.5-4.63-5.04-8.5-5-3.71,.05-7.42,.05-11.13,0-2.42-.04-3.48,1.02-3.44,3.45,.07,4.16,.02,8.32,.02,12.49v-.02Z"/><path class="cls-1" d="M44.17,12.44c-.14,2.07-.29,3.34-.3,4.61,0,17.13,.05,34.27,0,51.4-.02,3.99,.96,7.06,5.18,8.42,.66,.21,1.47,1.58,1.34,2.23-.14,.68-1.33,1.59-2.09,1.62-4.05,.17-8.11,.17-12.16,.02-.78-.03-2.15-1-2.14-1.52,.02-.87,.75-2.24,1.49-2.49,3.39-1.13,4.24-3.42,4.23-6.75-.06-20.06,0-40.13,.09-60.19,0-2.8-1.35-4.28-3.78-5.36-.91-.4-1.43-1.7-2.13-2.59,.99-.52,1.97-1.48,2.98-1.5,5.63-.15,11.27,0,16.9-.11,2.53-.05,3.82,1.35,5.11,3.21,9.4,13.63,18.86,27.21,28.32,40.8,.95,1.36,2,2.66,3.65,4.85,.18-2.04,.34-3.07,.34-4.1,.02-11.16-.01-22.32,.04-33.48,.02-3.28-.52-6.01-4.16-7.23-.77-.26-1.16-1.64-1.73-2.5,.78-.5,1.54-1.4,2.34-1.43,3.71-.15,7.44-.18,11.15,0,.83,.04,1.94,.99,2.29,1.79,.19,.44-.79,1.9-1.5,2.14-3.75,1.26-4.34,4.08-4.33,7.5,.05,21.19,.03,42.38,.04,63.57,0,.9,.18,1.86-.06,2.69-.29,.98-.84,2.5-1.47,2.6-.98,.16-2.41-.41-3.13-1.17-1.84-1.93-3.54-4.04-5.03-6.25-5.77-8.55-11.38-17.2-17.15-25.74-7.44-11-14.97-21.93-22.48-32.89-.36-.53-.82-.99-1.82-2.18l-.02,.02Z"/><path class="cls-1" d="M494.81,.26c8.79,0,17.58-.02,26.37,0,4.3,.02,4.9,1.02,4.4,6.91-.24,2.84-1.58,3.79-5.01,3.16-.92-.17-2.14-.97-2.47-1.79-1.38-3.42-3.98-4.78-7.41-4.81-6.65-.06-13.3-.02-19.95-.03-2.48,0-3.72,1.1-3.71,3.69,.05,9.13,.05,18.26-.01,27.39-.02,2.47,1.01,3.43,3.44,3.39,4.96-.08,9.92-.15,14.88,.03,2.82,.1,4.86-.76,5.96-3.38,1.08-2.57,3.25-3.47,5.45-2.44,1.12,.52,1.84,2.75,2.01,4.29,.31,2.9,.26,5.87,0,8.78-.11,1.2-1.11,3.25-1.8,3.29-1.69,.09-4.52-.28-4.98-1.31-2.03-4.63-5.58-5.38-9.95-5.2-3.83,.16-7.66,.1-11.49,0-2.38-.06-3.53,.8-3.51,3.32,.07,9.24,.07,18.49,0,27.73-.02,2.41,.89,3.49,3.38,3.46,7.44-.08,14.88-.1,22.32-.02,2.7,.03,4.27-1.32,5.02-3.67,.98-3.09,3.38-2.48,5.56-2.3,2.37,.2,2.26,2.11,2.31,3.82,.02,.68,.01,1.35,0,2.03-.04,4.65-.53,4.94-5.13,4.51-3.58-.33-7.2-.26-10.8-.27-13.86-.03-27.73,.03-41.59-.09-1.32-.01-2.63-1.04-3.94-1.6,.88-.97,1.79-1.9,2.63-2.9,.97-1.15,2.19-2.23,2.71-3.57,.55-1.41,.56-3.09,.56-4.66,.03-18.94-.02-37.88,.07-56.82,.02-3.27-.64-5.7-4.07-6.88-.81-.28-1.27-1.59-1.89-2.43,.97-.55,1.93-1.57,2.91-1.58,9.24-.12,18.48-.07,27.73-.07v.02Z"/><path class="cls-1" d="M428.53,80.98c-8.9,0-17.81,.07-26.71-.08-1.31-.02-2.61-1.09-3.92-1.67,.89-.99,1.6-2.29,2.7-2.91,2.05-1.16,3.22-2.52,3.24-5.03,.11-10.59,.52-21.17,.53-31.76,0-9.91-.39-19.82-.55-29.73-.04-2.41-.92-3.95-3.21-5.01-1.12-.52-1.81-1.98-2.69-3.02,1.22-.52,2.44-1.45,3.67-1.48,7.44-.14,14.88-.13,22.32,0,1.14,.02,2.27,.91,3.4,1.4-.81,.92-1.45,2.17-2.46,2.7-2.8,1.48-4.11,3.54-4.1,6.75,.06,20.41,.07,40.81-.02,61.22-.01,3.18,1.06,4.47,4.32,4.39,6.99-.16,13.98-.1,20.96-.04,2.81,.02,4.86-.95,5.71-3.73,.96-3.11,3.54-2.62,5.56-2.11,.92,.23,1.53,2.23,2,3.53,.29,.8,0,1.79,.07,2.69,.23,2.78-1.03,3.79-3.78,3.76-9.02-.1-18.03-.04-27.05-.04v.17Z"/><path class="cls-1" d="M14.83,80.85c-3.95,0-7.9,.11-11.84-.07-1.02-.05-1.99-.98-2.99-1.51,.73-.95,1.26-2.31,2.22-2.76,2.59-1.2,3.58-2.9,3.57-5.81-.05-20.19,.04-40.37,.14-60.56,.01-2.84-1.1-4.64-3.68-5.85C1.38,3.88,.88,2.61,.19,1.74,1.12,1.25,2.04,.36,2.98,.35c7.89-.12,15.79-.12,23.68,0,.91,0,1.82,.9,2.73,1.37-.72,.86-1.26,2.11-2.18,2.5-3.09,1.32-4.39,3.37-4.37,6.8,.12,19.51,.1,39.02,.06,58.54,0,3.57,1.21,6.03,4.79,7.23,.79,.26,1.24,1.52,1.85,2.32-.84,.58-1.65,1.62-2.52,1.66-4.05,.18-8.12,.08-12.17,.08v.02h-.02Z"/><path class="cls-1" d="M303.39,.25c3.83,0,7.67-.11,11.49,.08,1,.05,1.95,1.04,2.92,1.59-.71,.84-1.26,2.08-2.16,2.44-3.14,1.27-4.49,3.41-4.48,6.77,.04,19.38,0,38.77-.01,58.15,0,3.43,1.14,6.1,4.68,7.4,.82,.3,1.3,1.51,1.93,2.3-.92,.61-1.84,1.72-2.77,1.75-7.77,.19-15.54,.24-23.31,.14-1.11-.01-2.2-1.1-3.29-1.69,.78-.93,1.38-2.32,2.37-2.72,4.11-1.66,3.95-5.3,3.96-8.55,.02-19.48-.15-38.96-.24-58.44-.01-2.62-1.34-4.07-3.69-5.05-.99-.42-1.67-1.6-2.49-2.44,1.09-.58,2.16-1.6,3.27-1.66,3.93-.2,7.88-.08,11.83-.08h0Z"/><path class="cls-1" d="M498.21,215.38c4.43-2.95,8.85-5.9,13.2-8.79,.28,2.04,.5,3.66,.72,5.34-.96,1.02-2.43,2.34-3.62,3.88-3.02,3.91-4.8,3.87-6.72-.02-2.51,0-4.9-.19-7.23,.07-1.38,.15-2.67,1.03-4.01,1.57-2.27,.93-4.46,1.6-5.26-1.92-2.15,.64-4.17,1.97-5.52-1.12-.62-1.42-6.17,.57-7.83,2.83-1.93,2.63-3.55,5.54-5.73,7.93-1.14,1.26-4.21,2.74-4.68,2.29-1.99-1.89-.38-4.01,1.04-5.55,1.74-1.89,3.87-3.42,5.82-5.11,.85-.74,1.68-1.51,2.95-2.65-5.1,1.24-9.29,3.23-14.03,1.85-.85-.25-1.95,.49-2.93,.52-1.05,.03-2.29,.03-3.09-.5-.36-.23,.13-1.78,.26-2.73,.06-.42,.17-.83,.45-2.2-2.69,1.89-4.69,3.36-6.76,4.74-4.07,2.72-5.76,2.23-7.17-1.07-2.57-.09-4.66-.38-6.68-.14-1.23,.14-2.31,1.29-3.55,1.63-1.39,.39-2.9,.38-4.35,.54,.21-1.66,.21-3.39,.7-4.97,.27-.85,1.37-1.44,2.07-2.16,1.73-1.78,3.47-2.24,4.97,.16,1.05,1.68,2.13,1.51,3.67,.71,4.66-2.4,9.44-4.59,12.76-8.92,.39-.5,1.06-1,1.65-1.08,.89-.12,1.83,.13,2.75,.22-.18,.82-.09,1.94-.6,2.42-1.79,1.69-3.7,3.27-5.72,4.68-3.48,2.42-4.83,4.65-4.38,8.34,4.53-2.01,8.66-4.1,9.87-9.42,3.44,2.19,4.4,4.89,2.87,8.11,5.7-.08,6.81-6.23,10.57-8.83,.36,.31,.73,.62,1.09,.93-1.45,2.52-2.89,5.03-4.34,7.55,.28,.27,.56,.53,.84,.8,1.25-.96,2.47-1.96,3.76-2.85,2.01-1.4,3.97-2.92,6.15-3.99,.9-.44,2.3,.13,3.47,.24-.19,1.04-.37,2.08-.59,3.12-.09,.42-.29,.82,.04,2.05,3.6-1.74,7.19-3.49,10.79-5.23,.14,.22,.27,.44,.41,.66-.96,1.51-1.92,3.03-2.88,4.54,.22,.2,.44,.4,.66,.6,2.46-2.07,4.93-4.14,7.39-6.21,.36,.26,.71,.53,1.07,.79-1.18,2.32-2.36,4.63-3.55,6.95,.17,.22,.34,.44,.51,.66,1.86-1.45,3.72-2.89,5.56-4.35,1.22-.97,2.32-2.17,3.67-2.88,.63-.33,1.75,.24,2.64,.4-.43,.78-.72,1.71-1.33,2.3-.81,.78-1.87,1.29-2.82,1.92,.32,.46,.63,.92,.95,1.38l.05-.03Z"/><path class="cls-1" d="M311.96,215.48c2.1-1.68,4.28-3.26,6.27-5.05,2.6-2.34,8.56-1.59,9.78,1.74,1.27-.8,2.39-1.77,3.69-2.23,1.23-.44,2.66-.35,4-.5-.13,1.1-.2,2.2-.4,3.29-.12,.65-.43,1.26-.81,2.31,5.36-.92,6.87-5.99,10.01-8.99,.4,.3,.79,.59,1.19,.89-1.38,2.6-2.76,5.2-4.39,8.27,3.42-.52,4.95-2.47,6.59-4.67,2.46-3.31,5.27-6.38,8.14-9.35,.64-.66,2.16-.46,3.27-.66-.34,1.15-.35,2.62-1.09,3.38-1.72,1.76-3.97,3-5.65,4.79-1.31,1.39-2.08,3.3-3.09,4.97,.39,.37,.79,.75,1.18,1.12,1.22-.73,2.47-1.43,3.67-2.2,2.16-1.4,4.19-3.06,6.47-4.21,2.71-1.37,4.01-.35,3.94,2.71-.02,.99-.1,1.98-.06,2.97,.01,.25,.42,.48,.86,.96,1.99-1.06,4.02-2.15,6.36-3.39-3.16,5.15-7.7,5.77-11.49,1.89-4.36,1.87-8.67,4.57-13,1.67-4.95,.56-9.56,1.26-14.18,1.45-.88,.04-1.84-1.93-3.29-3.56-2.02,1.82-4.63,4.18-7.24,6.54-.42-.33-.84-.67-1.26-1,1.39-2.5,2.78-5,4.48-8.05-1.11,.31-1.9,.29-2.16,.65-2.69,3.65-7.03,3.56-10.76,4.81-2.55,.86-3.17,.49-5.78-2.81-3.99,2.04-7.92,4.34-12.07,6.09-3.25,1.36-6.75,2.71-10.2,2.89-8.96,.45-10.92-5.05-8.29-12.47,2.87-8.12,8.64-14.24,16.62-17.8,1.92-.86,4.45-.94,6.58-.62,2.59,.39,2.91,2.32,1.76,4.59-4.2-3.03-5.75-3.17-10.02-.12-4.91,3.5-8.93,7.89-11.74,13.29-.26,.5-.7,1.04-.67,1.53,.16,2.81-.37,6.07,.9,8.28,1.48,2.58,4.88,2.11,7.76,1.43,5.57-1.32,9.95-4.59,14.16-8.24,1.6-1.38,3.32-2.75,5.21-3.63,3.12-1.46,4.38-.4,4.09,3.09-.08,.99-.22,1.98-.33,2.97,.33,.34,.66,.67,.99,1.01v-.03Z"/><path class="cls-1" d="M419.89,225.18c-2.64-1.99-5.39-3.84-7.87-6.01-1.76-1.54-3.21-3.47-4.68-5.31-.51-.64-1.14-1.83-.88-2.28,.41-.71,1.48-1.19,2.36-1.45,4.36-1.31,9.03-1.95,13.06-3.92,3.75-1.83,5.14-5.73,4.51-10.1-.43-2.97-1.97-3.32-4.21-1.94-5.87,3.64-11.2,7.9-15.46,13.43-2.74,3.56-5.62,7.03-8.5,10.49-.6,.72-1.43,1.25-2.15,1.87-.36-.22-.73-.43-1.09-.65,.62-1.3,1.07-2.73,1.9-3.88,3.49-4.82,7.22-9.48,10.6-14.37,1.18-1.7,1.82-3.87,2.34-5.91,1-3.91-1.02-6.14-4.93-4.99-4.6,1.34-9.04,3.31-13.45,5.22-2.02,.87-3.83,2.24-6.21,3.66,.24-3.63,2.54-5.17,4.71-6.08,4.52-1.9,9.2-3.59,13.97-4.68,5.33-1.23,8.57,2.3,7.8,7.79-.13,.95-.21,1.9-.37,3.3,2.88-2.06,5.26-3.82,7.71-5.49,1.01-.69,2.12-1.34,3.27-1.72,4.61-1.5,7.59,1.03,6.98,5.85-.98,7.75-6.07,12.54-14.14,13.48-1.33,.16-2.58,.91-3.87,1.39,.53,1.19,.81,2.61,1.63,3.54,2.42,2.75,5.07,5.31,7.62,7.95-.22,.28-.43,.56-.65,.84v-.03Z"/><path class="cls-1" d="M255.43,215.42c2.22-1.25,4.43-2.5,6.65-3.75,.17,.3,.34,.6,.51,.91-2.36,1.32-4.61,2.93-7.1,3.89-2.97,1.15-3.82,.15-3.06-2.97,.1-.4,.08-.84,.16-1.75-2.67,1.35-5.06,2.4-7.3,3.72-4.91,2.88-4.9,2.92-6.67-2.33-3.01,.46-4.79,4.72-9.26,2.85,1.8-1.56,3.28-2.84,4.77-4.13-3.5,1.09-6.23,3.03-8.33,6.12-2.25,3.32-4.91,6.38-7.54,9.42-.49,.57-1.68,.54-2.55,.78-.05-.95-.5-2.16-.08-2.82,1.19-1.87,2.71-3.53,4.14-5.23,2.52-3,5.05-5.98,7.61-8.94,1.28-1.47,1.83-3.26,4.99-2.02,1.83,.72,4.43-.03,6.36,1.92,.39,.39,2.21-.13,2.99-.72,4.38-3.31,5.14-3.12,6.36,2.98,1.18-1.74,1.9-2.91,2.74-4,.72-.93,2.01-2.64,2.28-2.5,1.78,.92,4.34,1.58,3.7,4.43-.28,1.24-1.16,2.35-1.76,3.51,.14,.21,.28,.42,.42,.63h-.03Z"/><path class="cls-1" d="M298.92,109.06c-.29,1.06-.7,2.7-1.19,4.31-1.39,4.55-3.55,5.38-7.45,2.63-.77-.55-1.55-2.14-1.29-2.91,1.03-3.17,1.78-6.91,3.97-9.08,1.67-1.66,6.03,1.87,5.96,5.06h0Z"/></svg>