<?xml version="1.0" encoding="UTF-8"?><svg id="Layer_2" xmlns="http://www.w3.org/2000/svg" xmlns:xlink="http://www.w3.org/1999/xlink" viewBox="0 0 78.74 29.97"><defs><style>.cls-1{clip-path:url(#clippath-2);}.cls-1,.cls-2,.cls-3{fill:none;}.cls-4{fill:#d19e78;}.cls-2{clip-path:url(#clippath);}.cls-3{clip-path:url(#clippath-1);}</style><clipPath id="clippath"><path class="cls-4" d="m14.77,12.87c-.07-.17-.13-.35-.19-.53-.13-.46-.19-.97-.19-1.53,0-.38.05-.75.14-1.1.09-.35.23-.68.41-.99h0c.18-.31.39-.61.63-.88.24-.28.52-.54.82-.79.28-.23.59-.44.92-.64-.22-1.07-.63-2.05-1.16-2.84-.82-1.22-1.91-1.99-3-1.99-.9,0-1.67.52-2.21,1.34-.59.89-.93,2.14-.93,3.5,0,1.76.52,3.37,1.32,4.55.81,1.2,1.91,1.95,3.02,1.95.15,0,.29-.01.43-.04m-3.05,3.61c.25-.18.35-.38.35-.65,0-.17-.02-.34-.08-.46-.05-.09-.14-.16-.28-.16-.25,0-.53.09-.76.36-.19.23-.35.58-.44,1.1l-.03.34c.59-.18.99-.35,1.24-.53Zm.78.66c-.5.34-1.21.59-2.02.73.04.34.16.76.47,1.06.25.24.62.42,1.17.42.16,0,.39-.02.63-.06.18-.03.37-.08.53-.14l.14-.06.29.5-.12.1c-.32.26-.61.46-.94.61-.33.14-.7.22-1.17.22h0c-.61,0-1.22-.33-1.66-.83-.42-.48-.7-1.12-.7-1.82v-.18c0-.97.26-1.76.73-2.32.47-.55,1.16-.87,2.02-.87h.03c.43,0,.79.13,1.04.35.26.23.41.56.41.95,0,.54-.31.99-.84,1.34Zm-10.63,3.21c-.16.09-.35.16-.52.16-.21,0-.48-.09-.66-.44-.11-.22-.19-.56-.19-1.06v-2.86c0-.33-.03-.53-.08-.66-.05-.11-.12-.17-.21-.23l-.2-.12.17-.16c.15-.14.29-.26.45-.34.16-.08.34-.13.54-.14h.03c.1.01.34.11.49.4.05.09.09.2.11.34.07-.11.15-.21.24-.3.27-.26.62-.44,1.1-.44h.08c.37,0,.77.15,1.09.44.19.17.34.39.46.65.17-.28.36-.52.56-.7.28-.25.58-.39.91-.39h.09c.43,0,.91.2,1.25.61.28.33.47.8.47,1.4v2.55c0,.24.03.41.09.52.05.09.12.14.23.15l.22.03-.09.21c-.05.12-.22.28-.41.39-.16.09-.35.16-.52.16-.29,0-.51-.15-.66-.44-.13-.25-.2-.6-.2-1.06v-2.51c0-.32-.1-.6-.24-.8-.14-.2-.33-.32-.51-.32s-.36.14-.53.33c-.23.27-.41.64-.49.92v2.41c0,.23.03.41.09.52.05.09.13.14.24.15l.26.04-.13.23c-.06.11-.23.26-.42.38-.15.09-.33.15-.5.15-.29,0-.52-.15-.68-.44-.13-.25-.2-.6-.2-1.06v-2.53c0-.31-.1-.58-.24-.78-.14-.2-.33-.32-.51-.32h-.03c-.21,0-.41.16-.56.38-.25.34-.4.8-.4,1v2.29c0,.24.03.41.09.52.05.09.12.14.23.15l.22.03-.09.21c-.05.12-.21.28-.41.39Zm31.53-11.65c-.02-.22-.07-.43-.14-.64-.11-.32-.29-.63-.52-.91h0c-.1-.12-.22-.25-.35-.37h0c-.14-.12-.29-.24-.46-.36h0c-.17-.12-.36-.23-.58-.34-.22-.11-.46-.21-.72-.31-.26-.1-.55-.18-.87-.26-.32-.08-.66-.15-1.03-.21h0c-.37-.06-.77-.1-1.2-.13-.43-.03-.89-.04-1.39-.04s-.97.02-1.43.07c-.46.04-.93.11-1.38.2-.46.09-.89.2-1.31.32-.41.12-.81.26-1.19.42h0c-.15.06-.3.13-.45.2.01.19.02.39.02.59,0,1.92-.5,3.56-1.38,4.81.16.12.34.23.54.35.41.24.88.48,1.41.71.54.23,1.15.46,1.84.67.69.21,1.45.42,2.29.61.76.18,1.5.35,2.21.54.71.18,1.38.37,2.01.56.64.19,1.24.4,1.8.63.56.23,1.07.48,1.53.75.47.27.89.57,1.26.9.37.33.68.68.95,1.07h0c.27.39.47.82.6,1.3.13.48.2,1,.2,1.56s-.06,1.09-.19,1.58c-.12.49-.31.94-.56,1.36-.25.41-.54.78-.88,1.12-.34.34-.73.64-1.16.91-.43.26-.9.49-1.42.69-.51.19-1.06.35-1.65.48h0c-.58.12-1.19.22-1.83.28-.64.06-1.29.09-1.97.09s-1.35-.03-2.01-.1c-.67-.06-1.32-.16-1.96-.29-.64-.13-1.25-.28-1.83-.46-.58-.18-1.12-.39-1.62-.62-.51-.23-.97-.49-1.37-.78-.41-.28-.77-.59-1.08-.93-.31-.34-.55-.7-.71-1.08-.16-.38-.24-.78-.24-1.2,0-.22.03-.43.08-.62.06-.19.14-.36.25-.51.11-.15.23-.27.37-.37.14-.1.29-.18.46-.24.16-.06.33-.09.5-.11.17-.02.35-.02.53,0h0c.18.02.35.06.52.12.17.06.33.14.48.23h0c.14.09.26.2.37.34.1.13.18.29.24.48.06.18.1.36.11.55.01.19,0,.38-.04.56h0c-.04.19-.1.38-.19.56-.09.18-.21.35-.35.52-.15.18-.33.33-.54.45-.13.08-.28.15-.44.21.07.08.15.16.24.24.18.16.41.31.68.46h0c.28.16.59.31.91.44.33.14.67.27,1.04.39h0c.37.12.76.23,1.15.33.39.1.79.18,1.21.25.42.07.81.12,1.19.16.37.03.74.05,1.09.05.6,0,1.17-.04,1.72-.12.55-.08,1.08-.2,1.59-.35.51-.16.97-.34,1.39-.54.42-.2.79-.43,1.12-.69h0c.33-.25.6-.52.83-.8.22-.28.39-.58.51-.9.12-.31.16-.62.14-.94-.02-.32-.12-.64-.28-.97-.17-.33-.42-.66-.75-.99-.34-.33-.76-.66-1.27-.99-.51-.33-1.13-.64-1.85-.94-.73-.3-1.56-.58-2.5-.84-.93-.26-1.77-.49-2.54-.7-.72-.2-1.47-.4-2.23-.6-.69-.18-1.33-.38-1.92-.59-.05-.02-.1-.04-.15-.05v3.12c0,.24.03.41.09.52.05.09.12.14.23.15l.22.03-.09.21c-.05.11-.21.28-.41.39-.16.09-.34.16-.51.16-.25,0-.45-.12-.6-.33h0c-.08-.12-.15-.26-.19-.44-.17.18-.37.35-.57.49-.25.17-.51.28-.76.28h-.1c-.45,0-.94-.18-1.29-.56-.29-.31-.48-.76-.48-1.35v-2.58c0-.27-.03-.44-.08-.55-.04-.1-.11-.15-.2-.21l-.17-.11.13-.15c.14-.16.29-.27.45-.35.18-.09.37-.13.55-.14h.05s.05.03.05.03c.16.1.31.26.41.45.09.18.14.39.14.62v3.04h0c0,.32.09.55.22.7.14.16.35.23.6.23h.11c.12,0,.37-.15.57-.36.15-.16.26-.36.26-.55v-2.5c0-.33-.03-.53-.08-.66-.05-.11-.12-.17-.21-.23l-.2-.12h.01c-.34-.2-.64-.4-.92-.62-.14-.11-.27-.23-.4-.35-.63.2-1.31.3-2.02.3-1.92,0-3.62-.7-4.83-2.03-1.12-1.24-1.8-3.01-1.8-5.26s.65-4,1.79-5.24c1.17-1.27,2.85-1.95,4.87-1.95s3.68.63,4.88,1.89c.78.82,1.35,1.9,1.61,3.24.25-.08.51-.16.77-.23h0c.44-.12.87-.22,1.31-.31.43-.09.88-.16,1.33-.22.45-.06.88-.1,1.31-.13.43-.03.85-.04,1.26-.04.6,0,1.18.03,1.74.08.55.06,1.08.14,1.57.25h0c.49.11.95.24,1.37.39.43.15.82.32,1.18.51h0c.36.19.68.4.97.63.29.23.54.47.76.73h0c.22.26.39.53.53.82.13.28.22.58.27.88h0c.05.29.06.56.05.81-.01.25-.05.49-.12.69-.07.21-.15.39-.25.56-.1.17-.22.32-.36.46h0c-.13.13-.28.24-.44.34-.16.09-.33.17-.51.23h0c-.18.06-.35.1-.52.13-.17.03-.34.04-.51.04-.13,0-.26-.01-.38-.04-.13-.03-.25-.06-.36-.11-.11-.05-.22-.11-.31-.17-.1-.07-.19-.14-.27-.22-.08-.08-.15-.17-.22-.26-.06-.09-.12-.19-.16-.29h0c-.05-.1-.08-.21-.11-.32-.02-.11-.04-.22-.04-.34s.01-.23.04-.34c.02-.11.06-.22.1-.33h0c.05-.11.1-.21.17-.3.07-.09.14-.18.22-.27h0c.09-.09.18-.16.28-.23.1-.07.21-.12.33-.17.12-.05.25-.09.38-.11.13-.02.27-.04.41-.04.1,0,.2.01.31.03.1.02.21.05.32.09h0c.1.04.2.08.29.12.1.04.19.09.27.13h0c.07.04.14.08.21.12Z"/></clipPath><clipPath id="clippath-1"><path class="cls-4" d="m67.11,19.38c.12-.03.23-.07.34-.13.11-.06.21-.13.3-.22.1-.09.18-.19.26-.3.08-.11.14-.23.2-.37h0c.06-.13.1-.27.14-.43.04-.15.06-.31.07-.48h0c.01-.17.01-.34,0-.51-.01-.17-.04-.35-.08-.52h0c-.04-.18-.1-.35-.16-.5-.06-.16-.14-.31-.23-.45-.09-.14-.18-.27-.28-.39-.1-.12-.21-.23-.32-.32h0c-.11-.09-.23-.17-.34-.24-.12-.07-.24-.12-.36-.15h0c-.12-.04-.25-.06-.36-.06-.12,0-.24.01-.36.04h0c-.13.03-.24.08-.35.13-.11.06-.21.13-.3.22h0c-.1.09-.18.19-.26.3-.07.11-.14.23-.2.36h0c-.06.13-.1.27-.14.42-.03.15-.06.31-.07.48h0c-.01.17,0,.34,0,.51.02.17.04.35.09.53.04.18.09.34.16.51.06.16.14.32.22.46.08.14.18.28.28.4.1.12.21.22.32.31h0c.11.09.23.17.35.24.12.07.24.12.36.16.12.04.24.06.36.06.12,0,.24,0,.37-.04h0Zm-18.99-5.18c.36-.68.68-1.33.97-1.94h0c.17-.35.32-.69.47-1.03.15-.34.28-.68.42-1.01.13-.33.24-.64.33-.94.09-.29.16-.57.22-.83h0c.05-.25.08-.48.09-.67,0-.19-.01-.36-.05-.5-.03-.11-.08-.2-.16-.25-.08-.05-.19-.08-.33-.08-.15,0-.28.04-.41.11-.13.08-.26.2-.38.36-.13.17-.25.37-.36.6-.11.23-.21.49-.3.78h0c-.09.29-.17.61-.24.94-.07.33-.12.69-.17,1.07h0c-.05.38-.08.77-.1,1.15-.02.38-.03.77-.03,1.17,0,.36,0,.72.03,1.07Zm7.92-2.36c-.22-.09-.44-.16-.64-.22-.2-.06-.39-.1-.57-.12-.16-.02-.3-.02-.43.01-.12.03-.22.08-.31.16h0c-.07.06-.13.11-.2.15-.07.04-.14.07-.22.09h0c-.07.02-.14.03-.2.04-.08,0-.15-.01-.21-.04h0c-.09-.05-.14-.13-.15-.23,0-.07.01-.14.05-.22h0c.03-.07.09-.14.17-.22.07-.07.16-.14.27-.23h0c.23-.18.46-.32.68-.43.23-.11.44-.2.66-.25h0c.21-.05.41-.08.6-.09.2-.01.38,0,.57.02.18.02.35.06.52.1.17.05.32.11.48.18h0c.14.06.27.13.4.19.12.06.25.12.38.19h0c.11.06.22.11.31.15.1.04.18.07.26.1h0c.05.02.1.02.14.01.04,0,.08-.03.11-.06h0s.09-.08.15-.11c.06-.03.12-.05.18-.07.06-.02.12-.02.18-.03.07,0,.13,0,.18.02.09.02.15.07.19.14.04.07.05.14.03.23h0c-.02.08-.06.15-.14.23-.05.05-.13.11-.22.18-.17.15-.33.27-.49.37-.16.1-.32.17-.48.22-.15.04-.3.07-.44.08-.14.01-.28,0-.42-.01h0c-.13-.02-.26-.05-.39-.09-.13-.04-.25-.09-.37-.15h0c-.11-.05-.22-.1-.33-.16-.11-.05-.22-.1-.33-.15Zm-9.7,7.16c-.08.1-.16.2-.25.31-.09.11-.19.22-.3.33h0c-.11.11-.22.22-.35.33-.12.11-.25.21-.38.3h0c-.14.1-.28.19-.42.27-.15.08-.3.16-.46.22-.16.07-.33.12-.51.16-.17.03-.35.05-.53.05-.2,0-.39-.03-.57-.1-.18-.07-.35-.16-.51-.29-.15-.12-.29-.25-.41-.39-.13-.14-.24-.28-.35-.43h0c-.1-.15-.19-.29-.28-.42-.08-.14-.15-.27-.21-.4h0s-.02-.06-.02-.06l-.04.07h0c-.08.13-.16.26-.27.4-.1.13-.21.27-.34.42-.13.15-.27.29-.42.43-.15.13-.31.26-.49.38-.18.13-.38.22-.58.29-.2.06-.42.1-.64.1s-.45-.02-.65-.07c-.21-.05-.4-.12-.57-.21-.17-.09-.33-.21-.47-.33-.14-.13-.26-.27-.37-.43h0c-.1-.16-.19-.33-.26-.52-.07-.18-.12-.38-.15-.59h0c-.03-.2-.05-.41-.05-.63,0-.22.02-.44.06-.66h0c.04-.22.1-.45.17-.68.08-.23.17-.45.28-.68.11-.23.24-.45.39-.67.15-.22.32-.43.51-.64h0c.2-.22.41-.42.63-.59.22-.17.44-.31.66-.43.22-.11.44-.21.66-.28.22-.08.44-.14.66-.18h0c.2-.04.38-.06.57-.07.19-.01.36-.01.54,0h0c.17.01.33.03.47.06.15.02.29.06.41.09.13.04.24.08.34.12.1.05.19.1.26.16h0c.09.07.15.14.18.21.05.11.04.21-.03.31h0c-.05.07-.1.11-.15.14-.07.04-.15.06-.22.04h0s-.09-.02-.14-.03c-.04-.01-.09-.03-.15-.06h0s-.1-.04-.16-.06c-.07-.02-.14-.05-.22-.07h0c-.08-.02-.17-.04-.27-.05-.11-.01-.23-.02-.37-.02-.13,0-.25.01-.37.04-.13.03-.25.07-.38.13h0c-.13.06-.26.13-.38.2-.13.08-.25.17-.36.27h0c-.12.1-.23.21-.34.33-.11.12-.2.24-.3.38-.09.13-.17.27-.24.41-.07.14-.12.28-.16.43h0c-.06.22-.11.44-.13.63-.02.19-.03.37,0,.54.02.17.05.32.09.46.04.14.09.26.16.37.06.11.13.21.21.29.07.08.15.15.24.2h0c.09.05.17.1.25.12.07.02.14.04.21.04.14,0,.27-.02.38-.06.11-.04.21-.1.3-.18.1-.09.19-.19.27-.3.08-.11.16-.24.22-.37h0c.07-.14.13-.28.19-.44.06-.15.11-.31.15-.47.05-.2.09-.36.13-.48.02-.07.06-.23.12-.46h0c.04-.15.08-.29.12-.41.04-.13.08-.24.12-.34h0c.05-.12.11-.22.19-.29.09-.08.19-.13.31-.13s.22.04.32.13c.08.07.16.17.23.29h0c.06.11.12.24.19.37.06.14.12.28.18.44h0c.06.15.12.31.19.49.07.18.14.36.2.53.07.18.14.35.21.52.07.16.15.32.24.47.08.15.17.28.26.41.09.12.18.23.28.33.09.09.18.15.28.19.09.04.19.06.3.06.08,0,.16,0,.24-.03.07-.02.15-.04.21-.08h0c.08-.04.15-.08.21-.12.07-.04.13-.09.19-.14h0c.06-.05.12-.11.18-.18.06-.07.12-.13.17-.2h0s.39-.5.39-.5h-.04s.06-.11.06-.11c-.04-.16-.08-.33-.12-.49-.06-.26-.11-.53-.15-.8h0c-.04-.28-.08-.55-.11-.82-.03-.27-.05-.55-.07-.82-.02-.27-.03-.53-.04-.79,0-.25-.01-.49-.01-.73v-.02c.07-.69.16-1.35.29-1.98.13-.63.29-1.22.47-1.77.08-.23.17-.47.27-.7.1-.23.2-.46.32-.69.12-.23.25-.45.38-.65.14-.2.29-.4.45-.58.16-.18.34-.35.52-.5.19-.15.38-.28.59-.39h0c.22-.11.44-.2.69-.26.24-.06.49-.08.76-.08.28,0,.52.05.72.15.21.11.36.27.47.48.09.19.15.42.18.67.03.24.02.51-.01.81-.04.29-.1.59-.18.92-.08.33-.19.67-.33,1.03h0c-.13.37-.28.73-.43,1.09-.15.36-.32.73-.5,1.12h0c-.42.89-.9,1.83-1.45,2.82-.15.27-.3.54-.46.81.03.25.07.49.11.72.06.34.13.65.22.94.08.29.17.55.27.78.1.23.21.43.33.6h0c.11.16.23.28.35.35.11.07.23.11.36.11h.02c.06,0,.13,0,.2,0,.08-.02.16-.05.25-.09h0c.08-.04.17-.09.26-.15.1-.06.2-.15.32-.24h0c.11-.09.23-.21.35-.36.11-.12.22-.27.33-.43,0-.17.03-.34.06-.51h0c.04-.22.1-.45.17-.68.08-.23.17-.45.28-.68.11-.23.24-.45.39-.67.15-.22.32-.43.51-.64h0c.2-.22.41-.42.63-.59.22-.17.44-.31.66-.43.22-.11.44-.21.66-.28.22-.08.44-.14.66-.18h0c.2-.04.38-.06.57-.07.19-.01.36-.01.54,0h0c.17.01.33.03.47.06.15.02.29.06.41.09.13.04.24.08.34.12.1.05.19.1.26.16h0c.09.07.14.14.18.21.05.11.04.21-.03.31h0c-.05.07-.1.11-.15.14-.07.04-.15.06-.22.04h0s-.09-.02-.14-.03c-.04-.01-.09-.03-.15-.06h0s-.1-.04-.16-.06c-.07-.02-.14-.05-.22-.07h0c-.08-.02-.17-.04-.27-.05-.11-.01-.23-.02-.37-.02-.13,0-.25.01-.37.04-.13.03-.25.07-.38.13h0c-.13.06-.26.13-.38.2-.12.08-.25.17-.36.27-.12.1-.23.21-.34.33-.11.12-.2.24-.3.38-.09.13-.17.27-.24.41-.07.14-.12.28-.16.43h0c-.07.22-.11.44-.13.63-.02.19-.03.37,0,.53h0c.02.17.05.32.09.46.04.14.09.26.16.37.06.11.13.21.21.29.07.08.15.15.24.2h0c.09.05.17.1.25.12.07.02.14.04.21.04.14,0,.27-.02.38-.06.11-.04.21-.1.3-.18.1-.09.19-.19.27-.3.08-.11.16-.24.22-.37h0c.07-.14.13-.28.19-.44.06-.15.11-.31.15-.47.05-.2.09-.36.12-.48.02-.06.06-.22.12-.46h0c.04-.15.08-.29.12-.41.04-.13.08-.24.12-.34h0c.05-.12.11-.22.19-.29.09-.08.19-.13.31-.13s.22.04.32.13c.08.07.16.17.23.29h0c.06.11.12.24.19.37.06.14.12.28.18.44h0c.06.15.12.31.19.49.07.18.14.36.2.53.07.18.14.35.21.52.07.16.15.32.24.47.08.15.17.28.26.41.09.12.18.23.28.33.09.09.18.15.27.19.09.04.19.06.3.06.08,0,.16,0,.24-.03.07-.02.15-.04.21-.08h0c.08-.04.15-.08.21-.12.07-.04.13-.09.19-.14h0c.06-.05.12-.11.18-.17.06-.06.12-.13.17-.2h0s.35-.44.35-.44c-.02-.06-.03-.13-.04-.2-.05-.25-.07-.5-.07-.77,0-.26.02-.52.07-.77.05-.25.12-.49.21-.72.09-.23.2-.45.33-.65.13-.2.28-.39.44-.56.16-.17.34-.32.53-.46.19-.14.39-.25.61-.36h0c.22-.1.45-.18.68-.23.24-.05.48-.08.73-.08s.49.03.73.08c.24.05.46.13.68.23h0c.22.1.42.22.61.36.19.14.37.29.53.46.16.17.31.36.44.56.13.2.24.41.34.65h0c.1.23.17.47.22.72.05.25.07.5.07.77s-.02.52-.07.77c-.05.25-.12.49-.22.72-.09.23-.21.44-.34.65-.13.2-.28.39-.44.56-.16.17-.34.32-.53.46-.19.14-.39.25-.61.36h0c-.22.1-.45.18-.68.23-.24.05-.48.08-.73.08s-.49-.03-.73-.08c-.24-.05-.46-.13-.68-.23h0c-.22-.1-.42-.22-.61-.36-.19-.14-.37-.29-.53-.46-.16-.17-.31-.36-.44-.56-.05-.08-.1-.16-.14-.24-.07.09-.14.17-.21.25-.09.1-.19.21-.3.33h0c-.11.11-.22.22-.35.33-.12.11-.25.21-.38.3h0c-.14.1-.28.19-.42.27-.15.08-.3.16-.46.22-.16.07-.33.12-.51.16-.17.03-.35.05-.53.05-.2,0-.39-.03-.57-.1-.18-.07-.35-.16-.51-.29-.15-.12-.29-.25-.41-.39-.13-.14-.24-.28-.35-.43h0c-.1-.14-.19-.29-.28-.42-.08-.14-.15-.27-.21-.4h0s-.02-.06-.02-.06l-.04.07h0c-.08.13-.16.26-.27.4-.1.13-.21.27-.34.42-.13.15-.27.29-.42.43-.15.13-.31.26-.49.38-.18.13-.38.22-.58.29-.2.06-.42.1-.64.1s-.45-.02-.65-.07c-.21-.05-.4-.12-.57-.21-.17-.09-.33-.21-.47-.33-.14-.13-.26-.27-.37-.43h0c-.1-.16-.19-.33-.26-.52-.02-.05-.03-.09-.05-.14-.01.01-.02.02-.03.04-.13.14-.27.29-.43.45-.16.16-.34.3-.53.44-.19.14-.4.27-.62.4h0c-.23.13-.47.23-.72.29-.25.06-.51.1-.78.1-.22,0-.43-.03-.63-.1-.2-.06-.38-.16-.55-.29-.17-.12-.32-.27-.46-.43-.14-.16-.26-.34-.38-.55-.11-.19-.21-.4-.3-.61Z"/></clipPath><clipPath id="clippath-2"><path class="cls-4" d="m39.55,27.38s-.02.03-.03.04c0,.01-.02.03-.02.04.03,0,.07,0,.11.01h0s.02,0,.02.02c0,.01.01.03.02.04,0,.02,0,.04,0,.06,0,0,0,.01,0,.02,0,0,0,.02,0,.02,0,.01-.02.02-.02.02h-.02s-.02,0-.03,0c-.03,0-.07.02-.11.04,0,.01,0,.02,0,.03,0,0,0,.01.01.02,0,0,0,.01.01.01,0,0,0,0,0,.01,0,0,0,0,0,.01,0,0,.01.01.02.02,0,0,.01.01.02.02.03.02.07.04.11.05.04.01.08.02.13.02.03-.04.06-.09.08-.13.02-.04.03-.09.04-.13.03-.1.03-.17.03-.22,0-.05-.01-.09-.02-.1-.01-.03-.03-.05-.05-.06-.02-.01-.05-.02-.09-.01-.03,0-.07.02-.11.04-.04.02-.08.06-.12.1m-.32.61s-.03.08-.04.11c0,.02,0,.03,0,.05s0,.03,0,.04c0,.02.02.03.04.04.01,0,.03.01.06.01s.06,0,.1-.03c.03-.01.05-.02.08-.04.03-.02.06-.03.09-.05.05-.04.1-.07.13-.1-.1,0-.19-.04-.26-.11-.03-.03-.06-.07-.08-.11,0,0,0,.01-.01.02,0,0,0,.01-.01.02,0,0-.01.01-.02.02,0,.01-.02.02-.02.04,0,.02-.02.03-.03.05s-.01.03-.02.05Zm-3.59,1.77s.05-.06.11-.12c.05-.06.11-.13.19-.21.07-.09.15-.18.24-.29.09-.11.18-.23.28-.36-.18.17-.33.32-.45.45-.12.13-.2.22-.24.28-.03.05-.06.09-.07.14-.02.04-.03.09-.05.12Zm2.06-1.6c.1-.03.18-.06.25-.11.07-.04.13-.09.18-.15-.08.03-.14.07-.19.1-.05.03-.1.06-.13.08-.04.03-.08.06-.11.08Zm-.8-.02v-.02s.05-.05.07-.1c.03-.04.06-.09.09-.15.03-.05.07-.11.11-.17.04-.06.07-.11.11-.16.03-.05.06-.1.09-.13.02-.04.04-.07.05-.08,0,0,0-.01.01-.02,0,0,.01-.01.02-.02,0,0,.02-.02.02-.02,0,0,0,0,.01,0,0,0,0,0,.02-.01,0,0,.01,0,.02,0,0,0,.01,0,.02,0,.03-.01.06-.02.1-.04.04-.01.08-.02.11-.03.03,0,.06,0,.08,0,.02,0,.03.02.02.05,0,.01-.01.02-.02.03,0,0-.02.02-.02.03h0s-.07.1-.1.15c-.03.04-.07.09-.1.15-.04.05-.08.11-.11.16.09-.07.18-.13.26-.19.08-.06.16-.11.24-.16.07-.05.14-.09.2-.12.06-.03.12-.05.16-.06.06-.01.11,0,.16.02.04.02.07.06.09.12.02.06.03.15.01.27,0,0,0,.01,0,.02s0,.01,0,.02c0,0,0,.01,0,.02s0,.01,0,.02c.04,0,.07-.02.11-.02.04,0,.07-.01.11-.02.08-.01.17-.02.26-.03.05,0,.11,0,.16,0,.01-.01.03-.02.04-.03.05-.03.08-.05.08-.06,0,0,0,0,0,0,.01-.04.03-.07.05-.11.02-.03.04-.06.06-.08.02-.02.04-.04.05-.06.02-.02.03-.03.04-.04.02-.02.05-.04.08-.05.03-.02.07-.03.1-.04.04,0,.07-.01.11-.01s.07,0,.1.02c.02.01.04.03.06.04.02.02.04.04.05.07,0,0,0,.02,0,.02,0,0,0,.02,0,.02,0,.03.01.07.02.11,0,.04,0,.09-.01.15,0,0,0,0,0,0-.01.06-.03.12-.05.16-.02.05-.03.08-.05.11-.01.02-.02.03-.02.03,0,0,0,0,0,0h0s.04,0,.05-.01c.02,0,.04-.01.05-.02.06-.02.12-.05.18-.08.06-.03.11-.06.15-.09.03-.02.05-.03.08-.05.01-.01.03-.02.04-.04.11-.09.2-.17.26-.23-.04-.03-.07-.06-.08-.1-.02-.04-.02-.09-.02-.14,0-.04,0-.08.03-.12.02-.03.04-.06.06-.09.03-.03.06-.06.09-.08.03,0,.06.01.08.02.02.01.04.03.06.04.02.02.03.04.04.07h0s0,.01,0,.02c0,0,0,0-.01.01-.03.02-.05.06-.07.09-.01.02-.02.04-.03.06,0,.02,0,.04,0,.06,0,0,0,0,0,.01.01.05.04.07.07.06.02,0,.03,0,.05-.01.02,0,.03-.01.05-.02.1-.04.18-.05.24-.04.02,0,.04.01.06.02.02,0,.04.03.06.05.03.04.04.09.02.15-.02.06-.05.13-.1.19-.04.07-.1.14-.15.2-.06.07-.11.13-.15.18-.04.06-.07.1-.08.14-.01.04,0,.06.05.06.04,0,.1,0,.15-.02s.12-.04.18-.07c.06-.03.13-.06.19-.1.07-.04.13-.08.19-.12.15-.09.3-.2.45-.33h.13c-.18.15-.35.28-.52.39-.07.05-.15.09-.23.14-.08.04-.16.08-.23.12-.08.03-.15.06-.23.07-.07.02-.14.02-.2.01-.08,0-.12-.03-.14-.07-.02-.04-.03-.09-.01-.15.01-.06.04-.12.07-.18.04-.06.07-.13.11-.18.04-.06.08-.11.11-.16.04-.05.06-.08.07-.1,0,0,0-.02.01-.03,0-.02,0-.03,0-.04,0,0-.01-.01-.03-.01-.01,0-.03,0-.04,0-.05.01-.09.02-.11.02-.03,0-.04,0-.06,0,0,0,0,0,0,0,0,0,0,0,0,0-.02.02-.03.03-.04.05-.01.01-.02.03-.04.04-.01.01-.02.02-.04.03-.01.01-.03.02-.04.03-.02,0-.03.02-.05.04-.04.03-.08.06-.12.09-.04.03-.08.05-.11.08-.04.03-.08.05-.12.07h-.01c-.05.02-.11.05-.17.08-.09.05-.19.08-.29.1,0,0-.02,0-.02,0-.05.06-.12.12-.19.18-.08.06-.17.11-.28.16-.01,0-.02.01-.04.01-.01,0-.02,0-.03.01-.05.01-.09.02-.12.02-.03,0-.06,0-.08,0-.03,0-.05-.01-.07-.02-.02-.01-.03-.03-.04-.04-.01-.01-.02-.03-.03-.04-.03-.04-.04-.1-.03-.16,0-.03,0-.06.02-.1.02-.06.04-.11.07-.16.03-.05.06-.1.1-.15.02-.03.05-.06.07-.08-.05,0-.11.02-.16.02-.17.03-.33.06-.46.1-.04.09-.09.17-.16.24-.07.06-.15.12-.23.16-.08.04-.17.07-.26.09-.09.02-.16.03-.23.03-.05-.01-.08-.03-.08-.06,0-.03-.01-.05-.01-.07,0,0,0-.02.01-.02.05-.04.11-.09.2-.15.08-.05.19-.11.32-.16.02,0,.04-.02.06-.02.02,0,.04-.01.06-.02.01-.02.02-.03.03-.05,0-.02.02-.03.02-.05.02-.05.04-.09.05-.14.01-.04.02-.08.02-.12,0-.04.01-.07.01-.11-.15.07-.31.16-.48.27-.17.11-.34.24-.52.38-.03.02-.05.04-.08.06-.02.02-.05.04-.08.06l-.05.07c-.05.07-.1.14-.14.21-.04.07-.08.12-.11.16-.13.2-.26.39-.4.58-.14.19-.28.35-.41.48-.03.03-.06.06-.11.11-.04.04-.09.08-.14.13-.05.04-.09.08-.13.11-.04.03-.07.05-.1.05-.03,0-.05,0-.07-.02-.02-.02-.02-.03-.03-.03,0,0,0-.01,0-.02,0,0,0-.01-.01-.02h0s0-.04,0-.07c0-.04,0-.09.01-.15.01-.06.03-.12.07-.2.03-.07.09-.15.16-.23.04-.04.09-.1.16-.16.07-.06.14-.13.23-.21.03-.03.07-.06.1-.1.04-.03.07-.07.11-.1.07-.06.14-.13.22-.2.08-.07.16-.14.24-.21l.04-.05.04-.07Zm16.79-.74s-.02-.03,0-.06c.02-.04.04-.08.07-.12.03-.04.05-.09.08-.13.02-.05.03-.08.03-.11,0,0,0,0,0-.01,0-.01.02-.02.04-.04.02-.01.05-.03.1-.05.05-.02.09-.03.13-.04.04,0,.07,0,.08.04.02.03,0,.08-.04.17-.03.06-.07.12-.12.17-.05.05-.09.11-.14.19-.04,0-.07,0-.1,0-.03,0-.05,0-.08,0-.02,0-.04,0-.05,0Zm2.52-1.31s0-.06-.04-.04c-.04.02-.1.06-.17.13-.07.06-.16.14-.25.23-.09.09-.18.18-.26.26-.08.09-.15.16-.22.23-.06.07-.1.11-.11.13.18-.11.34-.23.49-.34.06-.05.13-.1.19-.15.06-.05.12-.11.17-.16.05-.05.1-.1.13-.15.04-.05.06-.1.08-.14Zm-5.93,2.03s-.04-.03-.06-.05c-.02-.02-.05-.04-.07-.07-.02-.03-.03-.06-.04-.09,0-.02,0-.05.01-.07-.05.03-.09.06-.14.09-.07.04-.13.09-.2.13-.07.04-.13.08-.2.11-.06.03-.13.06-.18.07-.06.02-.11.02-.15.02-.07,0-.13-.02-.18-.05-.05-.02-.09-.06-.13-.1-.04-.04-.06-.11-.07-.19,0-.06,0-.11,0-.16,0-.05.01-.1.02-.13,0-.04.02-.08.03-.12-.17.13-.32.25-.46.36-.06.04-.12.09-.18.13-.06.04-.12.08-.17.11-.05.03-.1.06-.13.08-.04.02-.07.03-.08.03-.1,0-.16-.02-.2-.06-.02.01-.04.03-.06.04-.19.14-.38.26-.58.39-.19.12-.39.23-.6.31-.21.08-.42.14-.64.18-.22.03-.45.03-.69-.01-.05,0-.1-.02-.14-.03-.04-.01-.09-.02-.13-.04-.16-.06-.28-.13-.37-.22s-.16-.19-.2-.29c-.04-.1-.07-.21-.08-.32,0-.11,0-.21,0-.31.01-.1.03-.18.05-.26.02-.08.04-.13.05-.17.04-.12.09-.24.14-.35.05-.11.1-.2.15-.28.05-.09.11-.18.17-.27.18-.26.36-.48.53-.67.17-.19.34-.35.51-.49.16-.14.32-.25.47-.34.15-.09.29-.16.42-.22.3-.12.59-.18.85-.17.07,0,.13.02.18.05.05.02.09.06.14.1.04.05.08.11.1.19,0,.02,0,.05.01.07,0,.02,0,.05,0,.08s0,.06,0,.09c-.01.02-.03.03-.04.05-.01.01-.03.03-.05.04-.02.01-.05.02-.08.03h0s0,0-.01-.02c0,0,0-.01,0-.02,0-.02,0-.04-.01-.07,0-.02,0-.04-.01-.06,0-.02-.01-.04-.02-.06,0,0,0,0,0,0h0c-.02-.05-.04-.09-.07-.12-.03-.03-.06-.05-.09-.07-.03-.01-.06-.02-.09-.03-.03,0-.05,0-.07,0-.08,0-.21.02-.37.07-.16.05-.35.14-.56.28-.21.13-.44.31-.68.53-.24.22-.48.49-.71.82-.23.32-.4.63-.51.91-.11.28-.15.53-.12.74.03.21.13.38.3.5.17.12.42.19.75.19.27,0,.52-.04.77-.13.24-.09.48-.2.7-.34.22-.14.44-.29.65-.46.05-.04.09-.08.14-.11.02-.02.05-.05.08-.08.05-.05.11-.1.19-.16.07-.06.15-.12.23-.18.08-.06.17-.12.25-.17.08-.05.17-.1.25-.14.08-.04.15-.07.21-.08.06,0,.11,0,.16,0,.04.01.08.04.12.07.04.04.07.1.08.18,0,0,0,0,0,.01,0,0,0,0-.01,0,0-.02-.02-.03-.04-.05-.02-.02-.04-.04-.07-.05-.03-.01-.06-.02-.09-.02-.03,0-.07,0-.11.03-.04.02-.08.05-.15.09-.06.04-.13.09-.2.14-.07.05-.15.11-.22.17-.08.06-.15.11-.21.17-.06.06-.11.11-.15.15-.04.05-.06.08-.05.11,0,0,.03-.01.05-.02.02-.01.05-.03.09-.06.04-.02.09-.06.15-.11.06-.05.13-.1.21-.16.08-.06.15-.12.22-.17.07-.05.13-.1.19-.14.06-.04.09-.06.11-.07.06-.01.11,0,.15.03h0s.04.06.04.09c0,.03,0,.07-.01.1-.01.03-.03.07-.04.14-.02.07-.02.13-.03.2,0,.07,0,.13.02.18.02.05.06.08.11.07.04,0,.1-.01.16-.04.06-.02.13-.05.19-.09.07-.03.14-.07.2-.11.07-.04.13-.08.19-.12.06-.04.12-.08.17-.11l.02-.02s.05-.08.08-.11c.03-.05.06-.09.09-.13.03-.04.04-.07.05-.1,0-.01.01-.03.02-.04.01-.02.03-.02.05-.01.01,0,.03.02.05.04.02.01.04.03.06.05.02.02.03.04.04.07,0,.03,0,.05-.01.07-.02.03-.05.06-.08.1-.03.04-.06.07-.09.1-.03.03-.05.06-.07.09-.02.03-.04.05-.04.07.15-.14.29-.26.43-.36.06-.04.12-.09.18-.13.06-.04.12-.07.18-.1.06-.03.11-.05.16-.06.05-.01.09-.02.13,0,.07.02.11.06.13.13.02.07.01.14-.01.23-.02.09-.06.18-.12.28-.06.1-.12.19-.19.27.05-.05.11-.1.18-.16.06-.05.12-.1.2-.16.08-.06.16-.12.24-.18.08-.06.16-.11.24-.16.08-.05.15-.09.22-.13.07-.04.14-.06.2-.08.06-.02.11-.02.16-.01.02,0,.04.01.06.02.02,0,.04.03.06.05.03.04.04.09.02.15-.02.06-.05.13-.1.19-.04.07-.1.14-.15.2-.06.07-.11.13-.15.18-.04.06-.07.1-.08.14-.01.04,0,.06.05.06.04,0,.1,0,.15-.02.06-.02.12-.04.18-.07.06-.03.13-.06.19-.1.07-.04.13-.08.19-.12.07-.05.15-.1.23-.16.04-.06.08-.11.12-.15,0-.01.04-.03.08-.04.04-.02.09-.03.13-.05.05-.01.09-.02.12-.01.03,0,.04.02.04.05-.05.07-.1.14-.17.22-.06.08-.12.15-.17.21-.05.06-.08.12-.1.17-.02.05,0,.07.05.07.04,0,.1,0,.15-.02.06-.02.12-.04.18-.07.06-.03.13-.06.19-.1.07-.04.13-.08.19-.12.11-.07.22-.15.33-.24h0c.01-.06.03-.12.05-.17.05-.12.12-.24.2-.36.08-.11.15-.21.22-.29.01-.01.02-.03.03-.04,0-.01.02-.02.03-.03.13-.14.27-.29.43-.43.16-.14.33-.27.51-.4.03-.02.06-.03.08-.04.02,0,.05-.01.07-.02.02,0,.05,0,.07.01.01,0,.03.02.05.05.02.02.03.06.03.11,0,.05-.02.1-.05.17-.03.07-.1.14-.18.23-.09.09-.21.19-.37.31-.16.12-.36.24-.61.39l-.06.07s-.05.07-.08.11c-.03.04-.06.09-.08.14-.03.05-.05.1-.07.16-.02.06-.04.11-.05.17,0,.02,0,.03,0,.05,0,.02,0,.03,0,.05,0,.07.01.13.04.18h0s.03.03.04.04c.02,0,.04.01.06.01.04,0,.1-.01.16-.04.06-.02.13-.05.19-.09.07-.03.14-.07.2-.11h.01s.05-.06.09-.1c.05-.05.11-.1.19-.16.07-.06.15-.12.23-.18.08-.06.17-.12.25-.17.08-.05.17-.1.25-.14.08-.04.15-.07.21-.08.06,0,.11,0,.16,0,.04.01.08.04.12.07.04.04.07.1.08.18,0,0,0,0,0,.01,0,0,0,0-.01,0,0-.02-.02-.03-.04-.05-.02-.02-.04-.04-.07-.05-.03-.01-.06-.02-.09-.02-.03,0-.07,0-.11.03-.04.02-.08.05-.15.09-.06.04-.13.09-.2.14-.07.05-.15.11-.22.17-.08.06-.15.11-.21.17-.06.06-.11.11-.15.15-.04.05-.06.08-.05.11,0,0,.03-.01.05-.02.02-.01.05-.03.09-.06.04-.02.09-.06.15-.11.06-.05.13-.1.21-.16.08-.06.15-.12.22-.17.07-.05.13-.1.19-.14.06-.04.09-.06.11-.07.06-.01.11,0,.15.03h0s.04.06.04.09c0,.03,0,.07-.01.1-.01.03-.03.07-.04.14-.02.07-.02.13-.03.2,0,.07,0,.13.02.18.02.05.06.08.11.07.04,0,.1-.01.16-.04.06-.02.13-.05.19-.09.07-.03.14-.07.2-.11.07-.04.13-.08.19-.12.06-.04.12-.08.17-.11.05-.03.09-.06.12-.08h.12c-.17.13-.33.25-.48.35-.07.04-.13.09-.2.13-.07.04-.13.08-.2.11-.06.03-.13.06-.18.07-.06.02-.11.02-.15.02-.07,0-.13-.02-.18-.05-.05-.02-.09-.06-.13-.1-.04-.04-.06-.11-.07-.19,0-.06,0-.11,0-.16s.01-.1.02-.13c0-.04.02-.08.03-.12-.17.13-.32.25-.46.36-.06.04-.12.09-.18.13-.06.04-.12.08-.17.11-.05.03-.1.06-.13.08-.04.02-.07.03-.08.03-.12,0-.19-.03-.22-.09-.01-.03-.02-.05-.01-.08-.04.02-.08.04-.11.07-.06.03-.12.06-.17.09-.06.03-.11.04-.16.05h-.01c-.08.02-.15.02-.23-.01,0,0-.02-.01-.03-.02,0,0-.02-.01-.03-.02-.05-.05-.09-.11-.11-.17,0-.02-.01-.04-.01-.06,0-.02,0-.04,0-.06,0-.03,0-.06,0-.08,0-.01,0-.03,0-.04-.09.07-.17.13-.26.18-.07.05-.15.09-.23.14-.08.04-.16.08-.24.12-.08.03-.15.06-.23.07-.07.02-.14.02-.2.01-.09-.01-.14-.04-.16-.1-.01-.06,0-.12.02-.19.01-.03.02-.05.04-.08-.01,0-.03.02-.04.03-.07.05-.15.09-.23.14-.08.04-.16.08-.24.12-.08.03-.15.06-.23.07-.07.02-.14.02-.2.01-.08,0-.12-.03-.14-.07-.02-.04-.03-.09-.01-.15.01-.06.04-.12.07-.18.04-.06.07-.13.11-.18.04-.06.08-.11.11-.16.03-.05.06-.08.07-.1.01-.02.02-.04.02-.06,0,0,0,0-.03-.02-.02-.01-.06,0-.11.02-.06.02-.14.07-.25.15-.11.08-.26.21-.44.39-.14.13-.25.24-.34.33-.09.09-.16.16-.22.22-.06.06-.1.1-.12.13-.03.03-.04.05-.05.07-.01.01-.02.02-.04.01-.01,0-.03-.02-.05-.03-.02-.01-.04-.03-.05-.06-.01-.02-.02-.05-.02-.08,0-.03,0-.06.04-.1.12-.17.23-.33.33-.48.04-.06.08-.13.11-.19.04-.06.07-.13.1-.18.03-.06.05-.11.06-.16.01-.05.02-.09,0-.12,0-.03-.04-.04-.09-.02-.05.02-.11.05-.19.1-.07.05-.15.11-.24.18-.09.07-.17.14-.25.21-.08.07-.15.13-.21.19-.06.06-.11.1-.14.13-.01.01-.02.02-.03.02s-.01,0-.02,0Zm13.48.43c-.07-.07-.14-.15-.22-.24-.08-.09-.15-.17-.22-.25-.07-.08-.13-.15-.19-.21-.05-.06-.09-.1-.11-.13-.01,0-.02,0-.03-.02,0-.01-.01-.03-.02-.05-.01-.03-.02-.05-.01-.07,0-.02.01-.04.02-.06.01-.02.03-.03.05-.05.02-.02.05-.03.09-.02,0,0,0,0,0,0,0,0,0,0,0,0h.02s.03,0,.05,0c.02,0,.04,0,.05,0h.02c.13-.01.26-.03.37-.05.11-.02.21-.04.31-.05.03,0,.06,0,.1-.01.04,0,.08-.01.12-.02.04,0,.08-.01.13-.02.04,0,.08-.01.12-.02.21-.05.38-.11.51-.17.13-.07.21-.12.26-.15.1-.08.19-.16.27-.24.08-.09.14-.17.19-.25.05-.09.1-.18.14-.27.08-.19.14-.37.17-.54.01-.07.02-.14.03-.22,0-.07,0-.14,0-.2-.01-.06-.03-.12-.06-.17-.03-.05-.08-.09-.13-.12-.08-.03-.17-.03-.29,0-.12.03-.26.09-.41.17-.15.08-.31.19-.49.32-.17.13-.35.28-.53.44-.26.23-.51.48-.76.75-.25.27-.49.54-.72.82-.2.27-.43.56-.68.88l-.03.04s-.02.03-.04.05c-.01.02-.03.03-.04.05-.02.03-.05.06-.09.1-.03.04-.07.08-.1.11-.04.03-.07.06-.1.09-.03.02-.06.04-.08.04,0,0-.02,0-.02-.01,0,0-.01-.02-.02-.05-.01-.02-.02-.05-.02-.09,0-.03,0-.07,0-.1,0-.04.02-.07.05-.11.04-.04.1-.1.18-.2.08-.1.18-.21.29-.34.11-.13.23-.28.36-.43.13-.16.25-.31.37-.47.12-.16.23-.31.33-.46.1-.15.18-.28.24-.39.09-.17.17-.34.23-.5.06-.16.1-.31.13-.44.03-.14.03-.26.02-.36,0-.1-.04-.19-.08-.26-.04-.06-.13-.1-.28-.12-.14-.02-.32-.02-.54.02-.22.03-.47.1-.75.19-.28.1-.58.23-.9.41-.07.04-.13.08-.2.12-.06.04-.12.08-.18.12-.06.04-.12.08-.19.12-.07.04-.13.08-.19.12-.06.04-.11.07-.16.1-.05.03-.08.05-.1.07-.03.02-.04.03-.06.03-.01,0-.02,0-.02,0,0,0,0-.01,0-.02.01-.06.04-.12.07-.18.04-.06.07-.11.12-.16.04-.05.09-.09.13-.13.04-.04.08-.07.11-.1.25-.18.54-.34.87-.5.33-.15.71-.28,1.14-.38.04,0,.09-.02.15-.03.06,0,.13-.02.2-.02.07,0,.15,0,.22,0,.08,0,.15.01.22.03.09.03.18.07.26.13.08.06.16.14.21.24.05.1.09.2.11.32.02.12.01.26-.02.41-.03.16-.09.33-.17.53-.08.2-.2.42-.36.67l.27-.3c.2-.21.4-.41.61-.61.21-.2.41-.37.62-.52.2-.15.4-.26.59-.34.19-.08.37-.1.54-.07.14.03.25.11.32.22.03.05.06.11.08.17.02.07.04.15.04.25,0,.1,0,.21-.02.33-.02.12-.06.27-.11.43-.03.07-.06.14-.09.21-.03.07-.07.13-.11.2-.01.02-.04.06-.07.11-.04.05-.08.11-.14.18-.06.07-.13.14-.22.21-.08.07-.18.14-.3.2-.07.03-.15.07-.26.12-.11.04-.22.08-.34.11-.05.01-.11.03-.17.04-.06.01-.13.02-.19.03-.07,0-.13.02-.19.02-.06,0-.12.01-.17.02h0s-.04,0-.06,0c-.02,0-.03,0-.03,0-.09,0-.17.02-.23.03-.06,0-.12.02-.17.03.07.07.14.17.24.28.09.12.2.26.33.44l.08.11c.12.15.22.27.32.37.1.1.2.2.3.29.1.09.18.16.25.2.07.04.13.07.17.08.05,0,.08,0,.11-.01.03-.02.05-.04.06-.06.02-.03.03-.05.04-.08,0-.03.02-.05.02-.06.02-.03.03-.04.04-.03,0,0,0,.01.01.03-.03.09-.07.16-.12.2-.05.04-.1.06-.16.07-.06,0-.11,0-.17-.02-.06-.02-.12-.05-.17-.08-.05-.03-.09-.05-.12-.08-.03-.02-.06-.05-.09-.07-.03-.02-.05-.05-.08-.08-.02-.03-.05-.06-.08-.09-.04-.03-.07-.07-.1-.1-.03-.03-.06-.06-.08-.1-.03-.03-.06-.07-.09-.1-.03-.04-.06-.07-.1-.12-.08-.09-.15-.18-.22-.26-.06-.08-.12-.15-.17-.2-.05-.07-.1-.13-.14-.18,0,.02.01.07.06.13.04.06.09.14.16.21.06.08.12.15.19.23.06.08.11.14.15.19.05.06.1.12.16.18.05.07.11.14.16.23l-.56-.62Zm13.78-.74c-.19.07-.33.14-.41.22-.09.08-.14.14-.16.2-.02.06,0,.1.04.12.04.02.09.02.16-.02.07-.04.13-.11.2-.2.06-.1.12-.2.18-.32Zm-1.34-.22s0,0-.01.01c0,0,0,0,0,0h0s.06,0,.06,0c.06-.02.12-.04.17-.07.05-.03.09-.05.1-.06,0,0,.02-.02.02-.04v-.02s0-.03-.03-.03c-.03,0-.06.02-.11.05-.03.02-.06.04-.09.06-.03.02-.06.05-.1.08,0,0,0,0,0,0h0Zm-3.94-.11c-.07.05-.15.11-.22.16-.07.06-.14.11-.2.16-.06.05-.11.1-.14.15-.04.04-.05.08-.05.11,0,0,.03,0,.05,0,.02,0,.05-.02.09-.04.04-.02.09-.06.16-.1.05-.03.1-.07.16-.11.06-.04.11-.08.17-.13.06-.05.11-.09.16-.14.05-.05.1-.09.14-.14,0,0,.02-.02.03-.04.02-.02.02-.04.02-.06,0-.02-.02-.02-.06,0-.04.02-.08.04-.13.07-.05.03-.09.05-.13.08-.04.02-.06.04-.07.04Zm-1.29,2.29s.05-.05.11-.13c.07-.07.15-.17.25-.29.1-.12.22-.26.34-.43.13-.16.25-.34.38-.52-.09.06-.18.11-.26.17-.08.06-.16.13-.24.19,0,0-.04.04-.11.11-.06.06-.13.14-.2.22-.05.06-.11.12-.15.18-.05.06-.09.12-.11.17,0,.02-.02.06-.03.11-.01.05,0,.12.01.2Zm-1.48-3.69s0-.06-.04-.04c-.04.02-.1.06-.17.13-.07.06-.16.14-.25.23-.09.09-.18.18-.26.26-.08.09-.15.16-.22.23-.06.07-.1.11-.11.13.18-.11.34-.23.49-.34.06-.05.13-.1.19-.15.06-.05.12-.11.17-.16.05-.05.1-.1.13-.15.04-.05.06-.1.08-.14Zm-2.02,1.39c-.07.05-.14.11-.22.16-.07.06-.14.11-.2.16-.06.05-.1.1-.14.15-.04.04-.05.08-.05.11,0,0,.03-.01.05-.02.02-.01.05-.03.09-.06.04-.02.09-.06.16-.11.05-.04.1-.08.16-.12.06-.05.12-.09.17-.14.06-.05.11-.09.16-.13.05-.04.1-.07.13-.1,0,0,.02-.02.03-.03.02-.01.02-.03.02-.06,0-.02-.02-.02-.06,0-.04.02-.08.04-.13.07-.05.03-.09.05-.13.08-.04.02-.06.04-.07.04Zm-1.48-.1s-.02.03-.03.04c0,.01-.02.03-.02.04.03,0,.07,0,.11.01h0s.02,0,.02.02c0,.01,0,.03.02.04,0,.02,0,.04,0,.06,0,0,0,.01,0,.02,0,0,0,.02,0,.02,0,.01-.02.02-.02.02h-.02s-.02,0-.03,0c-.03,0-.07.02-.11.04,0,.01,0,.02,0,.03,0,0,0,.01.01.02,0,0,0,.01.01.01,0,0,0,0,0,.01,0,0,0,0,0,.01,0,0,.01.01.02.02,0,0,.01.01.02.02.03.02.07.04.11.05.04.01.08.02.13.02.03-.04.06-.09.08-.13.02-.04.03-.09.04-.13.03-.1.03-.17.03-.22,0-.05-.01-.09-.02-.1-.01-.03-.03-.05-.05-.06-.02-.01-.05-.02-.09-.01-.03,0-.07.02-.11.04-.04.02-.08.06-.12.1Zm-.32.61s-.03.08-.04.11c0,.02,0,.03,0,.05s0,.03,0,.04c0,.02.02.03.04.04.01,0,.03.01.06.01s.06,0,.1-.03c.03-.01.05-.02.08-.04.03-.02.06-.03.09-.05.05-.04.1-.07.13-.1-.1,0-.19-.04-.26-.11-.03-.03-.06-.07-.08-.11,0,0,0,.01-.01.02,0,0,0,.01-.01.02,0,0-.01.01-.02.02,0,.01-.02.02-.02.04,0,.02-.02.03-.03.05,0,.02-.01.03-.02.05Zm-.27.29s-.04-.1-.03-.16c0-.03,0-.06.02-.1.02-.06.04-.11.07-.16.03-.05.06-.1.1-.15.05-.06.1-.11.14-.15.05-.03.08-.05.08-.06,0,0,0,0,0,0,.01-.04.03-.07.05-.11.02-.03.04-.06.06-.08.02-.02.04-.04.05-.06.02-.02.03-.03.04-.04.02-.02.05-.04.08-.05.03-.02.07-.03.1-.04.04,0,.07-.01.11-.01s.07,0,.1.02c.02.01.04.03.06.04.02.02.04.04.05.07,0,0,0,.02,0,.02,0,0,0,.02,0,.02,0,.03.01.07.02.11,0,.04,0,.09-.01.15,0,0,0,0,0,0-.01.06-.03.12-.05.16-.02.05-.03.08-.05.11-.01.02-.02.03-.02.03,0,0,0,0,0,0h0s.04,0,.05-.01c.02,0,.04-.01.05-.02.06-.02.12-.05.18-.08.06-.03.11-.06.15-.09.05-.03.1-.06.15-.1h0c.06-.06.13-.11.2-.17.01-.01.04-.03.07-.05.03-.02.06-.04.1-.06.04-.03.1-.06.17-.09.07-.03.13-.06.2-.08.06-.02.12-.03.18-.02.05,0,.09.03.11.08,0-.01.02-.03.03-.04,0-.01.02-.02.03-.04.15-.19.32-.39.53-.59.2-.2.43-.39.68-.56.03-.02.06-.03.08-.04.02,0,.05-.01.07-.02.03,0,.05,0,.07.01.01,0,.03.02.05.05.02.02.03.06.03.11,0,.05-.02.1-.05.17-.03.07-.1.14-.19.23-.09.09-.21.19-.37.31-.16.12-.36.24-.61.39l-.14.17s-.03.04-.06.08c-.03.03-.06.07-.09.12-.03.04-.06.09-.09.14-.03.05-.05.09-.07.13-.01.03-.02.06-.04.1-.01.04-.02.07-.03.11-.01.09,0,.16.02.21.03.06.07.08.14.08.04,0,.1-.02.17-.05.07-.03.14-.07.22-.12.08-.05.16-.1.24-.15.08-.06.16-.11.23-.16.18-.15.37-.28.54-.45-.04-.03-.07-.06-.08-.1-.02-.04-.02-.09-.02-.14,0-.04,0-.08.03-.12.02-.03.04-.06.06-.09.03-.03.06-.06.09-.08.03,0,.06.01.08.02.02.01.04.03.06.04.02.02.03.04.04.07h0s0,.01,0,.02c0,0,0,0-.01.01-.03.02-.05.06-.07.09-.01.02-.02.04-.03.06,0,.02,0,.04,0,.06,0,0,0,0,0,.01.01.05.04.07.07.06.02,0,.03,0,.05-.01.02,0,.03-.01.05-.02.1-.04.18-.05.24-.04.02,0,.04.01.06.02.02,0,.04.03.06.05.03.04.04.09.02.15-.02.06-.05.13-.1.19-.04.07-.1.14-.15.2-.06.07-.11.13-.15.18-.04.06-.07.1-.08.14-.01.04,0,.06.05.06.04,0,.1,0,.15-.02s.12-.04.18-.07c.06-.03.13-.06.19-.1.07-.04.13-.08.19-.12.07-.05.15-.1.23-.16.04-.06.08-.11.12-.15,0-.01.04-.03.08-.04.04-.02.09-.03.13-.05.05-.01.09-.02.12-.01.03,0,.04.02.04.05-.05.07-.1.14-.17.22-.06.08-.12.15-.17.21-.05.06-.08.12-.1.17-.02.05,0,.07.05.07.04,0,.1,0,.15-.02.06-.02.12-.04.18-.07.06-.03.13-.06.19-.1.07-.04.13-.08.19-.12.03-.02.05-.03.08-.05,0-.02.02-.03.03-.05.03-.04.08-.1.16-.17.08-.07.16-.15.26-.23.02-.01.04-.03.07-.05.03-.02.06-.04.09-.06.04-.03.1-.06.17-.09s.13-.06.2-.08c.06-.02.12-.03.18-.03.05,0,.09.03.12.07,0-.01.01-.03.02-.04,0-.01.01-.03.02-.04,0,0,0-.01.02-.01.01,0,.03,0,.06.01,0,0,.02.01.04.02.02.01.03.02.04.04.01.01.02.03.03.04,0,.02,0,.03,0,.04-.02.04-.04.08-.07.13-.03.05-.06.12-.1.19-.02.04-.05.09-.07.13-.02.05-.05.1-.08.15-.02.03-.04.06-.06.1-.02.03-.04.07-.06.1.01,0,.02-.01.03-.01,0,0,.02,0,.03-.01.15-.06.3-.11.44-.16.14-.05.27-.09.39-.12.12-.03.22-.06.31-.08.03,0,.05-.01.07-.02l.05-.07c.04-.05.08-.1.12-.15.04-.04.07-.08.1-.11.03-.03.05-.05.06-.07,0,0,.01,0,.02-.01,0,0,.02-.01.03-.02.07-.01.13-.02.16-.01.03,0,.06,0,.09,0,0,0,.01,0,.02.01,0,0,0,.01,0,.03-.09.09-.19.19-.29.31-.1.12-.19.23-.28.35,0,.01-.01.03-.02.04,0,0-.01.02-.02.03-.02.04-.04.08-.04.1,0,.03,0,.05,0,.06,0,.02.01.03.03.05,0,0,.02,0,.03,0,.06,0,.15-.04.25-.11.1-.07.2-.14.31-.23.11-.09.21-.18.31-.27.1-.09.18-.17.24-.22.03-.03.06-.06.07-.07.01-.02.03-.04.04-.06.02-.02.03-.03.04-.03.02,0,.04,0,.07,0,.03,0,.05,0,.07,0,.02,0,.04.02.05.04.01.02.02.05.01.08-.03.06-.07.13-.12.21-.05.08-.11.16-.17.24-.06.08-.13.16-.19.24-.06.08-.12.15-.16.21-.04.06-.07.11-.08.15-.01.04,0,.06.04.06.04,0,.1,0,.16-.02.06-.02.13-.05.2-.08.07-.04.14-.08.22-.12.08-.05.15-.1.22-.15.09-.07.19-.14.28-.22,0,0,0-.01.01-.02.04-.06.08-.12.12-.17.05-.05.09-.1.13-.14.04-.04.08-.07.1-.08,0,0,.01,0,.02-.01,0,0,.02-.01.03-.02.04-.02.08-.04.12-.06.04-.02.08-.03.11-.04.03,0,.05,0,.08,0s.04,0,.06.02c.04.03.07.06.08.1.01.03.01.06,0,.1,0,0,0,.01,0,.02,0,0,0,.02-.01.03-.04.06-.09.1-.16.13-.07.03-.14.05-.21.06-.02,0-.04,0-.06.01-.02,0-.04,0-.06,0-.01,0-.02,0-.03,0s-.02,0-.03,0c0,.01-.02.03-.03.05-.01.02-.03.05-.04.07-.01.02-.02.05-.03.07-.01.02-.02.04-.02.05,0,0,0,.02,0,.04s0,.04.02.06c0,.02.02.04.04.05.02.02.05.02.09.02,0,0,.02,0,.03,0,.01,0,.02,0,.04,0,.07-.01.16-.04.25-.09.1-.05.19-.1.29-.16.09-.06.18-.11.26-.17.04-.03.08-.05.11-.07h0c.21-.17.39-.32.53-.44.14-.12.22-.2.26-.23,0-.02.02-.03.03-.05.02-.02.05-.04.09-.04.04,0,.08,0,.12,0,.04,0,.09,0,.14.02-.02,0-.04.02-.07.05-.02.03-.05.06-.07.1-.03.04-.05.09-.08.15-.03.08-.05.16-.08.23-.02.07-.05.14-.08.21.09-.01.17-.02.25-.02.08,0,.14,0,.2-.01.07,0,.13,0,.19,0h.24c-.19.01-.35.03-.5.05-.15.02-.29.05-.41.08-.08.18-.15.33-.23.45-.08.12-.15.21-.22.28-.07.06-.14.1-.2.12-.06.02-.12.01-.17-.01-.06-.03-.11-.06-.14-.1-.03-.04-.05-.07-.06-.11-.01-.04-.02-.08-.02-.12.02-.07.06-.14.11-.2.05-.06.11-.11.18-.15.07-.04.15-.08.23-.11.09-.03.17-.06.26-.08.04-.09.08-.19.11-.28.03-.09.06-.17.09-.24-.11.1-.21.19-.32.27-.08.06-.14.11-.2.16h.01c-.13.1-.26.2-.39.29-.11.07-.23.15-.35.22-.12.07-.23.12-.33.15-.07.02-.13.03-.18.03s-.09,0-.12-.02c-.04-.01-.07-.03-.1-.05-.03-.03-.05-.06-.07-.1-.02-.04-.03-.09-.03-.15-.05.04-.1.08-.15.12-.08.06-.16.11-.25.17-.09.05-.17.1-.26.14-.09.04-.17.07-.26.09-.08.02-.16.02-.23.01-.08-.01-.12-.05-.12-.11,0-.06,0-.13.04-.22.04-.09.08-.18.15-.28.06-.1.13-.19.19-.28-.07.07-.14.14-.22.21-.08.08-.17.15-.25.21-.08.07-.17.12-.25.16-.08.04-.16.07-.23.07h-.04s-.03,0-.04,0c-.04,0-.08-.02-.1-.03-.03-.02-.04-.04-.06-.06-.01-.02-.02-.05-.02-.08s0-.06,0-.09c0-.03.02-.07.03-.1.01-.03.03-.06.05-.09.02-.03.03-.05.05-.08-.08.02-.16.04-.25.07-.12.03-.24.07-.38.12-.14.05-.28.1-.43.16-.03.01-.06.02-.11.04-.05.02-.08.03-.1.05-.01.02-.02.03-.03.05,0,.02-.02.03-.03.05-.07.12-.15.24-.22.36-.08.12-.16.24-.24.35-.08.11-.17.22-.25.33-.08.1-.17.19-.25.28-.03.03-.06.06-.11.11-.04.04-.09.08-.14.12-.05.04-.09.08-.13.11-.04.03-.08.05-.1.05-.03,0-.05,0-.07-.02-.02-.02-.02-.03-.03-.04,0-.01-.02-.03-.03-.05-.01-.02-.02-.05-.03-.08,0-.03-.01-.07-.02-.11,0-.04,0-.09.01-.13,0-.04.03-.08.06-.13.03-.05.07-.11.11-.17.04-.06.09-.12.15-.18.06-.06.11-.12.17-.18.06-.06.12-.11.17-.17.06-.05.11-.09.16-.13.08-.07.17-.13.26-.19.09-.06.19-.11.29-.17.04-.06.07-.11.11-.17.04-.06.07-.11.1-.17.04-.06.08-.13.11-.19.04-.07.07-.13.11-.2,0,0,0-.02.01-.02,0,0,0-.02.01-.02-.04.04-.09.09-.17.16-.08.07-.16.15-.25.23-.09.08-.19.15-.28.22-.1.07-.18.11-.26.13-.05.01-.1.01-.13,0-.03-.02-.06-.05-.07-.09,0-.03-.01-.06-.01-.09-.07.05-.15.09-.22.13-.08.04-.16.08-.24.12-.08.03-.15.06-.23.07-.07.02-.14.02-.2.01-.09-.01-.14-.04-.16-.1-.01-.06,0-.12.02-.19.01-.03.02-.05.04-.08-.02.01-.03.02-.05.03-.07.05-.15.09-.23.14-.08.04-.16.08-.23.12-.08.03-.15.06-.23.07-.07.02-.14.02-.2.01-.08,0-.12-.03-.14-.07-.02-.04-.03-.09-.01-.15.01-.06.04-.12.07-.18.04-.06.07-.13.11-.18.04-.06.08-.11.11-.16.04-.05.06-.08.07-.1,0,0,0-.02.01-.03,0-.02,0-.03,0-.04,0,0-.01-.01-.03-.01-.01,0-.03,0-.04,0-.05.01-.09.02-.11.02-.03,0-.04,0-.06,0,0,0,0,0,0,0,0,0,0,0,0,0-.02.02-.03.03-.04.05-.01.01-.02.03-.04.04-.01.01-.02.02-.04.03-.01.01-.03.02-.04.03-.02,0-.03.02-.05.04-.1.08-.21.15-.31.23-.08.07-.17.13-.25.18-.07.05-.15.1-.22.15-.08.05-.15.09-.22.13-.07.04-.14.07-.2.09-.06.02-.12.03-.16.03-.07,0-.13-.02-.18-.04-.05-.02-.09-.05-.13-.09-.04-.04-.06-.11-.07-.19,0-.06,0-.12.02-.18.02-.07.04-.13.07-.19.03-.07.06-.14.1-.2-.14.11-.27.22-.38.31-.05.04-.1.08-.15.11-.05.04-.1.07-.14.1-.04.03-.08.06-.12.08-.03.02-.06.03-.08.04-.05.01-.1.01-.13,0-.03-.02-.06-.04-.07-.08-.01-.03-.01-.07,0-.12,0-.04.03-.08.06-.12-.05.03-.1.06-.16.09-.09.05-.19.08-.29.1,0,0-.02,0-.02,0-.05.06-.12.12-.19.18-.08.06-.17.11-.28.16-.01,0-.02.01-.04.01-.01,0-.02,0-.03.01-.05.01-.09.02-.12.02-.03,0-.06,0-.08,0-.03,0-.05-.01-.07-.02-.02-.01-.03-.03-.04-.04-.01-.01-.02-.03-.03-.04Zm5.54-.88s-.02-.03,0-.06c.02-.04.04-.08.07-.12.03-.04.05-.09.08-.13.02-.05.03-.08.03-.11,0,0,0,0,0-.01,0-.01.02-.02.04-.04.02-.01.05-.03.1-.05.05-.02.09-.03.13-.04.04,0,.07,0,.08.04.02.03,0,.08-.04.17-.03.06-.07.12-.12.17-.05.05-.09.11-.14.19-.04,0-.07,0-.1,0-.03,0-.05,0-.08,0-.02,0-.04,0-.05,0Z"/></clipPath></defs><path class="cls-4" d="m14.77,12.87c-.07-.17-.13-.35-.19-.53-.13-.46-.19-.97-.19-1.53,0-.38.05-.75.14-1.1.09-.35.23-.68.41-.99h0c.18-.31.39-.61.63-.88.24-.28.52-.54.82-.79.28-.23.59-.44.92-.64-.22-1.07-.63-2.05-1.16-2.84-.82-1.22-1.91-1.99-3-1.99-.9,0-1.67.52-2.21,1.34-.59.89-.93,2.14-.93,3.5,0,1.76.52,3.37,1.32,4.55.81,1.2,1.91,1.95,3.02,1.95.15,0,.29-.01.43-.04m-3.05,3.61c.25-.18.35-.38.35-.65,0-.17-.02-.34-.08-.46-.05-.09-.14-.16-.28-.16-.25,0-.53.09-.76.36-.19.23-.35.58-.44,1.1l-.03.34c.59-.18.99-.35,1.24-.53Zm.78.66c-.5.34-1.21.59-2.02.73.04.34.16.76.47,1.06.25.24.62.42,1.17.42.16,0,.39-.02.63-.06.18-.03.37-.08.53-.14l.14-.06.29.5-.12.1c-.32.26-.61.46-.94.61-.33.14-.7.22-1.17.22h0c-.61,0-1.22-.33-1.66-.83-.42-.48-.7-1.12-.7-1.82v-.18c0-.97.26-1.76.73-2.32.47-.55,1.16-.87,2.02-.87h.03c.43,0,.79.13,1.04.35.26.23.41.56.41.95,0,.54-.31.99-.84,1.34Zm-10.63,3.21c-.16.09-.35.16-.52.16-.21,0-.48-.09-.66-.44-.11-.22-.19-.56-.19-1.06v-2.86c0-.33-.03-.53-.08-.66-.05-.11-.12-.17-.21-.23l-.2-.12.17-.16c.15-.14.29-.26.45-.34.16-.08.34-.13.54-.14h.03c.1.01.34.11.49.4.05.09.09.2.11.34.07-.11.15-.21.24-.3.27-.26.62-.44,1.1-.44h.08c.37,0,.77.15,1.09.44.19.17.34.39.46.65.17-.28.36-.52.56-.7.28-.25.58-.39.91-.39h.09c.43,0,.91.2,1.25.61.28.33.47.8.47,1.4v2.55c0,.24.03.41.09.52.05.09.12.14.23.15l.22.03-.09.21c-.05.12-.22.28-.41.39-.16.09-.35.16-.52.16-.29,0-.51-.15-.66-.44-.13-.25-.2-.6-.2-1.06v-2.51c0-.32-.1-.6-.24-.8-.14-.2-.33-.32-.51-.32s-.36.14-.53.33c-.23.27-.41.64-.49.92v2.41c0,.23.03.41.09.52.05.09.13.14.24.15l.26.04-.13.23c-.06.11-.23.26-.42.38-.15.09-.33.15-.5.15-.29,0-.52-.15-.68-.44-.13-.25-.2-.6-.2-1.06v-2.53c0-.31-.1-.58-.24-.78-.14-.2-.33-.32-.51-.32h-.03c-.21,0-.41.16-.56.38-.25.34-.4.8-.4,1v2.29c0,.24.03.41.09.52.05.09.12.14.23.15l.22.03-.09.21c-.05.12-.21.28-.41.39Zm31.53-11.65c-.02-.22-.07-.43-.14-.64-.11-.32-.29-.63-.52-.91h0c-.1-.12-.22-.25-.35-.37h0c-.14-.12-.29-.24-.46-.36h0c-.17-.12-.36-.23-.58-.34-.22-.11-.46-.21-.72-.31-.26-.1-.55-.18-.87-.26-.32-.08-.66-.15-1.03-.21h0c-.37-.06-.77-.1-1.2-.13-.43-.03-.89-.04-1.39-.04s-.97.02-1.43.07c-.46.04-.93.11-1.38.2-.46.09-.89.2-1.31.32-.41.12-.81.26-1.19.42h0c-.15.06-.3.13-.45.2.01.19.02.39.02.59,0,1.92-.5,3.56-1.38,4.81.16.12.34.23.54.35.41.24.88.48,1.41.71.54.23,1.15.46,1.84.67.69.21,1.45.42,2.29.61.76.18,1.5.35,2.21.54.71.18,1.38.37,2.01.56.64.19,1.24.4,1.8.63.56.23,1.07.48,1.53.75.47.27.89.57,1.26.9.37.33.68.68.95,1.07h0c.27.39.47.82.6,1.3.13.48.2,1,.2,1.56s-.06,1.09-.19,1.58c-.12.49-.31.94-.56,1.36-.25.41-.54.78-.88,1.12-.34.34-.73.64-1.16.91-.43.26-.9.49-1.42.69-.51.19-1.06.35-1.65.48h0c-.58.12-1.19.22-1.83.28-.64.06-1.29.09-1.97.09s-1.35-.03-2.01-.1c-.67-.06-1.32-.16-1.96-.29-.64-.13-1.25-.28-1.83-.46-.58-.18-1.12-.39-1.62-.62-.51-.23-.97-.49-1.37-.78-.41-.28-.77-.59-1.08-.93-.31-.34-.55-.7-.71-1.08-.16-.38-.24-.78-.24-1.2,0-.22.03-.43.08-.62.06-.19.14-.36.25-.51.11-.15.23-.27.37-.37.14-.1.29-.18.46-.24.16-.06.33-.09.5-.11.17-.02.35-.02.53,0h0c.18.02.35.06.52.12.17.06.33.14.48.23h0c.14.09.26.2.37.34.1.13.18.29.24.48.06.18.1.36.11.55.01.19,0,.38-.04.56h0c-.04.19-.1.38-.19.56-.09.18-.21.35-.35.52-.15.18-.33.33-.54.45-.13.08-.28.15-.44.21.07.08.15.16.24.24.18.16.41.31.68.46h0c.28.16.59.31.91.44.33.14.67.27,1.04.39h0c.37.12.76.23,1.15.33.39.1.79.18,1.21.25.42.07.81.12,1.19.16.37.03.74.05,1.09.05.6,0,1.17-.04,1.72-.12.55-.08,1.08-.2,1.59-.35.51-.16.97-.34,1.39-.54.42-.2.79-.43,1.12-.69h0c.33-.25.6-.52.83-.8.22-.28.39-.58.51-.9.12-.31.16-.62.14-.94-.02-.32-.12-.64-.28-.97-.17-.33-.42-.66-.75-.99-.34-.33-.76-.66-1.27-.99-.51-.33-1.13-.64-1.85-.94-.73-.3-1.56-.58-2.5-.84-.93-.26-1.77-.49-2.54-.7-.72-.2-1.47-.4-2.23-.6-.69-.18-1.33-.38-1.92-.59-.05-.02-.1-.04-.15-.05v3.12c0,.24.03.41.09.52.05.09.12.14.23.15l.22.03-.09.21c-.05.11-.21.28-.41.39-.16.09-.34.16-.51.16-.25,0-.45-.12-.6-.33h0c-.08-.12-.15-.26-.19-.44-.17.18-.37.35-.57.49-.25.17-.51.28-.76.28h-.1c-.45,0-.94-.18-1.29-.56-.29-.31-.48-.76-.48-1.35v-2.58c0-.27-.03-.44-.08-.55-.04-.1-.11-.15-.2-.21l-.17-.11.13-.15c.14-.16.29-.27.45-.35.18-.09.37-.13.55-.14h.05s.05.03.05.03c.16.1.31.26.41.45.09.18.14.39.14.62v3.04h0c0,.32.09.55.22.7.14.16.35.23.6.23h.11c.12,0,.37-.15.57-.36.15-.16.26-.36.26-.55v-2.5c0-.33-.03-.53-.08-.66-.05-.11-.12-.17-.21-.23l-.2-.12h.01c-.34-.2-.64-.4-.92-.62-.14-.11-.27-.23-.4-.35-.63.2-1.31.3-2.02.3-1.92,0-3.62-.7-4.83-2.03-1.12-1.24-1.8-3.01-1.8-5.26s.65-4,1.79-5.24c1.17-1.27,2.85-1.95,4.87-1.95s3.68.63,4.88,1.89c.78.82,1.35,1.9,1.61,3.24.25-.08.51-.16.77-.23h0c.44-.12.87-.22,1.31-.31.43-.09.88-.16,1.33-.22.45-.06.88-.1,1.31-.13.43-.03.85-.04,1.26-.04.6,0,1.18.03,1.74.08.55.06,1.08.14,1.57.25h0c.49.11.95.24,1.37.39.43.15.82.32,1.18.51h0c.36.19.68.4.97.63.29.23.54.47.76.73h0c.22.26.39.53.53.82.13.28.22.58.27.88h0c.05.29.06.56.05.81-.01.25-.05.49-.12.69-.07.21-.15.39-.25.56-.1.17-.22.32-.36.46h0c-.13.13-.28.24-.44.34-.16.09-.33.17-.51.23h0c-.18.06-.35.1-.52.13-.17.03-.34.04-.51.04-.13,0-.26-.01-.38-.04-.13-.03-.25-.06-.36-.11-.11-.05-.22-.11-.31-.17-.1-.07-.19-.14-.27-.22-.08-.08-.15-.17-.22-.26-.06-.09-.12-.19-.16-.29h0c-.05-.1-.08-.21-.11-.32-.02-.11-.04-.22-.04-.34s.01-.23.04-.34c.02-.11.06-.22.1-.33h0c.05-.11.1-.21.17-.3.07-.09.14-.18.22-.27h0c.09-.09.18-.16.28-.23.1-.07.21-.12.33-.17.12-.05.25-.09.38-.11.13-.02.27-.04.41-.04.1,0,.2.01.31.03.1.02.21.05.32.09h0c.1.04.2.08.29.12.1.04.19.09.27.13h0c.07.04.14.08.21.12Z"/><g class="cls-2"><rect class="cls-4" width="35.63" height="27.9"/></g><path class="cls-4" d="m67.11,19.38c.12-.03.23-.07.34-.13.11-.06.21-.13.3-.22.1-.09.18-.19.26-.3.08-.11.14-.23.2-.37h0c.06-.13.1-.27.14-.43.04-.15.06-.31.07-.48h0c.01-.17.01-.34,0-.51-.01-.17-.04-.35-.08-.52h0c-.04-.18-.1-.35-.16-.5-.06-.16-.14-.31-.23-.45-.09-.14-.18-.27-.28-.39-.1-.12-.21-.23-.32-.32h0c-.11-.09-.23-.17-.34-.24-.12-.07-.24-.12-.36-.15h0c-.12-.04-.25-.06-.36-.06-.12,0-.24.01-.36.04h0c-.13.03-.24.08-.35.13-.11.06-.21.13-.3.22h0c-.1.09-.18.19-.26.3-.07.11-.14.23-.2.36h0c-.06.13-.1.27-.14.42-.03.15-.06.31-.07.48h0c-.01.17,0,.34,0,.51.02.17.04.35.09.53.04.18.09.34.16.51.06.16.14.32.22.46.08.14.18.28.28.4.1.12.21.22.32.31h0c.11.09.23.17.35.24.12.07.24.12.36.16.12.04.24.06.36.06.12,0,.24,0,.37-.04h0Zm-18.99-5.18c.36-.68.68-1.33.97-1.94h0c.17-.35.32-.69.47-1.03.15-.34.28-.68.42-1.01.13-.33.24-.64.33-.94.09-.29.16-.57.22-.83h0c.05-.25.08-.48.09-.67,0-.19-.01-.36-.05-.5-.03-.11-.08-.2-.16-.25-.08-.05-.19-.08-.33-.08-.15,0-.28.04-.41.11-.13.08-.26.2-.38.36-.13.17-.25.37-.36.6-.11.23-.21.49-.3.78h0c-.09.29-.17.61-.24.94-.07.33-.12.69-.17,1.07h0c-.05.38-.08.77-.1,1.15-.02.38-.03.77-.03,1.17,0,.36,0,.72.03,1.07Zm7.92-2.36c-.22-.09-.44-.16-.64-.22-.2-.06-.39-.1-.57-.12-.16-.02-.3-.02-.43.01-.12.03-.22.08-.31.16h0c-.07.06-.13.11-.2.15-.07.04-.14.07-.22.09h0c-.07.02-.14.03-.2.04-.08,0-.15-.01-.21-.04h0c-.09-.05-.14-.13-.15-.23,0-.07.01-.14.05-.22h0c.03-.07.09-.14.17-.22.07-.07.16-.14.27-.23h0c.23-.18.46-.32.68-.43.23-.11.44-.2.66-.25h0c.21-.05.41-.08.6-.09.2-.01.38,0,.57.02.18.02.35.06.52.1.17.05.32.11.48.18h0c.14.06.27.13.4.19.12.06.25.12.38.19h0c.11.06.22.11.31.15.1.04.18.07.26.1h0c.05.02.1.02.14.01.04,0,.08-.03.11-.06h0s.09-.08.15-.11c.06-.03.12-.05.18-.07.06-.02.12-.02.18-.03.07,0,.13,0,.18.02.09.02.15.07.19.14.04.07.05.14.03.23h0c-.02.08-.06.15-.14.23-.05.05-.13.11-.22.18-.17.15-.33.27-.49.37-.16.1-.32.17-.48.22-.15.04-.3.07-.44.08-.14.01-.28,0-.42-.01h0c-.13-.02-.26-.05-.39-.09-.13-.04-.25-.09-.37-.15h0c-.11-.05-.22-.1-.33-.16-.11-.05-.22-.1-.33-.15Zm-9.7,7.16c-.08.1-.16.2-.25.31-.09.11-.19.22-.3.33h0c-.11.11-.22.22-.35.33-.12.11-.25.21-.38.3h0c-.14.1-.28.19-.42.27-.15.08-.3.16-.46.22-.16.07-.33.12-.51.16-.17.03-.35.05-.53.05-.2,0-.39-.03-.57-.1-.18-.07-.35-.16-.51-.29-.15-.12-.29-.25-.41-.39-.13-.14-.24-.28-.35-.43h0c-.1-.15-.19-.29-.28-.42-.08-.14-.15-.27-.21-.4h0s-.02-.06-.02-.06l-.04.07h0c-.08.13-.16.26-.27.4-.1.13-.21.27-.34.42-.13.15-.27.29-.42.43-.15.13-.31.26-.49.38-.18.13-.38.22-.58.29-.2.06-.42.1-.64.1s-.45-.02-.65-.07c-.21-.05-.4-.12-.57-.21-.17-.09-.33-.21-.47-.33-.14-.13-.26-.27-.37-.43h0c-.1-.16-.19-.33-.26-.52-.07-.18-.12-.38-.15-.59h0c-.03-.2-.05-.41-.05-.63,0-.22.02-.44.06-.66h0c.04-.22.1-.45.17-.68.08-.23.17-.45.28-.68.11-.23.24-.45.39-.67.15-.22.32-.43.51-.64h0c.2-.22.41-.42.63-.59.22-.17.44-.31.66-.43.22-.11.44-.21.66-.28.22-.08.44-.14.66-.18h0c.2-.04.38-.06.57-.07.19-.01.36-.01.54,0h0c.17.01.33.03.47.06.15.02.29.06.41.09.13.04.24.08.34.12.1.05.19.1.26.16h0c.09.07.15.14.18.21.05.11.04.21-.03.31h0c-.05.07-.1.11-.15.14-.07.04-.15.06-.22.04h0s-.09-.02-.14-.03c-.04-.01-.09-.03-.15-.06h0s-.1-.04-.16-.06c-.07-.02-.14-.05-.22-.07h0c-.08-.02-.17-.04-.27-.05-.11-.01-.23-.02-.37-.02-.13,0-.25.01-.37.04-.13.03-.25.07-.38.13h0c-.13.06-.26.13-.38.2-.13.08-.25.17-.36.27h0c-.12.1-.23.21-.34.33-.11.12-.2.24-.3.38-.09.13-.17.27-.24.41-.07.14-.12.28-.16.43h0c-.06.22-.11.44-.13.63-.02.19-.03.37,0,.54.02.17.05.32.09.46.04.14.09.26.16.37.06.11.13.21.21.29.07.08.15.15.24.2h0c.09.05.17.1.25.12.07.02.14.04.21.04.14,0,.27-.02.38-.06.11-.04.21-.1.3-.18.1-.09.19-.19.27-.3.08-.11.16-.24.22-.37h0c.07-.14.13-.28.19-.44.06-.15.11-.31.15-.47.05-.2.09-.36.13-.48.02-.07.06-.23.12-.46h0c.04-.15.08-.29.12-.41.04-.13.08-.24.12-.34h0c.05-.12.11-.22.19-.29.09-.08.19-.13.31-.13s.22.04.32.13c.08.07.16.17.23.29h0c.06.11.12.24.19.37.06.14.12.28.18.44h0c.06.15.12.31.19.49.07.18.14.36.2.53.07.18.14.35.21.52.07.16.15.32.24.47.08.15.17.28.26.41.09.12.18.23.28.33.09.09.18.15.28.19.09.04.19.06.3.06.08,0,.16,0,.24-.03.07-.02.15-.04.21-.08h0c.08-.04.15-.08.21-.12.07-.04.13-.09.19-.14h0c.06-.05.12-.11.18-.18.06-.07.12-.13.17-.2h0s.39-.5.39-.5h-.04s.06-.11.06-.11c-.04-.16-.08-.33-.12-.49-.06-.26-.11-.53-.15-.8h0c-.04-.28-.08-.55-.11-.82-.03-.27-.05-.55-.07-.82-.02-.27-.03-.53-.04-.79,0-.25-.01-.49-.01-.73v-.02c.07-.69.16-1.35.29-1.98.13-.63.29-1.22.47-1.77.08-.23.17-.47.27-.7.1-.23.2-.46.32-.69.12-.23.25-.45.38-.65.14-.2.29-.4.45-.58.16-.18.34-.35.52-.5.19-.15.38-.28.59-.39h0c.22-.11.44-.2.69-.26.24-.06.49-.08.76-.08.28,0,.52.05.72.15.21.11.36.27.47.48.09.19.15.42.18.67.03.24.02.51-.01.81-.04.29-.1.59-.18.92-.08.33-.19.67-.33,1.03h0c-.13.37-.28.73-.43,1.09-.15.36-.32.73-.5,1.12h0c-.42.89-.9,1.83-1.45,2.82-.15.27-.3.54-.46.81.03.25.07.49.11.72.06.34.13.65.22.94.08.29.17.55.27.78.1.23.21.43.33.6h0c.11.16.23.28.35.35.11.07.23.11.36.11h.02c.06,0,.13,0,.2,0,.08-.02.16-.05.25-.09h0c.08-.04.17-.09.26-.15.1-.06.2-.15.32-.24h0c.11-.09.23-.21.35-.36.11-.12.22-.27.33-.43,0-.17.03-.34.06-.51h0c.04-.22.1-.45.17-.68.08-.23.17-.45.28-.68.11-.23.24-.45.39-.67.15-.22.32-.43.51-.64h0c.2-.22.41-.42.63-.59.22-.17.44-.31.66-.43.22-.11.44-.21.66-.28.22-.08.44-.14.66-.18h0c.2-.04.38-.06.57-.07.19-.01.36-.01.54,0h0c.17.01.33.03.47.06.15.02.29.06.41.09.13.04.24.08.34.12.1.05.19.1.26.16h0c.09.07.14.14.18.21.05.11.04.21-.03.31h0c-.05.07-.1.11-.15.14-.07.04-.15.06-.22.04h0s-.09-.02-.14-.03c-.04-.01-.09-.03-.15-.06h0s-.1-.04-.16-.06c-.07-.02-.14-.05-.22-.07h0c-.08-.02-.17-.04-.27-.05-.11-.01-.23-.02-.37-.02-.13,0-.25.01-.37.04-.13.03-.25.07-.38.13h0c-.13.06-.26.13-.38.2-.12.08-.25.17-.36.27-.12.1-.23.21-.34.33-.11.12-.2.24-.3.38-.09.13-.17.27-.24.41-.07.14-.12.28-.16.43h0c-.07.22-.11.44-.13.63-.02.19-.03.37,0,.53h0c.02.17.05.32.09.46.04.14.09.26.16.37.06.11.13.21.21.29.07.08.15.15.24.2h0c.09.05.17.1.25.12.07.02.14.04.21.04.14,0,.27-.02.38-.06.11-.04.21-.1.3-.18.1-.09.19-.19.27-.3.08-.11.16-.24.22-.37h0c.07-.14.13-.28.19-.44.06-.15.11-.31.15-.47.05-.2.09-.36.12-.48.02-.06.06-.22.12-.46h0c.04-.15.08-.29.12-.41.04-.13.08-.24.12-.34h0c.05-.12.11-.22.19-.29.09-.08.19-.13.31-.13s.22.04.32.13c.08.07.16.17.23.29h0c.06.11.12.24.19.37.06.14.12.28.18.44h0c.06.15.12.31.19.49.07.18.14.36.2.53.07.18.14.35.21.52.07.16.15.32.24.47.08.15.17.28.26.41.09.12.18.23.28.33.09.09.18.15.27.19.09.04.19.06.3.06.08,0,.16,0,.24-.03.07-.02.15-.04.21-.08h0c.08-.04.15-.08.21-.12.07-.04.13-.09.19-.14h0c.06-.05.12-.11.18-.17.06-.06.12-.13.17-.2h0s.35-.44.35-.44c-.02-.06-.03-.13-.04-.2-.05-.25-.07-.5-.07-.77,0-.26.02-.52.07-.77.05-.25.12-.49.21-.72.09-.23.2-.45.33-.65.13-.2.28-.39.44-.56.16-.17.34-.32.53-.46.19-.14.39-.25.61-.36h0c.22-.1.45-.18.68-.23.24-.05.48-.08.73-.08s.49.03.73.08c.24.05.46.13.68.23h0c.22.1.42.22.61.36.19.14.37.29.53.46.16.17.31.36.44.56.13.2.24.41.34.65h0c.1.23.17.47.22.72.05.25.07.5.07.77s-.02.52-.07.77c-.05.25-.12.49-.22.72-.09.23-.21.44-.34.65-.13.2-.28.39-.44.56-.16.17-.34.32-.53.46-.19.14-.39.25-.61.36h0c-.22.1-.45.18-.68.23-.24.05-.48.08-.73.08s-.49-.03-.73-.08c-.24-.05-.46-.13-.68-.23h0c-.22-.1-.42-.22-.61-.36-.19-.14-.37-.29-.53-.46-.16-.17-.31-.36-.44-.56-.05-.08-.1-.16-.14-.24-.07.09-.14.17-.21.25-.09.1-.19.21-.3.33h0c-.11.11-.22.22-.35.33-.12.11-.25.21-.38.3h0c-.14.1-.28.19-.42.27-.15.08-.3.16-.46.22-.16.07-.33.12-.51.16-.17.03-.35.05-.53.05-.2,0-.39-.03-.57-.1-.18-.07-.35-.16-.51-.29-.15-.12-.29-.25-.41-.39-.13-.14-.24-.28-.35-.43h0c-.1-.14-.19-.29-.28-.42-.08-.14-.15-.27-.21-.4h0s-.02-.06-.02-.06l-.04.07h0c-.08.13-.16.26-.27.4-.1.13-.21.27-.34.42-.13.15-.27.29-.42.43-.15.13-.31.26-.49.38-.18.13-.38.22-.58.29-.2.06-.42.1-.64.1s-.45-.02-.65-.07c-.21-.05-.4-.12-.57-.21-.17-.09-.33-.21-.47-.33-.14-.13-.26-.27-.37-.43h0c-.1-.16-.19-.33-.26-.52-.02-.05-.03-.09-.05-.14-.01.01-.02.02-.03.04-.13.14-.27.29-.43.45-.16.16-.34.3-.53.44-.19.14-.4.27-.62.4h0c-.23.13-.47.23-.72.29-.25.06-.51.1-.78.1-.22,0-.43-.03-.63-.1-.2-.06-.38-.16-.55-.29-.17-.12-.32-.27-.46-.43-.14-.16-.26-.34-.38-.55-.11-.19-.21-.4-.3-.61Z"/><g class="cls-3"><rect class="cls-4" x="35.48" y="5.9" width="33.72" height="15.08"/></g><path class="cls-4" d="m39.55,27.38s-.02.03-.03.04c0,.01-.02.03-.02.04.03,0,.07,0,.11.01h0s.02,0,.02.02c0,.01.01.03.02.04,0,.02,0,.04,0,.06,0,0,0,.01,0,.02,0,0,0,.02,0,.02,0,.01-.02.02-.02.02h-.02s-.02,0-.03,0c-.03,0-.07.02-.11.04,0,.01,0,.02,0,.03,0,0,0,.01.01.02,0,0,0,.01.01.01,0,0,0,0,0,.01,0,0,0,0,0,.01,0,0,.01.01.02.02,0,0,.01.01.02.02.03.02.07.04.11.05.04.01.08.02.13.02.03-.04.06-.09.08-.13.02-.04.03-.09.04-.13.03-.1.03-.17.03-.22,0-.05-.01-.09-.02-.1-.01-.03-.03-.05-.05-.06-.02-.01-.05-.02-.09-.01-.03,0-.07.02-.11.04-.04.02-.08.06-.12.1m-.32.61s-.03.08-.04.11c0,.02,0,.03,0,.05s0,.03,0,.04c0,.02.02.03.04.04.01,0,.03.01.06.01s.06,0,.1-.03c.03-.01.05-.02.08-.04.03-.02.06-.03.09-.05.05-.04.1-.07.13-.1-.1,0-.19-.04-.26-.11-.03-.03-.06-.07-.08-.11,0,0,0,.01-.01.02,0,0,0,.01-.01.02,0,0-.01.01-.02.02,0,.01-.02.02-.02.04,0,.02-.02.03-.03.05s-.01.03-.02.05Zm-3.59,1.77s.05-.06.11-.12c.05-.06.11-.13.19-.21.07-.09.15-.18.24-.29.09-.11.18-.23.28-.36-.18.17-.33.32-.45.45-.12.13-.2.22-.24.28-.03.05-.06.09-.07.14-.02.04-.03.09-.05.12Zm2.06-1.6c.1-.03.18-.06.25-.11.07-.04.13-.09.18-.15-.08.03-.14.07-.19.1-.05.03-.1.06-.13.08-.04.03-.08.06-.11.08Zm-.8-.02v-.02s.05-.05.07-.1c.03-.04.06-.09.09-.15.03-.05.07-.11.11-.17.04-.06.07-.11.11-.16.03-.05.06-.1.09-.13.02-.04.04-.07.05-.08,0,0,0-.01.01-.02,0,0,.01-.01.02-.02,0,0,.02-.02.02-.02,0,0,0,0,.01,0,0,0,0,0,.02-.01,0,0,.01,0,.02,0,0,0,.01,0,.02,0,.03-.01.06-.02.1-.04.04-.01.08-.02.11-.03.03,0,.06,0,.08,0,.02,0,.03.02.02.05,0,.01-.01.02-.02.03,0,0-.02.02-.02.03h0s-.07.1-.1.15c-.03.04-.07.09-.1.15-.04.05-.08.11-.11.16.09-.07.18-.13.26-.19.08-.06.16-.11.24-.16.07-.05.14-.09.2-.12.06-.03.12-.05.16-.06.06-.01.11,0,.16.02.04.02.07.06.09.12.02.06.03.15.01.27,0,0,0,.01,0,.02s0,.01,0,.02c0,0,0,.01,0,.02s0,.01,0,.02c.04,0,.07-.02.11-.02.04,0,.07-.01.11-.02.08-.01.17-.02.26-.03.05,0,.11,0,.16,0,.01-.01.03-.02.04-.03.05-.03.08-.05.08-.06,0,0,0,0,0,0,.01-.04.03-.07.05-.11.02-.03.04-.06.06-.08.02-.02.04-.04.05-.06.02-.02.03-.03.04-.04.02-.02.05-.04.08-.05.03-.02.07-.03.1-.04.04,0,.07-.01.11-.01s.07,0,.1.02c.02.01.04.03.06.04.02.02.04.04.05.07,0,0,0,.02,0,.02,0,0,0,.02,0,.02,0,.03.01.07.02.11,0,.04,0,.09-.01.15,0,0,0,0,0,0-.01.06-.03.12-.05.16-.02.05-.03.08-.05.11-.01.02-.02.03-.02.03,0,0,0,0,0,0h0s.04,0,.05-.01c.02,0,.04-.01.05-.02.06-.02.12-.05.18-.08.06-.03.11-.06.15-.09.03-.02.05-.03.08-.05.01-.01.03-.02.04-.04.11-.09.2-.17.26-.23-.04-.03-.07-.06-.08-.1-.02-.04-.02-.09-.02-.14,0-.04,0-.08.03-.12.02-.03.04-.06.06-.09.03-.03.06-.06.09-.08.03,0,.06.01.08.02.02.01.04.03.06.04.02.02.03.04.04.07h0s0,.01,0,.02c0,0,0,0-.01.01-.03.02-.05.06-.07.09-.01.02-.02.04-.03.06,0,.02,0,.04,0,.06,0,0,0,0,0,.01.01.05.04.07.07.06.02,0,.03,0,.05-.01.02,0,.03-.01.05-.02.1-.04.18-.05.24-.04.02,0,.04.01.06.02.02,0,.04.03.06.05.03.04.04.09.02.15-.02.06-.05.13-.1.19-.04.07-.1.14-.15.2-.06.07-.11.13-.15.18-.04.06-.07.1-.08.14-.01.04,0,.06.05.06.04,0,.1,0,.15-.02s.12-.04.18-.07c.06-.03.13-.06.19-.1.07-.04.13-.08.19-.12.15-.09.3-.2.45-.33h.13c-.18.15-.35.28-.52.39-.07.05-.15.09-.23.14-.08.04-.16.08-.23.12-.08.03-.15.06-.23.07-.07.02-.14.02-.2.01-.08,0-.12-.03-.14-.07-.02-.04-.03-.09-.01-.15.01-.06.04-.12.07-.18.04-.06.07-.13.11-.18.04-.06.08-.11.11-.16.04-.05.06-.08.07-.1,0,0,0-.02.01-.03,0-.02,0-.03,0-.04,0,0-.01-.01-.03-.01-.01,0-.03,0-.04,0-.05.01-.09.02-.11.02-.03,0-.04,0-.06,0,0,0,0,0,0,0,0,0,0,0,0,0-.02.02-.03.03-.04.05-.01.01-.02.03-.04.04-.01.01-.02.02-.04.03-.01.01-.03.02-.04.03-.02,0-.03.02-.05.04-.04.03-.08.06-.12.09-.04.03-.08.05-.11.08-.04.03-.08.05-.12.07h-.01c-.05.02-.11.05-.17.08-.09.05-.19.08-.29.1,0,0-.02,0-.02,0-.05.06-.12.12-.19.18-.08.06-.17.11-.28.16-.01,0-.02.01-.04.01-.01,0-.02,0-.03.01-.05.01-.09.02-.12.02-.03,0-.06,0-.08,0-.03,0-.05-.01-.07-.02-.02-.01-.03-.03-.04-.04-.01-.01-.02-.03-.03-.04-.03-.04-.04-.1-.03-.16,0-.03,0-.06.02-.1.02-.06.04-.11.07-.16.03-.05.06-.1.1-.15.02-.03.05-.06.07-.08-.05,0-.11.02-.16.02-.17.03-.33.06-.46.1-.04.09-.09.17-.16.24-.07.06-.15.12-.23.16-.08.04-.17.07-.26.09-.09.02-.16.03-.23.03-.05-.01-.08-.03-.08-.06,0-.03-.01-.05-.01-.07,0,0,0-.02.01-.02.05-.04.11-.09.2-.15.08-.05.19-.11.32-.16.02,0,.04-.02.06-.02.02,0,.04-.01.06-.02.01-.02.02-.03.03-.05,0-.02.02-.03.02-.05.02-.05.04-.09.05-.14.01-.04.02-.08.02-.12,0-.04.01-.07.01-.11-.15.07-.31.16-.48.27-.17.11-.34.24-.52.38-.03.02-.05.04-.08.06-.02.02-.05.04-.08.06l-.05.07c-.05.07-.1.14-.14.21-.04.07-.08.12-.11.16-.13.2-.26.39-.4.58-.14.19-.28.35-.41.48-.03.03-.06.06-.11.11-.04.04-.09.08-.14.13-.05.04-.09.08-.13.11-.04.03-.07.05-.1.05-.03,0-.05,0-.07-.02-.02-.02-.02-.03-.03-.03,0,0,0-.01,0-.02,0,0,0-.01-.01-.02h0s0-.04,0-.07c0-.04,0-.09.01-.15.01-.06.03-.12.07-.2.03-.07.09-.15.16-.23.04-.04.09-.1.16-.16.07-.06.14-.13.23-.21.03-.03.07-.06.1-.1.04-.03.07-.07.11-.1.07-.06.14-.13.22-.2.08-.07.16-.14.24-.21l.04-.05.04-.07Zm16.79-.74s-.02-.03,0-.06c.02-.04.04-.08.07-.12.03-.04.05-.09.08-.13.02-.05.03-.08.03-.11,0,0,0,0,0-.01,0-.01.02-.02.04-.04.02-.01.05-.03.1-.05.05-.02.09-.03.13-.04.04,0,.07,0,.08.04.02.03,0,.08-.04.17-.03.06-.07.12-.12.17-.05.05-.09.11-.14.19-.04,0-.07,0-.1,0-.03,0-.05,0-.08,0-.02,0-.04,0-.05,0Zm2.52-1.31s0-.06-.04-.04c-.04.02-.1.06-.17.13-.07.06-.16.14-.25.23-.09.09-.18.18-.26.26-.08.09-.15.16-.22.23-.06.07-.1.11-.11.13.18-.11.34-.23.49-.34.06-.05.13-.1.19-.15.06-.05.12-.11.17-.16.05-.05.1-.1.13-.15.04-.05.06-.1.08-.14Zm-5.93,2.03s-.04-.03-.06-.05c-.02-.02-.05-.04-.07-.07-.02-.03-.03-.06-.04-.09,0-.02,0-.05.01-.07-.05.03-.09.06-.14.09-.07.04-.13.09-.2.13-.07.04-.13.08-.2.11-.06.03-.13.06-.18.07-.06.02-.11.02-.15.02-.07,0-.13-.02-.18-.05-.05-.02-.09-.06-.13-.1-.04-.04-.06-.11-.07-.19,0-.06,0-.11,0-.16,0-.05.01-.1.02-.13,0-.04.02-.08.03-.12-.17.13-.32.25-.46.36-.06.04-.12.09-.18.13-.06.04-.12.08-.17.11-.05.03-.1.06-.13.08-.04.02-.07.03-.08.03-.1,0-.16-.02-.2-.06-.02.01-.04.03-.06.04-.19.14-.38.26-.58.39-.19.12-.39.23-.6.31-.21.08-.42.14-.64.18-.22.03-.45.03-.69-.01-.05,0-.1-.02-.14-.03-.04-.01-.09-.02-.13-.04-.16-.06-.28-.13-.37-.22s-.16-.19-.2-.29c-.04-.1-.07-.21-.08-.32,0-.11,0-.21,0-.31.01-.1.03-.18.05-.26.02-.08.04-.13.05-.17.04-.12.09-.24.14-.35.05-.11.1-.2.15-.28.05-.09.11-.18.17-.27.18-.26.36-.48.53-.67.17-.19.34-.35.51-.49.16-.14.32-.25.47-.34.15-.09.29-.16.42-.22.3-.12.59-.18.85-.17.07,0,.13.02.18.05.05.02.09.06.14.1.04.05.08.11.1.19,0,.02,0,.05.01.07,0,.02,0,.05,0,.08s0,.06,0,.09c-.01.02-.03.03-.04.05-.01.01-.03.03-.05.04-.02.01-.05.02-.08.03h0s0,0-.01-.02c0,0,0-.01,0-.02,0-.02,0-.04-.01-.07,0-.02,0-.04-.01-.06,0-.02-.01-.04-.02-.06,0,0,0,0,0,0h0c-.02-.05-.04-.09-.07-.12-.03-.03-.06-.05-.09-.07-.03-.01-.06-.02-.09-.03-.03,0-.05,0-.07,0-.08,0-.21.02-.37.07-.16.05-.35.14-.56.28-.21.13-.44.31-.68.53-.24.22-.48.49-.71.82-.23.32-.4.63-.51.91-.11.28-.15.53-.12.74.03.21.13.38.3.5.17.12.42.19.75.19.27,0,.52-.04.77-.13.24-.09.48-.2.7-.34.22-.14.44-.29.65-.46.05-.04.09-.08.14-.11.02-.02.05-.05.08-.08.05-.05.11-.1.19-.16.07-.06.15-.12.23-.18.08-.06.17-.12.25-.17.08-.05.17-.1.25-.14.08-.04.15-.07.21-.08.06,0,.11,0,.16,0,.04.01.08.04.12.07.04.04.07.1.08.18,0,0,0,0,0,.01,0,0,0,0-.01,0,0-.02-.02-.03-.04-.05-.02-.02-.04-.04-.07-.05-.03-.01-.06-.02-.09-.02-.03,0-.07,0-.11.03-.04.02-.08.05-.15.09-.06.04-.13.09-.2.14-.07.05-.15.11-.22.17-.08.06-.15.11-.21.17-.06.06-.11.11-.15.15-.04.05-.06.08-.05.11,0,0,.03-.01.05-.02.02-.01.05-.03.09-.06.04-.02.09-.06.15-.11.06-.05.13-.1.21-.16.08-.06.15-.12.22-.17.07-.05.13-.1.19-.14.06-.04.09-.06.11-.07.06-.01.11,0,.15.03h0s.04.06.04.09c0,.03,0,.07-.01.1-.01.03-.03.07-.04.14-.02.07-.02.13-.03.2,0,.07,0,.13.02.18.02.05.06.08.11.07.04,0,.1-.01.16-.04.06-.02.13-.05.19-.09.07-.03.14-.07.2-.11.07-.04.13-.08.19-.12.06-.04.12-.08.17-.11l.02-.02s.05-.08.08-.11c.03-.05.06-.09.09-.13.03-.04.04-.07.05-.1,0-.01.01-.03.02-.04.01-.02.03-.02.05-.01.01,0,.03.02.05.04.02.01.04.03.06.05.02.02.03.04.04.07,0,.03,0,.05-.01.07-.02.03-.05.06-.08.1-.03.04-.06.07-.09.1-.03.03-.05.06-.07.09-.02.03-.04.05-.04.07.15-.14.29-.26.43-.36.06-.04.12-.09.18-.13.06-.04.12-.07.18-.1.06-.03.11-.05.16-.06.05-.01.09-.02.13,0,.07.02.11.06.13.13.02.07.01.14-.01.23-.02.09-.06.18-.12.28-.06.1-.12.19-.19.27.05-.05.11-.1.18-.16.06-.05.12-.1.2-.16.08-.06.16-.12.24-.18.08-.06.16-.11.24-.16.08-.05.15-.09.22-.13.07-.04.14-.06.2-.08.06-.02.11-.02.16-.01.02,0,.04.01.06.02.02,0,.04.03.06.05.03.04.04.09.02.15-.02.06-.05.13-.1.19-.04.07-.1.14-.15.2-.06.07-.11.13-.15.18-.04.06-.07.1-.08.14-.01.04,0,.06.05.06.04,0,.1,0,.15-.02.06-.02.12-.04.18-.07.06-.03.13-.06.19-.1.07-.04.13-.08.19-.12.07-.05.15-.1.23-.16.04-.06.08-.11.12-.15,0-.01.04-.03.08-.04.04-.02.09-.03.13-.05.05-.01.09-.02.12-.01.03,0,.04.02.04.05-.05.07-.1.14-.17.22-.06.08-.12.15-.17.21-.05.06-.08.12-.1.17-.02.05,0,.07.05.07.04,0,.1,0,.15-.02.06-.02.12-.04.18-.07.06-.03.13-.06.19-.1.07-.04.13-.08.19-.12.11-.07.22-.15.33-.24h0c.01-.06.03-.12.05-.17.05-.12.12-.24.2-.36.08-.11.15-.21.22-.29.01-.01.02-.03.03-.04,0-.01.02-.02.03-.03.13-.14.27-.29.43-.43.16-.14.33-.27.51-.4.03-.02.06-.03.08-.04.02,0,.05-.01.07-.02.02,0,.05,0,.07.01.01,0,.03.02.05.05.02.02.03.06.03.11,0,.05-.02.1-.05.17-.03.07-.1.14-.18.23-.09.09-.21.19-.37.31-.16.12-.36.24-.61.39l-.06.07s-.05.07-.08.11c-.03.04-.06.09-.08.14-.03.05-.05.1-.07.16-.02.06-.04.11-.05.17,0,.02,0,.03,0,.05,0,.02,0,.03,0,.05,0,.07.01.13.04.18h0s.03.03.04.04c.02,0,.04.01.06.01.04,0,.1-.01.16-.04.06-.02.13-.05.19-.09.07-.03.14-.07.2-.11h.01s.05-.06.09-.1c.05-.05.11-.1.19-.16.07-.06.15-.12.23-.18.08-.06.17-.12.25-.17.08-.05.17-.1.25-.14.08-.04.15-.07.21-.08.06,0,.11,0,.16,0,.04.01.08.04.12.07.04.04.07.1.08.18,0,0,0,0,0,.01,0,0,0,0-.01,0,0-.02-.02-.03-.04-.05-.02-.02-.04-.04-.07-.05-.03-.01-.06-.02-.09-.02-.03,0-.07,0-.11.03-.04.02-.08.05-.15.09-.06.04-.13.09-.2.14-.07.05-.15.11-.22.17-.08.06-.15.11-.21.17-.06.06-.11.11-.15.15-.04.05-.06.08-.05.11,0,0,.03-.01.05-.02.02-.01.05-.03.09-.06.04-.02.09-.06.15-.11.06-.05.13-.1.21-.16.08-.06.15-.12.22-.17.07-.05.13-.1.19-.14.06-.04.09-.06.11-.07.06-.01.11,0,.15.03h0s.04.06.04.09c0,.03,0,.07-.01.1-.01.03-.03.07-.04.14-.02.07-.02.13-.03.2,0,.07,0,.13.02.18.02.05.06.08.11.07.04,0,.1-.01.16-.04.06-.02.13-.05.19-.09.07-.03.14-.07.2-.11.07-.04.13-.08.19-.12.06-.04.12-.08.17-.11.05-.03.09-.06.12-.08h.12c-.17.13-.33.25-.48.35-.07.04-.13.09-.2.13-.07.04-.13.08-.2.11-.06.03-.13.06-.18.07-.06.02-.11.02-.15.02-.07,0-.13-.02-.18-.05-.05-.02-.09-.06-.13-.1-.04-.04-.06-.11-.07-.19,0-.06,0-.11,0-.16s.01-.1.02-.13c0-.04.02-.08.03-.12-.17.13-.32.25-.46.36-.06.04-.12.09-.18.13-.06.04-.12.08-.17.11-.05.03-.1.06-.13.08-.04.02-.07.03-.08.03-.12,0-.19-.03-.22-.09-.01-.03-.02-.05-.01-.08-.04.02-.08.04-.11.07-.06.03-.12.06-.17.09-.06.03-.11.04-.16.05h-.01c-.08.02-.15.02-.23-.01,0,0-.02-.01-.03-.02,0,0-.02-.01-.03-.02-.05-.05-.09-.11-.11-.17,0-.02-.01-.04-.01-.06,0-.02,0-.04,0-.06,0-.03,0-.06,0-.08,0-.01,0-.03,0-.04-.09.07-.17.13-.26.18-.07.05-.15.09-.23.14-.08.04-.16.08-.24.12-.08.03-.15.06-.23.07-.07.02-.14.02-.2.01-.09-.01-.14-.04-.16-.1-.01-.06,0-.12.02-.19.01-.03.02-.05.04-.08-.01,0-.03.02-.04.03-.07.05-.15.09-.23.14-.08.04-.16.08-.24.12-.08.03-.15.06-.23.07-.07.02-.14.02-.2.01-.08,0-.12-.03-.14-.07-.02-.04-.03-.09-.01-.15.01-.06.04-.12.07-.18.04-.06.07-.13.11-.18.04-.06.08-.11.11-.16.03-.05.06-.08.07-.1.01-.02.02-.04.02-.06,0,0,0,0-.03-.02-.02-.01-.06,0-.11.02-.06.02-.14.07-.25.15-.11.08-.26.21-.44.39-.14.13-.25.24-.34.33-.09.09-.16.16-.22.22-.06.06-.1.1-.12.13-.03.03-.04.05-.05.07-.01.01-.02.02-.04.01-.01,0-.03-.02-.05-.03-.02-.01-.04-.03-.05-.06-.01-.02-.02-.05-.02-.08,0-.03,0-.06.04-.1.12-.17.23-.33.33-.48.04-.06.08-.13.11-.19.04-.06.07-.13.1-.18.03-.06.05-.11.06-.16.01-.05.02-.09,0-.12,0-.03-.04-.04-.09-.02-.05.02-.11.05-.19.1-.07.05-.15.11-.24.18-.09.07-.17.14-.25.21-.08.07-.15.13-.21.19-.06.06-.11.1-.14.13-.01.01-.02.02-.03.02s-.01,0-.02,0Zm13.48.43c-.07-.07-.14-.15-.22-.24-.08-.09-.15-.17-.22-.25-.07-.08-.13-.15-.19-.21-.05-.06-.09-.1-.11-.13-.01,0-.02,0-.03-.02,0-.01-.01-.03-.02-.05-.01-.03-.02-.05-.01-.07,0-.02.01-.04.02-.06.01-.02.03-.03.05-.05.02-.02.05-.03.09-.02,0,0,0,0,0,0,0,0,0,0,0,0h.02s.03,0,.05,0c.02,0,.04,0,.05,0h.02c.13-.01.26-.03.37-.05.11-.02.21-.04.31-.05.03,0,.06,0,.1-.01.04,0,.08-.01.12-.02.04,0,.08-.01.13-.02.04,0,.08-.01.12-.02.21-.05.38-.11.51-.17.13-.07.21-.12.26-.15.1-.08.19-.16.27-.24.08-.09.14-.17.19-.25.05-.09.1-.18.14-.27.08-.19.14-.37.17-.54.01-.07.02-.14.03-.22,0-.07,0-.14,0-.2-.01-.06-.03-.12-.06-.17-.03-.05-.08-.09-.13-.12-.08-.03-.17-.03-.29,0-.12.03-.26.09-.41.17-.15.08-.31.19-.49.32-.17.13-.35.28-.53.44-.26.23-.51.48-.76.75-.25.27-.49.54-.72.82-.2.27-.43.56-.68.88l-.03.04s-.02.03-.04.05c-.01.02-.03.03-.04.05-.02.03-.05.06-.09.1-.03.04-.07.08-.1.11-.04.03-.07.06-.1.09-.03.02-.06.04-.08.04,0,0-.02,0-.02-.01,0,0-.01-.02-.02-.05-.01-.02-.02-.05-.02-.09,0-.03,0-.07,0-.1,0-.04.02-.07.05-.11.04-.04.1-.1.18-.2.08-.1.18-.21.29-.34.11-.13.23-.28.36-.43.13-.16.25-.31.37-.47.12-.16.23-.31.33-.46.1-.15.18-.28.24-.39.09-.17.17-.34.23-.5.06-.16.1-.31.13-.44.03-.14.03-.26.02-.36,0-.1-.04-.19-.08-.26-.04-.06-.13-.1-.28-.12-.14-.02-.32-.02-.54.02-.22.03-.47.1-.75.19-.28.1-.58.23-.9.41-.07.04-.13.08-.2.12-.06.04-.12.08-.18.12-.06.04-.12.08-.19.12-.07.04-.13.08-.19.12-.06.04-.11.07-.16.1-.05.03-.08.05-.1.07-.03.02-.04.03-.06.03-.01,0-.02,0-.02,0,0,0,0-.01,0-.02.01-.06.04-.12.07-.18.04-.06.07-.11.12-.16.04-.05.09-.09.13-.13.04-.04.08-.07.11-.1.25-.18.54-.34.87-.5.33-.15.71-.28,1.14-.38.04,0,.09-.02.15-.03.06,0,.13-.02.2-.02.07,0,.15,0,.22,0,.08,0,.15.01.22.03.09.03.18.07.26.13.08.06.16.14.21.24.05.1.09.2.11.32.02.12.01.26-.02.41-.03.16-.09.33-.17.53-.08.2-.2.42-.36.67l.27-.3c.2-.21.4-.41.61-.61.21-.2.41-.37.62-.52.2-.15.4-.26.59-.34.19-.08.37-.1.54-.07.14.03.25.11.32.22.03.05.06.11.08.17.02.07.04.15.04.25,0,.1,0,.21-.02.33-.02.12-.06.27-.11.43-.03.07-.06.14-.09.21-.03.07-.07.13-.11.2-.01.02-.04.06-.07.11-.04.05-.08.11-.14.18-.06.07-.13.14-.22.21-.08.07-.18.14-.3.2-.07.03-.15.07-.26.12-.11.04-.22.08-.34.11-.05.01-.11.03-.17.04-.06.01-.13.02-.19.03-.07,0-.13.02-.19.02-.06,0-.12.01-.17.02h0s-.04,0-.06,0c-.02,0-.03,0-.03,0-.09,0-.17.02-.23.03-.06,0-.12.02-.17.03.07.07.14.17.24.28.09.12.2.26.33.44l.08.11c.12.15.22.27.32.37.1.1.2.2.3.29.1.09.18.16.25.2.07.04.13.07.17.08.05,0,.08,0,.11-.01.03-.02.05-.04.06-.06.02-.03.03-.05.04-.08,0-.03.02-.05.02-.06.02-.03.03-.04.04-.03,0,0,0,.01.01.03-.03.09-.07.16-.12.2-.05.04-.1.06-.16.07-.06,0-.11,0-.17-.02-.06-.02-.12-.05-.17-.08-.05-.03-.09-.05-.12-.08-.03-.02-.06-.05-.09-.07-.03-.02-.05-.05-.08-.08-.02-.03-.05-.06-.08-.09-.04-.03-.07-.07-.1-.1-.03-.03-.06-.06-.08-.1-.03-.03-.06-.07-.09-.1-.03-.04-.06-.07-.1-.12-.08-.09-.15-.18-.22-.26-.06-.08-.12-.15-.17-.2-.05-.07-.1-.13-.14-.18,0,.02.01.07.06.13.04.06.09.14.16.21.06.08.12.15.19.23.06.08.11.14.15.19.05.06.1.12.16.18.05.07.11.14.16.23l-.56-.62Zm13.78-.74c-.19.07-.33.14-.41.22-.09.08-.14.14-.16.2-.02.06,0,.1.04.12.04.02.09.02.16-.02.07-.04.13-.11.2-.2.06-.1.12-.2.18-.32Zm-1.34-.22s0,0-.01.01c0,0,0,0,0,0h0s.06,0,.06,0c.06-.02.12-.04.17-.07.05-.03.09-.05.1-.06,0,0,.02-.02.02-.04v-.02s0-.03-.03-.03c-.03,0-.06.02-.11.05-.03.02-.06.04-.09.06-.03.02-.06.05-.1.08,0,0,0,0,0,0h0Zm-3.94-.11c-.07.05-.15.11-.22.16-.07.06-.14.11-.2.16-.06.05-.11.1-.14.15-.04.04-.05.08-.05.11,0,0,.03,0,.05,0,.02,0,.05-.02.09-.04.04-.02.09-.06.16-.1.05-.03.1-.07.16-.11.06-.04.11-.08.17-.13.06-.05.11-.09.16-.14.05-.05.1-.09.14-.14,0,0,.02-.02.03-.04.02-.02.02-.04.02-.06,0-.02-.02-.02-.06,0-.04.02-.08.04-.13.07-.05.03-.09.05-.13.08-.04.02-.06.04-.07.04Zm-1.29,2.29s.05-.05.11-.13c.07-.07.15-.17.25-.29.1-.12.22-.26.34-.43.13-.16.25-.34.38-.52-.09.06-.18.11-.26.17-.08.06-.16.13-.24.19,0,0-.04.04-.11.11-.06.06-.13.14-.2.22-.05.06-.11.12-.15.18-.05.06-.09.12-.11.17,0,.02-.02.06-.03.11-.01.05,0,.12.01.2Zm-1.48-3.69s0-.06-.04-.04c-.04.02-.1.06-.17.13-.07.06-.16.14-.25.23-.09.09-.18.18-.26.26-.08.09-.15.16-.22.23-.06.07-.1.11-.11.13.18-.11.34-.23.49-.34.06-.05.13-.1.19-.15.06-.05.12-.11.17-.16.05-.05.1-.1.13-.15.04-.05.06-.1.08-.14Zm-2.02,1.39c-.07.05-.14.11-.22.16-.07.06-.14.11-.2.16-.06.05-.1.1-.14.15-.04.04-.05.08-.05.11,0,0,.03-.01.05-.02.02-.01.05-.03.09-.06.04-.02.09-.06.16-.11.05-.04.1-.08.16-.12.06-.05.12-.09.17-.14.06-.05.11-.09.16-.13.05-.04.1-.07.13-.1,0,0,.02-.02.03-.03.02-.01.02-.03.02-.06,0-.02-.02-.02-.06,0-.04.02-.08.04-.13.07-.05.03-.09.05-.13.08-.04.02-.06.04-.07.04Zm-1.48-.1s-.02.03-.03.04c0,.01-.02.03-.02.04.03,0,.07,0,.11.01h0s.02,0,.02.02c0,.01,0,.03.02.04,0,.02,0,.04,0,.06,0,0,0,.01,0,.02,0,0,0,.02,0,.02,0,.01-.02.02-.02.02h-.02s-.02,0-.03,0c-.03,0-.07.02-.11.04,0,.01,0,.02,0,.03,0,0,0,.01.01.02,0,0,0,.01.01.01,0,0,0,0,0,.01,0,0,0,0,0,.01,0,0,.01.01.02.02,0,0,.01.01.02.02.03.02.07.04.11.05.04.01.08.02.13.02.03-.04.06-.09.08-.13.02-.04.03-.09.04-.13.03-.1.03-.17.03-.22,0-.05-.01-.09-.02-.1-.01-.03-.03-.05-.05-.06-.02-.01-.05-.02-.09-.01-.03,0-.07.02-.11.04-.04.02-.08.06-.12.1Zm-.32.61s-.03.08-.04.11c0,.02,0,.03,0,.05s0,.03,0,.04c0,.02.02.03.04.04.01,0,.03.01.06.01s.06,0,.1-.03c.03-.01.05-.02.08-.04.03-.02.06-.03.09-.05.05-.04.1-.07.13-.1-.1,0-.19-.04-.26-.11-.03-.03-.06-.07-.08-.11,0,0,0,.01-.01.02,0,0,0,.01-.01.02,0,0-.01.01-.02.02,0,.01-.02.02-.02.04,0,.02-.02.03-.03.05,0,.02-.01.03-.02.05Zm-.27.29s-.04-.1-.03-.16c0-.03,0-.06.02-.1.02-.06.04-.11.07-.16.03-.05.06-.1.1-.15.05-.06.1-.11.14-.15.05-.03.08-.05.08-.06,0,0,0,0,0,0,.01-.04.03-.07.05-.11.02-.03.04-.06.06-.08.02-.02.04-.04.05-.06.02-.02.03-.03.04-.04.02-.02.05-.04.08-.05.03-.02.07-.03.1-.04.04,0,.07-.01.11-.01s.07,0,.1.02c.02.01.04.03.06.04.02.02.04.04.05.07,0,0,0,.02,0,.02,0,0,0,.02,0,.02,0,.03.01.07.02.11,0,.04,0,.09-.01.15,0,0,0,0,0,0-.01.06-.03.12-.05.16-.02.05-.03.08-.05.11-.01.02-.02.03-.02.03,0,0,0,0,0,0h0s.04,0,.05-.01c.02,0,.04-.01.05-.02.06-.02.12-.05.18-.08.06-.03.11-.06.15-.09.05-.03.1-.06.15-.1h0c.06-.06.13-.11.2-.17.01-.01.04-.03.07-.05.03-.02.06-.04.1-.06.04-.03.1-.06.17-.09.07-.03.13-.06.2-.08.06-.02.12-.03.18-.02.05,0,.09.03.11.08,0-.01.02-.03.03-.04,0-.01.02-.02.03-.04.15-.19.32-.39.53-.59.2-.2.43-.39.68-.56.03-.02.06-.03.08-.04.02,0,.05-.01.07-.02.03,0,.05,0,.07.01.01,0,.03.02.05.05.02.02.03.06.03.11,0,.05-.02.1-.05.17-.03.07-.1.14-.19.23-.09.09-.21.19-.37.31-.16.12-.36.24-.61.39l-.14.17s-.03.04-.06.08c-.03.03-.06.07-.09.12-.03.04-.06.09-.09.14-.03.05-.05.09-.07.13-.01.03-.02.06-.04.1-.01.04-.02.07-.03.11-.01.09,0,.16.02.21.03.06.07.08.14.08.04,0,.1-.02.17-.05.07-.03.14-.07.22-.12.08-.05.16-.1.24-.15.08-.06.16-.11.23-.16.18-.15.37-.28.54-.45-.04-.03-.07-.06-.08-.1-.02-.04-.02-.09-.02-.14,0-.04,0-.08.03-.12.02-.03.04-.06.06-.09.03-.03.06-.06.09-.08.03,0,.06.01.08.02.02.01.04.03.06.04.02.02.03.04.04.07h0s0,.01,0,.02c0,0,0,0-.01.01-.03.02-.05.06-.07.09-.01.02-.02.04-.03.06,0,.02,0,.04,0,.06,0,0,0,0,0,.01.01.05.04.07.07.06.02,0,.03,0,.05-.01.02,0,.03-.01.05-.02.1-.04.18-.05.24-.04.02,0,.04.01.06.02.02,0,.04.03.06.05.03.04.04.09.02.15-.02.06-.05.13-.1.19-.04.07-.1.14-.15.2-.06.07-.11.13-.15.18-.04.06-.07.1-.08.14-.01.04,0,.06.05.06.04,0,.1,0,.15-.02s.12-.04.18-.07c.06-.03.13-.06.19-.1.07-.04.13-.08.19-.12.07-.05.15-.1.23-.16.04-.06.08-.11.12-.15,0-.01.04-.03.08-.04.04-.02.09-.03.13-.05.05-.01.09-.02.12-.01.03,0,.04.02.04.05-.05.07-.1.14-.17.22-.06.08-.12.15-.17.21-.05.06-.08.12-.1.17-.02.05,0,.07.05.07.04,0,.1,0,.15-.02.06-.02.12-.04.18-.07.06-.03.13-.06.19-.1.07-.04.13-.08.19-.12.03-.02.05-.03.08-.05,0-.02.02-.03.03-.05.03-.04.08-.1.16-.17.08-.07.16-.15.26-.23.02-.01.04-.03.07-.05.03-.02.06-.04.09-.06.04-.03.1-.06.17-.09s.13-.06.2-.08c.06-.02.12-.03.18-.03.05,0,.09.03.12.07,0-.01.01-.03.02-.04,0-.01.01-.03.02-.04,0,0,0-.01.02-.01.01,0,.03,0,.06.01,0,0,.02.01.04.02.02.01.03.02.04.04.01.01.02.03.03.04,0,.02,0,.03,0,.04-.02.04-.04.08-.07.13-.03.05-.06.12-.1.19-.02.04-.05.09-.07.13-.02.05-.05.1-.08.15-.02.03-.04.06-.06.1-.02.03-.04.07-.06.1.01,0,.02-.01.03-.01,0,0,.02,0,.03-.01.15-.06.3-.11.44-.16.14-.05.27-.09.39-.12.12-.03.22-.06.31-.08.03,0,.05-.01.07-.02l.05-.07c.04-.05.08-.1.12-.15.04-.04.07-.08.1-.11.03-.03.05-.05.06-.07,0,0,.01,0,.02-.01,0,0,.02-.01.03-.02.07-.01.13-.02.16-.01.03,0,.06,0,.09,0,0,0,.01,0,.02.01,0,0,0,.01,0,.03-.09.09-.19.19-.29.31-.1.12-.19.23-.28.35,0,.01-.01.03-.02.04,0,0-.01.02-.02.03-.02.04-.04.08-.04.1,0,.03,0,.05,0,.06,0,.02.01.03.03.05,0,0,.02,0,.03,0,.06,0,.15-.04.25-.11.1-.07.2-.14.31-.23.11-.09.21-.18.31-.27.1-.09.18-.17.24-.22.03-.03.06-.06.07-.07.01-.02.03-.04.04-.06.02-.02.03-.03.04-.03.02,0,.04,0,.07,0,.03,0,.05,0,.07,0,.02,0,.04.02.05.04.01.02.02.05.01.08-.03.06-.07.13-.12.21-.05.08-.11.16-.17.24-.06.08-.13.16-.19.24-.06.08-.12.15-.16.21-.04.06-.07.11-.08.15-.01.04,0,.06.04.06.04,0,.1,0,.16-.02.06-.02.13-.05.2-.08.07-.04.14-.08.22-.12.08-.05.15-.1.22-.15.09-.07.19-.14.28-.22,0,0,0-.01.01-.02.04-.06.08-.12.12-.17.05-.05.09-.1.13-.14.04-.04.08-.07.1-.08,0,0,.01,0,.02-.01,0,0,.02-.01.03-.02.04-.02.08-.04.12-.06.04-.02.08-.03.11-.04.03,0,.05,0,.08,0s.04,0,.06.02c.04.03.07.06.08.1.01.03.01.06,0,.1,0,0,0,.01,0,.02,0,0,0,.02-.01.03-.04.06-.09.1-.16.13-.07.03-.14.05-.21.06-.02,0-.04,0-.06.01-.02,0-.04,0-.06,0-.01,0-.02,0-.03,0s-.02,0-.03,0c0,.01-.02.03-.03.05-.01.02-.03.05-.04.07-.01.02-.02.05-.03.07-.01.02-.02.04-.02.05,0,0,0,.02,0,.04s0,.04.02.06c0,.02.02.04.04.05.02.02.05.02.09.02,0,0,.02,0,.03,0,.01,0,.02,0,.04,0,.07-.01.16-.04.25-.09.1-.05.19-.1.29-.16.09-.06.18-.11.26-.17.04-.03.08-.05.11-.07h0c.21-.17.39-.32.53-.44.14-.12.22-.2.26-.23,0-.02.02-.03.03-.05.02-.02.05-.04.09-.04.04,0,.08,0,.12,0,.04,0,.09,0,.14.02-.02,0-.04.02-.07.05-.02.03-.05.06-.07.1-.03.04-.05.09-.08.15-.03.08-.05.16-.08.23-.02.07-.05.14-.08.21.09-.01.17-.02.25-.02.08,0,.14,0,.2-.01.07,0,.13,0,.19,0h.24c-.19.01-.35.03-.5.05-.15.02-.29.05-.41.08-.08.18-.15.33-.23.45-.08.12-.15.21-.22.28-.07.06-.14.1-.2.12-.06.02-.12.01-.17-.01-.06-.03-.11-.06-.14-.1-.03-.04-.05-.07-.06-.11-.01-.04-.02-.08-.02-.12.02-.07.06-.14.11-.2.05-.06.11-.11.18-.15.07-.04.15-.08.23-.11.09-.03.17-.06.26-.08.04-.09.08-.19.11-.28.03-.09.06-.17.09-.24-.11.1-.21.19-.32.27-.08.06-.14.11-.2.16h.01c-.13.1-.26.2-.39.29-.11.07-.23.15-.35.22-.12.07-.23.12-.33.15-.07.02-.13.03-.18.03s-.09,0-.12-.02c-.04-.01-.07-.03-.1-.05-.03-.03-.05-.06-.07-.1-.02-.04-.03-.09-.03-.15-.05.04-.1.08-.15.12-.08.06-.16.11-.25.17-.09.05-.17.1-.26.14-.09.04-.17.07-.26.09-.08.02-.16.02-.23.01-.08-.01-.12-.05-.12-.11,0-.06,0-.13.04-.22.04-.09.08-.18.15-.28.06-.1.13-.19.19-.28-.07.07-.14.14-.22.21-.08.08-.17.15-.25.21-.08.07-.17.12-.25.16-.08.04-.16.07-.23.07h-.04s-.03,0-.04,0c-.04,0-.08-.02-.1-.03-.03-.02-.04-.04-.06-.06-.01-.02-.02-.05-.02-.08s0-.06,0-.09c0-.03.02-.07.03-.1.01-.03.03-.06.05-.09.02-.03.03-.05.05-.08-.08.02-.16.04-.25.07-.12.03-.24.07-.38.12-.14.05-.28.1-.43.16-.03.01-.06.02-.11.04-.05.02-.08.03-.1.05-.01.02-.02.03-.03.05,0,.02-.02.03-.03.05-.07.12-.15.24-.22.36-.08.12-.16.24-.24.35-.08.11-.17.22-.25.33-.08.1-.17.19-.25.28-.03.03-.06.06-.11.11-.04.04-.09.08-.14.12-.05.04-.09.08-.13.11-.04.03-.08.05-.1.05-.03,0-.05,0-.07-.02-.02-.02-.02-.03-.03-.04,0-.01-.02-.03-.03-.05-.01-.02-.02-.05-.03-.08,0-.03-.01-.07-.02-.11,0-.04,0-.09.01-.13,0-.04.03-.08.06-.13.03-.05.07-.11.11-.17.04-.06.09-.12.15-.18.06-.06.11-.12.17-.18.06-.06.12-.11.17-.17.06-.05.11-.09.16-.13.08-.07.17-.13.26-.19.09-.06.19-.11.29-.17.04-.06.07-.11.11-.17.04-.06.07-.11.1-.17.04-.06.08-.13.11-.19.04-.07.07-.13.11-.2,0,0,0-.02.01-.02,0,0,0-.02.01-.02-.04.04-.09.09-.17.16-.08.07-.16.15-.25.23-.09.08-.19.15-.28.22-.1.07-.18.11-.26.13-.05.01-.1.01-.13,0-.03-.02-.06-.05-.07-.09,0-.03-.01-.06-.01-.09-.07.05-.15.09-.22.13-.08.04-.16.08-.24.12-.08.03-.15.06-.23.07-.07.02-.14.02-.2.01-.09-.01-.14-.04-.16-.1-.01-.06,0-.12.02-.19.01-.03.02-.05.04-.08-.02.01-.03.02-.05.03-.07.05-.15.09-.23.14-.08.04-.16.08-.23.12-.08.03-.15.06-.23.07-.07.02-.14.02-.2.01-.08,0-.12-.03-.14-.07-.02-.04-.03-.09-.01-.15.01-.06.04-.12.07-.18.04-.06.07-.13.11-.18.04-.06.08-.11.11-.16.04-.05.06-.08.07-.1,0,0,0-.02.01-.03,0-.02,0-.03,0-.04,0,0-.01-.01-.03-.01-.01,0-.03,0-.04,0-.05.01-.09.02-.11.02-.03,0-.04,0-.06,0,0,0,0,0,0,0,0,0,0,0,0,0-.02.02-.03.03-.04.05-.01.01-.02.03-.04.04-.01.01-.02.02-.04.03-.01.01-.03.02-.04.03-.02,0-.03.02-.05.04-.1.08-.21.15-.31.23-.08.07-.17.13-.25.18-.07.05-.15.1-.22.15-.08.05-.15.09-.22.13-.07.04-.14.07-.2.09-.06.02-.12.03-.16.03-.07,0-.13-.02-.18-.04-.05-.02-.09-.05-.13-.09-.04-.04-.06-.11-.07-.19,0-.06,0-.12.02-.18.02-.07.04-.13.07-.19.03-.07.06-.14.1-.2-.14.11-.27.22-.38.31-.05.04-.1.08-.15.11-.05.04-.1.07-.14.1-.04.03-.08.06-.12.08-.03.02-.06.03-.08.04-.05.01-.1.01-.13,0-.03-.02-.06-.04-.07-.08-.01-.03-.01-.07,0-.12,0-.04.03-.08.06-.12-.05.03-.1.06-.16.09-.09.05-.19.08-.29.1,0,0-.02,0-.02,0-.05.06-.12.12-.19.18-.08.06-.17.11-.28.16-.01,0-.02.01-.04.01-.01,0-.02,0-.03.01-.05.01-.09.02-.12.02-.03,0-.06,0-.08,0-.03,0-.05-.01-.07-.02-.02-.01-.03-.03-.04-.04-.01-.01-.02-.03-.03-.04Zm5.54-.88s-.02-.03,0-.06c.02-.04.04-.08.07-.12.03-.04.05-.09.08-.13.02-.05.03-.08.03-.11,0,0,0,0,0-.01,0-.01.02-.02.04-.04.02-.01.05-.03.1-.05.05-.02.09-.03.13-.04.04,0,.07,0,.08.04.02.03,0,.08-.04.17-.03.06-.07.12-.12.17-.05.05-.09.11-.14.19-.04,0-.07,0-.1,0-.03,0-.05,0-.08,0-.02,0-.04,0-.05,0Z"/><g class="cls-1"><rect class="cls-4" x="35.51" y="24.22" width="43.23" height="5.75"/></g></svg>