<?xml version="1.0" encoding="utf-8"?>
<!-- Generator: Adobe Illustrator 27.1.1, SVG Export Plug-In . SVG Version: 6.00 Build 0)  -->
<svg version="1.1" id="Layer_1" xmlns="http://www.w3.org/2000/svg" xmlns:xlink="http://www.w3.org/1999/xlink" x="0px" y="0px"
	 viewBox="0 0 184.9 89" style="enable-background:new 0 0 184.9 89;" xml:space="preserve">
<style type="text/css">
	.st0{fill:#E4C66A;}
	.st1{clip-path:url(#SVGID_00000182506667355320874070000004829279378160492174_);}
	.st2{clip-path:url(#SVGID_00000079452421702604555850000009704517955852585149_);}
	.st3{clip-path:url(#SVGID_00000016058835729807992920000015670960006864059045_);}
	.st4{clip-path:url(#SVGID_00000163033916766018554970000010463922496755301785_);}
	.st5{clip-path:url(#SVGID_00000037690028896013182830000016623388583278227613_);}
	.st6{clip-path:url(#SVGID_00000180329173914155764310000006228807639539291560_);}
</style>
<g>
	<path class="st0" d="M179.3,51.8c0.3-0.1,0.6-0.2,0.9-0.3c0.3-0.2,0.6-0.3,0.8-0.6c0.3-0.2,0.5-0.5,0.7-0.8c0.2-0.3,0.4-0.6,0.5-1
		l0,0c0.1-0.3,0.3-0.7,0.4-1.1c0.1-0.4,0.2-0.8,0.2-1.3l0,0c0-0.5,0-0.9,0-1.4s-0.1-0.9-0.2-1.4l0,0c-0.1-0.5-0.2-0.9-0.4-1.3
		c-0.2-0.4-0.4-0.8-0.6-1.2c-0.2-0.4-0.5-0.7-0.8-1s-0.6-0.6-0.9-0.9l0,0c-0.3-0.2-0.6-0.5-0.9-0.6c-0.3-0.2-0.6-0.3-1-0.4l0,0
		c-0.3-0.1-0.7-0.2-1-0.2c-0.3,0-0.6,0-1,0.1l0,0c-0.3,0.1-0.6,0.2-0.9,0.4c-0.3,0.2-0.6,0.3-0.8,0.6l0,0c-0.3,0.2-0.5,0.5-0.7,0.8
		c-0.2,0.3-0.4,0.6-0.5,1l0,0c-0.1,0.3-0.3,0.7-0.4,1.1s-0.1,0.8-0.2,1.3l0,0c0,0.5,0,0.9,0,1.4c0,0.5,0.1,0.9,0.2,1.4
		s0.2,0.9,0.4,1.3c0.2,0.4,0.4,0.8,0.6,1.2c0.2,0.4,0.5,0.7,0.8,1.1s0.6,0.6,0.9,0.8l0,0c0.3,0.2,0.6,0.5,0.9,0.6
		c0.3,0.2,0.6,0.3,1,0.4c0.3,0.1,0.6,0.2,1,0.2C178.7,51.9,179,51.9,179.3,51.8L179.3,51.8L179.3,51.8z M128.6,37.9
		c0.9-1.8,1.8-3.5,2.6-5.2l0,0c0.4-0.9,0.9-1.9,1.2-2.8s0.8-1.8,1.1-2.7c0.3-0.9,0.6-1.7,0.9-2.5c0.2-0.8,0.4-1.5,0.6-2.2l0,0
		c0.1-0.7,0.2-1.3,0.2-1.8c0-0.5,0-1-0.1-1.3c-0.1-0.3-0.2-0.5-0.4-0.7c-0.2-0.1-0.5-0.2-0.9-0.2c-0.4,0-0.8,0.1-1.1,0.3
		c-0.4,0.2-0.7,0.5-1,1c-0.4,0.5-0.7,1-1,1.6c-0.3,0.6-0.6,1.3-0.8,2.1l0,0c-0.2,0.8-0.4,1.6-0.6,2.5c-0.2,0.9-0.3,1.8-0.4,2.9l0,0
		c-0.1,1-0.2,2-0.3,3.1s-0.1,2.1-0.1,3.1C128.5,36,128.5,37,128.6,37.9L128.6,37.9z M149.7,31.6c-0.6-0.2-1.2-0.4-1.7-0.6
		c-0.5-0.1-1-0.3-1.5-0.3c-0.4-0.1-0.8,0-1.1,0c-0.3,0.1-0.6,0.2-0.8,0.4l0,0c-0.2,0.2-0.4,0.3-0.5,0.4c-0.2,0.1-0.4,0.2-0.6,0.2
		l0,0c-0.2,0.1-0.4,0.1-0.6,0.1c-0.2,0-0.4,0-0.6-0.1l0,0c-0.2-0.1-0.4-0.3-0.4-0.6c0-0.2,0-0.4,0.1-0.6l0,0
		c0.1-0.2,0.2-0.4,0.4-0.6c0.2-0.2,0.4-0.4,0.7-0.6l0,0c0.6-0.5,1.2-0.9,1.8-1.1c0.6-0.3,1.2-0.5,1.8-0.7l0,0
		c0.6-0.1,1.1-0.2,1.6-0.2c0.5,0,1,0,1.5,0c0.5,0.1,0.9,0.1,1.4,0.3c0.4,0.1,0.9,0.3,1.3,0.5l0,0c0.4,0.2,0.7,0.3,1.1,0.5
		c0.3,0.2,0.7,0.3,1,0.5l0,0c0.3,0.1,0.6,0.3,0.8,0.4c0.2,0.1,0.5,0.2,0.7,0.3l0,0c0.1,0,0.3,0.1,0.4,0c0.1,0,0.2-0.1,0.3-0.2l0,0
		c0.1-0.1,0.2-0.2,0.4-0.3c0.1-0.1,0.3-0.1,0.5-0.2c0.2,0,0.3-0.1,0.5-0.1c0.2,0,0.3,0,0.5,0c0.2,0.1,0.4,0.2,0.5,0.4
		s0.1,0.4,0.1,0.6l0,0c0,0.2-0.2,0.4-0.4,0.6c-0.1,0.1-0.3,0.3-0.6,0.5c-0.4,0.4-0.9,0.7-1.3,1c-0.4,0.3-0.9,0.5-1.3,0.6
		c-0.4,0.1-0.8,0.2-1.2,0.2c-0.4,0-0.8,0-1.1,0l0,0c-0.4,0-0.7-0.1-1.1-0.2c-0.3-0.1-0.7-0.2-1-0.4l0,0c-0.3-0.1-0.6-0.3-0.9-0.4
		S150,31.7,149.7,31.6L149.7,31.6z M39.5,34.4c-0.2-0.5-0.4-0.9-0.5-1.4c-0.3-1.2-0.5-2.6-0.5-4.1c0-1,0.1-2,0.4-2.9
		c0.2-0.9,0.6-1.8,1.1-2.7l0,0c0.5-0.8,1-1.6,1.7-2.4c0.7-0.7,1.4-1.4,2.2-2.1c0.8-0.6,1.6-1.2,2.5-1.7c-0.6-2.9-1.7-5.5-3.1-7.6
		c-2.2-3.2-5.1-5.3-8-5.3c-2.4,0-4.5,1.4-5.9,3.6c-1.6,2.4-2.5,5.7-2.5,9.4c0,4.7,1.4,9,3.5,12.2c2.2,3.2,5.1,5.2,8.1,5.2
		C38.7,34.5,39.1,34.4,39.5,34.4L39.5,34.4z M31.3,44c0.7-0.5,0.9-1,0.9-1.7c0-0.4,0-0.9-0.2-1.2c-0.1-0.2-0.4-0.4-0.8-0.4
		c-0.7,0-1.4,0.2-2,1c-0.5,0.6-0.9,1.5-1.2,2.9L28,45.4C29.5,44.9,30.6,44.5,31.3,44L31.3,44z M33.4,45.8c-1.3,0.9-3.2,1.6-5.4,2
		c0.1,0.9,0.4,2,1.3,2.8c0.7,0.7,1.6,1.1,3.1,1.1c0.4,0,1,0,1.7-0.2c0.5-0.1,1-0.2,1.4-0.4l0.4-0.2l0.8,1.3l-0.3,0.3
		c-0.9,0.7-1.6,1.2-2.5,1.6c-0.9,0.4-1.9,0.6-3.1,0.6l0,0c-1.6,0-3.2-0.9-4.4-2.2c-1.1-1.3-1.9-3-1.9-4.9v-0.5c0-2.6,0.7-4.7,2-6.2
		c1.3-1.5,3.1-2.3,5.4-2.3h0.1c1.1,0,2.1,0.3,2.8,0.9c0.7,0.6,1.1,1.5,1.1,2.5C35.7,43.7,34.8,44.9,33.4,45.8L33.4,45.8z M5,54.4
		c-0.4,0.2-0.9,0.4-1.4,0.4c-0.6,0-1.3-0.2-1.8-1.2c-0.3-0.6-0.5-1.5-0.5-2.8v-7.6c0-0.9-0.1-1.4-0.2-1.8c-0.1-0.3-0.3-0.5-0.6-0.6
		L0,40.5L0.4,40c0.4-0.4,0.8-0.7,1.2-0.9c0.4-0.2,0.9-0.3,1.4-0.4h0.1c0.3,0,0.9,0.3,1.3,1.1c0.1,0.2,0.2,0.5,0.3,0.9
		c0.2-0.3,0.4-0.5,0.7-0.8c0.7-0.7,1.7-1.2,2.9-1.2h0.2c1,0,2.1,0.4,2.9,1.2c0.5,0.5,0.9,1,1.2,1.7c0.5-0.7,1-1.4,1.5-1.9
		c0.7-0.7,1.6-1,2.4-1h0.2c1.2,0,2.4,0.5,3.3,1.6c0.8,0.9,1.2,2.1,1.2,3.7v6.8c0,0.6,0.1,1.1,0.2,1.4c0.1,0.2,0.3,0.4,0.6,0.4
		l0.6,0.1l-0.2,0.6c-0.1,0.3-0.6,0.7-1.1,1c-0.4,0.2-0.9,0.4-1.4,0.4c-0.8,0-1.4-0.4-1.8-1.2c-0.3-0.7-0.5-1.6-0.5-2.8v-6.7
		c0-0.8-0.3-1.6-0.6-2.1c-0.4-0.5-0.9-0.9-1.4-0.9s-1,0.4-1.4,0.9c-0.6,0.7-1.1,1.7-1.3,2.5v6.4c0,0.6,0.1,1.1,0.2,1.4
		c0.1,0.2,0.3,0.4,0.6,0.4l0.7,0.1l-0.4,0.6c-0.2,0.3-0.6,0.7-1.1,1c-0.4,0.2-0.9,0.4-1.3,0.4c-0.8,0-1.4-0.4-1.8-1.2
		C9.8,53,9.6,52,9.6,50.8V44c0-0.8-0.3-1.6-0.6-2.1c-0.4-0.5-0.9-0.8-1.4-0.8H7.5c-0.6,0-1.1,0.4-1.5,1c-0.7,0.9-1.1,2.1-1.1,2.7
		v6.1c0,0.6,0.1,1.1,0.2,1.4c0.1,0.2,0.3,0.4,0.6,0.4l0.6,0.1l-0.2,0.6C6,53.7,5.5,54.1,5,54.4L5,54.4z M89.2,23.3
		c-0.1-0.6-0.2-1.2-0.4-1.7c-0.3-0.9-0.8-1.7-1.4-2.4l0,0c-0.3-0.3-0.6-0.7-0.9-1l0,0c-0.4-0.3-0.8-0.6-1.2-1l0,0
		c-0.4-0.3-1-0.6-1.6-0.9c-0.6-0.3-1.2-0.6-1.9-0.8s-1.5-0.5-2.3-0.7c-0.8-0.2-1.8-0.4-2.7-0.6l0,0c-1-0.1-2.1-0.3-3.2-0.4
		c-1.2-0.1-2.4-0.1-3.7-0.1s-2.6,0.1-3.8,0.2c-1.2,0.1-2.5,0.3-3.7,0.5c-1.2,0.2-2.4,0.5-3.5,0.9c-1.1,0.3-2.2,0.7-3.2,1.1l0,0
		c-0.4,0.2-0.8,0.4-1.2,0.5c0,0.5,0,1,0,1.6c0,5.1-1.3,9.5-3.7,12.9c0.4,0.3,0.9,0.6,1.4,0.9c1.1,0.7,2.3,1.3,3.8,1.9
		c1.4,0.6,3.1,1.2,4.9,1.8c1.8,0.6,3.9,1.1,6.1,1.6c2,0.5,4,1,5.9,1.4c1.9,0.5,3.7,1,5.4,1.5c1.7,0.5,3.3,1.1,4.8,1.7
		c1.5,0.6,2.8,1.3,4.1,2c1.3,0.7,2.4,1.5,3.4,2.4c1,0.9,1.8,1.8,2.5,2.9l0,0c0.7,1,1.2,2.2,1.6,3.5c0.3,1.3,0.5,2.7,0.5,4.2
		s-0.2,2.9-0.5,4.2c-0.3,1.3-0.8,2.5-1.5,3.6c-0.7,1.1-1.4,2.1-2.4,3c-0.9,0.9-1.9,1.7-3.1,2.4c-1.2,0.7-2.4,1.3-3.8,1.8
		s-2.8,0.9-4.4,1.3l0,0c-1.6,0.3-3.2,0.6-4.9,0.7c-1.7,0.2-3.4,0.2-5.2,0.2s-3.6-0.1-5.4-0.3c-1.8-0.2-3.5-0.4-5.2-0.8
		c-1.7-0.3-3.3-0.8-4.9-1.2s-3-1-4.3-1.7c-1.4-0.6-2.6-1.3-3.7-2.1c-1.1-0.8-2-1.6-2.9-2.5c-0.8-0.9-1.5-1.9-1.9-2.9
		c-0.4-1-0.6-2.1-0.6-3.2c0-0.6,0.1-1.2,0.2-1.7c0.2-0.5,0.4-1,0.7-1.4c0.3-0.4,0.6-0.7,1-1s0.8-0.5,1.2-0.6
		c0.4-0.2,0.9-0.2,1.3-0.3s0.9,0,1.4,0l0,0c0.5,0.1,1,0.2,1.4,0.3c0.5,0.2,0.9,0.4,1.3,0.6l0,0c0.4,0.2,0.7,0.5,1,0.9
		c0.3,0.4,0.5,0.8,0.7,1.3c0.2,0.5,0.3,1,0.3,1.5c0,0.5,0,1-0.1,1.5l0,0c-0.1,0.5-0.3,1-0.5,1.5c-0.2,0.5-0.5,0.9-0.9,1.4
		c-0.4,0.5-0.9,0.9-1.4,1.2c-0.4,0.2-0.8,0.4-1.2,0.6c0.2,0.2,0.4,0.4,0.6,0.6c0.5,0.4,1.1,0.8,1.8,1.2l0,0c0.8,0.4,1.6,0.8,2.4,1.2
		s1.8,0.7,2.8,1l0,0c1,0.3,2,0.6,3.1,0.9s2.1,0.5,3.2,0.7c1.1,0.2,2.2,0.3,3.2,0.4c1,0.1,2,0.1,2.9,0.1c1.6,0,3.1-0.1,4.6-0.3
		c1.5-0.2,2.9-0.5,4.2-0.9c1.4-0.4,2.6-0.9,3.7-1.5c1.1-0.6,2.1-1.2,3-1.8l0,0c0.9-0.7,1.6-1.4,2.2-2.1c0.6-0.8,1.1-1.6,1.4-2.4
		c0.3-0.8,0.4-1.7,0.4-2.5c-0.1-0.8-0.3-1.7-0.8-2.6c-0.4-0.9-1.1-1.8-2-2.7c-0.9-0.9-2-1.8-3.4-2.7c-1.4-0.9-3-1.7-4.9-2.5
		c-1.9-0.8-4.2-1.5-6.7-2.2c-2.5-0.7-4.7-1.3-6.8-1.9c-1.9-0.5-3.9-1.1-6-1.6c-1.8-0.5-3.5-1-5.1-1.6c-0.1,0-0.3-0.1-0.4-0.1v8.3
		c0,0.6,0.1,1.1,0.2,1.4c0.1,0.2,0.3,0.4,0.6,0.4l0.6,0.1l-0.2,0.6c-0.1,0.3-0.6,0.7-1.1,1c-0.4,0.2-0.9,0.4-1.4,0.4
		c-0.7,0-1.2-0.3-1.6-0.9l0,0c-0.2-0.3-0.4-0.7-0.5-1.2c-0.5,0.5-1,0.9-1.5,1.3c-0.7,0.5-1.3,0.7-2,0.7h-0.3c-1.2,0-2.5-0.5-3.4-1.5
		c-0.8-0.8-1.3-2-1.3-3.6v-6.9c0-0.7-0.1-1.2-0.2-1.5c-0.1-0.2-0.3-0.4-0.5-0.6l-0.5-0.3l0.3-0.4c0.4-0.4,0.8-0.7,1.2-0.9
		c0.5-0.2,1-0.3,1.5-0.4h0.1l0.1,0.1c0.4,0.3,0.8,0.7,1.1,1.2c0.2,0.5,0.4,1,0.4,1.7v8.1l0,0c0,0.8,0.2,1.5,0.6,1.9
		c0.4,0.4,1,0.6,1.6,0.6h0.3c0.3,0,1-0.4,1.5-1c0.4-0.4,0.7-1,0.7-1.5v-6.7c0-0.9-0.1-1.4-0.2-1.8c-0.1-0.3-0.3-0.5-0.6-0.6
		l-0.5-0.3l0,0c-0.9-0.5-1.7-1-2.5-1.6c-0.4-0.3-0.7-0.6-1.1-0.9c-1.7,0.5-3.5,0.8-5.4,0.8c-5.1,0-9.7-1.9-12.9-5.4
		c-3-3.3-4.8-8-4.8-14s1.7-10.7,4.8-14C26.8,1.8,31.2,0,36.6,0s9.8,1.7,13,5c2.1,2.2,3.6,5.1,4.3,8.7c0.7-0.2,1.4-0.4,2.1-0.6l0,0
		c1.2-0.3,2.3-0.6,3.5-0.8c1.2-0.2,2.3-0.4,3.6-0.6c1.2-0.1,2.4-0.3,3.5-0.3c1.2-0.1,2.3-0.1,3.4-0.1c1.6,0,3.2,0.1,4.6,0.2
		c1.5,0.1,2.9,0.4,4.2,0.7l0,0c1.3,0.3,2.5,0.6,3.7,1.1c1.1,0.4,2.2,0.9,3.2,1.4l0,0c1,0.5,1.8,1.1,2.6,1.7c0.8,0.6,1.4,1.2,2,1.9
		l0,0c0.6,0.7,1.1,1.4,1.4,2.2c0.4,0.8,0.6,1.5,0.7,2.4l0,0c0.1,0.8,0.2,1.5,0.1,2.1c0,0.7-0.1,1.3-0.3,1.9c-0.2,0.5-0.4,1-0.7,1.5
		c-0.3,0.5-0.6,0.9-0.9,1.2l0,0c-0.4,0.4-0.8,0.6-1.2,0.9c-0.4,0.2-0.9,0.5-1.4,0.6l0,0c-0.5,0.1-0.9,0.3-1.4,0.3
		c-0.5,0.1-0.9,0.1-1.4,0.1c-0.3,0-0.7,0-1-0.1c-0.3-0.1-0.7-0.2-1-0.3c-0.3-0.1-0.6-0.3-0.8-0.5c-0.3-0.2-0.5-0.4-0.7-0.6
		c-0.2-0.2-0.4-0.4-0.6-0.7s-0.3-0.5-0.4-0.8l0,0c-0.1-0.3-0.2-0.6-0.3-0.9c-0.1-0.3-0.1-0.6-0.1-0.9s0-0.6,0.1-0.9
		c0.1-0.3,0.2-0.6,0.3-0.9l0,0c0.1-0.3,0.3-0.6,0.4-0.8c0.2-0.2,0.4-0.5,0.6-0.7l0,0c0.2-0.2,0.5-0.4,0.8-0.6
		c0.3-0.2,0.6-0.3,0.9-0.5s0.7-0.2,1-0.3c0.4-0.1,0.7-0.1,1.1-0.1c0.3,0,0.5,0,0.8,0.1c0.3,0.1,0.6,0.1,0.8,0.2l0,0
		c0.3,0.1,0.5,0.2,0.8,0.3c0.3,0.1,0.5,0.2,0.7,0.4l0,0C88.8,23.1,89,23.2,89.2,23.3L89.2,23.3z M123.8,50.8
		c-0.2,0.3-0.4,0.5-0.7,0.8s-0.5,0.6-0.8,0.9l0,0c-0.3,0.3-0.6,0.6-0.9,0.9c-0.3,0.3-0.7,0.6-1,0.8l0,0c-0.4,0.3-0.7,0.5-1.1,0.7
		c-0.4,0.2-0.8,0.4-1.2,0.6c-0.4,0.2-0.9,0.3-1.4,0.4c-0.5,0.1-0.9,0.1-1.4,0.1c-0.5,0-1-0.1-1.5-0.3c-0.5-0.2-0.9-0.4-1.4-0.8
		c-0.4-0.3-0.8-0.7-1.1-1s-0.7-0.7-0.9-1.1l0,0c-0.3-0.4-0.5-0.8-0.7-1.1c-0.2-0.4-0.4-0.7-0.6-1.1l0,0l-0.1-0.2l-0.1,0.2l0,0
		c-0.2,0.3-0.4,0.7-0.7,1.1c-0.3,0.4-0.6,0.7-0.9,1.1c-0.3,0.4-0.7,0.8-1.1,1.1s-0.8,0.7-1.3,1c-0.5,0.3-1,0.6-1.6,0.8
		c-0.6,0.2-1.1,0.3-1.7,0.3s-1.2-0.1-1.7-0.2c-0.6-0.1-1.1-0.3-1.5-0.6c-0.5-0.2-0.9-0.5-1.3-0.9c-0.4-0.3-0.7-0.7-1-1.2l0,0
		c-0.3-0.4-0.5-0.9-0.7-1.4c-0.2-0.5-0.3-1-0.4-1.6l0,0c-0.1-0.5-0.1-1.1-0.1-1.7s0.1-1.2,0.2-1.8l0,0c0.1-0.6,0.3-1.2,0.5-1.8
		c0.2-0.6,0.4-1.2,0.8-1.8c0.3-0.6,0.7-1.2,1.1-1.8c0.4-0.6,0.8-1.2,1.3-1.7l0,0c0.5-0.6,1.1-1.1,1.7-1.6c0.6-0.5,1.2-0.8,1.8-1.1
		s1.2-0.5,1.8-0.8s1.2-0.4,1.8-0.5l0,0c0.5-0.1,1-0.2,1.5-0.2c0.5,0,1,0,1.4,0l0,0c0.4,0,0.9,0.1,1.3,0.2c0.4,0.1,0.8,0.2,1.1,0.2
		c0.3,0.1,0.6,0.2,0.9,0.3c0.3,0.1,0.5,0.3,0.7,0.4l0,0c0.2,0.2,0.4,0.4,0.5,0.6c0.1,0.3,0.1,0.6-0.1,0.8l0,0
		c-0.1,0.2-0.3,0.3-0.4,0.4c-0.2,0.1-0.4,0.2-0.6,0.1l0,0c-0.1,0-0.2,0-0.4-0.1c-0.1,0-0.2-0.1-0.4-0.2l0,0
		c-0.1-0.1-0.3-0.1-0.4-0.2c-0.2-0.1-0.4-0.1-0.6-0.2l0,0c-0.2-0.1-0.4-0.1-0.7-0.1c-0.3,0-0.6,0-1,0c-0.3,0-0.7,0-1,0.1
		c-0.3,0.1-0.7,0.2-1,0.3l0,0c-0.3,0.2-0.7,0.3-1,0.5c-0.3,0.2-0.7,0.5-1,0.7l0,0c-0.3,0.3-0.6,0.6-0.9,0.9c-0.3,0.3-0.6,0.7-0.8,1
		c-0.2,0.3-0.5,0.7-0.6,1.1c-0.2,0.4-0.3,0.8-0.4,1.1l0,0c-0.2,0.6-0.3,1.2-0.3,1.7c-0.1,0.5-0.1,1,0,1.4s0.1,0.8,0.2,1.2
		c0.1,0.4,0.2,0.7,0.4,1s0.3,0.6,0.6,0.8c0.2,0.2,0.4,0.4,0.6,0.5l0,0c0.2,0.2,0.5,0.3,0.7,0.3c0.2,0.1,0.4,0.1,0.6,0.1
		c0.4,0,0.7,0,1-0.2c0.3-0.1,0.6-0.3,0.8-0.5c0.3-0.2,0.5-0.5,0.7-0.8c0.2-0.3,0.4-0.6,0.6-1l0,0c0.2-0.4,0.3-0.8,0.5-1.2
		c0.2-0.4,0.3-0.8,0.4-1.3c0.1-0.5,0.2-1,0.3-1.3c0.1-0.2,0.2-0.6,0.3-1.2l0,0c0.1-0.4,0.2-0.8,0.3-1.1c0.1-0.3,0.2-0.7,0.3-0.9l0,0
		c0.1-0.3,0.3-0.6,0.5-0.8c0.2-0.2,0.5-0.3,0.8-0.3s0.6,0.1,0.9,0.3c0.2,0.2,0.4,0.4,0.6,0.8l0,0c0.2,0.3,0.3,0.6,0.5,1
		c0.2,0.4,0.3,0.8,0.5,1.2l0,0c0.2,0.4,0.3,0.8,0.5,1.3c0.2,0.5,0.4,1,0.5,1.4c0.2,0.5,0.4,0.9,0.6,1.4c0.2,0.4,0.4,0.8,0.6,1.3
		c0.2,0.4,0.4,0.8,0.7,1.1c0.2,0.3,0.5,0.6,0.8,0.9c0.2,0.2,0.5,0.4,0.7,0.5c0.2,0.1,0.5,0.2,0.8,0.2c0.2,0,0.4,0,0.6-0.1
		s0.4-0.1,0.6-0.2l0,0c0.2-0.1,0.4-0.2,0.6-0.3c0.2-0.1,0.3-0.2,0.5-0.4l0,0c0.2-0.1,0.3-0.3,0.5-0.5c0.2-0.2,0.3-0.4,0.5-0.5l0,0
		l1.1-1.3l-0.1,0l0.2-0.3c-0.1-0.4-0.2-0.9-0.3-1.3c-0.2-0.7-0.3-1.4-0.4-2.1l0,0c-0.1-0.7-0.2-1.5-0.3-2.2
		c-0.1-0.7-0.1-1.5-0.2-2.2c-0.1-0.7-0.1-1.4-0.1-2.1c0-0.7,0-1.3,0-2v0c0.2-1.8,0.4-3.6,0.8-5.3c0.3-1.7,0.8-3.2,1.3-4.7
		c0.2-0.6,0.4-1.2,0.7-1.9s0.6-1.2,0.9-1.8c0.3-0.6,0.7-1.2,1-1.7c0.4-0.5,0.8-1.1,1.2-1.5c0.4-0.5,0.9-0.9,1.4-1.3
		c0.5-0.4,1-0.7,1.6-1l0,0c0.6-0.3,1.2-0.5,1.8-0.7s1.3-0.2,2-0.2c0.8,0,1.4,0.1,1.9,0.4c0.6,0.3,1,0.7,1.2,1.3
		c0.2,0.5,0.4,1.1,0.5,1.8c0.1,0.6,0.1,1.4,0,2.1c-0.1,0.8-0.3,1.6-0.5,2.5c-0.2,0.9-0.5,1.8-0.9,2.8l0,0c-0.4,1-0.7,2-1.1,2.9
		c-0.4,1-0.9,2-1.3,3l0,0c-1.1,2.4-2.4,4.9-3.9,7.5c-0.4,0.7-0.8,1.4-1.2,2.2c0.1,0.7,0.2,1.3,0.3,1.9c0.2,0.9,0.4,1.7,0.6,2.5
		s0.5,1.5,0.7,2.1c0.3,0.6,0.6,1.1,0.9,1.6l0,0c0.3,0.4,0.6,0.7,0.9,0.9c0.3,0.2,0.6,0.3,1,0.3h0.1c0.2,0,0.4,0,0.5,0
		c0.2,0,0.4-0.1,0.7-0.2h0c0.2-0.1,0.4-0.2,0.7-0.4c0.3-0.2,0.5-0.4,0.9-0.7l0,0c0.3-0.2,0.6-0.6,0.9-1c0.3-0.3,0.6-0.7,0.9-1.1
		c0-0.5,0.1-0.9,0.1-1.4l0,0c0.1-0.6,0.3-1.2,0.5-1.8c0.2-0.6,0.4-1.2,0.8-1.8c0.3-0.6,0.6-1.2,1.1-1.8c0.4-0.6,0.9-1.2,1.4-1.7l0,0
		c0.5-0.6,1.1-1.1,1.7-1.6c0.6-0.5,1.2-0.8,1.8-1.1c0.6-0.3,1.2-0.5,1.8-0.8c0.6-0.2,1.2-0.4,1.8-0.5l0,0c0.5-0.1,1-0.2,1.5-0.2
		c0.5,0,1,0,1.4,0l0,0c0.4,0,0.9,0.1,1.3,0.2c0.4,0.1,0.8,0.2,1.1,0.2s0.6,0.2,0.9,0.3c0.3,0.1,0.5,0.3,0.7,0.4l0,0
		c0.2,0.2,0.4,0.4,0.5,0.6c0.1,0.3,0.1,0.6-0.1,0.8l0,0c-0.1,0.2-0.3,0.3-0.4,0.4c-0.2,0.1-0.4,0.2-0.6,0.1l0,0
		c-0.1,0-0.2,0-0.4-0.1c-0.1,0-0.2-0.1-0.4-0.2l0,0c-0.1-0.1-0.3-0.1-0.4-0.2c-0.2-0.1-0.4-0.1-0.6-0.2l0,0
		c-0.2-0.1-0.4-0.1-0.7-0.1c-0.3,0-0.6,0-1,0c-0.3,0-0.7,0-1,0.1c-0.3,0.1-0.7,0.2-1,0.3l0,0c-0.4,0.2-0.7,0.3-1,0.5
		c-0.3,0.2-0.6,0.5-1,0.7s-0.6,0.6-0.9,0.9c-0.3,0.3-0.6,0.7-0.8,1c-0.2,0.3-0.5,0.7-0.6,1.1c-0.2,0.4-0.3,0.8-0.4,1.1l0,0
		c-0.2,0.6-0.3,1.2-0.4,1.7c-0.1,0.5-0.1,1,0,1.4l0,0c0.1,0.4,0.1,0.9,0.2,1.2s0.2,0.7,0.4,1s0.4,0.6,0.6,0.8
		c0.2,0.2,0.4,0.4,0.6,0.5l0,0c0.2,0.2,0.5,0.3,0.7,0.3c0.2,0.1,0.4,0.1,0.6,0.1c0.4,0,0.7,0,1-0.2c0.3-0.1,0.6-0.3,0.8-0.5
		c0.3-0.2,0.5-0.5,0.7-0.8c0.2-0.3,0.4-0.6,0.6-1l0,0c0.2-0.4,0.4-0.8,0.5-1.2c0.1-0.4,0.3-0.8,0.4-1.3c0.1-0.5,0.2-1,0.3-1.3
		c0-0.2,0.1-0.6,0.3-1.2l0,0c0.1-0.4,0.2-0.8,0.3-1.1c0.1-0.3,0.2-0.7,0.3-0.9l0,0c0.1-0.3,0.3-0.6,0.5-0.8c0.2-0.2,0.5-0.3,0.8-0.3
		s0.6,0.1,0.9,0.3c0.2,0.2,0.4,0.4,0.6,0.8l0,0c0.2,0.3,0.3,0.6,0.5,1c0.2,0.4,0.3,0.8,0.5,1.2l0,0c0.2,0.4,0.3,0.8,0.5,1.3
		c0.2,0.5,0.4,1,0.5,1.4c0.2,0.5,0.4,0.9,0.6,1.4c0.2,0.4,0.4,0.8,0.6,1.3c0.2,0.4,0.4,0.8,0.7,1.1c0.2,0.3,0.5,0.6,0.8,0.9
		c0.2,0.2,0.5,0.4,0.7,0.5c0.2,0.1,0.5,0.2,0.8,0.2c0.2,0,0.4,0,0.6-0.1s0.4-0.1,0.6-0.2l0,0c0.2-0.1,0.4-0.2,0.6-0.3
		c0.2-0.1,0.3-0.2,0.5-0.4l0,0c0.2-0.1,0.3-0.3,0.5-0.5c0.2-0.2,0.3-0.4,0.5-0.5l0,0l0.9-1.2c0-0.2-0.1-0.3-0.1-0.5
		c-0.1-0.7-0.2-1.3-0.2-2s0.1-1.4,0.2-2c0.1-0.7,0.3-1.3,0.6-1.9s0.5-1.2,0.9-1.7c0.3-0.5,0.7-1,1.2-1.5c0.4-0.5,0.9-0.9,1.4-1.2
		s1.1-0.7,1.6-1l0,0c0.6-0.3,1.2-0.5,1.8-0.6s1.3-0.2,1.9-0.2s1.3,0.1,1.9,0.2c0.6,0.1,1.2,0.3,1.8,0.6l0,0c0.6,0.3,1.1,0.6,1.6,1
		c0.5,0.4,1,0.8,1.4,1.2c0.4,0.5,0.8,1,1.2,1.5c0.3,0.5,0.6,1.1,0.9,1.7l0,0c0.3,0.6,0.4,1.3,0.6,1.9c0.1,0.7,0.2,1.3,0.2,2
		s-0.1,1.4-0.2,2s-0.3,1.3-0.6,1.9c-0.2,0.6-0.6,1.2-0.9,1.7c-0.4,0.5-0.7,1-1.2,1.5c-0.4,0.5-0.9,0.9-1.4,1.2s-1.1,0.7-1.6,1l0,0
		c-0.6,0.3-1.2,0.5-1.8,0.6s-1.3,0.2-1.9,0.2s-1.3-0.1-1.9-0.2c-0.6-0.1-1.2-0.3-1.8-0.6l0,0c-0.6-0.3-1.1-0.6-1.6-1
		c-0.5-0.4-1-0.8-1.4-1.2s-0.8-1-1.2-1.5c-0.1-0.2-0.3-0.4-0.4-0.7c-0.2,0.2-0.4,0.5-0.6,0.7c-0.2,0.3-0.5,0.6-0.8,0.9l0,0
		c-0.3,0.3-0.6,0.6-0.9,0.9c-0.3,0.3-0.7,0.6-1,0.8l0,0c-0.4,0.3-0.7,0.5-1.1,0.7c-0.4,0.2-0.8,0.4-1.2,0.6
		c-0.4,0.2-0.9,0.3-1.4,0.4c-0.5,0.1-0.9,0.1-1.4,0.1c-0.5,0-1-0.1-1.5-0.3c-0.5-0.2-0.9-0.4-1.4-0.8c-0.4-0.3-0.8-0.7-1.1-1
		c-0.3-0.4-0.6-0.7-0.9-1.1l0,0c-0.3-0.4-0.5-0.8-0.7-1.1c-0.2-0.4-0.4-0.7-0.6-1.1l0,0l-0.1-0.2l-0.1,0.2l0,0
		c-0.2,0.3-0.4,0.7-0.7,1.1c-0.3,0.4-0.6,0.7-0.9,1.1c-0.4,0.4-0.7,0.8-1.1,1.1s-0.8,0.7-1.3,1c-0.5,0.3-1,0.6-1.6,0.8
		c-0.6,0.2-1.1,0.3-1.7,0.3s-1.2-0.1-1.7-0.2c-0.6-0.1-1.1-0.3-1.5-0.6c-0.5-0.2-0.9-0.5-1.3-0.9c-0.4-0.3-0.7-0.7-1-1.2l0,0
		c-0.3-0.4-0.5-0.9-0.7-1.4c-0.1-0.1-0.1-0.2-0.1-0.4c0,0-0.1,0.1-0.1,0.1c-0.3,0.4-0.7,0.8-1.2,1.2c-0.4,0.4-0.9,0.8-1.4,1.2
		c-0.5,0.4-1.1,0.7-1.6,1.1l0,0c-0.6,0.3-1.3,0.6-1.9,0.8c-0.7,0.2-1.4,0.3-2.1,0.3c-0.6,0-1.1-0.1-1.7-0.3s-1-0.4-1.5-0.8
		c-0.4-0.3-0.8-0.7-1.2-1.2c-0.4-0.4-0.7-0.9-1-1.5C124.3,51.8,124.1,51.2,123.8,50.8L123.8,50.8z"/>
	<g>
		<defs>
			<path id="SVGID_1_" d="M179.3,51.8c0.3-0.1,0.6-0.2,0.9-0.3c0.3-0.2,0.6-0.3,0.8-0.6c0.3-0.2,0.5-0.5,0.7-0.8
				c0.2-0.3,0.4-0.6,0.5-1l0,0c0.1-0.3,0.3-0.7,0.4-1.1c0.1-0.4,0.2-0.8,0.2-1.3l0,0c0-0.5,0-0.9,0-1.4s-0.1-0.9-0.2-1.4l0,0
				c-0.1-0.5-0.2-0.9-0.4-1.3c-0.2-0.4-0.4-0.8-0.6-1.2c-0.2-0.4-0.5-0.7-0.8-1s-0.6-0.6-0.9-0.9l0,0c-0.3-0.2-0.6-0.5-0.9-0.6
				c-0.3-0.2-0.6-0.3-1-0.4l0,0c-0.3-0.1-0.7-0.2-1-0.2c-0.3,0-0.6,0-1,0.1l0,0c-0.3,0.1-0.6,0.2-0.9,0.4c-0.3,0.2-0.6,0.3-0.8,0.6
				l0,0c-0.3,0.2-0.5,0.5-0.7,0.8c-0.2,0.3-0.4,0.6-0.5,1l0,0c-0.1,0.3-0.3,0.7-0.4,1.1s-0.1,0.8-0.2,1.3l0,0c0,0.5,0,0.9,0,1.4
				c0,0.5,0.1,0.9,0.2,1.4s0.2,0.9,0.4,1.3c0.2,0.4,0.4,0.8,0.6,1.2c0.2,0.4,0.5,0.7,0.8,1.1s0.6,0.6,0.9,0.8l0,0
				c0.3,0.2,0.6,0.5,0.9,0.6c0.3,0.2,0.6,0.3,1,0.4c0.3,0.1,0.6,0.2,1,0.2C178.7,51.9,179,51.9,179.3,51.8L179.3,51.8L179.3,51.8z
				 M128.6,37.9c0.9-1.8,1.8-3.5,2.6-5.2l0,0c0.4-0.9,0.9-1.9,1.2-2.8s0.8-1.8,1.1-2.7c0.3-0.9,0.6-1.7,0.9-2.5
				c0.2-0.8,0.4-1.5,0.6-2.2l0,0c0.1-0.7,0.2-1.3,0.2-1.8c0-0.5,0-1-0.1-1.3c-0.1-0.3-0.2-0.5-0.4-0.7c-0.2-0.1-0.5-0.2-0.9-0.2
				c-0.4,0-0.8,0.1-1.1,0.3c-0.4,0.2-0.7,0.5-1,1c-0.4,0.5-0.7,1-1,1.6c-0.3,0.6-0.6,1.3-0.8,2.1l0,0c-0.2,0.8-0.4,1.6-0.6,2.5
				c-0.2,0.9-0.3,1.8-0.4,2.9l0,0c-0.1,1-0.2,2-0.3,3.1s-0.1,2.1-0.1,3.1C128.5,36,128.5,37,128.6,37.9L128.6,37.9z M149.7,31.6
				c-0.6-0.2-1.2-0.4-1.7-0.6c-0.5-0.1-1-0.3-1.5-0.3c-0.4-0.1-0.8,0-1.1,0c-0.3,0.1-0.6,0.2-0.8,0.4l0,0c-0.2,0.2-0.4,0.3-0.5,0.4
				c-0.2,0.1-0.4,0.2-0.6,0.2l0,0c-0.2,0.1-0.4,0.1-0.6,0.1c-0.2,0-0.4,0-0.6-0.1l0,0c-0.2-0.1-0.4-0.3-0.4-0.6c0-0.2,0-0.4,0.1-0.6
				l0,0c0.1-0.2,0.2-0.4,0.4-0.6c0.2-0.2,0.4-0.4,0.7-0.6l0,0c0.6-0.5,1.2-0.9,1.8-1.1c0.6-0.3,1.2-0.5,1.8-0.7l0,0
				c0.6-0.1,1.1-0.2,1.6-0.2c0.5,0,1,0,1.5,0c0.5,0.1,0.9,0.1,1.4,0.3c0.4,0.1,0.9,0.3,1.3,0.5l0,0c0.4,0.2,0.7,0.3,1.1,0.5
				c0.3,0.2,0.7,0.3,1,0.5l0,0c0.3,0.1,0.6,0.3,0.8,0.4c0.2,0.1,0.5,0.2,0.7,0.3l0,0c0.1,0,0.3,0.1,0.4,0c0.1,0,0.2-0.1,0.3-0.2l0,0
				c0.1-0.1,0.2-0.2,0.4-0.3c0.1-0.1,0.3-0.1,0.5-0.2c0.2,0,0.3-0.1,0.5-0.1c0.2,0,0.3,0,0.5,0c0.2,0.1,0.4,0.2,0.5,0.4
				s0.1,0.4,0.1,0.6l0,0c0,0.2-0.2,0.4-0.4,0.6c-0.1,0.1-0.3,0.3-0.6,0.5c-0.4,0.4-0.9,0.7-1.3,1c-0.4,0.3-0.9,0.5-1.3,0.6
				c-0.4,0.1-0.8,0.2-1.2,0.2c-0.4,0-0.8,0-1.1,0l0,0c-0.4,0-0.7-0.1-1.1-0.2c-0.3-0.1-0.7-0.2-1-0.4l0,0c-0.3-0.1-0.6-0.3-0.9-0.4
				S150,31.7,149.7,31.6L149.7,31.6z M39.5,34.4c-0.2-0.5-0.4-0.9-0.5-1.4c-0.3-1.2-0.5-2.6-0.5-4.1c0-1,0.1-2,0.4-2.9
				c0.2-0.9,0.6-1.8,1.1-2.7l0,0c0.5-0.8,1-1.6,1.7-2.4c0.7-0.7,1.4-1.4,2.2-2.1c0.8-0.6,1.6-1.2,2.5-1.7c-0.6-2.9-1.7-5.5-3.1-7.6
				c-2.2-3.2-5.1-5.3-8-5.3c-2.4,0-4.5,1.4-5.9,3.6c-1.6,2.4-2.5,5.7-2.5,9.4c0,4.7,1.4,9,3.5,12.2c2.2,3.2,5.1,5.2,8.1,5.2
				C38.7,34.5,39.1,34.4,39.5,34.4L39.5,34.4z M31.3,44c0.7-0.5,0.9-1,0.9-1.7c0-0.4,0-0.9-0.2-1.2c-0.1-0.2-0.4-0.4-0.8-0.4
				c-0.7,0-1.4,0.2-2,1c-0.5,0.6-0.9,1.5-1.2,2.9L28,45.4C29.5,44.9,30.6,44.5,31.3,44L31.3,44z M33.4,45.8c-1.3,0.9-3.2,1.6-5.4,2
				c0.1,0.9,0.4,2,1.3,2.8c0.7,0.7,1.6,1.1,3.1,1.1c0.4,0,1,0,1.7-0.2c0.5-0.1,1-0.2,1.4-0.4l0.4-0.2l0.8,1.3l-0.3,0.3
				c-0.9,0.7-1.6,1.2-2.5,1.6c-0.9,0.4-1.9,0.6-3.1,0.6l0,0c-1.6,0-3.2-0.9-4.4-2.2c-1.1-1.3-1.9-3-1.9-4.9v-0.5
				c0-2.6,0.7-4.7,2-6.2c1.3-1.5,3.1-2.3,5.4-2.3h0.1c1.1,0,2.1,0.3,2.8,0.9c0.7,0.6,1.1,1.5,1.1,2.5C35.7,43.7,34.8,44.9,33.4,45.8
				L33.4,45.8z M5,54.4c-0.4,0.2-0.9,0.4-1.4,0.4c-0.6,0-1.3-0.2-1.8-1.2c-0.3-0.6-0.5-1.5-0.5-2.8v-7.6c0-0.9-0.1-1.4-0.2-1.8
				c-0.1-0.3-0.3-0.5-0.6-0.6L0,40.5L0.4,40c0.4-0.4,0.8-0.7,1.2-0.9c0.4-0.2,0.9-0.3,1.4-0.4h0.1c0.3,0,0.9,0.3,1.3,1.1
				c0.1,0.2,0.2,0.5,0.3,0.9c0.2-0.3,0.4-0.5,0.7-0.8c0.7-0.7,1.7-1.2,2.9-1.2h0.2c1,0,2.1,0.4,2.9,1.2c0.5,0.5,0.9,1,1.2,1.7
				c0.5-0.7,1-1.4,1.5-1.9c0.7-0.7,1.6-1,2.4-1h0.2c1.2,0,2.4,0.5,3.3,1.6c0.8,0.9,1.2,2.1,1.2,3.7v6.8c0,0.6,0.1,1.1,0.2,1.4
				c0.1,0.2,0.3,0.4,0.6,0.4l0.6,0.1l-0.2,0.6c-0.1,0.3-0.6,0.7-1.1,1c-0.4,0.2-0.9,0.4-1.4,0.4c-0.8,0-1.4-0.4-1.8-1.2
				c-0.3-0.7-0.5-1.6-0.5-2.8v-6.7c0-0.8-0.3-1.6-0.6-2.1c-0.4-0.5-0.9-0.9-1.4-0.9s-1,0.4-1.4,0.9c-0.6,0.7-1.1,1.7-1.3,2.5v6.4
				c0,0.6,0.1,1.1,0.2,1.4c0.1,0.2,0.3,0.4,0.6,0.4l0.7,0.1l-0.4,0.6c-0.2,0.3-0.6,0.7-1.1,1c-0.4,0.2-0.9,0.4-1.3,0.4
				c-0.8,0-1.4-0.4-1.8-1.2C9.8,53,9.6,52,9.6,50.8V44c0-0.8-0.3-1.6-0.6-2.1c-0.4-0.5-0.9-0.8-1.4-0.8H7.5c-0.6,0-1.1,0.4-1.5,1
				c-0.7,0.9-1.1,2.1-1.1,2.7v6.1c0,0.6,0.1,1.1,0.2,1.4c0.1,0.2,0.3,0.4,0.6,0.4l0.6,0.1l-0.2,0.6C6,53.7,5.5,54.1,5,54.4L5,54.4z
				 M89.2,23.3c-0.1-0.6-0.2-1.2-0.4-1.7c-0.3-0.9-0.8-1.7-1.4-2.4l0,0c-0.3-0.3-0.6-0.7-0.9-1l0,0c-0.4-0.3-0.8-0.6-1.2-1l0,0
				c-0.4-0.3-1-0.6-1.6-0.9c-0.6-0.3-1.2-0.6-1.9-0.8s-1.5-0.5-2.3-0.7c-0.8-0.2-1.8-0.4-2.7-0.6l0,0c-1-0.1-2.1-0.3-3.2-0.4
				c-1.2-0.1-2.4-0.1-3.7-0.1s-2.6,0.1-3.8,0.2c-1.2,0.1-2.5,0.3-3.7,0.5c-1.2,0.2-2.4,0.5-3.5,0.9c-1.1,0.3-2.2,0.7-3.2,1.1l0,0
				c-0.4,0.2-0.8,0.4-1.2,0.5c0,0.5,0,1,0,1.6c0,5.1-1.3,9.5-3.7,12.9c0.4,0.3,0.9,0.6,1.4,0.9c1.1,0.7,2.3,1.3,3.8,1.9
				c1.4,0.6,3.1,1.2,4.9,1.8c1.8,0.6,3.9,1.1,6.1,1.6c2,0.5,4,1,5.9,1.4c1.9,0.5,3.7,1,5.4,1.5c1.7,0.5,3.3,1.1,4.8,1.7
				c1.5,0.6,2.8,1.3,4.1,2c1.3,0.7,2.4,1.5,3.4,2.4c1,0.9,1.8,1.8,2.5,2.9l0,0c0.7,1,1.2,2.2,1.6,3.5c0.3,1.3,0.5,2.7,0.5,4.2
				s-0.2,2.9-0.5,4.2c-0.3,1.3-0.8,2.5-1.5,3.6c-0.7,1.1-1.4,2.1-2.4,3c-0.9,0.9-1.9,1.7-3.1,2.4c-1.2,0.7-2.4,1.3-3.8,1.8
				s-2.8,0.9-4.4,1.3l0,0c-1.6,0.3-3.2,0.6-4.9,0.7c-1.7,0.2-3.4,0.2-5.2,0.2s-3.6-0.1-5.4-0.3c-1.8-0.2-3.5-0.4-5.2-0.8
				c-1.7-0.3-3.3-0.8-4.9-1.2s-3-1-4.3-1.7c-1.4-0.6-2.6-1.3-3.7-2.1c-1.1-0.8-2-1.6-2.9-2.5c-0.8-0.9-1.5-1.9-1.9-2.9
				c-0.4-1-0.6-2.1-0.6-3.2c0-0.6,0.1-1.2,0.2-1.7c0.2-0.5,0.4-1,0.7-1.4c0.3-0.4,0.6-0.7,1-1s0.8-0.5,1.2-0.6
				c0.4-0.2,0.9-0.2,1.3-0.3s0.9,0,1.4,0l0,0c0.5,0.1,1,0.2,1.4,0.3c0.5,0.2,0.9,0.4,1.3,0.6l0,0c0.4,0.2,0.7,0.5,1,0.9
				c0.3,0.4,0.5,0.8,0.7,1.3c0.2,0.5,0.3,1,0.3,1.5c0,0.5,0,1-0.1,1.5l0,0c-0.1,0.5-0.3,1-0.5,1.5c-0.2,0.5-0.5,0.9-0.9,1.4
				c-0.4,0.5-0.9,0.9-1.4,1.2c-0.4,0.2-0.8,0.4-1.2,0.6c0.2,0.2,0.4,0.4,0.6,0.6c0.5,0.4,1.1,0.8,1.8,1.2l0,0
				c0.8,0.4,1.6,0.8,2.4,1.2s1.8,0.7,2.8,1l0,0c1,0.3,2,0.6,3.1,0.9s2.1,0.5,3.2,0.7c1.1,0.2,2.2,0.3,3.2,0.4c1,0.1,2,0.1,2.9,0.1
				c1.6,0,3.1-0.1,4.6-0.3c1.5-0.2,2.9-0.5,4.2-0.9c1.4-0.4,2.6-0.9,3.7-1.5c1.1-0.6,2.1-1.2,3-1.8l0,0c0.9-0.7,1.6-1.4,2.2-2.1
				c0.6-0.8,1.1-1.6,1.4-2.4c0.3-0.8,0.4-1.7,0.4-2.5c-0.1-0.8-0.3-1.7-0.8-2.6c-0.4-0.9-1.1-1.8-2-2.7c-0.9-0.9-2-1.8-3.4-2.7
				c-1.4-0.9-3-1.7-4.9-2.5c-1.9-0.8-4.2-1.5-6.7-2.2c-2.5-0.7-4.7-1.3-6.8-1.9c-1.9-0.5-3.9-1.1-6-1.6c-1.8-0.5-3.5-1-5.1-1.6
				c-0.1,0-0.3-0.1-0.4-0.1v8.3c0,0.6,0.1,1.1,0.2,1.4c0.1,0.2,0.3,0.4,0.6,0.4l0.6,0.1l-0.2,0.6c-0.1,0.3-0.6,0.7-1.1,1
				c-0.4,0.2-0.9,0.4-1.4,0.4c-0.7,0-1.2-0.3-1.6-0.9l0,0c-0.2-0.3-0.4-0.7-0.5-1.2c-0.5,0.5-1,0.9-1.5,1.3c-0.7,0.5-1.3,0.7-2,0.7
				h-0.3c-1.2,0-2.5-0.5-3.4-1.5c-0.8-0.8-1.3-2-1.3-3.6v-6.9c0-0.7-0.1-1.2-0.2-1.5c-0.1-0.2-0.3-0.4-0.5-0.6l-0.5-0.3l0.3-0.4
				c0.4-0.4,0.8-0.7,1.2-0.9c0.5-0.2,1-0.3,1.5-0.4h0.1l0.1,0.1c0.4,0.3,0.8,0.7,1.1,1.2c0.2,0.5,0.4,1,0.4,1.7v8.1l0,0
				c0,0.8,0.2,1.5,0.6,1.9c0.4,0.4,1,0.6,1.6,0.6h0.3c0.3,0,1-0.4,1.5-1c0.4-0.4,0.7-1,0.7-1.5v-6.7c0-0.9-0.1-1.4-0.2-1.8
				c-0.1-0.3-0.3-0.5-0.6-0.6l-0.5-0.3l0,0c-0.9-0.5-1.7-1-2.5-1.6c-0.4-0.3-0.7-0.6-1.1-0.9c-1.7,0.5-3.5,0.8-5.4,0.8
				c-5.1,0-9.7-1.9-12.9-5.4c-3-3.3-4.8-8-4.8-14s1.7-10.7,4.8-14C26.8,1.8,31.2,0,36.6,0s9.8,1.7,13,5c2.1,2.2,3.6,5.1,4.3,8.7
				c0.7-0.2,1.4-0.4,2.1-0.6l0,0c1.2-0.3,2.3-0.6,3.5-0.8c1.2-0.2,2.3-0.4,3.6-0.6c1.2-0.1,2.4-0.3,3.5-0.3c1.2-0.1,2.3-0.1,3.4-0.1
				c1.6,0,3.2,0.1,4.6,0.2c1.5,0.1,2.9,0.4,4.2,0.7l0,0c1.3,0.3,2.5,0.6,3.7,1.1c1.1,0.4,2.2,0.9,3.2,1.4l0,0c1,0.5,1.8,1.1,2.6,1.7
				c0.8,0.6,1.4,1.2,2,1.9l0,0c0.6,0.7,1.1,1.4,1.4,2.2c0.4,0.8,0.6,1.5,0.7,2.4l0,0c0.1,0.8,0.2,1.5,0.1,2.1c0,0.7-0.1,1.3-0.3,1.9
				c-0.2,0.5-0.4,1-0.7,1.5c-0.3,0.5-0.6,0.9-0.9,1.2l0,0c-0.4,0.4-0.8,0.6-1.2,0.9c-0.4,0.2-0.9,0.5-1.4,0.6l0,0
				c-0.5,0.1-0.9,0.3-1.4,0.3c-0.5,0.1-0.9,0.1-1.4,0.1c-0.3,0-0.7,0-1-0.1c-0.3-0.1-0.7-0.2-1-0.3c-0.3-0.1-0.6-0.3-0.8-0.5
				c-0.3-0.2-0.5-0.4-0.7-0.6c-0.2-0.2-0.4-0.4-0.6-0.7s-0.3-0.5-0.4-0.8l0,0c-0.1-0.3-0.2-0.6-0.3-0.9c-0.1-0.3-0.1-0.6-0.1-0.9
				s0-0.6,0.1-0.9c0.1-0.3,0.2-0.6,0.3-0.9l0,0c0.1-0.3,0.3-0.6,0.4-0.8c0.2-0.2,0.4-0.5,0.6-0.7l0,0c0.2-0.2,0.5-0.4,0.8-0.6
				c0.3-0.2,0.6-0.3,0.9-0.5s0.7-0.2,1-0.3c0.4-0.1,0.7-0.1,1.1-0.1c0.3,0,0.5,0,0.8,0.1c0.3,0.1,0.6,0.1,0.8,0.2l0,0
				c0.3,0.1,0.5,0.2,0.8,0.3c0.3,0.1,0.5,0.2,0.7,0.4l0,0C88.8,23.1,89,23.2,89.2,23.3L89.2,23.3z M123.8,50.8
				c-0.2,0.3-0.4,0.5-0.7,0.8s-0.5,0.6-0.8,0.9l0,0c-0.3,0.3-0.6,0.6-0.9,0.9c-0.3,0.3-0.7,0.6-1,0.8l0,0c-0.4,0.3-0.7,0.5-1.1,0.7
				c-0.4,0.2-0.8,0.4-1.2,0.6c-0.4,0.2-0.9,0.3-1.4,0.4c-0.5,0.1-0.9,0.1-1.4,0.1c-0.5,0-1-0.1-1.5-0.3c-0.5-0.2-0.9-0.4-1.4-0.8
				c-0.4-0.3-0.8-0.7-1.1-1s-0.7-0.7-0.9-1.1l0,0c-0.3-0.4-0.5-0.8-0.7-1.1c-0.2-0.4-0.4-0.7-0.6-1.1l0,0l-0.1-0.2l-0.1,0.2l0,0
				c-0.2,0.3-0.4,0.7-0.7,1.1c-0.3,0.4-0.6,0.7-0.9,1.1c-0.3,0.4-0.7,0.8-1.1,1.1s-0.8,0.7-1.3,1c-0.5,0.3-1,0.6-1.6,0.8
				c-0.6,0.2-1.1,0.3-1.7,0.3s-1.2-0.1-1.7-0.2c-0.6-0.1-1.1-0.3-1.5-0.6c-0.5-0.2-0.9-0.5-1.3-0.9c-0.4-0.3-0.7-0.7-1-1.2l0,0
				c-0.3-0.4-0.5-0.9-0.7-1.4c-0.2-0.5-0.3-1-0.4-1.6l0,0c-0.1-0.5-0.1-1.1-0.1-1.7s0.1-1.2,0.2-1.8l0,0c0.1-0.6,0.3-1.2,0.5-1.8
				c0.2-0.6,0.4-1.2,0.8-1.8c0.3-0.6,0.7-1.2,1.1-1.8c0.4-0.6,0.8-1.2,1.3-1.7l0,0c0.5-0.6,1.1-1.1,1.7-1.6c0.6-0.5,1.2-0.8,1.8-1.1
				s1.2-0.5,1.8-0.8s1.2-0.4,1.8-0.5l0,0c0.5-0.1,1-0.2,1.5-0.2c0.5,0,1,0,1.4,0l0,0c0.4,0,0.9,0.1,1.3,0.2c0.4,0.1,0.8,0.2,1.1,0.2
				c0.3,0.1,0.6,0.2,0.9,0.3c0.3,0.1,0.5,0.3,0.7,0.4l0,0c0.2,0.2,0.4,0.4,0.5,0.6c0.1,0.3,0.1,0.6-0.1,0.8l0,0
				c-0.1,0.2-0.3,0.3-0.4,0.4c-0.2,0.1-0.4,0.2-0.6,0.1l0,0c-0.1,0-0.2,0-0.4-0.1c-0.1,0-0.2-0.1-0.4-0.2l0,0
				c-0.1-0.1-0.3-0.1-0.4-0.2c-0.2-0.1-0.4-0.1-0.6-0.2l0,0c-0.2-0.1-0.4-0.1-0.7-0.1c-0.3,0-0.6,0-1,0c-0.3,0-0.7,0-1,0.1
				c-0.3,0.1-0.7,0.2-1,0.3l0,0c-0.3,0.2-0.7,0.3-1,0.5c-0.3,0.2-0.7,0.5-1,0.7l0,0c-0.3,0.3-0.6,0.6-0.9,0.9
				c-0.3,0.3-0.6,0.7-0.8,1c-0.2,0.3-0.5,0.7-0.6,1.1c-0.2,0.4-0.3,0.8-0.4,1.1l0,0c-0.2,0.6-0.3,1.2-0.3,1.7c-0.1,0.5-0.1,1,0,1.4
				s0.1,0.8,0.2,1.2c0.1,0.4,0.2,0.7,0.4,1s0.3,0.6,0.6,0.8c0.2,0.2,0.4,0.4,0.6,0.5l0,0c0.2,0.2,0.5,0.3,0.7,0.3
				c0.2,0.1,0.4,0.1,0.6,0.1c0.4,0,0.7,0,1-0.2c0.3-0.1,0.6-0.3,0.8-0.5c0.3-0.2,0.5-0.5,0.7-0.8c0.2-0.3,0.4-0.6,0.6-1l0,0
				c0.2-0.4,0.3-0.8,0.5-1.2c0.2-0.4,0.3-0.8,0.4-1.3c0.1-0.5,0.2-1,0.3-1.3c0.1-0.2,0.2-0.6,0.3-1.2l0,0c0.1-0.4,0.2-0.8,0.3-1.1
				c0.1-0.3,0.2-0.7,0.3-0.9l0,0c0.1-0.3,0.3-0.6,0.5-0.8c0.2-0.2,0.5-0.3,0.8-0.3s0.6,0.1,0.9,0.3c0.2,0.2,0.4,0.4,0.6,0.8l0,0
				c0.2,0.3,0.3,0.6,0.5,1c0.2,0.4,0.3,0.8,0.5,1.2l0,0c0.2,0.4,0.3,0.8,0.5,1.3c0.2,0.5,0.4,1,0.5,1.4c0.2,0.5,0.4,0.9,0.6,1.4
				c0.2,0.4,0.4,0.8,0.6,1.3c0.2,0.4,0.4,0.8,0.7,1.1c0.2,0.3,0.5,0.6,0.8,0.9c0.2,0.2,0.5,0.4,0.7,0.5c0.2,0.1,0.5,0.2,0.8,0.2
				c0.2,0,0.4,0,0.6-0.1s0.4-0.1,0.6-0.2l0,0c0.2-0.1,0.4-0.2,0.6-0.3c0.2-0.1,0.3-0.2,0.5-0.4l0,0c0.2-0.1,0.3-0.3,0.5-0.5
				c0.2-0.2,0.3-0.4,0.5-0.5l0,0l1.1-1.3l-0.1,0l0.2-0.3c-0.1-0.4-0.2-0.9-0.3-1.3c-0.2-0.7-0.3-1.4-0.4-2.1l0,0
				c-0.1-0.7-0.2-1.5-0.3-2.2c-0.1-0.7-0.1-1.5-0.2-2.2c-0.1-0.7-0.1-1.4-0.1-2.1c0-0.7,0-1.3,0-2v0c0.2-1.8,0.4-3.6,0.8-5.3
				c0.3-1.7,0.8-3.2,1.3-4.7c0.2-0.6,0.4-1.2,0.7-1.9s0.6-1.2,0.9-1.8c0.3-0.6,0.7-1.2,1-1.7c0.4-0.5,0.8-1.1,1.2-1.5
				c0.4-0.5,0.9-0.9,1.4-1.3c0.5-0.4,1-0.7,1.6-1l0,0c0.6-0.3,1.2-0.5,1.8-0.7s1.3-0.2,2-0.2c0.8,0,1.4,0.1,1.9,0.4
				c0.6,0.3,1,0.7,1.2,1.3c0.2,0.5,0.4,1.1,0.5,1.8c0.1,0.6,0.1,1.4,0,2.1c-0.1,0.8-0.3,1.6-0.5,2.5c-0.2,0.9-0.5,1.8-0.9,2.8l0,0
				c-0.4,1-0.7,2-1.1,2.9c-0.4,1-0.9,2-1.3,3l0,0c-1.1,2.4-2.4,4.9-3.9,7.5c-0.4,0.7-0.8,1.4-1.2,2.2c0.1,0.7,0.2,1.3,0.3,1.9
				c0.2,0.9,0.4,1.7,0.6,2.5s0.5,1.5,0.7,2.1c0.3,0.6,0.6,1.1,0.9,1.6l0,0c0.3,0.4,0.6,0.7,0.9,0.9c0.3,0.2,0.6,0.3,1,0.3h0.1
				c0.2,0,0.4,0,0.5,0c0.2,0,0.4-0.1,0.7-0.2h0c0.2-0.1,0.4-0.2,0.7-0.4c0.3-0.2,0.5-0.4,0.9-0.7l0,0c0.3-0.2,0.6-0.6,0.9-1
				c0.3-0.3,0.6-0.7,0.9-1.1c0-0.5,0.1-0.9,0.1-1.4l0,0c0.1-0.6,0.3-1.2,0.5-1.8c0.2-0.6,0.4-1.2,0.8-1.8c0.3-0.6,0.6-1.2,1.1-1.8
				c0.4-0.6,0.9-1.2,1.4-1.7l0,0c0.5-0.6,1.1-1.1,1.7-1.6c0.6-0.5,1.2-0.8,1.8-1.1c0.6-0.3,1.2-0.5,1.8-0.8c0.6-0.2,1.2-0.4,1.8-0.5
				l0,0c0.5-0.1,1-0.2,1.5-0.2c0.5,0,1,0,1.4,0l0,0c0.4,0,0.9,0.1,1.3,0.2c0.4,0.1,0.8,0.2,1.1,0.2s0.6,0.2,0.9,0.3
				c0.3,0.1,0.5,0.3,0.7,0.4l0,0c0.2,0.2,0.4,0.4,0.5,0.6c0.1,0.3,0.1,0.6-0.1,0.8l0,0c-0.1,0.2-0.3,0.3-0.4,0.4
				c-0.2,0.1-0.4,0.2-0.6,0.1l0,0c-0.1,0-0.2,0-0.4-0.1c-0.1,0-0.2-0.1-0.4-0.2l0,0c-0.1-0.1-0.3-0.1-0.4-0.2
				c-0.2-0.1-0.4-0.1-0.6-0.2l0,0c-0.2-0.1-0.4-0.1-0.7-0.1c-0.3,0-0.6,0-1,0c-0.3,0-0.7,0-1,0.1c-0.3,0.1-0.7,0.2-1,0.3l0,0
				c-0.4,0.2-0.7,0.3-1,0.5c-0.3,0.2-0.6,0.5-1,0.7s-0.6,0.6-0.9,0.9c-0.3,0.3-0.6,0.7-0.8,1c-0.2,0.3-0.5,0.7-0.6,1.1
				c-0.2,0.4-0.3,0.8-0.4,1.1l0,0c-0.2,0.6-0.3,1.2-0.4,1.7c-0.1,0.5-0.1,1,0,1.4l0,0c0.1,0.4,0.1,0.9,0.2,1.2s0.2,0.7,0.4,1
				s0.4,0.6,0.6,0.8c0.2,0.2,0.4,0.4,0.6,0.5l0,0c0.2,0.2,0.5,0.3,0.7,0.3c0.2,0.1,0.4,0.1,0.6,0.1c0.4,0,0.7,0,1-0.2
				c0.3-0.1,0.6-0.3,0.8-0.5c0.3-0.2,0.5-0.5,0.7-0.8c0.2-0.3,0.4-0.6,0.6-1l0,0c0.2-0.4,0.4-0.8,0.5-1.2c0.1-0.4,0.3-0.8,0.4-1.3
				c0.1-0.5,0.2-1,0.3-1.3c0-0.2,0.1-0.6,0.3-1.2l0,0c0.1-0.4,0.2-0.8,0.3-1.1c0.1-0.3,0.2-0.7,0.3-0.9l0,0c0.1-0.3,0.3-0.6,0.5-0.8
				c0.2-0.2,0.5-0.3,0.8-0.3s0.6,0.1,0.9,0.3c0.2,0.2,0.4,0.4,0.6,0.8l0,0c0.2,0.3,0.3,0.6,0.5,1c0.2,0.4,0.3,0.8,0.5,1.2l0,0
				c0.2,0.4,0.3,0.8,0.5,1.3c0.2,0.5,0.4,1,0.5,1.4c0.2,0.5,0.4,0.9,0.6,1.4c0.2,0.4,0.4,0.8,0.6,1.3c0.2,0.4,0.4,0.8,0.7,1.1
				c0.2,0.3,0.5,0.6,0.8,0.9c0.2,0.2,0.5,0.4,0.7,0.5c0.2,0.1,0.5,0.2,0.8,0.2c0.2,0,0.4,0,0.6-0.1s0.4-0.1,0.6-0.2l0,0
				c0.2-0.1,0.4-0.2,0.6-0.3c0.2-0.1,0.3-0.2,0.5-0.4l0,0c0.2-0.1,0.3-0.3,0.5-0.5c0.2-0.2,0.3-0.4,0.5-0.5l0,0l0.9-1.2
				c0-0.2-0.1-0.3-0.1-0.5c-0.1-0.7-0.2-1.3-0.2-2s0.1-1.4,0.2-2c0.1-0.7,0.3-1.3,0.6-1.9s0.5-1.2,0.9-1.7c0.3-0.5,0.7-1,1.2-1.5
				c0.4-0.5,0.9-0.9,1.4-1.2s1.1-0.7,1.6-1l0,0c0.6-0.3,1.2-0.5,1.8-0.6s1.3-0.2,1.9-0.2s1.3,0.1,1.9,0.2c0.6,0.1,1.2,0.3,1.8,0.6
				l0,0c0.6,0.3,1.1,0.6,1.6,1c0.5,0.4,1,0.8,1.4,1.2c0.4,0.5,0.8,1,1.2,1.5c0.3,0.5,0.6,1.1,0.9,1.7l0,0c0.3,0.6,0.4,1.3,0.6,1.9
				c0.1,0.7,0.2,1.3,0.2,2s-0.1,1.4-0.2,2s-0.3,1.3-0.6,1.9c-0.2,0.6-0.6,1.2-0.9,1.7c-0.4,0.5-0.7,1-1.2,1.5
				c-0.4,0.5-0.9,0.9-1.4,1.2s-1.1,0.7-1.6,1l0,0c-0.6,0.3-1.2,0.5-1.8,0.6s-1.3,0.2-1.9,0.2s-1.3-0.1-1.9-0.2
				c-0.6-0.1-1.2-0.3-1.8-0.6l0,0c-0.6-0.3-1.1-0.6-1.6-1c-0.5-0.4-1-0.8-1.4-1.2s-0.8-1-1.2-1.5c-0.1-0.2-0.3-0.4-0.4-0.7
				c-0.2,0.2-0.4,0.5-0.6,0.7c-0.2,0.3-0.5,0.6-0.8,0.9l0,0c-0.3,0.3-0.6,0.6-0.9,0.9c-0.3,0.3-0.7,0.6-1,0.8l0,0
				c-0.4,0.3-0.7,0.5-1.1,0.7c-0.4,0.2-0.8,0.4-1.2,0.6c-0.4,0.2-0.9,0.3-1.4,0.4c-0.5,0.1-0.9,0.1-1.4,0.1c-0.5,0-1-0.1-1.5-0.3
				c-0.5-0.2-0.9-0.4-1.4-0.8c-0.4-0.3-0.8-0.7-1.1-1c-0.3-0.4-0.6-0.7-0.9-1.1l0,0c-0.3-0.4-0.5-0.8-0.7-1.1
				c-0.2-0.4-0.4-0.7-0.6-1.1l0,0l-0.1-0.2l-0.1,0.2l0,0c-0.2,0.3-0.4,0.7-0.7,1.1c-0.3,0.4-0.6,0.7-0.9,1.1
				c-0.4,0.4-0.7,0.8-1.1,1.1s-0.8,0.7-1.3,1c-0.5,0.3-1,0.6-1.6,0.8c-0.6,0.2-1.1,0.3-1.7,0.3s-1.2-0.1-1.7-0.2
				c-0.6-0.1-1.1-0.3-1.5-0.6c-0.5-0.2-0.9-0.5-1.3-0.9c-0.4-0.3-0.7-0.7-1-1.2l0,0c-0.3-0.4-0.5-0.9-0.7-1.4
				c-0.1-0.1-0.1-0.2-0.1-0.4c0,0-0.1,0.1-0.1,0.1c-0.3,0.4-0.7,0.8-1.2,1.2c-0.4,0.4-0.9,0.8-1.4,1.2c-0.5,0.4-1.1,0.7-1.6,1.1l0,0
				c-0.6,0.3-1.3,0.6-1.9,0.8c-0.7,0.2-1.4,0.3-2.1,0.3c-0.6,0-1.1-0.1-1.7-0.3s-1-0.4-1.5-0.8c-0.4-0.3-0.8-0.7-1.2-1.2
				c-0.4-0.4-0.7-0.9-1-1.5C124.3,51.8,124.1,51.2,123.8,50.8L123.8,50.8z"/>
		</defs>
		<use xlink:href="#SVGID_1_"  style="overflow:visible;fill:#E4C66A;"/>
		<clipPath id="SVGID_00000086682018490300675950000013830565341945136007_">
			<use xlink:href="#SVGID_1_"  style="overflow:visible;"/>
		</clipPath>
		<g style="clip-path:url(#SVGID_00000086682018490300675950000013830565341945136007_);">
			<rect class="st0" width="184.9" height="74.5"/>
		</g>
	</g>
</g>
<g>
	<path class="st0" d="M108.8,86.7c-0.4,1.2-0.9,1.3-1.2,1.1l0.1,0l-0.1-0.1c-1.3-1.6-1.7-5.1-1.7-8.3c0-1.7,0.1-3.4,0.2-4.6l0.3,0.3
		c0.5,0.6,1,1.2,1.4,2c0.8,1.6,1.2,3.4,1.3,5.2c0,0.5,0.1,1,0.1,1.4C109.3,84.9,109.1,86,108.8,86.7 M107.4,88.6
		c0.7,0.4,1.3,0.3,1.6,0.1c0.3-0.3,0.7-0.7,0.9-1.3c0.3-0.9,0.5-2.2,0.5-3.5c0-0.4,0-0.8,0-1.2c-0.1-1.9-0.6-3.8-1.5-5.6
		c-0.5-0.9-1-1.7-1.8-2.4l-0.6-0.4l0.3,0c0.3,0,0.7,0,1.2,0c1.4,0,3.5-0.1,4.5-0.4c1.3-0.4,1.2-1.2,0.6-1c-0.6,0.2-6.4,0.4-6.8,0.3
		h-0.1l0-0.2c0.1-1.9,0.6-8.1,0.8-9.4c0.1-0.2-0.2-0.5-0.5-0.7c-0.3-0.2-0.6-0.2-0.6,0c-0.3,1.3-0.8,7.6-0.8,9.5l0,0.6l-0.8-0.2
		c-0.7-0.2-0.4,0.7,0.3,0.9l0.6,0.3c-0.1,1.3-0.2,3.1-0.2,4.9C104.9,82.7,105.3,86.9,107.4,88.6C107.3,88.6,107.3,88.6,107.4,88.6
		L107.4,88.6z"/>
	<g>
		<defs>
			<path id="SVGID_00000028323519784919899640000011153566488891460542_" d="M108.8,86.7c-0.4,1.2-0.9,1.3-1.2,1.1l0.1,0l-0.1-0.1
				c-1.3-1.6-1.7-5.1-1.7-8.3c0-1.7,0.1-3.4,0.2-4.6l0.3,0.3c0.5,0.6,1,1.2,1.4,2c0.8,1.6,1.2,3.4,1.3,5.2c0,0.5,0.1,1,0.1,1.4
				C109.3,84.9,109.1,86,108.8,86.7 M107.4,88.6c0.7,0.4,1.3,0.3,1.6,0.1c0.3-0.3,0.7-0.7,0.9-1.3c0.3-0.9,0.5-2.2,0.5-3.5
				c0-0.4,0-0.8,0-1.2c-0.1-1.9-0.6-3.8-1.5-5.6c-0.5-0.9-1-1.7-1.8-2.4l-0.6-0.4l0.3,0c0.3,0,0.7,0,1.2,0c1.4,0,3.5-0.1,4.5-0.4
				c1.3-0.4,1.2-1.2,0.6-1c-0.6,0.2-6.4,0.4-6.8,0.3h-0.1l0-0.2c0.1-1.9,0.6-8.1,0.8-9.4c0.1-0.2-0.2-0.5-0.5-0.7
				c-0.3-0.2-0.6-0.2-0.6,0c-0.3,1.3-0.8,7.6-0.8,9.5l0,0.6l-0.8-0.2c-0.7-0.2-0.4,0.7,0.3,0.9l0.6,0.3c-0.1,1.3-0.2,3.1-0.2,4.9
				C104.9,82.7,105.3,86.9,107.4,88.6C107.3,88.6,107.3,88.6,107.4,88.6L107.4,88.6z"/>
		</defs>
		<use xlink:href="#SVGID_00000028323519784919899640000011153566488891460542_"  style="overflow:visible;fill:#E4C66A;"/>
		<clipPath id="SVGID_00000152252329063577463630000006257655357378829500_">
			<use xlink:href="#SVGID_00000028323519784919899640000011153566488891460542_"  style="overflow:visible;"/>
		</clipPath>
		<g style="clip-path:url(#SVGID_00000152252329063577463630000006257655357378829500_);">
			<rect x="103.6" y="62.8" class="st0" width="10.2" height="26.2"/>
		</g>
	</g>
</g>
<g>
	<path class="st0" d="M113.4,72.9L113.4,72.9c0.5,0.2,1.1,0.4,1.9,0.6c0.5,1.2-0.2,3-1.6,3.1c-0.6,0-1-0.3-1.1-1.2
		C112.3,74.4,113,73.3,113.4,72.9 M121.3,73.2c0.8-0.3,1-0.7,0.1-0.6c-0.3,0-1.5,0.1-3.1,0.1c-0.7,0-1.6,0-2.4-0.1
		c-0.5-0.6-1.2-1-2.1-1.1c-0.6,0-0.9,0.3-1,0.8c-0.1,0-0.1,0-0.2,0c-0.7,0.3-1.6,1.8-1.3,3.2c0.2,0.9,1,1.9,2.2,2
		c1.5,0.1,2.8-0.7,3.1-2.3c0.1-0.5,0.1-1-0.1-1.4C118.5,73.8,120.6,73.5,121.3,73.2L121.3,73.2z"/>
	<g>
		<defs>
			<path id="SVGID_00000048497177150949596060000015369526008634429370_" d="M113.4,72.9L113.4,72.9c0.5,0.2,1.1,0.4,1.9,0.6
				c0.5,1.2-0.2,3-1.6,3.1c-0.6,0-1-0.3-1.1-1.2C112.3,74.4,113,73.3,113.4,72.9 M121.3,73.2c0.8-0.3,1-0.7,0.1-0.6
				c-0.3,0-1.5,0.1-3.1,0.1c-0.7,0-1.6,0-2.4-0.1c-0.5-0.6-1.2-1-2.1-1.1c-0.6,0-0.9,0.3-1,0.8c-0.1,0-0.1,0-0.2,0
				c-0.7,0.3-1.6,1.8-1.3,3.2c0.2,0.9,1,1.9,2.2,2c1.5,0.1,2.8-0.7,3.1-2.3c0.1-0.5,0.1-1-0.1-1.4C118.5,73.8,120.6,73.5,121.3,73.2
				L121.3,73.2z"/>
		</defs>
		<use xlink:href="#SVGID_00000048497177150949596060000015369526008634429370_"  style="overflow:visible;fill:#E4C66A;"/>
		<clipPath id="SVGID_00000171689403061544757090000012983352806266417585_">
			<use xlink:href="#SVGID_00000048497177150949596060000015369526008634429370_"  style="overflow:visible;"/>
		</clipPath>
		<g style="clip-path:url(#SVGID_00000171689403061544757090000012983352806266417585_);">
			<rect x="111.2" y="71.4" class="st0" width="11.2" height="6"/>
		</g>
	</g>
</g>
<g>
	<path class="st0" d="M121,76.8c0.1,0.5,1.2,0.9,1.2,0.5c0.1-0.9,0.1-1.1,0.2-1.4c0.8-2.2,3.4-4.2,5-4.1l0,0.3
		c0,0.3,0.4,0.4,0.9-0.1c0.2-0.3-0.2-0.9-1-1.1c-1.8-0.3-4.1,1.6-4.9,2.6l0-1.2c0-0.2-0.2-0.5-0.5-0.7c-0.3-0.2-0.6-0.2-0.6,0.1
		C120.8,75.7,120.9,76.5,121,76.8"/>
	<g>
		<defs>
			<path id="SVGID_00000036964907754628622070000011654323896828747145_" d="M121,76.8c0.1,0.5,1.2,0.9,1.2,0.5
				c0.1-0.9,0.1-1.1,0.2-1.4c0.8-2.2,3.4-4.2,5-4.1l0,0.3c0,0.3,0.4,0.4,0.9-0.1c0.2-0.3-0.2-0.9-1-1.1c-1.8-0.3-4.1,1.6-4.9,2.6
				l0-1.2c0-0.2-0.2-0.5-0.5-0.7c-0.3-0.2-0.6-0.2-0.6,0.1C120.8,75.7,120.9,76.5,121,76.8"/>
		</defs>
		<use xlink:href="#SVGID_00000036964907754628622070000011654323896828747145_"  style="overflow:visible;fill:#E4C66A;"/>
		<clipPath id="SVGID_00000105418621270254365930000015675926392816122782_">
			<use xlink:href="#SVGID_00000036964907754628622070000011654323896828747145_"  style="overflow:visible;"/>
		</clipPath>
		<g style="clip-path:url(#SVGID_00000105418621270254365930000015675926392816122782_);">
			<rect x="120.8" y="70.6" class="st0" width="7.7" height="7.1"/>
		</g>
	</g>
</g>
<g>
	<path class="st0" d="M134.8,75.8c0.1,0.4,0.9,1,1.2,0.8c1.2-1.1,2.1-2.8,3.8-3.8c0.3,1.2,0.5,2,0.8,2.7c0.2,0.3,0.8,0.7,1.1,0.6
		c0.9-0.6,1.7-1.2,3.1-2.4c0.1,0.3,0.3,0.6,0.5,1c0.3,0.4,0.6,0.8,1.1,1.1c0.7,0.4,1.5,0.6,2.1,0.6c1.8,0,3.9-1.6,4.4-2.4
		c0.4-0.7,0-1-0.1-0.8c-0.4,0.8-3.9,2.3-5,2.3c-0.4,0-0.8-0.2-1.2-0.4c-0.6-0.6-0.8-1.7-1.1-2.3c-0.2-0.3-0.8-0.7-1.1-0.5l-3.1,2.5
		c-0.3-1.1-0.3-1.8-0.7-2.6c-0.3-0.3-0.8-0.7-1.1-0.6c-1.4,0.7-2.5,2-3.6,3.2c0-1.1,0.1-1.6,0.1-2.5c0.1-0.4-1-1.1-1.1-0.6
		c-0.1,0.8-0.2,1.7-0.2,2.8C134.8,74.8,134.8,75.3,134.8,75.8"/>
	<g>
		<defs>
			<path id="SVGID_00000125605158777828930830000002683026579945432211_" d="M134.8,75.8c0.1,0.4,0.9,1,1.2,0.8
				c1.2-1.1,2.1-2.8,3.8-3.8c0.3,1.2,0.5,2,0.8,2.7c0.2,0.3,0.8,0.7,1.1,0.6c0.9-0.6,1.7-1.2,3.1-2.4c0.1,0.3,0.3,0.6,0.5,1
				c0.3,0.4,0.6,0.8,1.1,1.1c0.7,0.4,1.5,0.6,2.1,0.6c1.8,0,3.9-1.6,4.4-2.4c0.4-0.7,0-1-0.1-0.8c-0.4,0.8-3.9,2.3-5,2.3
				c-0.4,0-0.8-0.2-1.2-0.4c-0.6-0.6-0.8-1.7-1.1-2.3c-0.2-0.3-0.8-0.7-1.1-0.5l-3.1,2.5c-0.3-1.1-0.3-1.8-0.7-2.6
				c-0.3-0.3-0.8-0.7-1.1-0.6c-1.4,0.7-2.5,2-3.6,3.2c0-1.1,0.1-1.6,0.1-2.5c0.1-0.4-1-1.1-1.1-0.6c-0.1,0.8-0.2,1.7-0.2,2.8
				C134.8,74.8,134.8,75.3,134.8,75.8"/>
		</defs>
		<use xlink:href="#SVGID_00000125605158777828930830000002683026579945432211_"  style="overflow:visible;fill:#E4C66A;"/>
		<clipPath id="SVGID_00000083797295255219575030000005063947615325370240_">
			<use xlink:href="#SVGID_00000125605158777828930830000002683026579945432211_"  style="overflow:visible;"/>
		</clipPath>
		<g style="clip-path:url(#SVGID_00000083797295255219575030000005063947615325370240_);">
			<rect x="134.8" y="71.1" class="st0" width="18.5" height="5.8"/>
		</g>
	</g>
</g>
<g>
	<path class="st0" d="M155.1,72.4c0.4,0.3-0.6,1.2-1.9,1.8C153.2,73.5,154.4,71.8,155.1,72.4 M157.2,77.5c2.2-0.1,4.3-1.7,5.2-3.6
		c0.4-0.9,0.6-1.6-0.2-0.9c-1.4,1.4-3.6,3.7-6.6,3.7c-1.1,0-2.2-1-2.4-1.6c1.1,0,2.5-0.8,2.9-1.8c0.4-0.9-0.6-1.9-1.6-1.9
		c-1.6,0.1-2.5,1.5-2.5,2.9c0,0.3,0.1,0.6,0.2,0.9C152.8,77.2,155.3,77.5,157.2,77.5L157.2,77.5z"/>
	<g>
		<defs>
			<path id="SVGID_00000010995021402343012050000014432658472508728229_" d="M155.1,72.4c0.4,0.3-0.6,1.2-1.9,1.8
				C153.2,73.5,154.4,71.8,155.1,72.4 M157.2,77.5c2.2-0.1,4.3-1.7,5.2-3.6c0.4-0.9,0.6-1.6-0.2-0.9c-1.4,1.4-3.6,3.7-6.6,3.7
				c-1.1,0-2.2-1-2.4-1.6c1.1,0,2.5-0.8,2.9-1.8c0.4-0.9-0.6-1.9-1.6-1.9c-1.6,0.1-2.5,1.5-2.5,2.9c0,0.3,0.1,0.6,0.2,0.9
				C152.8,77.2,155.3,77.5,157.2,77.5L157.2,77.5z"/>
		</defs>
		<use xlink:href="#SVGID_00000010995021402343012050000014432658472508728229_"  style="overflow:visible;fill:#E4C66A;"/>
		<clipPath id="SVGID_00000132061191722481079920000017256672647537354887_">
			<use xlink:href="#SVGID_00000010995021402343012050000014432658472508728229_"  style="overflow:visible;"/>
		</clipPath>
		<g style="clip-path:url(#SVGID_00000132061191722481079920000017256672647537354887_);">
			<rect x="152.1" y="71.3" class="st0" width="10.9" height="6.2"/>
		</g>
	</g>
</g>
<g>
	<path class="st0" d="M161.9,76.2c0,0.5,1.2,0.8,1.1,0.4l0-0.7c0.6-1.3,3.1-2.9,5.4-3.2c-0.1,0.4-0.1,0.7-0.1,1.1
		c0,0.6,0.1,1.1,0.4,1.6c0.6,0.8,1.6,1.2,2.5,1.2c2.2,0,4.3-1.7,5.1-2.7c0.5-0.6,0.4-1.3,0.2-1.2c-1,0.5-3.8,3.1-5.8,3.1
		c-0.4,0-0.8-0.1-1.1-0.3c-0.4-0.6-0.1-1.8-0.1-2.4c0-0.5-0.6-1.1-1.2-1.1c-1.8-0.2-4.1,1-5.2,1.8l0.1-1.1c0-0.2-0.3-0.5-0.5-0.6
		c-0.3-0.1-0.6-0.1-0.6,0.1l-0.3,3.2C161.9,75.6,161.9,76,161.9,76.2"/>
	<g>
		<defs>
			<path id="SVGID_00000080924409774632474880000011368008300873991099_" d="M161.9,76.2c0,0.5,1.2,0.8,1.1,0.4l0-0.7
				c0.6-1.3,3.1-2.9,5.4-3.2c-0.1,0.4-0.1,0.7-0.1,1.1c0,0.6,0.1,1.1,0.4,1.6c0.6,0.8,1.6,1.2,2.5,1.2c2.2,0,4.3-1.7,5.1-2.7
				c0.5-0.6,0.4-1.3,0.2-1.2c-1,0.5-3.8,3.1-5.8,3.1c-0.4,0-0.8-0.1-1.1-0.3c-0.4-0.6-0.1-1.8-0.1-2.4c0-0.5-0.6-1.1-1.2-1.1
				c-1.8-0.2-4.1,1-5.2,1.8l0.1-1.1c0-0.2-0.3-0.5-0.5-0.6c-0.3-0.1-0.6-0.1-0.6,0.1l-0.3,3.2C161.9,75.6,161.9,76,161.9,76.2"/>
		</defs>
		<use xlink:href="#SVGID_00000080924409774632474880000011368008300873991099_"  style="overflow:visible;fill:#E4C66A;"/>
		<clipPath id="SVGID_00000155112665062574045110000012396455338637836928_">
			<use xlink:href="#SVGID_00000080924409774632474880000011368008300873991099_"  style="overflow:visible;"/>
		</clipPath>
	</g>
</g>
</svg>
