<?xml version="1.0" encoding="UTF-8"?><svg id="Layer_1" xmlns="http://www.w3.org/2000/svg" xmlns:xlink="http://www.w3.org/1999/xlink" viewBox="0 0 195.29 74.33"><defs><style>.cls-1{clip-path:url(#clippath-2);}.cls-1,.cls-2,.cls-3,.cls-4{fill:none;}.cls-5{fill:#fff;}.cls-3{clip-path:url(#clippath);}.cls-4{clip-path:url(#clippath-1);}</style><clipPath id="clippath"><path class="cls-5" d="m36.62,31.91c-.18-.42-.33-.86-.46-1.33-.31-1.13-.47-2.4-.47-3.8,0-.95.12-1.85.34-2.72.23-.87.56-1.69,1.02-2.47h0c.45-.77.97-1.5,1.56-2.19.6-.69,1.28-1.34,2.04-1.96.7-.57,1.46-1.1,2.27-1.6-.54-2.66-1.57-5.07-2.88-7.03-2.03-3.02-4.74-4.94-7.44-4.94-2.24,0-4.13,1.28-5.49,3.32-1.47,2.21-2.32,5.31-2.32,8.68,0,4.36,1.3,8.35,3.28,11.28,2.02,2.97,4.73,4.84,7.48,4.84.37,0,.72-.03,1.07-.1m-7.57,8.96c.62-.44.86-.94.86-1.62,0-.41-.04-.83-.2-1.13-.12-.23-.34-.4-.7-.4-.63,0-1.31.23-1.87.89-.48.56-.87,1.43-1.1,2.72l-.07.85c1.47-.45,2.46-.86,3.09-1.31Zm1.94,1.65c-1.25.84-3,1.46-5.02,1.82.09.83.41,1.87,1.17,2.63.61.61,1.53,1.03,2.89,1.03.4,0,.97-.04,1.56-.14.45-.08.91-.19,1.31-.36l.35-.14.72,1.25-.29.24c-.79.65-1.51,1.15-2.33,1.5-.83.35-1.74.54-2.91.54h0c-1.52-.02-3.01-.81-4.11-2.05-1.04-1.18-1.73-2.78-1.73-4.52v-.44c0-2.39.64-4.38,1.82-5.76,1.17-1.37,2.87-2.15,5-2.15h.06c1.06,0,1.95.32,2.58.87.65.57,1.02,1.38,1.02,2.35,0,1.33-.77,2.45-2.08,3.33Zm-26.36,7.97c-.39.23-.86.39-1.29.39-.53,0-1.2-.22-1.65-1.09-.28-.55-.48-1.39-.48-2.63v-7.1c0-.82-.07-1.32-.2-1.65-.11-.27-.29-.43-.52-.57l-.49-.3.42-.4c.37-.35.73-.64,1.13-.84.41-.21.84-.33,1.35-.35h.06c.25.03.84.26,1.22.99.12.23.22.5.28.84.18-.26.37-.51.6-.74.66-.66,1.53-1.09,2.73-1.09h.19c.92,0,1.91.36,2.71,1.08.46.42.86.96,1.13,1.62.42-.69.89-1.28,1.39-1.73.69-.61,1.44-.97,2.27-.97h.22c1.07,0,2.25.5,3.09,1.5.69.82,1.16,1.98,1.16,3.47v6.31c0,.58.07,1.01.22,1.28.12.21.3.34.56.38l.56.09-.22.52c-.12.29-.54.68-1.03.97-.4.23-.86.4-1.29.4-.71,0-1.27-.37-1.64-1.09-.32-.61-.49-1.5-.49-2.63v-6.22c0-.78-.24-1.48-.6-1.98-.36-.5-.82-.8-1.27-.8s-.9.34-1.31.83c-.57.67-1.01,1.58-1.22,2.29v5.98c0,.58.07,1.01.22,1.28.12.22.31.34.59.38l.64.1-.33.56c-.16.27-.57.66-1.05.93-.38.22-.82.38-1.23.38-.73,0-1.3-.37-1.68-1.09-.33-.62-.51-1.5-.51-2.64v-6.28c0-.77-.24-1.44-.6-1.93-.36-.49-.82-.78-1.28-.78h-.06c-.52,0-1.01.4-1.4.93-.63.85-1,1.98-1,2.47v5.69c0,.58.07,1.01.22,1.28.12.21.3.34.56.38l.56.09-.22.52c-.12.29-.53.69-1.02.97Zm78.19-28.9c-.06-.55-.18-1.07-.36-1.58-.28-.8-.72-1.55-1.3-2.25h0c-.25-.31-.54-.61-.88-.91h0c-.34-.3-.72-.6-1.15-.89h0c-.42-.29-.9-.57-1.44-.84-.55-.27-1.14-.53-1.79-.77-.65-.24-1.36-.46-2.15-.66-.79-.2-1.64-.37-2.55-.52h0c-.91-.14-1.9-.25-2.99-.33-1.06-.07-2.22-.11-3.46-.11s-2.4.05-3.56.17c-1.15.11-2.3.28-3.43.5-1.14.22-2.22.49-3.25.79-1.02.3-2,.65-2.95,1.05h0c-.38.16-.76.32-1.12.5.03.48.04.96.04,1.46,0,4.76-1.25,8.83-3.41,11.94.41.29.85.58,1.33.86,1.01.6,2.18,1.19,3.49,1.76,1.33.58,2.85,1.13,4.56,1.66,1.7.53,3.6,1.03,5.68,1.51,1.89.43,3.72.88,5.48,1.34,1.75.46,3.42.92,5,1.38,1.6.47,3.09.99,4.46,1.56,1.38.57,2.65,1.19,3.81,1.85,1.17.67,2.21,1.41,3.12,2.22.91.81,1.7,1.7,2.35,2.65h0c.66.97,1.16,2.04,1.49,3.24.33,1.19.49,2.48.49,3.88s-.15,2.7-.46,3.91c-.31,1.22-.77,2.34-1.39,3.36-.61,1.02-1.34,1.94-2.19,2.79-.85.84-1.81,1.59-2.89,2.25-1.07.66-2.24,1.22-3.51,1.71-1.26.48-2.63.88-4.08,1.19h0c-1.45.31-2.96.54-4.53.69-1.58.15-3.2.23-4.87.23s-3.34-.08-4.99-.24c-1.65-.16-3.27-.39-4.86-.71-1.6-.31-3.11-.7-4.54-1.14-1.43-.45-2.77-.96-4.02-1.54-1.26-.58-2.39-1.22-3.4-1.92-1.01-.71-1.91-1.48-2.67-2.31-.78-.84-1.37-1.74-1.76-2.68-.4-.95-.59-1.94-.59-2.97,0-.56.07-1.07.2-1.54.14-.48.35-.9.62-1.27.27-.36.58-.67.92-.92.35-.25.73-.45,1.14-.59.4-.14.82-.23,1.25-.27.43-.04.86-.04,1.31.01h0c.45.05.88.15,1.29.3.41.15.81.34,1.19.58h0c.35.22.65.51.91.85.25.33.45.73.61,1.19.16.45.25.9.28,1.36.03.46,0,.93-.09,1.4h0c-.1.48-.26.94-.48,1.39-.22.44-.51.87-.87,1.29-.37.44-.81.81-1.33,1.12-.33.2-.7.37-1.1.52.16.2.36.39.59.59.44.39,1,.77,1.68,1.15h0c.7.39,1.45.76,2.27,1.1.81.34,1.67.66,2.58.96h0c.93.3,1.88.57,2.84.81.96.24,1.96.44,3,.63,1.04.18,2.02.31,2.95.4.93.09,1.82.13,2.7.13,1.48,0,2.9-.1,4.26-.29,1.37-.19,2.68-.49,3.94-.87,1.26-.39,2.41-.84,3.46-1.35,1.03-.51,1.97-1.07,2.79-1.7h0c.81-.62,1.49-1.28,2.05-1.99.55-.7.97-1.45,1.27-2.23.29-.77.4-1.54.34-2.32-.06-.79-.29-1.59-.7-2.4-.41-.82-1.03-1.64-1.86-2.46-.84-.83-1.89-1.65-3.15-2.46-1.27-.82-2.8-1.6-4.59-2.33-1.8-.74-3.87-1.43-6.21-2.08-2.3-.64-4.39-1.22-6.3-1.75-1.77-.49-3.64-.99-5.53-1.5-1.71-.46-3.3-.95-4.76-1.47-.12-.04-.24-.09-.36-.13v7.73c0,.58.07,1.01.22,1.28.12.21.3.34.56.38l.56.09-.22.52c-.12.28-.53.68-1.01.97-.39.23-.85.4-1.27.4-.62,0-1.12-.29-1.49-.81h0c-.2-.29-.36-.65-.48-1.08-.43.44-.91.87-1.41,1.2-.61.41-1.26.69-1.88.69h-.25c-1.12,0-2.33-.45-3.19-1.39-.71-.78-1.19-1.89-1.19-3.36v-6.41c0-.67-.06-1.08-.19-1.36-.11-.24-.27-.38-.49-.53l-.42-.28.33-.38c.34-.39.72-.68,1.13-.87.44-.21.91-.32,1.38-.34h.13s.11.07.11.07c.41.25.76.64,1.01,1.13.22.44.36.96.36,1.53v7.53h0c.01.79.22,1.36.55,1.73.36.4.88.58,1.48.58h.28c.31,0,.91-.37,1.41-.9.37-.4.65-.89.65-1.38v-6.19c0-.82-.07-1.32-.2-1.65-.11-.27-.29-.43-.52-.57l-.51-.3.03-.03c-.84-.46-1.59-.97-2.27-1.5-.35-.28-.68-.56-.98-.86-1.57.48-3.24.74-5.01.74-4.76,0-8.99-1.74-11.97-5.03-2.78-3.06-4.46-7.46-4.46-13.04s1.61-9.93,4.44-12.99c2.9-3.14,7.06-4.84,12.07-4.84s9.12,1.56,12.11,4.68c1.94,2.03,3.34,4.71,3.99,8.04.63-.2,1.27-.39,1.91-.56h0c1.09-.3,2.17-.55,3.24-.77,1.07-.21,2.18-.39,3.3-.54,1.11-.14,2.19-.25,3.24-.32,1.07-.07,2.11-.11,3.11-.11,1.5,0,2.93.07,4.31.21,1.37.14,2.67.35,3.89.62h0c1.22.28,2.35.6,3.4.98,1.06.38,2.03.8,2.92,1.27h0c.89.48,1.69.99,2.41,1.55.72.56,1.35,1.16,1.88,1.8h0c.54.65.98,1.33,1.31,2.02.33.7.56,1.43.67,2.18h0c.11.72.16,1.38.13,2-.03.63-.12,1.2-.29,1.72-.17.51-.38.98-.62,1.39-.25.43-.55.8-.88,1.13h0c-.33.33-.7.61-1.09.84-.39.23-.81.42-1.26.56h0c-.44.14-.87.25-1.3.32-.43.07-.85.11-1.27.11-.32,0-.64-.03-.95-.09-.31-.06-.61-.16-.89-.28-.28-.12-.54-.26-.77-.42-.24-.16-.46-.35-.66-.55-.2-.2-.38-.41-.54-.64-.16-.23-.29-.47-.41-.73h0c-.12-.26-.21-.53-.26-.8-.06-.28-.09-.56-.09-.84s.03-.56.09-.84c.06-.27.14-.54.26-.81h0c.11-.26.25-.52.42-.75.16-.24.35-.46.55-.67h0c.21-.22.45-.41.7-.57.25-.16.52-.3.82-.43.3-.12.61-.22.95-.28.33-.06.67-.09,1.02-.09.25,0,.51.03.77.08.26.05.52.13.79.23h0c.26.1.5.2.73.31.24.11.46.22.67.33h0c.18.1.36.2.52.3Z"/></clipPath><clipPath id="clippath-1"><path class="cls-2" d="m166.44,48.06c.3-.08.58-.18.84-.33.26-.15.51-.33.74-.55.24-.23.45-.47.63-.75.19-.28.35-.58.49-.91h0c.14-.33.25-.68.34-1.06.09-.38.15-.77.18-1.19h0c.03-.42.03-.84,0-1.27-.03-.43-.1-.86-.21-1.3h0c-.1-.44-.24-.86-.4-1.25-.16-.4-.35-.77-.57-1.12-.22-.35-.45-.68-.7-.98-.25-.3-.51-.57-.79-.8h0c-.28-.23-.56-.43-.85-.6-.29-.16-.59-.29-.9-.38h0c-.31-.09-.61-.14-.9-.15-.3,0-.59.03-.89.1h0c-.31.08-.6.19-.87.33-.27.15-.52.33-.74.55h0c-.24.23-.45.48-.64.75-.19.27-.35.57-.49.9h0c-.14.33-.25.67-.34,1.04-.09.37-.14.77-.17,1.19h0c-.03.42-.02.84.02,1.27.04.43.11.87.21,1.3.1.44.23.86.39,1.26.16.41.35.79.55,1.14.21.36.44.68.69.98.25.29.51.55.79.78h0c.28.23.57.43.87.6.29.16.59.29.9.39.3.1.6.15.9.16.3.01.61-.02.91-.1h0Zm-47.1-12.86c.89-1.68,1.69-3.29,2.41-4.82h0c.41-.86.8-1.71,1.16-2.55.36-.84.71-1.68,1.03-2.51.32-.82.59-1.6.82-2.34.23-.73.41-1.41.54-2.05h0c.14-.63.21-1.19.22-1.67.01-.47-.03-.89-.12-1.23-.08-.28-.21-.49-.39-.61-.19-.14-.46-.2-.81-.2-.36,0-.7.09-1.02.27-.33.19-.65.48-.95.88-.32.43-.62.92-.89,1.49-.27.57-.52,1.22-.73,1.93h0c-.22.73-.42,1.51-.58,2.34-.17.82-.31,1.71-.42,2.66h0c-.12.95-.2,1.9-.26,2.85-.06.95-.08,1.92-.08,2.91,0,.89.02,1.78.06,2.66Zm19.64-5.85c-.55-.22-1.08-.41-1.58-.55-.5-.14-.97-.24-1.4-.3-.4-.05-.75-.04-1.07.04-.29.07-.54.2-.76.39h0c-.16.15-.33.27-.5.37-.17.1-.35.18-.54.23h0c-.18.06-.35.08-.51.09-.2,0-.37-.03-.52-.11h0c-.23-.12-.35-.31-.37-.57-.01-.16.03-.34.12-.54h0c.08-.17.22-.34.41-.53.17-.17.39-.36.66-.56h0c.58-.43,1.15-.79,1.69-1.06.56-.28,1.1-.49,1.63-.61h0c.51-.12,1.01-.2,1.49-.23.48-.03.95-.02,1.41.04.45.06.88.14,1.29.26.41.12.81.26,1.19.44h0c.34.16.67.32.99.47.3.15.62.31.94.47h0c.28.14.54.26.78.36.24.1.45.18.65.24h0c.12.04.24.05.34.03.1-.02.19-.07.28-.16h0c.11-.1.23-.19.37-.26.14-.07.29-.13.46-.16.16-.04.31-.06.45-.06.16,0,.31.01.44.05.21.06.37.17.47.34.1.17.13.36.09.57h0c-.04.19-.15.37-.34.56-.13.13-.31.29-.54.45-.42.37-.83.67-1.22.92-.41.25-.8.43-1.18.54-.37.11-.73.18-1.08.21-.35.03-.7.02-1.05-.03h0c-.33-.05-.65-.12-.97-.22-.31-.1-.62-.22-.91-.36h0c-.27-.13-.54-.26-.82-.39-.28-.13-.55-.25-.81-.37Zm-24.05,17.76c-.19.24-.4.49-.63.76-.23.27-.48.54-.74.81h0c-.27.28-.56.56-.86.82-.31.27-.62.52-.94.75h0c-.34.25-.69.47-1.04.67-.37.21-.75.39-1.14.56-.41.17-.83.3-1.26.39-.43.09-.87.13-1.31.13-.5,0-.97-.08-1.42-.25-.45-.16-.87-.41-1.26-.73-.37-.3-.71-.62-1.02-.96-.31-.34-.6-.69-.87-1.06h0c-.25-.36-.48-.71-.68-1.05-.21-.34-.38-.67-.53-.98h0s-.06-.14-.06-.14l-.1.18h0c-.19.32-.41.65-.66.99-.24.33-.52.68-.83,1.04-.32.37-.67.73-1.04,1.06-.37.33-.77.65-1.21.95-.46.31-.94.55-1.44.71-.51.16-1.03.24-1.58.24s-1.11-.06-1.61-.17c-.51-.12-.99-.29-1.42-.53-.43-.23-.82-.51-1.17-.83-.35-.32-.65-.68-.91-1.08h0c-.26-.39-.47-.82-.65-1.28-.17-.45-.3-.94-.38-1.45h0c-.08-.5-.12-1.02-.12-1.56,0-.54.06-1.09.15-1.64h0c.1-.55.24-1.11.43-1.68.19-.56.42-1.12.7-1.68.28-.56.6-1.12.98-1.66.37-.54.79-1.07,1.25-1.58h0c.5-.55,1.02-1.04,1.55-1.46.54-.43,1.09-.78,1.64-1.06.55-.28,1.1-.51,1.64-.7.54-.19,1.09-.34,1.63-.44h0c.49-.09.95-.15,1.41-.18.46-.03.9-.03,1.33,0h0c.42.03.81.08,1.18.14.37.06.71.14,1.03.23.32.09.6.19.84.3.25.12.47.25.65.39h0c.22.17.36.34.44.52.12.27.09.53-.08.77h0c-.11.16-.24.28-.37.35-.18.1-.36.14-.55.11h0c-.1-.02-.21-.05-.34-.09-.1-.03-.23-.08-.38-.15h0c-.12-.05-.25-.1-.41-.16-.18-.06-.36-.11-.55-.17h0c-.19-.05-.42-.09-.68-.12-.26-.03-.57-.04-.92-.04-.31,0-.62.03-.93.1-.31.07-.63.17-.94.31h0c-.33.15-.65.32-.95.51-.31.2-.61.42-.9.66h0c-.3.25-.58.52-.83.81-.26.29-.51.61-.74.94-.23.33-.42.67-.59,1.02-.17.35-.3.7-.4,1.06h0c-.16.56-.27,1.08-.33,1.57-.06.48-.06.92-.02,1.33.04.41.12.79.22,1.14.1.34.23.65.39.93.16.27.33.52.52.72.18.2.38.37.59.5h0c.22.14.42.24.62.31.18.06.35.09.52.09.35,0,.66-.05.94-.15.27-.1.52-.25.74-.45.24-.22.47-.47.67-.74.21-.28.39-.59.55-.91h0c.17-.34.32-.7.46-1.08.14-.38.26-.77.37-1.17.13-.5.23-.89.31-1.2.05-.18.14-.57.29-1.14h0c.1-.37.19-.71.29-1.02.1-.32.2-.6.3-.84h0c.13-.31.28-.54.46-.71.22-.21.48-.32.77-.32s.55.11.8.32c.2.17.39.41.56.72h0c.15.28.31.58.46.92.16.34.31.7.46,1.08h0c.15.37.31.77.47,1.21.17.45.34.89.5,1.32.17.45.34.87.53,1.28.18.4.38.79.59,1.17.21.37.42.7.64,1.01.22.3.46.58.7.82.22.22.44.38.68.48.23.1.48.15.73.15.21,0,.41-.02.59-.06.18-.04.36-.11.53-.19h0c.19-.1.37-.2.53-.3.16-.11.32-.22.46-.34h0c.15-.13.3-.28.45-.43.15-.16.29-.33.42-.51h0s.98-1.24.98-1.24l-.11-.03.14-.24c-.1-.4-.2-.81-.29-1.22-.14-.65-.26-1.31-.37-1.98h0c-.11-.69-.2-1.37-.27-2.03-.07-.68-.13-1.35-.17-2.03-.04-.66-.07-1.31-.1-1.95-.02-.62-.03-1.22-.03-1.81v-.05c.16-1.72.4-3.36.72-4.91.32-1.56.71-3.02,1.18-4.39.2-.58.42-1.16.66-1.73.24-.57.51-1.13.8-1.7.29-.57.61-1.11.95-1.61.34-.5.71-.98,1.11-1.44.4-.46.84-.87,1.3-1.23.46-.37.95-.69,1.47-.96h0c.53-.28,1.1-.49,1.7-.64.6-.14,1.22-.21,1.88-.21.7,0,1.3.13,1.78.38.51.27.9.66,1.16,1.19.23.48.38,1.03.45,1.65.07.6.05,1.27-.04,2-.09.71-.24,1.47-.45,2.29-.21.81-.48,1.66-.81,2.55h0c-.33.91-.68,1.81-1.06,2.71-.38.9-.79,1.82-1.24,2.77h0c-1.03,2.2-2.23,4.53-3.6,7-.37.66-.75,1.33-1.14,2.02.08.62.18,1.22.28,1.79.15.83.33,1.61.53,2.34.2.72.43,1.37.67,1.95.24.56.51,1.06.81,1.49h0c.27.39.56.68.86.87.28.17.58.26.9.26h.06c.15.02.32.01.5-.02.19-.04.4-.11.62-.22h0c.19-.09.41-.21.65-.37.24-.16.5-.36.78-.6h0c.28-.24.57-.53.88-.89.26-.31.54-.66.82-1.06.02-.42.07-.85.14-1.28h0c.1-.55.24-1.11.43-1.68.19-.56.42-1.12.7-1.68.28-.56.6-1.12.98-1.66.37-.54.79-1.07,1.25-1.58h0c.5-.55,1.02-1.04,1.55-1.46.54-.43,1.09-.78,1.64-1.06.55-.28,1.1-.51,1.64-.7.54-.19,1.09-.34,1.63-.44h0c.49-.09.95-.15,1.41-.18.46-.03.9-.03,1.33,0h0c.42.03.81.08,1.18.14.37.06.71.14,1.03.23.32.09.6.19.84.3.26.12.48.25.65.39h0c.21.17.36.34.44.52.12.27.09.53-.08.77h0c-.11.16-.24.28-.37.35-.18.1-.36.14-.55.11h0c-.1-.02-.21-.05-.34-.09-.1-.03-.23-.08-.38-.15h0c-.12-.05-.25-.1-.41-.16-.17-.06-.36-.11-.55-.17h0c-.19-.05-.42-.09-.68-.12-.26-.03-.57-.04-.92-.04-.31,0-.62.03-.93.1-.31.07-.63.17-.94.31h0c-.33.15-.65.32-.95.51-.31.19-.61.42-.9.67-.3.25-.57.52-.83.81-.26.29-.51.61-.74.94-.23.33-.42.67-.59,1.02-.17.35-.3.7-.4,1.06h0c-.16.56-.27,1.08-.33,1.57-.06.48-.06.92-.02,1.33h0c.05.41.12.79.22,1.14.1.34.23.65.39.93.16.27.33.52.52.72.19.2.38.37.59.5h0c.22.14.42.24.62.31.18.06.35.09.52.09.35,0,.66-.05.94-.15.27-.1.52-.25.74-.45.24-.22.47-.47.67-.74.21-.28.39-.59.55-.91h0c.17-.34.32-.7.46-1.08.14-.38.26-.77.37-1.17.13-.5.23-.9.31-1.2.04-.16.14-.55.29-1.14h0c.1-.37.19-.71.29-1.02.1-.32.2-.6.3-.84h0c.13-.31.28-.54.46-.71.22-.21.48-.32.77-.32s.55.11.79.32c.2.17.39.41.56.72h0c.15.28.31.58.46.92.16.34.31.7.46,1.08h0c.15.37.3.77.47,1.21.17.45.34.89.5,1.32.17.45.34.87.53,1.28.18.4.38.79.59,1.17.21.37.42.7.64,1.01.22.3.45.57.7.82.22.22.45.38.68.48.23.1.48.15.74.15.21,0,.41-.02.59-.06.18-.04.36-.11.53-.19h0c.19-.1.37-.2.53-.3.16-.11.32-.22.46-.34h0c.15-.13.3-.28.45-.43.15-.16.29-.33.42-.51h0s.86-1.1.86-1.1c-.04-.16-.07-.32-.1-.49-.12-.61-.17-1.24-.18-1.9,0-.66.06-1.29.18-1.9.12-.62.29-1.21.52-1.78.23-.57.5-1.1.82-1.61.32-.5.68-.97,1.09-1.39.4-.42.84-.81,1.32-1.14.47-.34.98-.63,1.52-.89h0c.55-.25,1.11-.45,1.7-.57.58-.13,1.19-.19,1.8-.19s1.22.06,1.8.19c.58.13,1.15.32,1.7.57h0c.54.26,1.05.55,1.52.89.47.34.91.72,1.32,1.14.41.43.77.89,1.09,1.39.32.49.6,1.03.83,1.6h0c.24.57.42,1.17.54,1.79.12.62.18,1.25.18,1.9s-.06,1.28-.18,1.9c-.12.62-.3,1.21-.54,1.79-.24.57-.51,1.1-.83,1.6-.32.5-.69.96-1.09,1.39-.4.42-.84.8-1.32,1.14-.47.34-.98.63-1.52.89h0c-.55.26-1.11.45-1.7.57-.58.13-1.19.19-1.81.19s-1.22-.06-1.8-.19c-.58-.13-1.15-.32-1.7-.57h0c-.54-.26-1.05-.55-1.52-.89-.47-.34-.91-.72-1.32-1.14-.41-.43-.77-.89-1.09-1.39-.12-.2-.24-.4-.35-.6-.17.21-.34.42-.52.63-.22.25-.47.52-.74.81h0c-.27.28-.56.56-.86.82-.31.27-.62.52-.94.75h0c-.34.25-.69.47-1.04.67-.37.21-.75.39-1.14.56-.41.17-.83.3-1.26.39-.43.09-.87.13-1.31.13-.5,0-.97-.08-1.42-.25-.45-.16-.87-.41-1.26-.73-.37-.3-.71-.62-1.02-.96-.31-.34-.6-.69-.87-1.06h0c-.25-.36-.48-.71-.68-1.05-.21-.34-.38-.67-.53-.98h0s-.06-.14-.06-.14l-.1.18h0c-.19.32-.41.65-.66.99-.25.33-.52.68-.83,1.04-.32.37-.67.73-1.04,1.06-.37.33-.78.65-1.21.95-.46.31-.94.55-1.44.71-.51.16-1.04.24-1.58.24s-1.11-.06-1.61-.17c-.51-.12-.99-.29-1.42-.53-.43-.23-.82-.51-1.17-.83-.35-.32-.65-.68-.91-1.08h0c-.26-.39-.47-.82-.65-1.28-.04-.12-.08-.23-.12-.35-.03.03-.05.06-.08.09-.31.36-.67.73-1.08,1.12-.41.39-.85.75-1.33,1.1-.47.34-.98.67-1.53.98h0c-.57.32-1.17.56-1.79.72-.62.16-1.27.24-1.95.24-.55,0-1.07-.08-1.56-.24-.49-.16-.95-.39-1.37-.71-.41-.3-.79-.66-1.14-1.07-.34-.4-.66-.85-.94-1.36-.27-.48-.52-.99-.73-1.51Z"/></clipPath><clipPath id="clippath-2"><path class="cls-2" d="m98.08,67.91s-.06.07-.08.1c-.02.03-.04.07-.06.1.08,0,.18.01.28.03h0s.04.01.06.04c.01.03.02.06.04.11.01.04.02.09.01.15,0,.01,0,.03,0,.05,0,.02,0,.04,0,.05-.02.03-.04.05-.06.05h-.04s-.04,0-.07,0c-.08.01-.18.05-.28.1,0,.03.01.05.02.07,0,.02.02.04.03.06.01.01.02.03.03.04,0,.01.02.02.02.04,0,.01.01.02.02.03.02.01.03.03.05.04.01.01.03.03.05.04.08.06.17.11.28.13.1.03.21.04.31.04.08-.11.14-.22.19-.32.04-.11.08-.21.11-.32.06-.24.09-.42.07-.56-.02-.13-.04-.21-.05-.25-.03-.07-.07-.12-.14-.15-.06-.03-.13-.04-.22-.03-.08.01-.18.04-.28.1-.1.06-.2.14-.29.24m-.79,1.51c-.05.12-.08.21-.1.28,0,.04,0,.08,0,.12s0,.07.02.1c.02.04.06.07.1.09.04.02.08.03.14.03s.14-.02.24-.06c.06-.03.13-.06.2-.1.07-.04.15-.08.23-.13.13-.09.24-.17.31-.26-.25-.01-.47-.1-.66-.27-.08-.08-.15-.17-.19-.28-.01.01-.02.03-.03.04-.01.01-.02.03-.04.04-.01.01-.03.03-.04.06-.02.03-.04.06-.06.09-.02.04-.05.08-.07.12s-.04.08-.05.11Zm-8.9,4.38c.05-.05.13-.15.26-.29.13-.14.28-.32.46-.53.18-.21.38-.46.6-.73.22-.27.45-.57.69-.89-.44.42-.81.79-1.12,1.12-.31.33-.51.55-.6.68-.08.12-.14.23-.18.34-.05.11-.08.21-.11.31Zm5.1-3.96c.24-.07.46-.16.63-.27.18-.11.32-.23.45-.37-.19.08-.35.16-.48.24-.13.08-.25.15-.33.2-.1.08-.19.14-.26.19Zm-2-.05l.03-.04c.03-.05.08-.14.15-.24.07-.11.15-.23.23-.36.08-.13.17-.27.27-.42.09-.14.18-.28.26-.41.08-.13.15-.24.21-.33.06-.1.1-.16.12-.21,0-.01.02-.03.04-.05.01-.01.03-.03.04-.05.02-.02.04-.04.06-.06,0,0,.01,0,.03-.02,0,0,.02-.02.04-.03.01,0,.03-.01.04-.02.01,0,.03-.01.04-.02.07-.03.15-.06.25-.09.1-.03.19-.06.27-.07.08-.01.15-.01.21,0,.05.01.07.05.04.11-.02.03-.03.05-.05.08-.02.02-.04.05-.06.08h0c-.08.12-.17.25-.25.37-.08.11-.16.23-.26.37-.1.13-.19.27-.28.41.23-.17.45-.33.66-.48.21-.15.41-.28.59-.4.18-.12.35-.21.51-.29.15-.08.29-.13.4-.16.15-.03.28-.02.39.04.09.05.17.15.23.3.06.14.07.37.03.67,0,.01,0,.03,0,.05s0,.03,0,.05c0,.01,0,.03,0,.05s0,.03,0,.05c.09-.02.18-.04.26-.06.09-.02.18-.03.27-.05.2-.03.42-.06.64-.08.13,0,.26-.02.4-.02.03-.03.06-.05.1-.08.12-.08.19-.13.21-.14,0,0,.01-.01.02-.01.03-.1.07-.18.11-.26.05-.08.09-.15.14-.21.05-.06.09-.11.14-.15.04-.04.08-.07.1-.09.06-.05.13-.09.21-.13.08-.04.17-.07.25-.09.09-.02.18-.03.26-.03s.17.02.24.05c.05.03.09.06.14.11.05.04.09.1.12.18,0,.02.01.04.02.06,0,.02.01.04.02.06.02.08.04.18.04.28,0,.11,0,.23-.03.38,0,0,0,.01,0,.02-.03.16-.07.29-.11.41-.05.11-.08.2-.11.27-.04.05-.05.08-.05.08,0,0-.01.01-.02.01h0s.09-.02.14-.03c.04-.01.09-.03.14-.04.16-.05.31-.12.45-.19.14-.07.27-.14.38-.21.06-.04.13-.08.19-.12.04-.03.07-.06.11-.09.27-.22.49-.41.66-.58-.1-.06-.17-.15-.21-.25-.04-.11-.06-.22-.06-.34,0-.11.02-.21.07-.29.05-.09.1-.16.16-.22.06-.07.14-.14.22-.19.08.01.15.03.21.06.05.03.1.06.15.11.05.04.08.1.09.17l-.02.02s-.01.01-.02.02c0,0-.02.02-.03.03-.06.06-.13.14-.18.23-.03.05-.05.1-.07.14-.01.05-.02.1,0,.14,0,.01,0,.02,0,.03.03.12.09.17.18.15.04,0,.08-.02.12-.04.04-.02.08-.03.13-.05.25-.1.45-.13.6-.1.05.01.1.03.15.06.06.02.1.06.14.12.08.1.1.22.05.37-.05.15-.13.31-.24.48-.11.17-.24.34-.38.5-.14.17-.26.32-.36.46-.1.14-.17.25-.19.34-.03.09.02.14.14.15.11.01.24,0,.38-.04s.29-.1.45-.17c.15-.07.31-.15.48-.25.16-.09.32-.19.47-.29.36-.23.73-.5,1.11-.81h.32c-.44.38-.87.7-1.3.98-.18.12-.37.23-.57.34-.2.11-.39.21-.58.29-.19.08-.38.14-.56.19-.18.04-.35.05-.5.03-.19-.02-.31-.08-.36-.18-.05-.1-.06-.22-.03-.36.03-.14.09-.29.18-.45.09-.16.19-.31.28-.46.1-.15.19-.28.28-.4.09-.12.14-.2.17-.26.01-.02.02-.04.03-.07.01-.05.01-.08,0-.1-.01-.02-.04-.03-.07-.04-.03,0-.06,0-.11.01-.12.03-.22.04-.28.05-.06,0-.11,0-.14,0,0,0-.01,0-.01,0,0,0,0,0-.01,0-.04.04-.08.08-.11.11-.03.03-.06.07-.09.09-.03.03-.06.05-.09.07-.03.03-.06.05-.1.08-.04.02-.08.05-.12.09-.1.08-.2.15-.31.22-.11.07-.2.14-.28.19-.1.07-.2.13-.29.19l-.03-.03c-.13.07-.27.15-.42.22-.23.12-.47.2-.71.25-.02,0-.04,0-.05.01-.13.15-.29.3-.48.44-.19.14-.42.27-.69.39-.03.01-.06.03-.09.04-.03,0-.06.02-.08.04-.12.03-.22.05-.3.06-.08,0-.15,0-.21-.02-.06-.01-.12-.03-.17-.06-.04-.03-.07-.07-.1-.1-.03-.03-.05-.07-.07-.1-.06-.1-.09-.24-.08-.4,0-.07.01-.15.04-.26.04-.14.1-.27.17-.4.08-.13.16-.25.25-.37.06-.07.12-.14.17-.2-.14.02-.27.04-.39.06-.42.07-.81.16-1.15.25-.09.23-.22.43-.39.59-.17.16-.36.29-.57.4-.21.1-.42.18-.64.22-.22.04-.41.07-.57.08-.12-.03-.19-.08-.21-.14-.02-.07-.03-.12-.03-.16,0-.02,0-.04.03-.06.12-.11.28-.23.49-.37.21-.13.47-.26.79-.39.05-.02.09-.04.14-.06.05-.02.1-.04.14-.06.03-.04.05-.08.07-.12.02-.04.04-.08.06-.11.05-.12.09-.23.12-.34.03-.11.05-.21.06-.29.02-.1.03-.19.03-.27-.37.16-.76.39-1.18.67-.42.28-.85.6-1.29.95-.06.05-.13.1-.19.14-.06.05-.12.1-.19.15l-.12.17c-.13.18-.25.35-.36.51-.11.16-.2.29-.26.39-.32.49-.64.97-.98,1.43-.34.46-.68.86-1.03,1.19-.07.07-.16.16-.27.26-.11.11-.22.21-.34.31-.12.1-.23.19-.33.27-.1.08-.18.11-.24.11-.08,0-.13-.01-.17-.06-.04-.05-.06-.08-.07-.08,0-.01-.01-.03-.02-.04,0-.01-.01-.03-.03-.05h0s-.01-.09-.02-.18c0-.1,0-.22.03-.36.03-.14.08-.31.17-.49.08-.18.22-.37.4-.56.1-.11.23-.24.39-.4.16-.15.35-.33.56-.53.08-.08.17-.15.25-.24.09-.08.18-.16.28-.25.18-.16.36-.32.55-.49.19-.17.39-.34.59-.51l.1-.12.11-.18Zm41.65-1.84s-.05-.07,0-.15c.04-.09.1-.19.17-.3.07-.11.14-.22.2-.33.06-.11.08-.2.07-.27,0,0,0-.02,0-.03.01-.03.05-.06.1-.1.05-.03.13-.08.25-.13.12-.05.23-.08.33-.09.1-.01.17.02.21.09.04.07,0,.21-.11.42-.08.15-.18.29-.29.42-.11.13-.23.28-.35.46-.09,0-.18.01-.25.02-.06,0-.13.01-.19.02-.06,0-.11,0-.14-.02Zm6.24-3.25c.03-.12,0-.15-.11-.09-.11.05-.25.16-.43.32-.18.16-.39.35-.62.57-.23.22-.45.44-.65.65-.2.21-.38.4-.54.57-.15.16-.25.27-.28.32.44-.28.85-.56,1.22-.83.16-.12.31-.24.47-.37.16-.13.3-.26.42-.39.13-.13.24-.26.33-.38.09-.12.16-.24.19-.35Zm-14.72,5.03s-.09-.07-.15-.11c-.06-.05-.12-.11-.17-.18-.05-.07-.08-.14-.1-.22-.01-.06,0-.12.03-.18-.12.08-.23.16-.34.23-.16.11-.33.21-.5.31-.17.1-.33.19-.5.27-.16.08-.31.14-.46.18-.14.04-.27.06-.37.05-.16-.01-.31-.05-.45-.11-.12-.05-.22-.14-.32-.25-.1-.11-.15-.27-.17-.48-.01-.14,0-.27,0-.4.02-.13.04-.24.05-.33.02-.11.05-.21.08-.3-.41.33-.8.62-1.15.88-.15.11-.3.22-.45.32-.15.11-.29.2-.41.28-.13.08-.24.15-.33.2-.1.05-.16.07-.21.07-.24,0-.4-.04-.49-.15-.05.04-.09.07-.14.11-.47.34-.95.66-1.43.96-.48.3-.98.56-1.49.77-.51.21-1.04.36-1.59.44-.55.09-1.12.08-1.71-.03-.12-.02-.24-.04-.35-.07-.11-.03-.22-.06-.32-.09-.39-.14-.7-.32-.93-.54s-.4-.46-.5-.72c-.11-.26-.17-.52-.19-.79-.02-.27-.01-.53.02-.77.03-.24.07-.45.12-.64.05-.19.09-.33.12-.43.1-.31.21-.6.34-.87.13-.27.25-.51.37-.7.13-.23.27-.45.41-.66.44-.64.88-1.19,1.31-1.67.43-.47.85-.88,1.26-1.22.41-.34.8-.62,1.17-.84.37-.22.72-.4,1.04-.53.75-.31,1.45-.45,2.12-.42.16,0,.32.04.46.11.12.05.23.14.34.26.11.12.19.27.24.47.01.05.02.11.03.17,0,.05,0,.12,0,.19s0,.15-.02.22c-.03.04-.06.08-.1.11-.04.03-.08.07-.13.1-.05.03-.12.06-.2.07h0s-.02-.01-.04-.04c0-.01,0-.03,0-.04-.01-.05-.02-.11-.03-.17,0-.06-.02-.11-.03-.16-.02-.06-.03-.1-.04-.14,0,0,0,0,0-.02h0c-.05-.13-.11-.23-.17-.31-.07-.08-.14-.13-.22-.16-.08-.03-.15-.06-.22-.07-.07-.01-.13-.01-.17-.01-.21-.01-.52.04-.93.17-.41.13-.88.36-1.4.69-.53.33-1.09.77-1.68,1.32-.6.55-1.18,1.23-1.76,2.04-.57.8-.99,1.55-1.27,2.26-.27.7-.37,1.31-.31,1.84.07.52.31.94.74,1.24.42.31,1.04.47,1.85.48.66.01,1.29-.09,1.9-.31.61-.22,1.19-.51,1.74-.85.55-.35,1.09-.73,1.6-1.15.12-.1.23-.19.35-.28.05-.06.11-.12.2-.2.13-.12.28-.25.46-.4.18-.15.37-.3.58-.45.21-.15.42-.3.63-.43.21-.13.41-.25.61-.34.2-.1.37-.16.53-.19.15-.02.28-.02.4.01.11.03.21.1.3.18.1.09.16.24.21.44,0,.01,0,.02,0,.03,0,0-.01,0-.03-.02-.02-.04-.06-.09-.1-.13-.04-.05-.1-.09-.16-.12-.06-.03-.14-.05-.22-.05-.08,0-.17.02-.27.08-.09.05-.21.12-.37.22-.16.1-.33.21-.51.34-.18.13-.37.27-.56.41-.19.14-.36.28-.51.42-.15.14-.28.26-.37.38-.1.12-.14.21-.14.28.02,0,.07-.03.13-.06.05-.03.13-.08.22-.14.1-.06.22-.15.38-.27.16-.12.33-.25.52-.4.19-.15.37-.29.54-.43.17-.13.33-.25.46-.34.14-.1.23-.15.28-.16.15-.03.27,0,.37.07l.02.02c.06.06.09.12.11.21.01.08,0,.16-.03.24-.03.07-.06.18-.1.34-.04.16-.06.33-.07.49,0,.17.01.32.06.44.05.13.14.19.28.18.11,0,.24-.03.39-.09.15-.06.31-.13.48-.22.17-.09.34-.18.51-.28.17-.1.33-.2.48-.3.15-.1.29-.19.41-.28l.06-.04c.07-.1.13-.19.19-.28.08-.12.15-.23.22-.33.06-.1.11-.19.13-.25.01-.03.03-.07.06-.11.03-.04.07-.05.11-.04.03.02.08.05.14.09.06.04.1.08.15.13.04.05.08.11.1.17.02.06.01.12-.03.19-.05.08-.12.16-.19.25-.07.09-.14.17-.21.26-.07.08-.13.16-.18.23-.05.07-.09.13-.11.17.37-.34.73-.64,1.07-.89.15-.11.29-.21.45-.31.15-.1.3-.18.44-.26.14-.07.28-.13.4-.16.12-.03.23-.04.32-.01.18.05.28.15.32.32.04.16.03.36-.03.58-.06.22-.16.45-.3.7-.14.25-.29.47-.47.68.13-.12.28-.25.45-.39.14-.12.3-.25.49-.39.19-.14.38-.29.6-.44.2-.14.4-.28.59-.41.2-.13.38-.24.56-.32.17-.09.34-.15.49-.2.15-.04.28-.05.39-.03.05.01.1.03.15.06.06.02.1.06.14.12.08.1.1.22.05.37-.05.15-.13.31-.24.48-.11.17-.24.34-.38.5-.14.17-.26.32-.36.46-.1.14-.16.25-.19.34-.03.09.01.14.13.15.11.01.24,0,.38-.04.14-.04.29-.1.45-.17.15-.07.31-.15.48-.25.16-.09.32-.19.47-.29.18-.12.37-.25.56-.39.11-.14.2-.26.3-.37.02-.03.09-.06.2-.11.11-.04.22-.08.33-.11.11-.03.21-.04.29-.04.08,0,.11.04.09.11-.12.17-.26.35-.42.54-.16.19-.3.36-.42.52-.12.16-.21.3-.25.41-.04.11,0,.17.12.18.11.01.24,0,.38-.04.14-.04.29-.1.45-.17.15-.07.31-.15.48-.25.16-.09.32-.19.47-.29.27-.18.55-.37.83-.59h0c.03-.15.08-.29.13-.43.13-.31.3-.6.49-.89.19-.28.37-.53.53-.72.03-.03.06-.06.08-.09.02-.03.05-.06.08-.08.32-.36.68-.71,1.06-1.06.39-.35.81-.68,1.27-.99.07-.04.14-.08.2-.1.06-.02.12-.04.18-.05.06-.01.12,0,.18.03.04.01.08.05.12.11.05.06.07.15.07.26,0,.11-.05.25-.13.42-.08.16-.24.36-.46.58-.22.22-.52.48-.91.77-.39.29-.89.61-1.5.96l-.16.18c-.06.08-.12.17-.19.27-.07.11-.14.22-.21.34-.07.12-.13.25-.18.39-.05.14-.09.28-.11.42,0,.04-.01.08-.01.12,0,.04,0,.08,0,.12,0,.16.03.32.09.45h0s.06.07.1.1c.04.02.09.03.16.03.11,0,.24-.03.39-.09.15-.06.31-.13.48-.22.17-.09.34-.18.51-.28l.03-.02c.05-.06.13-.14.23-.24.13-.12.28-.25.46-.4.18-.15.37-.3.58-.45.21-.15.42-.3.63-.43.21-.13.41-.25.61-.34.2-.1.37-.16.53-.19.15-.02.28-.02.4.01.11.03.21.1.3.18.1.09.16.24.21.44,0,.01,0,.02,0,.03,0,0-.01,0-.03-.02-.02-.04-.06-.09-.1-.13-.04-.05-.1-.09-.16-.12-.06-.03-.14-.05-.22-.05-.08,0-.17.02-.27.08-.09.05-.21.12-.37.22-.16.1-.33.21-.51.34-.18.13-.37.27-.56.41-.19.14-.36.28-.51.42-.15.14-.28.26-.37.38-.1.12-.14.21-.14.28.02,0,.07-.03.13-.06.05-.03.13-.08.22-.14.1-.06.22-.15.38-.27.16-.12.33-.25.52-.4.19-.15.37-.29.54-.43.17-.13.33-.25.46-.34.14-.1.23-.15.28-.16.15-.03.27,0,.37.07l.02.02c.06.06.09.12.11.21.01.08,0,.16-.03.24-.03.07-.06.18-.1.34-.04.16-.06.33-.07.49,0,.17.01.32.06.44.05.13.14.19.28.18.11,0,.24-.03.39-.09.15-.06.31-.13.48-.22.17-.09.34-.18.51-.28.17-.1.33-.2.48-.3.15-.1.29-.19.41-.28.12-.09.22-.15.29-.2h.3c-.41.33-.81.62-1.18.86-.16.11-.33.21-.5.31-.17.1-.33.19-.49.27-.16.08-.31.14-.46.18-.14.04-.27.06-.37.05-.16-.01-.31-.05-.45-.11-.12-.05-.22-.14-.32-.25-.1-.11-.16-.27-.17-.48-.01-.14,0-.27,0-.4s.04-.24.05-.33c.02-.11.05-.21.08-.3-.41.33-.8.62-1.15.88-.15.11-.3.22-.45.32-.15.11-.29.2-.41.28-.13.08-.24.15-.33.2-.1.05-.16.07-.21.07-.29,0-.47-.07-.54-.22-.03-.06-.04-.13-.03-.2-.09.06-.19.11-.28.16-.15.08-.29.15-.43.22-.14.06-.27.11-.38.13h-.03c-.19.05-.38.04-.57-.03-.02-.01-.05-.03-.07-.04-.02-.01-.05-.03-.07-.04-.13-.12-.22-.26-.26-.41-.02-.05-.03-.09-.04-.14,0-.04-.01-.09-.02-.14,0-.07,0-.14,0-.21,0-.04,0-.07,0-.11-.22.16-.43.31-.64.45-.18.12-.37.23-.57.34-.2.11-.39.21-.59.29-.19.08-.38.14-.57.19-.18.04-.35.05-.5.03-.23-.03-.36-.11-.39-.25-.04-.14-.01-.3.06-.48.03-.06.06-.12.09-.19-.04.02-.07.05-.11.07-.18.12-.37.23-.57.34-.2.11-.39.21-.59.29-.19.08-.38.14-.56.19-.18.04-.35.05-.5.03-.19-.02-.31-.08-.36-.18-.05-.1-.06-.22-.03-.36.03-.14.09-.29.18-.45.09-.16.18-.31.28-.46.1-.15.2-.28.28-.4.08-.12.14-.2.17-.26.03-.05.04-.1.04-.14,0,0-.02-.02-.07-.05-.04-.03-.14-.01-.28.04-.14.05-.35.18-.63.38-.27.2-.64.52-1.1.97-.34.32-.63.59-.85.82-.22.22-.4.4-.54.54-.14.14-.24.25-.3.33-.06.08-.11.14-.13.17-.03.03-.06.04-.09.03-.04-.02-.08-.05-.13-.08-.05-.03-.1-.08-.13-.14-.03-.06-.06-.12-.06-.19,0-.07.02-.16.09-.25.31-.42.58-.81.81-1.18.1-.16.19-.32.28-.48.09-.16.17-.31.24-.46.07-.14.12-.27.15-.39.03-.12.04-.21.02-.29-.02-.08-.1-.1-.23-.06-.13.04-.28.12-.46.25-.18.12-.38.27-.59.44-.21.17-.42.34-.62.51-.2.17-.38.33-.53.48-.15.15-.27.25-.34.31-.03.03-.05.04-.07.04s-.04,0-.05-.01Zm33.43,1.06c-.17-.19-.35-.38-.54-.6-.19-.21-.38-.42-.55-.61-.17-.2-.33-.37-.46-.52-.13-.15-.23-.26-.28-.32-.03,0-.05,0-.07-.04-.02-.03-.03-.08-.04-.12-.03-.07-.04-.13-.03-.18.01-.05.03-.1.06-.14.03-.04.07-.08.12-.12.06-.05.13-.07.22-.06,0,0,.01,0,.01,0,0,0,0,0,.01,0h.06s.08,0,.13,0c.05,0,.09,0,.13,0h.06c.33-.03.64-.08.92-.13.28-.06.53-.1.76-.12.07,0,.15-.02.25-.04.1-.02.2-.03.3-.05.11-.01.21-.03.32-.05.1-.02.2-.04.29-.06.53-.12.95-.27,1.27-.43.31-.16.52-.29.63-.37.26-.19.48-.39.67-.61.19-.21.35-.42.48-.62.13-.22.25-.44.36-.67.2-.48.35-.93.43-1.35.04-.18.06-.36.07-.53.01-.18,0-.34-.02-.5-.03-.15-.08-.29-.15-.42-.08-.12-.19-.22-.33-.29-.19-.08-.43-.08-.73,0-.3.08-.63.22-1.01.43-.37.21-.77.47-1.2.8-.43.32-.87.69-1.33,1.09-.64.57-1.27,1.19-1.9,1.86-.63.67-1.22,1.35-1.79,2.03-.49.67-1.06,1.4-1.7,2.18l-.08.09s-.06.07-.09.11c-.03.04-.07.09-.11.13-.06.07-.13.15-.21.25-.08.1-.17.19-.26.27-.09.09-.17.16-.25.22-.08.06-.15.09-.19.09-.02,0-.04,0-.06-.03-.01-.02-.03-.06-.06-.12-.03-.06-.05-.13-.06-.21-.01-.08,0-.16,0-.26.02-.09.06-.18.13-.26.09-.09.24-.25.45-.49.21-.24.45-.52.73-.85.28-.33.57-.69.89-1.07.32-.39.62-.78.92-1.17.3-.39.57-.77.82-1.14.25-.37.45-.69.6-.97.23-.43.41-.84.56-1.24.15-.39.25-.76.31-1.1.06-.34.08-.63.06-.89-.02-.26-.09-.48-.21-.65-.11-.14-.33-.24-.69-.3-.35-.05-.8-.04-1.34.04-.54.08-1.16.24-1.86.48-.7.24-1.45.58-2.24,1.02-.17.1-.33.19-.49.29-.16.1-.31.19-.44.29-.15.1-.31.2-.47.3-.16.1-.32.2-.46.29-.15.09-.28.18-.39.25-.11.08-.2.13-.26.17-.06.04-.11.07-.14.08-.03.01-.05,0-.06,0-.01-.01-.01-.03,0-.06.03-.15.1-.3.18-.44.09-.14.19-.27.29-.4.11-.12.22-.23.32-.33.11-.1.2-.17.28-.24.62-.44,1.34-.85,2.16-1.23.82-.38,1.76-.69,2.83-.94.1-.02.22-.04.38-.07.15-.02.32-.04.5-.05.18-.01.37-.01.56,0,.19,0,.37.03.54.07.23.07.45.17.66.32.21.14.39.35.53.61.13.24.22.51.26.8.05.29.03.64-.04,1.02-.08.39-.22.82-.43,1.31-.21.49-.5,1.04-.88,1.67l.67-.74c.48-.52.98-1.03,1.5-1.52.52-.49,1.03-.92,1.53-1.28.51-.36,1-.64,1.47-.83.48-.19.92-.25,1.33-.17.34.08.61.26.81.53.08.12.15.26.21.43.06.17.09.37.1.61,0,.24-.01.51-.06.82-.05.31-.14.66-.28,1.06-.06.18-.14.35-.22.52-.08.17-.18.33-.28.49-.04.05-.1.15-.18.27-.09.13-.21.27-.36.44-.15.16-.33.34-.54.52-.21.18-.46.35-.74.5-.16.08-.38.18-.64.29-.26.11-.54.2-.84.28-.12.03-.26.07-.42.09-.15.03-.31.05-.48.08-.16.02-.32.04-.48.06-.16.02-.29.03-.41.05h0c-.06,0-.11.01-.14.02-.04,0-.06,0-.07,0-.23.02-.42.04-.58.07-.16.02-.29.05-.41.07.16.18.36.41.59.7.23.29.5.65.81,1.1l.19.27c.29.36.55.67.79.92.24.25.49.49.74.72.25.23.45.39.63.5.17.11.32.17.43.2.11.02.2.01.27-.03.06-.04.12-.09.15-.15.04-.07.07-.13.09-.2.02-.06.04-.11.06-.15.05-.08.08-.11.11-.08.01.01.02.03.03.06-.08.23-.18.39-.31.49-.12.1-.25.16-.39.17-.14.01-.28,0-.43-.06-.15-.05-.29-.12-.42-.2-.12-.07-.22-.13-.31-.2-.08-.06-.16-.12-.22-.19-.07-.06-.13-.13-.19-.19-.06-.07-.13-.14-.2-.23-.09-.08-.17-.16-.24-.24-.07-.08-.14-.15-.21-.24-.07-.08-.14-.17-.22-.26-.08-.09-.16-.19-.25-.29-.2-.23-.38-.44-.53-.63-.16-.19-.3-.36-.41-.5-.13-.16-.25-.31-.36-.44-.01.06.04.17.14.33.11.16.23.34.39.53.15.19.31.38.46.58.16.19.28.35.38.47.13.14.26.29.39.45.13.16.26.35.4.57l-1.39-1.54Zm34.19-1.83c-.47.17-.81.35-1.02.54-.22.19-.34.35-.39.5-.04.14-.01.24.09.3.1.06.23.04.39-.05.17-.1.33-.26.49-.5.16-.24.3-.5.44-.8Zm-3.32-.53s-.02.02-.03.03c0,0-.01,0-.02.01l-.02.02.16-.03c.16-.04.3-.1.42-.17.13-.07.21-.12.26-.16.02-.01.04-.04.06-.09v-.04c.01-.06-.01-.09-.08-.07-.06,0-.16.04-.28.13-.07.04-.14.09-.22.15-.08.06-.16.13-.24.19,0,0,0,.01,0,.01h0Zm-9.78-.27c-.18.13-.36.27-.54.41-.18.14-.34.28-.49.41-.15.13-.26.25-.35.36-.09.11-.13.2-.12.27.02.01.07.01.13-.01.05-.01.13-.05.23-.1.1-.05.23-.14.4-.26.12-.08.25-.17.39-.28.14-.1.27-.21.41-.32.14-.11.27-.23.4-.34.13-.12.25-.23.35-.34.02-.01.05-.04.08-.09.04-.04.05-.1.04-.16,0-.04-.06-.04-.15,0-.09.04-.2.1-.31.16-.11.07-.22.13-.32.2-.1.06-.15.1-.17.1Zm-3.2,5.69s.12-.13.28-.31c.16-.18.37-.42.63-.73.25-.3.54-.65.85-1.05.31-.4.63-.83.95-1.3-.22.14-.44.28-.64.43-.21.15-.4.31-.59.48-.02.02-.11.11-.26.27-.15.16-.32.34-.5.55-.13.15-.26.3-.38.46-.12.15-.21.3-.28.43-.02.05-.05.15-.08.28-.03.13-.02.29.03.49Zm-3.67-9.14c.03-.12,0-.15-.11-.09-.11.05-.25.16-.43.32-.18.16-.39.35-.62.57-.23.22-.45.44-.65.65-.2.21-.38.4-.54.57-.15.16-.25.27-.28.32.44-.28.85-.56,1.22-.83.16-.12.31-.24.47-.37.15-.13.3-.26.42-.39.13-.13.24-.26.33-.38.09-.12.16-.24.19-.35Zm-5.01,3.45c-.18.13-.35.27-.53.41-.18.14-.34.28-.49.41-.14.13-.26.25-.35.36-.09.11-.13.2-.13.27.02,0,.07-.03.13-.06.05-.03.13-.08.22-.14.1-.06.23-.15.39-.27.12-.09.26-.19.4-.31.15-.12.29-.23.43-.34.14-.11.28-.22.41-.32.13-.1.24-.18.33-.24.02-.01.05-.04.08-.07.04-.03.05-.08.05-.14,0-.04-.06-.04-.15,0-.1.04-.2.1-.32.16-.11.07-.22.13-.32.2-.1.06-.15.1-.17.1Zm-3.68-.25s-.06.07-.08.1c-.02.03-.04.07-.06.1.08,0,.17.01.28.03h0s.04.01.06.04c.01.03.02.06.04.11.01.04.02.09.01.15,0,.01,0,.03,0,.05,0,.02,0,.04,0,.05-.02.03-.04.05-.06.05h-.04s-.04,0-.07,0c-.08.01-.17.05-.28.1,0,.03.01.05.02.07,0,.02.02.04.03.06.01.01.02.03.03.04,0,.01.02.02.02.04,0,.01.01.02.02.03.02.01.03.03.05.04.01.01.03.03.05.04.08.06.17.11.28.13.1.03.21.04.31.04.08-.11.14-.22.19-.32.04-.11.08-.21.11-.32.06-.24.09-.42.07-.56-.02-.13-.04-.21-.05-.25-.03-.07-.07-.12-.14-.15-.06-.03-.13-.04-.22-.03-.08.01-.18.04-.28.1-.1.06-.2.14-.29.24Zm-.79,1.51c-.05.12-.08.21-.1.28,0,.04,0,.08,0,.12s0,.07.02.1c.02.04.06.07.1.09.04.02.08.03.14.03s.14-.02.24-.06c.06-.03.13-.06.2-.1.07-.04.15-.08.23-.13.13-.09.24-.17.32-.26-.25-.01-.47-.1-.66-.27-.08-.08-.15-.17-.19-.28-.01.01-.02.03-.03.04-.01.01-.02.03-.04.04-.01.01-.03.03-.04.06-.02.03-.04.06-.06.09-.02.04-.05.08-.07.12-.02.04-.04.08-.05.11Zm-.67.72c-.06-.1-.09-.24-.08-.4,0-.07.01-.15.04-.26.04-.14.1-.27.17-.4.08-.13.16-.25.25-.37.12-.16.24-.28.36-.36.12-.08.19-.13.21-.14,0,0,.01-.01.02-.01.03-.1.07-.18.11-.26.05-.08.09-.15.14-.21.05-.06.09-.11.14-.15.04-.04.08-.07.1-.09.06-.05.13-.09.21-.13.08-.04.17-.07.25-.09.09-.02.18-.03.26-.03s.17.02.24.05c.05.03.09.06.14.11.05.04.09.1.12.18,0,.02.01.04.02.06,0,.02.01.04.02.06.02.08.04.18.04.28,0,.11,0,.23-.03.38,0,0,0,.01,0,.02-.03.16-.07.29-.11.41-.05.11-.08.2-.11.27-.04.05-.05.08-.05.08,0,0-.01.01-.02.01h0s.09-.02.14-.03c.04-.01.09-.03.14-.04.16-.05.31-.12.45-.19.14-.07.27-.14.38-.21.13-.08.25-.16.37-.25h0c.15-.14.32-.28.5-.43.03-.03.09-.07.17-.12.08-.05.15-.1.24-.16.11-.07.25-.15.42-.23.17-.09.33-.15.49-.21.16-.05.31-.07.44-.06.13,0,.23.08.28.2.02-.03.05-.06.07-.09.02-.03.05-.06.08-.09.37-.47.8-.96,1.3-1.46.5-.5,1.07-.97,1.7-1.38.07-.04.14-.08.2-.1.06-.02.12-.04.18-.05.06-.01.13,0,.18.03.04.01.08.05.12.11.05.06.07.15.07.26,0,.11-.05.25-.13.42-.08.16-.24.36-.46.58-.22.22-.53.48-.92.77-.39.29-.89.61-1.5.96l-.36.42s-.08.1-.14.19c-.07.09-.14.18-.21.29-.08.11-.15.23-.23.35-.08.12-.13.23-.17.33-.03.08-.06.16-.09.25-.03.09-.05.18-.07.28-.03.21-.02.39.05.53.07.14.19.21.35.2.11,0,.25-.05.42-.12.17-.08.35-.17.54-.29.19-.12.39-.24.59-.38.2-.14.39-.27.57-.4.46-.37.92-.7,1.34-1.11-.1-.06-.17-.15-.21-.25-.04-.11-.06-.22-.06-.34,0-.11.02-.21.07-.29.05-.09.1-.16.16-.22.06-.07.14-.14.22-.19.08.01.15.03.21.06.05.03.1.06.15.11.05.04.08.1.09.17l-.02.02s-.01.01-.02.02c0,0-.02.02-.03.03-.06.06-.13.14-.18.23-.03.05-.05.1-.07.14-.01.05-.02.1,0,.14,0,.01,0,.02,0,.03.03.12.09.17.18.15.04,0,.08-.02.12-.04.04-.02.08-.03.13-.05.25-.1.45-.13.6-.1.05.01.1.03.15.06.06.02.1.06.14.12.08.1.1.22.05.37-.05.15-.13.31-.24.48-.11.17-.24.34-.38.5-.14.17-.26.32-.36.46-.1.14-.17.25-.19.34-.03.09.02.14.14.15.11.01.24,0,.38-.04s.29-.1.45-.17c.15-.07.31-.15.48-.25.16-.09.32-.19.47-.29.18-.12.37-.25.56-.39.11-.14.2-.27.3-.37.02-.03.09-.06.2-.11.11-.04.22-.08.33-.11.11-.03.21-.04.29-.04.08,0,.11.04.09.11-.12.17-.26.35-.42.54-.16.19-.3.36-.43.52-.12.16-.21.3-.25.41-.04.11,0,.17.12.18.11.01.24,0,.38-.04.14-.04.29-.1.45-.17.15-.07.31-.15.48-.25.16-.09.32-.19.47-.29.06-.04.13-.08.2-.13.02-.04.05-.08.08-.12.08-.1.21-.24.39-.42.19-.19.4-.38.65-.58.04-.03.1-.07.17-.12.07-.05.15-.1.23-.16.11-.07.25-.15.41-.23s.33-.15.49-.21c.16-.05.31-.07.44-.07.13,0,.23.07.29.19.01-.03.03-.07.04-.11.02-.04.03-.07.05-.11,0-.01.02-.03.05-.04.03,0,.08,0,.14.04.02.01.05.03.09.06.04.03.07.06.1.09.03.03.05.07.07.1.02.04.02.07,0,.11-.05.09-.11.2-.18.33-.07.13-.15.29-.25.47-.06.1-.12.21-.18.33-.06.12-.13.24-.2.36-.05.08-.09.15-.14.24-.05.08-.09.16-.14.25.03-.01.06-.03.08-.04.02,0,.05-.02.08-.04.37-.15.74-.28,1.09-.4.35-.12.68-.22.98-.3.3-.08.56-.15.78-.21.06-.02.12-.03.18-.04l.14-.17c.11-.13.21-.26.3-.38.09-.11.17-.2.24-.27.06-.07.12-.12.16-.16.01,0,.03-.02.05-.03.02-.01.05-.03.08-.04.18-.03.31-.05.39-.04.08.01.15.02.21.02.02,0,.03.02.05.03.02.01.01.03-.02.07-.23.22-.47.47-.71.76-.24.29-.47.58-.69.86-.02.03-.04.06-.05.09-.02.02-.03.05-.04.07-.06.1-.09.19-.11.25-.01.06-.01.12,0,.16.01.05.04.09.07.11.02,0,.04.01.08.01.16-.01.36-.1.61-.27.25-.16.51-.36.78-.58.27-.22.53-.45.77-.67.25-.23.44-.41.59-.56.08-.08.14-.14.17-.16.03-.05.06-.11.11-.15.04-.05.08-.07.11-.07.05,0,.1-.01.17-.02.07,0,.13,0,.18,0,.06.01.1.04.14.09.04.04.04.11.03.21-.06.16-.16.33-.3.52-.13.19-.28.39-.43.59-.15.2-.31.4-.47.59-.16.19-.29.36-.39.51-.1.15-.17.27-.2.37-.03.1,0,.15.1.15.11.01.24,0,.39-.06.15-.05.32-.12.49-.21.17-.09.36-.19.54-.31.19-.12.37-.24.54-.36.23-.16.46-.34.71-.53,0-.02.02-.03.03-.05.09-.15.19-.3.31-.43.11-.13.22-.25.33-.35.11-.1.19-.17.24-.2.01,0,.03-.02.05-.03.02-.01.04-.03.07-.04.1-.05.2-.1.3-.15.1-.04.2-.08.28-.1.07-.01.13-.02.19-.02s.11.02.15.06c.1.08.17.15.2.24.03.08.03.16.01.24,0,.01-.01.03-.02.05,0,.02-.02.05-.04.08-.09.14-.22.24-.39.31-.18.07-.35.13-.53.16-.05.01-.1.02-.15.03-.05,0-.09,0-.14.02-.03,0-.05.01-.07.01s-.04,0-.07.01c-.02.03-.04.07-.07.12-.03.06-.06.11-.09.17-.03.06-.06.12-.08.17-.03.06-.04.1-.04.12,0,.02,0,.06,0,.1s.01.1.04.14c.02.05.06.09.11.13.05.04.12.06.22.06.02,0,.05,0,.08,0,.03,0,.06,0,.09-.02.18-.03.39-.11.63-.23.24-.12.48-.25.71-.4.23-.14.45-.28.65-.42.1-.07.19-.13.27-.18h0c.53-.42.97-.79,1.31-1.09.34-.3.56-.49.64-.57.02-.05.05-.09.07-.11.05-.06.13-.09.22-.11.1-.02.19-.02.29-.02.11,0,.23.02.36.04-.05,0-.11.05-.17.12-.06.08-.12.16-.18.26-.06.11-.13.23-.2.37-.06.2-.13.39-.19.57-.06.18-.12.35-.19.51.22-.03.42-.05.61-.06.19-.01.36-.02.5-.03.17,0,.33,0,.47,0h.59c-.46.03-.88.07-1.25.12-.37.05-.71.11-1.01.19-.19.45-.37.83-.56,1.13-.19.3-.37.53-.54.68-.17.16-.34.25-.5.29-.16.04-.3.03-.42-.04-.15-.08-.27-.16-.34-.25-.08-.09-.13-.18-.16-.27-.03-.1-.05-.2-.05-.31.05-.19.14-.35.27-.49.13-.14.28-.26.46-.37.17-.11.37-.2.58-.27.21-.08.43-.14.65-.2.1-.23.19-.46.27-.68.08-.22.15-.42.22-.6-.26.25-.52.47-.78.66-.19.14-.35.27-.51.39h.03c-.33.25-.65.49-.97.71-.27.18-.56.36-.87.54-.3.17-.58.3-.82.38-.17.05-.32.08-.44.08s-.22-.01-.31-.04c-.1-.03-.18-.07-.24-.13-.07-.07-.13-.15-.17-.24-.06-.11-.08-.23-.07-.37-.13.1-.25.19-.37.29-.2.14-.41.28-.62.42-.22.13-.43.25-.65.35-.22.1-.43.17-.63.22-.21.05-.4.06-.57.03-.19-.03-.29-.12-.3-.27-.01-.15.02-.33.11-.54.09-.21.21-.44.37-.68.16-.24.32-.47.47-.68-.16.16-.35.34-.55.53-.2.19-.41.36-.62.52-.21.16-.42.3-.62.4-.2.11-.39.16-.56.17h-.11s-.06,0-.09-.01c-.11-.01-.19-.04-.25-.08-.06-.04-.11-.09-.14-.15-.03-.06-.04-.13-.04-.2s0-.14.02-.21c.02-.08.04-.16.08-.24.03-.08.07-.15.11-.22.04-.07.08-.13.12-.19-.19.05-.39.1-.62.17-.29.08-.61.18-.95.3-.34.12-.7.25-1.06.4-.06.03-.15.06-.27.1-.11.04-.2.08-.26.11-.03.04-.05.08-.07.12-.02.04-.05.08-.07.12-.18.29-.36.59-.56.89-.2.3-.4.59-.6.87-.2.28-.41.55-.62.81-.21.25-.42.48-.62.69-.07.07-.16.16-.27.26-.11.11-.22.21-.34.31-.12.1-.23.19-.33.26-.1.08-.19.11-.24.11-.07.01-.12,0-.16-.05-.04-.05-.06-.08-.07-.09-.02-.03-.04-.07-.07-.13-.03-.06-.05-.13-.07-.21-.02-.08-.03-.17-.04-.28,0-.1,0-.21.03-.33.02-.09.06-.2.14-.33.08-.13.17-.27.28-.42.11-.15.24-.3.37-.46.14-.15.28-.31.42-.45.14-.15.29-.28.43-.41.14-.13.28-.23.4-.31.21-.17.43-.33.66-.47.23-.14.46-.28.71-.41.09-.14.18-.28.27-.42.09-.14.18-.28.26-.42.1-.16.19-.32.28-.48.09-.16.18-.33.27-.49.01-.02.02-.04.03-.06,0-.02.02-.04.03-.06-.09.09-.23.22-.41.41-.19.18-.39.37-.62.57-.23.2-.46.38-.7.54-.24.16-.45.27-.64.33-.13.03-.24.03-.33-.02-.08-.05-.14-.12-.18-.22-.02-.07-.04-.14-.03-.21-.18.11-.36.22-.55.33-.2.11-.39.21-.59.29-.19.08-.38.14-.56.19-.18.04-.35.05-.5.03-.23-.03-.36-.11-.39-.25-.04-.14-.01-.3.06-.48.03-.06.06-.13.09-.2-.04.03-.08.05-.12.08-.18.12-.37.23-.56.34-.2.11-.39.21-.58.29-.19.08-.38.14-.56.19-.18.04-.35.05-.5.03-.19-.02-.31-.08-.36-.18-.05-.1-.06-.22-.04-.36.03-.14.09-.29.18-.45.09-.16.19-.31.28-.46.1-.15.19-.28.28-.4.09-.12.14-.2.17-.26.01-.02.02-.04.03-.07.01-.05.01-.08,0-.1-.01-.02-.04-.03-.07-.04-.03,0-.06,0-.11.01-.12.03-.22.04-.28.05-.06,0-.11,0-.14,0,0,0-.01,0-.01,0,0,0,0,0-.01,0-.04.04-.08.08-.11.11-.03.03-.06.07-.09.09-.03.03-.06.05-.09.07-.03.03-.06.05-.1.08-.04.02-.08.05-.12.09-.26.19-.51.37-.77.57-.21.16-.42.31-.62.46-.18.13-.37.26-.56.38-.19.12-.37.23-.55.32-.18.09-.34.17-.5.22-.15.05-.29.08-.4.07-.17,0-.32-.04-.46-.09-.12-.05-.23-.13-.33-.23-.1-.11-.16-.27-.17-.48-.01-.14,0-.29.06-.46.05-.17.11-.32.18-.47.07-.17.15-.34.25-.5-.34.28-.66.53-.95.76-.12.1-.25.19-.38.28-.13.09-.25.18-.35.25-.11.08-.2.14-.29.19-.08.05-.15.08-.19.09-.13.03-.24.03-.32-.02-.08-.04-.14-.11-.17-.19-.03-.08-.03-.18,0-.29.02-.1.07-.2.14-.3-.12.07-.26.14-.4.21-.23.12-.47.2-.71.25-.02,0-.04,0-.05.01-.13.15-.29.3-.48.44-.19.14-.42.27-.69.39-.03.01-.06.03-.09.04-.03,0-.06.02-.08.04-.12.03-.22.05-.3.06-.08,0-.15,0-.21-.02-.06-.01-.12-.03-.17-.06-.04-.03-.07-.07-.1-.1-.03-.03-.05-.07-.07-.1Zm13.74-2.19s-.05-.07,0-.15c.04-.09.1-.19.17-.3.07-.11.14-.22.2-.33.06-.11.08-.2.07-.27,0,0,0-.02,0-.03.01-.03.05-.06.11-.1.05-.03.13-.08.25-.13.12-.05.23-.08.33-.09.1-.01.17.02.21.09.04.07,0,.21-.11.42-.08.15-.18.29-.29.42-.11.13-.23.28-.35.46-.09,0-.18.01-.25.02-.06,0-.13.01-.19.02-.06,0-.11,0-.14-.02Z"/></clipPath></defs><path class="cls-5" d="m36.62,31.91c-.18-.42-.33-.86-.46-1.33-.31-1.13-.47-2.4-.47-3.8,0-.95.12-1.85.34-2.72.23-.87.56-1.69,1.02-2.47h0c.45-.77.97-1.5,1.56-2.19.6-.69,1.28-1.34,2.04-1.96.7-.57,1.46-1.1,2.27-1.6-.54-2.66-1.57-5.07-2.88-7.03-2.03-3.02-4.74-4.94-7.44-4.94-2.24,0-4.13,1.28-5.49,3.32-1.47,2.21-2.32,5.31-2.32,8.68,0,4.36,1.3,8.35,3.28,11.28,2.02,2.97,4.73,4.84,7.48,4.84.37,0,.72-.03,1.07-.1m-7.57,8.96c.62-.44.86-.94.86-1.62,0-.41-.04-.83-.2-1.13-.12-.23-.34-.4-.7-.4-.63,0-1.31.23-1.87.89-.48.56-.87,1.43-1.1,2.72l-.07.85c1.47-.45,2.46-.86,3.09-1.31Zm1.94,1.65c-1.25.84-3,1.46-5.02,1.82.09.83.41,1.87,1.17,2.63.61.61,1.53,1.03,2.89,1.03.4,0,.97-.04,1.56-.14.45-.08.91-.19,1.31-.36l.35-.14.72,1.25-.29.24c-.79.65-1.51,1.15-2.33,1.5-.83.35-1.74.54-2.91.54h0c-1.52-.02-3.01-.81-4.11-2.05-1.04-1.18-1.73-2.78-1.73-4.52v-.44c0-2.39.64-4.38,1.82-5.76,1.17-1.37,2.87-2.15,5-2.15h.06c1.06,0,1.95.32,2.58.87.65.57,1.02,1.38,1.02,2.35,0,1.33-.77,2.45-2.08,3.33Zm-26.36,7.97c-.39.23-.86.39-1.29.39-.53,0-1.2-.22-1.65-1.09-.28-.55-.48-1.39-.48-2.63v-7.1c0-.82-.07-1.32-.2-1.65-.11-.27-.29-.43-.52-.57l-.49-.3.42-.4c.37-.35.73-.64,1.13-.84.41-.21.84-.33,1.35-.35h.06c.25.03.84.26,1.22.99.12.23.22.5.28.84.18-.26.37-.51.6-.74.66-.66,1.53-1.09,2.73-1.09h.19c.92,0,1.91.36,2.71,1.08.46.42.86.96,1.13,1.62.42-.69.89-1.28,1.39-1.73.69-.61,1.44-.97,2.27-.97h.22c1.07,0,2.25.5,3.09,1.5.69.82,1.16,1.98,1.16,3.47v6.31c0,.58.07,1.01.22,1.28.12.21.3.34.56.38l.56.09-.22.52c-.12.29-.54.68-1.03.97-.4.23-.86.4-1.29.4-.71,0-1.27-.37-1.64-1.09-.32-.61-.49-1.5-.49-2.63v-6.22c0-.78-.24-1.48-.6-1.98-.36-.5-.82-.8-1.27-.8s-.9.34-1.31.83c-.57.67-1.01,1.58-1.22,2.29v5.98c0,.58.07,1.01.22,1.28.12.22.31.34.59.38l.64.1-.33.56c-.16.27-.57.66-1.05.93-.38.22-.82.38-1.23.38-.73,0-1.3-.37-1.68-1.09-.33-.62-.51-1.5-.51-2.64v-6.28c0-.77-.24-1.44-.6-1.93-.36-.49-.82-.78-1.28-.78h-.06c-.52,0-1.01.4-1.4.93-.63.85-1,1.98-1,2.47v5.69c0,.58.07,1.01.22,1.28.12.21.3.34.56.38l.56.09-.22.52c-.12.29-.53.69-1.02.97Zm78.19-28.9c-.06-.55-.18-1.07-.36-1.58-.28-.8-.72-1.55-1.3-2.25h0c-.25-.31-.54-.61-.88-.91h0c-.34-.3-.72-.6-1.15-.89h0c-.42-.29-.9-.57-1.44-.84-.55-.27-1.14-.53-1.79-.77-.65-.24-1.36-.46-2.15-.66-.79-.2-1.64-.37-2.55-.52h0c-.91-.14-1.9-.25-2.99-.33-1.06-.07-2.22-.11-3.46-.11s-2.4.05-3.56.17c-1.15.11-2.3.28-3.43.5-1.14.22-2.22.49-3.25.79-1.02.3-2,.65-2.95,1.05h0c-.38.16-.76.32-1.12.5.03.48.04.96.04,1.46,0,4.76-1.25,8.83-3.41,11.94.41.29.85.58,1.33.86,1.01.6,2.18,1.19,3.49,1.76,1.33.58,2.85,1.13,4.56,1.66,1.7.53,3.6,1.03,5.68,1.51,1.89.43,3.72.88,5.48,1.34,1.75.46,3.42.92,5,1.38,1.6.47,3.09.99,4.46,1.56,1.38.57,2.65,1.19,3.81,1.85,1.17.67,2.21,1.41,3.12,2.22.91.81,1.7,1.7,2.35,2.65h0c.66.97,1.16,2.04,1.49,3.24.33,1.19.49,2.48.49,3.88s-.15,2.7-.46,3.91c-.31,1.22-.77,2.34-1.39,3.36-.61,1.02-1.34,1.94-2.19,2.79-.85.84-1.81,1.59-2.89,2.25-1.07.66-2.24,1.22-3.51,1.71-1.26.48-2.63.88-4.08,1.19h0c-1.45.31-2.96.54-4.53.69-1.58.15-3.2.23-4.87.23s-3.34-.08-4.99-.24c-1.65-.16-3.27-.39-4.86-.71-1.6-.31-3.11-.7-4.54-1.14-1.43-.45-2.77-.96-4.02-1.54-1.26-.58-2.39-1.22-3.4-1.92-1.01-.71-1.91-1.48-2.67-2.31-.78-.84-1.37-1.74-1.76-2.68-.4-.95-.59-1.94-.59-2.97,0-.56.07-1.07.2-1.54.14-.48.35-.9.62-1.27.27-.36.58-.67.92-.92.35-.25.73-.45,1.14-.59.4-.14.82-.23,1.25-.27.43-.04.86-.04,1.31.01h0c.45.05.88.15,1.29.3.41.15.81.34,1.19.58h0c.35.22.65.51.91.85.25.33.45.73.61,1.19.16.45.25.9.28,1.36.03.46,0,.93-.09,1.4h0c-.1.48-.26.94-.48,1.39-.22.44-.51.87-.87,1.29-.37.44-.81.81-1.33,1.12-.33.2-.7.37-1.1.52.16.2.36.39.59.59.44.39,1,.77,1.68,1.15h0c.7.39,1.45.76,2.27,1.1.81.34,1.67.66,2.58.96h0c.93.3,1.88.57,2.84.81.96.24,1.96.44,3,.63,1.04.18,2.02.31,2.95.4.93.09,1.82.13,2.7.13,1.48,0,2.9-.1,4.26-.29,1.37-.19,2.68-.49,3.94-.87,1.26-.39,2.41-.84,3.46-1.35,1.03-.51,1.97-1.07,2.79-1.7h0c.81-.62,1.49-1.28,2.05-1.99.55-.7.97-1.45,1.27-2.23.29-.77.4-1.54.34-2.32-.06-.79-.29-1.59-.7-2.4-.41-.82-1.03-1.64-1.86-2.46-.84-.83-1.89-1.65-3.15-2.46-1.27-.82-2.8-1.6-4.59-2.33-1.8-.74-3.87-1.43-6.21-2.08-2.3-.64-4.39-1.22-6.3-1.75-1.77-.49-3.64-.99-5.53-1.5-1.71-.46-3.3-.95-4.76-1.47-.12-.04-.24-.09-.36-.13v7.73c0,.58.07,1.01.22,1.28.12.21.3.34.56.38l.56.09-.22.52c-.12.28-.53.68-1.01.97-.39.23-.85.4-1.27.4-.62,0-1.12-.29-1.49-.81h0c-.2-.29-.36-.65-.48-1.08-.43.44-.91.87-1.41,1.2-.61.41-1.26.69-1.88.69h-.25c-1.12,0-2.33-.45-3.19-1.39-.71-.78-1.19-1.89-1.19-3.36v-6.41c0-.67-.06-1.08-.19-1.36-.11-.24-.27-.38-.49-.53l-.42-.28.33-.38c.34-.39.72-.68,1.13-.87.44-.21.91-.32,1.38-.34h.13s.11.07.11.07c.41.25.76.64,1.01,1.13.22.44.36.96.36,1.53v7.53h0c.01.79.22,1.36.55,1.73.36.4.88.58,1.48.58h.28c.31,0,.91-.37,1.41-.9.37-.4.65-.89.65-1.38v-6.19c0-.82-.07-1.32-.2-1.65-.11-.27-.29-.43-.52-.57l-.51-.3.03-.03c-.84-.46-1.59-.97-2.27-1.5-.35-.28-.68-.56-.98-.86-1.57.48-3.24.74-5.01.74-4.76,0-8.99-1.74-11.97-5.03-2.78-3.06-4.46-7.46-4.46-13.04s1.61-9.93,4.44-12.99c2.9-3.14,7.06-4.84,12.07-4.84s9.12,1.56,12.11,4.68c1.94,2.03,3.34,4.71,3.99,8.04.63-.2,1.27-.39,1.91-.56h0c1.09-.3,2.17-.55,3.24-.77,1.07-.21,2.18-.39,3.3-.54,1.11-.14,2.19-.25,3.24-.32,1.07-.07,2.11-.11,3.11-.11,1.5,0,2.93.07,4.31.21,1.37.14,2.67.35,3.89.62h0c1.22.28,2.35.6,3.4.98,1.06.38,2.03.8,2.92,1.27h0c.89.48,1.69.99,2.41,1.55.72.56,1.35,1.16,1.88,1.8h0c.54.65.98,1.33,1.31,2.02.33.7.56,1.43.67,2.18h0c.11.72.16,1.38.13,2-.03.63-.12,1.2-.29,1.72-.17.51-.38.98-.62,1.39-.25.43-.55.8-.88,1.13h0c-.33.33-.7.61-1.09.84-.39.23-.81.42-1.26.56h0c-.44.14-.87.25-1.3.32-.43.07-.85.11-1.27.11-.32,0-.64-.03-.95-.09-.31-.06-.61-.16-.89-.28-.28-.12-.54-.26-.77-.42-.24-.16-.46-.35-.66-.55-.2-.2-.38-.41-.54-.64-.16-.23-.29-.47-.41-.73h0c-.12-.26-.21-.53-.26-.8-.06-.28-.09-.56-.09-.84s.03-.56.09-.84c.06-.27.14-.54.26-.81h0c.11-.26.25-.52.42-.75.16-.24.35-.46.55-.67h0c.21-.22.45-.41.7-.57.25-.16.52-.3.82-.43.3-.12.61-.22.95-.28.33-.06.67-.09,1.02-.09.25,0,.51.03.77.08.26.05.52.13.79.23h0c.26.1.5.2.73.31.24.11.46.22.67.33h0c.18.1.36.2.52.3Z"/><g class="cls-3"><rect class="cls-5" width="88.37" height="69.19"/></g><g class="cls-4"><rect class="cls-5" x="88" y="14.62" width="83.63" height="37.4"/></g><g class="cls-1"><rect class="cls-5" x="88.07" y="60.08" width="107.22" height="14.25"/></g></svg>