<?xml version="1.0" encoding="UTF-8"?><svg id="Layer_1" xmlns="http://www.w3.org/2000/svg" xmlns:xlink="http://www.w3.org/1999/xlink" width="148.86" height="100.85" viewBox="0 0 185.8 89"><defs><style>.cls-1{clip-path:url(#clippath-2);}.cls-2{clip-path:url(#clippath-1);}.cls-3{clip-path:url(#clippath-4);}.cls-4{fill:#d19e78;}.cls-5{clip-path:url(#clippath);}.cls-6{clip-path:url(#clippath-3);}.cls-7{clip-path:url(#clippath-5);}</style><clipPath id="clippath"><path class="cls-4" d="m179.3,51.8c.3-.1.6-.2.9-.3.3-.2.6-.3.8-.6.3-.2.5-.5.7-.8s.4-.6.5-1h0c.1-.3.3-.7.4-1.1.1-.4.2-.8.2-1.3h0v-1.4c0-.5-.1-.9-.2-1.4h0c-.1-.5-.2-.9-.4-1.3-.2-.4-.4-.8-.6-1.2-.2-.4-.5-.7-.8-1s-.6-.6-.9-.9h0c-.3-.2-.6-.5-.9-.6-.3-.2-.6-.3-1-.4h0c-.3-.1-.7-.2-1-.2s-.6,0-1,.1h0c-.3.1-.6.2-.9.4-.3.2-.6.3-.8.6h0c-.3.2-.5.5-.7.8s-.4.6-.5,1h0c-.1.3-.3.7-.4,1.1s-.1.8-.2,1.3h0v1.4c0,.5.1.9.2,1.4s.2.9.4,1.3c.2.4.4.8.6,1.2.2.4.5.7.8,1.1s.6.6.9.8h0c.3.2.6.5.9.6.3.2.6.3,1,.4.3.1.6.2,1,.2.4-.1.7-.1,1-.2h0Zm-50.7-13.9c.9-1.8,1.8-3.5,2.6-5.2h0c.4-.9.9-1.9,1.2-2.8s.8-1.8,1.1-2.7c.3-.9.6-1.7.9-2.5.2-.8.4-1.5.6-2.2h0c.1-.7.2-1.3.2-1.8s0-1-.1-1.3-.2-.5-.4-.7c-.2-.1-.5-.2-.9-.2s-.8.1-1.1.3c-.4.2-.7.5-1,1-.4.5-.7,1-1,1.6s-.6,1.3-.8,2.1h0c-.2.8-.4,1.6-.6,2.5-.2.9-.3,1.8-.4,2.9h0c-.1,1-.2,2-.3,3.1-.1,1.1-.1,2.1-.1,3.1,0,.9,0,1.9.1,2.8h0Zm21.1-6.3c-.6-.2-1.2-.4-1.7-.6-.5-.1-1-.3-1.5-.3-.4-.1-.8,0-1.1,0-.3.1-.6.2-.8.4h0c-.2.2-.4.3-.5.4-.2.1-.4.2-.6.2h0c-.2.1-.4.1-.6.1s-.4,0-.6-.1h0c-.2-.1-.4-.3-.4-.6,0-.2,0-.4.1-.6h0c.1-.2.2-.4.4-.6s.4-.4.7-.6h0c.6-.5,1.2-.9,1.8-1.1.6-.3,1.2-.5,1.8-.7h0c.6-.1,1.1-.2,1.6-.2h1.5c.5.1.9.1,1.4.3.4.1.9.3,1.3.5h0c.4.2.7.3,1.1.5.3.2.7.3,1,.5h0c.3.1.6.3.8.4s.5.2.7.3h0c.1,0,.3.1.4,0,.1,0,.2-.1.3-.2h0c.1-.1.2-.2.4-.3.1-.1.3-.1.5-.2.2,0,.3-.1.5-.1h.5c.2.1.4.2.5.4s.1.4.1.6h0c0,.2-.2.4-.4.6-.1.1-.3.3-.6.5-.4.4-.9.7-1.3,1-.4.3-.9.5-1.3.6-.4.1-.8.2-1.2.2h-1.1c-.4,0-.7-.1-1.1-.2-.3-.1-.7-.2-1-.4h0c-.3-.1-.6-.3-.9-.4s-.4-.2-.7-.3h0Zm-110.2,2.8c-.2-.5-.4-.9-.5-1.4-.3-1.2-.5-2.6-.5-4.1,0-1,.1-2,.4-2.9.2-.9.6-1.8,1.1-2.7h0c.5-.8,1-1.6,1.7-2.4.7-.7,1.4-1.4,2.2-2.1.8-.6,1.6-1.2,2.5-1.7-.6-2.9-1.7-5.5-3.1-7.6-2.2-3.2-5.1-5.3-8-5.3-2.4,0-4.5,1.4-5.9,3.6-1.6,2.4-2.5,5.7-2.5,9.4,0,4.7,1.4,9,3.5,12.2,2.2,3.2,5.1,5.2,8.1,5.2.2-.1.6-.2,1-.2h0Zm-8.2,9.6c.7-.5.9-1,.9-1.7,0-.4,0-.9-.2-1.2-.1-.2-.4-.4-.8-.4-.7,0-1.4.2-2,1-.5.6-.9,1.5-1.2,2.9v.8c1.5-.5,2.6-.9,3.3-1.4h0Zm2.1,1.8c-1.3.9-3.2,1.6-5.4,2,.1.9.4,2,1.3,2.8.7.7,1.6,1.1,3.1,1.1.4,0,1,0,1.7-.2.5-.1,1-.2,1.4-.4l.4-.2.8,1.3-.3.3c-.9.7-1.6,1.2-2.5,1.6-.9.4-1.9.6-3.1.6h0c-1.6,0-3.2-.9-4.4-2.2-1.1-1.3-1.9-3-1.9-4.9v-.5c0-2.6.7-4.7,2-6.2s3.1-2.3,5.4-2.3h.1c1.1,0,2.1.3,2.8.9.7.6,1.1,1.5,1.1,2.5-.2,1.7-1.1,2.9-2.5,3.8h0Zm-28.4,8.6c-.4.2-.9.4-1.4.4-.6,0-1.3-.2-1.8-1.2-.3-.6-.5-1.5-.5-2.8v-7.6c0-.9-.1-1.4-.2-1.8-.1-.3-.3-.5-.6-.6l-.5-.3.4-.5c.4-.4.8-.7,1.2-.9s.9-.3,1.4-.4h.1c.3,0,.9.3,1.3,1.1.1.2.2.5.3.9.2-.3.4-.5.7-.8.7-.7,1.7-1.2,2.9-1.2h.2c1,0,2.1.4,2.9,1.2.5.5.9,1,1.2,1.7.5-.7,1-1.4,1.5-1.9.7-.7,1.6-1,2.4-1h.2c1.2,0,2.4.5,3.3,1.6.8.9,1.2,2.1,1.2,3.7v6.8c0,.6.1,1.1.2,1.4.1.2.3.4.6.4l.6.1-.2.6c-.1.3-.6.7-1.1,1-.4.2-.9.4-1.4.4-.8,0-1.4-.4-1.8-1.2-.3-.7-.5-1.6-.5-2.8v-6.7c0-.8-.3-1.6-.6-2.1-.4-.5-.9-.9-1.4-.9s-1,.4-1.4.9c-.6.7-1.1,1.7-1.3,2.5v6.4c0,.6.1,1.1.2,1.4.1.2.3.4.6.4l.7.1-.4.6c-.2.3-.6.7-1.1,1-.4.2-.9.4-1.3.4-.8,0-1.4-.4-1.8-1.2,0-.5-.2-1.5-.2-2.7v-6.8c0-.8-.3-1.6-.6-2.1-.4-.5-.9-.8-1.4-.8h-.1c-.6,0-1.1.4-1.5,1-.7.9-1.1,2.1-1.1,2.7v6.1c0,.6.1,1.1.2,1.4.1.2.3.4.6.4l.6.1-.2.6c-.1.3-.6.7-1.1,1h0Zm84.2-31.1c-.1-.6-.2-1.2-.4-1.7-.3-.9-.8-1.7-1.4-2.4h0c-.3-.3-.6-.7-.9-1h0c-.4-.3-.8-.6-1.2-1h0c-.4-.3-1-.6-1.6-.9-.6-.3-1.2-.6-1.9-.8s-1.5-.5-2.3-.7-1.8-.4-2.7-.6h0c-1-.1-2.1-.3-3.2-.4-1.2-.1-2.4-.1-3.7-.1s-2.6.1-3.8.2c-1.2.1-2.5.3-3.7.5s-2.4.5-3.5.9c-1.1.3-2.2.7-3.2,1.1h0c-.4.2-.8.4-1.2.5v1.6c0,5.1-1.3,9.5-3.7,12.9.4.3.9.6,1.4.9,1.1.7,2.3,1.3,3.8,1.9,1.4.6,3.1,1.2,4.9,1.8,1.8.6,3.9,1.1,6.1,1.6,2,.5,4,1,5.9,1.4,1.9.5,3.7,1,5.4,1.5,1.7.5,3.3,1.1,4.8,1.7,1.5.6,2.8,1.3,4.1,2,1.3.7,2.4,1.5,3.4,2.4s1.8,1.8,2.5,2.9h0c.7,1,1.2,2.2,1.6,3.5.3,1.3.5,2.7.5,4.2s-.2,2.9-.5,4.2-.8,2.5-1.5,3.6c-.7,1.1-1.4,2.1-2.4,3-.9.9-1.9,1.7-3.1,2.4-1.2.7-2.4,1.3-3.8,1.8s-2.8.9-4.4,1.3h0c-1.6.3-3.2.6-4.9.7-1.7.2-3.4.2-5.2.2s-3.6-.1-5.4-.3c-1.8-.2-3.5-.4-5.2-.8-1.7-.3-3.3-.8-4.9-1.2s-3-1-4.3-1.7c-1.4-.6-2.6-1.3-3.7-2.1-1.1-.8-2-1.6-2.9-2.5-.8-.9-1.5-1.9-1.9-2.9s-.6-2.1-.6-3.2c0-.6.1-1.2.2-1.7.2-.5.4-1,.7-1.4s.6-.7,1-1,.8-.5,1.2-.6c.4-.2.9-.2,1.3-.3s.9,0,1.4,0h0c.5.1,1,.2,1.4.3.5.2.9.4,1.3.6h0c.4.2.7.5,1,.9s.5.8.7,1.3.3,1,.3,1.5,0,1-.1,1.5h0c-.1.5-.3,1-.5,1.5s-.5.9-.9,1.4c-.4.5-.9.9-1.4,1.2-.4.2-.8.4-1.2.6.2.2.4.4.6.6.5.4,1.1.8,1.8,1.2h0c.8.4,1.6.8,2.4,1.2s1.8.7,2.8,1h0c1,.3,2,.6,3.1.9s2.1.5,3.2.7c1.1.2,2.2.3,3.2.4,1,.1,2,.1,2.9.1,1.6,0,3.1-.1,4.6-.3,1.5-.2,2.9-.5,4.2-.9,1.4-.4,2.6-.9,3.7-1.5s2.1-1.2,3-1.8h0c.9-.7,1.6-1.4,2.2-2.1.6-.8,1.1-1.6,1.4-2.4.3-.8.4-1.7.4-2.5-.1-.8-.3-1.7-.8-2.6-.4-.9-1.1-1.8-2-2.7s-2-1.8-3.4-2.7-3-1.7-4.9-2.5-4.2-1.5-6.7-2.2-4.7-1.3-6.8-1.9c-1.9-.5-3.9-1.1-6-1.6-1.8-.5-3.5-1-5.1-1.6-.1,0-.3-.1-.4-.1v8.3c0,.6.1,1.1.2,1.4.1.2.3.4.6.4l.6.1-.2.6c-.1.3-.6.7-1.1,1-.4.2-.9.4-1.4.4-.7,0-1.2-.3-1.6-.9h0c-.2-.3-.4-.7-.5-1.2-.5.5-1,.9-1.5,1.3-.7.5-1.3.7-2,.7h-.3c-1.2,0-2.5-.5-3.4-1.5-.8-.8-1.3-2-1.3-3.6v-6.9c0-.7-.1-1.2-.2-1.5-.1-.2-.3-.4-.5-.6l-.5-.3.3-.4c.4-.4.8-.7,1.2-.9.5-.2,1-.3,1.5-.4h.1l.1.1c.4.3.8.7,1.1,1.2.2.5.4,1,.4,1.7v8.1h0c0,.8.2,1.5.6,1.9.4.4,1,.6,1.6.6h.3c.3,0,1-.4,1.5-1,.4-.4.7-1,.7-1.5v-6.7c0-.9-.1-1.4-.2-1.8-.1-.3-.3-.5-.6-.6l-.5-.3h0c-.9-.5-1.7-1-2.5-1.6-.4-.3-.7-.6-1.1-.9-1.7.5-3.5.8-5.4.8-5.1,0-9.7-1.9-12.9-5.4-3-3.3-4.8-8-4.8-14s1.7-10.7,4.8-14c3.4-3,7.8-4.8,13.2-4.8s9.8,1.7,13,5c2.1,2.2,3.6,5.1,4.3,8.7.7-.2,1.4-.4,2.1-.6h0c1.2-.3,2.3-.6,3.5-.8s2.3-.4,3.6-.6c1.2-.1,2.4-.3,3.5-.3,1.2-.1,2.3-.1,3.4-.1,1.6,0,3.2.1,4.6.2,1.5.1,2.9.4,4.2.7h0c1.3.3,2.5.6,3.7,1.1,1.1.4,2.2.9,3.2,1.4h0c1,.5,1.8,1.1,2.6,1.7.8.6,1.4,1.2,2,1.9h0c.6.7,1.1,1.4,1.4,2.2.4.8.6,1.5.7,2.4h0c.1.8.2,1.5.1,2.1,0,.7-.1,1.3-.3,1.9-.2.5-.4,1-.7,1.5-.3.5-.6.9-.9,1.2h0c-.4.4-.8.6-1.2.9-.4.2-.9.5-1.4.6h0c-.5.1-.9.3-1.4.3-.5.1-.9.1-1.4.1-.3,0-.7,0-1-.1s-.7-.2-1-.3c-.3-.1-.6-.3-.8-.5-.3-.2-.5-.4-.7-.6s-.4-.4-.6-.7-.3-.5-.4-.8h0c-.1-.3-.2-.6-.3-.9-.1-.3-.1-.6-.1-.9s0-.6.1-.9.2-.6.3-.9h0c.1-.3.3-.6.4-.8.2-.2.4-.5.6-.7h0c.2-.2.5-.4.8-.6s.6-.3.9-.5.7-.2,1-.3c.4-.1.7-.1,1.1-.1.3,0,.5,0,.8.1s.6.1.8.2h0c.3.1.5.2.8.3.3.1.5.2.7.4h0c.2.2.4.3.6.4h0Zm34.6,27.5c-.2.3-.4.5-.7.8s-.5.6-.8.9h0c-.3.3-.6.6-.9.9-.3.3-.7.6-1,.8h0c-.4.3-.7.5-1.1.7l-1.2.6c-.4.2-.9.3-1.4.4-.5.1-.9.1-1.4.1s-1-.1-1.5-.3-.9-.4-1.4-.8c-.4-.3-.8-.7-1.1-1s-.7-.7-.9-1.1h0c-.3-.4-.5-.8-.7-1.1-.2-.4-.4-.7-.6-1.1h0l-.1-.2-.1.2h0c-.2.3-.4.7-.7,1.1-.3.4-.6.7-.9,1.1-.3.4-.7.8-1.1,1.1s-.8.7-1.3,1-1,.6-1.6.8-1.1.3-1.7.3-1.2-.1-1.7-.2c-.6-.1-1.1-.3-1.5-.6-.5-.2-.9-.5-1.3-.9-.4-.3-.7-.7-1-1.2h0c-.3-.4-.5-.9-.7-1.4s-.3-1-.4-1.6h0c-.1-.5-.1-1.1-.1-1.7s.1-1.2.2-1.8h0c.1-.6.3-1.2.5-1.8s.4-1.2.8-1.8c.3-.6.7-1.2,1.1-1.8s.8-1.2,1.3-1.7h0c.5-.6,1.1-1.1,1.7-1.6s1.2-.8,1.8-1.1,1.2-.5,1.8-.8,1.2-.4,1.8-.5h0c.5-.1,1-.2,1.5-.2h1.4c.4,0,.9.1,1.3.2.4.1.8.2,1.1.2.3.1.6.2.9.3s.5.3.7.4h0c.2.2.4.4.5.6.1.3.1.6-.1.8h0c-.1.2-.3.3-.4.4-.2.1-.4.2-.6.1h0c-.1,0-.2,0-.4-.1-.1,0-.2-.1-.4-.2h0c-.1-.1-.3-.1-.4-.2-.2-.1-.4-.1-.6-.2h0c-.2-.1-.4-.1-.7-.1h-1c-.3,0-.7,0-1,.1s-.7.2-1,.3h0c-.3.2-.7.3-1,.5s-.7.5-1,.7h0c-.3.3-.6.6-.9.9-.3.3-.6.7-.8,1-.2.3-.5.7-.6,1.1-.2.4-.3.8-.4,1.1h0c-.2.6-.3,1.2-.3,1.7-.1.5-.1,1,0,1.4s.1.8.2,1.2.2.7.4,1,.3.6.6.8c.2.2.4.4.6.5h0c.2.2.5.3.7.3.2.1.4.1.6.1.4,0,.7,0,1-.2.3-.1.6-.3.8-.5.3-.2.5-.5.7-.8s.4-.6.6-1h0c.2-.4.3-.8.5-1.2s.3-.8.4-1.3.2-1,.3-1.3c.1-.2.2-.6.3-1.2h0c.1-.4.2-.8.3-1.1.1-.3.2-.7.3-.9h0c.1-.3.3-.6.5-.8s.5-.3.8-.3.6.1.9.3c.2.2.4.4.6.8h0c.2.3.3.6.5,1s.3.8.5,1.2h0c.2.4.3.8.5,1.3s.4,1,.5,1.4c.2.5.4.9.6,1.4.2.4.4.8.6,1.3.2.4.4.8.7,1.1.2.3.5.6.8.9.2.2.5.4.7.5s.5.2.8.2c.2,0,.4,0,.6-.1s.4-.1.6-.2h0l.6-.3c.2-.1.3-.2.5-.4h0c.2-.1.3-.3.5-.5s.3-.4.5-.5h0l1.1-1.3h-.1l.2-.3c-.1-.4-.2-.9-.3-1.3-.2-.7-.3-1.4-.4-2.1h0c-.1-.7-.2-1.5-.3-2.2-.1-.7-.1-1.5-.2-2.2s-.1-1.4-.1-2.1v-2h0c.2-1.8.4-3.6.8-5.3.3-1.7.8-3.2,1.3-4.7.2-.6.4-1.2.7-1.9s.6-1.2.9-1.8c.3-.6.7-1.2,1-1.7.4-.5.8-1.1,1.2-1.5.4-.5.9-.9,1.4-1.3s1-.7,1.6-1h0c.6-.3,1.2-.5,1.8-.7s1.3-.2,2-.2c.8,0,1.4.1,1.9.4.6.3,1,.7,1.2,1.3.2.5.4,1.1.5,1.8.1.6.1,1.4,0,2.1-.1.8-.3,1.6-.5,2.5s-.5,1.8-.9,2.8h0c-.4,1-.7,2-1.1,2.9-.4,1-.9,2-1.3,3h0c-1.1,2.4-2.4,4.9-3.9,7.5-.4.7-.8,1.4-1.2,2.2.1.7.2,1.3.3,1.9.2.9.4,1.7.6,2.5s.5,1.5.7,2.1c.3.6.6,1.1.9,1.6h0c.3.4.6.7.9.9.3.2.6.3,1,.3h.6c.2,0,.4-.1.7-.2h0c.2-.1.4-.2.7-.4s.5-.4.9-.7h0c.3-.2.6-.6.9-1,.3-.3.6-.7.9-1.1,0-.5.1-.9.1-1.4h0c.1-.6.3-1.2.5-1.8s.4-1.2.8-1.8c.3-.6.6-1.2,1.1-1.8.4-.6.9-1.2,1.4-1.7h0c.5-.6,1.1-1.1,1.7-1.6.6-.5,1.2-.8,1.8-1.1s1.2-.5,1.8-.8c.6-.2,1.2-.4,1.8-.5h0c.5-.1,1-.2,1.5-.2h1.4c.4,0,.9.1,1.3.2s.8.2,1.1.2.6.2.9.3c.3.1.5.3.7.4h0c.2.2.4.4.5.6.1.3.1.6-.1.8h0c-.1.2-.3.3-.4.4-.2.1-.4.2-.6.1h0c-.1,0-.2,0-.4-.1-.1,0-.2-.1-.4-.2h0c-.1-.1-.3-.1-.4-.2-.2-.1-.4-.1-.6-.2h0c-.2-.1-.4-.1-.7-.1h-1c-.3,0-.7,0-1,.1s-.7.2-1,.3h0c-.4.2-.7.3-1,.5s-.6.5-1,.7-.6.6-.9.9c-.3.3-.6.7-.8,1s-.5.7-.6,1.1c-.2.4-.3.8-.4,1.1h0c-.2.6-.3,1.2-.4,1.7-.1.5-.1,1,0,1.4h0c.1.4.1.9.2,1.2s.2.7.4,1,.4.6.6.8c.2.2.4.4.6.5h0c.2.2.5.3.7.3.2.1.4.1.6.1.4,0,.7,0,1-.2.3-.1.6-.3.8-.5.3-.2.5-.5.7-.8s.4-.6.6-1h0c.2-.4.4-.8.5-1.2s.3-.8.4-1.3c.1-.5.2-1,.3-1.3,0-.2.1-.6.3-1.2h0c.1-.4.2-.8.3-1.1s.2-.7.3-.9h0c.1-.3.3-.6.5-.8s.5-.3.8-.3.6.1.9.3c.2.2.4.4.6.8h0c.2.3.3.6.5,1s.3.8.5,1.2h0c.2.4.3.8.5,1.3s.4,1,.5,1.4c.2.5.4.9.6,1.4.2.4.4.8.6,1.3.2.4.4.8.7,1.1.2.3.5.6.8.9.2.2.5.4.7.5s.5.2.8.2c.2,0,.4,0,.6-.1s.4-.1.6-.2h0c.2-.1.4-.2.6-.3.2-.1.3-.2.5-.4h0c.2-.1.3-.3.5-.5s.3-.4.5-.5h0l.9-1.2c0-.2-.1-.3-.1-.5-.1-.7-.2-1.3-.2-2s.1-1.4.2-2c.1-.7.3-1.3.6-1.9s.5-1.2.9-1.7c.3-.5.7-1,1.2-1.5.4-.5.9-.9,1.4-1.2s1.1-.7,1.6-1h0c.6-.3,1.2-.5,1.8-.6s1.3-.2,1.9-.2,1.3.1,1.9.2c.6.1,1.2.3,1.8.6h0c.6.3,1.1.6,1.6,1s1,.8,1.4,1.2c.4.5.8,1,1.2,1.5.3.5.6,1.1.9,1.7h0c.3.6.4,1.3.6,1.9.1.7.2,1.3.2,2s-.1,1.4-.2,2-.3,1.3-.6,1.9c-.2.6-.6,1.2-.9,1.7-.4.5-.7,1-1.2,1.5-.4.5-.9.9-1.4,1.2s-1.1.7-1.6,1h0c-.6.3-1.2.5-1.8.6s-1.3.2-1.9.2-1.3-.1-1.9-.2c-.6-.1-1.2-.3-1.8-.6h0c-.6-.3-1.1-.6-1.6-1s-1-.8-1.4-1.2-.8-1-1.2-1.5c-.1-.2-.3-.4-.4-.7-.2.2-.4.5-.6.7-.2.3-.5.6-.8.9h0c-.3.3-.6.6-.9.9-.3.3-.7.6-1,.8h0c-.4.3-.7.5-1.1.7-.4.2-.8.4-1.2.6-.4.2-.9.3-1.4.4-.5.1-.9.1-1.4.1s-1-.1-1.5-.3-.9-.4-1.4-.8c-.4-.3-.8-.7-1.1-1-.3-.4-.6-.7-.9-1.1h0c-.3-.4-.5-.8-.7-1.1-.2-.4-.4-.7-.6-1.1h0l-.1-.2-.1.2h0c-.2.3-.4.7-.7,1.1-.3.4-.6.7-.9,1.1-.4.4-.7.8-1.1,1.1s-.8.7-1.3,1-1,.6-1.6.8-1.1.3-1.7.3-1.2-.1-1.7-.2c-.6-.1-1.1-.3-1.5-.6-.5-.2-.9-.5-1.3-.9-.4-.3-.7-.7-1-1.2h0c-.3-.4-.5-.9-.7-1.4-.1-.1-.1-.2-.1-.4l-.1.1c-.3.4-.7.8-1.2,1.2-.4.4-.9.8-1.4,1.2s-1.1.7-1.6,1.1h0c-.6.3-1.3.6-1.9.8-.7.2-1.4.3-2.1.3-.6,0-1.1-.1-1.7-.3s-1-.4-1.5-.8c-.4-.3-.8-.7-1.2-1.2-.4-.4-.7-.9-1-1.5-1.5.5-1.7-.1-2-.5h0Z"/></clipPath><clipPath id="clippath-1"><path class="cls-4" d="m108.8,86.7c-.4,1.2-.9,1.3-1.2,1.1h.1l-.1-.1c-1.3-1.6-1.7-5.1-1.7-8.3,0-1.7.1-3.4.2-4.6l.3.3c.5.6,1,1.2,1.4,2,.8,1.6,1.2,3.4,1.3,5.2,0,.5.1,1,.1,1.4.1,1.2-.1,2.3-.4,3m-1.4,1.9c.7.4,1.3.3,1.6.1.3-.3.7-.7.9-1.3.3-.9.5-2.2.5-3.5v-1.2c-.1-1.9-.6-3.8-1.5-5.6-.5-.9-1-1.7-1.8-2.4l-.6-.4h1.5c1.4,0,3.5-.1,4.5-.4,1.3-.4,1.2-1.2.6-1s-6.4.4-6.8.3h-.1v-.2c.1-1.9.6-8.1.8-9.4.1-.2-.2-.5-.5-.7s-.6-.2-.6,0c-.3,1.3-.8,7.6-.8,9.5v.6l-.8-.2c-.7-.2-.4.7.3.9l.6.3c-.1,1.3-.2,3.1-.2,4.9-.1,3.8.3,8,2.4,9.7q-.1,0,0,0h0Z"/></clipPath><clipPath id="clippath-2"><path class="cls-4" d="m113.4,72.9h0c.5.2,1.1.4,1.9.6.5,1.2-.2,3-1.6,3.1-.6,0-1-.3-1.1-1.2-.3-1,.4-2.1.8-2.5m7.9.3c.8-.3,1-.7.1-.6-.3,0-1.5.1-3.1.1-.7,0-1.6,0-2.4-.1-.5-.6-1.2-1-2.1-1.1-.6,0-.9.3-1,.8h-.2c-.7.3-1.6,1.8-1.3,3.2.2.9,1,1.9,2.2,2,1.5.1,2.8-.7,3.1-2.3.1-.5.1-1-.1-1.4,2,0,4.1-.3,4.8-.6h0Z"/></clipPath><clipPath id="clippath-3"><path class="cls-4" d="m121,76.8c.1.5,1.2.9,1.2.5.1-.9.1-1.1.2-1.4.8-2.2,3.4-4.2,5-4.1v.3c0,.3.4.4.9-.1.2-.3-.2-.9-1-1.1-1.8-.3-4.1,1.6-4.9,2.6v-1.2c0-.2-.2-.5-.5-.7s-.6-.2-.6.1c-.5,4-.4,4.8-.3,5.1"/></clipPath><clipPath id="clippath-4"><path class="cls-4" d="m134.8,75.8c.1.4.9,1,1.2.8,1.2-1.1,2.1-2.8,3.8-3.8.3,1.2.5,2,.8,2.7.2.3.8.7,1.1.6.9-.6,1.7-1.2,3.1-2.4.1.3.3.6.5,1,.3.4.6.8,1.1,1.1.7.4,1.5.6,2.1.6,1.8,0,3.9-1.6,4.4-2.4.4-.7,0-1-.1-.8-.4.8-3.9,2.3-5,2.3-.4,0-.8-.2-1.2-.4-.6-.6-.8-1.7-1.1-2.3-.2-.3-.8-.7-1.1-.5l-3.1,2.5c-.3-1.1-.3-1.8-.7-2.6-.3-.3-.8-.7-1.1-.6-1.4.7-2.5,2-3.6,3.2,0-1.1.1-1.6.1-2.5.1-.4-1-1.1-1.1-.6-.1.8-.2,1.7-.2,2.8.1.3.1.8.1,1.3"/></clipPath><clipPath id="clippath-5"><path class="cls-4" d="m155.1,72.4c.4.3-.6,1.2-1.9,1.8,0-.7,1.2-2.4,1.9-1.8m2.1,5.1c2.2-.1,4.3-1.7,5.2-3.6.4-.9.6-1.6-.2-.9-1.4,1.4-3.6,3.7-6.6,3.7-1.1,0-2.2-1-2.4-1.6,1.1,0,2.5-.8,2.9-1.8.4-.9-.6-1.9-1.6-1.9-1.6.1-2.5,1.5-2.5,2.9,0,.3.1.6.2.9.6,2,3.1,2.3,5,2.3h0Z"/></clipPath></defs><g><path class="cls-4" d="m179.3,51.8c.3-.1.6-.2.9-.3.3-.2.6-.3.8-.6.3-.2.5-.5.7-.8s.4-.6.5-1h0c.1-.3.3-.7.4-1.1.1-.4.2-.8.2-1.3h0v-1.4c0-.5-.1-.9-.2-1.4h0c-.1-.5-.2-.9-.4-1.3-.2-.4-.4-.8-.6-1.2-.2-.4-.5-.7-.8-1s-.6-.6-.9-.9h0c-.3-.2-.6-.5-.9-.6-.3-.2-.6-.3-1-.4h0c-.3-.1-.7-.2-1-.2s-.6,0-1,.1h0c-.3.1-.6.2-.9.4-.3.2-.6.3-.8.6h0c-.3.2-.5.5-.7.8s-.4.6-.5,1h0c-.1.3-.3.7-.4,1.1s-.1.8-.2,1.3h0v1.4c0,.5.1.9.2,1.4s.2.9.4,1.3c.2.4.4.8.6,1.2.2.4.5.7.8,1.1s.6.6.9.8h0c.3.2.6.5.9.6.3.2.6.3,1,.4.3.1.6.2,1,.2.4-.1.7-.1,1-.2h0Zm-50.7-13.9c.9-1.8,1.8-3.5,2.6-5.2h0c.4-.9.9-1.9,1.2-2.8s.8-1.8,1.1-2.7c.3-.9.6-1.7.9-2.5.2-.8.4-1.5.6-2.2h0c.1-.7.2-1.3.2-1.8s0-1-.1-1.3-.2-.5-.4-.7c-.2-.1-.5-.2-.9-.2s-.8.1-1.1.3c-.4.2-.7.5-1,1-.4.5-.7,1-1,1.6s-.6,1.3-.8,2.1h0c-.2.8-.4,1.6-.6,2.5-.2.9-.3,1.8-.4,2.9h0c-.1,1-.2,2-.3,3.1-.1,1.1-.1,2.1-.1,3.1,0,.9,0,1.9.1,2.8h0Zm21.1-6.3c-.6-.2-1.2-.4-1.7-.6-.5-.1-1-.3-1.5-.3-.4-.1-.8,0-1.1,0-.3.1-.6.2-.8.4h0c-.2.2-.4.3-.5.4-.2.1-.4.2-.6.2h0c-.2.1-.4.1-.6.1s-.4,0-.6-.1h0c-.2-.1-.4-.3-.4-.6,0-.2,0-.4.1-.6h0c.1-.2.2-.4.4-.6s.4-.4.7-.6h0c.6-.5,1.2-.9,1.8-1.1.6-.3,1.2-.5,1.8-.7h0c.6-.1,1.1-.2,1.6-.2h1.5c.5.1.9.1,1.4.3.4.1.9.3,1.3.5h0c.4.2.7.3,1.1.5.3.2.7.3,1,.5h0c.3.1.6.3.8.4s.5.2.7.3h0c.1,0,.3.1.4,0,.1,0,.2-.1.3-.2h0c.1-.1.2-.2.4-.3.1-.1.3-.1.5-.2.2,0,.3-.1.5-.1h.5c.2.1.4.2.5.4s.1.4.1.6h0c0,.2-.2.4-.4.6-.1.1-.3.3-.6.5-.4.4-.9.7-1.3,1-.4.3-.9.5-1.3.6-.4.1-.8.2-1.2.2h-1.1c-.4,0-.7-.1-1.1-.2-.3-.1-.7-.2-1-.4h0c-.3-.1-.6-.3-.9-.4s-.4-.2-.7-.3h0Zm-110.2,2.8c-.2-.5-.4-.9-.5-1.4-.3-1.2-.5-2.6-.5-4.1,0-1,.1-2,.4-2.9.2-.9.6-1.8,1.1-2.7h0c.5-.8,1-1.6,1.7-2.4.7-.7,1.4-1.4,2.2-2.1.8-.6,1.6-1.2,2.5-1.7-.6-2.9-1.7-5.5-3.1-7.6-2.2-3.2-5.1-5.3-8-5.3-2.4,0-4.5,1.4-5.9,3.6-1.6,2.4-2.5,5.7-2.5,9.4,0,4.7,1.4,9,3.5,12.2,2.2,3.2,5.1,5.2,8.1,5.2.2-.1.6-.2,1-.2h0Zm-8.2,9.6c.7-.5.9-1,.9-1.7,0-.4,0-.9-.2-1.2-.1-.2-.4-.4-.8-.4-.7,0-1.4.2-2,1-.5.6-.9,1.5-1.2,2.9v.8c1.5-.5,2.6-.9,3.3-1.4h0Zm2.1,1.8c-1.3.9-3.2,1.6-5.4,2,.1.9.4,2,1.3,2.8.7.7,1.6,1.1,3.1,1.1.4,0,1,0,1.7-.2.5-.1,1-.2,1.4-.4l.4-.2.8,1.3-.3.3c-.9.7-1.6,1.2-2.5,1.6-.9.4-1.9.6-3.1.6h0c-1.6,0-3.2-.9-4.4-2.2-1.1-1.3-1.9-3-1.9-4.9v-.5c0-2.6.7-4.7,2-6.2s3.1-2.3,5.4-2.3h.1c1.1,0,2.1.3,2.8.9.7.6,1.1,1.5,1.1,2.5-.2,1.7-1.1,2.9-2.5,3.8h0Zm-28.4,8.6c-.4.2-.9.4-1.4.4-.6,0-1.3-.2-1.8-1.2-.3-.6-.5-1.5-.5-2.8v-7.6c0-.9-.1-1.4-.2-1.8-.1-.3-.3-.5-.6-.6l-.5-.3.4-.5c.4-.4.8-.7,1.2-.9s.9-.3,1.4-.4h.1c.3,0,.9.3,1.3,1.1.1.2.2.5.3.9.2-.3.4-.5.7-.8.7-.7,1.7-1.2,2.9-1.2h.2c1,0,2.1.4,2.9,1.2.5.5.9,1,1.2,1.7.5-.7,1-1.4,1.5-1.9.7-.7,1.6-1,2.4-1h.2c1.2,0,2.4.5,3.3,1.6.8.9,1.2,2.1,1.2,3.7v6.8c0,.6.1,1.1.2,1.4.1.2.3.4.6.4l.6.1-.2.6c-.1.3-.6.7-1.1,1-.4.2-.9.4-1.4.4-.8,0-1.4-.4-1.8-1.2-.3-.7-.5-1.6-.5-2.8v-6.7c0-.8-.3-1.6-.6-2.1-.4-.5-.9-.9-1.4-.9s-1,.4-1.4.9c-.6.7-1.1,1.7-1.3,2.5v6.4c0,.6.1,1.1.2,1.4.1.2.3.4.6.4l.7.1-.4.6c-.2.3-.6.7-1.1,1-.4.2-.9.4-1.3.4-.8,0-1.4-.4-1.8-1.2,0-.5-.2-1.5-.2-2.7v-6.8c0-.8-.3-1.6-.6-2.1-.4-.5-.9-.8-1.4-.8h-.1c-.6,0-1.1.4-1.5,1-.7.9-1.1,2.1-1.1,2.7v6.1c0,.6.1,1.1.2,1.4.1.2.3.4.6.4l.6.1-.2.6c-.1.3-.6.7-1.1,1h0Zm84.2-31.1c-.1-.6-.2-1.2-.4-1.7-.3-.9-.8-1.7-1.4-2.4h0c-.3-.3-.6-.7-.9-1h0c-.4-.3-.8-.6-1.2-1h0c-.4-.3-1-.6-1.6-.9-.6-.3-1.2-.6-1.9-.8s-1.5-.5-2.3-.7-1.8-.4-2.7-.6h0c-1-.1-2.1-.3-3.2-.4-1.2-.1-2.4-.1-3.7-.1s-2.6.1-3.8.2c-1.2.1-2.5.3-3.7.5s-2.4.5-3.5.9c-1.1.3-2.2.7-3.2,1.1h0c-.4.2-.8.4-1.2.5v1.6c0,5.1-1.3,9.5-3.7,12.9.4.3.9.6,1.4.9,1.1.7,2.3,1.3,3.8,1.9,1.4.6,3.1,1.2,4.9,1.8,1.8.6,3.9,1.1,6.1,1.6,2,.5,4,1,5.9,1.4,1.9.5,3.7,1,5.4,1.5,1.7.5,3.3,1.1,4.8,1.7,1.5.6,2.8,1.3,4.1,2,1.3.7,2.4,1.5,3.4,2.4s1.8,1.8,2.5,2.9h0c.7,1,1.2,2.2,1.6,3.5.3,1.3.5,2.7.5,4.2s-.2,2.9-.5,4.2-.8,2.5-1.5,3.6c-.7,1.1-1.4,2.1-2.4,3-.9.9-1.9,1.7-3.1,2.4-1.2.7-2.4,1.3-3.8,1.8s-2.8.9-4.4,1.3h0c-1.6.3-3.2.6-4.9.7-1.7.2-3.4.2-5.2.2s-3.6-.1-5.4-.3c-1.8-.2-3.5-.4-5.2-.8-1.7-.3-3.3-.8-4.9-1.2s-3-1-4.3-1.7c-1.4-.6-2.6-1.3-3.7-2.1-1.1-.8-2-1.6-2.9-2.5-.8-.9-1.5-1.9-1.9-2.9s-.6-2.1-.6-3.2c0-.6.1-1.2.2-1.7.2-.5.4-1,.7-1.4s.6-.7,1-1,.8-.5,1.2-.6c.4-.2.9-.2,1.3-.3s.9,0,1.4,0h0c.5.1,1,.2,1.4.3.5.2.9.4,1.3.6h0c.4.2.7.5,1,.9s.5.8.7,1.3.3,1,.3,1.5,0,1-.1,1.5h0c-.1.5-.3,1-.5,1.5s-.5.9-.9,1.4c-.4.5-.9.9-1.4,1.2-.4.2-.8.4-1.2.6.2.2.4.4.6.6.5.4,1.1.8,1.8,1.2h0c.8.4,1.6.8,2.4,1.2s1.8.7,2.8,1h0c1,.3,2,.6,3.1.9s2.1.5,3.2.7c1.1.2,2.2.3,3.2.4,1,.1,2,.1,2.9.1,1.6,0,3.1-.1,4.6-.3,1.5-.2,2.9-.5,4.2-.9,1.4-.4,2.6-.9,3.7-1.5s2.1-1.2,3-1.8h0c.9-.7,1.6-1.4,2.2-2.1.6-.8,1.1-1.6,1.4-2.4.3-.8.4-1.7.4-2.5-.1-.8-.3-1.7-.8-2.6-.4-.9-1.1-1.8-2-2.7s-2-1.8-3.4-2.7-3-1.7-4.9-2.5-4.2-1.5-6.7-2.2-4.7-1.3-6.8-1.9c-1.9-.5-3.9-1.1-6-1.6-1.8-.5-3.5-1-5.1-1.6-.1,0-.3-.1-.4-.1v8.3c0,.6.1,1.1.2,1.4.1.2.3.4.6.4l.6.1-.2.6c-.1.3-.6.7-1.1,1-.4.2-.9.4-1.4.4-.7,0-1.2-.3-1.6-.9h0c-.2-.3-.4-.7-.5-1.2-.5.5-1,.9-1.5,1.3-.7.5-1.3.7-2,.7h-.3c-1.2,0-2.5-.5-3.4-1.5-.8-.8-1.3-2-1.3-3.6v-6.9c0-.7-.1-1.2-.2-1.5-.1-.2-.3-.4-.5-.6l-.5-.3.3-.4c.4-.4.8-.7,1.2-.9.5-.2,1-.3,1.5-.4h.1l.1.1c.4.3.8.7,1.1,1.2.2.5.4,1,.4,1.7v8.1h0c0,.8.2,1.5.6,1.9.4.4,1,.6,1.6.6h.3c.3,0,1-.4,1.5-1,.4-.4.7-1,.7-1.5v-6.7c0-.9-.1-1.4-.2-1.8-.1-.3-.3-.5-.6-.6l-.5-.3h0c-.9-.5-1.7-1-2.5-1.6-.4-.3-.7-.6-1.1-.9-1.7.5-3.5.8-5.4.8-5.1,0-9.7-1.9-12.9-5.4-3-3.3-4.8-8-4.8-14s1.7-10.7,4.8-14c3.4-3,7.8-4.8,13.2-4.8s9.8,1.7,13,5c2.1,2.2,3.6,5.1,4.3,8.7.7-.2,1.4-.4,2.1-.6h0c1.2-.3,2.3-.6,3.5-.8s2.3-.4,3.6-.6c1.2-.1,2.4-.3,3.5-.3,1.2-.1,2.3-.1,3.4-.1,1.6,0,3.2.1,4.6.2,1.5.1,2.9.4,4.2.7h0c1.3.3,2.5.6,3.7,1.1,1.1.4,2.2.9,3.2,1.4h0c1,.5,1.8,1.1,2.6,1.7.8.6,1.4,1.2,2,1.9h0c.6.7,1.1,1.4,1.4,2.2.4.8.6,1.5.7,2.4h0c.1.8.2,1.5.1,2.1,0,.7-.1,1.3-.3,1.9-.2.5-.4,1-.7,1.5-.3.5-.6.9-.9,1.2h0c-.4.4-.8.6-1.2.9-.4.2-.9.5-1.4.6h0c-.5.1-.9.3-1.4.3-.5.1-.9.1-1.4.1-.3,0-.7,0-1-.1s-.7-.2-1-.3c-.3-.1-.6-.3-.8-.5-.3-.2-.5-.4-.7-.6s-.4-.4-.6-.7-.3-.5-.4-.8h0c-.1-.3-.2-.6-.3-.9-.1-.3-.1-.6-.1-.9s0-.6.1-.9.2-.6.3-.9h0c.1-.3.3-.6.4-.8.2-.2.4-.5.6-.7h0c.2-.2.5-.4.8-.6s.6-.3.9-.5.7-.2,1-.3c.4-.1.7-.1,1.1-.1.3,0,.5,0,.8.1s.6.1.8.2h0c.3.1.5.2.8.3.3.1.5.2.7.4h0c.2.2.4.3.6.4h0Zm34.6,27.5c-.2.3-.4.5-.7.8s-.5.6-.8.9h0c-.3.3-.6.6-.9.9-.3.3-.7.6-1,.8h0c-.4.3-.7.5-1.1.7l-1.2.6c-.4.2-.9.3-1.4.4-.5.1-.9.1-1.4.1s-1-.1-1.5-.3-.9-.4-1.4-.8c-.4-.3-.8-.7-1.1-1s-.7-.7-.9-1.1h0c-.3-.4-.5-.8-.7-1.1-.2-.4-.4-.7-.6-1.1h0l-.1-.2-.1.2h0c-.2.3-.4.7-.7,1.1-.3.4-.6.7-.9,1.1-.3.4-.7.8-1.1,1.1s-.8.7-1.3,1-1,.6-1.6.8-1.1.3-1.7.3-1.2-.1-1.7-.2c-.6-.1-1.1-.3-1.5-.6-.5-.2-.9-.5-1.3-.9-.4-.3-.7-.7-1-1.2h0c-.3-.4-.5-.9-.7-1.4s-.3-1-.4-1.6h0c-.1-.5-.1-1.1-.1-1.7s.1-1.2.2-1.8h0c.1-.6.3-1.2.5-1.8s.4-1.2.8-1.8c.3-.6.7-1.2,1.1-1.8s.8-1.2,1.3-1.7h0c.5-.6,1.1-1.1,1.7-1.6s1.2-.8,1.8-1.1,1.2-.5,1.8-.8,1.2-.4,1.8-.5h0c.5-.1,1-.2,1.5-.2h1.4c.4,0,.9.1,1.3.2.4.1.8.2,1.1.2.3.1.6.2.9.3s.5.3.7.4h0c.2.2.4.4.5.6.1.3.1.6-.1.8h0c-.1.2-.3.3-.4.4-.2.1-.4.2-.6.1h0c-.1,0-.2,0-.4-.1-.1,0-.2-.1-.4-.2h0c-.1-.1-.3-.1-.4-.2-.2-.1-.4-.1-.6-.2h0c-.2-.1-.4-.1-.7-.1h-1c-.3,0-.7,0-1,.1s-.7.2-1,.3h0c-.3.2-.7.3-1,.5s-.7.5-1,.7h0c-.3.3-.6.6-.9.9-.3.3-.6.7-.8,1-.2.3-.5.7-.6,1.1-.2.4-.3.8-.4,1.1h0c-.2.6-.3,1.2-.3,1.7-.1.5-.1,1,0,1.4s.1.8.2,1.2.2.7.4,1,.3.6.6.8c.2.2.4.4.6.5h0c.2.2.5.3.7.3.2.1.4.1.6.1.4,0,.7,0,1-.2.3-.1.6-.3.8-.5.3-.2.5-.5.7-.8s.4-.6.6-1h0c.2-.4.3-.8.5-1.2s.3-.8.4-1.3.2-1,.3-1.3c.1-.2.2-.6.3-1.2h0c.1-.4.2-.8.3-1.1.1-.3.2-.7.3-.9h0c.1-.3.3-.6.5-.8s.5-.3.8-.3.6.1.9.3c.2.2.4.4.6.8h0c.2.3.3.6.5,1s.3.8.5,1.2h0c.2.4.3.8.5,1.3s.4,1,.5,1.4c.2.5.4.9.6,1.4.2.4.4.8.6,1.3.2.4.4.8.7,1.1.2.3.5.6.8.9.2.2.5.4.7.5s.5.2.8.2c.2,0,.4,0,.6-.1s.4-.1.6-.2h0l.6-.3c.2-.1.3-.2.5-.4h0c.2-.1.3-.3.5-.5s.3-.4.5-.5h0l1.1-1.3h-.1l.2-.3c-.1-.4-.2-.9-.3-1.3-.2-.7-.3-1.4-.4-2.1h0c-.1-.7-.2-1.5-.3-2.2-.1-.7-.1-1.5-.2-2.2s-.1-1.4-.1-2.1v-2h0c.2-1.8.4-3.6.8-5.3.3-1.7.8-3.2,1.3-4.7.2-.6.4-1.2.7-1.9s.6-1.2.9-1.8c.3-.6.7-1.2,1-1.7.4-.5.8-1.1,1.2-1.5.4-.5.9-.9,1.4-1.3s1-.7,1.6-1h0c.6-.3,1.2-.5,1.8-.7s1.3-.2,2-.2c.8,0,1.4.1,1.9.4.6.3,1,.7,1.2,1.3.2.5.4,1.1.5,1.8.1.6.1,1.4,0,2.1-.1.8-.3,1.6-.5,2.5s-.5,1.8-.9,2.8h0c-.4,1-.7,2-1.1,2.9-.4,1-.9,2-1.3,3h0c-1.1,2.4-2.4,4.9-3.9,7.5-.4.7-.8,1.4-1.2,2.2.1.7.2,1.3.3,1.9.2.9.4,1.7.6,2.5s.5,1.5.7,2.1c.3.6.6,1.1.9,1.6h0c.3.4.6.7.9.9.3.2.6.3,1,.3h.6c.2,0,.4-.1.7-.2h0c.2-.1.4-.2.7-.4s.5-.4.9-.7h0c.3-.2.6-.6.9-1,.3-.3.6-.7.9-1.1,0-.5.1-.9.1-1.4h0c.1-.6.3-1.2.5-1.8s.4-1.2.8-1.8c.3-.6.6-1.2,1.1-1.8.4-.6.9-1.2,1.4-1.7h0c.5-.6,1.1-1.1,1.7-1.6.6-.5,1.2-.8,1.8-1.1s1.2-.5,1.8-.8c.6-.2,1.2-.4,1.8-.5h0c.5-.1,1-.2,1.5-.2h1.4c.4,0,.9.1,1.3.2s.8.2,1.1.2.6.2.9.3c.3.1.5.3.7.4h0c.2.2.4.4.5.6.1.3.1.6-.1.8h0c-.1.2-.3.3-.4.4-.2.1-.4.2-.6.1h0c-.1,0-.2,0-.4-.1-.1,0-.2-.1-.4-.2h0c-.1-.1-.3-.1-.4-.2-.2-.1-.4-.1-.6-.2h0c-.2-.1-.4-.1-.7-.1h-1c-.3,0-.7,0-1,.1s-.7.2-1,.3h0c-.4.2-.7.3-1,.5s-.6.5-1,.7-.6.6-.9.9c-.3.3-.6.7-.8,1s-.5.7-.6,1.1c-.2.4-.3.8-.4,1.1h0c-.2.6-.3,1.2-.4,1.7-.1.5-.1,1,0,1.4h0c.1.4.1.9.2,1.2s.2.7.4,1,.4.6.6.8c.2.2.4.4.6.5h0c.2.2.5.3.7.3.2.1.4.1.6.1.4,0,.7,0,1-.2.3-.1.6-.3.8-.5.3-.2.5-.5.7-.8s.4-.6.6-1h0c.2-.4.4-.8.5-1.2s.3-.8.4-1.3c.1-.5.2-1,.3-1.3,0-.2.1-.6.3-1.2h0c.1-.4.2-.8.3-1.1s.2-.7.3-.9h0c.1-.3.3-.6.5-.8s.5-.3.8-.3.6.1.9.3c.2.2.4.4.6.8h0c.2.3.3.6.5,1s.3.8.5,1.2h0c.2.4.3.8.5,1.3s.4,1,.5,1.4c.2.5.4.9.6,1.4.2.4.4.8.6,1.3.2.4.4.8.7,1.1.2.3.5.6.8.9.2.2.5.4.7.5s.5.2.8.2c.2,0,.4,0,.6-.1s.4-.1.6-.2h0c.2-.1.4-.2.6-.3.2-.1.3-.2.5-.4h0c.2-.1.3-.3.5-.5s.3-.4.5-.5h0l.9-1.2c0-.2-.1-.3-.1-.5-.1-.7-.2-1.3-.2-2s.1-1.4.2-2c.1-.7.3-1.3.6-1.9s.5-1.2.9-1.7c.3-.5.7-1,1.2-1.5.4-.5.9-.9,1.4-1.2s1.1-.7,1.6-1h0c.6-.3,1.2-.5,1.8-.6s1.3-.2,1.9-.2,1.3.1,1.9.2c.6.1,1.2.3,1.8.6h0c.6.3,1.1.6,1.6,1s1,.8,1.4,1.2c.4.5.8,1,1.2,1.5.3.5.6,1.1.9,1.7h0c.3.6.4,1.3.6,1.9.1.7.2,1.3.2,2s-.1,1.4-.2,2-.3,1.3-.6,1.9c-.2.6-.6,1.2-.9,1.7-.4.5-.7,1-1.2,1.5-.4.5-.9.9-1.4,1.2s-1.1.7-1.6,1h0c-.6.3-1.2.5-1.8.6s-1.3.2-1.9.2-1.3-.1-1.9-.2c-.6-.1-1.2-.3-1.8-.6h0c-.6-.3-1.1-.6-1.6-1s-1-.8-1.4-1.2-.8-1-1.2-1.5c-.1-.2-.3-.4-.4-.7-.2.2-.4.5-.6.7-.2.3-.5.6-.8.9h0c-.3.3-.6.6-.9.9-.3.3-.7.6-1,.8h0c-.4.3-.7.5-1.1.7-.4.2-.8.4-1.2.6-.4.2-.9.3-1.4.4-.5.1-.9.1-1.4.1s-1-.1-1.5-.3-.9-.4-1.4-.8c-.4-.3-.8-.7-1.1-1-.3-.4-.6-.7-.9-1.1h0c-.3-.4-.5-.8-.7-1.1-.2-.4-.4-.7-.6-1.1h0l-.1-.2-.1.2h0c-.2.3-.4.7-.7,1.1-.3.4-.6.7-.9,1.1-.4.4-.7.8-1.1,1.1s-.8.7-1.3,1-1,.6-1.6.8-1.1.3-1.7.3-1.2-.1-1.7-.2c-.6-.1-1.1-.3-1.5-.6-.5-.2-.9-.5-1.3-.9-.4-.3-.7-.7-1-1.2h0c-.3-.4-.5-.9-.7-1.4-.1-.1-.1-.2-.1-.4l-.1.1c-.3.4-.7.8-1.2,1.2-.4.4-.9.8-1.4,1.2s-1.1.7-1.6,1.1h0c-.6.3-1.3.6-1.9.8-.7.2-1.4.3-2.1.3-.6,0-1.1-.1-1.7-.3s-1-.4-1.5-.8c-.4-.3-.8-.7-1.2-1.2-.4-.4-.7-.9-1-1.5-1.5.5-1.7-.1-2-.5h0Z"/><g><path id="SVGID" class="cls-4" d="m179.3,51.8c.3-.1.6-.2.9-.3.3-.2.6-.3.8-.6.3-.2.5-.5.7-.8s.4-.6.5-1h0c.1-.3.3-.7.4-1.1.1-.4.2-.8.2-1.3h0v-1.4c0-.5-.1-.9-.2-1.4h0c-.1-.5-.2-.9-.4-1.3-.2-.4-.4-.8-.6-1.2-.2-.4-.5-.7-.8-1s-.6-.6-.9-.9h0c-.3-.2-.6-.5-.9-.6-.3-.2-.6-.3-1-.4h0c-.3-.1-.7-.2-1-.2s-.6,0-1,.1h0c-.3.1-.6.2-.9.4-.3.2-.6.3-.8.6h0c-.3.2-.5.5-.7.8s-.4.6-.5,1h0c-.1.3-.3.7-.4,1.1s-.1.8-.2,1.3h0v1.4c0,.5.1.9.2,1.4s.2.9.4,1.3c.2.4.4.8.6,1.2.2.4.5.7.8,1.1s.6.6.9.8h0c.3.2.6.5.9.6.3.2.6.3,1,.4.3.1.6.2,1,.2.4-.1.7-.1,1-.2h0Zm-50.7-13.9c.9-1.8,1.8-3.5,2.6-5.2h0c.4-.9.9-1.9,1.2-2.8s.8-1.8,1.1-2.7c.3-.9.6-1.7.9-2.5.2-.8.4-1.5.6-2.2h0c.1-.7.2-1.3.2-1.8s0-1-.1-1.3-.2-.5-.4-.7c-.2-.1-.5-.2-.9-.2s-.8.1-1.1.3c-.4.2-.7.5-1,1-.4.5-.7,1-1,1.6s-.6,1.3-.8,2.1h0c-.2.8-.4,1.6-.6,2.5-.2.9-.3,1.8-.4,2.9h0c-.1,1-.2,2-.3,3.1-.1,1.1-.1,2.1-.1,3.1,0,.9,0,1.9.1,2.8h0Zm21.1-6.3c-.6-.2-1.2-.4-1.7-.6-.5-.1-1-.3-1.5-.3-.4-.1-.8,0-1.1,0-.3.1-.6.2-.8.4h0c-.2.2-.4.3-.5.4-.2.1-.4.2-.6.2h0c-.2.1-.4.1-.6.1s-.4,0-.6-.1h0c-.2-.1-.4-.3-.4-.6,0-.2,0-.4.1-.6h0c.1-.2.2-.4.4-.6s.4-.4.7-.6h0c.6-.5,1.2-.9,1.8-1.1.6-.3,1.2-.5,1.8-.7h0c.6-.1,1.1-.2,1.6-.2h1.5c.5.1.9.1,1.4.3.4.1.9.3,1.3.5h0c.4.2.7.3,1.1.5.3.2.7.3,1,.5h0c.3.1.6.3.8.4s.5.2.7.3h0c.1,0,.3.1.4,0,.1,0,.2-.1.3-.2h0c.1-.1.2-.2.4-.3.1-.1.3-.1.5-.2.2,0,.3-.1.5-.1h.5c.2.1.4.2.5.4s.1.4.1.6h0c0,.2-.2.4-.4.6-.1.1-.3.3-.6.5-.4.4-.9.7-1.3,1-.4.3-.9.5-1.3.6-.4.1-.8.2-1.2.2h-1.1c-.4,0-.7-.1-1.1-.2-.3-.1-.7-.2-1-.4h0c-.3-.1-.6-.3-.9-.4s-.4-.2-.7-.3h0Zm-110.2,2.8c-.2-.5-.4-.9-.5-1.4-.3-1.2-.5-2.6-.5-4.1,0-1,.1-2,.4-2.9.2-.9.6-1.8,1.1-2.7h0c.5-.8,1-1.6,1.7-2.4.7-.7,1.4-1.4,2.2-2.1.8-.6,1.6-1.2,2.5-1.7-.6-2.9-1.7-5.5-3.1-7.6-2.2-3.2-5.1-5.3-8-5.3-2.4,0-4.5,1.4-5.9,3.6-1.6,2.4-2.5,5.7-2.5,9.4,0,4.7,1.4,9,3.5,12.2,2.2,3.2,5.1,5.2,8.1,5.2.2-.1.6-.2,1-.2h0Zm-8.2,9.6c.7-.5.9-1,.9-1.7,0-.4,0-.9-.2-1.2-.1-.2-.4-.4-.8-.4-.7,0-1.4.2-2,1-.5.6-.9,1.5-1.2,2.9v.8c1.5-.5,2.6-.9,3.3-1.4h0Zm2.1,1.8c-1.3.9-3.2,1.6-5.4,2,.1.9.4,2,1.3,2.8.7.7,1.6,1.1,3.1,1.1.4,0,1,0,1.7-.2.5-.1,1-.2,1.4-.4l.4-.2.8,1.3-.3.3c-.9.7-1.6,1.2-2.5,1.6-.9.4-1.9.6-3.1.6h0c-1.6,0-3.2-.9-4.4-2.2-1.1-1.3-1.9-3-1.9-4.9v-.5c0-2.6.7-4.7,2-6.2s3.1-2.3,5.4-2.3h.1c1.1,0,2.1.3,2.8.9.7.6,1.1,1.5,1.1,2.5-.2,1.7-1.1,2.9-2.5,3.8h0Zm-28.4,8.6c-.4.2-.9.4-1.4.4-.6,0-1.3-.2-1.8-1.2-.3-.6-.5-1.5-.5-2.8v-7.6c0-.9-.1-1.4-.2-1.8-.1-.3-.3-.5-.6-.6l-.5-.3.4-.5c.4-.4.8-.7,1.2-.9s.9-.3,1.4-.4h.1c.3,0,.9.3,1.3,1.1.1.2.2.5.3.9.2-.3.4-.5.7-.8.7-.7,1.7-1.2,2.9-1.2h.2c1,0,2.1.4,2.9,1.2.5.5.9,1,1.2,1.7.5-.7,1-1.4,1.5-1.9.7-.7,1.6-1,2.4-1h.2c1.2,0,2.4.5,3.3,1.6.8.9,1.2,2.1,1.2,3.7v6.8c0,.6.1,1.1.2,1.4.1.2.3.4.6.4l.6.1-.2.6c-.1.3-.6.7-1.1,1-.4.2-.9.4-1.4.4-.8,0-1.4-.4-1.8-1.2-.3-.7-.5-1.6-.5-2.8v-6.7c0-.8-.3-1.6-.6-2.1-.4-.5-.9-.9-1.4-.9s-1,.4-1.4.9c-.6.7-1.1,1.7-1.3,2.5v6.4c0,.6.1,1.1.2,1.4.1.2.3.4.6.4l.7.1-.4.6c-.2.3-.6.7-1.1,1-.4.2-.9.4-1.3.4-.8,0-1.4-.4-1.8-1.2,0-.5-.2-1.5-.2-2.7v-6.8c0-.8-.3-1.6-.6-2.1-.4-.5-.9-.8-1.4-.8h-.1c-.6,0-1.1.4-1.5,1-.7.9-1.1,2.1-1.1,2.7v6.1c0,.6.1,1.1.2,1.4.1.2.3.4.6.4l.6.1-.2.6c-.1.3-.6.7-1.1,1h0Zm84.2-31.1c-.1-.6-.2-1.2-.4-1.7-.3-.9-.8-1.7-1.4-2.4h0c-.3-.3-.6-.7-.9-1h0c-.4-.3-.8-.6-1.2-1h0c-.4-.3-1-.6-1.6-.9-.6-.3-1.2-.6-1.9-.8s-1.5-.5-2.3-.7-1.8-.4-2.7-.6h0c-1-.1-2.1-.3-3.2-.4-1.2-.1-2.4-.1-3.7-.1s-2.6.1-3.8.2c-1.2.1-2.5.3-3.7.5s-2.4.5-3.5.9c-1.1.3-2.2.7-3.2,1.1h0c-.4.2-.8.4-1.2.5v1.6c0,5.1-1.3,9.5-3.7,12.9.4.3.9.6,1.4.9,1.1.7,2.3,1.3,3.8,1.9,1.4.6,3.1,1.2,4.9,1.8,1.8.6,3.9,1.1,6.1,1.6,2,.5,4,1,5.9,1.4,1.9.5,3.7,1,5.4,1.5,1.7.5,3.3,1.1,4.8,1.7,1.5.6,2.8,1.3,4.1,2,1.3.7,2.4,1.5,3.4,2.4s1.8,1.8,2.5,2.9h0c.7,1,1.2,2.2,1.6,3.5.3,1.3.5,2.7.5,4.2s-.2,2.9-.5,4.2-.8,2.5-1.5,3.6c-.7,1.1-1.4,2.1-2.4,3-.9.9-1.9,1.7-3.1,2.4-1.2.7-2.4,1.3-3.8,1.8s-2.8.9-4.4,1.3h0c-1.6.3-3.2.6-4.9.7-1.7.2-3.4.2-5.2.2s-3.6-.1-5.4-.3c-1.8-.2-3.5-.4-5.2-.8-1.7-.3-3.3-.8-4.9-1.2s-3-1-4.3-1.7c-1.4-.6-2.6-1.3-3.7-2.1-1.1-.8-2-1.6-2.9-2.5-.8-.9-1.5-1.9-1.9-2.9s-.6-2.1-.6-3.2c0-.6.1-1.2.2-1.7.2-.5.4-1,.7-1.4s.6-.7,1-1,.8-.5,1.2-.6c.4-.2.9-.2,1.3-.3s.9,0,1.4,0h0c.5.1,1,.2,1.4.3.5.2.9.4,1.3.6h0c.4.2.7.5,1,.9s.5.8.7,1.3.3,1,.3,1.5,0,1-.1,1.5h0c-.1.5-.3,1-.5,1.5s-.5.9-.9,1.4c-.4.5-.9.9-1.4,1.2-.4.2-.8.4-1.2.6.2.2.4.4.6.6.5.4,1.1.8,1.8,1.2h0c.8.4,1.6.8,2.4,1.2s1.8.7,2.8,1h0c1,.3,2,.6,3.1.9s2.1.5,3.2.7c1.1.2,2.2.3,3.2.4,1,.1,2,.1,2.9.1,1.6,0,3.1-.1,4.6-.3,1.5-.2,2.9-.5,4.2-.9,1.4-.4,2.6-.9,3.7-1.5s2.1-1.2,3-1.8h0c.9-.7,1.6-1.4,2.2-2.1.6-.8,1.1-1.6,1.4-2.4.3-.8.4-1.7.4-2.5-.1-.8-.3-1.7-.8-2.6-.4-.9-1.1-1.8-2-2.7s-2-1.8-3.4-2.7-3-1.7-4.9-2.5-4.2-1.5-6.7-2.2-4.7-1.3-6.8-1.9c-1.9-.5-3.9-1.1-6-1.6-1.8-.5-3.5-1-5.1-1.6-.1,0-.3-.1-.4-.1v8.3c0,.6.1,1.1.2,1.4.1.2.3.4.6.4l.6.1-.2.6c-.1.3-.6.7-1.1,1-.4.2-.9.4-1.4.4-.7,0-1.2-.3-1.6-.9h0c-.2-.3-.4-.7-.5-1.2-.5.5-1,.9-1.5,1.3-.7.5-1.3.7-2,.7h-.3c-1.2,0-2.5-.5-3.4-1.5-.8-.8-1.3-2-1.3-3.6v-6.9c0-.7-.1-1.2-.2-1.5-.1-.2-.3-.4-.5-.6l-.5-.3.3-.4c.4-.4.8-.7,1.2-.9.5-.2,1-.3,1.5-.4h.1l.1.1c.4.3.8.7,1.1,1.2.2.5.4,1,.4,1.7v8.1h0c0,.8.2,1.5.6,1.9.4.4,1,.6,1.6.6h.3c.3,0,1-.4,1.5-1,.4-.4.7-1,.7-1.5v-6.7c0-.9-.1-1.4-.2-1.8-.1-.3-.3-.5-.6-.6l-.5-.3h0c-.9-.5-1.7-1-2.5-1.6-.4-.3-.7-.6-1.1-.9-1.7.5-3.5.8-5.4.8-5.1,0-9.7-1.9-12.9-5.4-3-3.3-4.8-8-4.8-14s1.7-10.7,4.8-14c3.4-3,7.8-4.8,13.2-4.8s9.8,1.7,13,5c2.1,2.2,3.6,5.1,4.3,8.7.7-.2,1.4-.4,2.1-.6h0c1.2-.3,2.3-.6,3.5-.8s2.3-.4,3.6-.6c1.2-.1,2.4-.3,3.5-.3,1.2-.1,2.3-.1,3.4-.1,1.6,0,3.2.1,4.6.2,1.5.1,2.9.4,4.2.7h0c1.3.3,2.5.6,3.7,1.1,1.1.4,2.2.9,3.2,1.4h0c1,.5,1.8,1.1,2.6,1.7.8.6,1.4,1.2,2,1.9h0c.6.7,1.1,1.4,1.4,2.2.4.8.6,1.5.7,2.4h0c.1.8.2,1.5.1,2.1,0,.7-.1,1.3-.3,1.9-.2.5-.4,1-.7,1.5-.3.5-.6.9-.9,1.2h0c-.4.4-.8.6-1.2.9-.4.2-.9.5-1.4.6h0c-.5.1-.9.3-1.4.3-.5.1-.9.1-1.4.1-.3,0-.7,0-1-.1s-.7-.2-1-.3c-.3-.1-.6-.3-.8-.5-.3-.2-.5-.4-.7-.6s-.4-.4-.6-.7-.3-.5-.4-.8h0c-.1-.3-.2-.6-.3-.9-.1-.3-.1-.6-.1-.9s0-.6.1-.9.2-.6.3-.9h0c.1-.3.3-.6.4-.8.2-.2.4-.5.6-.7h0c.2-.2.5-.4.8-.6s.6-.3.9-.5.7-.2,1-.3c.4-.1.7-.1,1.1-.1.3,0,.5,0,.8.1s.6.1.8.2h0c.3.1.5.2.8.3.3.1.5.2.7.4h0c.2.2.4.3.6.4h0Zm34.6,27.5c-.2.3-.4.5-.7.8s-.5.6-.8.9h0c-.3.3-.6.6-.9.9-.3.3-.7.6-1,.8h0c-.4.3-.7.5-1.1.7l-1.2.6c-.4.2-.9.3-1.4.4-.5.1-.9.1-1.4.1s-1-.1-1.5-.3-.9-.4-1.4-.8c-.4-.3-.8-.7-1.1-1s-.7-.7-.9-1.1h0c-.3-.4-.5-.8-.7-1.1-.2-.4-.4-.7-.6-1.1h0l-.1-.2-.1.2h0c-.2.3-.4.7-.7,1.1-.3.4-.6.7-.9,1.1-.3.4-.7.8-1.1,1.1s-.8.7-1.3,1-1,.6-1.6.8-1.1.3-1.7.3-1.2-.1-1.7-.2c-.6-.1-1.1-.3-1.5-.6-.5-.2-.9-.5-1.3-.9-.4-.3-.7-.7-1-1.2h0c-.3-.4-.5-.9-.7-1.4s-.3-1-.4-1.6h0c-.1-.5-.1-1.1-.1-1.7s.1-1.2.2-1.8h0c.1-.6.3-1.2.5-1.8s.4-1.2.8-1.8c.3-.6.7-1.2,1.1-1.8s.8-1.2,1.3-1.7h0c.5-.6,1.1-1.1,1.7-1.6s1.2-.8,1.8-1.1,1.2-.5,1.8-.8,1.2-.4,1.8-.5h0c.5-.1,1-.2,1.5-.2h1.4c.4,0,.9.1,1.3.2.4.1.8.2,1.1.2.3.1.6.2.9.3s.5.3.7.4h0c.2.2.4.4.5.6.1.3.1.6-.1.8h0c-.1.2-.3.3-.4.4-.2.1-.4.2-.6.1h0c-.1,0-.2,0-.4-.1-.1,0-.2-.1-.4-.2h0c-.1-.1-.3-.1-.4-.2-.2-.1-.4-.1-.6-.2h0c-.2-.1-.4-.1-.7-.1h-1c-.3,0-.7,0-1,.1s-.7.2-1,.3h0c-.3.2-.7.3-1,.5s-.7.5-1,.7h0c-.3.3-.6.6-.9.9-.3.3-.6.7-.8,1-.2.3-.5.7-.6,1.1-.2.4-.3.8-.4,1.1h0c-.2.6-.3,1.2-.3,1.7-.1.5-.1,1,0,1.4s.1.8.2,1.2.2.7.4,1,.3.6.6.8c.2.2.4.4.6.5h0c.2.2.5.3.7.3.2.1.4.1.6.1.4,0,.7,0,1-.2.3-.1.6-.3.8-.5.3-.2.5-.5.7-.8s.4-.6.6-1h0c.2-.4.3-.8.5-1.2s.3-.8.4-1.3.2-1,.3-1.3c.1-.2.2-.6.3-1.2h0c.1-.4.2-.8.3-1.1.1-.3.2-.7.3-.9h0c.1-.3.3-.6.5-.8s.5-.3.8-.3.6.1.9.3c.2.2.4.4.6.8h0c.2.3.3.6.5,1s.3.8.5,1.2h0c.2.4.3.8.5,1.3s.4,1,.5,1.4c.2.5.4.9.6,1.4.2.4.4.8.6,1.3.2.4.4.8.7,1.1.2.3.5.6.8.9.2.2.5.4.7.5s.5.2.8.2c.2,0,.4,0,.6-.1s.4-.1.6-.2h0l.6-.3c.2-.1.3-.2.5-.4h0c.2-.1.3-.3.5-.5s.3-.4.5-.5h0l1.1-1.3h-.1l.2-.3c-.1-.4-.2-.9-.3-1.3-.2-.7-.3-1.4-.4-2.1h0c-.1-.7-.2-1.5-.3-2.2-.1-.7-.1-1.5-.2-2.2s-.1-1.4-.1-2.1v-2h0c.2-1.8.4-3.6.8-5.3.3-1.7.8-3.2,1.3-4.7.2-.6.4-1.2.7-1.9s.6-1.2.9-1.8c.3-.6.7-1.2,1-1.7.4-.5.8-1.1,1.2-1.5.4-.5.9-.9,1.4-1.3s1-.7,1.6-1h0c.6-.3,1.2-.5,1.8-.7s1.3-.2,2-.2c.8,0,1.4.1,1.9.4.6.3,1,.7,1.2,1.3.2.5.4,1.1.5,1.8.1.6.1,1.4,0,2.1-.1.8-.3,1.6-.5,2.5s-.5,1.8-.9,2.8h0c-.4,1-.7,2-1.1,2.9-.4,1-.9,2-1.3,3h0c-1.1,2.4-2.4,4.9-3.9,7.5-.4.7-.8,1.4-1.2,2.2.1.7.2,1.3.3,1.9.2.9.4,1.7.6,2.5s.5,1.5.7,2.1c.3.6.6,1.1.9,1.6h0c.3.4.6.7.9.9.3.2.6.3,1,.3h.6c.2,0,.4-.1.7-.2h0c.2-.1.4-.2.7-.4s.5-.4.9-.7h0c.3-.2.6-.6.9-1,.3-.3.6-.7.9-1.1,0-.5.1-.9.1-1.4h0c.1-.6.3-1.2.5-1.8s.4-1.2.8-1.8c.3-.6.6-1.2,1.1-1.8.4-.6.9-1.2,1.4-1.7h0c.5-.6,1.1-1.1,1.7-1.6.6-.5,1.2-.8,1.8-1.1s1.2-.5,1.8-.8c.6-.2,1.2-.4,1.8-.5h0c.5-.1,1-.2,1.5-.2h1.4c.4,0,.9.1,1.3.2s.8.2,1.1.2.6.2.9.3c.3.1.5.3.7.4h0c.2.2.4.4.5.6.1.3.1.6-.1.8h0c-.1.2-.3.3-.4.4-.2.1-.4.2-.6.1h0c-.1,0-.2,0-.4-.1-.1,0-.2-.1-.4-.2h0c-.1-.1-.3-.1-.4-.2-.2-.1-.4-.1-.6-.2h0c-.2-.1-.4-.1-.7-.1h-1c-.3,0-.7,0-1,.1s-.7.2-1,.3h0c-.4.2-.7.3-1,.5s-.6.5-1,.7-.6.6-.9.9c-.3.3-.6.7-.8,1s-.5.7-.6,1.1c-.2.4-.3.8-.4,1.1h0c-.2.6-.3,1.2-.4,1.7-.1.5-.1,1,0,1.4h0c.1.4.1.9.2,1.2s.2.7.4,1,.4.6.6.8c.2.2.4.4.6.5h0c.2.2.5.3.7.3.2.1.4.1.6.1.4,0,.7,0,1-.2.3-.1.6-.3.8-.5.3-.2.5-.5.7-.8s.4-.6.6-1h0c.2-.4.4-.8.5-1.2s.3-.8.4-1.3c.1-.5.2-1,.3-1.3,0-.2.1-.6.3-1.2h0c.1-.4.2-.8.3-1.1s.2-.7.3-.9h0c.1-.3.3-.6.5-.8s.5-.3.8-.3.6.1.9.3c.2.2.4.4.6.8h0c.2.3.3.6.5,1s.3.8.5,1.2h0c.2.4.3.8.5,1.3s.4,1,.5,1.4c.2.5.4.9.6,1.4.2.4.4.8.6,1.3.2.4.4.8.7,1.1.2.3.5.6.8.9.2.2.5.4.7.5s.5.2.8.2c.2,0,.4,0,.6-.1s.4-.1.6-.2h0c.2-.1.4-.2.6-.3.2-.1.3-.2.5-.4h0c.2-.1.3-.3.5-.5s.3-.4.5-.5h0l.9-1.2c0-.2-.1-.3-.1-.5-.1-.7-.2-1.3-.2-2s.1-1.4.2-2c.1-.7.3-1.3.6-1.9s.5-1.2.9-1.7c.3-.5.7-1,1.2-1.5.4-.5.9-.9,1.4-1.2s1.1-.7,1.6-1h0c.6-.3,1.2-.5,1.8-.6s1.3-.2,1.9-.2,1.3.1,1.9.2c.6.1,1.2.3,1.8.6h0c.6.3,1.1.6,1.6,1s1,.8,1.4,1.2c.4.5.8,1,1.2,1.5.3.5.6,1.1.9,1.7h0c.3.6.4,1.3.6,1.9.1.7.2,1.3.2,2s-.1,1.4-.2,2-.3,1.3-.6,1.9c-.2.6-.6,1.2-.9,1.7-.4.5-.7,1-1.2,1.5-.4.5-.9.9-1.4,1.2s-1.1.7-1.6,1h0c-.6.3-1.2.5-1.8.6s-1.3.2-1.9.2-1.3-.1-1.9-.2c-.6-.1-1.2-.3-1.8-.6h0c-.6-.3-1.1-.6-1.6-1s-1-.8-1.4-1.2-.8-1-1.2-1.5c-.1-.2-.3-.4-.4-.7-.2.2-.4.5-.6.7-.2.3-.5.6-.8.9h0c-.3.3-.6.6-.9.9-.3.3-.7.6-1,.8h0c-.4.3-.7.5-1.1.7-.4.2-.8.4-1.2.6-.4.2-.9.3-1.4.4-.5.1-.9.1-1.4.1s-1-.1-1.5-.3-.9-.4-1.4-.8c-.4-.3-.8-.7-1.1-1-.3-.4-.6-.7-.9-1.1h0c-.3-.4-.5-.8-.7-1.1-.2-.4-.4-.7-.6-1.1h0l-.1-.2-.1.2h0c-.2.3-.4.7-.7,1.1-.3.4-.6.7-.9,1.1-.4.4-.7.8-1.1,1.1s-.8.7-1.3,1-1,.6-1.6.8-1.1.3-1.7.3-1.2-.1-1.7-.2c-.6-.1-1.1-.3-1.5-.6-.5-.2-.9-.5-1.3-.9-.4-.3-.7-.7-1-1.2h0c-.3-.4-.5-.9-.7-1.4-.1-.1-.1-.2-.1-.4l-.1.1c-.3.4-.7.8-1.2,1.2-.4.4-.9.8-1.4,1.2s-1.1.7-1.6,1.1h0c-.6.3-1.3.6-1.9.8-.7.2-1.4.3-2.1.3-.6,0-1.1-.1-1.7-.3s-1-.4-1.5-.8c-.4-.3-.8-.7-1.2-1.2-.4-.4-.7-.9-1-1.5-1.5.5-1.7-.1-2-.5h0Z"/><g><path class="cls-4" d="m179.3,51.8c.3-.1.6-.2.9-.3.3-.2.6-.3.8-.6.3-.2.5-.5.7-.8s.4-.6.5-1h0c.1-.3.3-.7.4-1.1.1-.4.2-.8.2-1.3h0v-1.4c0-.5-.1-.9-.2-1.4h0c-.1-.5-.2-.9-.4-1.3-.2-.4-.4-.8-.6-1.2-.2-.4-.5-.7-.8-1s-.6-.6-.9-.9h0c-.3-.2-.6-.5-.9-.6-.3-.2-.6-.3-1-.4h0c-.3-.1-.7-.2-1-.2s-.6,0-1,.1h0c-.3.1-.6.2-.9.4-.3.2-.6.3-.8.6h0c-.3.2-.5.5-.7.8s-.4.6-.5,1h0c-.1.3-.3.7-.4,1.1s-.1.8-.2,1.3h0v1.4c0,.5.1.9.2,1.4s.2.9.4,1.3c.2.4.4.8.6,1.2.2.4.5.7.8,1.1s.6.6.9.8h0c.3.2.6.5.9.6.3.2.6.3,1,.4.3.1.6.2,1,.2.4-.1.7-.1,1-.2h0Zm-50.7-13.9c.9-1.8,1.8-3.5,2.6-5.2h0c.4-.9.9-1.9,1.2-2.8s.8-1.8,1.1-2.7c.3-.9.6-1.7.9-2.5.2-.8.4-1.5.6-2.2h0c.1-.7.2-1.3.2-1.8s0-1-.1-1.3-.2-.5-.4-.7c-.2-.1-.5-.2-.9-.2s-.8.1-1.1.3c-.4.2-.7.5-1,1-.4.5-.7,1-1,1.6s-.6,1.3-.8,2.1h0c-.2.8-.4,1.6-.6,2.5-.2.9-.3,1.8-.4,2.9h0c-.1,1-.2,2-.3,3.1-.1,1.1-.1,2.1-.1,3.1,0,.9,0,1.9.1,2.8h0Zm21.1-6.3c-.6-.2-1.2-.4-1.7-.6-.5-.1-1-.3-1.5-.3-.4-.1-.8,0-1.1,0-.3.1-.6.2-.8.4h0c-.2.2-.4.3-.5.4-.2.1-.4.2-.6.2h0c-.2.1-.4.1-.6.1s-.4,0-.6-.1h0c-.2-.1-.4-.3-.4-.6,0-.2,0-.4.1-.6h0c.1-.2.2-.4.4-.6s.4-.4.7-.6h0c.6-.5,1.2-.9,1.8-1.1.6-.3,1.2-.5,1.8-.7h0c.6-.1,1.1-.2,1.6-.2h1.5c.5.1.9.1,1.4.3.4.1.9.3,1.3.5h0c.4.2.7.3,1.1.5.3.2.7.3,1,.5h0c.3.1.6.3.8.4s.5.2.7.3h0c.1,0,.3.1.4,0,.1,0,.2-.1.3-.2h0c.1-.1.2-.2.4-.3.1-.1.3-.1.5-.2.2,0,.3-.1.5-.1h.5c.2.1.4.2.5.4s.1.4.1.6h0c0,.2-.2.4-.4.6-.1.1-.3.3-.6.5-.4.4-.9.7-1.3,1-.4.3-.9.5-1.3.6-.4.1-.8.2-1.2.2h-1.1c-.4,0-.7-.1-1.1-.2-.3-.1-.7-.2-1-.4h0c-.3-.1-.6-.3-.9-.4s-.4-.2-.7-.3h0Zm-110.2,2.8c-.2-.5-.4-.9-.5-1.4-.3-1.2-.5-2.6-.5-4.1,0-1,.1-2,.4-2.9.2-.9.6-1.8,1.1-2.7h0c.5-.8,1-1.6,1.7-2.4.7-.7,1.4-1.4,2.2-2.1.8-.6,1.6-1.2,2.5-1.7-.6-2.9-1.7-5.5-3.1-7.6-2.2-3.2-5.1-5.3-8-5.3-2.4,0-4.5,1.4-5.9,3.6-1.6,2.4-2.5,5.7-2.5,9.4,0,4.7,1.4,9,3.5,12.2,2.2,3.2,5.1,5.2,8.1,5.2.2-.1.6-.2,1-.2h0Zm-8.2,9.6c.7-.5.9-1,.9-1.7,0-.4,0-.9-.2-1.2-.1-.2-.4-.4-.8-.4-.7,0-1.4.2-2,1-.5.6-.9,1.5-1.2,2.9v.8c1.5-.5,2.6-.9,3.3-1.4h0Zm2.1,1.8c-1.3.9-3.2,1.6-5.4,2,.1.9.4,2,1.3,2.8.7.7,1.6,1.1,3.1,1.1.4,0,1,0,1.7-.2.5-.1,1-.2,1.4-.4l.4-.2.8,1.3-.3.3c-.9.7-1.6,1.2-2.5,1.6-.9.4-1.9.6-3.1.6h0c-1.6,0-3.2-.9-4.4-2.2-1.1-1.3-1.9-3-1.9-4.9v-.5c0-2.6.7-4.7,2-6.2s3.1-2.3,5.4-2.3h.1c1.1,0,2.1.3,2.8.9.7.6,1.1,1.5,1.1,2.5-.2,1.7-1.1,2.9-2.5,3.8h0Zm-28.4,8.6c-.4.2-.9.4-1.4.4-.6,0-1.3-.2-1.8-1.2-.3-.6-.5-1.5-.5-2.8v-7.6c0-.9-.1-1.4-.2-1.8-.1-.3-.3-.5-.6-.6l-.5-.3.4-.5c.4-.4.8-.7,1.2-.9s.9-.3,1.4-.4h.1c.3,0,.9.3,1.3,1.1.1.2.2.5.3.9.2-.3.4-.5.7-.8.7-.7,1.7-1.2,2.9-1.2h.2c1,0,2.1.4,2.9,1.2.5.5.9,1,1.2,1.7.5-.7,1-1.4,1.5-1.9.7-.7,1.6-1,2.4-1h.2c1.2,0,2.4.5,3.3,1.6.8.9,1.2,2.1,1.2,3.7v6.8c0,.6.1,1.1.2,1.4.1.2.3.4.6.4l.6.1-.2.6c-.1.3-.6.7-1.1,1-.4.2-.9.4-1.4.4-.8,0-1.4-.4-1.8-1.2-.3-.7-.5-1.6-.5-2.8v-6.7c0-.8-.3-1.6-.6-2.1-.4-.5-.9-.9-1.4-.9s-1,.4-1.4.9c-.6.7-1.1,1.7-1.3,2.5v6.4c0,.6.1,1.1.2,1.4.1.2.3.4.6.4l.7.1-.4.6c-.2.3-.6.7-1.1,1-.4.2-.9.4-1.3.4-.8,0-1.4-.4-1.8-1.2,0-.5-.2-1.5-.2-2.7v-6.8c0-.8-.3-1.6-.6-2.1-.4-.5-.9-.8-1.4-.8h-.1c-.6,0-1.1.4-1.5,1-.7.9-1.1,2.1-1.1,2.7v6.1c0,.6.1,1.1.2,1.4.1.2.3.4.6.4l.6.1-.2.6c-.1.3-.6.7-1.1,1h0Zm84.2-31.1c-.1-.6-.2-1.2-.4-1.7-.3-.9-.8-1.7-1.4-2.4h0c-.3-.3-.6-.7-.9-1h0c-.4-.3-.8-.6-1.2-1h0c-.4-.3-1-.6-1.6-.9-.6-.3-1.2-.6-1.9-.8s-1.5-.5-2.3-.7-1.8-.4-2.7-.6h0c-1-.1-2.1-.3-3.2-.4-1.2-.1-2.4-.1-3.7-.1s-2.6.1-3.8.2c-1.2.1-2.5.3-3.7.5s-2.4.5-3.5.9c-1.1.3-2.2.7-3.2,1.1h0c-.4.2-.8.4-1.2.5v1.6c0,5.1-1.3,9.5-3.7,12.9.4.3.9.6,1.4.9,1.1.7,2.3,1.3,3.8,1.9,1.4.6,3.1,1.2,4.9,1.8,1.8.6,3.9,1.1,6.1,1.6,2,.5,4,1,5.9,1.4,1.9.5,3.7,1,5.4,1.5,1.7.5,3.3,1.1,4.8,1.7,1.5.6,2.8,1.3,4.1,2,1.3.7,2.4,1.5,3.4,2.4s1.8,1.8,2.5,2.9h0c.7,1,1.2,2.2,1.6,3.5.3,1.3.5,2.7.5,4.2s-.2,2.9-.5,4.2-.8,2.5-1.5,3.6c-.7,1.1-1.4,2.1-2.4,3-.9.9-1.9,1.7-3.1,2.4-1.2.7-2.4,1.3-3.8,1.8s-2.8.9-4.4,1.3h0c-1.6.3-3.2.6-4.9.7-1.7.2-3.4.2-5.2.2s-3.6-.1-5.4-.3c-1.8-.2-3.5-.4-5.2-.8-1.7-.3-3.3-.8-4.9-1.2s-3-1-4.3-1.7c-1.4-.6-2.6-1.3-3.7-2.1-1.1-.8-2-1.6-2.9-2.5-.8-.9-1.5-1.9-1.9-2.9s-.6-2.1-.6-3.2c0-.6.1-1.2.2-1.7.2-.5.4-1,.7-1.4s.6-.7,1-1,.8-.5,1.2-.6c.4-.2.9-.2,1.3-.3s.9,0,1.4,0h0c.5.1,1,.2,1.4.3.5.2.9.4,1.3.6h0c.4.2.7.5,1,.9s.5.8.7,1.3.3,1,.3,1.5,0,1-.1,1.5h0c-.1.5-.3,1-.5,1.5s-.5.9-.9,1.4c-.4.5-.9.9-1.4,1.2-.4.2-.8.4-1.2.6.2.2.4.4.6.6.5.4,1.1.8,1.8,1.2h0c.8.4,1.6.8,2.4,1.2s1.8.7,2.8,1h0c1,.3,2,.6,3.1.9s2.1.5,3.2.7c1.1.2,2.2.3,3.2.4,1,.1,2,.1,2.9.1,1.6,0,3.1-.1,4.6-.3,1.5-.2,2.9-.5,4.2-.9,1.4-.4,2.6-.9,3.7-1.5s2.1-1.2,3-1.8h0c.9-.7,1.6-1.4,2.2-2.1.6-.8,1.1-1.6,1.4-2.4.3-.8.4-1.7.4-2.5-.1-.8-.3-1.7-.8-2.6-.4-.9-1.1-1.8-2-2.7s-2-1.8-3.4-2.7-3-1.7-4.9-2.5-4.2-1.5-6.7-2.2-4.7-1.3-6.8-1.9c-1.9-.5-3.9-1.1-6-1.6-1.8-.5-3.5-1-5.1-1.6-.1,0-.3-.1-.4-.1v8.3c0,.6.1,1.1.2,1.4.1.2.3.4.6.4l.6.1-.2.6c-.1.3-.6.7-1.1,1-.4.2-.9.4-1.4.4-.7,0-1.2-.3-1.6-.9h0c-.2-.3-.4-.7-.5-1.2-.5.5-1,.9-1.5,1.3-.7.5-1.3.7-2,.7h-.3c-1.2,0-2.5-.5-3.4-1.5-.8-.8-1.3-2-1.3-3.6v-6.9c0-.7-.1-1.2-.2-1.5-.1-.2-.3-.4-.5-.6l-.5-.3.3-.4c.4-.4.8-.7,1.2-.9.5-.2,1-.3,1.5-.4h.1l.1.1c.4.3.8.7,1.1,1.2.2.5.4,1,.4,1.7v8.1h0c0,.8.2,1.5.6,1.9.4.4,1,.6,1.6.6h.3c.3,0,1-.4,1.5-1,.4-.4.7-1,.7-1.5v-6.7c0-.9-.1-1.4-.2-1.8-.1-.3-.3-.5-.6-.6l-.5-.3h0c-.9-.5-1.7-1-2.5-1.6-.4-.3-.7-.6-1.1-.9-1.7.5-3.5.8-5.4.8-5.1,0-9.7-1.9-12.9-5.4-3-3.3-4.8-8-4.8-14s1.7-10.7,4.8-14c3.4-3,7.8-4.8,13.2-4.8s9.8,1.7,13,5c2.1,2.2,3.6,5.1,4.3,8.7.7-.2,1.4-.4,2.1-.6h0c1.2-.3,2.3-.6,3.5-.8s2.3-.4,3.6-.6c1.2-.1,2.4-.3,3.5-.3,1.2-.1,2.3-.1,3.4-.1,1.6,0,3.2.1,4.6.2,1.5.1,2.9.4,4.2.7h0c1.3.3,2.5.6,3.7,1.1,1.1.4,2.2.9,3.2,1.4h0c1,.5,1.8,1.1,2.6,1.7.8.6,1.4,1.2,2,1.9h0c.6.7,1.1,1.4,1.4,2.2.4.8.6,1.5.7,2.4h0c.1.8.2,1.5.1,2.1,0,.7-.1,1.3-.3,1.9-.2.5-.4,1-.7,1.5-.3.5-.6.9-.9,1.2h0c-.4.4-.8.6-1.2.9-.4.2-.9.5-1.4.6h0c-.5.1-.9.3-1.4.3-.5.1-.9.1-1.4.1-.3,0-.7,0-1-.1s-.7-.2-1-.3c-.3-.1-.6-.3-.8-.5-.3-.2-.5-.4-.7-.6s-.4-.4-.6-.7-.3-.5-.4-.8h0c-.1-.3-.2-.6-.3-.9-.1-.3-.1-.6-.1-.9s0-.6.1-.9.2-.6.3-.9h0c.1-.3.3-.6.4-.8.2-.2.4-.5.6-.7h0c.2-.2.5-.4.8-.6s.6-.3.9-.5.7-.2,1-.3c.4-.1.7-.1,1.1-.1.3,0,.5,0,.8.1s.6.1.8.2h0c.3.1.5.2.8.3.3.1.5.2.7.4h0c.2.2.4.3.6.4h0Zm34.6,27.5c-.2.3-.4.5-.7.8s-.5.6-.8.9h0c-.3.3-.6.6-.9.9-.3.3-.7.6-1,.8h0c-.4.3-.7.5-1.1.7l-1.2.6c-.4.2-.9.3-1.4.4-.5.1-.9.1-1.4.1s-1-.1-1.5-.3-.9-.4-1.4-.8c-.4-.3-.8-.7-1.1-1s-.7-.7-.9-1.1h0c-.3-.4-.5-.8-.7-1.1-.2-.4-.4-.7-.6-1.1h0l-.1-.2-.1.2h0c-.2.3-.4.7-.7,1.1-.3.4-.6.7-.9,1.1-.3.4-.7.8-1.1,1.1s-.8.7-1.3,1-1,.6-1.6.8-1.1.3-1.7.3-1.2-.1-1.7-.2c-.6-.1-1.1-.3-1.5-.6-.5-.2-.9-.5-1.3-.9-.4-.3-.7-.7-1-1.2h0c-.3-.4-.5-.9-.7-1.4s-.3-1-.4-1.6h0c-.1-.5-.1-1.1-.1-1.7s.1-1.2.2-1.8h0c.1-.6.3-1.2.5-1.8s.4-1.2.8-1.8c.3-.6.7-1.2,1.1-1.8s.8-1.2,1.3-1.7h0c.5-.6,1.1-1.1,1.7-1.6s1.2-.8,1.8-1.1,1.2-.5,1.8-.8,1.2-.4,1.8-.5h0c.5-.1,1-.2,1.5-.2h1.4c.4,0,.9.1,1.3.2.4.1.8.2,1.1.2.3.1.6.2.9.3s.5.3.7.4h0c.2.2.4.4.5.6.1.3.1.6-.1.8h0c-.1.2-.3.3-.4.4-.2.1-.4.2-.6.1h0c-.1,0-.2,0-.4-.1-.1,0-.2-.1-.4-.2h0c-.1-.1-.3-.1-.4-.2-.2-.1-.4-.1-.6-.2h0c-.2-.1-.4-.1-.7-.1h-1c-.3,0-.7,0-1,.1s-.7.2-1,.3h0c-.3.2-.7.3-1,.5s-.7.5-1,.7h0c-.3.3-.6.6-.9.9-.3.3-.6.7-.8,1-.2.3-.5.7-.6,1.1-.2.4-.3.8-.4,1.1h0c-.2.6-.3,1.2-.3,1.7-.1.5-.1,1,0,1.4s.1.8.2,1.2.2.7.4,1,.3.6.6.8c.2.2.4.4.6.5h0c.2.2.5.3.7.3.2.1.4.1.6.1.4,0,.7,0,1-.2.3-.1.6-.3.8-.5.3-.2.5-.5.7-.8s.4-.6.6-1h0c.2-.4.3-.8.5-1.2s.3-.8.4-1.3.2-1,.3-1.3c.1-.2.2-.6.3-1.2h0c.1-.4.2-.8.3-1.1.1-.3.2-.7.3-.9h0c.1-.3.3-.6.5-.8s.5-.3.8-.3.6.1.9.3c.2.2.4.4.6.8h0c.2.3.3.6.5,1s.3.8.5,1.2h0c.2.4.3.8.5,1.3s.4,1,.5,1.4c.2.5.4.9.6,1.4.2.4.4.8.6,1.3.2.4.4.8.7,1.1.2.3.5.6.8.9.2.2.5.4.7.5s.5.2.8.2c.2,0,.4,0,.6-.1s.4-.1.6-.2h0l.6-.3c.2-.1.3-.2.5-.4h0c.2-.1.3-.3.5-.5s.3-.4.5-.5h0l1.1-1.3h-.1l.2-.3c-.1-.4-.2-.9-.3-1.3-.2-.7-.3-1.4-.4-2.1h0c-.1-.7-.2-1.5-.3-2.2-.1-.7-.1-1.5-.2-2.2s-.1-1.4-.1-2.1v-2h0c.2-1.8.4-3.6.8-5.3.3-1.7.8-3.2,1.3-4.7.2-.6.4-1.2.7-1.9s.6-1.2.9-1.8c.3-.6.7-1.2,1-1.7.4-.5.8-1.1,1.2-1.5.4-.5.9-.9,1.4-1.3s1-.7,1.6-1h0c.6-.3,1.2-.5,1.8-.7s1.3-.2,2-.2c.8,0,1.4.1,1.9.4.6.3,1,.7,1.2,1.3.2.5.4,1.1.5,1.8.1.6.1,1.4,0,2.1-.1.8-.3,1.6-.5,2.5s-.5,1.8-.9,2.8h0c-.4,1-.7,2-1.1,2.9-.4,1-.9,2-1.3,3h0c-1.1,2.4-2.4,4.9-3.9,7.5-.4.7-.8,1.4-1.2,2.2.1.7.2,1.3.3,1.9.2.9.4,1.7.6,2.5s.5,1.5.7,2.1c.3.6.6,1.1.9,1.6h0c.3.4.6.7.9.9.3.2.6.3,1,.3h.6c.2,0,.4-.1.7-.2h0c.2-.1.4-.2.7-.4s.5-.4.9-.7h0c.3-.2.6-.6.9-1,.3-.3.6-.7.9-1.1,0-.5.1-.9.1-1.4h0c.1-.6.3-1.2.5-1.8s.4-1.2.8-1.8c.3-.6.6-1.2,1.1-1.8.4-.6.9-1.2,1.4-1.7h0c.5-.6,1.1-1.1,1.7-1.6.6-.5,1.2-.8,1.8-1.1s1.2-.5,1.8-.8c.6-.2,1.2-.4,1.8-.5h0c.5-.1,1-.2,1.5-.2h1.4c.4,0,.9.1,1.3.2s.8.2,1.1.2.6.2.9.3c.3.1.5.3.7.4h0c.2.2.4.4.5.6.1.3.1.6-.1.8h0c-.1.2-.3.3-.4.4-.2.1-.4.2-.6.1h0c-.1,0-.2,0-.4-.1-.1,0-.2-.1-.4-.2h0c-.1-.1-.3-.1-.4-.2-.2-.1-.4-.1-.6-.2h0c-.2-.1-.4-.1-.7-.1h-1c-.3,0-.7,0-1,.1s-.7.2-1,.3h0c-.4.2-.7.3-1,.5s-.6.5-1,.7-.6.6-.9.9c-.3.3-.6.7-.8,1s-.5.7-.6,1.1c-.2.4-.3.8-.4,1.1h0c-.2.6-.3,1.2-.4,1.7-.1.5-.1,1,0,1.4h0c.1.4.1.9.2,1.2s.2.7.4,1,.4.6.6.8c.2.2.4.4.6.5h0c.2.2.5.3.7.3.2.1.4.1.6.1.4,0,.7,0,1-.2.3-.1.6-.3.8-.5.3-.2.5-.5.7-.8s.4-.6.6-1h0c.2-.4.4-.8.5-1.2s.3-.8.4-1.3c.1-.5.2-1,.3-1.3,0-.2.1-.6.3-1.2h0c.1-.4.2-.8.3-1.1s.2-.7.3-.9h0c.1-.3.3-.6.5-.8s.5-.3.8-.3.6.1.9.3c.2.2.4.4.6.8h0c.2.3.3.6.5,1s.3.8.5,1.2h0c.2.4.3.8.5,1.3s.4,1,.5,1.4c.2.5.4.9.6,1.4.2.4.4.8.6,1.3.2.4.4.8.7,1.1.2.3.5.6.8.9.2.2.5.4.7.5s.5.2.8.2c.2,0,.4,0,.6-.1s.4-.1.6-.2h0c.2-.1.4-.2.6-.3.2-.1.3-.2.5-.4h0c.2-.1.3-.3.5-.5s.3-.4.5-.5h0l.9-1.2c0-.2-.1-.3-.1-.5-.1-.7-.2-1.3-.2-2s.1-1.4.2-2c.1-.7.3-1.3.6-1.9s.5-1.2.9-1.7c.3-.5.7-1,1.2-1.5.4-.5.9-.9,1.4-1.2s1.1-.7,1.6-1h0c.6-.3,1.2-.5,1.8-.6s1.3-.2,1.9-.2,1.3.1,1.9.2c.6.1,1.2.3,1.8.6h0c.6.3,1.1.6,1.6,1s1,.8,1.4,1.2c.4.5.8,1,1.2,1.5.3.5.6,1.1.9,1.7h0c.3.6.4,1.3.6,1.9.1.7.2,1.3.2,2s-.1,1.4-.2,2-.3,1.3-.6,1.9c-.2.6-.6,1.2-.9,1.7-.4.5-.7,1-1.2,1.5-.4.5-.9.9-1.4,1.2s-1.1.7-1.6,1h0c-.6.3-1.2.5-1.8.6s-1.3.2-1.9.2-1.3-.1-1.9-.2c-.6-.1-1.2-.3-1.8-.6h0c-.6-.3-1.1-.6-1.6-1s-1-.8-1.4-1.2-.8-1-1.2-1.5c-.1-.2-.3-.4-.4-.7-.2.2-.4.5-.6.7-.2.3-.5.6-.8.9h0c-.3.3-.6.6-.9.9-.3.3-.7.6-1,.8h0c-.4.3-.7.5-1.1.7-.4.2-.8.4-1.2.6-.4.2-.9.3-1.4.4-.5.1-.9.1-1.4.1s-1-.1-1.5-.3-.9-.4-1.4-.8c-.4-.3-.8-.7-1.1-1-.3-.4-.6-.7-.9-1.1h0c-.3-.4-.5-.8-.7-1.1-.2-.4-.4-.7-.6-1.1h0l-.1-.2-.1.2h0c-.2.3-.4.7-.7,1.1-.3.4-.6.7-.9,1.1-.4.4-.7.8-1.1,1.1s-.8.7-1.3,1-1,.6-1.6.8-1.1.3-1.7.3-1.2-.1-1.7-.2c-.6-.1-1.1-.3-1.5-.6-.5-.2-.9-.5-1.3-.9-.4-.3-.7-.7-1-1.2h0c-.3-.4-.5-.9-.7-1.4-.1-.1-.1-.2-.1-.4l-.1.1c-.3.4-.7.8-1.2,1.2-.4.4-.9.8-1.4,1.2s-1.1.7-1.6,1.1h0c-.6.3-1.3.6-1.9.8-.7.2-1.4.3-2.1.3-.6,0-1.1-.1-1.7-.3s-1-.4-1.5-.8c-.4-.3-.8-.7-1.2-1.2-.4-.4-.7-.9-1-1.5-1.5.5-1.7-.1-2-.5h0Z"/><g class="cls-5"><rect class="cls-4" width="184.9" height="74.5"/></g></g></g></g><g><path class="cls-4" d="m108.8,86.7c-.4,1.2-.9,1.3-1.2,1.1h.1l-.1-.1c-1.3-1.6-1.7-5.1-1.7-8.3,0-1.7.1-3.4.2-4.6l.3.3c.5.6,1,1.2,1.4,2,.8,1.6,1.2,3.4,1.3,5.2,0,.5.1,1,.1,1.4.1,1.2-.1,2.3-.4,3m-1.4,1.9c.7.4,1.3.3,1.6.1.3-.3.7-.7.9-1.3.3-.9.5-2.2.5-3.5v-1.2c-.1-1.9-.6-3.8-1.5-5.6-.5-.9-1-1.7-1.8-2.4l-.6-.4h1.5c1.4,0,3.5-.1,4.5-.4,1.3-.4,1.2-1.2.6-1s-6.4.4-6.8.3h-.1v-.2c.1-1.9.6-8.1.8-9.4.1-.2-.2-.5-.5-.7s-.6-.2-.6,0c-.3,1.3-.8,7.6-.8,9.5v.6l-.8-.2c-.7-.2-.4.7.3.9l.6.3c-.1,1.3-.2,3.1-.2,4.9-.1,3.8.3,8,2.4,9.7q-.1,0,0,0h0Z"/><g><path id="SVGID-2" class="cls-4" d="m108.8,86.7c-.4,1.2-.9,1.3-1.2,1.1h.1l-.1-.1c-1.3-1.6-1.7-5.1-1.7-8.3,0-1.7.1-3.4.2-4.6l.3.3c.5.6,1,1.2,1.4,2,.8,1.6,1.2,3.4,1.3,5.2,0,.5.1,1,.1,1.4.1,1.2-.1,2.3-.4,3m-1.4,1.9c.7.4,1.3.3,1.6.1.3-.3.7-.7.9-1.3.3-.9.5-2.2.5-3.5v-1.2c-.1-1.9-.6-3.8-1.5-5.6-.5-.9-1-1.7-1.8-2.4l-.6-.4h1.5c1.4,0,3.5-.1,4.5-.4,1.3-.4,1.2-1.2.6-1s-6.4.4-6.8.3h-.1v-.2c.1-1.9.6-8.1.8-9.4.1-.2-.2-.5-.5-.7s-.6-.2-.6,0c-.3,1.3-.8,7.6-.8,9.5v.6l-.8-.2c-.7-.2-.4.7.3.9l.6.3c-.1,1.3-.2,3.1-.2,4.9-.1,3.8.3,8,2.4,9.7q-.1,0,0,0h0Z"/><g><path class="cls-4" d="m108.8,86.7c-.4,1.2-.9,1.3-1.2,1.1h.1l-.1-.1c-1.3-1.6-1.7-5.1-1.7-8.3,0-1.7.1-3.4.2-4.6l.3.3c.5.6,1,1.2,1.4,2,.8,1.6,1.2,3.4,1.3,5.2,0,.5.1,1,.1,1.4.1,1.2-.1,2.3-.4,3m-1.4,1.9c.7.4,1.3.3,1.6.1.3-.3.7-.7.9-1.3.3-.9.5-2.2.5-3.5v-1.2c-.1-1.9-.6-3.8-1.5-5.6-.5-.9-1-1.7-1.8-2.4l-.6-.4h1.5c1.4,0,3.5-.1,4.5-.4,1.3-.4,1.2-1.2.6-1s-6.4.4-6.8.3h-.1v-.2c.1-1.9.6-8.1.8-9.4.1-.2-.2-.5-.5-.7s-.6-.2-.6,0c-.3,1.3-.8,7.6-.8,9.5v.6l-.8-.2c-.7-.2-.4.7.3.9l.6.3c-.1,1.3-.2,3.1-.2,4.9-.1,3.8.3,8,2.4,9.7q-.1,0,0,0h0Z"/><g class="cls-2"><rect class="cls-4" x="103.6" y="62.8" width="10.2" height="26.2"/></g></g></g></g><g><path class="cls-4" d="m113.4,72.9h0c.5.2,1.1.4,1.9.6.5,1.2-.2,3-1.6,3.1-.6,0-1-.3-1.1-1.2-.3-1,.4-2.1.8-2.5m7.9.3c.8-.3,1-.7.1-.6-.3,0-1.5.1-3.1.1-.7,0-1.6,0-2.4-.1-.5-.6-1.2-1-2.1-1.1-.6,0-.9.3-1,.8h-.2c-.7.3-1.6,1.8-1.3,3.2.2.9,1,1.9,2.2,2,1.5.1,2.8-.7,3.1-2.3.1-.5.1-1-.1-1.4,2,0,4.1-.3,4.8-.6h0Z"/><g><path id="SVGID-3" class="cls-4" d="m113.4,72.9h0c.5.2,1.1.4,1.9.6.5,1.2-.2,3-1.6,3.1-.6,0-1-.3-1.1-1.2-.3-1,.4-2.1.8-2.5m7.9.3c.8-.3,1-.7.1-.6-.3,0-1.5.1-3.1.1-.7,0-1.6,0-2.4-.1-.5-.6-1.2-1-2.1-1.1-.6,0-.9.3-1,.8h-.2c-.7.3-1.6,1.8-1.3,3.2.2.9,1,1.9,2.2,2,1.5.1,2.8-.7,3.1-2.3.1-.5.1-1-.1-1.4,2,0,4.1-.3,4.8-.6h0Z"/><g><path class="cls-4" d="m113.4,72.9h0c.5.2,1.1.4,1.9.6.5,1.2-.2,3-1.6,3.1-.6,0-1-.3-1.1-1.2-.3-1,.4-2.1.8-2.5m7.9.3c.8-.3,1-.7.1-.6-.3,0-1.5.1-3.1.1-.7,0-1.6,0-2.4-.1-.5-.6-1.2-1-2.1-1.1-.6,0-.9.3-1,.8h-.2c-.7.3-1.6,1.8-1.3,3.2.2.9,1,1.9,2.2,2,1.5.1,2.8-.7,3.1-2.3.1-.5.1-1-.1-1.4,2,0,4.1-.3,4.8-.6h0Z"/><g class="cls-1"><rect class="cls-4" x="111.2" y="71.4" width="11.2" height="6"/></g></g></g></g><g><path class="cls-4" d="m121,76.8c.1.5,1.2.9,1.2.5.1-.9.1-1.1.2-1.4.8-2.2,3.4-4.2,5-4.1v.3c0,.3.4.4.9-.1.2-.3-.2-.9-1-1.1-1.8-.3-4.1,1.6-4.9,2.6v-1.2c0-.2-.2-.5-.5-.7s-.6-.2-.6.1c-.5,4-.4,4.8-.3,5.1"/><g><path id="SVGID-4" class="cls-4" d="m121,76.8c.1.5,1.2.9,1.2.5.1-.9.1-1.1.2-1.4.8-2.2,3.4-4.2,5-4.1v.3c0,.3.4.4.9-.1.2-.3-.2-.9-1-1.1-1.8-.3-4.1,1.6-4.9,2.6v-1.2c0-.2-.2-.5-.5-.7s-.6-.2-.6.1c-.5,4-.4,4.8-.3,5.1"/><g><path class="cls-4" d="m121,76.8c.1.5,1.2.9,1.2.5.1-.9.1-1.1.2-1.4.8-2.2,3.4-4.2,5-4.1v.3c0,.3.4.4.9-.1.2-.3-.2-.9-1-1.1-1.8-.3-4.1,1.6-4.9,2.6v-1.2c0-.2-.2-.5-.5-.7s-.6-.2-.6.1c-.5,4-.4,4.8-.3,5.1"/><g class="cls-6"><rect class="cls-4" x="120.8" y="70.6" width="7.7" height="7.1"/></g></g></g></g><g><path class="cls-4" d="m134.8,75.8c.1.4.9,1,1.2.8,1.2-1.1,2.1-2.8,3.8-3.8.3,1.2.5,2,.8,2.7.2.3.8.7,1.1.6.9-.6,1.7-1.2,3.1-2.4.1.3.3.6.5,1,.3.4.6.8,1.1,1.1.7.4,1.5.6,2.1.6,1.8,0,3.9-1.6,4.4-2.4.4-.7,0-1-.1-.8-.4.8-3.9,2.3-5,2.3-.4,0-.8-.2-1.2-.4-.6-.6-.8-1.7-1.1-2.3-.2-.3-.8-.7-1.1-.5l-3.1,2.5c-.3-1.1-.3-1.8-.7-2.6-.3-.3-.8-.7-1.1-.6-1.4.7-2.5,2-3.6,3.2,0-1.1.1-1.6.1-2.5.1-.4-1-1.1-1.1-.6-.1.8-.2,1.7-.2,2.8.1.3.1.8.1,1.3"/><g><path id="SVGID-5" class="cls-4" d="m134.8,75.8c.1.4.9,1,1.2.8,1.2-1.1,2.1-2.8,3.8-3.8.3,1.2.5,2,.8,2.7.2.3.8.7,1.1.6.9-.6,1.7-1.2,3.1-2.4.1.3.3.6.5,1,.3.4.6.8,1.1,1.1.7.4,1.5.6,2.1.6,1.8,0,3.9-1.6,4.4-2.4.4-.7,0-1-.1-.8-.4.8-3.9,2.3-5,2.3-.4,0-.8-.2-1.2-.4-.6-.6-.8-1.7-1.1-2.3-.2-.3-.8-.7-1.1-.5l-3.1,2.5c-.3-1.1-.3-1.8-.7-2.6-.3-.3-.8-.7-1.1-.6-1.4.7-2.5,2-3.6,3.2,0-1.1.1-1.6.1-2.5.1-.4-1-1.1-1.1-.6-.1.8-.2,1.7-.2,2.8.1.3.1.8.1,1.3"/><g><path class="cls-4" d="m134.8,75.8c.1.4.9,1,1.2.8,1.2-1.1,2.1-2.8,3.8-3.8.3,1.2.5,2,.8,2.7.2.3.8.7,1.1.6.9-.6,1.7-1.2,3.1-2.4.1.3.3.6.5,1,.3.4.6.8,1.1,1.1.7.4,1.5.6,2.1.6,1.8,0,3.9-1.6,4.4-2.4.4-.7,0-1-.1-.8-.4.8-3.9,2.3-5,2.3-.4,0-.8-.2-1.2-.4-.6-.6-.8-1.7-1.1-2.3-.2-.3-.8-.7-1.1-.5l-3.1,2.5c-.3-1.1-.3-1.8-.7-2.6-.3-.3-.8-.7-1.1-.6-1.4.7-2.5,2-3.6,3.2,0-1.1.1-1.6.1-2.5.1-.4-1-1.1-1.1-.6-.1.8-.2,1.7-.2,2.8.1.3.1.8.1,1.3"/><g class="cls-3"><rect class="cls-4" x="134.8" y="71.1" width="18.5" height="5.8"/></g></g></g></g><g><path class="cls-4" d="m155.1,72.4c.4.3-.6,1.2-1.9,1.8,0-.7,1.2-2.4,1.9-1.8m2.1,5.1c2.2-.1,4.3-1.7,5.2-3.6.4-.9.6-1.6-.2-.9-1.4,1.4-3.6,3.7-6.6,3.7-1.1,0-2.2-1-2.4-1.6,1.1,0,2.5-.8,2.9-1.8.4-.9-.6-1.9-1.6-1.9-1.6.1-2.5,1.5-2.5,2.9,0,.3.1.6.2.9.6,2,3.1,2.3,5,2.3h0Z"/><g><path id="SVGID-6" class="cls-4" d="m155.1,72.4c.4.3-.6,1.2-1.9,1.8,0-.7,1.2-2.4,1.9-1.8m2.1,5.1c2.2-.1,4.3-1.7,5.2-3.6.4-.9.6-1.6-.2-.9-1.4,1.4-3.6,3.7-6.6,3.7-1.1,0-2.2-1-2.4-1.6,1.1,0,2.5-.8,2.9-1.8.4-.9-.6-1.9-1.6-1.9-1.6.1-2.5,1.5-2.5,2.9,0,.3.1.6.2.9.6,2,3.1,2.3,5,2.3h0Z"/><g><path class="cls-4" d="m155.1,72.4c.4.3-.6,1.2-1.9,1.8,0-.7,1.2-2.4,1.9-1.8m2.1,5.1c2.2-.1,4.3-1.7,5.2-3.6.4-.9.6-1.6-.2-.9-1.4,1.4-3.6,3.7-6.6,3.7-1.1,0-2.2-1-2.4-1.6,1.1,0,2.5-.8,2.9-1.8.4-.9-.6-1.9-1.6-1.9-1.6.1-2.5,1.5-2.5,2.9,0,.3.1.6.2.9.6,2,3.1,2.3,5,2.3h0Z"/><g class="cls-7"><rect class="cls-4" x="152.1" y="71.3" width="10.9" height="6.2"/></g></g></g></g><g><path class="cls-4" d="m161.9,76.2c0,.5,1.2.8,1.1.4v-.7c.6-1.3,3.1-2.9,5.4-3.2-.1.4-.1.7-.1,1.1,0,.6.1,1.1.4,1.6.6.8,1.6,1.2,2.5,1.2,2.2,0,4.3-1.7,5.1-2.7.5-.6.4-1.3.2-1.2-1,.5-3.8,3.1-5.8,3.1-.4,0-.8-.1-1.1-.3-.4-.6-.1-1.8-.1-2.4,0-.5-.6-1.1-1.2-1.1-1.8-.2-4.1,1-5.2,1.8l.1-1.1c0-.2-.3-.5-.5-.6-.3-.1-.6-.1-.6.1l-.3,3.2c.1.2.1.6.1.8"/><path id="SVGID-7" class="cls-4" d="m161.9,76.2c0,.5,1.2.8,1.1.4v-.7c.6-1.3,3.1-2.9,5.4-3.2-.1.4-.1.7-.1,1.1,0,.6.1,1.1.4,1.6.6.8,1.6,1.2,2.5,1.2,2.2,0,4.3-1.7,5.1-2.7.5-.6.4-1.3.2-1.2-1,.5-3.8,3.1-5.8,3.1-.4,0-.8-.1-1.1-.3-.4-.6-.1-1.8-.1-2.4,0-.5-.6-1.1-1.2-1.1-1.8-.2-4.1,1-5.2,1.8l.1-1.1c0-.2-.3-.5-.5-.6-.3-.1-.6-.1-.6.1l-.3,3.2c.1.2.1.6.1.8"/></g></svg>