<?xml version="1.0" encoding="UTF-8"?><svg id="Layer_1" xmlns="http://www.w3.org/2000/svg" viewBox="0 0 421.26 164.77"><defs><style>.cls-1{fill:#e4c653;}</style></defs><path class="cls-1" d="M45.57,101.01v6.7c0,1.71-.11,3.43,1.78,4.41,.81,.42,.8,1.17,.28,1.82-1.33,1.66-3,2.94-5.21,2.85-2.21-.09-3.52-1.57-4.21-3.58-.52-1.53-.74-3.11-.73-4.74,.03-4.37,0-8.75,0-13.12,0-.8,.06-1.63-.08-2.4-.39-2.08-1.08-4.16-3.35-4.74-2.24-.58-3.33,1.36-4.4,2.85-1.21,1.69-1.85,3.61-1.79,5.77,.09,3.75,.02,7.5,.03,11.25,0,1.65,.12,3.26,2,4,.94,.37,.87,1.02,.4,1.71-1.35,1.99-3.27,3.13-5.65,3-2.2-.12-3.47-1.65-4.16-3.65-.81-2.33-.69-4.75-.69-7.16,0-3.75,.01-7.5-.01-11.25,0-.89,.02-1.82-.25-2.65-.58-1.81-1.33-3.64-3.51-3.98-2.32-.36-3.27,1.35-4.21,3.04-1.26,2.25-1.7,4.65-1.62,7.21,.09,3.03,0,6.07,.02,9.11,.01,1.88-.08,3.75,2.15,4.74,1.25,.55,.55,1.57-.07,2.19-1.56,1.56-3.39,2.73-5.71,2.37-2.26-.35-3.12-2.18-3.78-4.1-.73-2.15-.7-4.39-.7-6.62,.02-4.91,0-9.82,0-14.73,0-1.64-.08-3.24-1.55-4.35-.9-.68-.56-1.31,.04-2.02,2.43-2.86,6.16-3.06,8.7-.3,.8,.87,1.21,.54,1.97,.03,5.52-3.72,10.07-3.18,14.35,1.87,1.3,1.53,1.88,.61,2.63-.31,2.67-3.29,5.91-4.79,10.15-3.35,4.01,1.36,6.95,5.54,7.13,10.4,.1,2.59,.02,5.18,.02,7.77h0l.02-.04Z"/><path class="cls-1" d="M327.29,70.8c-3.51,.02-6.26-1.6-9.12-2.8-1.82-.76-3.65-1.42-5.55-1.94-2.38-.65-4.57-.51-6.61,1-.49,.36-1.1,.6-1.69,.8-1.18,.4-2.35,.38-3.11-.78-.73-1.11-.13-2.12,.61-2.91,2.77-2.95,6.26-4.69,10.16-5.63,5.37-1.29,10.23,.35,14.9,2.83,2.39,1.27,4.67,2.53,7.53,1.02,1.01-.53,2.58-.51,3.35,.82,.84,1.46-.38,2.3-1.24,3.17-2.61,2.64-5.7,4.26-9.21,4.41h-.02Z"/><path class="cls-1" d="M288.37,155.11c1.43,.23,2.17-.8,3.09-1.42,.79-.53,1.49-1.7,2.5-1.13,1.25,.7-.81,1.61-.05,2.67,2.13-.55,3.76-1.73,4.75-3.76,1.42-2.9,3.66-5.03,6.28-6.82,.59-.4,1.27-.95,1.93-.37,.77,.68,.38,1.54-.18,2.14-.78,.85-1.66,1.61-2.57,2.32-.91,.72-2,1.24-2.81,2.04-1.08,1.07-2.39,2.65-1.2,3.91,1.05,1.11,2.4-.43,3.35-1.27,1.35-1.19,2.73-2.32,4.35-3.09,2.05-.97,2.88-.43,2.87,1.74,0,.94-.8,2.17,.18,2.76,1.14,.69,2.12-.53,3.14-.97,.71-.31,1.37-.75,2.23-.85-1.44,1.6-3.2,2.72-5.3,3.3-.74,.2-1.59-.06-1.9-.7-.95-2-1.94-1.37-3.5-.59-2.41,1.19-5.08,2.11-7.64,.14-.79-.6-1.34-.06-1.93,.27-1.61,.88-3.21,1.6-5.06,.6-.71-.38-1.38,.03-2.07,.23-.95,.27-2,.64-2.73-.3-.69-.88,.13-1.66,.46-2.46,.09-.21,.05-.48,.11-1.35-1.93,1.89-3.48,3.45-5.07,4.96-.61,.58-1.25,1.72-2.18,1.04-1.02-.75,.04-1.59,.46-2.3,.66-1.12,1.49-2.15,1.72-3.43-.84-.44-1.38-.04-1.63,.32-1.95,2.81-5.39,2.06-7.97,3.37-1.15,.58-2.46,.02-2.78-1.31-.47-1.97-1.19-.94-2.18-.5-4.47,1.95-8.37,5.08-13.22,6.23-2.03,.48-3.93,.16-5.75-.61-2.45-1.04-3.33-3.09-3.11-5.66,.57-6.78,9.07-15.76,15.86-16.82,1.73-.27,2.99,.24,3.7,1.86,.22,.51,.2,1.1-.31,1.46-.61,.43-.97-.02-1.26-.5-.91-1.52-2.22-1.34-3.51-.73-6.4,3.03-10.7,7.94-12.65,14.75-.76,2.65,.91,4.57,3.86,4.89,5.43,.6,9.33-2.42,13.08-5.67,1.5-1.3,3.01-2.52,4.8-3.37,.76-.36,1.54-.54,2.27,.03,.76,.59,.65,1.38,.46,2.2-.19,.82-.91,1.82,.06,2.45,.86,.56,1.67-.3,2.46-.65,.41-.18,.95-.36,1.12-.7,1.43-2.79,4.43-1.64,6.55-2.66,.49-.23,1.33-.11,1.44,.37,.65,3.04,1.94,.94,3.03,.44,.32-.15,.63-.34,.96-.47,.84-.34,1.76-.74,2.47,.11,.65,.77,.06,1.5-.37,2.18-.27,.44-.77,.78-.63,1.66l.02,.02Z"/><path class="cls-1" d="M325.67,143.53c1.92-4.92,13.42-9.77,17.19-7.88,2.25,1.13,3.2,3.03,2.67,5.55-.2,.93-.45,1.85-.83,3.39,2.32-1.65,3.6-3.57,5.54-4.64,1.01-.56,1.96-1.28,3.03-1.68,3.3-1.25,5.49,.43,5.3,3.96-.23,4.28-3.03,8.03-7.13,9.48-1.77,.63-3.59,1.08-5.49,1.15-.8,.03-1.63,.32-1.02,1.27,1.85,2.86,4.15,5.35,6.89,7.41,.44,.33,1.03-.37,1.64,.39-2.79,1.23-4.52-.69-6.14-2.05-1.83-1.53-3.32-3.48-4.88-5.31-1.39-1.63-1.07-2.47,.99-2.85,1.93-.35,3.89-.57,5.79-1.03,4.18-1.02,6.96-4.19,7.55-8.42,.32-2.31-.74-3.26-2.95-2.51-2.86,.97-5.04,3.01-7.21,5-3.69,3.39-6.82,7.29-9.88,11.25-.83,1.08-1.96,3.38-3.24,2.36-1.39-1.1,.85-2.28,1.61-3.32,2.68-3.67,5.94-6.93,7.83-11.15,.91-2.04,2.17-4.44,.59-6.32-1.57-1.87-4.03-.59-6.05-.07-2.7,.7-5.11,2.11-7.5,3.5-1.21,.71-2.42,1.42-4.29,2.52h-.01Z"/><path class="cls-1" d="M296.53,149.74c-.31,.8-.73,1.6-1.73,1.75-.55,.08-.8-.35-.65-.86,.26-.87,.71-1.66,1.71-1.8,.55-.08,.76,.32,.66,.9h.01Z"/><path class="cls-1" d="M385.1,149.84c-.34,.76-.72,1.58-1.7,1.73-.54,.08-.79-.33-.63-.84,.27-.84,.67-1.65,1.67-1.78,.53-.07,.75,.31,.65,.89h.01Z"/><path class="cls-1" d="M193.13,100.15c-6.26-5.73-13.68-9.32-21.57-12.09-13.17-4.63-26.94-7.07-40.34-10.86-7.32-2.07-14.44-4.7-20.97-8.69-1.14-.69-2.77-1.18-1.54-3.21,4.81-7.94,6.85-16.62,6.54-25.85-.07-2.19,.69-3.39,2.8-4.2,17.33-6.69,35-7.45,52.82-2.66,6.79,1.83,13.07,5.03,16.4,11.9,.56,1.15,1.82,2.6,.82,3.64-.88,.91-2.22-.55-3.4-.79-.26-.05-.49-.21-.75-.28-4.24-1.06-8.01-.18-11.09,2.94-3.04,3.08-3.73,7.07-1.98,10.87,1.86,4.05,5.16,6.07,9.55,6.19,10.29,.28,17.27-7.92,15.54-18.06-1.48-8.65-7.09-13.95-14.35-17.89-10.59-5.75-22.19-7.21-33.96-7.23-10.02-.01-19.93,1.39-29.61,4.12-3.52,.99-3.47,.94-4.47-2.46-1.96-6.65-5.25-12.54-10.72-16.93C92.85,.56,81.34-1.42,69.01,.92c-11.39,2.16-19.95,8.26-25.07,18.91-4.89,10.18-5.4,20.87-3.42,31.67,3.68,20.16,18.84,32.31,39.24,30.89,5.9-.41,11.13-1.03,15.63,3.46,.31,.31,.73,.51,1.12,.73,1.45,.85,2.08,2.15,2.08,3.8,0,5,.07,10-.02,15-.06,3.02-2.51,5.57-5.07,5.59-2.71,.02-4.26-1.7-4.43-5.27-.14-2.94-.03-5.89-.03-8.84h-.03c0-1.97,.02-3.93,0-5.9-.02-1.34,.02-2.69-.19-4-.32-1.95-1.27-3.65-3.29-4.19-2.27-.61-4.19,.41-5.83,1.95-.63,.6-1.04,1.43-.25,2.1,1.7,1.43,1.47,3.33,1.47,5.19,0,4.47-.1,8.94,.04,13.4,.13,4.19,1.37,7.97,5.35,10.16,3.97,2.19,7.71,1.7,11.16-1.23,.87-.74,1.66-1.11,2.66,.16,2.33,2.96,5.33,3.1,7.97,.47,.96-.96,2.3-2.15-.06-3.24-.97-.45-1.28-1.51-1.28-2.51-.04-5.36-.05-10.72-.04-16.08,0-1.43,.67-1.89,2.08-1.41,2.37,.79,4.77,1.51,7.17,2.2,12.62,3.61,25.42,6.59,37.86,10.81,8.84,3,17.25,6.83,23.89,13.79,6.56,6.88,6.66,15.11,.06,21.88-6.25,6.41-14.23,9.5-22.72,11.2-15.06,3.01-29.66,.67-43.9-4.6-3.28-1.21-6.37-2.81-9.27-4.77-1.52-1.03-2.55-2.06-.07-3.42,1.36-.75,2.54-1.99,3.54-3.22,4.96-6.13,3.54-16.05-5.49-18.36-7.67-1.97-14.49,2.86-14.37,10.6,.07,4.58,1.73,8.67,4.83,12.19,4.79,5.45,10.82,9.09,17.46,11.61,21.58,8.22,43.66,9.51,65.99,3.65,8.98-2.36,16.81-6.91,22.47-14.62,7.88-10.73,8.65-29.76-3.1-40.51h-.02ZM95.64,37.78c-3.18,2.15-6.09,4.58-8.56,7.6-6.02,7.38-7.26,15.65-5.01,24.67,.81,3.26,.46,3.61-2.87,3.02-5.76-1.01-10.23-4.06-13.56-8.76-9.64-13.6-11.7-28.28-5.64-43.85,2.62-6.74,8.48-11.06,14.25-11.17,6.06,.45,10.74,3.63,14.56,8.28,3.97,4.83,6.57,10.35,8.18,16.39,.47,1.76,.14,2.82-1.36,3.83h.01Z"/><path class="cls-1" d="M390.95,89.53c-4.87-12.88-20.02-17.91-30.78-10.1-6.48,4.7-9.47,11.21-9.08,19.87,1.08,3.29-.69,6.11-3.66,8.37-3.58,2.73-6.52,2.26-9.13-1.44-2.33-3.31-3.79-7.07-5.19-10.84-.99-2.68-1.86-5.43-3.54-7.78-1.94-2.71-4.61-2.41-5.95,.63-1.23,2.79-1.8,5.79-2.55,8.73-.76,2.96-1.75,5.82-3.72,8.24-2.98,3.67-7.3,3.24-9.56-.96-3.39-6.28-.73-15.74,5.63-20.5,4.35-3.26,9-3.5,13.95-1.82,1.45,.49,2.95,.74,3.64-1.02,.63-1.63-.39-2.78-1.77-3.44-1.19-.58-2.48-1.06-3.77-1.33-16.2-3.37-29.62,8.16-32.63,22.95-.79,3.86-2.61,6.54-5.59,8.7-3.84,2.77-7.01,2.05-9.27-2.14-1.93-3.57-2.87-7.48-3.73-11.42-.63-2.88-.15-5.42,1.34-7.95,5.57-9.49,10.37-19.36,14.19-29.69,1.77-4.78,3.17-9.69,2.9-14.89-.28-5.38-3.43-8.53-8.48-8.3-4.31,.2-8.19,1.71-11.49,4.56-4.07,3.51-6.95,7.86-9.02,12.79-6.46,15.39-7.56,31.24-4.2,47.49,.91,4.39-.55,7.69-4.38,10.04-2.94,1.8-5.65,1.39-7.86-1.27-1.73-2.08-2.84-4.53-3.88-7-1.67-3.94-2.87-8.08-4.96-11.85-.73-1.32-1.56-2.42-3.26-2.34-1.65,.08-2.58,1.15-3.17,2.52-.46,1.06-.74,2.19-1.07,3.31-.85,2.91-1.61,5.85-2.54,8.74-.71,2.23-1.78,4.28-3.6,5.86-2.25,1.95-4.51,2.01-6.71,.02-3.35-3.02-3.69-6.87-3.07-11.05,1.01-6.83,7.96-15.51,16.96-14.24,1.62,.23,3.1,.81,4.66,1.2,1.05,.26,2,.07,2.6-.87,.68-1.04,.4-2.06-.37-2.95-.91-1.07-2.16-1.57-3.46-1.92-21.65-5.8-37.45,15.7-34.16,31.45,1.76,8.45,9.57,13.38,17.51,10.94,4.43-1.36,7.6-4.54,10.32-8.19,1.88-2.52,1.91-2.49,3.57,.04,.59,.9,1.16,1.81,1.8,2.67,4.61,6.24,10.48,7.64,17.4,4.16,3.23-1.62,5.98-3.86,8.46-6.49,2.17-2.31,2.22-2.27,3.72,.49,4.14,7.58,11.26,9.86,19.08,6.21,3.04-1.42,5.73-3.33,8.12-5.6,1.71-1.63,2.4-1.3,3.5,.62,1.89,3.3,4.78,5.4,8.6,6.29,6.9,1.59,11.74-1.74,15.88-6.56,3.38-3.94,3.25-4.02,6.13,0,.72,1.01,1.59,1.93,2.47,2.81,4.51,4.56,8.69,5.36,14.57,2.76,3.65-1.61,6.8-3.97,9.42-6.95,1.45-1.64,2.19-1.87,3.72,.09,4.66,5.93,10.84,9.26,18.47,8.09,14.04-2.15,22.06-16.45,17.03-29.76l-.04,.02Zm-113.48-43.89c.86-2.08,2.26-3.86,4.17-5.11,2.11-1.39,3.98-.58,4.7,1.85,.59,2,.03,3.92-.41,5.8-2.5,10.77-7.47,20.52-12.71,30.22-.69-11.21-.13-22.25,4.25-32.75h0Zm107.59,60.73c-2.48,3.62-6.72,4.67-10.61,2.61-7.54-3.99-10.72-15.97-6.15-23.19,3.35-5.31,9.96-5.66,14.33-.77,3.14,3.52,4.86,7.99,4.88,13.56-.08,2.24-.66,5.18-2.45,7.78h0Z"/><path class="cls-1" d="M76.85,110.17c-.74-1.36-1.59-1.65-3.05-1.21-1.69,.51-3.47,.74-4.49,.95-4.09-.08-6.83-1.27-8.66-4.19-1.68-2.67-1.31-3.65,1.72-4.53,4.14-1.2,8.15-2.62,11.11-6.03,3.73-4.3,2.1-10.94-3.22-12.33-4.44-1.16-8.76-.44-12.46,2.29-4.47,3.3-6.02,8.09-6.58,13.47-.71,6.84,2.14,13.28,7.85,16.6,4.9,2.85,11.24,2.02,16.72-2.19,.95-.73,1.85-1.36,1.05-2.84h.01Zm-16.46-18.65c.56-1.75,1.52-3.22,3.22-4.08,2.4-1.22,4.36,0,4.29,3-.4,2.13-2,3.6-4.2,4.37-1.25,.43-2.7,1.99-3.84,.74-.99-1.08,.12-2.7,.55-4.03h-.02Z"/><path class="cls-1" d="M419.42,150.22c.19-.3,.31-.75-.09-.93-.28-.12-.76-.1-1,.07-1.17,.82-2.25,1.76-3.42,2.56-1.84,1.26-3.41,3.08-5.92,3.13-.21-.99,.32-1.29,.9-1.58,.91-.45,2.53-.77,1.7-2.08-.84-1.32-2.07-.17-2.96,.51-.56,.43-.93,1.1-1.48,1.54-1.39,1.1-2.64,2.49-4.99,2.68,1.03-1.48,1.86-2.61,2.62-3.79,.33-.52,.64-1.21-.06-1.65-.55-.34-1,.17-1.38,.53-1.52,1.44-3.02,2.9-5.13,3.8,.08-1.81,1.88-2.51,2.12-4.16-1.85-.29-2.48,1.49-3.79,1.86-1.39,.4-2.7,1.19-4.18,1.16-.31-1.37,1.5-2.49,.12-3.42-1.22-.82-2.63-.26-3.76,.53-1.24,.87-2.36,1.89-3.54,2.84-.84,.68-1.59,1.64-2.83,1.3-.32-1.03,1.07-1.77,.31-2.38-.92-.75-1.52,.49-2.25,.87-1.11,.59-1.98,1.75-3.54,1.55,1.24-3.31,1.14-3.22-.72-5.35-1.23-1.4-1.93-.94-2.09,.45-.22,1.87-1.38,2.89-2.77,3.68-1.28,.72-2.83,2.96-4.01,1.41-1.12-1.47,.82-3.21,2.12-4.39,1.58-1.44,3.6-2.33,5.01-4,.62-.73,1.71-1.53,.88-2.49-.98-1.15-1.92,0-2.74,.6-.86,.64-1.9,1.2-2.45,2.06-2.34,3.7-7.09,3.32-9.79,6.56-.65-1.44,.07-2.98-1.5-3.38-1.64-.42-2.41,.78-3.21,1.88-.37,.5-.8,.97-1.12,1.5-.52,.86-.99,1.83-.21,2.72,.85,.98,2.01,.52,2.64-.11,2.08-2.09,5.13,.16,7.2-1.76,.26-.24,.68,.07,.83,.44,1.4,3.34,3.44,1.79,5.43,.73,1.65-.88,2.95-2.4,5.01-3.05-1.04,2.74-1.11,3-.5,3.47,1.01,.77,2.03,.26,3.05-.07,.33-.11,.74-.27,1.04-.18,3.57,1.08,6.9-.07,10.35-1.21-.6,1.3-1.69,1.8-2.64,2.43-1.5,1-2.87,2.14-3.88,3.65-.78,1.17-1.99,2.68-.45,3.75,1.29,.89,2.44-.64,3.24-1.62,1.53-1.86,2.89-3.85,4.31-5.8,1.39-1.89,3.8-3.29,5.46-2.38,1.62,.89,2.57,2.18,4.43,.81,.09-.07,.57,.13,.6,.26,.58,3.14,2.78,1.67,3.79,.9,2.42-1.84,5.34,.77,7.61-1.22,.28-.24,.44,.37,.64,.66,1.59,2.35,2.72,2.42,4.3,.05,1.07-1.61,2.08-3.12,4.53-3.36-2.04-.1-3.06-.6-1.82-2.58h-.02Zm-63.31,5.26c-.09,.03-.24-.13-.36-.2,.09-.12,.19-.25,.28-.37,.13,.07,.25,.15,.37,.22-.09,.12-.17,.3-.29,.34h0Zm1.89-2.03c-.51,.13-.54-.35-.46-.69,.07-.31,.23-.8,.44-.85,.46-.11,.48,.36,.53,.88-.12,.16-.27,.59-.51,.65h0Zm26.47,8c-.12,.19-.41,.28-.93,.6,.3-1,.76-1.66,1.15-1.52,.73,.27-.04,.64-.22,.92Zm30.77-6.19c-.15,.28-.43,.49-.67,.75-.16-.16-.34-.33-.33-.35,.2-.26,.38-.57,.65-.73,.28-.17,.51,.03,.34,.34h.01Zm.42-2.17l-.14-.18c.12-.08,.23-.16,.35-.23,.01,0,.09,.11,.13,.17-.12,.08-.23,.16-.35,.24h.01Z"/><path class="cls-1" d="M232.12,154.38c-.77,.44-1.47,1.27-2.7,.66,.32-.5,.56-.86,.77-1.24,.43-.76,1.35-1.67,.74-2.39-.78-.91-2.32-.96-2.99-2.29-.13-.25-1.07,.74-1.05,1.49,.02,1.01-.38,1.71-1.23,2.2-.66,.37-1.13,.74-1.59-.41-1.1-2.78-1.42-2.8-3.79-.76-1.27,1.1-2.37,1.68-3.83,0-1.67-1.93-5.82-1.45-7.08,.78-1.3,2.31-3.03,4.14-4.97,5.88-1.32,1.18-2.75,2.32-3.52,3.99-.34,.73-.73,1.63,.02,2.23,.81,.65,1.51-.11,2.09-.62,2.18-1.9,3.71-4.33,5.29-6.71,1.51-2.28,3.61-3.76,6.39-5.12-.45,1.5-1.46,1.76-2.22,2.28-.51,.35-1.2,.72-.9,1.45,.39,.94,1.21,.44,1.87,.29,1.28-.29,2.15-1.2,3.12-1.99,.51-.41,1.39-1.3,1.55,.42,.25,2.68,.89,3.03,3.25,1.79,2.26-1.19,4.47-2.47,6.75-3.74,.39,1.05-.38,1.51-.54,2.17-.28,1.16,.24,1.81,1.34,1.75,2.54-.13,4.32-1.62,5.89-3.4-1,.24-1.8,.79-2.64,1.27l-.02,.02Zm-11.64,1.07c-.28,.08-.5-.05-.42-.37,.03-.12,.23-.26,.35-.26s.23,.18,.35,.28c-.09,.13-.16,.33-.27,.36h-.01Zm2.32-2.93c-.05,.31-.25,.6-.36,.84-.51,0-.59-.28-.54-.53,.07-.33,.16-.81,.38-.91,.48-.21,.57,.26,.52,.6h0Z"/></svg>