<?xml version="1.0" encoding="UTF-8"?><svg id="Layer_2" xmlns="http://www.w3.org/2000/svg" width="78.86" height="30.85" viewBox="0 0 78.86 30.85"><defs><style>.cls-1{fill:#fff;}</style></defs><g id="Layer_1-2"><g><path class="cls-1" d="M8.86,20.99c-.35-.18-.33-.51-.33-.83v-1.25h0s0,0,0,0c0-.48,.01-.97,0-1.45-.03-.91-.58-1.69-1.33-1.95-.79-.27-1.4,.01-1.9,.63-.14,.17-.25,.34-.49,.06-.8-.95-1.65-1.05-2.69-.35-.14,.1-.22,.16-.37,0-.48-.52-1.17-.48-1.63,.06-.11,.13-.18,.25,0,.38,.28,.21,.29,.51,.29,.81,0,.92,0,1.84,0,2.76,0,.42,0,.84,.13,1.24,.12,.36,.28,.7,.71,.77,.43,.07,.78-.15,1.07-.44,.12-.12,.25-.31,.01-.41-.42-.19-.4-.54-.4-.89,0-.57,.01-1.14,0-1.71-.01-.48,.07-.93,.3-1.35,.18-.32,.35-.64,.79-.57,.41,.06,.55,.41,.66,.75,.05,.16,.05,.33,.05,.5,0,.7,0,1.4,0,2.11,0,.45-.02,.9,.13,1.34,.13,.37,.37,.66,.78,.68,.45,.02,.8-.19,1.06-.56,.09-.13,.1-.25-.07-.32-.35-.14-.37-.44-.37-.75,0-.7,.01-1.4,0-2.11-.01-.4,.11-.76,.34-1.08,.2-.28,.4-.64,.82-.53,.42,.11,.55,.5,.63,.89,.03,.14,.01,.3,.01,.45,0,.82,0,1.64,0,2.46,0,.31,.04,.6,.14,.89,.13,.38,.37,.65,.79,.67s.73-.22,.98-.53c.1-.12,.1-.26-.05-.34Z"/><path class="cls-1" d="M56.97,12.7c.11-.04,.22-.08,.32-.15,.38-.28,.79-.31,1.24-.19,.36,.1,.7,.22,1.04,.36,.54,.22,1.05,.53,1.71,.52h0c.66-.03,1.24-.33,1.72-.83,.16-.16,.39-.32,.23-.59-.14-.25-.44-.25-.63-.15-.54,.28-.96,.05-1.41-.19-.87-.46-1.78-.77-2.79-.53-.73,.18-1.38,.5-1.9,1.05-.14,.15-.25,.34-.11,.54,.14,.22,.36,.22,.58,.15Z"/><path class="cls-1" d="M58.19,28.98c-.18-.11-.03-.34-.03-.52,0-.41-.15-.51-.54-.33-.3,.14-.56,.36-.81,.58-.18,.16-.43,.45-.63,.24-.22-.24,.02-.53,.22-.73,.15-.15,.36-.25,.53-.38,.17-.13,.34-.28,.48-.43,.1-.11,.18-.27,.03-.4-.12-.11-.25,0-.36,.07-.49,.34-.91,.73-1.18,1.28-.19,.38-.49,.6-.89,.7-.14-.2,.24-.37,0-.5-.19-.11-.32,.11-.47,.21-.17,.12-.31,.31-.58,.27h0c-.03-.17,.07-.23,.12-.31,.08-.13,.19-.26,.07-.41-.13-.16-.31-.08-.46-.02-.06,.02-.12,.06-.18,.09-.2,.09-.45,.49-.57-.08-.02-.09-.18-.11-.27-.07-.4,.19-.96-.02-1.23,.5-.03,.06-.13,.1-.21,.13-.15,.07-.3,.23-.46,.12-.18-.12-.05-.31-.01-.46,.04-.15,.06-.3-.09-.41-.14-.11-.28-.07-.42,0-.34,.16-.62,.39-.9,.63-.7,.61-1.43,1.17-2.45,1.06-.55-.06-.86-.42-.72-.92,.37-1.27,1.17-2.19,2.37-2.76,.24-.11,.49-.15,.66,.14,.05,.09,.12,.17,.24,.09,.1-.07,.1-.18,.06-.27-.13-.3-.37-.4-.69-.35-1.27,.2-2.86,1.88-2.97,3.15-.04,.48,.12,.86,.58,1.06,.34,.14,.7,.2,1.08,.11,.91-.22,1.64-.8,2.47-1.17,.19-.08,.32-.28,.41,.09,.06,.25,.31,.35,.52,.25,.48-.25,1.13-.1,1.49-.63,.05-.07,.15-.14,.31-.06-.04,.24-.2,.43-.32,.64-.08,.13-.28,.29-.09,.43,.17,.13,.29-.09,.41-.19,.3-.28,.59-.57,.95-.93-.01,.16,0,.21-.02,.25-.06,.15-.22,.3-.09,.46,.14,.18,.33,.11,.51,.06,.13-.04,.25-.11,.39-.04,.35,.19,.65,.05,.95-.11,.11-.06,.21-.16,.36-.05,.48,.37,.98,.2,1.43-.03,.29-.15,.48-.26,.66,.11,.06,.12,.22,.17,.36,.13,.39-.11,.72-.32,.99-.62-.16,.02-.28,.1-.42,.16-.19,.08-.37,.31-.59,.18Z"/><path class="cls-1" d="M65.86,30.24c-.51-.39-.94-.85-1.29-1.39-.11-.18,.04-.23,.19-.24,.36-.01,.7-.1,1.03-.22,.77-.27,1.29-.97,1.33-1.77,.04-.66-.37-.98-.99-.74-.2,.07-.38,.21-.57,.31-.36,.2-.6,.56-1.04,.87,.07-.29,.12-.46,.16-.63,.1-.47-.08-.83-.5-1.04-.71-.35-2.86,.55-3.22,1.48h0c.35-.21,.58-.34,.8-.47,.45-.26,.9-.52,1.4-.66,.38-.1,.84-.34,1.13,.01,.3,.35,.06,.8-.11,1.18-.35,.79-.96,1.4-1.47,2.09-.14,.19-.56,.42-.3,.62,.24,.19,.45-.24,.61-.44,.57-.74,1.16-1.47,1.85-2.11,.41-.37,.81-.75,1.35-.94,.41-.14,.61,.04,.55,.47-.11,.79-.63,1.39-1.41,1.58-.36,.09-.72,.13-1.08,.19-.39,.07-.45,.23-.19,.53,.29,.34,.57,.71,.91,.99,.3,.25,.63,.61,1.15,.38-.11-.14-.22-.01-.31-.07Z"/><path class="cls-1" d="M55.51,28.03h0c.02-.11-.02-.19-.12-.17-.19,.03-.27,.17-.32,.34-.03,.1,.02,.18,.12,.16,.19-.03,.27-.18,.32-.33Z"/><path class="cls-1" d="M71.97,27.88c-.19,.02-.26,.18-.31,.33-.03,.1,.02,.17,.12,.16,.18-.03,.25-.18,.32-.32h0c.02-.11-.02-.18-.12-.17Z"/><path class="cls-1" d="M36.16,18.75h0c-1.17-1.07-2.56-1.75-4.04-2.27-2.47-.87-5.04-1.32-7.55-2.03-1.37-.39-2.7-.88-3.93-1.63-.21-.13-.52-.22-.29-.6,.9-1.49,1.28-3.11,1.22-4.84-.01-.41,.13-.63,.52-.79,3.24-1.25,6.55-1.39,9.89-.5,1.27,.34,2.45,.94,3.07,2.23,.1,.22,.34,.49,.15,.68-.16,.17-.42-.1-.64-.15-.05,0-.09-.04-.14-.05-.79-.2-1.5-.03-2.08,.55-.57,.58-.7,1.32-.37,2.03,.35,.76,.97,1.14,1.79,1.16,1.93,.05,3.23-1.48,2.91-3.38-.28-1.62-1.33-2.61-2.69-3.35-1.98-1.08-4.15-1.35-6.36-1.35-1.88,0-3.73,.26-5.54,.77-.66,.19-.65,.18-.84-.46-.37-1.24-.98-2.35-2.01-3.17C17.38,.1,15.23-.27,12.92,.17c-2.13,.4-3.73,1.55-4.69,3.54-.92,1.91-1.01,3.91-.64,5.93,.69,3.77,3.53,6.05,7.35,5.78,1.1-.08,2.08-.19,2.93,.65,.06,.06,.14,.1,.21,.14,.27,.16,.39,.4,.39,.71,0,.94,.01,1.87,0,2.81-.01,.57-.47,1.04-.95,1.05-.51,0-.8-.32-.83-.99-.03-.55,0-1.1,0-1.65h0c0-.37,0-.74,0-1.1,0-.25,0-.5-.04-.75-.06-.37-.24-.68-.62-.78-.42-.11-.78,.08-1.09,.37-.12,.11-.19,.27-.05,.39,.32,.27,.28,.62,.28,.97,0,.84-.02,1.67,0,2.51,.02,.78,.26,1.49,1,1.9,.74,.41,1.44,.32,2.09-.23,.16-.14,.31-.21,.5,.03,.44,.55,1,.58,1.49,.09,.18-.18,.43-.4-.01-.61-.18-.08-.24-.28-.24-.47,0-1,0-2.01,0-3.01,0-.27,.13-.35,.39-.26,.44,.15,.89,.28,1.34,.41,2.36,.68,4.76,1.23,7.09,2.02,1.65,.56,3.23,1.28,4.47,2.58,1.23,1.29,1.25,2.83,.01,4.1-1.17,1.2-2.66,1.78-4.25,2.1-2.82,.56-5.55,.13-8.22-.86-.61-.23-1.19-.53-1.74-.89-.28-.19-.48-.39-.01-.64,.25-.14,.48-.37,.66-.6,.93-1.15,.66-3-1.03-3.44-1.44-.37-2.71,.54-2.69,1.98,.01,.86,.32,1.62,.9,2.28,.9,1.02,2.03,1.7,3.27,2.17,4.04,1.54,8.17,1.78,12.35,.68,1.68-.44,3.15-1.29,4.21-2.74,1.48-2.01,1.62-5.57-.58-7.58ZM17.9,7.07h0c-.6,.4-1.14,.86-1.6,1.42-1.13,1.38-1.36,2.93-.94,4.62,.15,.61,.09,.68-.54,.57-1.08-.19-1.92-.76-2.54-1.64-1.8-2.55-2.19-5.29-1.06-8.21,.49-1.26,1.59-2.07,2.67-2.09,1.13,.08,2.01,.68,2.73,1.55,.74,.9,1.23,1.94,1.53,3.07,.09,.33,.03,.53-.25,.72Z"/><path class="cls-1" d="M64.09,22.1c.68-.3,1.27-.74,1.76-1.3,.27-.31,.41-.35,.7,.02,.87,1.11,2.03,1.73,3.46,1.51,2.63-.4,4.13-3.08,3.19-5.57h0c-.91-2.41-3.75-3.35-5.76-1.89-1.21,.88-1.77,2.1-1.7,3.72,.2,.62-.13,1.14-.69,1.57-.67,.51-1.22,.42-1.71-.27-.44-.62-.71-1.32-.97-2.03-.19-.5-.35-1.02-.66-1.46-.36-.51-.86-.45-1.11,.12-.23,.52-.34,1.08-.48,1.63-.14,.55-.33,1.09-.7,1.54-.56,.69-1.37,.61-1.79-.18-.63-1.18-.14-2.95,1.05-3.84,.81-.61,1.68-.66,2.61-.34,.27,.09,.55,.14,.68-.19,.12-.31-.07-.52-.33-.64-.22-.11-.46-.2-.71-.25-3.03-.63-5.54,1.53-6.11,4.3-.15,.72-.49,1.22-1.05,1.63-.72,.52-1.31,.38-1.74-.4-.36-.67-.54-1.4-.7-2.14-.12-.54-.03-1.01,.25-1.49,1.04-1.78,1.94-3.62,2.66-5.56,.33-.89,.59-1.81,.54-2.79-.05-1.01-.64-1.6-1.59-1.55-.81,.04-1.53,.32-2.15,.85-.76,.66-1.3,1.47-1.69,2.39-1.21,2.88-1.42,5.85-.79,8.89,.17,.82-.1,1.44-.82,1.88-.55,.34-1.06,.26-1.47-.24-.32-.39-.53-.85-.73-1.31-.31-.74-.54-1.51-.93-2.22-.14-.25-.29-.45-.61-.44-.31,.01-.48,.22-.59,.47-.09,.2-.14,.41-.2,.62-.16,.54-.3,1.1-.48,1.64-.13,.42-.33,.8-.67,1.1-.42,.37-.84,.38-1.26,0-.63-.57-.69-1.29-.57-2.07,.19-1.28,1.49-2.9,3.17-2.67,.3,.04,.58,.15,.87,.22,.2,.05,.37,.01,.49-.16,.13-.19,.07-.39-.07-.55-.17-.2-.4-.29-.65-.36-4.05-1.09-7.01,2.94-6.39,5.89,.33,1.58,1.79,2.5,3.28,2.05,.83-.25,1.42-.85,1.93-1.53,.35-.47,.36-.47,.67,0,.11,.17,.22,.34,.34,.5,.86,1.17,1.96,1.43,3.26,.78,.6-.3,1.12-.72,1.58-1.21,.41-.43,.42-.42,.7,.09,.78,1.42,2.11,1.85,3.57,1.16,.57-.27,1.07-.62,1.52-1.05,.32-.31,.45-.24,.66,.12,.35,.62,.89,1.01,1.61,1.18,1.29,.3,2.2-.33,2.97-1.23,.63-.74,.61-.75,1.15,0,.13,.19,.3,.36,.46,.53,.84,.85,1.63,1,2.73,.52Zm4.86-6.04c.63-.99,1.86-1.06,2.68-.14,.59,.66,.91,1.5,.91,2.54-.01,.42-.12,.97-.46,1.46h0c-.46,.68-1.26,.88-1.99,.49-1.41-.75-2.01-2.99-1.15-4.34Zm-17-7.52h0c.16-.39,.42-.72,.78-.96,.39-.26,.75-.11,.88,.35,.11,.37,0,.73-.08,1.09-.47,2.02-1.4,3.84-2.38,5.66-.13-2.1-.02-4.17,.8-6.13Z"/><path class="cls-1" d="M14.39,20.62c-.14-.25-.3-.31-.57-.23-.32,.1-.65,.14-.84,.18-.77-.01-1.28-.24-1.62-.78-.31-.5-.25-.68,.32-.85,.78-.22,1.53-.49,2.08-1.13,.7-.8,.39-2.05-.6-2.31-.83-.22-1.64-.08-2.33,.43-.84,.62-1.13,1.51-1.23,2.52-.13,1.28,.4,2.49,1.47,3.11,.92,.53,2.1,.38,3.13-.41,.18-.14,.35-.25,.2-.53h0Zm-3.08-3.49c.1-.33,.28-.6,.6-.76,.45-.23,.82,0,.8,.56-.07,.4-.37,.67-.79,.82-.23,.08-.51,.37-.72,.14-.19-.2,.02-.51,.1-.75h0Z"/><path class="cls-1" d="M78.52,28.12h0c.04-.06,.06-.14-.02-.17-.05-.02-.14-.02-.19,.01-.22,.15-.42,.33-.64,.48-.34,.24-.64,.58-1.11,.59-.04-.19,.06-.24,.17-.3,.17-.08,.47-.14,.32-.39-.16-.25-.39-.03-.55,.1-.1,.08-.17,.21-.28,.29-.26,.21-.49,.47-.93,.5,.19-.28,.35-.49,.49-.71,.06-.1,.12-.23-.01-.31-.1-.06-.19,.03-.26,.1-.28,.27-.57,.54-.96,.71,.01-.34,.35-.47,.4-.78-.35-.05-.46,.28-.71,.35-.26,.07-.51,.22-.78,.22-.06-.26,.28-.47,.02-.64-.23-.15-.49-.05-.7,.1-.23,.16-.44,.35-.66,.53-.16,.13-.3,.31-.53,.24-.06-.19,.2-.33,.06-.45-.17-.14-.28,.09-.42,.16-.21,.11-.37,.33-.66,.29,.23-.62,.21-.6-.13-1-.23-.26-.36-.18-.39,.08-.04,.35-.26,.54-.52,.69-.24,.13-.53,.55-.75,.26-.21-.28,.15-.6,.4-.82,.3-.27,.67-.44,.94-.75,.12-.14,.32-.29,.16-.47-.18-.22-.36,0-.51,.11-.16,.12-.36,.22-.46,.39-.44,.69-1.33,.62-1.83,1.23-.12-.27,.01-.56-.28-.63-.31-.08-.45,.15-.6,.35-.07,.09-.15,.18-.21,.28-.1,.16-.19,.34-.04,.51,.16,.18,.38,.1,.49-.02,.39-.39,.96,.03,1.35-.33,.05-.04,.13,.01,.16,.08,.26,.63,.64,.34,1.02,.14,.31-.16,.55-.45,.94-.57-.19,.51-.21,.56-.09,.65,.19,.14,.38,.05,.57-.01,.06-.02,.14-.05,.19-.03,.67,.2,1.29-.01,1.94-.23-.11,.24-.32,.34-.49,.45-.28,.19-.54,.4-.73,.68-.15,.22-.37,.5-.08,.7,.24,.17,.46-.12,.61-.3,.29-.35,.54-.72,.81-1.09,.26-.35,.71-.62,1.02-.45,.3,.17,.48,.41,.83,.15,.02-.01,.11,.02,.11,.05,.11,.59,.52,.31,.71,.17,.45-.34,1,.14,1.42-.23,.05-.04,.08,.07,.12,.12,.3,.44,.51,.45,.81,0,.2-.3,.39-.58,.85-.63-.38-.02-.57-.11-.34-.48Zm-11.86,.98h0s-.04-.02-.07-.04c.02-.02,.04-.05,.05-.07,.02,.01,.05,.03,.07,.04-.02,.02-.03,.06-.05,.06Zm.35-.38h0c-.1,.03-.1-.06-.09-.13,.01-.06,.04-.15,.08-.16,.09-.02,.09,.07,.1,.16-.02,.03-.05,.11-.1,.12Zm4.96,1.5s-.08,.05-.17,.11c.06-.19,.14-.31,.22-.28,.14,.05,0,.12-.04,.17Zm5.63-1.02s-.06-.06-.06-.07c.04-.05,.07-.11,.12-.14,.05-.03,.1,0,.06,.06h0c-.03,.05-.08,.09-.13,.14Zm.2-.55l-.03-.03s.04-.03,.07-.04c0,0,.02,.02,.02,.03-.02,.01-.04,.03-.06,.04Z"/><path class="cls-1" d="M43.45,28.9c-.14,.08-.28,.24-.51,.12,.06-.09,.1-.16,.14-.23,.08-.14,.25-.31,.14-.45-.15-.17-.43-.18-.56-.43-.02-.05-.2,.14-.2,.28,0,.19-.07,.32-.23,.41-.12,.07-.21,.14-.3-.08-.21-.52-.27-.52-.71-.14-.24,.21-.44,.31-.72,0-.31-.36-1.09-.27-1.33,.15-.24,.43-.57,.78-.93,1.1-.25,.22-.51,.43-.66,.75-.06,.14-.14,.31,0,.42,.15,.12,.28-.02,.39-.12,.41-.36,.69-.81,.99-1.26,.28-.43,.68-.7,1.2-.96-.08,.28-.27,.33-.42,.43-.1,.07-.22,.13-.17,.27,.07,.18,.23,.08,.35,.05,.24-.05,.4-.22,.58-.37,.1-.08,.26-.24,.29,.08,.05,.5,.17,.57,.61,.34,.42-.22,.84-.46,1.26-.7,.07,.2-.07,.28-.1,.41-.05,.22,.04,.34,.25,.33,.48-.02,.81-.3,1.1-.64-.19,.04-.34,.15-.49,.24h0Zm-2.18,.21h0c-.05,.01-.09-.01-.08-.07,0-.02,.04-.05,.07-.05s.04,.03,.07,.05c-.02,.02-.03,.06-.05,.07Zm.37-.39c-.1,0-.11-.05-.1-.1,.01-.06,.03-.15,.07-.17,.09-.04,.11,.05,.1,.11,0,.06-.05,.11-.07,.16Z"/></g></g></svg>