<?xml version="1.0" encoding="UTF-8"?><svg id="Layer_1" xmlns="http://www.w3.org/2000/svg" viewBox="0 0 196.66 76.84"><defs><style>.cls-1{fill:#e4c66a;}</style></defs><path class="cls-1" d="m21.26,47.14v3.1c0,.8-.1,1.6.8,2.1.4.2.4.5.1.9-.6.8-1.4,1.4-2.4,1.3-1,0-1.6-.7-2-1.7-.2-.7-.3-1.5-.3-2.2v-7.2c-.2-1-.5-1.9-1.6-2.2-1-.3-1.6.6-2.1,1.3-.6.8-.9,1.7-.8,2.7v5.3c0,.8.1,1.5.9,1.9.4.2.4.5.2.8-.6.9-1.5,1.5-2.6,1.4-1-.1-1.6-.8-1.9-1.7-.4-1.1-.3-2.2-.3-3.3v-5.3c0-.4,0-.9-.1-1.2-.3-.8-.6-1.7-1.6-1.9-1.1-.2-1.5.6-2,1.4-.6,1.1-.8,2.2-.8,3.4v4.3c0,.9,0,1.8,1,2.2.6.3.3.7,0,1-.8.6-1.6,1.2-2.7,1-1.1-.2-1.5-1-1.8-1.9-.3-1-.3-2.1-.3-3.1v-6.9c0-.8,0-1.5-.7-2-.4-.3-.3-.6,0-.9,1.1-1.3,2.9-1.4,4.1-.1.4.4.6.3.9,0,2.6-1.7,4.7-1.5,6.7.9.6.7.9.3,1.2-.1,1.2-1.5,2.8-2.2,4.7-1.6,1.9.6,3.2,2.6,3.3,4.9.1,1,.1,2.3.1,3.4h0Z"/><path class="cls-1" d="m152.86,33.04c-1.6,0-2.9-.7-4.3-1.3-.9-.4-1.7-.7-2.6-.9-1.1-.3-2.1-.2-3.1.5-.2.2-.5.3-.8.4-.6.2-1.1.2-1.5-.4-.3-.5-.1-1,.3-1.4,1.3-1.4,2.9-2.2,4.7-2.6,2.5-.6,4.8.2,7,1.3,1.1.6,2.2,1.2,3.5.5.5-.2,1.2-.2,1.6.4.4.7-.2,1.1-.6,1.5-1.1,1.2-2.5,2-4.2,2h0Z"/><path class="cls-1" d="m134.76,72.44c.7.1,1-.4,1.4-.7.4-.2.7-.8,1.2-.5.6.3-.4.8,0,1.2,1-.3,1.8-.8,2.2-1.8.7-1.4,1.7-2.4,2.9-3.2.3-.2.6-.4.9-.2.4.3.2.7-.1,1-.4.4-.8.8-1.2,1.1-.4.3-.9.6-1.3,1-.5.5-1.1,1.2-.6,1.8.5.5,1.1-.2,1.6-.6.6-.6,1.3-1.1,2-1.4,1-.5,1.3-.2,1.3.8,0,.4-.4,1,.1,1.3s1-.2,1.5-.5c.3-.1.6-.4,1-.4-.7.7-1.5,1.3-2.5,1.5-.3.1-.7,0-.9-.3-.4-.9-.9-.6-1.6-.3-1.1.6-2.4,1-3.6.1-.4-.3-.6,0-.9.1-.8.4-1.5.7-2.4.3-.3-.2-.6,0-1,.1s-.9.3-1.3-.1c-.3-.4.1-.8.2-1.1,0-.1,0-.2.1-.6-.9.9-1.6,1.6-2.4,2.3-.3.3-.6.8-1,.5-.5-.4,0-.7.2-1.1.3-.5.7-1,.8-1.6-.4-.2-.6,0-.8.1-.9,1.3-2.5,1-3.7,1.6-.5.3-1.1,0-1.3-.6-.2-.9-.6-.4-1-.2-2.1.9-3.9,2.4-6.2,2.9-.9.2-1.8.1-2.7-.3-1.1-.5-1.6-1.4-1.5-2.6.3-3.2,4.2-7.4,7.4-7.9.8-.1,1.4.1,1.7.9.1.2.1.5-.1.7-.3.2-.5,0-.6-.2-.4-.7-1-.6-1.6-.3-3,1.4-5,3.7-5.9,6.9-.4,1.2.4,2.1,1.8,2.3,2.5.3,4.4-1.1,6.1-2.6.7-.6,1.4-1.2,2.2-1.6.4-.2.7-.3,1.1,0s.3.6.2,1c-.1.4-.4.9,0,1.1.4.3.8-.1,1.1-.3.2-.1.4-.2.5-.3.7-1.3,2.1-.8,3.1-1.2.2-.1.6-.1.7.2.3,1.4.9.4,1.4.2.1-.1.3-.2.4-.2.4-.2.8-.3,1.2.1.3.4,0,.7-.2,1,.2.1,0,.2.1.6h0Z"/><path class="cls-1" d="m152.16,67.04c.9-2.3,6.3-4.6,8-3.7,1.1.5,1.5,1.4,1.2,2.6-.1.4-.2.9-.4,1.6,1.1-.8,1.7-1.7,2.6-2.2.5-.3.9-.6,1.4-.8,1.5-.6,2.6.2,2.5,1.9-.1,2-1.4,3.8-3.3,4.4-.8.3-1.7.5-2.6.5-.4,0-.8.1-.5.6.9,1.3,1.9,2.5,3.2,3.5.2.2.5-.2.8.2-1.3.6-2.1-.3-2.9-1-.9-.7-1.6-1.6-2.3-2.5-.6-.8-.5-1.2.5-1.3.9-.2,1.8-.3,2.7-.5,2-.5,3.3-2,3.5-3.9.1-1.1-.3-1.5-1.4-1.2-1.3.5-2.4,1.4-3.4,2.3-1.7,1.6-3.2,3.4-4.6,5.3-.4.5-.9,1.6-1.5,1.1s.4-1.1.8-1.6c1.3-1.7,2.8-3.2,3.7-5.2.4-1,1-2.1.3-3s-1.9-.3-2.8,0c-1.3.3-2.4,1-3.5,1.6-.6.5-1.1.8-2,1.3h0Z"/><path class="cls-1" d="m138.56,69.94c-.1.4-.3.7-.8.8-.3,0-.4-.2-.3-.4.1-.4.3-.8.8-.8.2,0,.3.1.3.4h0Z"/><path class="cls-1" d="m179.96,70.04c-.2.4-.3.7-.8.8-.3,0-.4-.2-.3-.4.1-.4.3-.8.8-.8.2-.1.3.1.3.4h0Z"/><path class="cls-1" d="m90.26,46.74c-2.9-2.7-6.4-4.4-10.1-5.6-6.2-2.2-12.6-3.3-18.9-5.1-3.4-1-6.7-2.2-9.8-4.1-.5-.3-1.3-.6-.7-1.5,2.2-3.7,3.2-7.8,3.1-12.1,0-1,.3-1.6,1.3-2,8.1-3.1,16.4-3.5,24.7-1.2,3.2.9,6.1,2.4,7.7,5.6.3.5.9,1.2.4,1.7-.4.4-1-.3-1.6-.4-.1,0-.2-.1-.4-.1-2-.5-3.7-.1-5.2,1.4-1.4,1.4-1.7,3.3-.9,5.1.9,1.9,2.4,2.8,4.5,2.9,4.8.1,8.1-3.7,7.3-8.4-.7-4-3.3-6.5-6.7-8.4-4.9-2.7-10.4-3.4-15.9-3.4-4.7,0-9.3.6-13.8,1.9-1.6.5-1.6.4-2.1-1.1-.9-3.1-2.5-5.9-5-7.9C43.46.24,38.06-.66,32.36.44c-5.3,1-9.3,3.9-11.7,8.8-2.3,4.8-2.5,9.8-1.6,14.8,1.7,9.4,8.8,15.1,18.3,14.4,2.8-.2,5.2-.5,7.3,1.6.1.1.3.2.5.3.7.4,1,1,1,1.8v7c0,1.4-1.2,2.6-2.4,2.6-1.3,0-2-.8-2.1-2.5-.1-1.4,0-2.8,0-4.1h0v-2.8c0-.6,0-1.3-.1-1.9-.1-.9-.6-1.7-1.5-2-1.1-.3-2,.2-2.7.9-.3.3-.5.7-.1,1,.8.7.7,1.6.7,2.4v6.3c.1,2,.6,3.7,2.5,4.7s3.6.8,5.2-.6c.4-.3.8-.5,1.2.1,1.1,1.4,2.5,1.4,3.7.2.4-.4,1.1-1,0-1.5-.5-.2-.6-.7-.6-1.2v-7.5c0-.7.3-.9,1-.7,1.1.4,2.2.7,3.4,1,5.9,1.7,11.9,3.1,17.7,5.1,4.1,1.4,8.1,3.2,11.2,6.4s3.1,7.1,0,10.2c-2.9,3-6.6,4.4-10.6,5.2-7,1.4-13.9.3-20.5-2.1-1.5-.6-3-1.3-4.3-2.2-.7-.5-1.2-1,0-1.6.6-.4,1.2-.9,1.7-1.5,2.3-2.9,1.7-7.5-2.6-8.6-3.6-.9-6.8,1.3-6.7,5,0,2.1.8,4.1,2.3,5.7,2.2,2.5,5.1,4.2,8.2,5.4,10.1,3.8,20.4,4.4,30.8,1.7,4.2-1.1,7.9-3.2,10.5-6.8,3.3-4.7,3.7-13.6-1.8-18.7h0Zm-45.6-29.1c-1.5,1-2.8,2.1-4,3.6-2.8,3.4-3.4,7.3-2.3,11.5.4,1.5.2,1.7-1.3,1.4-2.7-.5-4.8-1.9-6.3-4.1-4.6-6.4-5.6-13.2-2.8-20.5,1.2-3.1,4-5.2,6.7-5.2,2.8.2,5,1.7,6.8,3.9,1.9,2.3,3.1,4.8,3.8,7.7.2.7.1,1.2-.6,1.7h0Z"/><path class="cls-1" d="m182.66,41.84c-2.3-6-9.4-8.4-14.4-4.7-3,2.2-4.4,5.2-4.2,9.3.5,1.5-.3,2.9-1.7,3.9-1.7,1.3-3,1.1-4.3-.7-1.1-1.5-1.8-3.3-2.4-5.1-.5-1.3-.9-2.5-1.7-3.6-.9-1.3-2.2-1.1-2.8.3-.6,1.3-.8,2.7-1.2,4.1-.4,1.4-.8,2.7-1.7,3.9-1.4,1.7-3.4,1.5-4.5-.4-1.6-2.9-.3-7.4,2.6-9.6,2-1.5,4.2-1.6,6.5-.9.7.2,1.4.3,1.7-.5s-.2-1.3-.8-1.6-1.2-.5-1.8-.6c-7.6-1.6-13.8,3.8-15.2,10.7-.4,1.8-1.2,3.1-2.6,4.1-1.8,1.3-3.3,1-4.3-1-.9-1.7-1.3-3.5-1.7-5.3-.3-1.3-.1-2.5.6-3.7,2.6-4.4,4.8-9,6.6-13.9.8-2.2,1.5-4.5,1.4-7s-1.6-4-4-3.9c-2,.1-3.8.8-5.4,2.1-1.9,1.6-3.2,3.7-4.2,6-3,7.2-3.5,14.6-2,22.2.4,2.1-.3,3.6-2,4.7-1.4.8-2.6.6-3.7-.6-.8-1-1.3-2.1-1.8-3.3-.8-1.8-1.3-3.8-2.3-5.5-.3-.6-.7-1.1-1.5-1.1s-1.2.5-1.5,1.2c-.2.5-.3,1-.5,1.5-.4,1.4-.8,2.7-1.2,4.1-.3,1-.8,2-1.7,2.7-1.1.9-2.1.9-3.1,0-1.6-1.4-1.7-3.2-1.4-5.2.5-3.2,3.7-7.2,7.9-6.7.8.1,1.4.4,2.2.6.5.1.9,0,1.2-.4.3-.5.2-1-.2-1.4-.4-.5-1-.7-1.6-.9-10.1-2.7-17.5,7.3-16,14.7.8,3.9,4.5,6.3,8.2,5.1,2.1-.6,3.6-2.1,4.8-3.8.6-.8,1.17-.8,1.7,0,.3.4.5.8.8,1.2,2.2,2.9,4.9,3.6,8.1,1.9,1.5-.8,2.8-1.8,4-3,.67-.73,1.23-.67,1.7.2,1.9,3.5,5.3,4.6,8.9,2.9,1.4-.7,2.7-1.6,3.8-2.6.8-.8,1.1-.6,1.6.3.9,1.5,2.2,2.5,4,2.9,3.2.7,5.5-.8,7.4-3.1,1.6-1.8,1.5-1.9,2.9,0,.3.5.7.9,1.2,1.3,2.1,2.1,4.1,2.5,6.8,1.3,1.7-.8,3.2-1.9,4.4-3.2.7-.8,1-.9,1.7,0,2.2,2.8,5.1,4.3,8.6,3.8,6.7-.8,10.5-7.5,8.1-13.7h0Zm-53-20.5c.4-1,1.1-1.8,1.9-2.4,1-.6,1.9-.3,2.2.9.3.9,0,1.8-.2,2.7-1.2,5-3.5,9.6-5.9,14.1-.3-5.3-.1-10.4,2-15.3h0Zm50.2,28.4c-1.2,1.7-3.1,2.2-5,1.2-3.5-1.9-5-7.5-2.9-10.8,1.6-2.5,4.7-2.6,6.7-.4,1.5,1.6,2.3,3.7,2.3,6.3.1,1.1-.2,2.4-1.1,3.7h0Z"/><path class="cls-1" d="m35.86,51.44c-.3-.6-.7-.8-1.4-.6-.8.2-1.6.3-2.1.4-1.9,0-3.2-.6-4-2-.8-1.2-.6-1.7.8-2.1,1.9-.6,3.8-1.2,5.2-2.8,1.7-2,1-5.1-1.5-5.8-2.1-.5-4.1-.2-5.8,1.1-2.1,1.5-2.8,3.8-3.1,6.3-.3,3.2,1,6.2,3.7,7.8,2.3,1.3,5.3.9,7.8-1,.4-.3.8-.6.4-1.3h0Zm-7.7-8.7c.3-.8.7-1.5,1.5-1.9,1.1-.6,2,0,2,1.4-.2,1-.9,1.7-2,2-.6.2-1.3.9-1.8.3-.4-.4.1-1.2.3-1.8h0Z"/><path class="cls-1" d="m195.96,70.14c.1-.1.1-.4,0-.4-.1-.1-.4,0-.5,0-.5.4-1.1.8-1.6,1.2-.9.6-1.6,1.4-2.8,1.5-.1-.5.1-.6.4-.7.4-.2,1.2-.4.8-1s-1-.1-1.4.2c-.3.2-.4.5-.7.7-.6.5-1.2,1.2-2.3,1.3.5-.7.9-1.2,1.2-1.8.2-.2.3-.6,0-.8-.3-.2-.5.1-.6.2-.7.7-1.4,1.4-2.4,1.8,0-.8.9-1.2,1-1.9-.9-.1-1.2.7-1.8.9-.6.2-1.3.6-2,.5-.1-.6.7-1.2.1-1.6-.6-.4-1.2-.1-1.8.2-.6.4-1.1.9-1.7,1.3-.4.3-.7.8-1.3.6-.1-.5.5-.8.1-1.1-.4-.4-.7.2-1.1.4-.5.3-.9.8-1.7.7.6-1.5.5-1.5-.3-2.5-.6-.7-.9-.4-1,.2-.1.9-.6,1.4-1.3,1.7-.6.3-1.3,1.4-1.9.7-.5-.7.4-1.5,1-2.1.7-.7,1.7-1.1,2.3-1.9.3-.3.8-.7.4-1.2-.5-.5-.9,0-1.3.3-.4.3-.9.6-1.1,1-1.1,1.7-3.3,1.6-4.6,3.1-.3-.7,0-1.4-.7-1.6-.8-.2-1.1.4-1.5.9-.2.2-.4.5-.5.7-.2.4-.5.9-.1,1.3.4.5.9.2,1.2-.1,1-1,2.4.1,3.4-.8.1-.1.3,0,.4.2.7,1.6,1.6.8,2.5.3.8-.4,1.4-1.1,2.3-1.4-.5,1.3-.5,1.4-.2,1.6.5.4.9.1,1.4,0,.2-.1.3-.1.5-.1,1.7.5,3.2,0,4.8-.6-.3.6-.8.8-1.2,1.1-.7.5-1.3,1-1.8,1.7-.4.5-.9,1.3-.2,1.8.6.4,1.1-.3,1.5-.8.7-.9,1.4-1.8,2-2.7.6-.9,1.8-1.5,2.6-1.1s1.2,1,2.1.4l.3.1c.3,1.5,1.3.8,1.8.4,1.1-.9,2.5.4,3.6-.6.1-.1.2.2.3.3.7,1.1,1.3,1.1,2,0,.5-.8,1-1.5,2.1-1.6-.8.3-1.3.1-.7-.9h0Zm-29.6,2.5s-.1-.1-.2-.1c0-.1.1-.1.1-.2.1,0,.1.1.2.1,0,.1,0,.2-.1.2h0Zm.9-.9c-.2.1-.3-.2-.2-.3,0-.1.1-.4.2-.4.2-.1.2.2.2.4,0,0-.1.2-.2.3h0Zm12.4,3.7c-.1.1-.2.1-.4.3.1-.5.4-.8.5-.7.3.1,0,.3-.1.4Zm14.3-2.9c-.1.1-.2.2-.3.4-.1-.1-.2-.2-.2-.2.1-.1.2-.3.3-.3.2-.1.3,0,.2.1h0Zm.2-1h0c0-.1,0-.2.1-.2,0,0,0,.1.1.1-.07,0-.13.03-.2.1h0Z"/><path class="cls-1" d="m108.46,72.14c-.4.2-.7.6-1.3.3.1-.2.3-.4.4-.6.2-.4.6-.8.3-1.1-.4-.4-1.1-.4-1.4-1.1-.1-.1-.5.3-.5.7,0,.5-.2.8-.6,1-.3.2-.5.3-.7-.2-.5-1.3-.7-1.3-1.8-.4-.6.5-1.1.8-1.8,0-.8-.9-2.7-.7-3.3.4-.6,1.1-1.4,1.9-2.3,2.7-.6.6-1.3,1.1-1.6,1.9-.2.3-.3.8,0,1,.4.3.7-.1,1-.3,1-.9,1.7-2,2.5-3.1.7-1.1,1.7-1.8,3-2.4-.2.7-.7.8-1,1.1-.2.2-.6.3-.4.7.2.4.6.2.9.1.6-.1,1-.6,1.5-.9.2-.2.6-.6.7.2.1,1.3.4,1.4,1.5.8s2.1-1.2,3.2-1.7c.2.5-.2.7-.3,1-.1.5.1.8.6.8,1.2-.1,2-.8,2.8-1.6-.7.2-1,.5-1.4.7h0Zm-5.5.5c-.1,0-.2,0-.2-.2,0-.1.1-.1.2-.1s.1.1.2.1c-.1.1-.1.2-.2.2h0Zm1.1-1.4c0,.1-.1.3-.2.4-.2,0-.3-.1-.3-.2,0-.2.1-.4.2-.4.3-.2.3.1.3.2h0Z"/></svg>