<?xml version="1.0" encoding="UTF-8"?><svg id="Layer_1" xmlns="http://www.w3.org/2000/svg" xmlns:xlink="http://www.w3.org/1999/xlink" viewBox="0 0 199.85 238.22"><defs><style>.cls-1{fill:url(#linear-gradient-2);}.cls-2{fill:url(#linear-gradient-3);}.cls-3{fill:url(#linear-gradient);}</style><linearGradient id="linear-gradient" x1="-82.15" y1="39.5" x2="189.68" y2="39.5" gradientUnits="userSpaceOnUse"><stop offset=".14" stop-color="#fff" stop-opacity="0"/><stop offset=".19" stop-color="#fefefd" stop-opacity=".01"/><stop offset=".22" stop-color="#fefdf9" stop-opacity=".05"/><stop offset=".24" stop-color="#fdfcf2" stop-opacity=".11"/><stop offset=".27" stop-color="#fcfae8" stop-opacity=".2"/><stop offset=".29" stop-color="#faf7db" stop-opacity=".31"/><stop offset=".31" stop-color="#f8f3ca" stop-opacity=".45"/><stop offset=".33" stop-color="#f5efb7" stop-opacity=".61"/><stop offset=".35" stop-color="#f2eaa2" stop-opacity=".8"/><stop offset=".36" stop-color="#f0e68b"/><stop offset=".4" stop-color="#f4ed9c"/><stop offset=".48" stop-color="#ffffc8"/><stop offset=".53" stop-color="#f0e9a4"/><stop offset=".62" stop-color="#d3bd59"/><stop offset=".72" stop-color="#fae37f"/><stop offset=".84" stop-color="#c7a356"/><stop offset=".93" stop-color="#f0e68b"/><stop offset="1" stop-color="#fcf2b1"/></linearGradient><linearGradient id="linear-gradient-2" x1="3.23" y1="132.56" x2="199.85" y2="132.56" xlink:href="#linear-gradient"/><linearGradient id="linear-gradient-3" x1="0" y1="128.83" x2="167.01" y2="128.83" xlink:href="#linear-gradient"/></defs><path class="cls-3" d="M189.23,47.67c-2.57-14.99-12.29-24.18-24.88-31.01-18.36-9.97-38.47-12.49-58.88-12.53-17.38-.02-34.55,2.41-51.34,7.14-6.1,1.72-6.02,1.63-7.75-4.26-.71-2.4-1.52-4.73-2.44-7h-10.4c2.13,3.94,3.81,8.17,5.12,12.61,1.63,5.54,1.55,5.62,7.28,4,15.78-4.45,31.93-6.73,48.25-6.72,16.84,.03,33.46,1.87,48.94,8.65,2.16,.94,4.29,1.99,6.4,3.14,10.3,5.59,18.56,12.86,22.12,23.93-.67-.35-1.34-.69-1.99-.83-.46-.09-.85-.36-1.3-.48-3.3-.83-6.44-.97-9.39-.39-1.38,.27-2.72,.71-4,1.3-1.19,.55-2.34,1.25-3.45,2.08-.82,.62-1.62,1.32-2.39,2.1-5.27,5.34-6.47,12.25-3.43,18.84,1.36,2.96,3.16,5.29,5.35,7.01,2.05,1.61,4.44,2.7,7.14,3.26,1.29,.27,2.64,.42,4.06,.46,17.84,.48,29.94-13.73,26.95-31.32Z"/><path class="cls-1" d="M189.73,206.61c-9.82,13.37-23.39,21.25-38.96,25.35-38.71,10.16-77,7.93-114.41-6.33-11.51-4.37-21.97-10.67-30.27-20.13-1.05-1.19-2.01-2.42-2.86-3.69,7.37,7.46,16.3,12.62,26.02,16.31,35.17,13.39,71.15,15.5,107.54,5.95,14.64-3.85,27.4-11.26,36.62-23.83,12.84-17.48,14.1-48.5-5.05-66.02l-.03-.02c-10.21-9.34-22.3-15.19-35.15-19.7-21.47-7.55-43.91-11.52-65.74-17.7-11.93-3.37-23.53-7.66-34.18-14.16-1.86-1.13-4.51-1.92-2.51-5.24,6.24-10.31,9.62-21.38,10.49-33.06,.09-1.12,.14-2.24,.17-3.36,.04-.98,.05-1.97,.05-2.96h0c0-.86-.02-1.71-.05-2.56,0-.06,0-.12,0-.18-.01-.4,0-.78,.02-1.13,.02-.3,.04-.59,.09-.86,.12-.74,.34-1.39,.66-1.96,.2-.35,.43-.68,.71-.98,.73-.78,1.74-1.39,3.09-1.91,1.38-.53,2.76-1.04,4.14-1.52-.35,.61-.58,1.31-.7,2.09-.05,.29-.08,.59-.1,.91-.03,.39-.03,.79-.02,1.22,0,.07,0,.12,0,.19,.03,.91,.04,1.81,.04,2.7-.02,0-.04,.01-.07,.02h.07c0,1.05-.01,2.1-.04,3.14-.02,.4-.03,.8-.05,1.19-.03,.8-.08,1.61-.14,2.4-.1,1.33-.22,2.65-.39,3.97-1.33,10.97-4.83,21.41-10.76,31.2-2.14,3.52,.69,4.37,2.67,5.56,11.32,6.92,23.66,11.48,36.35,15.06,23.23,6.57,47.11,10.8,69.94,18.83,13.68,4.8,26.54,11.03,37.39,20.96l.04,.02c20.37,18.63,19.04,51.62,5.38,70.23Z"/><path class="cls-2" d="M164.96,179.91c-1.52,5.31-3.87,10.23-6.89,14.34-8.67,11.8-20.66,18.78-34.42,22.39-28.32,7.43-56.38,7.36-83.95-.03-5.74-1.54-11.46-3.39-17.15-5.56-7.71-2.93-14.9-6.85-21.12-12.22-.53-1-1.01-2.02-1.43-3.05,4.96,3.63,10.45,6.43,16.27,8.64,2.46,.93,4.91,1.81,7.38,2.62,2.88,.95,5.78,1.81,8.67,2.58,25.95,6.97,52.34,7.04,78.98,.05,12.93-3.4,24.21-9.95,32.36-21.05,2.84-3.87,5.04-8.49,6.47-13.48,1.12-3.88,1.77-7.99,1.9-12.15,.38-11.85-3.46-24.11-12.84-32.7h-.03c-9.01-8.26-19.7-13.44-31.06-17.42-18.97-6.66-38.8-10.18-58.09-15.63-10.55-2.98-20.79-6.77-30.2-12.52-1.64-1-3.99-1.7-2.22-4.62,6.51-10.74,9.49-22.42,9.47-34.82,0-.74-.02-1.5-.04-2.25,0-.05,0-.11,0-.16-.02-.64,.01-1.23,.1-1.76,.1-.65,.29-1.23,.58-1.74,.18-.31,.39-.6,.63-.86,.63-.68,1.53-1.23,2.72-1.69,1.22-.47,2.44-.92,3.66-1.35-.3,.54-.5,1.14-.61,1.84-.05,.25-.08,.53-.09,.81-.02,.34-.02,.7-.01,1.07,0,.06,0,.11,0,.17,.02,.8,.04,1.6,.04,2.39,0,.93-.01,1.86-.04,2.79-.39,12.15-3.59,23.63-10.03,34.25-1.88,3.11,.61,3.86,2.36,4.91,10.01,6.11,20.92,10.14,32.13,13.32,20.52,5.8,41.62,9.54,61.79,16.63,12.09,4.25,23.45,9.74,33.04,18.53h.03c13.5,12.35,16.21,31.83,11.64,47.73Z"/></svg>