<?xml version="1.0" encoding="UTF-8"?><svg id="Layer_1" xmlns="http://www.w3.org/2000/svg" xmlns:xlink="http://www.w3.org/1999/xlink" viewBox="0 0 184.92 88.99"><defs><style>.cls-1{fill:url(#linear-gradient-2);}.cls-2{fill:url(#linear-gradient-17);}.cls-3{fill:url(#linear-gradient-15);}.cls-4{fill:url(#linear-gradient-18);}.cls-5{fill:url(#linear-gradient-14);}.cls-6{fill:url(#linear-gradient-20);}.cls-7{fill:url(#linear-gradient-6);}.cls-8{clip-path:url(#clippath-2);}.cls-9{clip-path:url(#clippath-6);}.cls-10{fill:url(#linear-gradient-11);}.cls-11{clip-path:url(#clippath-1);}.cls-12{clip-path:url(#clippath-4);}.cls-13{fill:url(#linear-gradient-10);}.cls-14{fill:url(#linear-gradient-16);}.cls-15{fill:url(#linear-gradient-5);}.cls-16{clip-path:url(#clippath);}.cls-17{clip-path:url(#clippath-3);}.cls-18{fill:url(#linear-gradient-7);}.cls-19{fill:url(#linear-gradient-9);}.cls-20{fill:url(#linear-gradient-3);}.cls-21{clip-path:url(#clippath-5);}.cls-22{fill:url(#linear-gradient);}.cls-23{fill:url(#linear-gradient-19);}.cls-24{fill:url(#linear-gradient-4);}.cls-25{fill:url(#linear-gradient-8);}.cls-26{fill:url(#linear-gradient-12);}.cls-27{fill:url(#linear-gradient-13);}</style><linearGradient id="linear-gradient" x1="92.46" y1="74.54" x2="92.46" y2="0" gradientUnits="userSpaceOnUse"><stop offset="0" stop-color="#faf1b0"/><stop offset=".11" stop-color="#efe589"/><stop offset=".24" stop-color="#c3a25a"/><stop offset=".43" stop-color="#f9e27f"/><stop offset=".6" stop-color="#d1bc5a"/><stop offset=".66" stop-color="#ede3a4"/><stop offset=".7" stop-color="#fbf6c8"/><stop offset=".7" stop-color="#faf5c6"/><stop offset=".85" stop-color="#f2e99a"/><stop offset=".93" stop-color="#efe589"/></linearGradient><clipPath id="clippath"><path class="cls-22" d="M179.32,51.78c.32-.08,.63-.2,.91-.35,.28-.16,.55-.35,.8-.59,.26-.24,.48-.51,.68-.81,.2-.3,.38-.62,.53-.98h0c.15-.35,.27-.73,.37-1.14,.09-.41,.16-.83,.2-1.29h0c.04-.45,.04-.91,0-1.37-.04-.46-.11-.93-.22-1.4h0c-.11-.47-.25-.92-.43-1.35-.17-.43-.38-.83-.61-1.21-.23-.38-.48-.73-.75-1.05-.27-.32-.55-.61-.85-.87h0c-.3-.25-.6-.47-.92-.64-.31-.17-.64-.31-.97-.41h0c-.33-.1-.66-.16-.97-.16-.32,0-.64,.03-.96,.11h0c-.34,.08-.65,.2-.94,.36-.29,.16-.56,.35-.8,.59h0c-.26,.25-.49,.51-.68,.8-.2,.29-.38,.61-.53,.97h0c-.15,.35-.27,.73-.36,1.13-.09,.4-.15,.83-.19,1.28h0c-.03,.45-.02,.9,.02,1.37,.04,.47,.12,.93,.23,1.4,.11,.47,.25,.92,.42,1.35,.17,.44,.37,.85,.6,1.23,.23,.38,.48,.74,.75,1.06,.27,.32,.55,.6,.85,.84h0c.3,.25,.61,.46,.93,.64,.32,.18,.64,.32,.97,.42,.32,.1,.64,.16,.96,.17,.33,.01,.65-.02,.99-.1h0Zm-50.75-13.86c.95-1.81,1.82-3.54,2.6-5.19h0c.44-.93,.86-1.85,1.25-2.75,.39-.9,.76-1.8,1.11-2.71,.34-.88,.64-1.72,.88-2.52,.24-.79,.44-1.52,.59-2.2h0c.15-.68,.23-1.28,.24-1.8,.02-.51-.03-.95-.13-1.33-.08-.3-.22-.52-.42-.66-.21-.15-.5-.22-.87-.22-.39,0-.76,.1-1.1,.29-.36,.21-.7,.52-1.02,.95-.35,.46-.67,.99-.96,1.6-.29,.62-.56,1.31-.79,2.08h0c-.24,.79-.45,1.63-.63,2.52-.18,.89-.33,1.84-.45,2.87h0c-.13,1.03-.22,2.05-.28,3.07-.06,1.02-.09,2.06-.09,3.13,0,.96,.02,1.92,.07,2.86Zm21.16-6.31c-.6-.24-1.16-.44-1.71-.59-.54-.15-1.04-.26-1.51-.32-.43-.06-.81-.04-1.15,.04-.31,.08-.58,.22-.82,.42h0c-.17,.16-.35,.29-.54,.4-.19,.11-.38,.19-.58,.25h0c-.2,.06-.38,.09-.55,.1-.22,0-.4-.03-.56-.12h0c-.25-.13-.38-.34-.4-.61-.01-.18,.03-.37,.13-.58h0c.09-.18,.24-.37,.45-.58,.19-.18,.42-.38,.71-.61h0c.63-.47,1.24-.85,1.83-1.15,.6-.3,1.19-.52,1.76-.66h0c.55-.13,1.09-.21,1.61-.25,.52-.03,1.03-.02,1.52,.05,.49,.06,.95,.15,1.38,.28,.44,.12,.87,.28,1.28,.48h0c.37,.17,.73,.34,1.07,.51,.33,.16,.67,.33,1.01,.5h0c.3,.15,.58,.28,.84,.39,.25,.11,.49,.2,.7,.26h0c.13,.05,.26,.06,.36,.03,.1-.02,.21-.08,.3-.17h0c.11-.11,.25-.21,.4-.28,.15-.08,.31-.14,.49-.18,.17-.04,.33-.06,.49-.07,.18,0,.33,.01,.48,.05,.23,.06,.39,.19,.5,.37,.11,.18,.14,.38,.09,.61h0c-.04,.21-.16,.4-.36,.61-.14,.14-.33,.31-.58,.49-.45,.4-.89,.73-1.32,.99-.44,.27-.86,.46-1.27,.58-.4,.12-.79,.19-1.17,.22-.38,.03-.76,.02-1.13-.03h0c-.35-.05-.7-.13-1.05-.23-.34-.1-.66-.23-.98-.39h0c-.29-.14-.58-.28-.88-.42-.3-.14-.59-.27-.88-.4Zm-110.28,2.76c-.19-.45-.36-.93-.5-1.43-.34-1.22-.51-2.59-.51-4.1,0-1.02,.12-2,.37-2.93,.24-.94,.61-1.82,1.1-2.66h0c.48-.83,1.04-1.62,1.68-2.36,.65-.74,1.38-1.44,2.2-2.11,.76-.61,1.57-1.19,2.45-1.72-.59-2.86-1.69-5.47-3.1-7.58-2.18-3.25-5.1-5.32-8.02-5.32-2.41,0-4.45,1.38-5.91,3.58-1.59,2.39-2.5,5.73-2.5,9.35,0,4.7,1.4,9,3.53,12.16,2.17,3.2,5.1,5.21,8.06,5.21,.39,0,.78-.04,1.15-.11Zm-8.15,9.66c.67-.48,.92-1.02,.92-1.74,0-.44-.05-.9-.22-1.22-.13-.25-.36-.43-.76-.43-.68,0-1.42,.25-2.02,.95-.51,.6-.94,1.54-1.18,2.93l-.08,.91c1.58-.49,2.65-.92,3.33-1.41Zm2.09,1.78c-1.35,.9-3.23,1.57-5.41,1.96,.1,.9,.44,2.02,1.26,2.83,.66,.65,1.65,1.11,3.12,1.11,.44,0,1.05-.04,1.68-.15,.48-.08,.98-.21,1.41-.38l.38-.15,.78,1.34-.31,.26c-.86,.7-1.63,1.24-2.51,1.62-.89,.38-1.88,.58-3.14,.58h0c-1.63-.02-3.25-.87-4.43-2.21-1.13-1.27-1.87-3-1.87-4.86v-.47c0-2.58,.68-4.72,1.96-6.21,1.26-1.48,3.09-2.32,5.39-2.32h.07c1.14,0,2.1,.34,2.78,.94,.7,.62,1.1,1.49,1.1,2.53,0,1.44-.83,2.64-2.24,3.59ZM4.99,54.4c-.42,.24-.92,.42-1.39,.42-.57,0-1.29-.23-1.78-1.18-.31-.6-.52-1.49-.52-2.83v-7.64c0-.88-.07-1.42-.22-1.78-.12-.29-.31-.46-.56-.61l-.53-.32,.45-.43c.4-.38,.79-.69,1.21-.9,.44-.23,.91-.35,1.45-.37h.07c.27,.03,.91,.28,1.31,1.06,.13,.24,.23,.54,.3,.9,.19-.29,.4-.55,.65-.79,.71-.71,1.65-1.18,2.94-1.18h.2c.99,0,2.06,.39,2.92,1.17,.5,.45,.92,1.03,1.22,1.74,.46-.74,.96-1.38,1.5-1.86,.74-.66,1.55-1.04,2.44-1.04h.24c1.16,0,2.42,.54,3.33,1.62,.75,.89,1.25,2.13,1.25,3.74v6.8c0,.63,.07,1.09,.24,1.38,.13,.23,.32,.36,.61,.41l.6,.09-.23,.56c-.13,.31-.58,.74-1.11,1.04-.43,.25-.93,.43-1.38,.43-.77,0-1.37-.4-1.77-1.17-.34-.66-.52-1.61-.52-2.84v-6.7c0-.85-.26-1.59-.65-2.13-.38-.53-.88-.86-1.37-.86s-.97,.37-1.41,.89c-.61,.72-1.09,1.7-1.31,2.47v6.44c0,.63,.07,1.08,.24,1.38,.13,.23,.34,.37,.64,.41l.69,.1-.35,.6c-.17,.29-.62,.71-1.14,1-.41,.24-.88,.41-1.33,.41-.78,0-1.4-.4-1.81-1.17-.35-.66-.55-1.61-.55-2.84v-6.77c0-.83-.26-1.56-.64-2.08-.38-.52-.89-.84-1.37-.84h-.07c-.56,0-1.09,.44-1.51,1.01-.68,.92-1.08,2.13-1.08,2.66v6.13c0,.63,.07,1.09,.24,1.38,.13,.23,.32,.36,.61,.41l.6,.09-.23,.56c-.13,.31-.57,.74-1.1,1.05ZM89.24,23.26c-.06-.59-.19-1.16-.39-1.7-.31-.86-.77-1.67-1.4-2.43h0c-.26-.33-.58-.66-.94-.98h0c-.36-.32-.78-.64-1.24-.96h0c-.45-.32-.97-.61-1.55-.9-.59-.29-1.23-.57-1.93-.83-.7-.26-1.47-.49-2.32-.71-.85-.21-1.77-.4-2.74-.56h0c-.98-.15-2.05-.27-3.22-.35-1.15-.08-2.39-.12-3.73-.12s-2.59,.06-3.83,.18c-1.24,.12-2.47,.3-3.7,.54-1.22,.24-2.39,.52-3.5,.85-1.1,.33-2.16,.7-3.17,1.13h0c-.41,.17-.81,.35-1.2,.53,.03,.51,.04,1.04,.04,1.57,0,5.13-1.35,9.51-3.68,12.86,.44,.31,.92,.62,1.44,.93,1.09,.65,2.34,1.28,3.76,1.9,1.43,.62,3.07,1.22,4.91,1.79,1.83,.57,3.88,1.11,6.12,1.63,2.04,.47,4.01,.95,5.91,1.44,1.89,.49,3.68,.99,5.38,1.49,1.72,.51,3.33,1.07,4.81,1.68,1.48,.61,2.85,1.28,4.1,2,1.26,.73,2.38,1.52,3.36,2.39,.98,.88,1.83,1.83,2.53,2.86h0c.72,1.04,1.25,2.2,1.61,3.49,.35,1.28,.53,2.67,.53,4.18s-.17,2.91-.5,4.21c-.33,1.31-.83,2.52-1.5,3.62-.66,1.09-1.45,2.09-2.36,3-.91,.9-1.95,1.71-3.11,2.42-1.15,.71-2.42,1.32-3.78,1.84-1.36,.52-2.83,.94-4.4,1.28h0c-1.56,.33-3.19,.58-4.88,.74-1.7,.17-3.45,.25-5.25,.25s-3.6-.08-5.38-.26c-1.78-.17-3.52-.42-5.23-.76-1.72-.34-3.35-.75-4.89-1.23-1.54-.48-2.98-1.03-4.33-1.66-1.36-.63-2.58-1.32-3.67-2.07-1.09-.76-2.05-1.59-2.88-2.49-.84-.91-1.47-1.87-1.9-2.88-.43-1.02-.64-2.09-.64-3.2,0-.6,.07-1.15,.22-1.65,.15-.52,.37-.97,.67-1.37,.29-.39,.63-.72,1-.99,.37-.27,.78-.48,1.23-.64,.43-.15,.88-.24,1.34-.29,.46-.05,.93-.04,1.41,.01h0c.48,.06,.95,.16,1.39,.32,.45,.16,.87,.36,1.28,.62h0c.38,.24,.7,.54,.98,.92,.27,.36,.48,.79,.65,1.28,.17,.48,.27,.97,.3,1.46,.03,.5,0,1-.1,1.51h0c-.1,.52-.28,1.01-.52,1.5-.24,.48-.55,.94-.93,1.39-.39,.47-.87,.87-1.43,1.2-.36,.21-.76,.4-1.19,.56,.18,.21,.39,.42,.63,.64,.48,.42,1.08,.83,1.81,1.24h0c.75,.42,1.57,.82,2.44,1.19,.87,.37,1.8,.71,2.78,1.03h0c1,.33,2.02,.62,3.06,.87,1.04,.25,2.11,.48,3.23,.67,1.12,.19,2.17,.33,3.18,.43,1,.09,1.97,.14,2.9,.14,1.59,0,3.12-.11,4.59-.32,1.47-.21,2.89-.52,4.25-.94,1.36-.42,2.6-.91,3.72-1.46,1.12-.55,2.12-1.16,3-1.84h0c.87-.66,1.61-1.38,2.21-2.14,.59-.76,1.05-1.56,1.36-2.4,.31-.82,.43-1.66,.37-2.5-.06-.85-.31-1.71-.75-2.59-.44-.89-1.11-1.77-2-2.65-.9-.89-2.04-1.78-3.4-2.65-1.37-.88-3.02-1.72-4.95-2.51-1.94-.79-4.17-1.54-6.69-2.24-2.48-.69-4.73-1.32-6.79-1.88-1.91-.52-3.92-1.07-5.96-1.62-1.84-.49-3.55-1.02-5.12-1.59-.13-.05-.26-.09-.39-.14v8.33c0,.63,.07,1.09,.24,1.38,.13,.23,.32,.36,.61,.41l.6,.09-.23,.56c-.13,.31-.57,.74-1.09,1.04-.42,.25-.91,.43-1.37,.43-.66,0-1.2-.31-1.6-.88h0c-.22-.31-.39-.7-.51-1.16-.46,.47-.98,.94-1.52,1.3-.66,.45-1.35,.74-2.03,.74h-.27c-1.21,0-2.51-.48-3.44-1.5-.77-.84-1.28-2.04-1.28-3.62v-6.9c0-.72-.07-1.17-.2-1.46-.11-.25-.29-.41-.53-.57l-.45-.3,.35-.4c.37-.42,.78-.73,1.22-.94,.48-.23,.98-.35,1.48-.37h.14s.12,.07,.12,.07c.44,.27,.82,.69,1.09,1.21,.24,.48,.39,1.04,.39,1.65v8.12h0c.02,.85,.24,1.46,.6,1.86,.38,.43,.95,.63,1.59,.63h.3c.33,0,.98-.39,1.52-.97,.4-.43,.7-.96,.7-1.48v-6.67c0-.88-.07-1.42-.22-1.78-.12-.3-.31-.46-.56-.61l-.55-.33,.03-.03c-.9-.5-1.72-1.04-2.45-1.62-.38-.3-.73-.61-1.06-.92-1.69,.52-3.5,.79-5.4,.79-5.13,0-9.68-1.87-12.9-5.42-2.99-3.3-4.81-8.04-4.81-14.05s1.73-10.7,4.78-13.99C26.75,1.84,31.23,0,36.63,0s9.83,1.68,13.04,5.04c2.09,2.19,3.6,5.07,4.3,8.66,.68-.22,1.37-.42,2.06-.61h0c1.17-.32,2.33-.59,3.49-.82,1.16-.23,2.34-.42,3.56-.58,1.2-.15,2.36-.27,3.49-.34,1.16-.08,2.28-.11,3.36-.11,1.62,0,3.16,.07,4.64,.22,1.48,.15,2.88,.37,4.19,.67h0c1.31,.3,2.53,.65,3.66,1.05,1.14,.4,2.19,.86,3.15,1.37h0c.96,.51,1.82,1.07,2.59,1.67,.78,.61,1.45,1.25,2.03,1.94h0c.59,.7,1.06,1.43,1.41,2.18,.36,.75,.6,1.54,.72,2.35h0c.12,.78,.17,1.49,.14,2.15-.03,.68-.13,1.3-.32,1.86-.18,.55-.4,1.05-.67,1.5-.27,.46-.59,.86-.95,1.22h0c-.36,.35-.75,.65-1.18,.91-.42,.25-.87,.45-1.36,.61h0c-.47,.15-.94,.27-1.4,.34-.47,.08-.92,.12-1.36,.12-.35,0-.69-.03-1.02-.1-.34-.07-.66-.17-.96-.3-.3-.13-.58-.28-.83-.46-.26-.18-.5-.37-.72-.59-.22-.21-.41-.44-.58-.69-.17-.25-.32-.51-.44-.79h0c-.13-.28-.22-.57-.28-.86-.06-.3-.09-.6-.09-.91s.03-.6,.09-.9c.06-.29,.15-.58,.28-.87h0c.12-.29,.27-.56,.45-.81,.17-.25,.37-.49,.6-.72h0c.23-.23,.48-.44,.75-.61,.27-.18,.56-.33,.88-.46,.32-.13,.66-.23,1.02-.3,.36-.07,.72-.1,1.1-.1,.27,0,.54,.03,.83,.09,.28,.06,.56,.14,.85,.25h0c.28,.11,.54,.22,.78,.33,.26,.12,.5,.24,.72,.36h0c.2,.11,.38,.21,.56,.32Zm34.58,27.5c-.2,.26-.43,.53-.68,.82-.25,.29-.52,.58-.8,.88h0c-.29,.31-.6,.6-.93,.88-.33,.29-.67,.56-1.02,.81h0c-.37,.27-.74,.51-1.12,.72-.4,.22-.81,.42-1.23,.6-.44,.18-.89,.32-1.36,.42-.46,.09-.93,.14-1.41,.14-.53,0-1.04-.09-1.53-.27-.48-.18-.93-.44-1.36-.78-.4-.33-.76-.67-1.1-1.03-.34-.36-.65-.74-.93-1.14h0c-.27-.39-.52-.76-.74-1.13-.22-.37-.41-.72-.57-1.06h0s-.07-.15-.07-.15l-.11,.19h0c-.2,.34-.44,.7-.71,1.07-.26,.36-.56,.73-.9,1.12-.35,.4-.72,.78-1.12,1.14-.4,.36-.84,.7-1.3,1.02-.49,.34-1.01,.59-1.55,.76-.55,.17-1.11,.26-1.71,.26s-1.19-.06-1.74-.19c-.55-.13-1.06-.32-1.53-.57-.46-.25-.89-.55-1.26-.89-.38-.35-.71-.73-.98-1.16h0c-.28-.42-.51-.88-.7-1.38-.18-.49-.32-1.01-.41-1.56h0c-.09-.54-.13-1.1-.13-1.68,0-.58,.06-1.17,.16-1.77h0c.1-.6,.26-1.2,.46-1.81,.2-.6,.45-1.21,.75-1.81,.3-.61,.65-1.2,1.05-1.79,.4-.58,.85-1.15,1.35-1.71h0c.54-.6,1.1-1.12,1.68-1.58,.58-.46,1.17-.84,1.77-1.14,.6-.3,1.18-.55,1.77-.76,.59-.21,1.17-.37,1.75-.48h0c.52-.1,1.03-.16,1.52-.19,.5-.03,.97-.03,1.44,0h0c.45,.03,.87,.08,1.27,.15,.4,.07,.77,.15,1.11,.25,.34,.1,.64,.21,.9,.33,.27,.13,.51,.26,.7,.42h0c.23,.18,.39,.37,.47,.56,.13,.29,.1,.57-.09,.83h0c-.12,.17-.26,.3-.4,.38-.19,.11-.39,.15-.59,.11h0c-.11-.02-.23-.05-.36-.09-.11-.04-.25-.09-.41-.16h0c-.12-.06-.27-.11-.44-.17-.19-.06-.39-.12-.59-.18h0c-.21-.06-.45-.1-.73-.13-.28-.03-.61-.05-.99-.05-.34,0-.67,.04-1,.11-.34,.07-.67,.19-1.01,.34h0c-.35,.16-.7,.34-1.03,.55-.34,.21-.66,.45-.97,.71h0c-.32,.27-.62,.56-.9,.87-.28,.31-.55,.65-.8,1.02-.24,.35-.46,.72-.64,1.1-.18,.38-.32,.76-.43,1.14h0c-.17,.6-.29,1.16-.35,1.69-.06,.52-.07,.99-.02,1.43,.05,.44,.13,.85,.24,1.23,.11,.37,.25,.7,.42,1,.17,.3,.35,.56,.56,.78,.2,.22,.41,.4,.64,.54h0c.23,.15,.46,.26,.67,.33,.2,.07,.38,.1,.56,.1,.37,0,.71-.05,1.01-.16,.29-.11,.56-.27,.79-.48,.26-.24,.5-.51,.72-.8,.22-.3,.42-.63,.6-.99h0c.18-.37,.35-.76,.5-1.16,.15-.41,.28-.83,.39-1.26,.14-.54,.25-.96,.33-1.29,.05-.19,.15-.61,.31-1.23h0c.1-.4,.21-.77,.31-1.1,.11-.35,.22-.65,.32-.91h0c.14-.33,.3-.59,.5-.77,.24-.23,.52-.34,.83-.34s.59,.11,.86,.34c.21,.18,.42,.44,.6,.78h0c.16,.3,.33,.63,.5,1,.17,.36,.33,.75,.49,1.16h0c.16,.4,.33,.83,.51,1.31,.19,.48,.36,.96,.54,1.42,.18,.48,.37,.94,.57,1.38,.2,.43,.41,.85,.63,1.26,.22,.4,.45,.76,.69,1.09,.24,.33,.49,.62,.75,.89,.23,.23,.48,.41,.74,.52,.25,.11,.51,.16,.79,.16,.22,0,.44-.02,.64-.07,.2-.05,.39-.12,.57-.21h0c.2-.1,.39-.21,.57-.33,.18-.11,.34-.24,.5-.37h0c.17-.14,.33-.3,.48-.47,.16-.17,.31-.36,.46-.55h0s1.05-1.34,1.05-1.34l-.12-.03,.16-.26c-.11-.43-.22-.87-.31-1.32-.15-.7-.28-1.41-.39-2.14h0c-.12-.74-.21-1.47-.29-2.19-.08-.73-.14-1.46-.19-2.19-.05-.71-.08-1.41-.1-2.11-.02-.67-.04-1.32-.04-1.95v-.05c.18-1.85,.43-3.62,.77-5.29,.34-1.68,.76-3.25,1.27-4.73,.21-.63,.45-1.25,.71-1.86,.26-.61,.55-1.22,.86-1.83,.32-.62,.66-1.2,1.02-1.74,.37-.54,.77-1.06,1.2-1.55,.44-.49,.9-.93,1.4-1.33,.5-.39,1.03-.74,1.59-1.04h0c.58-.31,1.19-.53,1.83-.68,.64-.15,1.32-.23,2.03-.23,.76,0,1.4,.14,1.92,.41,.55,.29,.97,.71,1.25,1.28,.25,.52,.41,1.11,.48,1.78,.07,.65,.06,1.37-.04,2.15-.09,.76-.26,1.59-.48,2.47-.23,.87-.52,1.79-.87,2.75h0c-.36,.98-.74,1.95-1.14,2.92-.41,.97-.85,1.96-1.33,2.98h0c-1.11,2.37-2.41,4.89-3.87,7.54-.39,.71-.8,1.44-1.23,2.18,.09,.67,.19,1.32,.3,1.93,.17,.9,.36,1.74,.58,2.52,.22,.78,.46,1.48,.73,2.1,.26,.61,.55,1.14,.87,1.6h0c.29,.42,.6,.73,.93,.94,.3,.19,.63,.28,.97,.28h.06c.17,.02,.35,.01,.54-.03,.21-.04,.43-.12,.67-.24h.01c.21-.1,.44-.23,.7-.4,.26-.17,.54-.39,.85-.65h0c.3-.25,.62-.57,.95-.96,.28-.33,.58-.71,.88-1.14,.02-.45,.07-.91,.15-1.38h0c.1-.6,.26-1.2,.46-1.81,.2-.6,.45-1.21,.75-1.81,.3-.61,.65-1.2,1.05-1.79,.4-.58,.85-1.15,1.35-1.71h0c.54-.6,1.1-1.12,1.67-1.58,.58-.46,1.17-.84,1.77-1.14,.59-.3,1.18-.55,1.77-.76,.59-.21,1.17-.37,1.75-.48h0c.52-.1,1.03-.16,1.52-.19,.5-.03,.97-.03,1.44,0h0c.45,.03,.87,.08,1.27,.15,.4,.07,.77,.15,1.11,.25,.34,.1,.64,.21,.9,.33,.28,.13,.51,.27,.7,.42h0c.23,.18,.39,.37,.47,.56,.13,.3,.1,.57-.09,.83h0c-.12,.17-.26,.3-.4,.38-.19,.11-.39,.15-.59,.11h0c-.11-.02-.23-.05-.36-.09-.11-.04-.25-.09-.41-.16h0c-.13-.06-.27-.11-.44-.17-.19-.06-.39-.12-.59-.18h0c-.2-.06-.45-.1-.73-.13-.28-.03-.61-.05-.99-.05-.34,0-.67,.04-1,.11-.34,.07-.67,.19-1.01,.34h0c-.35,.16-.7,.34-1.02,.55-.33,.21-.65,.45-.97,.72-.32,.27-.62,.56-.9,.87-.28,.31-.55,.65-.8,1.02-.24,.35-.46,.72-.64,1.1-.18,.38-.32,.76-.43,1.14h0c-.17,.6-.29,1.16-.35,1.69-.06,.52-.07,.99-.02,1.43h0c.05,.44,.13,.86,.24,1.23,.11,.37,.25,.7,.42,1,.17,.3,.35,.56,.56,.78,.2,.22,.41,.4,.64,.54h0c.23,.15,.46,.26,.67,.33,.19,.07,.38,.1,.56,.1,.37,0,.71-.05,1.01-.16,.29-.11,.56-.27,.8-.48,.26-.24,.5-.51,.72-.8,.22-.3,.42-.63,.59-.99h0c.18-.37,.35-.76,.5-1.16,.15-.41,.28-.83,.39-1.26,.14-.54,.25-.97,.33-1.29,.04-.17,.15-.59,.31-1.23h0c.1-.4,.21-.77,.31-1.1,.11-.35,.22-.65,.32-.91h0c.14-.33,.3-.59,.49-.77,.24-.23,.52-.34,.83-.34s.59,.11,.86,.34c.21,.18,.42,.44,.6,.78h0c.16,.3,.33,.63,.5,1,.17,.36,.33,.75,.49,1.16h0c.16,.4,.33,.83,.51,1.31,.19,.49,.37,.96,.54,1.42,.18,.48,.37,.94,.57,1.38,.2,.43,.41,.85,.63,1.26,.22,.4,.45,.76,.69,1.09,.24,.32,.49,.62,.76,.89,.23,.23,.48,.41,.74,.52,.25,.11,.51,.16,.79,.16,.22,0,.44-.02,.64-.07,.2-.05,.39-.12,.57-.21h0c.2-.1,.39-.21,.57-.33,.18-.11,.34-.24,.5-.37h0c.17-.14,.33-.3,.48-.47,.16-.17,.31-.36,.46-.55h0s.93-1.19,.93-1.19c-.04-.17-.08-.35-.11-.52-.12-.66-.19-1.34-.19-2.05,0-.71,.07-1.39,.19-2.05,.13-.66,.31-1.3,.56-1.92,.25-.62,.54-1.19,.89-1.73,.34-.54,.74-1.04,1.17-1.5,.44-.46,.91-.87,1.42-1.23,.51-.36,1.06-.68,1.64-.95h0c.59-.27,1.2-.48,1.83-.62,.63-.14,1.28-.2,1.94-.2s1.31,.07,1.94,.2c.63,.14,1.24,.34,1.83,.61h0c.58,.28,1.13,.59,1.64,.96,.51,.36,.98,.78,1.42,1.23,.44,.46,.83,.96,1.18,1.5,.34,.53,.64,1.11,.9,1.73h0c.26,.62,.45,1.26,.58,1.93,.13,.66,.19,1.35,.19,2.05s-.06,1.38-.19,2.05c-.13,.67-.32,1.31-.58,1.93-.25,.61-.55,1.19-.9,1.72-.35,.54-.74,1.04-1.18,1.5-.44,.46-.91,.87-1.42,1.23-.51,.36-1.06,.68-1.64,.95h0c-.59,.27-1.2,.48-1.83,.62-.63,.14-1.28,.2-1.94,.2s-1.32-.07-1.94-.2c-.63-.14-1.24-.34-1.83-.61h0c-.58-.28-1.13-.59-1.64-.96-.51-.36-.98-.77-1.42-1.23-.44-.46-.83-.96-1.17-1.5-.13-.21-.26-.43-.38-.65-.18,.23-.37,.45-.56,.68-.23,.27-.5,.56-.8,.88h0c-.29,.31-.6,.6-.93,.88-.33,.29-.67,.56-1.02,.81h0c-.37,.27-.74,.51-1.13,.72-.4,.22-.81,.42-1.23,.6-.44,.18-.89,.32-1.36,.42-.46,.09-.93,.14-1.41,.14-.53,0-1.04-.09-1.53-.27-.48-.18-.93-.44-1.36-.78-.4-.33-.76-.67-1.1-1.03-.34-.36-.65-.74-.93-1.14h0c-.27-.39-.52-.76-.74-1.13-.22-.37-.41-.72-.57-1.06h0s-.07-.15-.07-.15l-.11,.19h0c-.2,.34-.44,.7-.71,1.07-.26,.36-.56,.73-.9,1.12-.35,.4-.72,.78-1.12,1.14-.4,.36-.84,.7-1.31,1.02-.49,.34-1.01,.59-1.55,.76-.55,.17-1.11,.26-1.71,.26s-1.19-.06-1.74-.19c-.55-.13-1.07-.32-1.53-.57-.46-.25-.89-.55-1.26-.89-.38-.35-.7-.73-.98-1.16h0c-.28-.42-.51-.88-.7-1.38-.05-.12-.09-.25-.13-.38-.03,.03-.06,.06-.08,.1-.34,.39-.72,.79-1.16,1.2-.44,.42-.92,.81-1.43,1.19-.51,.37-1.06,.72-1.65,1.06h0c-.62,.35-1.26,.6-1.93,.78-.67,.17-1.37,.26-2.1,.26-.59,0-1.15-.09-1.68-.26-.53-.17-1.02-.42-1.48-.76-.44-.33-.85-.71-1.22-1.15-.37-.43-.71-.92-1.02-1.46-.29-.52-.56-1.06-.79-1.63Z"/></clipPath><linearGradient id="linear-gradient-2" y1="59.39" y2="16.45" xlink:href="#linear-gradient"/><linearGradient id="linear-gradient-3" x1="108.69" y1="88.88" x2="108.69" y2="62.85" xlink:href="#linear-gradient"/><linearGradient id="linear-gradient-4" x1="108.69" y1="88.88" x2="108.69" y2="62.85" xlink:href="#linear-gradient"/><clipPath id="clippath-1"><path class="cls-24" d="M108.82,86.74c-.39,1.16-.93,1.28-1.25,1.09l.06,.03-.1-.13c-1.32-1.64-1.67-5.14-1.67-8.35,0-1.73,.1-3.41,.23-4.59l.35,.26c.51,.55,1.03,1.22,1.45,1.99,.8,1.57,1.22,3.44,1.35,5.2,.03,.48,.06,1,.06,1.45,0,1.22-.16,2.28-.48,3.05m-1.45,1.86c.74,.39,1.28,.32,1.64,.06,.35-.26,.67-.71,.87-1.29,.35-.9,.51-2.15,.51-3.53,0-.39,0-.77-.03-1.19-.13-1.86-.61-3.85-1.51-5.62-.51-.87-1.03-1.7-1.77-2.41l-.55-.45,.29,.03c.26,.03,.67,.03,1.19,.03,1.41,0,3.53-.1,4.47-.39,1.29-.42,1.25-1.16,.61-.96-.58,.22-6.39,.39-6.78,.35h-.13l-.03-.19c.06-1.9,.58-8.13,.77-9.41,.06-.19-.16-.51-.48-.67-.29-.16-.58-.16-.61,.03-.26,1.32-.77,7.58-.8,9.51l.03,.61-.8-.16c-.67-.16-.42,.67,.26,.87l.55,.26c-.1,1.32-.19,3.05-.19,4.88,0,3.76,.45,7.9,2.41,9.57,.03,.03,.06,.06,.1,.06Z"/></clipPath><linearGradient id="linear-gradient-5" x1="108.67" y1="81.74" x2="108.67" y2="61.78" xlink:href="#linear-gradient"/><linearGradient id="linear-gradient-6" x1="116.67" y1="77.34" x2="116.67" y2="71.42" xlink:href="#linear-gradient"/><linearGradient id="linear-gradient-7" x1="116.67" y1="77.34" x2="116.67" y2="71.42" xlink:href="#linear-gradient"/><clipPath id="clippath-2"><path class="cls-18" d="M113.38,72.93l.06-.06c.45,.29,1.06,.48,1.8,.61,.51,1.16-.19,2.99-1.61,3.05-.61,.03-.96-.32-1.12-1.25-.16-.9,.45-2.02,.87-2.35m7.93,.26c.77-.26,1-.67,.06-.64-.29,0-1.54,.13-3.05,.13-.74,0-1.57-.03-2.38-.13-.48-.58-1.19-1-2.06-1.12-.64-.03-.87,.32-1,.77-.06,0-.1,.03-.16,.03-.74,.26-1.57,1.8-1.35,3.15,.16,.9,.96,1.9,2.15,1.96,1.48,.1,2.79-.71,3.08-2.31,.1-.48,.06-.96-.06-1.38,1.96,.1,4.05-.19,4.75-.45Z"/></clipPath><linearGradient id="linear-gradient-8" x1="116.74" y1="79.5" x2="116.74" y2="68.87" xlink:href="#linear-gradient"/><linearGradient id="linear-gradient-9" x1="124.61" y1="77.44" x2="124.61" y2="70.84" xlink:href="#linear-gradient"/><linearGradient id="linear-gradient-10" x1="124.61" y1="77.44" x2="124.61" y2="70.84" xlink:href="#linear-gradient"/><clipPath id="clippath-3"><path class="cls-13" d="M120.99,76.78c.13,.48,1.19,.9,1.16,.48,.13-.93,.13-1.12,.22-1.38,.77-2.22,3.44-4.18,5.04-4.14l-.03,.26c-.03,.26,.42,.45,.87-.06,.22-.26-.22-.93-.96-1.06-1.77-.29-4.14,1.57-4.95,2.6l.03-1.25c0-.19-.19-.51-.48-.67-.32-.16-.64-.16-.64,.06-.45,4.05-.39,4.88-.26,5.17"/></clipPath><linearGradient id="linear-gradient-11" x1="124.64" y1="84.09" x2="124.64" y2="70.01" xlink:href="#linear-gradient"/><linearGradient id="linear-gradient-12" x1="143.93" y1="76.64" x2="143.93" y2="71.41" xlink:href="#linear-gradient"/><linearGradient id="linear-gradient-13" x1="143.93" y1="76.64" x2="143.93" y2="71.41" xlink:href="#linear-gradient"/><clipPath id="clippath-4"><path class="cls-27" d="M134.84,75.79c.1,.39,.93,1.03,1.19,.8,1.25-1.09,2.15-2.79,3.79-3.85,.29,1.25,.48,1.99,.8,2.7,.19,.35,.8,.67,1.06,.55,.87-.58,1.67-1.22,3.12-2.41,.1,.29,.26,.64,.48,.96,.29,.39,.61,.77,1.09,1.09,.71,.45,1.48,.64,2.15,.64,1.83,0,3.92-1.57,4.4-2.44,.39-.71-.03-.96-.13-.8-.45,.77-3.95,2.35-4.98,2.35-.45,0-.84-.16-1.19-.39-.64-.55-.8-1.7-1.12-2.35-.22-.35-.84-.67-1.06-.51l-3.12,2.54c-.29-1.12-.32-1.8-.67-2.63-.26-.35-.8-.67-1.06-.55-1.38,.67-2.47,1.96-3.6,3.18-.03-1.06,.1-1.64,.06-2.47,.1-.42-.96-1.12-1.06-.58-.13,.8-.22,1.73-.22,2.76,0,.45,.03,.93,.06,1.41"/></clipPath><linearGradient id="linear-gradient-14" x1="144.04" y1="75" x2="144.04" y2="70.44" xlink:href="#linear-gradient"/><linearGradient id="linear-gradient-15" x1="157.39" y1="77.47" x2="157.39" y2="71.35" xlink:href="#linear-gradient"/><linearGradient id="linear-gradient-16" x1="157.39" y1="77.47" x2="157.39" y2="71.35" xlink:href="#linear-gradient"/><clipPath id="clippath-5"><path class="cls-14" d="M155.11,72.45c.35,.35-.55,1.22-1.9,1.83-.03-.8,1.22-2.51,1.9-1.83m2.09,5.01c2.22-.13,4.27-1.7,5.17-3.57,.45-.9,.58-1.64-.16-.87-1.35,1.41-3.6,3.66-6.62,3.66-1.12,0-2.25-1.03-2.35-1.64,1.12,0,2.51-.77,2.92-1.8,.35-.93-.58-1.9-1.57-1.9-1.57,.06-2.54,1.51-2.54,2.92,0,.32,.06,.64,.16,.93,.64,1.99,3.08,2.35,4.98,2.25Z"/></clipPath><linearGradient id="linear-gradient-17" x1="157.5" y1="77.3" x2="157.5" y2="72.14" xlink:href="#linear-gradient"/><linearGradient id="linear-gradient-18" x1="169.38" y1="76.79" x2="169.38" y2="71.83" xlink:href="#linear-gradient"/><linearGradient id="linear-gradient-19" x1="169.38" y1="76.79" x2="169.38" y2="71.83" xlink:href="#linear-gradient"/><clipPath id="clippath-6"><path class="cls-23" d="M161.95,76.2c.03,.51,1.16,.8,1.12,.39l.03-.74c.61-1.35,3.05-2.89,5.43-3.15-.06,.39-.1,.74-.1,1.09,0,.58,.1,1.12,.42,1.61,.58,.84,1.61,1.22,2.54,1.22,2.25,0,4.34-1.7,5.11-2.7,.48-.61,.35-1.32,.23-1.25-1.03,.51-3.82,3.05-5.81,3.05-.42,0-.77-.1-1.09-.35-.42-.61-.06-1.83-.06-2.38,0-.48-.58-1.06-1.19-1.12-1.8-.19-4.11,.96-5.2,1.77l.06-1.09c.03-.19-.26-.48-.51-.64-.32-.13-.64-.1-.64,.13l-.32,3.21c-.06,.39-.03,.71,0,.96"/></clipPath><linearGradient id="linear-gradient-20" x1="169.43" y1="77.83" x2="169.43" y2="73.13" xlink:href="#linear-gradient"/></defs><g><path class="cls-22" d="M179.32,51.78c.32-.08,.63-.2,.91-.35,.28-.16,.55-.35,.8-.59,.26-.24,.48-.51,.68-.81,.2-.3,.38-.62,.53-.98h0c.15-.35,.27-.73,.37-1.14,.09-.41,.16-.83,.2-1.29h0c.04-.45,.04-.91,0-1.37-.04-.46-.11-.93-.22-1.4h0c-.11-.47-.25-.92-.43-1.35-.17-.43-.38-.83-.61-1.21-.23-.38-.48-.73-.75-1.05-.27-.32-.55-.61-.85-.87h0c-.3-.25-.6-.47-.92-.64-.31-.17-.64-.31-.97-.41h0c-.33-.1-.66-.16-.97-.16-.32,0-.64,.03-.96,.11h0c-.34,.08-.65,.2-.94,.36-.29,.16-.56,.35-.8,.59h0c-.26,.25-.49,.51-.68,.8-.2,.29-.38,.61-.53,.97h0c-.15,.35-.27,.73-.36,1.13-.09,.4-.15,.83-.19,1.28h0c-.03,.45-.02,.9,.02,1.37,.04,.47,.12,.93,.23,1.4,.11,.47,.25,.92,.42,1.35,.17,.44,.37,.85,.6,1.23,.23,.38,.48,.74,.75,1.06,.27,.32,.55,.6,.85,.84h0c.3,.25,.61,.46,.93,.64,.32,.18,.64,.32,.97,.42,.32,.1,.64,.16,.96,.17,.33,.01,.65-.02,.99-.1h0Zm-50.75-13.86c.95-1.81,1.82-3.54,2.6-5.19h0c.44-.93,.86-1.85,1.25-2.75,.39-.9,.76-1.8,1.11-2.71,.34-.88,.64-1.72,.88-2.52,.24-.79,.44-1.52,.59-2.2h0c.15-.68,.23-1.28,.24-1.8,.02-.51-.03-.95-.13-1.33-.08-.3-.22-.52-.42-.66-.21-.15-.5-.22-.87-.22-.39,0-.76,.1-1.1,.29-.36,.21-.7,.52-1.02,.95-.35,.46-.67,.99-.96,1.6-.29,.62-.56,1.31-.79,2.08h0c-.24,.79-.45,1.63-.63,2.52-.18,.89-.33,1.84-.45,2.87h0c-.13,1.03-.22,2.05-.28,3.07-.06,1.02-.09,2.06-.09,3.13,0,.96,.02,1.92,.07,2.86Zm21.16-6.31c-.6-.24-1.16-.44-1.71-.59-.54-.15-1.04-.26-1.51-.32-.43-.06-.81-.04-1.15,.04-.31,.08-.58,.22-.82,.42h0c-.17,.16-.35,.29-.54,.4-.19,.11-.38,.19-.58,.25h0c-.2,.06-.38,.09-.55,.1-.22,0-.4-.03-.56-.12h0c-.25-.13-.38-.34-.4-.61-.01-.18,.03-.37,.13-.58h0c.09-.18,.24-.37,.45-.58,.19-.18,.42-.38,.71-.61h0c.63-.47,1.24-.85,1.83-1.15,.6-.3,1.19-.52,1.76-.66h0c.55-.13,1.09-.21,1.61-.25,.52-.03,1.03-.02,1.52,.05,.49,.06,.95,.15,1.38,.28,.44,.12,.87,.28,1.28,.48h0c.37,.17,.73,.34,1.07,.51,.33,.16,.67,.33,1.01,.5h0c.3,.15,.58,.28,.84,.39,.25,.11,.49,.2,.7,.26h0c.13,.05,.26,.06,.36,.03,.1-.02,.21-.08,.3-.17h0c.11-.11,.25-.21,.4-.28,.15-.08,.31-.14,.49-.18,.17-.04,.33-.06,.49-.07,.18,0,.33,.01,.48,.05,.23,.06,.39,.19,.5,.37,.11,.18,.14,.38,.09,.61h0c-.04,.21-.16,.4-.36,.61-.14,.14-.33,.31-.58,.49-.45,.4-.89,.73-1.32,.99-.44,.27-.86,.46-1.27,.58-.4,.12-.79,.19-1.17,.22-.38,.03-.76,.02-1.13-.03h0c-.35-.05-.7-.13-1.05-.23-.34-.1-.66-.23-.98-.39h0c-.29-.14-.58-.28-.88-.42-.3-.14-.59-.27-.88-.4Zm-110.28,2.76c-.19-.45-.36-.93-.5-1.43-.34-1.22-.51-2.59-.51-4.1,0-1.02,.12-2,.37-2.93,.24-.94,.61-1.82,1.1-2.66h0c.48-.83,1.04-1.62,1.68-2.36,.65-.74,1.38-1.44,2.2-2.11,.76-.61,1.57-1.19,2.45-1.72-.59-2.86-1.69-5.47-3.1-7.58-2.18-3.25-5.1-5.32-8.02-5.32-2.41,0-4.45,1.38-5.91,3.58-1.59,2.39-2.5,5.73-2.5,9.35,0,4.7,1.4,9,3.53,12.16,2.17,3.2,5.1,5.21,8.06,5.21,.39,0,.78-.04,1.15-.11Zm-8.15,9.66c.67-.48,.92-1.02,.92-1.74,0-.44-.05-.9-.22-1.22-.13-.25-.36-.43-.76-.43-.68,0-1.42,.25-2.02,.95-.51,.6-.94,1.54-1.18,2.93l-.08,.91c1.58-.49,2.65-.92,3.33-1.41Zm2.09,1.78c-1.35,.9-3.23,1.57-5.41,1.96,.1,.9,.44,2.02,1.26,2.83,.66,.65,1.65,1.11,3.12,1.11,.44,0,1.05-.04,1.68-.15,.48-.08,.98-.21,1.41-.38l.38-.15,.78,1.34-.31,.26c-.86,.7-1.63,1.24-2.51,1.62-.89,.38-1.88,.58-3.14,.58h0c-1.63-.02-3.25-.87-4.43-2.21-1.13-1.27-1.87-3-1.87-4.86v-.47c0-2.58,.68-4.72,1.96-6.21,1.26-1.48,3.09-2.32,5.39-2.32h.07c1.14,0,2.1,.34,2.78,.94,.7,.62,1.1,1.49,1.1,2.53,0,1.44-.83,2.64-2.24,3.59ZM4.99,54.4c-.42,.24-.92,.42-1.39,.42-.57,0-1.29-.23-1.78-1.18-.31-.6-.52-1.49-.52-2.83v-7.64c0-.88-.07-1.42-.22-1.78-.12-.29-.31-.46-.56-.61l-.53-.32,.45-.43c.4-.38,.79-.69,1.21-.9,.44-.23,.91-.35,1.45-.37h.07c.27,.03,.91,.28,1.31,1.06,.13,.24,.23,.54,.3,.9,.19-.29,.4-.55,.65-.79,.71-.71,1.65-1.18,2.94-1.18h.2c.99,0,2.06,.39,2.92,1.17,.5,.45,.92,1.03,1.22,1.74,.46-.74,.96-1.38,1.5-1.86,.74-.66,1.55-1.04,2.44-1.04h.24c1.16,0,2.42,.54,3.33,1.62,.75,.89,1.25,2.13,1.25,3.74v6.8c0,.63,.07,1.09,.24,1.38,.13,.23,.32,.36,.61,.41l.6,.09-.23,.56c-.13,.31-.58,.74-1.11,1.04-.43,.25-.93,.43-1.38,.43-.77,0-1.37-.4-1.77-1.17-.34-.66-.52-1.61-.52-2.84v-6.7c0-.85-.26-1.59-.65-2.13-.38-.53-.88-.86-1.37-.86s-.97,.37-1.41,.89c-.61,.72-1.09,1.7-1.31,2.47v6.44c0,.63,.07,1.08,.24,1.38,.13,.23,.34,.37,.64,.41l.69,.1-.35,.6c-.17,.29-.62,.71-1.14,1-.41,.24-.88,.41-1.33,.41-.78,0-1.4-.4-1.81-1.17-.35-.66-.55-1.61-.55-2.84v-6.77c0-.83-.26-1.56-.64-2.08-.38-.52-.89-.84-1.37-.84h-.07c-.56,0-1.09,.44-1.51,1.01-.68,.92-1.08,2.13-1.08,2.66v6.13c0,.63,.07,1.09,.24,1.38,.13,.23,.32,.36,.61,.41l.6,.09-.23,.56c-.13,.31-.57,.74-1.1,1.05ZM89.24,23.26c-.06-.59-.19-1.16-.39-1.7-.31-.86-.77-1.67-1.4-2.43h0c-.26-.33-.58-.66-.94-.98h0c-.36-.32-.78-.64-1.24-.96h0c-.45-.32-.97-.61-1.55-.9-.59-.29-1.23-.57-1.93-.83-.7-.26-1.47-.49-2.32-.71-.85-.21-1.77-.4-2.74-.56h0c-.98-.15-2.05-.27-3.22-.35-1.15-.08-2.39-.12-3.73-.12s-2.59,.06-3.83,.18c-1.24,.12-2.47,.3-3.7,.54-1.22,.24-2.39,.52-3.5,.85-1.1,.33-2.16,.7-3.17,1.13h0c-.41,.17-.81,.35-1.2,.53,.03,.51,.04,1.04,.04,1.57,0,5.13-1.35,9.51-3.68,12.86,.44,.31,.92,.62,1.44,.93,1.09,.65,2.34,1.28,3.76,1.9,1.43,.62,3.07,1.22,4.91,1.79,1.83,.57,3.88,1.11,6.12,1.63,2.04,.47,4.01,.95,5.91,1.44,1.89,.49,3.68,.99,5.38,1.49,1.72,.51,3.33,1.07,4.81,1.68,1.48,.61,2.85,1.28,4.1,2,1.26,.73,2.38,1.52,3.36,2.39,.98,.88,1.83,1.83,2.53,2.86h0c.72,1.04,1.25,2.2,1.61,3.49,.35,1.28,.53,2.67,.53,4.18s-.17,2.91-.5,4.21c-.33,1.31-.83,2.52-1.5,3.62-.66,1.09-1.45,2.09-2.36,3-.91,.9-1.95,1.71-3.11,2.42-1.15,.71-2.42,1.32-3.78,1.84-1.36,.52-2.83,.94-4.4,1.28h0c-1.56,.33-3.19,.58-4.88,.74-1.7,.17-3.45,.25-5.25,.25s-3.6-.08-5.38-.26c-1.78-.17-3.52-.42-5.23-.76-1.72-.34-3.35-.75-4.89-1.23-1.54-.48-2.98-1.03-4.33-1.66-1.36-.63-2.58-1.32-3.67-2.07-1.09-.76-2.05-1.59-2.88-2.49-.84-.91-1.47-1.87-1.9-2.88-.43-1.02-.64-2.09-.64-3.2,0-.6,.07-1.15,.22-1.65,.15-.52,.37-.97,.67-1.37,.29-.39,.63-.72,1-.99,.37-.27,.78-.48,1.23-.64,.43-.15,.88-.24,1.34-.29,.46-.05,.93-.04,1.41,.01h0c.48,.06,.95,.16,1.39,.32,.45,.16,.87,.36,1.28,.62h0c.38,.24,.7,.54,.98,.92,.27,.36,.48,.79,.65,1.28,.17,.48,.27,.97,.3,1.46,.03,.5,0,1-.1,1.51h0c-.1,.52-.28,1.01-.52,1.5-.24,.48-.55,.94-.93,1.39-.39,.47-.87,.87-1.43,1.2-.36,.21-.76,.4-1.19,.56,.18,.21,.39,.42,.63,.64,.48,.42,1.08,.83,1.81,1.24h0c.75,.42,1.57,.82,2.44,1.19,.87,.37,1.8,.71,2.78,1.03h0c1,.33,2.02,.62,3.06,.87,1.04,.25,2.11,.48,3.23,.67,1.12,.19,2.17,.33,3.18,.43,1,.09,1.97,.14,2.9,.14,1.59,0,3.12-.11,4.59-.32,1.47-.21,2.89-.52,4.25-.94,1.36-.42,2.6-.91,3.72-1.46,1.12-.55,2.12-1.16,3-1.84h0c.87-.66,1.61-1.38,2.21-2.14,.59-.76,1.05-1.56,1.36-2.4,.31-.82,.43-1.66,.37-2.5-.06-.85-.31-1.71-.75-2.59-.44-.89-1.11-1.77-2-2.65-.9-.89-2.04-1.78-3.4-2.65-1.37-.88-3.02-1.72-4.95-2.51-1.94-.79-4.17-1.54-6.69-2.24-2.48-.69-4.73-1.32-6.79-1.88-1.91-.52-3.92-1.07-5.96-1.62-1.84-.49-3.55-1.02-5.12-1.59-.13-.05-.26-.09-.39-.14v8.33c0,.63,.07,1.09,.24,1.38,.13,.23,.32,.36,.61,.41l.6,.09-.23,.56c-.13,.31-.57,.74-1.09,1.04-.42,.25-.91,.43-1.37,.43-.66,0-1.2-.31-1.6-.88h0c-.22-.31-.39-.7-.51-1.16-.46,.47-.98,.94-1.52,1.3-.66,.45-1.35,.74-2.03,.74h-.27c-1.21,0-2.51-.48-3.44-1.5-.77-.84-1.28-2.04-1.28-3.62v-6.9c0-.72-.07-1.17-.2-1.46-.11-.25-.29-.41-.53-.57l-.45-.3,.35-.4c.37-.42,.78-.73,1.22-.94,.48-.23,.98-.35,1.48-.37h.14s.12,.07,.12,.07c.44,.27,.82,.69,1.09,1.21,.24,.48,.39,1.04,.39,1.65v8.12h0c.02,.85,.24,1.46,.6,1.86,.38,.43,.95,.63,1.59,.63h.3c.33,0,.98-.39,1.52-.97,.4-.43,.7-.96,.7-1.48v-6.67c0-.88-.07-1.42-.22-1.78-.12-.3-.31-.46-.56-.61l-.55-.33,.03-.03c-.9-.5-1.72-1.04-2.45-1.62-.38-.3-.73-.61-1.06-.92-1.69,.52-3.5,.79-5.4,.79-5.13,0-9.68-1.87-12.9-5.42-2.99-3.3-4.81-8.04-4.81-14.05s1.73-10.7,4.78-13.99C26.75,1.84,31.23,0,36.63,0s9.83,1.68,13.04,5.04c2.09,2.19,3.6,5.07,4.3,8.66,.68-.22,1.37-.42,2.06-.61h0c1.17-.32,2.33-.59,3.49-.82,1.16-.23,2.34-.42,3.56-.58,1.2-.15,2.36-.27,3.49-.34,1.16-.08,2.28-.11,3.36-.11,1.62,0,3.16,.07,4.64,.22,1.48,.15,2.88,.37,4.19,.67h0c1.31,.3,2.53,.65,3.66,1.05,1.14,.4,2.19,.86,3.15,1.37h0c.96,.51,1.82,1.07,2.59,1.67,.78,.61,1.45,1.25,2.03,1.94h0c.59,.7,1.06,1.43,1.41,2.18,.36,.75,.6,1.54,.72,2.35h0c.12,.78,.17,1.49,.14,2.15-.03,.68-.13,1.3-.32,1.86-.18,.55-.4,1.05-.67,1.5-.27,.46-.59,.86-.95,1.22h0c-.36,.35-.75,.65-1.18,.91-.42,.25-.87,.45-1.36,.61h0c-.47,.15-.94,.27-1.4,.34-.47,.08-.92,.12-1.36,.12-.35,0-.69-.03-1.02-.1-.34-.07-.66-.17-.96-.3-.3-.13-.58-.28-.83-.46-.26-.18-.5-.37-.72-.59-.22-.21-.41-.44-.58-.69-.17-.25-.32-.51-.44-.79h0c-.13-.28-.22-.57-.28-.86-.06-.3-.09-.6-.09-.91s.03-.6,.09-.9c.06-.29,.15-.58,.28-.87h0c.12-.29,.27-.56,.45-.81,.17-.25,.37-.49,.6-.72h0c.23-.23,.48-.44,.75-.61,.27-.18,.56-.33,.88-.46,.32-.13,.66-.23,1.02-.3,.36-.07,.72-.1,1.1-.1,.27,0,.54,.03,.83,.09,.28,.06,.56,.14,.85,.25h0c.28,.11,.54,.22,.78,.33,.26,.12,.5,.24,.72,.36h0c.2,.11,.38,.21,.56,.32Zm34.58,27.5c-.2,.26-.43,.53-.68,.82-.25,.29-.52,.58-.8,.88h0c-.29,.31-.6,.6-.93,.88-.33,.29-.67,.56-1.02,.81h0c-.37,.27-.74,.51-1.12,.72-.4,.22-.81,.42-1.23,.6-.44,.18-.89,.32-1.36,.42-.46,.09-.93,.14-1.41,.14-.53,0-1.04-.09-1.53-.27-.48-.18-.93-.44-1.36-.78-.4-.33-.76-.67-1.1-1.03-.34-.36-.65-.74-.93-1.14h0c-.27-.39-.52-.76-.74-1.13-.22-.37-.41-.72-.57-1.06h0s-.07-.15-.07-.15l-.11,.19h0c-.2,.34-.44,.7-.71,1.07-.26,.36-.56,.73-.9,1.12-.35,.4-.72,.78-1.12,1.14-.4,.36-.84,.7-1.3,1.02-.49,.34-1.01,.59-1.55,.76-.55,.17-1.11,.26-1.71,.26s-1.19-.06-1.74-.19c-.55-.13-1.06-.32-1.53-.57-.46-.25-.89-.55-1.26-.89-.38-.35-.71-.73-.98-1.16h0c-.28-.42-.51-.88-.7-1.38-.18-.49-.32-1.01-.41-1.56h0c-.09-.54-.13-1.1-.13-1.68,0-.58,.06-1.17,.16-1.77h0c.1-.6,.26-1.2,.46-1.81,.2-.6,.45-1.21,.75-1.81,.3-.61,.65-1.2,1.05-1.79,.4-.58,.85-1.15,1.35-1.71h0c.54-.6,1.1-1.12,1.68-1.58,.58-.46,1.17-.84,1.77-1.14,.6-.3,1.18-.55,1.77-.76,.59-.21,1.17-.37,1.75-.48h0c.52-.1,1.03-.16,1.52-.19,.5-.03,.97-.03,1.44,0h0c.45,.03,.87,.08,1.27,.15,.4,.07,.77,.15,1.11,.25,.34,.1,.64,.21,.9,.33,.27,.13,.51,.26,.7,.42h0c.23,.18,.39,.37,.47,.56,.13,.29,.1,.57-.09,.83h0c-.12,.17-.26,.3-.4,.38-.19,.11-.39,.15-.59,.11h0c-.11-.02-.23-.05-.36-.09-.11-.04-.25-.09-.41-.16h0c-.12-.06-.27-.11-.44-.17-.19-.06-.39-.12-.59-.18h0c-.21-.06-.45-.1-.73-.13-.28-.03-.61-.05-.99-.05-.34,0-.67,.04-1,.11-.34,.07-.67,.19-1.01,.34h0c-.35,.16-.7,.34-1.03,.55-.34,.21-.66,.45-.97,.71h0c-.32,.27-.62,.56-.9,.87-.28,.31-.55,.65-.8,1.02-.24,.35-.46,.72-.64,1.1-.18,.38-.32,.76-.43,1.14h0c-.17,.6-.29,1.16-.35,1.69-.06,.52-.07,.99-.02,1.43,.05,.44,.13,.85,.24,1.23,.11,.37,.25,.7,.42,1,.17,.3,.35,.56,.56,.78,.2,.22,.41,.4,.64,.54h0c.23,.15,.46,.26,.67,.33,.2,.07,.38,.1,.56,.1,.37,0,.71-.05,1.01-.16,.29-.11,.56-.27,.79-.48,.26-.24,.5-.51,.72-.8,.22-.3,.42-.63,.6-.99h0c.18-.37,.35-.76,.5-1.16,.15-.41,.28-.83,.39-1.26,.14-.54,.25-.96,.33-1.29,.05-.19,.15-.61,.31-1.23h0c.1-.4,.21-.77,.31-1.1,.11-.35,.22-.65,.32-.91h0c.14-.33,.3-.59,.5-.77,.24-.23,.52-.34,.83-.34s.59,.11,.86,.34c.21,.18,.42,.44,.6,.78h0c.16,.3,.33,.63,.5,1,.17,.36,.33,.75,.49,1.16h0c.16,.4,.33,.83,.51,1.31,.19,.48,.36,.96,.54,1.42,.18,.48,.37,.94,.57,1.38,.2,.43,.41,.85,.63,1.26,.22,.4,.45,.76,.69,1.09,.24,.33,.49,.62,.75,.89,.23,.23,.48,.41,.74,.52,.25,.11,.51,.16,.79,.16,.22,0,.44-.02,.64-.07,.2-.05,.39-.12,.57-.21h0c.2-.1,.39-.21,.57-.33,.18-.11,.34-.24,.5-.37h0c.17-.14,.33-.3,.48-.47,.16-.17,.31-.36,.46-.55h0s1.05-1.34,1.05-1.34l-.12-.03,.16-.26c-.11-.43-.22-.87-.31-1.32-.15-.7-.28-1.41-.39-2.14h0c-.12-.74-.21-1.47-.29-2.19-.08-.73-.14-1.46-.19-2.19-.05-.71-.08-1.41-.1-2.11-.02-.67-.04-1.32-.04-1.95v-.05c.18-1.85,.43-3.62,.77-5.29,.34-1.68,.76-3.25,1.27-4.73,.21-.63,.45-1.25,.71-1.86,.26-.61,.55-1.22,.86-1.83,.32-.62,.66-1.2,1.02-1.74,.37-.54,.77-1.06,1.2-1.55,.44-.49,.9-.93,1.4-1.33,.5-.39,1.03-.74,1.59-1.04h0c.58-.31,1.19-.53,1.83-.68,.64-.15,1.32-.23,2.03-.23,.76,0,1.4,.14,1.92,.41,.55,.29,.97,.71,1.25,1.28,.25,.52,.41,1.11,.48,1.78,.07,.65,.06,1.37-.04,2.15-.09,.76-.26,1.59-.48,2.47-.23,.87-.52,1.79-.87,2.75h0c-.36,.98-.74,1.95-1.14,2.92-.41,.97-.85,1.96-1.33,2.98h0c-1.11,2.37-2.41,4.89-3.87,7.54-.39,.71-.8,1.44-1.23,2.18,.09,.67,.19,1.32,.3,1.93,.17,.9,.36,1.74,.58,2.52,.22,.78,.46,1.48,.73,2.1,.26,.61,.55,1.14,.87,1.6h0c.29,.42,.6,.73,.93,.94,.3,.19,.63,.28,.97,.28h.06c.17,.02,.35,.01,.54-.03,.21-.04,.43-.12,.67-.24h.01c.21-.1,.44-.23,.7-.4,.26-.17,.54-.39,.85-.65h0c.3-.25,.62-.57,.95-.96,.28-.33,.58-.71,.88-1.14,.02-.45,.07-.91,.15-1.38h0c.1-.6,.26-1.2,.46-1.81,.2-.6,.45-1.21,.75-1.81,.3-.61,.65-1.2,1.05-1.79,.4-.58,.85-1.15,1.35-1.71h0c.54-.6,1.1-1.12,1.67-1.58,.58-.46,1.17-.84,1.77-1.14,.59-.3,1.18-.55,1.77-.76,.59-.21,1.17-.37,1.75-.48h0c.52-.1,1.03-.16,1.52-.19,.5-.03,.97-.03,1.44,0h0c.45,.03,.87,.08,1.27,.15,.4,.07,.77,.15,1.11,.25,.34,.1,.64,.21,.9,.33,.28,.13,.51,.27,.7,.42h0c.23,.18,.39,.37,.47,.56,.13,.3,.1,.57-.09,.83h0c-.12,.17-.26,.3-.4,.38-.19,.11-.39,.15-.59,.11h0c-.11-.02-.23-.05-.36-.09-.11-.04-.25-.09-.41-.16h0c-.13-.06-.27-.11-.44-.17-.19-.06-.39-.12-.59-.18h0c-.2-.06-.45-.1-.73-.13-.28-.03-.61-.05-.99-.05-.34,0-.67,.04-1,.11-.34,.07-.67,.19-1.01,.34h0c-.35,.16-.7,.34-1.02,.55-.33,.21-.65,.45-.97,.72-.32,.27-.62,.56-.9,.87-.28,.31-.55,.65-.8,1.02-.24,.35-.46,.72-.64,1.1-.18,.38-.32,.76-.43,1.14h0c-.17,.6-.29,1.16-.35,1.69-.06,.52-.07,.99-.02,1.43h0c.05,.44,.13,.86,.24,1.23,.11,.37,.25,.7,.42,1,.17,.3,.35,.56,.56,.78,.2,.22,.41,.4,.64,.54h0c.23,.15,.46,.26,.67,.33,.19,.07,.38,.1,.56,.1,.37,0,.71-.05,1.01-.16,.29-.11,.56-.27,.8-.48,.26-.24,.5-.51,.72-.8,.22-.3,.42-.63,.59-.99h0c.18-.37,.35-.76,.5-1.16,.15-.41,.28-.83,.39-1.26,.14-.54,.25-.97,.33-1.29,.04-.17,.15-.59,.31-1.23h0c.1-.4,.21-.77,.31-1.1,.11-.35,.22-.65,.32-.91h0c.14-.33,.3-.59,.49-.77,.24-.23,.52-.34,.83-.34s.59,.11,.86,.34c.21,.18,.42,.44,.6,.78h0c.16,.3,.33,.63,.5,1,.17,.36,.33,.75,.49,1.16h0c.16,.4,.33,.83,.51,1.31,.19,.49,.37,.96,.54,1.42,.18,.48,.37,.94,.57,1.38,.2,.43,.41,.85,.63,1.26,.22,.4,.45,.76,.69,1.09,.24,.32,.49,.62,.76,.89,.23,.23,.48,.41,.74,.52,.25,.11,.51,.16,.79,.16,.22,0,.44-.02,.64-.07,.2-.05,.39-.12,.57-.21h0c.2-.1,.39-.21,.57-.33,.18-.11,.34-.24,.5-.37h0c.17-.14,.33-.3,.48-.47,.16-.17,.31-.36,.46-.55h0s.93-1.19,.93-1.19c-.04-.17-.08-.35-.11-.52-.12-.66-.19-1.34-.19-2.05,0-.71,.07-1.39,.19-2.05,.13-.66,.31-1.3,.56-1.92,.25-.62,.54-1.19,.89-1.73,.34-.54,.74-1.04,1.17-1.5,.44-.46,.91-.87,1.42-1.23,.51-.36,1.06-.68,1.64-.95h0c.59-.27,1.2-.48,1.83-.62,.63-.14,1.28-.2,1.94-.2s1.31,.07,1.94,.2c.63,.14,1.24,.34,1.83,.61h0c.58,.28,1.13,.59,1.64,.96,.51,.36,.98,.78,1.42,1.23,.44,.46,.83,.96,1.18,1.5,.34,.53,.64,1.11,.9,1.73h0c.26,.62,.45,1.26,.58,1.93,.13,.66,.19,1.35,.19,2.05s-.06,1.38-.19,2.05c-.13,.67-.32,1.31-.58,1.93-.25,.61-.55,1.19-.9,1.72-.35,.54-.74,1.04-1.18,1.5-.44,.46-.91,.87-1.42,1.23-.51,.36-1.06,.68-1.64,.95h0c-.59,.27-1.2,.48-1.83,.62-.63,.14-1.28,.2-1.94,.2s-1.32-.07-1.94-.2c-.63-.14-1.24-.34-1.83-.61h0c-.58-.28-1.13-.59-1.64-.96-.51-.36-.98-.77-1.42-1.23-.44-.46-.83-.96-1.17-1.5-.13-.21-.26-.43-.38-.65-.18,.23-.37,.45-.56,.68-.23,.27-.5,.56-.8,.88h0c-.29,.31-.6,.6-.93,.88-.33,.29-.67,.56-1.02,.81h0c-.37,.27-.74,.51-1.13,.72-.4,.22-.81,.42-1.23,.6-.44,.18-.89,.32-1.36,.42-.46,.09-.93,.14-1.41,.14-.53,0-1.04-.09-1.53-.27-.48-.18-.93-.44-1.36-.78-.4-.33-.76-.67-1.1-1.03-.34-.36-.65-.74-.93-1.14h0c-.27-.39-.52-.76-.74-1.13-.22-.37-.41-.72-.57-1.06h0s-.07-.15-.07-.15l-.11,.19h0c-.2,.34-.44,.7-.71,1.07-.26,.36-.56,.73-.9,1.12-.35,.4-.72,.78-1.12,1.14-.4,.36-.84,.7-1.31,1.02-.49,.34-1.01,.59-1.55,.76-.55,.17-1.11,.26-1.71,.26s-1.19-.06-1.74-.19c-.55-.13-1.07-.32-1.53-.57-.46-.25-.89-.55-1.26-.89-.38-.35-.7-.73-.98-1.16h0c-.28-.42-.51-.88-.7-1.38-.05-.12-.09-.25-.13-.38-.03,.03-.06,.06-.08,.1-.34,.39-.72,.79-1.16,1.2-.44,.42-.92,.81-1.43,1.19-.51,.37-1.06,.72-1.65,1.06h0c-.62,.35-1.26,.6-1.93,.78-.67,.17-1.37,.26-2.1,.26-.59,0-1.15-.09-1.68-.26-.53-.17-1.02-.42-1.48-.76-.44-.33-.85-.71-1.22-1.15-.37-.43-.71-.92-1.02-1.46-.29-.52-.56-1.06-.79-1.63Z"/><g class="cls-16"><rect class="cls-1" width="184.92" height="74.54"/></g></g><g><path class="cls-20" d="M108.82,86.74c-.39,1.16-.93,1.28-1.25,1.09l.06,.03-.1-.13c-1.32-1.64-1.67-5.14-1.67-8.35,0-1.73,.1-3.41,.23-4.59l.35,.26c.51,.55,1.03,1.22,1.45,1.99,.8,1.57,1.22,3.44,1.35,5.2,.03,.48,.06,1,.06,1.45,0,1.22-.16,2.28-.48,3.05m-1.45,1.86c.74,.39,1.28,.32,1.64,.06,.35-.26,.67-.71,.87-1.29,.35-.9,.51-2.15,.51-3.53,0-.39,0-.77-.03-1.19-.13-1.86-.61-3.85-1.51-5.62-.51-.87-1.03-1.7-1.77-2.41l-.55-.45,.29,.03c.26,.03,.67,.03,1.19,.03,1.41,0,3.53-.1,4.47-.39,1.29-.42,1.25-1.16,.61-.96-.58,.22-6.39,.39-6.78,.35h-.13l-.03-.19c.06-1.9,.58-8.13,.77-9.41,.06-.19-.16-.51-.48-.67-.29-.16-.58-.16-.61,.03-.26,1.32-.77,7.58-.8,9.51l.03,.61-.8-.16c-.67-.16-.42,.67,.26,.87l.55,.26c-.1,1.32-.19,3.05-.19,4.88,0,3.76,.45,7.9,2.41,9.57,.03,.03,.06,.06,.1,.06Z"/><g class="cls-11"><rect class="cls-15" x="103.58" y="62.81" width="10.18" height="26.18"/></g></g><g><path class="cls-7" d="M113.38,72.93l.06-.06c.45,.29,1.06,.48,1.8,.61,.51,1.16-.19,2.99-1.61,3.05-.61,.03-.96-.32-1.12-1.25-.16-.9,.45-2.02,.87-2.35m7.93,.26c.77-.26,1-.67,.06-.64-.29,0-1.54,.13-3.05,.13-.74,0-1.57-.03-2.38-.13-.48-.58-1.19-1-2.06-1.12-.64-.03-.87,.32-1,.77-.06,0-.1,.03-.16,.03-.74,.26-1.57,1.8-1.35,3.15,.16,.9,.96,1.9,2.15,1.96,1.48,.1,2.79-.71,3.08-2.31,.1-.48,.06-.96-.06-1.38,1.96,.1,4.05-.19,4.75-.45Z"/><g class="cls-8"><rect class="cls-25" x="111.16" y="71.39" width="11.15" height="6.04"/></g></g><g><path class="cls-19" d="M120.99,76.78c.13,.48,1.19,.9,1.16,.48,.13-.93,.13-1.12,.22-1.38,.77-2.22,3.44-4.18,5.04-4.14l-.03,.26c-.03,.26,.42,.45,.87-.06,.22-.26-.22-.93-.96-1.06-1.77-.29-4.14,1.57-4.95,2.6l.03-1.25c0-.19-.19-.51-.48-.67-.32-.16-.64-.16-.64,.06-.45,4.05-.39,4.88-.26,5.17"/><g class="cls-17"><rect class="cls-10" x="120.8" y="70.58" width="7.68" height="7.1"/></g></g><g><path class="cls-26" d="M134.84,75.79c.1,.39,.93,1.03,1.19,.8,1.25-1.09,2.15-2.79,3.79-3.85,.29,1.25,.48,1.99,.8,2.7,.19,.35,.8,.67,1.06,.55,.87-.58,1.67-1.22,3.12-2.41,.1,.29,.26,.64,.48,.96,.29,.39,.61,.77,1.09,1.09,.71,.45,1.48,.64,2.15,.64,1.83,0,3.92-1.57,4.4-2.44,.39-.71-.03-.96-.13-.8-.45,.77-3.95,2.35-4.98,2.35-.45,0-.84-.16-1.19-.39-.64-.55-.8-1.7-1.12-2.35-.22-.35-.84-.67-1.06-.51l-3.12,2.54c-.29-1.12-.32-1.8-.67-2.63-.26-.35-.8-.67-1.06-.55-1.38,.67-2.47,1.96-3.6,3.18-.03-1.06,.1-1.64,.06-2.47,.1-.42-.96-1.12-1.06-.58-.13,.8-.22,1.73-.22,2.76,0,.45,.03,.93,.06,1.41"/><g class="cls-12"><rect class="cls-5" x="134.77" y="71.07" width="18.54" height="5.75"/></g></g><g><path class="cls-3" d="M155.11,72.45c.35,.35-.55,1.22-1.9,1.83-.03-.8,1.22-2.51,1.9-1.83m2.09,5.01c2.22-.13,4.27-1.7,5.17-3.57,.45-.9,.58-1.64-.16-.87-1.35,1.41-3.6,3.66-6.62,3.66-1.12,0-2.25-1.03-2.35-1.64,1.12,0,2.51-.77,2.92-1.8,.35-.93-.58-1.9-1.57-1.9-1.57,.06-2.54,1.51-2.54,2.92,0,.32,.06,.64,.16,.93,.64,1.99,3.08,2.35,4.98,2.25Z"/><g class="cls-21"><rect class="cls-2" x="152.06" y="71.35" width="10.89" height="6.2"/></g></g><g><path class="cls-4" d="M161.95,76.2c.03,.51,1.16,.8,1.12,.39l.03-.74c.61-1.35,3.05-2.89,5.43-3.15-.06,.39-.1,.74-.1,1.09,0,.58,.1,1.12,.42,1.61,.58,.84,1.61,1.22,2.54,1.22,2.25,0,4.34-1.7,5.11-2.7,.48-.61,.35-1.32,.23-1.25-1.03,.51-3.82,3.05-5.81,3.05-.42,0-.77-.1-1.09-.35-.42-.61-.06-1.83-.06-2.38,0-.48-.58-1.06-1.19-1.12-1.8-.19-4.11,.96-5.2,1.77l.06-1.09c.03-.19-.26-.48-.51-.64-.32-.13-.64-.1-.64,.13l-.32,3.21c-.06,.39-.03,.71,0,.96"/><g class="cls-9"><rect class="cls-6" x="161.89" y="71.68" width="15.1" height="5.33"/></g></g></svg>