<?xml version="1.0" encoding="UTF-8"?><svg id="Layer_1" xmlns="http://www.w3.org/2000/svg" xmlns:xlink="http://www.w3.org/1999/xlink" viewBox="0 0 179.18 76.35"><defs><style>.cls-1{fill:#fff;}.cls-2{clip-path:url(#clippath-2);}.cls-3{clip-path:url(#clippath-6);}.cls-4{clip-path:url(#clippath-7);}.cls-5{clip-path:url(#clippath-1);}.cls-6{clip-path:url(#clippath-4);}.cls-7{clip-path:url(#clippath-9);}.cls-8{clip-path:url(#clippath);}.cls-9{clip-path:url(#clippath-3);}.cls-10{clip-path:url(#clippath-8);}.cls-11{clip-path:url(#clippath-5);}</style><clipPath id="clippath"><path class="cls-1" d="m87.82,70.26s-.05.06-.07.1c-.02.03-.04.06-.06.1.08,0,.16,0,.26.03h0s.04.01.06.04c.01.03.02.06.04.1.01.04.02.09.01.14v.1s-.04.05-.06.05h-.11c-.08.01-.16.04-.26.1,0,.03.01.05.02.06,0,.02.02.03.03.05l.03.03s.02.02.02.03.01.02.02.03c.02.01.03.03.04.04s.03.03.05.04c.08.06.16.1.26.13s.19.04.29.04c.08-.1.14-.2.18-.3.04-.1.08-.2.1-.3.06-.23.08-.4.06-.52-.02-.12-.03-.2-.05-.23-.03-.06-.07-.11-.13-.14s-.13-.04-.21-.03c-.08,0-.17.04-.26.1-.09.05-.18.13-.27.23m-.74,1.42c-.05.11-.08.2-.09.26v.11s0,.07.02.09c.02.04.05.07.09.09.03.02.08.03.14.03s.13-.02.23-.06c.06-.03.12-.06.19-.09l.21-.12c.13-.08.22-.16.3-.24-.24-.01-.44-.1-.62-.25-.08-.07-.14-.16-.18-.26-.01.01-.02.03-.03.04s-.02.03-.03.04-.02.03-.04.06c-.02.03-.04.05-.06.09-.02.04-.04.08-.06.12s-.03.07-.05.11l-.02-.02Zm-8.37,4.12c.04-.05.13-.14.25-.28.12-.13.26-.3.43-.5s.36-.43.56-.69c.21-.26.43-.54.65-.84-.41.39-.76.74-1.05,1.05-.29.31-.48.52-.56.64-.07.11-.13.22-.17.32s-.08.2-.11.29h0Zm4.8-3.72c.23-.06.43-.15.59-.25.16-.1.3-.22.42-.35-.18.08-.33.15-.45.23-.13.07-.23.14-.31.19-.1.07-.18.13-.25.18Zm-1.88-.05l.03-.04c.03-.05.07-.13.14-.23.07-.1.14-.21.22-.34s.16-.26.25-.39c.09-.14.17-.26.25-.38.08-.12.14-.22.2-.31s.09-.15.11-.19c0-.01.02-.03.03-.05.01-.01.02-.03.04-.05l.06-.06s.01,0,.02-.02c0,0,.02-.02.04-.03.01,0,.02-.01.04-.02.01,0,.03-.01.04-.02.07-.03.14-.06.23-.09.09-.03.18-.06.26-.07s.14-.01.19,0,.06.05.04.11c-.02.03-.03.05-.05.07-.02.02-.04.05-.06.07h0c-.08.12-.16.23-.24.35-.07.1-.15.22-.24.34-.09.13-.18.25-.27.38.21-.16.42-.31.62-.45.2-.14.38-.27.56-.38.17-.11.33-.2.48-.28.15-.07.27-.12.37-.15.14-.03.26-.02.36.04.09.05.16.14.22.28s.07.34.03.63v.16c.08-.02.16-.04.25-.05s.17-.03.26-.04c.19-.03.39-.06.6-.07.12,0,.25-.02.38-.02.03-.03.06-.05.09-.07.11-.08.18-.12.2-.13h.02c.03-.09.06-.17.11-.25.04-.07.09-.14.13-.19s.09-.1.13-.14l.09-.09c.05-.05.12-.09.2-.13.08-.04.16-.07.24-.09.08-.02.16-.03.25-.03s.16.02.22.05c.04.03.09.06.13.1s.08.1.11.17c0,.02.01.04.02.06,0,.02.01.04.02.06.02.08.03.17.04.27,0,.1,0,.22-.03.35v.02c-.03.15-.06.28-.11.38-.04.11-.08.19-.11.26-.03.05-.05.08-.05.08h-.02s.09-.02.13-.03.08-.03.13-.04c.15-.05.29-.11.42-.18s.25-.13.36-.2c.06-.04.12-.07.18-.11.03-.03.07-.05.1-.08.25-.21.46-.39.62-.54-.09-.06-.16-.14-.19-.24-.04-.1-.05-.21-.05-.32,0-.1.02-.19.07-.28.04-.08.09-.15.15-.21.06-.07.13-.13.21-.18.07.01.14.03.2.06.05.03.1.06.14.1.05.04.08.09.09.16l-.02.02-.02.02-.03.03c-.06.06-.12.13-.17.21-.03.05-.05.09-.06.14-.01.05-.02.09,0,.14v.03c.03.11.08.16.17.15.04,0,.08-.02.12-.03.04-.02.08-.03.12-.04.24-.09.42-.12.57-.1.04.01.09.03.14.05.05.02.1.06.14.11.08.09.09.21.05.35-.05.14-.12.29-.23.45s-.22.32-.35.47c-.13.16-.25.3-.34.43-.1.13-.16.24-.18.32-.02.09.02.13.13.14.1.01.22,0,.36-.04.13-.04.27-.09.42-.16.15-.07.3-.15.45-.23.15-.09.3-.18.44-.28.34-.22.69-.47,1.04-.76h.3c-.41.35-.82.66-1.22.92-.17.11-.35.22-.53.32s-.37.19-.55.27c-.18.08-.36.14-.53.17-.17.04-.33.05-.47.03-.18-.02-.29-.08-.34-.17-.05-.09-.06-.21-.03-.34s.08-.27.17-.42.17-.29.27-.43c.09-.14.18-.26.26-.37s.13-.19.16-.24c.01-.02.02-.04.03-.07.01-.05,0-.08,0-.09-.01-.02-.03-.03-.06-.03h-.1c-.12.03-.2.04-.26.04h-.15s-.07.07-.1.11c-.03.03-.05.06-.08.09s-.05.05-.08.07c-.03.03-.06.05-.09.07-.04.02-.07.05-.11.08-.09.07-.19.14-.29.21s-.19.13-.26.18c-.09.06-.18.12-.27.17l-.03-.03c-.12.07-.26.14-.4.21-.22.11-.44.19-.67.23h-.05c-.13.14-.28.28-.45.41-.18.13-.39.25-.65.36-.03.01-.05.02-.08.03-.03,0-.05.02-.07.03-.11.03-.2.05-.28.05s-.14,0-.2-.01-.11-.03-.16-.06c-.04-.03-.07-.06-.09-.1-.02-.03-.05-.06-.07-.1-.06-.1-.08-.22-.07-.38,0-.06.01-.14.04-.24.04-.13.09-.25.16-.38.07-.12.15-.24.23-.35.05-.07.11-.13.16-.19-.13.02-.25.04-.37.06-.4.07-.76.15-1.08.24-.08.22-.2.4-.37.56-.16.15-.34.28-.54.37-.2.1-.4.17-.6.21s-.38.07-.53.07c-.11-.03-.18-.07-.2-.14-.02-.06-.03-.12-.03-.15,0-.02,0-.04.02-.06.11-.1.26-.22.46-.34.2-.13.44-.25.74-.36.04-.02.09-.04.14-.05.05-.02.09-.03.14-.05.03-.04.05-.08.07-.12s.04-.07.06-.11c.05-.11.09-.22.11-.32.03-.1.05-.19.06-.27.02-.09.02-.17.02-.25-.35.15-.72.37-1.11.63-.39.27-.8.57-1.21.89-.06.04-.12.09-.18.14s-.12.09-.18.14l-.12.16c-.12.17-.23.33-.34.48-.1.15-.19.28-.25.37-.3.46-.6.91-.93,1.34-.32.43-.64.81-.97,1.12-.07.06-.15.15-.25.25s-.21.2-.32.29c-.11.1-.21.18-.31.25s-.17.11-.22.11c-.07,0-.12-.01-.16-.06-.04-.05-.06-.07-.06-.08s-.01-.03-.02-.04c0-.01-.01-.03-.02-.05h0s-.01-.08-.02-.17c0-.09,0-.2.03-.34.02-.14.08-.29.16-.46s.2-.35.37-.53c.09-.1.22-.23.37-.37s.33-.31.53-.5c.08-.07.16-.14.24-.22.08-.08.17-.15.26-.23.16-.15.34-.3.51-.46.18-.16.36-.32.56-.48l.09-.12.1-.16-.09.05Zm39.13-1.73s-.05-.06,0-.14c.04-.08.09-.18.16-.28.07-.1.13-.21.19-.31.06-.11.08-.19.06-.26v-.03s.04-.06.1-.1c.04-.03.12-.07.23-.12s.22-.08.31-.09c.1,0,.16.02.2.08.04.06,0,.2-.1.4-.08.14-.17.27-.28.4-.11.12-.22.27-.33.43-.09,0-.17.01-.24.02-.06,0-.12.01-.18.01s-.1,0-.13-.01h0Zm5.87-3.05c.03-.11,0-.14-.1-.09s-.24.15-.41.3c-.17.15-.36.33-.58.53-.22.21-.42.41-.61.61s-.36.38-.51.53-.23.25-.27.3c.42-.26.8-.53,1.14-.78.15-.11.29-.23.44-.35.15-.12.28-.24.4-.37.12-.12.22-.24.31-.36s.15-.23.18-.33h.01Zm-13.83,4.73s-.09-.06-.14-.11c-.06-.04-.11-.1-.16-.16-.05-.06-.08-.13-.09-.2-.01-.06,0-.11.02-.17-.11.08-.21.15-.32.22-.15.1-.31.2-.47.29-.16.09-.31.18-.46.25s-.29.13-.43.17c-.13.04-.25.05-.35.05-.15-.01-.29-.05-.42-.11-.11-.05-.21-.13-.3-.23-.09-.1-.15-.25-.16-.45-.01-.13,0-.25,0-.37.02-.12.03-.22.05-.31.02-.1.05-.2.07-.28-.39.31-.75.59-1.08.83-.14.1-.28.2-.42.3-.14.1-.27.19-.39.27-.12.08-.22.14-.31.18-.09.05-.15.07-.19.07-.22,0-.38-.04-.46-.14-.04.03-.09.07-.13.1-.44.32-.89.62-1.35.9-.45.29-.92.53-1.4.72-.48.2-.98.33-1.49.42-.51.08-1.05.07-1.61-.02-.12-.02-.23-.04-.33-.07s-.2-.05-.3-.09c-.37-.13-.66-.3-.87-.51s-.37-.43-.47-.68c-.1-.24-.16-.49-.18-.74s-.01-.49.02-.72.07-.43.12-.6c.05-.18.09-.31.11-.4.09-.29.2-.56.32-.82.12-.25.24-.48.35-.66.13-.22.25-.42.39-.62.42-.6.83-1.12,1.23-1.57.41-.44.8-.83,1.18-1.15s.75-.58,1.1-.79.67-.37.97-.5c.7-.29,1.37-.42,1.99-.4.15,0,.3.04.43.11.11.05.22.13.32.24s.18.26.22.44c.01.05.02.11.02.16v.18c0,.07,0,.14-.02.21-.03.04-.06.07-.1.11-.03.03-.07.06-.12.1-.05.03-.11.06-.19.07h0s-.02-.01-.03-.04v-.04c-.01-.05-.02-.1-.03-.16,0-.05-.02-.1-.03-.15-.02-.05-.03-.1-.04-.14v-.02h0c-.04-.13-.1-.22-.16-.29-.07-.07-.13-.12-.21-.15-.07-.03-.14-.05-.21-.06-.07,0-.12-.01-.16-.01-.2-.01-.49.04-.87.16-.38.12-.82.34-1.32.65-.49.31-1.02.72-1.58,1.24-.56.52-1.11,1.15-1.65,1.91-.54.75-.93,1.46-1.19,2.12-.25.66-.35,1.24-.29,1.73.06.49.29.88.69,1.17s.98.44,1.74.45c.62.01,1.21-.09,1.79-.29.57-.21,1.12-.48,1.64-.8.52-.33,1.02-.69,1.51-1.08.11-.09.22-.18.33-.27.05-.05.11-.11.18-.19.12-.11.26-.24.43-.38s.35-.28.54-.43c.19-.14.39-.28.59-.41.2-.13.39-.23.58-.32s.35-.15.49-.18c.14-.02.26-.02.38,0,.1.03.19.09.28.17s.15.22.19.42v.03s-.01,0-.02-.02c-.02-.04-.05-.08-.09-.13-.04-.04-.09-.08-.15-.11-.06-.03-.13-.05-.21-.05s-.16.02-.25.07c-.08.05-.2.11-.35.21-.15.09-.31.2-.48.32-.17.12-.34.25-.52.39s-.34.27-.48.4c-.14.13-.26.25-.35.36s-.13.2-.13.26c.02,0,.06-.03.12-.06.05-.03.12-.08.21-.14s.21-.14.36-.25.31-.24.49-.38.35-.28.51-.4c.16-.13.31-.23.44-.32.13-.09.22-.14.27-.15.14-.03.26,0,.35.07l.02.02c.05.05.09.12.1.19.01.08,0,.15-.02.22-.03.06-.06.17-.09.32-.04.15-.06.31-.07.46,0,.16,0,.3.05.42.04.12.13.18.26.17.1,0,.23-.03.37-.08s.29-.12.45-.2c.16-.08.32-.17.48-.27s.31-.19.45-.29c.14-.09.27-.18.39-.26l.06-.04c.06-.09.12-.18.18-.26.08-.11.15-.21.21-.31s.1-.17.12-.23c.01-.03.03-.07.06-.1.03-.04.06-.05.11-.03.03.02.08.05.13.08.05.04.1.08.14.13.04.05.07.1.09.16.02.06,0,.12-.03.17-.05.07-.11.15-.18.23s-.14.16-.2.24c-.07.08-.12.15-.17.22-.05.07-.08.12-.1.16.35-.32.69-.6,1-.84.14-.1.28-.2.42-.29.14-.09.28-.17.42-.24.13-.07.26-.12.37-.15.12-.03.21-.04.3,0,.16.04.26.15.3.3s.02.34-.03.54c-.06.21-.15.43-.28.66s-.28.44-.44.64c.13-.12.27-.24.42-.37.13-.11.29-.23.46-.37.18-.14.36-.27.56-.42.19-.14.37-.26.56-.38.18-.12.36-.22.52-.3.16-.08.32-.14.46-.18s.26-.05.36-.03c.04.01.09.03.14.05.05.02.1.06.14.11.08.09.09.21.04.35-.05.14-.12.29-.23.45-.1.16-.22.32-.36.47-.13.16-.25.3-.34.43s-.15.24-.18.32c-.03.09.01.13.12.14.1.01.22,0,.36-.04s.27-.09.42-.16c.15-.07.29-.15.45-.23.15-.09.3-.18.44-.28.17-.11.35-.23.53-.36.1-.13.19-.25.28-.35.02-.03.08-.06.18-.1s.21-.08.31-.11c.11-.03.2-.04.28-.03.08,0,.1.04.08.11-.11.16-.24.33-.39.51s-.28.34-.4.49c-.11.15-.19.28-.23.39s0,.16.11.17c.1.01.22,0,.36-.04.13-.04.27-.09.42-.16.15-.07.29-.15.45-.23.15-.09.3-.18.44-.28.26-.16.52-.35.78-.55h0c.03-.14.07-.27.12-.4.13-.29.28-.57.46-.84s.35-.49.5-.68c.03-.03.05-.06.07-.09s.05-.05.07-.08c.3-.34.63-.67,1-.99.36-.33.76-.64,1.19-.93.07-.04.13-.07.19-.1.05-.02.11-.03.17-.04.06,0,.11,0,.17.02.03.01.07.05.12.11.04.06.06.14.06.25s-.04.24-.12.39-.22.34-.43.55c-.21.21-.49.45-.86.72-.36.27-.84.57-1.41.9l-.15.17c-.06.07-.12.16-.18.26-.07.1-.13.21-.19.32-.06.12-.12.24-.17.37-.05.13-.08.26-.11.4,0,.04,0,.08-.01.11v.11c0,.15.03.3.08.43h0s.06.07.1.09.09.03.15.02c.1,0,.23-.03.37-.08s.29-.12.45-.2c.16-.08.32-.17.48-.27h.02c.05-.07.12-.15.21-.24.12-.11.26-.24.43-.38s.35-.28.54-.43c.19-.14.39-.28.59-.41.2-.13.39-.23.58-.32s.35-.15.49-.18c.14-.02.26-.02.38,0,.1.03.19.09.28.17s.15.22.19.42v.03s0,0-.02-.02c-.02-.04-.05-.08-.09-.13-.04-.04-.09-.08-.15-.11s-.13-.05-.21-.05-.16.02-.25.07c-.08.05-.2.11-.35.21-.15.09-.31.2-.48.32-.17.12-.34.25-.52.39s-.34.27-.48.4c-.14.13-.26.25-.35.36s-.13.2-.13.26c.02,0,.06-.03.12-.06.05-.03.12-.08.21-.14s.21-.14.36-.25.31-.24.49-.38.35-.28.51-.4c.16-.13.31-.23.44-.32s.22-.14.27-.15c.14-.03.26,0,.35.07l.02.02c.06.05.09.12.1.19,0,.08,0,.15-.02.22-.03.06-.06.17-.09.32-.04.15-.06.31-.07.46,0,.16,0,.3.05.42.04.12.13.18.26.17.1,0,.23-.03.37-.08s.29-.12.45-.2c.16-.08.32-.17.48-.27.16-.1.31-.19.45-.29.14-.09.27-.18.39-.26s.21-.14.27-.19h.28c-.39.31-.76.58-1.11.81-.15.1-.31.2-.47.29-.16.09-.31.18-.46.25-.15.07-.29.13-.43.17-.13.04-.25.05-.35.05-.15-.01-.29-.05-.42-.11-.11-.05-.21-.13-.3-.23-.09-.1-.15-.25-.16-.45,0-.13,0-.25,0-.37.02-.12.03-.22.05-.31.02-.1.05-.2.07-.28-.39.31-.75.59-1.08.83-.14.1-.28.2-.42.3-.14.1-.27.19-.39.27-.12.08-.22.14-.31.18-.09.05-.15.07-.19.07-.27,0-.44-.06-.51-.21-.03-.06-.04-.12-.03-.19-.09.05-.18.1-.26.15-.14.08-.28.15-.41.2-.13.06-.25.1-.36.13h-.02c-.18.05-.35.04-.54-.03-.02-.01-.04-.03-.07-.04-.02-.01-.04-.03-.07-.04-.13-.12-.21-.24-.25-.39-.02-.05-.03-.09-.03-.13s-.01-.09-.02-.13v-.29c-.2.15-.4.29-.6.42-.17.11-.35.22-.53.32-.19.1-.37.19-.55.27-.18.08-.36.14-.53.17-.17.04-.33.05-.47.03-.21-.03-.34-.1-.37-.23-.03-.13-.01-.28.06-.45.02-.06.05-.12.08-.18-.03.02-.07.04-.1.06-.17.11-.35.22-.53.32-.19.1-.37.19-.55.27-.18.08-.36.14-.53.17-.17.04-.33.05-.47.03-.18-.02-.29-.08-.34-.17-.05-.09-.06-.21-.03-.34s.09-.27.17-.42.17-.29.27-.43.18-.26.26-.37.13-.19.16-.24c.03-.04.04-.09.04-.14,0,0-.02-.02-.06-.05-.04-.03-.13-.01-.26.04-.13.05-.33.17-.59.36-.26.19-.6.49-1.04.91-.32.3-.59.56-.8.77l-.51.51c-.13.13-.22.24-.28.31s-.1.13-.12.16c-.03.03-.06.04-.08.03-.03-.02-.07-.04-.12-.08-.05-.03-.09-.08-.12-.13-.03-.05-.05-.12-.06-.18,0-.07.02-.15.08-.24.29-.39.55-.76.77-1.11.09-.15.18-.3.27-.45.09-.15.16-.29.22-.43.06-.13.11-.26.14-.37s.04-.2.02-.27c-.02-.08-.09-.1-.21-.06s-.27.12-.44.23c-.17.12-.36.25-.56.42-.2.16-.39.32-.58.48s-.35.31-.5.45-.25.24-.32.3c-.03.03-.05.04-.07.04h-.05l-.04.02Zm31.41.99c-.16-.17-.33-.36-.51-.56s-.35-.39-.51-.58c-.16-.18-.31-.35-.43-.49-.13-.14-.21-.24-.26-.3-.03,0-.05,0-.07-.04-.02-.03-.03-.07-.04-.12-.03-.06-.04-.12-.02-.17,0-.05.03-.09.06-.13s.07-.08.12-.12c.05-.05.12-.06.21-.06h.36c.31-.03.6-.07.86-.13.26-.05.5-.09.71-.12.07,0,.14-.02.23-.03.09-.02.19-.03.28-.04.1-.01.2-.03.3-.04.1-.02.19-.03.27-.05.5-.12.9-.25,1.19-.41.29-.15.49-.27.6-.35.24-.18.45-.37.63-.57.18-.2.33-.39.45-.58.12-.21.23-.42.34-.63.19-.45.33-.87.4-1.27.03-.17.06-.34.07-.5,0-.17,0-.32-.02-.47-.02-.14-.07-.28-.14-.39-.07-.12-.18-.21-.31-.27-.18-.08-.4-.08-.68,0-.28.07-.6.21-.95.41-.35.2-.73.45-1.13.75-.4.3-.82.64-1.25,1.02-.6.53-1.19,1.12-1.78,1.75s-1.15,1.27-1.68,1.9c-.46.63-.99,1.31-1.6,2.05l-.07.09s-.06.07-.09.11-.06.08-.1.13c-.06.06-.12.14-.2.23-.08.09-.16.18-.24.26s-.16.15-.24.21-.14.09-.18.09c-.02,0-.04,0-.06-.03,0-.02-.03-.06-.05-.12-.02-.06-.04-.12-.05-.2,0-.07,0-.15,0-.24.02-.09.06-.17.12-.25.08-.08.22-.24.42-.46.2-.23.43-.49.69-.8.26-.31.54-.65.84-1.01s.58-.73.86-1.1c.28-.37.54-.72.77-1.07.24-.34.42-.65.56-.91.21-.41.39-.79.53-1.16s.24-.71.3-1.03.08-.6.06-.84-.09-.45-.2-.61c-.1-.14-.31-.23-.65-.28-.33-.05-.75-.04-1.26.04s-1.09.23-1.75.45c-.66.23-1.36.54-2.11.96-.16.09-.31.18-.46.27-.15.09-.29.18-.42.27-.14.09-.29.18-.44.28-.15.1-.3.19-.44.28s-.26.17-.37.24-.19.13-.24.16c-.06.04-.1.06-.13.07h-.06s0-.03,0-.06c.03-.14.09-.28.17-.41.08-.13.17-.26.28-.37.1-.12.2-.22.3-.31s.19-.16.26-.22c.58-.41,1.26-.8,2.03-1.15.77-.36,1.66-.65,2.66-.88.09-.02.21-.04.35-.06s.3-.04.47-.05c.17,0,.34,0,.52,0,.18,0,.35.03.51.07.21.06.42.16.62.3s.36.33.49.57c.12.23.2.48.25.75.04.28.03.6-.04.96-.07.36-.21.77-.4,1.23-.2.46-.47.98-.83,1.57l.63-.7c.46-.49.93-.96,1.41-1.43.49-.46.97-.86,1.44-1.2s.94-.6,1.38-.78c.45-.18.86-.24,1.25-.16.32.08.58.24.76.5.08.11.14.24.2.41.06.16.09.35.09.57s0,.48-.06.77c-.05.29-.14.62-.27.99-.06.17-.13.33-.21.49-.08.16-.17.31-.26.46-.03.05-.09.14-.17.26s-.19.26-.34.41c-.14.15-.31.32-.51.49s-.43.33-.69.47c-.15.08-.35.17-.6.27s-.51.19-.79.26c-.12.03-.25.06-.39.09-.15.03-.29.05-.45.07-.15.02-.3.04-.45.06s-.28.03-.39.04h0c-.05,0-.1.01-.14.01h-.07c-.21.02-.4.04-.54.06-.15.02-.28.04-.39.06.15.17.34.39.55.66.21.27.47.62.76,1.03l.18.25c.27.34.52.63.74.86.23.23.46.46.7.68.23.21.43.37.59.47s.3.16.4.18c.11.02.19.01.25-.02.06-.04.11-.08.14-.14.04-.06.06-.12.08-.18s.04-.11.05-.14c.04-.08.08-.1.1-.08,0,.01.02.03.02.06-.08.21-.17.37-.29.46-.12.1-.24.15-.37.16-.13.01-.27,0-.41-.05s-.27-.11-.4-.19c-.12-.06-.21-.13-.29-.18-.08-.06-.15-.12-.21-.17-.06-.06-.12-.12-.18-.18-.05-.06-.12-.14-.19-.21-.08-.08-.16-.15-.22-.22-.07-.07-.13-.15-.2-.22-.07-.08-.13-.16-.21-.24-.07-.08-.15-.17-.23-.27-.19-.21-.35-.41-.5-.59-.15-.18-.28-.34-.39-.47-.13-.15-.24-.29-.34-.42,0,.06.03.16.13.31.1.15.22.32.36.5s.29.36.44.54c.15.18.27.33.35.45.12.13.24.27.37.42.12.15.25.33.37.53l-1.31-1.45.04-.04Zm32.12-1.72c-.44.16-.76.33-.96.51-.2.18-.32.33-.36.47s0,.23.08.28c.09.06.22.04.37-.04.16-.09.31-.25.46-.47.15-.22.29-.47.41-.75Zm-3.12-.5s-.02.02-.03.03h-.02l-.02.02.15-.03c.15-.04.28-.09.4-.16.12-.07.2-.12.24-.15.02-.01.04-.04.06-.09v-.04c0-.06,0-.08-.07-.07-.06,0-.15.04-.26.13-.07.04-.14.09-.21.15-.07.06-.15.12-.23.18h0v.03Zm-9.19-.24c-.17.12-.34.25-.51.38s-.32.26-.46.38c-.14.12-.25.24-.33.34s-.12.19-.12.25c.02.01.06,0,.12,0,.05-.01.12-.05.21-.1.09-.05.22-.13.38-.24.12-.08.24-.16.37-.26.13-.1.26-.2.39-.3.13-.11.26-.21.38-.32.12-.11.23-.22.33-.32.02-.01.04-.04.08-.08.04-.04.05-.09.04-.15,0-.04-.05-.04-.14,0s-.19.09-.29.15c-.11.06-.21.13-.3.18-.09.06-.15.09-.16.1h0Zm-3,5.34s.11-.12.26-.29.35-.4.59-.68c.24-.28.5-.61.8-.99.29-.38.59-.78.89-1.22-.21.13-.41.26-.6.41-.2.14-.38.29-.56.45-.02.02-.1.1-.25.25-.14.15-.3.32-.47.52-.13.14-.25.29-.36.43-.11.15-.2.28-.26.4-.02.05-.05.14-.07.26-.03.12-.02.28.02.46h.01Zm-3.45-8.59c.03-.11,0-.14-.1-.09s-.24.15-.41.3-.36.33-.58.53c-.22.21-.42.41-.61.61s-.36.38-.51.53-.23.25-.27.3c.42-.26.8-.53,1.14-.78.15-.11.29-.23.44-.35.15-.12.28-.24.4-.37.12-.12.22-.24.31-.36s.15-.23.18-.33h.01Zm-4.71,3.25c-.16.12-.33.25-.5.38s-.32.26-.46.38c-.13.12-.24.24-.33.34s-.12.19-.12.25c.02,0,.06-.03.12-.06.05-.03.12-.08.21-.14.09-.06.21-.14.37-.25.12-.08.24-.18.38-.29s.27-.22.41-.32c.13-.11.26-.21.38-.3.12-.09.22-.17.31-.23.02-.01.04-.04.08-.07.04-.03.05-.08.05-.14,0-.04-.05-.04-.14,0s-.19.09-.3.15c-.11.06-.21.13-.3.18-.09.06-.15.09-.16.1v.02Zm-3.46-.23s-.05.06-.07.1c-.02.03-.04.06-.06.1.08,0,.16,0,.26.03h0s.04.01.06.04c0,.03.02.06.04.1,0,.04.02.09,0,.14v.1s-.04.05-.06.05h-.11c-.08.01-.16.04-.26.1,0,.03,0,.05.02.06,0,.02.02.03.03.05,0,.01.02.02.03.03,0,0,0,.02.02.03,0,.01,0,.02.02.03.02.01.03.03.05.04,0,.01.03.03.05.04.08.06.16.1.26.13.1.03.19.04.29.04.08-.1.14-.2.18-.3.04-.1.08-.2.1-.3.06-.23.08-.4.06-.52-.02-.12-.03-.2-.05-.23-.03-.06-.07-.11-.13-.14s-.13-.04-.21-.03c-.08,0-.17.04-.26.1-.09.05-.18.13-.27.23v-.02Zm-.74,1.42c-.05.11-.08.2-.09.26v.11s0,.07.02.09c.02.04.05.07.09.09.03.02.08.03.14.03s.13-.02.23-.06c.06-.03.12-.06.19-.09.07-.04.14-.08.21-.12.13-.08.22-.16.3-.24-.24-.01-.44-.1-.62-.25-.08-.07-.14-.16-.18-.26,0,.01-.02.03-.03.04s-.02.03-.03.04-.02.03-.04.06c-.02.03-.04.05-.06.09-.02.04-.04.08-.06.12s-.03.07-.05.11l-.02-.02Zm-.62.68c-.06-.1-.08-.22-.07-.38,0-.06,0-.14.04-.24.04-.13.09-.25.16-.38.07-.12.15-.24.23-.35.12-.15.23-.26.34-.34.11-.08.18-.12.2-.13h.02c.03-.09.06-.17.11-.25.04-.07.09-.14.13-.19.04-.05.09-.1.13-.14.04-.04.07-.07.09-.09.05-.05.12-.09.2-.13s.16-.07.24-.09.16-.03.25-.03.16.02.22.05c.04.03.09.06.13.1.04.04.08.1.12.17,0,.02,0,.04.02.06,0,.02,0,.04.02.06.02.08.03.17.04.27,0,.1,0,.22-.03.35v.02c-.03.15-.06.28-.11.38-.04.11-.08.19-.11.26-.03.05-.05.08-.05.08h-.02s.09-.02.13-.03c.04-.01.08-.03.13-.04.15-.05.29-.11.42-.18s.25-.13.36-.2c.12-.07.24-.15.35-.23h0c.14-.13.3-.27.47-.41.03-.03.09-.06.16-.11s.15-.1.22-.15c.1-.06.23-.14.39-.22s.31-.15.46-.19c.15-.05.29-.07.42-.06.13,0,.21.07.26.19.02-.03.04-.06.07-.09.02-.03.05-.05.07-.09.35-.44.75-.9,1.23-1.38s1-.91,1.6-1.3c.07-.04.13-.07.19-.1.05-.02.11-.03.17-.04.06,0,.12,0,.17.02.03.01.07.05.12.11.04.06.06.14.06.25s-.04.24-.12.39-.22.34-.43.55c-.21.21-.49.45-.86.72-.36.27-.84.57-1.41.9l-.34.4s-.07.1-.14.18c-.06.08-.13.17-.2.28-.07.1-.14.21-.21.32s-.13.22-.16.31c-.03.07-.06.15-.08.23-.03.08-.05.17-.07.26-.03.2-.02.37.05.5.06.13.17.19.33.19.1,0,.24-.04.4-.12.16-.07.33-.16.51-.27.18-.11.37-.23.56-.36s.37-.25.54-.38c.43-.35.86-.66,1.26-1.04-.09-.06-.16-.14-.19-.24-.04-.1-.05-.21-.05-.32,0-.1.02-.19.07-.28.04-.08.09-.15.15-.21.06-.07.13-.13.21-.18.07.01.14.03.2.06.05.03.1.06.14.1.05.04.08.09.09.16l-.02.02s0,.01-.02.02c0,0-.02.02-.03.03-.06.06-.12.13-.17.21-.03.05-.05.09-.06.14s0,.09,0,.14v.03c.03.11.09.16.17.15.04,0,.08-.02.12-.03.04-.02.08-.03.12-.04.24-.09.42-.12.57-.1.04.01.09.03.14.05.05.02.1.06.14.11.08.09.09.21.05.35-.05.14-.12.29-.23.45-.1.16-.22.32-.35.47-.13.16-.25.3-.34.43-.1.13-.16.24-.18.32-.02.09.02.13.13.14.1.01.22,0,.36-.04.13-.04.27-.09.42-.16.15-.07.29-.15.45-.23.15-.09.3-.18.44-.28.17-.11.35-.23.53-.36.1-.13.19-.25.28-.35.02-.03.08-.06.18-.1.1-.04.21-.08.31-.11.11-.03.2-.04.28-.03.08,0,.1.04.08.11-.11.16-.24.33-.39.51s-.28.34-.4.49c-.11.15-.19.28-.23.39s0,.16.11.17c.1.01.22,0,.36-.04.13-.04.27-.09.42-.16.15-.07.29-.15.45-.23.15-.09.3-.18.44-.28l.18-.12s.04-.08.07-.11c.07-.09.19-.22.37-.4.18-.17.38-.35.61-.54.04-.03.09-.06.16-.11s.14-.1.22-.15c.1-.06.23-.14.39-.22.15-.08.31-.15.46-.19.15-.05.29-.07.42-.06.13,0,.22.06.27.17,0-.03.02-.07.04-.1.02-.04.03-.07.05-.1,0-.01.02-.02.05-.03.03,0,.07,0,.13.03.02.01.05.03.09.06s.07.05.09.08c.03.03.05.06.07.1s.02.07,0,.1c-.04.08-.1.19-.16.31-.07.13-.14.27-.23.44-.06.1-.11.2-.17.31s-.12.22-.19.34c-.04.07-.09.15-.13.22-.04.08-.09.15-.13.23.03-.01.05-.02.07-.03.02,0,.05-.02.07-.03.35-.14.69-.27,1.02-.38s.64-.2.92-.28.52-.14.73-.19c.06-.01.11-.03.16-.04l.13-.16c.1-.13.2-.24.28-.35.09-.1.16-.19.22-.25s.11-.12.15-.15c0,0,.03-.02.05-.03s.05-.03.07-.04c.17-.03.29-.04.37-.03.07,0,.14.02.2.02.02,0,.03.01.05.02.02,0,0,.03-.02.06-.22.21-.44.44-.67.71s-.44.54-.65.81c-.02.03-.03.06-.05.08-.02.02-.03.04-.04.06-.05.1-.09.18-.1.24,0,.06,0,.11,0,.15s.03.08.07.11h.07c.15-.01.34-.1.57-.25.23-.15.48-.34.73-.55.25-.21.49-.42.72-.63s.41-.39.55-.52c.08-.08.13-.13.16-.15.03-.05.06-.1.1-.14.04-.05.07-.07.1-.07.04,0,.1-.01.16-.02h.17c.05.01.09.04.13.08.03.04.04.11.02.2-.06.15-.15.31-.28.49s-.26.37-.41.56c-.15.19-.29.38-.44.56-.15.18-.27.34-.37.48-.1.14-.16.25-.19.34s0,.14.09.14c.1.01.23,0,.37-.05s.3-.11.46-.2c.16-.08.33-.18.51-.29s.35-.22.51-.34c.21-.15.43-.32.66-.5,0-.01.02-.03.02-.04.08-.15.18-.28.29-.41.11-.13.21-.24.31-.33.1-.09.18-.16.23-.19,0,0,.03-.02.05-.03s.04-.03.07-.04c.09-.05.19-.1.28-.14.1-.04.19-.07.27-.09.07-.01.13-.02.18-.01.05,0,.1.02.14.05.1.07.16.14.18.22.02.08.03.15,0,.22,0,.01,0,.03-.02.05,0,.02-.02.05-.03.08-.08.13-.21.23-.37.29-.16.07-.33.12-.49.15-.05.01-.1.02-.14.02s-.09,0-.13.01h-.13s-.04.06-.07.12c-.03.05-.06.11-.09.16-.03.06-.05.11-.08.16-.02.05-.04.09-.04.12v.1s0,.09.04.14c.02.05.05.09.1.12.04.04.11.05.21.05h.07s.05,0,.08-.01c.17-.03.37-.11.59-.22s.45-.24.67-.37c.22-.14.42-.27.61-.4.1-.07.18-.12.25-.17h0c.5-.4.91-.74,1.23-1.02.32-.28.52-.46.6-.53.02-.05.04-.08.07-.11.05-.05.12-.09.21-.1.09-.02.18-.02.28-.01.1,0,.22.02.34.04-.05,0-.1.05-.16.12s-.11.15-.17.24c-.06.1-.12.22-.19.35-.06.19-.12.37-.18.54s-.12.33-.18.48c.2-.03.39-.04.57-.06.18-.01.34-.02.47-.03h.99c-.43.03-.83.06-1.18.11-.35.05-.67.11-.95.18-.18.43-.35.78-.53,1.06s-.35.49-.51.64c-.16.15-.32.24-.47.28s-.28.02-.39-.03c-.14-.07-.25-.15-.32-.23s-.12-.17-.15-.25c-.03-.09-.05-.19-.05-.29.05-.17.13-.33.26-.46.12-.13.26-.25.43-.35.16-.1.35-.18.55-.26.2-.07.4-.13.61-.18.09-.22.18-.43.25-.64.08-.21.15-.4.21-.57-.25.23-.49.44-.74.62-.17.13-.33.25-.48.36h.03c-.31.24-.61.46-.91.67-.26.17-.53.34-.81.51-.29.16-.54.28-.77.35-.16.05-.3.08-.41.08s-.21-.01-.29-.04c-.09-.03-.17-.07-.22-.13-.07-.06-.12-.14-.16-.22-.05-.1-.07-.22-.07-.35-.12.09-.24.18-.35.27-.19.14-.38.27-.58.39-.2.13-.41.23-.61.33-.2.09-.4.16-.6.21-.19.04-.37.06-.54.03-.18-.03-.27-.11-.28-.25s.02-.31.1-.51c.08-.2.2-.41.35-.64.15-.23.3-.44.44-.64-.15.15-.33.32-.52.5s-.39.34-.58.49c-.2.15-.39.28-.58.38s-.37.15-.53.16h-.19c-.1-.01-.18-.04-.24-.07-.06-.04-.1-.08-.13-.14s-.04-.12-.04-.19,0-.13.02-.2c.02-.08.04-.15.07-.23.03-.07.07-.14.11-.21s.07-.12.11-.18c-.18.04-.37.1-.58.16-.27.08-.57.17-.89.28-.32.11-.66.24-1,.38-.06.03-.14.06-.25.1s-.19.07-.24.11c-.03.04-.05.08-.07.11-.02.04-.04.07-.07.11-.16.28-.34.56-.52.84-.18.28-.37.55-.56.82s-.39.52-.58.76c-.2.24-.39.45-.58.65-.07.06-.15.15-.25.25s-.21.2-.32.29c-.11.09-.21.18-.31.25-.1.07-.18.11-.23.11-.07.01-.12,0-.15-.05-.04-.05-.06-.07-.06-.09-.02-.03-.04-.07-.07-.12-.03-.06-.05-.12-.07-.2-.02-.08-.03-.16-.04-.26,0-.1,0-.2.03-.31.02-.08.06-.19.13-.31.07-.12.16-.25.26-.4.1-.14.22-.28.35-.43s.26-.29.4-.43c.13-.14.27-.27.4-.39.13-.12.26-.22.37-.29.2-.16.4-.31.62-.44.21-.14.44-.26.67-.39.08-.13.17-.26.25-.39.09-.13.17-.26.24-.39.09-.15.18-.3.27-.45.09-.15.17-.31.25-.46,0-.02.02-.04.03-.06,0-.02.02-.04.03-.06-.08.08-.21.21-.39.38s-.37.35-.58.53-.43.35-.65.51-.42.26-.6.31c-.13.03-.23.03-.31-.02-.08-.04-.14-.11-.17-.2-.02-.06-.03-.13-.03-.2-.17.11-.34.21-.52.31-.19.1-.37.19-.55.27-.18.08-.36.14-.53.17-.17.04-.33.05-.47.03-.21-.03-.34-.1-.37-.23-.03-.13,0-.28.06-.45.03-.06.05-.12.09-.18-.04.03-.07.05-.11.07-.17.11-.35.22-.53.32s-.37.19-.55.27c-.18.08-.36.14-.53.17-.17.04-.33.05-.47.03-.18-.02-.29-.08-.34-.17s-.06-.21-.03-.34.08-.27.17-.42.17-.29.27-.43c.09-.14.18-.26.26-.37s.13-.19.16-.24c0-.02.02-.04.03-.07,0-.05,0-.08,0-.09,0-.02-.03-.03-.06-.03h-.1c-.12.03-.2.04-.26.04h-.15s-.07.07-.1.11c-.03.03-.05.06-.08.09s-.05.05-.08.07c-.03.03-.06.05-.09.07-.04.02-.07.05-.11.08-.24.18-.48.35-.72.54-.2.15-.39.3-.58.43-.17.12-.34.24-.52.36-.18.12-.35.22-.52.3-.17.09-.32.16-.47.21-.15.05-.27.07-.37.07-.16,0-.3-.04-.43-.09-.11-.05-.21-.12-.31-.22-.1-.1-.15-.25-.16-.45,0-.13,0-.27.06-.43.05-.16.1-.3.16-.44.07-.16.15-.32.24-.47-.32.26-.62.5-.9.72-.12.09-.23.18-.35.27-.12.09-.23.17-.33.24s-.19.13-.27.18-.14.08-.18.08c-.13.03-.23.03-.3-.01-.08-.04-.13-.1-.16-.18s-.03-.17,0-.27c.02-.1.06-.19.13-.28-.12.07-.24.13-.38.2-.22.11-.44.19-.67.23h-.05c-.13.14-.28.28-.45.41-.18.13-.39.25-.65.36-.03.01-.05.02-.08.03-.03,0-.05.02-.07.03-.11.03-.2.05-.28.05s-.14,0-.2-.01-.11-.03-.16-.06c-.04-.03-.07-.06-.09-.1-.02-.03-.05-.06-.07-.1l-.12-.02Zm12.91-2.06s-.05-.06,0-.14c.04-.08.09-.18.16-.28s.13-.21.19-.31c.06-.11.08-.19.06-.26v-.03s.04-.06.1-.1c.04-.03.12-.07.23-.12s.22-.08.31-.09c.1,0,.16.02.2.08.04.06,0,.2-.1.4-.08.14-.17.27-.28.4-.11.12-.22.27-.33.43-.09,0-.17.01-.24.02-.06,0-.12.01-.18.01s-.1,0-.13-.01h.01Z"/></clipPath><clipPath id="clippath-1"><path class="cls-1" d="m4.93,56.32c1.46,0,1.97-1.32,2.02-1.5-.14-.52-.19-1.27-.19-2.26v-21.99c0-1.13.09-1.93.28-2.44.19-.52.52-.85,1.03-1.03.28-.09.61-.19,1.03-.23v-1.04H0v1.04c.42.05.75.14,1.03.23.52.19.85.52,1.03,1.03.19.52.28,1.32.28,2.44v21.99c0,1.13-.09,1.93-.28,2.44-.19.52-.52.85-1.03,1.03-.28.09-.61.19-1.03.24v1.03h9.12v-.99h-4.19Z"/></clipPath><clipPath id="clippath-2"><path class="cls-1" d="m30.2,25.96v1.03c.56.09,1.03.19,1.36.33.61.24.99.66,1.17,1.22.19.56.28,1.41.28,2.54v18.94l-16.59-24.11h-6.63v1.03c.42.05.75.14,1.03.24.52.19.85.52,1.03,1.03.19.52.28,1.32.28,2.44v21.52c0,1.13-.09,1.97-.28,2.54-.19.56-.56.99-1.08,1.22-.28.14-.61.24-1.03.33v1.03h6.3v-1.03c-.56-.09-1.03-.19-1.36-.33-.61-.24-1.03-.66-1.22-1.22-.19-.56-.28-1.41-.28-2.54v-23.36l19.6,28.48h1.22v-26.18c0-1.13.09-1.97.28-2.53.19-.56.56-.99,1.08-1.22.28-.14.61-.24,1.03-.33v-1.03l-6.2-.05h.01Z"/></clipPath><clipPath id="clippath-3"><path class="cls-1" d="m59.64,25.96v.99c.66.09,1.22.28,1.64.52.66.42.99,1.08.99,1.97,0,.8-.33,2.02-.94,3.62l-7.66,18.61-8.51-21.15c-.38-.89-.56-1.6-.56-2.11,0-.56.24-.99.75-1.22.28-.14.66-.24,1.13-.33v-1.03h-9.26v.94c1.22.19,2.16,1.13,2.87,2.77l11.47,27.63h.75l11.04-26.65c.85-2.02,1.93-3.24,3.29-3.71v-.99s-7,.14-7,.14Z"/></clipPath><clipPath id="clippath-4"><path class="cls-1" d="m72.36,56.32c1.46,0,1.97-1.32,2.02-1.5-.14-.52-.19-1.27-.19-2.26v-21.99c0-1.13.09-1.93.28-2.44.19-.52.52-.85,1.03-1.03.28-.09.61-.19,1.03-.23v-1.04h-9.12v1.04c.42.05.75.14,1.03.23.52.19.85.52,1.03,1.03.19.52.28,1.32.28,2.44v21.99c0,1.13-.09,1.93-.28,2.44-.19.52-.52.85-1.03,1.03-.28.09-.61.19-1.03.24v1.03h9.12v-.99h-4.18.01Z"/></clipPath><clipPath id="clippath-5"><path class="cls-1" d="m96.4,45.56c-.7-1.13-1.6-2.11-2.73-3.01-1.13-.89-2.68-1.93-4.65-3.05l-1.36-.8c-1.55-.89-2.77-1.64-3.62-2.26-.85-.61-1.55-1.32-2.11-2.16-.56-.85-.85-1.83-.85-2.96,0-1.5.52-2.73,1.6-3.67s2.44-1.41,4.14-1.41c2.4,0,4.23.8,5.5,2.44.99,1.32,1.65,2.87,1.97,4.65h1.5v-7.57h-1.08c-.09.66-.24,1.17-.38,1.5s-.38.47-.66.47c-.38,0-.89-.19-1.6-.61-.85-.52-1.64-.94-2.44-1.22-.8-.28-1.88-.42-3.24-.42-2.49,0-4.61.66-6.3,1.97-1.69,1.32-2.54,3.2-2.54,5.69,0,1.55.38,2.91,1.08,4.09.71,1.17,1.64,2.16,2.77,3.01s2.63,1.79,4.46,2.87c2.54,1.46,4.37,2.77,5.55,3.9,1.17,1.13,1.74,2.54,1.74,4.18,0,1.93-.61,3.38-1.79,4.37-1.17.99-2.63,1.5-4.32,1.5-2.77,0-4.84-.94-6.2-2.82-.99-1.36-1.64-3.01-2.02-4.93h-1.46l-.14,8.27h1.08c.09-.66.24-1.17.38-1.5s.38-.47.66-.47c.38,0,.89.19,1.6.61.89.52,1.79.89,2.73,1.17s2.16.42,3.67.42c2.87,0,5.26-.75,7.14-2.21s2.82-3.52,2.82-6.2c0-1.5-.33-2.82-1.03-3.95l.14.09v.02Z"/></clipPath><clipPath id="clippath-6"><path class="cls-1" d="m103.05,56.32c1.46,0,1.97-1.32,2.02-1.5-.14-.52-.19-1.27-.19-2.26v-21.99c0-1.13.09-1.93.28-2.44.19-.52.52-.85,1.03-1.03.28-.09.61-.19,1.03-.23v-1.04h-9.12v1.04c.42.05.75.14,1.03.23.52.19.85.52,1.03,1.03.19.52.28,1.32.28,2.44v21.99c0,1.13-.09,1.93-.28,2.44-.19.52-.52.85-1.03,1.03-.28.09-.61.19-1.03.24v1.03h9.12v-.99h-4.18.01Z"/></clipPath><clipPath id="clippath-7"><path class="cls-1" d="m118.35,56.23c-.99,0-1.74-.09-2.21-.28s-.8-.52-.99-1.03c-.19-.52-.28-1.32-.28-2.4v-11.21h3.95c2.91,0,5.03.62,6.34,1.84,1.32,1.22,1.97,3.01,1.97,5.36,0,5.18-2.91,7.76-8.79,7.76v-.05h0Zm-3.48-17.13v-8.52c0-1.08.09-1.88.28-2.4s.52-.89.99-1.08,1.22-.28,2.21-.28c2.3,0,3.99.56,5.03,1.64,1.03,1.08,1.55,2.73,1.55,4.94s-.52,3.91-1.55,5.22c-1.03,1.32-2.82,1.97-5.4,1.97h-5.22c1.5,0,2.02-1.36,2.07-1.5h.05,0Zm14.8,4.47c-1.46-1.41-3.9-2.36-7.33-2.78v-.09c2.49-.7,4.28-1.74,5.4-3.1,1.13-1.37,1.69-2.92,1.69-4.61,0-2.12-.85-3.81-2.54-5.08-1.69-1.28-4.14-1.93-7.33-1.93-.61,0-8.41-.05-11.56-.05v.99c.47.05.85.14,1.13.24.52.19.85.52,1.03,1.03.19.52.28,1.32.28,2.44v21.98c0,1.13-.09,1.93-.28,2.44-.19.52-.52.85-1.03,1.03-.28.09-.66.19-1.13.24v.99h12.59c2.3,0,4.32-.38,6.02-1.08,1.69-.71,3.01-1.74,3.9-3.05.89-1.32,1.36-2.83,1.36-4.52,0-2.03-.75-3.77-2.21-5.18v.09h.01Z"/></clipPath><clipPath id="clippath-8"><path class="cls-1" d="m154.14,49.4c-.24,1.5-.52,2.69-.89,3.58-.47,1.13-1.22,1.97-2.26,2.49-1.03.52-2.54.75-4.46.75h-9.12c1.55,0,2.07-1.5,2.07-1.5-.14-.52-.19-1.22-.19-2.16v-21.99c0-1.13.09-1.93.28-2.44.19-.52.52-.85,1.03-1.03.24-.09.56-.19.99-.23v-1.04h-9.12v1.04c.42.05.75.14,1.03.23.52.19.85.52,1.03,1.03.19.52.28,1.32.28,2.44v21.99c0,1.13-.09,1.93-.28,2.44-.19.52-.52.85-1.03,1.03-.28.09-.61.19-1.03.24v1.03h22.98v-7.86l-1.32-.05h0Z"/></clipPath><clipPath id="clippath-9"><path class="cls-1" d="m179.17,49.84h-1.27c-.24,1.41-.52,2.54-.89,3.34-.47,1.08-1.22,1.88-2.26,2.35-1.03.47-2.54.71-4.46.71h-3.43c-1.13,0-1.93-.09-2.44-.24-.52-.14-.85-.47-1.03-.99-.19-.52-.28-1.32-.28-2.44v-10.62h3.1c1.27,0,2.26.33,2.96.94.71.61,1.13,1.55,1.27,2.77.05.28.09.52.14.75h1.27l-.09-9.68h-1.32c-.09.75-.24,1.41-.38,1.93-.19.66-.56,1.22-1.17,1.69-.61.47-1.46.71-2.54.71h-5.17c1.46,0,1.97-1.27,2.07-1.46v-8.98c0-1.13.09-1.93.28-2.44.19-.52.52-.85,1.03-.99.52-.14,1.32-.24,2.44-.24h3.9c1.65,0,2.87.24,3.67.66s1.36,1.08,1.69,2.02c.24.7.47,1.64.66,2.87h1.27v-6.53h-21.85v.99c.47.05.85.14,1.13.24.52.19.85.52,1.03,1.03.19.52.28,1.32.28,2.44v21.95c0,1.13-.09,1.93-.28,2.44-.19.52-.52.85-1.03,1.03-.28.09-.66.19-1.13.24v.99h22.84v-7.47h-.01Z"/></clipPath></defs><polygon class="cls-1" points="39.1 18.18 39.05 1.03 35.79 1.03 29.47 11.69 23.06 1.03 19.77 1.03 19.77 18.18 23.5 18.18 23.5 8.11 28.51 16.37 30.3 16.37 35.35 7.89 35.37 18.18 39.1 18.18"/><path class="cls-1" d="m47.28,15.8c-1.35,0-2.16-.64-2.16-1.59,0-.88.56-1.54,2.35-1.54h2.62v1.35c-.44,1.2-1.54,1.79-2.82,1.79m.29-11c-2.11,0-4.24.56-5.68,1.59l1.37,2.67c.96-.76,2.4-1.23,3.8-1.23,2.06,0,3.04.96,3.04,2.6h-3.04c-4.02,0-5.66,1.62-5.66,3.94s1.84,3.99,4.92,3.99c1.94,0,3.31-.64,4.02-1.84v1.64h3.58v-7.52c0-3.99-2.33-5.86-6.35-5.86v.02Z"/><path class="cls-1" d="m61.16,18.38c3.94,0,6.22-1.74,6.22-4.19,0-5.19-7.96-3.01-7.96-5.27,0-.69.74-1.23,2.45-1.23,1.2,0,2.5.24,3.8.98l1.27-2.72c-1.25-.74-3.26-1.15-5.07-1.15-3.85,0-6.1,1.76-6.1,4.26,0,5.27,7.96,3.06,7.96,5.22,0,.74-.66,1.2-2.43,1.2-1.62,0-3.41-.51-4.58-1.27l-1.27,2.74c1.22.81,3.48,1.42,5.71,1.42"/><path class="cls-1" d="m76.56,14.85c-.42.32-.98.49-1.54.49-1.03,0-1.64-.61-1.64-1.74v-5.37h3.28v-2.94h-3.28v-3.21h-3.82v3.21h-2.03v2.94h2.03v5.41c0,3.14,1.81,4.73,4.92,4.73,1.18,0,2.33-.27,3.11-.83l-1.03-2.7h0Z"/><path class="cls-1" d="m84.76,7.69c1.72,0,2.96,1.08,3.23,2.74h-6.49c.27-1.69,1.52-2.74,3.26-2.74m6.84,3.94c0-4.24-2.99-6.84-6.86-6.84s-7.03,2.84-7.03,6.79,2.96,6.79,7.52,6.79c2.38,0,4.21-.73,5.44-2.13l-2.03-2.21c-.91.86-1.91,1.27-3.31,1.27-2.01,0-3.41-1-3.77-2.65h9.97c.02-.32.07-.74.07-1.03h0Z"/><path class="cls-1" d="m97.15,6.74v-1.74h-3.65v13.18h3.82v-6.22c0-2.52,1.4-3.68,3.5-3.68.29,0,.54.02.86.05v-3.53c-2.03,0-3.6.66-4.53,1.94"/><path class="cls-1" d="m109.56,18.38c2.77,0,4.95-1.22,5.9-3.33l-2.96-1.62c-.71,1.27-1.76,1.81-2.96,1.81-1.94,0-3.45-1.35-3.45-3.65s1.52-3.65,3.45-3.65c1.2,0,2.25.56,2.96,1.81l2.96-1.59c-.96-2.16-3.14-3.36-5.9-3.36-4.29,0-7.35,2.82-7.35,6.79s3.06,6.79,7.35,6.79"/><rect class="cls-1" x="116.93" width="3.82" height="18.18"/><path class="cls-1" d="m128.68,15.8c-1.35,0-2.16-.64-2.16-1.59,0-.88.56-1.54,2.35-1.54h2.62v1.35c-.44,1.2-1.54,1.79-2.82,1.79m.29-11c-2.11,0-4.24.56-5.68,1.59l1.37,2.67c.96-.76,2.4-1.23,3.8-1.23,2.06,0,3.04.96,3.04,2.6h-3.04c-4.02,0-5.66,1.62-5.66,3.94s1.84,3.99,4.92,3.99c1.94,0,3.31-.64,4.02-1.84v1.64h3.58v-7.52c0-3.99-2.33-5.86-6.35-5.86v.02Z"/><path class="cls-1" d="m142.56,18.38c3.94,0,6.22-1.74,6.22-4.19,0-5.19-7.96-3.01-7.96-5.27,0-.69.74-1.23,2.45-1.23,1.2,0,2.5.24,3.8.98l1.27-2.72c-1.25-.74-3.26-1.15-5.07-1.15-3.85,0-6.1,1.76-6.1,4.26,0,5.27,7.96,3.06,7.96,5.22,0,.74-.66,1.2-2.43,1.2-1.62,0-3.41-.51-4.58-1.27l-1.27,2.74c1.22.81,3.48,1.42,5.71,1.42"/><path class="cls-1" d="m154.93,18.38c3.94,0,6.22-1.74,6.22-4.19,0-5.19-7.96-3.01-7.96-5.27,0-.69.74-1.23,2.45-1.23,1.2,0,2.5.24,3.8.98l1.27-2.72c-1.25-.74-3.26-1.15-5.07-1.15-3.85,0-6.1,1.76-6.1,4.26,0,5.27,7.96,3.06,7.96,5.22,0,.74-.66,1.2-2.43,1.2-1.62,0-3.41-.51-4.58-1.27l-1.27,2.74c1.22.81,3.48,1.42,5.71,1.42"/><path class="cls-1" d="m87.82,70.26s-.05.06-.07.1c-.02.03-.04.06-.06.1.08,0,.16,0,.26.03h0s.04.01.06.04c.01.03.02.06.04.1.01.04.02.09.01.14v.1s-.04.05-.06.05h-.11c-.08.01-.16.04-.26.1,0,.03.01.05.02.06,0,.02.02.03.03.05l.03.03s.02.02.02.03.01.02.02.03c.02.01.03.03.04.04s.03.03.05.04c.08.06.16.1.26.13s.19.04.29.04c.08-.1.14-.2.18-.3.04-.1.08-.2.1-.3.06-.23.08-.4.06-.52-.02-.12-.03-.2-.05-.23-.03-.06-.07-.11-.13-.14s-.13-.04-.21-.03c-.08,0-.17.04-.26.1-.09.05-.18.13-.27.23m-.74,1.42c-.05.11-.08.2-.09.26v.11s0,.07.02.09c.02.04.05.07.09.09.03.02.08.03.14.03s.13-.02.23-.06c.06-.03.12-.06.19-.09l.21-.12c.13-.08.22-.16.3-.24-.24-.01-.44-.1-.62-.25-.08-.07-.14-.16-.18-.26-.01.01-.02.03-.03.04s-.02.03-.03.04-.02.03-.04.06c-.02.03-.04.05-.06.09-.02.04-.04.08-.06.12s-.03.07-.05.11l-.02-.02Zm-8.37,4.12c.04-.05.13-.14.25-.28.12-.13.26-.3.43-.5s.36-.43.56-.69c.21-.26.43-.54.65-.84-.41.39-.76.74-1.05,1.05-.29.31-.48.52-.56.64-.07.11-.13.22-.17.32s-.08.2-.11.29h0Zm4.8-3.72c.23-.06.43-.15.59-.25.16-.1.3-.22.42-.35-.18.08-.33.15-.45.23-.13.07-.23.14-.31.19-.1.07-.18.13-.25.18Zm-1.88-.05l.03-.04c.03-.05.07-.13.14-.23.07-.1.14-.21.22-.34s.16-.26.25-.39c.09-.14.17-.26.25-.38.08-.12.14-.22.2-.31s.09-.15.11-.19c0-.01.02-.03.03-.05.01-.01.02-.03.04-.05l.06-.06s.01,0,.02-.02c0,0,.02-.02.04-.03.01,0,.02-.01.04-.02.01,0,.03-.01.04-.02.07-.03.14-.06.23-.09.09-.03.18-.06.26-.07s.14-.01.19,0,.06.05.04.11c-.02.03-.03.05-.05.07-.02.02-.04.05-.06.07h0c-.08.12-.16.23-.24.35-.07.1-.15.22-.24.34-.09.13-.18.25-.27.38.21-.16.42-.31.62-.45.2-.14.38-.27.56-.38.17-.11.33-.2.48-.28.15-.07.27-.12.37-.15.14-.03.26-.02.36.04.09.05.16.14.22.28s.07.34.03.63v.16c.08-.02.16-.04.25-.05s.17-.03.26-.04c.19-.03.39-.06.6-.07.12,0,.25-.02.38-.02.03-.03.06-.05.09-.07.11-.08.18-.12.2-.13h.02c.03-.09.06-.17.11-.25.04-.07.09-.14.13-.19s.09-.1.13-.14l.09-.09c.05-.05.12-.09.2-.13.08-.04.16-.07.24-.09.08-.02.16-.03.25-.03s.16.02.22.05c.04.03.09.06.13.1s.08.1.11.17c0,.02.01.04.02.06,0,.02.01.04.02.06.02.08.03.17.04.27,0,.1,0,.22-.03.35v.02c-.03.15-.06.28-.11.38-.04.11-.08.19-.11.26-.03.05-.05.08-.05.08h-.02s.09-.02.13-.03.08-.03.13-.04c.15-.05.29-.11.42-.18s.25-.13.36-.2c.06-.04.12-.07.18-.11.03-.03.07-.05.1-.08.25-.21.46-.39.62-.54-.09-.06-.16-.14-.19-.24-.04-.1-.05-.21-.05-.32,0-.1.02-.19.07-.28.04-.08.09-.15.15-.21.06-.07.13-.13.21-.18.07.01.14.03.2.06.05.03.1.06.14.1.05.04.08.09.09.16l-.02.02-.02.02-.03.03c-.06.06-.12.13-.17.21-.03.05-.05.09-.06.14-.01.05-.02.09,0,.14v.03c.03.11.08.16.17.15.04,0,.08-.02.12-.03.04-.02.08-.03.12-.04.24-.09.42-.12.57-.1.04.01.09.03.14.05.05.02.1.06.14.11.08.09.09.21.05.35-.05.14-.12.29-.23.45s-.22.32-.35.47c-.13.16-.25.3-.34.43-.1.13-.16.24-.18.32-.02.09.02.13.13.14.1.01.22,0,.36-.04.13-.04.27-.09.42-.16.15-.07.3-.15.45-.23.15-.09.3-.18.44-.28.34-.22.69-.47,1.04-.76h.3c-.41.35-.82.66-1.22.92-.17.11-.35.22-.53.32s-.37.19-.55.27c-.18.08-.36.14-.53.17-.17.04-.33.05-.47.03-.18-.02-.29-.08-.34-.17-.05-.09-.06-.21-.03-.34s.08-.27.17-.42.17-.29.27-.43c.09-.14.18-.26.26-.37s.13-.19.16-.24c.01-.02.02-.04.03-.07.01-.05,0-.08,0-.09-.01-.02-.03-.03-.06-.03h-.1c-.12.03-.2.04-.26.04h-.15s-.07.07-.1.11c-.03.03-.05.06-.08.09s-.05.05-.08.07c-.03.03-.06.05-.09.07-.04.02-.07.05-.11.08-.09.07-.19.14-.29.21s-.19.13-.26.18c-.09.06-.18.12-.27.17l-.03-.03c-.12.07-.26.14-.4.21-.22.11-.44.19-.67.23h-.05c-.13.14-.28.28-.45.41-.18.13-.39.25-.65.36-.03.01-.05.02-.08.03-.03,0-.05.02-.07.03-.11.03-.2.05-.28.05s-.14,0-.2-.01-.11-.03-.16-.06c-.04-.03-.07-.06-.09-.1-.02-.03-.05-.06-.07-.1-.06-.1-.08-.22-.07-.38,0-.06.01-.14.04-.24.04-.13.09-.25.16-.38.07-.12.15-.24.23-.35.05-.07.11-.13.16-.19-.13.02-.25.04-.37.06-.4.07-.76.15-1.08.24-.08.22-.2.4-.37.56-.16.15-.34.28-.54.37-.2.1-.4.17-.6.21s-.38.07-.53.07c-.11-.03-.18-.07-.2-.14-.02-.06-.03-.12-.03-.15,0-.02,0-.04.02-.06.11-.1.26-.22.46-.34.2-.13.44-.25.74-.36.04-.02.09-.04.14-.05.05-.02.09-.03.14-.05.03-.04.05-.08.07-.12s.04-.07.06-.11c.05-.11.09-.22.11-.32.03-.1.05-.19.06-.27.02-.09.02-.17.02-.25-.35.15-.72.37-1.11.63-.39.27-.8.57-1.21.89-.06.04-.12.09-.18.14s-.12.09-.18.14l-.12.16c-.12.17-.23.33-.34.48-.1.15-.19.28-.25.37-.3.46-.6.91-.93,1.34-.32.43-.64.81-.97,1.12-.07.06-.15.15-.25.25s-.21.2-.32.29c-.11.1-.21.18-.31.25s-.17.11-.22.11c-.07,0-.12-.01-.16-.06-.04-.05-.06-.07-.06-.08s-.01-.03-.02-.04c0-.01-.01-.03-.02-.05h0s-.01-.08-.02-.17c0-.09,0-.2.03-.34.02-.14.08-.29.16-.46s.2-.35.37-.53c.09-.1.22-.23.37-.37s.33-.31.53-.5c.08-.07.16-.14.24-.22.08-.08.17-.15.26-.23.16-.15.34-.3.51-.46.18-.16.36-.32.56-.48l.09-.12.1-.16-.09.05Zm39.13-1.73s-.05-.06,0-.14c.04-.08.09-.18.16-.28.07-.1.13-.21.19-.31.06-.11.08-.19.06-.26v-.03s.04-.06.1-.1c.04-.03.12-.07.23-.12s.22-.08.31-.09c.1,0,.16.02.2.08.04.06,0,.2-.1.4-.08.14-.17.27-.28.4-.11.12-.22.27-.33.43-.09,0-.17.01-.24.02-.06,0-.12.01-.18.01s-.1,0-.13-.01h0Zm5.87-3.05c.03-.11,0-.14-.1-.09s-.24.15-.41.3c-.17.15-.36.33-.58.53-.22.21-.42.41-.61.61s-.36.38-.51.53-.23.25-.27.3c.42-.26.8-.53,1.14-.78.15-.11.29-.23.44-.35.15-.12.28-.24.4-.37.12-.12.22-.24.31-.36s.15-.23.18-.33h.01Zm-13.83,4.73s-.09-.06-.14-.11c-.06-.04-.11-.1-.16-.16-.05-.06-.08-.13-.09-.2-.01-.06,0-.11.02-.17-.11.08-.21.15-.32.22-.15.1-.31.2-.47.29-.16.09-.31.18-.46.25s-.29.13-.43.17c-.13.04-.25.05-.35.05-.15-.01-.29-.05-.42-.11-.11-.05-.21-.13-.3-.23-.09-.1-.15-.25-.16-.45-.01-.13,0-.25,0-.37.02-.12.03-.22.05-.31.02-.1.05-.2.07-.28-.39.31-.75.59-1.08.83-.14.1-.28.2-.42.3-.14.1-.27.19-.39.27-.12.08-.22.14-.31.18-.09.05-.15.07-.19.07-.22,0-.38-.04-.46-.14-.04.03-.09.07-.13.1-.44.32-.89.62-1.35.9-.45.29-.92.53-1.4.72-.48.2-.98.33-1.49.42-.51.08-1.05.07-1.61-.02-.12-.02-.23-.04-.33-.07s-.2-.05-.3-.09c-.37-.13-.66-.3-.87-.51s-.37-.43-.47-.68c-.1-.24-.16-.49-.18-.74s-.01-.49.02-.72.07-.43.12-.6c.05-.18.09-.31.11-.4.09-.29.2-.56.32-.82.12-.25.24-.48.35-.66.13-.22.25-.42.39-.62.42-.6.83-1.12,1.23-1.57.41-.44.8-.83,1.18-1.15s.75-.58,1.1-.79.67-.37.97-.5c.7-.29,1.37-.42,1.99-.4.15,0,.3.04.43.11.11.05.22.13.32.24s.18.26.22.44c.01.05.02.11.02.16v.18c0,.07,0,.14-.02.21-.03.04-.06.07-.1.11-.03.03-.07.06-.12.1-.05.03-.11.06-.19.07h0s-.02-.01-.03-.04v-.04c-.01-.05-.02-.1-.03-.16,0-.05-.02-.1-.03-.15-.02-.05-.03-.1-.04-.14v-.02h0c-.04-.13-.1-.22-.16-.29-.07-.07-.13-.12-.21-.15-.07-.03-.14-.05-.21-.06-.07,0-.12-.01-.16-.01-.2-.01-.49.04-.87.16-.38.12-.82.34-1.32.65-.49.31-1.02.72-1.58,1.24-.56.52-1.11,1.15-1.65,1.91-.54.75-.93,1.46-1.19,2.12-.25.66-.35,1.24-.29,1.73.06.49.29.88.69,1.17s.98.44,1.74.45c.62.01,1.21-.09,1.79-.29.57-.21,1.12-.48,1.64-.8.52-.33,1.02-.69,1.51-1.08.11-.09.22-.18.33-.27.05-.05.11-.11.18-.19.12-.11.26-.24.43-.38s.35-.28.54-.43c.19-.14.39-.28.59-.41.2-.13.39-.23.58-.32s.35-.15.49-.18c.14-.02.26-.02.38,0,.1.03.19.09.28.17s.15.22.19.42v.03s-.01,0-.02-.02c-.02-.04-.05-.08-.09-.13-.04-.04-.09-.08-.15-.11-.06-.03-.13-.05-.21-.05s-.16.02-.25.07c-.08.05-.2.11-.35.21-.15.09-.31.2-.48.32-.17.12-.34.25-.52.39s-.34.27-.48.4c-.14.13-.26.25-.35.36s-.13.2-.13.26c.02,0,.06-.03.12-.06.05-.03.12-.08.21-.14s.21-.14.36-.25.31-.24.49-.38.35-.28.51-.4c.16-.13.31-.23.44-.32.13-.09.22-.14.27-.15.14-.03.26,0,.35.07l.02.02c.05.05.09.12.1.19.01.08,0,.15-.02.22-.03.06-.06.17-.09.32-.04.15-.06.31-.07.46,0,.16,0,.3.05.42.04.12.13.18.26.17.1,0,.23-.03.37-.08s.29-.12.45-.2c.16-.08.32-.17.48-.27s.31-.19.45-.29c.14-.09.27-.18.39-.26l.06-.04c.06-.09.12-.18.18-.26.08-.11.15-.21.21-.31s.1-.17.12-.23c.01-.03.03-.07.06-.1.03-.04.06-.05.11-.03.03.02.08.05.13.08.05.04.1.08.14.13.04.05.07.1.09.16.02.06,0,.12-.03.17-.05.07-.11.15-.18.23s-.14.16-.2.24c-.07.08-.12.15-.17.22-.05.07-.08.12-.1.16.35-.32.69-.6,1-.84.14-.1.28-.2.42-.29.14-.09.28-.17.42-.24.13-.07.26-.12.37-.15.12-.03.21-.04.3,0,.16.04.26.15.3.3s.02.34-.03.54c-.06.21-.15.43-.28.66s-.28.44-.44.64c.13-.12.27-.24.42-.37.13-.11.29-.23.46-.37.18-.14.36-.27.56-.42.19-.14.37-.26.56-.38.18-.12.36-.22.52-.3.16-.08.32-.14.46-.18s.26-.05.36-.03c.04.01.09.03.14.05.05.02.1.06.14.11.08.09.09.21.04.35-.05.14-.12.29-.23.45-.1.16-.22.32-.36.47-.13.16-.25.3-.34.43s-.15.24-.18.32c-.03.09.01.13.12.14.1.01.22,0,.36-.04s.27-.09.42-.16c.15-.07.29-.15.45-.23.15-.09.3-.18.44-.28.17-.11.35-.23.53-.36.1-.13.19-.25.28-.35.02-.03.08-.06.18-.1s.21-.08.31-.11c.11-.03.2-.04.28-.03.08,0,.1.04.08.11-.11.16-.24.33-.39.51s-.28.34-.4.49c-.11.15-.19.28-.23.39s0,.16.11.17c.1.01.22,0,.36-.04.13-.04.27-.09.42-.16.15-.07.29-.15.45-.23.15-.09.3-.18.44-.28.26-.16.52-.35.78-.55h0c.03-.14.07-.27.12-.4.13-.29.28-.57.46-.84s.35-.49.5-.68c.03-.03.05-.06.07-.09s.05-.05.07-.08c.3-.34.63-.67,1-.99.36-.33.76-.64,1.19-.93.07-.04.13-.07.19-.1.05-.02.11-.03.17-.04.06,0,.11,0,.17.02.03.01.07.05.12.11.04.06.06.14.06.25s-.04.24-.12.39-.22.34-.43.55c-.21.21-.49.45-.86.72-.36.27-.84.57-1.41.9l-.15.17c-.06.07-.12.16-.18.26-.07.1-.13.21-.19.32-.06.12-.12.24-.17.37-.05.13-.08.26-.11.4,0,.04,0,.08-.01.11v.11c0,.15.03.3.08.43h0s.06.07.1.09.09.03.15.02c.1,0,.23-.03.37-.08s.29-.12.45-.2c.16-.08.32-.17.48-.27h.02c.05-.07.12-.15.21-.24.12-.11.26-.24.43-.38s.35-.28.54-.43c.19-.14.39-.28.59-.41.2-.13.39-.23.58-.32s.35-.15.49-.18c.14-.02.26-.02.38,0,.1.03.19.09.28.17s.15.22.19.42v.03s0,0-.02-.02c-.02-.04-.05-.08-.09-.13-.04-.04-.09-.08-.15-.11s-.13-.05-.21-.05-.16.02-.25.07c-.08.05-.2.11-.35.21-.15.09-.31.2-.48.32-.17.12-.34.25-.52.39s-.34.27-.48.4c-.14.13-.26.25-.35.36s-.13.2-.13.26c.02,0,.06-.03.12-.06.05-.03.12-.08.21-.14s.21-.14.36-.25.31-.24.49-.38.35-.28.51-.4c.16-.13.31-.23.44-.32s.22-.14.27-.15c.14-.03.26,0,.35.07l.02.02c.06.05.09.12.1.19,0,.08,0,.15-.02.22-.03.06-.06.17-.09.32-.04.15-.06.31-.07.46,0,.16,0,.3.05.42.04.12.13.18.26.17.1,0,.23-.03.37-.08s.29-.12.45-.2c.16-.08.32-.17.48-.27.16-.1.31-.19.45-.29.14-.09.27-.18.39-.26s.21-.14.27-.19h.28c-.39.31-.76.58-1.11.81-.15.1-.31.2-.47.29-.16.09-.31.18-.46.25-.15.07-.29.13-.43.17-.13.04-.25.05-.35.05-.15-.01-.29-.05-.42-.11-.11-.05-.21-.13-.3-.23-.09-.1-.15-.25-.16-.45,0-.13,0-.25,0-.37.02-.12.03-.22.05-.31.02-.1.05-.2.07-.28-.39.31-.75.59-1.08.83-.14.1-.28.2-.42.3-.14.1-.27.19-.39.27-.12.08-.22.14-.31.18-.09.05-.15.07-.19.07-.27,0-.44-.06-.51-.21-.03-.06-.04-.12-.03-.19-.09.05-.18.1-.26.15-.14.08-.28.15-.41.2-.13.06-.25.1-.36.13h-.02c-.18.05-.35.04-.54-.03-.02-.01-.04-.03-.07-.04-.02-.01-.04-.03-.07-.04-.13-.12-.21-.24-.25-.39-.02-.05-.03-.09-.03-.13s-.01-.09-.02-.13v-.29c-.2.15-.4.29-.6.42-.17.11-.35.22-.53.32-.19.1-.37.19-.55.27-.18.08-.36.14-.53.17-.17.04-.33.05-.47.03-.21-.03-.34-.1-.37-.23-.03-.13-.01-.28.06-.45.02-.06.05-.12.08-.18-.03.02-.07.04-.1.06-.17.11-.35.22-.53.32-.19.1-.37.19-.55.27-.18.08-.36.14-.53.17-.17.04-.33.05-.47.03-.18-.02-.29-.08-.34-.17-.05-.09-.06-.21-.03-.34s.09-.27.17-.42.17-.29.27-.43.18-.26.26-.37.13-.19.16-.24c.03-.04.04-.09.04-.14,0,0-.02-.02-.06-.05-.04-.03-.13-.01-.26.04-.13.05-.33.17-.59.36-.26.19-.6.49-1.04.91-.32.3-.59.56-.8.77l-.51.51c-.13.13-.22.24-.28.31s-.1.13-.12.16c-.03.03-.06.04-.08.03-.03-.02-.07-.04-.12-.08-.05-.03-.09-.08-.12-.13-.03-.05-.05-.12-.06-.18,0-.07.02-.15.08-.24.29-.39.55-.76.77-1.11.09-.15.18-.3.27-.45.09-.15.16-.29.22-.43.06-.13.11-.26.14-.37s.04-.2.02-.27c-.02-.08-.09-.1-.21-.06s-.27.12-.44.23c-.17.12-.36.25-.56.42-.2.16-.39.32-.58.48s-.35.31-.5.45-.25.24-.32.3c-.03.03-.05.04-.07.04h-.05l-.04.02Zm31.41.99c-.16-.17-.33-.36-.51-.56s-.35-.39-.51-.58c-.16-.18-.31-.35-.43-.49-.13-.14-.21-.24-.26-.3-.03,0-.05,0-.07-.04-.02-.03-.03-.07-.04-.12-.03-.06-.04-.12-.02-.17,0-.05.03-.09.06-.13s.07-.08.12-.12c.05-.05.12-.06.21-.06h.36c.31-.03.6-.07.86-.13.26-.05.5-.09.71-.12.07,0,.14-.02.23-.03.09-.02.19-.03.28-.04.1-.01.2-.03.3-.04.1-.02.19-.03.27-.05.5-.12.9-.25,1.19-.41.29-.15.49-.27.6-.35.24-.18.45-.37.63-.57.18-.2.33-.39.45-.58.12-.21.23-.42.34-.63.19-.45.33-.87.4-1.27.03-.17.06-.34.07-.5,0-.17,0-.32-.02-.47-.02-.14-.07-.28-.14-.39-.07-.12-.18-.21-.31-.27-.18-.08-.4-.08-.68,0-.28.07-.6.21-.95.41-.35.2-.73.45-1.13.75-.4.3-.82.64-1.25,1.02-.6.53-1.19,1.12-1.78,1.75s-1.15,1.27-1.68,1.9c-.46.63-.99,1.31-1.6,2.05l-.07.09s-.06.07-.09.11-.06.08-.1.13c-.06.06-.12.14-.2.23-.08.09-.16.18-.24.26s-.16.15-.24.21-.14.09-.18.09c-.02,0-.04,0-.06-.03,0-.02-.03-.06-.05-.12-.02-.06-.04-.12-.05-.2,0-.07,0-.15,0-.24.02-.09.06-.17.12-.25.08-.08.22-.24.42-.46.2-.23.43-.49.69-.8.26-.31.54-.65.84-1.01s.58-.73.86-1.1c.28-.37.54-.72.77-1.07.24-.34.42-.65.56-.91.21-.41.39-.79.53-1.16s.24-.71.3-1.03.08-.6.06-.84-.09-.45-.2-.61c-.1-.14-.31-.23-.65-.28-.33-.05-.75-.04-1.26.04s-1.09.23-1.75.45c-.66.23-1.36.54-2.11.96-.16.09-.31.18-.46.27-.15.09-.29.18-.42.27-.14.09-.29.18-.44.28-.15.1-.3.19-.44.28s-.26.17-.37.24-.19.13-.24.16c-.06.04-.1.06-.13.07h-.06s0-.03,0-.06c.03-.14.09-.28.17-.41.08-.13.17-.26.28-.37.1-.12.2-.22.3-.31s.19-.16.26-.22c.58-.41,1.26-.8,2.03-1.15.77-.36,1.66-.65,2.66-.88.09-.02.21-.04.35-.06s.3-.04.47-.05c.17,0,.34,0,.52,0,.18,0,.35.03.51.07.21.06.42.16.62.3s.36.33.49.57c.12.23.2.48.25.75.04.28.03.6-.04.96-.07.36-.21.77-.4,1.23-.2.46-.47.98-.83,1.57l.63-.7c.46-.49.93-.96,1.41-1.43.49-.46.97-.86,1.44-1.2s.94-.6,1.38-.78c.45-.18.86-.24,1.25-.16.32.08.58.24.76.5.08.11.14.24.2.41.06.16.09.35.09.57s0,.48-.06.77c-.05.29-.14.62-.27.99-.06.17-.13.33-.21.49-.08.16-.17.31-.26.46-.03.05-.09.14-.17.26s-.19.26-.34.41c-.14.15-.31.32-.51.49s-.43.33-.69.47c-.15.08-.35.17-.6.27s-.51.19-.79.26c-.12.03-.25.06-.39.09-.15.03-.29.05-.45.07-.15.02-.3.04-.45.06s-.28.03-.39.04h0c-.05,0-.1.01-.14.01h-.07c-.21.02-.4.04-.54.06-.15.02-.28.04-.39.06.15.17.34.39.55.66.21.27.47.62.76,1.03l.18.25c.27.34.52.63.74.86.23.23.46.46.7.68.23.21.43.37.59.47s.3.16.4.18c.11.02.19.01.25-.02.06-.04.11-.08.14-.14.04-.06.06-.12.08-.18s.04-.11.05-.14c.04-.08.08-.1.1-.08,0,.01.02.03.02.06-.08.21-.17.37-.29.46-.12.1-.24.15-.37.16-.13.01-.27,0-.41-.05s-.27-.11-.4-.19c-.12-.06-.21-.13-.29-.18-.08-.06-.15-.12-.21-.17-.06-.06-.12-.12-.18-.18-.05-.06-.12-.14-.19-.21-.08-.08-.16-.15-.22-.22-.07-.07-.13-.15-.2-.22-.07-.08-.13-.16-.21-.24-.07-.08-.15-.17-.23-.27-.19-.21-.35-.41-.5-.59-.15-.18-.28-.34-.39-.47-.13-.15-.24-.29-.34-.42,0,.06.03.16.13.31.1.15.22.32.36.5s.29.36.44.54c.15.18.27.33.35.45.12.13.24.27.37.42.12.15.25.33.37.53l-1.31-1.45.04-.04Zm32.12-1.72c-.44.16-.76.33-.96.51-.2.18-.32.33-.36.47s0,.23.08.28c.09.06.22.04.37-.04.16-.09.31-.25.46-.47.15-.22.29-.47.41-.75Zm-3.12-.5s-.02.02-.03.03h-.02l-.02.02.15-.03c.15-.04.28-.09.4-.16.12-.07.2-.12.24-.15.02-.01.04-.04.06-.09v-.04c0-.06,0-.08-.07-.07-.06,0-.15.04-.26.13-.07.04-.14.09-.21.15-.07.06-.15.12-.23.18h0v.03Zm-9.19-.24c-.17.12-.34.25-.51.38s-.32.26-.46.38c-.14.12-.25.24-.33.34s-.12.19-.12.25c.02.01.06,0,.12,0,.05-.01.12-.05.21-.1.09-.05.22-.13.38-.24.12-.08.24-.16.37-.26.13-.1.26-.2.39-.3.13-.11.26-.21.38-.32.12-.11.23-.22.33-.32.02-.01.04-.04.08-.08.04-.04.05-.09.04-.15,0-.04-.05-.04-.14,0s-.19.09-.29.15c-.11.06-.21.13-.3.18-.09.06-.15.09-.16.1h0Zm-3,5.34s.11-.12.26-.29.35-.4.59-.68c.24-.28.5-.61.8-.99.29-.38.59-.78.89-1.22-.21.13-.41.26-.6.41-.2.14-.38.29-.56.45-.02.02-.1.1-.25.25-.14.15-.3.32-.47.52-.13.14-.25.29-.36.43-.11.15-.2.28-.26.4-.02.05-.05.14-.07.26-.03.12-.02.28.02.46h.01Zm-3.45-8.59c.03-.11,0-.14-.1-.09s-.24.15-.41.3-.36.33-.58.53c-.22.21-.42.41-.61.61s-.36.38-.51.53-.23.25-.27.3c.42-.26.8-.53,1.14-.78.15-.11.29-.23.44-.35.15-.12.28-.24.4-.37.12-.12.22-.24.31-.36s.15-.23.18-.33h.01Zm-4.71,3.25c-.16.12-.33.25-.5.38s-.32.26-.46.38c-.13.12-.24.24-.33.34s-.12.19-.12.25c.02,0,.06-.03.12-.06.05-.03.12-.08.21-.14.09-.06.21-.14.37-.25.12-.08.24-.18.38-.29s.27-.22.41-.32c.13-.11.26-.21.38-.3.12-.09.22-.17.31-.23.02-.01.04-.04.08-.07.04-.03.05-.08.05-.14,0-.04-.05-.04-.14,0s-.19.09-.3.15c-.11.06-.21.13-.3.18-.09.06-.15.09-.16.1v.02Zm-3.46-.23s-.05.06-.07.1c-.02.03-.04.06-.06.1.08,0,.16,0,.26.03h0s.04.01.06.04c0,.03.02.06.04.1,0,.04.02.09,0,.14v.1s-.04.05-.06.05h-.11c-.08.01-.16.04-.26.1,0,.03,0,.05.02.06,0,.02.02.03.03.05,0,.01.02.02.03.03,0,0,0,.02.02.03,0,.01,0,.02.02.03.02.01.03.03.05.04,0,.01.03.03.05.04.08.06.16.1.26.13.1.03.19.04.29.04.08-.1.14-.2.18-.3.04-.1.08-.2.1-.3.06-.23.08-.4.06-.52-.02-.12-.03-.2-.05-.23-.03-.06-.07-.11-.13-.14s-.13-.04-.21-.03c-.08,0-.17.04-.26.1-.09.05-.18.13-.27.23v-.02Zm-.74,1.42c-.05.11-.08.2-.09.26v.11s0,.07.02.09c.02.04.05.07.09.09.03.02.08.03.14.03s.13-.02.23-.06c.06-.03.12-.06.19-.09.07-.04.14-.08.21-.12.13-.08.22-.16.3-.24-.24-.01-.44-.1-.62-.25-.08-.07-.14-.16-.18-.26,0,.01-.02.03-.03.04s-.02.03-.03.04-.02.03-.04.06c-.02.03-.04.05-.06.09-.02.04-.04.08-.06.12s-.03.07-.05.11l-.02-.02Zm-.62.68c-.06-.1-.08-.22-.07-.38,0-.06,0-.14.04-.24.04-.13.09-.25.16-.38.07-.12.15-.24.23-.35.12-.15.23-.26.34-.34.11-.08.18-.12.2-.13h.02c.03-.09.06-.17.11-.25.04-.07.09-.14.13-.19.04-.05.09-.1.13-.14.04-.04.07-.07.09-.09.05-.05.12-.09.2-.13s.16-.07.24-.09.16-.03.25-.03.16.02.22.05c.04.03.09.06.13.1.04.04.08.1.12.17,0,.02,0,.04.02.06,0,.02,0,.04.02.06.02.08.03.17.04.27,0,.1,0,.22-.03.35v.02c-.03.15-.06.28-.11.38-.04.11-.08.19-.11.26-.03.05-.05.08-.05.08h-.02s.09-.02.13-.03c.04-.01.08-.03.13-.04.15-.05.29-.11.42-.18s.25-.13.36-.2c.12-.07.24-.15.35-.23h0c.14-.13.3-.27.47-.41.03-.03.09-.06.16-.11s.15-.1.22-.15c.1-.06.23-.14.39-.22s.31-.15.46-.19c.15-.05.29-.07.42-.06.13,0,.21.07.26.19.02-.03.04-.06.07-.09.02-.03.05-.05.07-.09.35-.44.75-.9,1.23-1.38s1-.91,1.6-1.3c.07-.04.13-.07.19-.1.05-.02.11-.03.17-.04.06,0,.12,0,.17.02.03.01.07.05.12.11.04.06.06.14.06.25s-.04.24-.12.39-.22.34-.43.55c-.21.21-.49.45-.86.72-.36.27-.84.57-1.41.9l-.34.4s-.07.1-.14.18c-.06.08-.13.17-.2.28-.07.1-.14.21-.21.32s-.13.22-.16.31c-.03.07-.06.15-.08.23-.03.08-.05.17-.07.26-.03.2-.02.37.05.5.06.13.17.19.33.19.1,0,.24-.04.4-.12.16-.07.33-.16.51-.27.18-.11.37-.23.56-.36s.37-.25.54-.38c.43-.35.86-.66,1.26-1.04-.09-.06-.16-.14-.19-.24-.04-.1-.05-.21-.05-.32,0-.1.02-.19.07-.28.04-.08.09-.15.15-.21.06-.07.13-.13.21-.18.07.01.14.03.2.06.05.03.1.06.14.1.05.04.08.09.09.16l-.02.02s0,.01-.02.02c0,0-.02.02-.03.03-.06.06-.12.13-.17.21-.03.05-.05.09-.06.14s0,.09,0,.14v.03c.03.11.09.16.17.15.04,0,.08-.02.12-.03.04-.02.08-.03.12-.04.24-.09.42-.12.57-.1.04.01.09.03.14.05.05.02.1.06.14.11.08.09.09.21.05.35-.05.14-.12.29-.23.45-.1.16-.22.32-.35.47-.13.16-.25.3-.34.43-.1.13-.16.24-.18.32-.02.09.02.13.13.14.1.01.22,0,.36-.04.13-.04.27-.09.42-.16.15-.07.29-.15.45-.23.15-.09.3-.18.44-.28.17-.11.35-.23.53-.36.1-.13.19-.25.28-.35.02-.03.08-.06.18-.1.1-.04.21-.08.31-.11.11-.03.2-.04.28-.03.08,0,.1.04.08.11-.11.16-.24.33-.39.51s-.28.34-.4.49c-.11.15-.19.28-.23.39s0,.16.11.17c.1.01.22,0,.36-.04.13-.04.27-.09.42-.16.15-.07.29-.15.45-.23.15-.09.3-.18.44-.28l.18-.12s.04-.08.07-.11c.07-.09.19-.22.37-.4.18-.17.38-.35.61-.54.04-.03.09-.06.16-.11s.14-.1.22-.15c.1-.06.23-.14.39-.22.15-.08.31-.15.46-.19.15-.05.29-.07.42-.06.13,0,.22.06.27.17,0-.03.02-.07.04-.1.02-.04.03-.07.05-.1,0-.01.02-.02.05-.03.03,0,.07,0,.13.03.02.01.05.03.09.06s.07.05.09.08c.03.03.05.06.07.1s.02.07,0,.1c-.04.08-.1.19-.16.31-.07.13-.14.27-.23.44-.06.1-.11.2-.17.31s-.12.22-.19.34c-.04.07-.09.15-.13.22-.04.08-.09.15-.13.23.03-.01.05-.02.07-.03.02,0,.05-.02.07-.03.35-.14.69-.27,1.02-.38s.64-.2.92-.28.52-.14.73-.19c.06-.01.11-.03.16-.04l.13-.16c.1-.13.2-.24.28-.35.09-.1.16-.19.22-.25s.11-.12.15-.15c0,0,.03-.02.05-.03s.05-.03.07-.04c.17-.03.29-.04.37-.03.07,0,.14.02.2.02.02,0,.03.01.05.02.02,0,0,.03-.02.06-.22.21-.44.44-.67.71s-.44.54-.65.81c-.02.03-.03.06-.05.08-.02.02-.03.04-.04.06-.05.1-.09.18-.1.24,0,.06,0,.11,0,.15s.03.08.07.11h.07c.15-.01.34-.1.57-.25.23-.15.48-.34.73-.55.25-.21.49-.42.72-.63s.41-.39.55-.52c.08-.08.13-.13.16-.15.03-.05.06-.1.1-.14.04-.05.07-.07.1-.07.04,0,.1-.01.16-.02h.17c.05.01.09.04.13.08.03.04.04.11.02.2-.06.15-.15.31-.28.49s-.26.37-.41.56c-.15.19-.29.38-.44.56-.15.18-.27.34-.37.48-.1.14-.16.25-.19.34s0,.14.09.14c.1.01.23,0,.37-.05s.3-.11.46-.2c.16-.08.33-.18.51-.29s.35-.22.51-.34c.21-.15.43-.32.66-.5,0-.01.02-.03.02-.04.08-.15.18-.28.29-.41.11-.13.21-.24.31-.33.1-.09.18-.16.23-.19,0,0,.03-.02.05-.03s.04-.03.07-.04c.09-.05.19-.1.28-.14.1-.04.19-.07.27-.09.07-.01.13-.02.18-.01.05,0,.1.02.14.05.1.07.16.14.18.22.02.08.03.15,0,.22,0,.01,0,.03-.02.05,0,.02-.02.05-.03.08-.08.13-.21.23-.37.29-.16.07-.33.12-.49.15-.05.01-.1.02-.14.02s-.09,0-.13.01h-.13s-.04.06-.07.12c-.03.05-.06.11-.09.16-.03.06-.05.11-.08.16-.02.05-.04.09-.04.12v.1s0,.09.04.14c.02.05.05.09.1.12.04.04.11.05.21.05h.07s.05,0,.08-.01c.17-.03.37-.11.59-.22s.45-.24.67-.37c.22-.14.42-.27.61-.4.1-.07.18-.12.25-.17h0c.5-.4.91-.74,1.23-1.02.32-.28.52-.46.6-.53.02-.05.04-.08.07-.11.05-.05.12-.09.21-.1.09-.02.18-.02.28-.01.1,0,.22.02.34.04-.05,0-.1.05-.16.12s-.11.15-.17.24c-.06.1-.12.22-.19.35-.06.19-.12.37-.18.54s-.12.33-.18.48c.2-.03.39-.04.57-.06.18-.01.34-.02.47-.03h.99c-.43.03-.83.06-1.18.11-.35.05-.67.11-.95.18-.18.43-.35.78-.53,1.06s-.35.49-.51.64c-.16.15-.32.24-.47.28s-.28.02-.39-.03c-.14-.07-.25-.15-.32-.23s-.12-.17-.15-.25c-.03-.09-.05-.19-.05-.29.05-.17.13-.33.26-.46.12-.13.26-.25.43-.35.16-.1.35-.18.55-.26.2-.07.4-.13.61-.18.09-.22.18-.43.25-.64.08-.21.15-.4.21-.57-.25.23-.49.44-.74.62-.17.13-.33.25-.48.36h.03c-.31.24-.61.46-.91.67-.26.17-.53.34-.81.51-.29.16-.54.28-.77.35-.16.05-.3.08-.41.08s-.21-.01-.29-.04c-.09-.03-.17-.07-.22-.13-.07-.06-.12-.14-.16-.22-.05-.1-.07-.22-.07-.35-.12.09-.24.18-.35.27-.19.14-.38.27-.58.39-.2.13-.41.23-.61.33-.2.09-.4.16-.6.21-.19.04-.37.06-.54.03-.18-.03-.27-.11-.28-.25s.02-.31.1-.51c.08-.2.2-.41.35-.64.15-.23.3-.44.44-.64-.15.15-.33.32-.52.5s-.39.34-.58.49c-.2.15-.39.28-.58.38s-.37.15-.53.16h-.19c-.1-.01-.18-.04-.24-.07-.06-.04-.1-.08-.13-.14s-.04-.12-.04-.19,0-.13.02-.2c.02-.08.04-.15.07-.23.03-.07.07-.14.11-.21s.07-.12.11-.18c-.18.04-.37.1-.58.16-.27.08-.57.17-.89.28-.32.11-.66.24-1,.38-.06.03-.14.06-.25.1s-.19.07-.24.11c-.03.04-.05.08-.07.11-.02.04-.04.07-.07.11-.16.28-.34.56-.52.84-.18.28-.37.55-.56.82s-.39.52-.58.76c-.2.24-.39.45-.58.65-.07.06-.15.15-.25.25s-.21.2-.32.29c-.11.09-.21.18-.31.25-.1.07-.18.11-.23.11-.07.01-.12,0-.15-.05-.04-.05-.06-.07-.06-.09-.02-.03-.04-.07-.07-.12-.03-.06-.05-.12-.07-.2-.02-.08-.03-.16-.04-.26,0-.1,0-.2.03-.31.02-.08.06-.19.13-.31.07-.12.16-.25.26-.4.1-.14.22-.28.35-.43s.26-.29.4-.43c.13-.14.27-.27.4-.39.13-.12.26-.22.37-.29.2-.16.4-.31.62-.44.21-.14.44-.26.67-.39.08-.13.17-.26.25-.39.09-.13.17-.26.24-.39.09-.15.18-.3.27-.45.09-.15.17-.31.25-.46,0-.02.02-.04.03-.06,0-.02.02-.04.03-.06-.08.08-.21.21-.39.38s-.37.35-.58.53-.43.35-.65.51-.42.26-.6.31c-.13.03-.23.03-.31-.02-.08-.04-.14-.11-.17-.2-.02-.06-.03-.13-.03-.2-.17.11-.34.21-.52.31-.19.1-.37.19-.55.27-.18.08-.36.14-.53.17-.17.04-.33.05-.47.03-.21-.03-.34-.1-.37-.23-.03-.13,0-.28.06-.45.03-.06.05-.12.09-.18-.04.03-.07.05-.11.07-.17.11-.35.22-.53.32s-.37.19-.55.27c-.18.08-.36.14-.53.17-.17.04-.33.05-.47.03-.18-.02-.29-.08-.34-.17s-.06-.21-.03-.34.08-.27.17-.42.17-.29.27-.43c.09-.14.18-.26.26-.37s.13-.19.16-.24c0-.02.02-.04.03-.07,0-.05,0-.08,0-.09,0-.02-.03-.03-.06-.03h-.1c-.12.03-.2.04-.26.04h-.15s-.07.07-.1.11c-.03.03-.05.06-.08.09s-.05.05-.08.07c-.03.03-.06.05-.09.07-.04.02-.07.05-.11.08-.24.18-.48.35-.72.54-.2.15-.39.3-.58.43-.17.12-.34.24-.52.36-.18.12-.35.22-.52.3-.17.09-.32.16-.47.21-.15.05-.27.07-.37.07-.16,0-.3-.04-.43-.09-.11-.05-.21-.12-.31-.22-.1-.1-.15-.25-.16-.45,0-.13,0-.27.06-.43.05-.16.1-.3.16-.44.07-.16.15-.32.24-.47-.32.26-.62.5-.9.72-.12.09-.23.18-.35.27-.12.09-.23.17-.33.24s-.19.13-.27.18-.14.08-.18.08c-.13.03-.23.03-.3-.01-.08-.04-.13-.1-.16-.18s-.03-.17,0-.27c.02-.1.06-.19.13-.28-.12.07-.24.13-.38.2-.22.11-.44.19-.67.23h-.05c-.13.14-.28.28-.45.41-.18.13-.39.25-.65.36-.03.01-.05.02-.08.03-.03,0-.05.02-.07.03-.11.03-.2.05-.28.05s-.14,0-.2-.01-.11-.03-.16-.06c-.04-.03-.07-.06-.09-.1-.02-.03-.05-.06-.07-.1l-.12-.02Zm12.91-2.06s-.05-.06,0-.14c.04-.08.09-.18.16-.28s.13-.21.19-.31c.06-.11.08-.19.06-.26v-.03s.04-.06.1-.1c.04-.03.12-.07.23-.12s.22-.08.31-.09c.1,0,.16.02.2.08.04.06,0,.2-.1.4-.08.14-.17.27-.28.4-.11.12-.22.27-.33.43-.09,0-.17.01-.24.02-.06,0-.12.01-.18.01s-.1,0-.13-.01h.01Z"/><g class="cls-8"><rect class="cls-1" x="78.41" y="62.9" width="100.76" height="13.4"/></g><path class="cls-1" d="m4.93,56.32c1.46,0,1.97-1.32,2.02-1.5-.14-.52-.19-1.27-.19-2.26v-21.99c0-1.13.09-1.93.28-2.44.19-.52.52-.85,1.03-1.03.28-.09.61-.19,1.03-.23v-1.04H0v1.04c.42.05.75.14,1.03.23.52.19.85.52,1.03,1.03.19.52.28,1.32.28,2.44v21.99c0,1.13-.09,1.93-.28,2.44-.19.52-.52.85-1.03,1.03-.28.09-.61.19-1.03.24v1.03h9.12v-.99h-4.19Z"/><g class="cls-5"><rect class="cls-1" y="25.82" width="9.12" height="31.49"/></g><path class="cls-1" d="m30.2,25.96v1.03c.56.09,1.03.19,1.36.33.61.24.99.66,1.17,1.22.19.56.28,1.41.28,2.54v18.94l-16.59-24.11h-6.63v1.03c.42.05.75.14,1.03.24.52.19.85.52,1.03,1.03.19.52.28,1.32.28,2.44v21.52c0,1.13-.09,1.97-.28,2.54-.19.56-.56.99-1.08,1.22-.28.14-.61.24-1.03.33v1.03h6.3v-1.03c-.56-.09-1.03-.19-1.36-.33-.61-.24-1.03-.66-1.22-1.22-.19-.56-.28-1.41-.28-2.54v-23.36l19.6,28.48h1.22v-26.18c0-1.13.09-1.97.28-2.53.19-.56.56-.99,1.08-1.22.28-.14.61-.24,1.03-.33v-1.03l-6.2-.05h.01Z"/><g class="cls-2"><rect class="cls-1" x="9.75" y="25.92" width="26.65" height="31.39"/></g><path class="cls-1" d="m59.64,25.96v.99c.66.09,1.22.28,1.64.52.66.42.99,1.08.99,1.97,0,.8-.33,2.02-.94,3.62l-7.66,18.61-8.51-21.15c-.38-.89-.56-1.6-.56-2.11,0-.56.24-.99.75-1.22.28-.14.66-.24,1.13-.33v-1.03h-9.26v.94c1.22.19,2.16,1.13,2.87,2.77l11.47,27.63h.75l11.04-26.65c.85-2.02,1.93-3.24,3.29-3.71v-.99s-7,.14-7,.14Z"/><g class="cls-9"><rect class="cls-1" x="37.23" y="25.82" width="29.42" height="31.34"/></g><path class="cls-1" d="m72.36,56.32c1.46,0,1.97-1.32,2.02-1.5-.14-.52-.19-1.27-.19-2.26v-21.99c0-1.13.09-1.93.28-2.44.19-.52.52-.85,1.03-1.03.28-.09.61-.19,1.03-.23v-1.04h-9.12v1.04c.42.05.75.14,1.03.23.52.19.85.52,1.03,1.03.19.52.28,1.32.28,2.44v21.99c0,1.13-.09,1.93-.28,2.44-.19.52-.52.85-1.03,1.03-.28.09-.61.19-1.03.24v1.03h9.12v-.99h-4.18.01Z"/><g class="cls-6"><rect class="cls-1" x="67.42" y="25.82" width="9.12" height="31.49"/></g><path class="cls-1" d="m96.4,45.56c-.7-1.13-1.6-2.11-2.73-3.01-1.13-.89-2.68-1.93-4.65-3.05l-1.36-.8c-1.55-.89-2.77-1.64-3.62-2.26-.85-.61-1.55-1.32-2.11-2.16-.56-.85-.85-1.83-.85-2.96,0-1.5.52-2.73,1.6-3.67s2.44-1.41,4.14-1.41c2.4,0,4.23.8,5.5,2.44.99,1.32,1.65,2.87,1.97,4.65h1.5v-7.57h-1.08c-.09.66-.24,1.17-.38,1.5s-.38.47-.66.47c-.38,0-.89-.19-1.6-.61-.85-.52-1.64-.94-2.44-1.22-.8-.28-1.88-.42-3.24-.42-2.49,0-4.61.66-6.3,1.97-1.69,1.32-2.54,3.2-2.54,5.69,0,1.55.38,2.91,1.08,4.09.71,1.17,1.64,2.16,2.77,3.01s2.63,1.79,4.46,2.87c2.54,1.46,4.37,2.77,5.55,3.9,1.17,1.13,1.74,2.54,1.74,4.18,0,1.93-.61,3.38-1.79,4.37-1.17.99-2.63,1.5-4.32,1.5-2.77,0-4.84-.94-6.2-2.82-.99-1.36-1.64-3.01-2.02-4.93h-1.46l-.14,8.27h1.08c.09-.66.24-1.17.38-1.5s.38-.47.66-.47c.38,0,.89.19,1.6.61.89.52,1.79.89,2.73,1.17s2.16.42,3.67.42c2.87,0,5.26-.75,7.14-2.21s2.82-3.52,2.82-6.2c0-1.5-.33-2.82-1.03-3.95l.14.09v.02Z"/><g class="cls-11"><rect class="cls-1" x="77.23" y="25.49" width="20.07" height="32.33"/></g><path class="cls-1" d="m103.05,56.32c1.46,0,1.97-1.32,2.02-1.5-.14-.52-.19-1.27-.19-2.26v-21.99c0-1.13.09-1.93.28-2.44.19-.52.52-.85,1.03-1.03.28-.09.61-.19,1.03-.23v-1.04h-9.12v1.04c.42.05.75.14,1.03.23.52.19.85.52,1.03,1.03.19.52.28,1.32.28,2.44v21.99c0,1.13-.09,1.93-.28,2.44-.19.52-.52.85-1.03,1.03-.28.09-.61.19-1.03.24v1.03h9.12v-.99h-4.18.01Z"/><g class="cls-3"><rect class="cls-1" x="98.12" y="25.82" width="9.12" height="31.49"/></g><path class="cls-1" d="m118.35,56.23c-.99,0-1.74-.09-2.21-.28s-.8-.52-.99-1.03c-.19-.52-.28-1.32-.28-2.4v-11.21h3.95c2.91,0,5.03.62,6.34,1.84,1.32,1.22,1.97,3.01,1.97,5.36,0,5.18-2.91,7.76-8.79,7.76v-.05h0Zm-3.48-17.13v-8.52c0-1.08.09-1.88.28-2.4s.52-.89.99-1.08,1.22-.28,2.21-.28c2.3,0,3.99.56,5.03,1.64,1.03,1.08,1.55,2.73,1.55,4.94s-.52,3.91-1.55,5.22c-1.03,1.32-2.82,1.97-5.4,1.97h-5.22c1.5,0,2.02-1.36,2.07-1.5h.05,0Zm14.8,4.47c-1.46-1.41-3.9-2.36-7.33-2.78v-.09c2.49-.7,4.28-1.74,5.4-3.1,1.13-1.37,1.69-2.92,1.69-4.61,0-2.12-.85-3.81-2.54-5.08-1.69-1.28-4.14-1.93-7.33-1.93-.61,0-8.41-.05-11.56-.05v.99c.47.05.85.14,1.13.24.52.19.85.52,1.03,1.03.19.52.28,1.32.28,2.44v21.98c0,1.13-.09,1.93-.28,2.44-.19.52-.52.85-1.03,1.03-.28.09-.66.19-1.13.24v.99h12.59c2.3,0,4.32-.38,6.02-1.08,1.69-.71,3.01-1.74,3.9-3.05.89-1.32,1.36-2.83,1.36-4.52,0-2.03-.75-3.77-2.21-5.18v.09h.01Z"/><g class="cls-4"><rect class="cls-1" x="108.01" y="25.92" width="23.87" height="31.39"/></g><path class="cls-1" d="m154.14,49.4c-.24,1.5-.52,2.69-.89,3.58-.47,1.13-1.22,1.97-2.26,2.49-1.03.52-2.54.75-4.46.75h-9.12c1.55,0,2.07-1.5,2.07-1.5-.14-.52-.19-1.22-.19-2.16v-21.99c0-1.13.09-1.93.28-2.44.19-.52.52-.85,1.03-1.03.24-.09.56-.19.99-.23v-1.04h-9.12v1.04c.42.05.75.14,1.03.23.52.19.85.52,1.03,1.03.19.52.28,1.32.28,2.44v21.99c0,1.13-.09,1.93-.28,2.44-.19.52-.52.85-1.03,1.03-.28.09-.61.19-1.03.24v1.03h22.98v-7.86l-1.32-.05h0Z"/><g class="cls-10"><rect class="cls-1" x="132.48" y="25.82" width="22.98" height="31.49"/></g><path class="cls-1" d="m179.17,49.84h-1.27c-.24,1.41-.52,2.54-.89,3.34-.47,1.08-1.22,1.88-2.26,2.35-1.03.47-2.54.71-4.46.71h-3.43c-1.13,0-1.93-.09-2.44-.24-.52-.14-.85-.47-1.03-.99-.19-.52-.28-1.32-.28-2.44v-10.62h3.1c1.27,0,2.26.33,2.96.94.71.61,1.13,1.55,1.27,2.77.05.28.09.52.14.75h1.27l-.09-9.68h-1.32c-.09.75-.24,1.41-.38,1.93-.19.66-.56,1.22-1.17,1.69-.61.47-1.46.71-2.54.71h-5.17c1.46,0,1.97-1.27,2.07-1.46v-8.98c0-1.13.09-1.93.28-2.44.19-.52.52-.85,1.03-.99.52-.14,1.32-.24,2.44-.24h3.9c1.65,0,2.87.24,3.67.66s1.36,1.08,1.69,2.02c.24.7.47,1.64.66,2.87h1.27v-6.53h-21.85v.99c.47.05.85.14,1.13.24.52.19.85.52,1.03,1.03.19.52.28,1.32.28,2.44v21.95c0,1.13-.09,1.93-.28,2.44-.19.52-.52.85-1.03,1.03-.28.09-.66.19-1.13.24v.99h22.84v-7.47h-.01Z"/><g class="cls-7"><rect class="cls-1" x="156.33" y="25.96" width="22.84" height="31.34"/></g></svg>