<?xml version="1.0" encoding="UTF-8"?><svg id="Layer_1" xmlns="http://www.w3.org/2000/svg" xmlns:xlink="http://www.w3.org/1999/xlink" viewBox="0 0 177.11 58.93"><defs><style>.cls-1{fill:#fff;}.cls-2{clip-path:url(#clippath-2);}.cls-3{clip-path:url(#clippath-6);}.cls-4{clip-path:url(#clippath-7);}.cls-5{clip-path:url(#clippath-1);}.cls-6{clip-path:url(#clippath-4);}.cls-7{clip-path:url(#clippath-9);}.cls-8{clip-path:url(#clippath);}.cls-9{clip-path:url(#clippath-3);}.cls-10{clip-path:url(#clippath-8);}.cls-11{clip-path:url(#clippath-5);}</style><clipPath id="clippath"><path class="cls-1" d="m4.88,57.45c1.44,0,1.95-1.3,2-1.49-.14-.51-.19-1.25-.19-2.23v-21.73c0-1.11.09-1.9.28-2.42.19-.51.51-.84,1.02-1.02.28-.09.6-.19,1.02-.23v-1.03H0v1.03c.42.05.74.14,1.02.23.51.19.84.51,1.02,1.02.19.51.28,1.3.28,2.42v21.73c0,1.11-.09,1.9-.28,2.42-.19.51-.51.84-1.02,1.02-.28.09-.6.19-1.02.23v1.02h9.01v-.98h-4.13Z"/></clipPath><clipPath id="clippath-1"><path class="cls-1" d="m29.85,27.44v1.02c.56.09,1.02.19,1.35.33.6.23.98.65,1.16,1.21.19.56.28,1.39.28,2.51v18.72l-16.4-23.83h-6.55v1.02c.42.05.74.14,1.02.23.51.19.84.51,1.02,1.02.19.51.28,1.3.28,2.42v21.28c0,1.11-.09,1.95-.28,2.51-.19.56-.56.98-1.07,1.21-.28.14-.6.23-1.02.33v1.02h6.22v-1.02c-.56-.09-1.02-.19-1.35-.33-.6-.23-1.02-.65-1.21-1.21-.19-.56-.28-1.39-.28-2.51v-23.09l19.37,28.15h1.21v-25.88c0-1.11.09-1.94.28-2.5.19-.56.56-.98,1.07-1.21.28-.14.6-.23,1.02-.33v-1.02l-6.13-.05Z"/></clipPath><clipPath id="clippath-2"><path class="cls-1" d="m58.96,27.44v.98c.65.09,1.21.28,1.63.51.65.42.98,1.07.98,1.95,0,.79-.33,2-.93,3.58l-7.57,18.4-8.41-20.9c-.37-.88-.56-1.58-.56-2.09,0-.56.23-.98.74-1.21.28-.14.65-.23,1.11-.33v-1.02h-9.15v.93c1.21.19,2.14,1.11,2.83,2.74l11.33,27.31h.74l10.92-26.34c.84-2,1.9-3.21,3.25-3.67v-.98l-6.92.14Z"/></clipPath><clipPath id="clippath-3"><path class="cls-1" d="m71.53,57.45c1.44,0,1.95-1.3,2-1.49-.14-.51-.19-1.25-.19-2.23v-21.73c0-1.11.09-1.9.28-2.42.19-.51.51-.84,1.02-1.02.28-.09.6-.19,1.02-.23v-1.03h-9.01v1.03c.42.05.74.14,1.02.23.51.19.84.51,1.02,1.02.19.51.28,1.3.28,2.42v21.73c0,1.11-.09,1.9-.28,2.42-.19.51-.51.84-1.02,1.02-.28.09-.6.19-1.02.23v1.02h9.01v-.98h-4.13Z"/></clipPath><clipPath id="clippath-4"><path class="cls-1" d="m95.29,46.81c-.7-1.11-1.58-2.09-2.69-2.97-1.11-.88-2.65-1.9-4.6-3.02l-1.35-.79c-1.53-.88-2.74-1.63-3.58-2.23-.84-.6-1.53-1.3-2.09-2.14-.56-.84-.84-1.81-.84-2.93,0-1.49.51-2.69,1.58-3.62,1.07-.93,2.42-1.39,4.09-1.39,2.37,0,4.18.79,5.43,2.42.98,1.3,1.63,2.83,1.95,4.6h1.49v-7.48h-1.07c-.09.65-.23,1.16-.37,1.49-.14.33-.37.46-.65.46-.37,0-.88-.19-1.58-.6-.84-.51-1.63-.93-2.42-1.21-.79-.28-1.86-.42-3.21-.42-2.46,0-4.55.65-6.22,1.95-1.67,1.3-2.51,3.16-2.51,5.62,0,1.53.37,2.88,1.07,4.04.7,1.16,1.63,2.14,2.74,2.97,1.11.84,2.6,1.77,4.41,2.83,2.51,1.44,4.32,2.74,5.48,3.86,1.16,1.11,1.72,2.51,1.72,4.13,0,1.9-.6,3.34-1.77,4.32-1.16.98-2.6,1.49-4.27,1.49-2.74,0-4.78-.93-6.13-2.79-.98-1.35-1.63-2.97-2-4.88h-1.44l-.14,8.18h1.07c.09-.65.23-1.16.37-1.49.14-.33.37-.46.65-.46.37,0,.88.19,1.58.6.88.51,1.77.88,2.69,1.16.93.28,2.14.42,3.62.42,2.83,0,5.2-.74,7.06-2.18,1.86-1.44,2.79-3.48,2.79-6.13,0-1.49-.33-2.79-1.02-3.9l.14.09Z"/></clipPath><clipPath id="clippath-5"><path class="cls-1" d="m101.87,57.45c1.44,0,1.95-1.3,2-1.49-.14-.51-.19-1.25-.19-2.23v-21.73c0-1.11.09-1.9.28-2.42.19-.51.51-.84,1.02-1.02.28-.09.6-.19,1.02-.23v-1.03h-9.01v1.03c.42.05.74.14,1.02.23.51.19.84.51,1.02,1.02.19.51.28,1.3.28,2.42v21.73c0,1.11-.09,1.9-.28,2.42-.19.51-.51.84-1.02,1.02-.28.09-.6.19-1.02.23v1.02h9.01v-.98h-4.13Z"/></clipPath><clipPath id="clippath-6"><path class="cls-1" d="m116.99,57.35c-.98,0-1.72-.09-2.18-.28-.46-.19-.79-.51-.98-1.02-.19-.51-.28-1.3-.28-2.37v-11.08h3.9c2.88,0,4.97.61,6.27,1.82,1.3,1.21,1.95,2.97,1.95,5.3,0,5.12-2.88,7.67-8.69,7.67v-.05Zm-3.44-16.93v-8.42c0-1.07.09-1.86.28-2.37.19-.51.51-.88.98-1.07.46-.19,1.21-.28,2.18-.28,2.28,0,3.95.56,4.97,1.63,1.02,1.07,1.53,2.69,1.53,4.89s-.51,3.86-1.53,5.16c-1.02,1.3-2.79,1.95-5.34,1.95h-5.16c1.49,0,2-1.35,2.04-1.49h.05Zm14.63,4.42c-1.44-1.39-3.86-2.33-7.25-2.75v-.09c2.46-.7,4.23-1.72,5.34-3.07,1.11-1.36,1.67-2.89,1.67-4.56,0-2.1-.84-3.77-2.51-5.02-1.67-1.26-4.09-1.91-7.25-1.91-.6,0-8.32-.05-11.43-.05v.98c.46.05.84.14,1.11.23.51.19.84.51,1.02,1.02.19.51.28,1.3.28,2.42v21.73c0,1.11-.09,1.9-.28,2.42-.19.51-.51.84-1.02,1.02-.28.09-.65.19-1.11.23v.98h12.45c2.28,0,4.27-.37,5.95-1.07,1.67-.7,2.97-1.72,3.86-3.02.88-1.31,1.35-2.8,1.35-4.47,0-2.01-.74-3.72-2.18-5.12v.09Z"/></clipPath><clipPath id="clippath-7"><path class="cls-1" d="m152.37,50.61c-.23,1.49-.51,2.66-.88,3.54-.46,1.11-1.21,1.95-2.23,2.46-1.02.51-2.51.74-4.41.74h-9.01c1.53,0,2.04-1.49,2.04-1.49-.14-.51-.19-1.21-.19-2.14v-21.73c0-1.11.09-1.9.28-2.42.19-.51.51-.84,1.02-1.02.23-.09.56-.19.98-.23v-1.03h-9.01v1.03c.42.05.74.14,1.02.23.51.19.84.51,1.02,1.02.19.51.28,1.3.28,2.42v21.73c0,1.11-.09,1.9-.28,2.42-.19.51-.51.84-1.02,1.02-.28.09-.6.19-1.02.23v1.02h22.72v-7.77l-1.3-.05Z"/></clipPath><clipPath id="clippath-8"><path class="cls-1" d="m177.11,51.04h-1.25c-.23,1.39-.51,2.51-.88,3.3-.46,1.07-1.21,1.86-2.23,2.32-1.02.46-2.51.7-4.41.7h-3.39c-1.11,0-1.9-.09-2.42-.23-.51-.14-.84-.46-1.02-.98-.19-.51-.28-1.3-.28-2.42v-10.5h3.07c1.25,0,2.23.33,2.93.93.7.6,1.11,1.53,1.25,2.74.05.28.09.51.14.74h1.25l-.09-9.57h-1.3c-.09.74-.23,1.39-.37,1.9-.19.65-.56,1.21-1.16,1.67-.6.46-1.44.7-2.51.7h-5.11c1.44,0,1.95-1.25,2.04-1.44v-8.87c0-1.11.09-1.9.28-2.42.19-.51.51-.84,1.02-.98.51-.14,1.3-.23,2.42-.23h3.86c1.63,0,2.83.23,3.62.65.79.42,1.35,1.07,1.67,2,.23.7.46,1.63.65,2.83h1.25v-6.46h-21.6v.98c.46.05.84.14,1.11.23.51.19.84.51,1.02,1.02.19.51.28,1.3.28,2.42v21.69c0,1.11-.09,1.9-.28,2.42-.19.51-.51.84-1.02,1.02-.28.09-.65.19-1.11.23v.98h22.58v-7.39Z"/></clipPath><clipPath id="clippath-9"><path class="cls-1" d="m129.18,3.38c1.08,0,2.05.37,2.91,1.08.87.71,1.55,1.7,2.07,3.02.52,1.31.79,2.81.79,4.52s-.24,3.2-.71,4.52c-.47,1.32-1.13,2.34-1.97,3.07-.84.73-1.81,1.1-2.94,1.1s-2.05-.34-2.91-1.05c-.87-.71-1.57-1.7-2.1-3.02-.52-1.31-.79-2.81-.79-4.52s.24-3.2.71-4.52c.47-1.32,1.13-2.34,1.97-3.07.84-.73,1.81-1.11,2.94-1.11l.03-.03Zm.1-.42c-1.6,0-3.04.39-4.3,1.18-1.26.79-2.26,1.86-2.96,3.26-.71,1.39-1.05,2.99-1.05,4.8s.34,3.47,1.02,4.8c.68,1.34,1.65,2.36,2.91,3.07,1.26.71,2.7,1.05,4.35,1.05s3.04-.39,4.3-1.18c1.26-.79,2.26-1.86,2.96-3.26.71-1.39,1.05-2.99,1.05-4.8s-.34-3.47-1.02-4.8c-.68-1.34-1.65-2.36-2.91-3.07-1.26-.69-2.7-1.05-4.35-1.05Zm-20.55,10.76l2.99-7.38,2.94,7.38h-5.93Zm9.78,6.6c.81,0,1.1-.73,1.13-.84-.16-.21-.29-.47-.42-.76l-6.35-15.4h-.52l-6.11,14.82c-.5,1.23-1.18,1.94-2.05,2.15v.5h4.14v-.58c-.37-.05-.66-.16-.87-.29-.37-.24-.55-.6-.55-1.1,0-.47.18-1.15.52-2.04l1.08-2.62h6.35l1.6,4.06c.21.49.31.89.31,1.18,0,.34-.13.58-.42.71-.21.08-.52.16-.94.21v.52h5.67v-.5h-2.54l-.03-.03Zm-14.78-6.03c-.39-.63-.89-1.18-1.52-1.68-.63-.5-1.5-1.08-2.6-1.7l-.76-.45c-.87-.5-1.55-.92-2.02-1.26-.47-.34-.87-.73-1.18-1.21-.31-.47-.47-1.02-.47-1.65,0-.84.29-1.52.89-2.05.6-.52,1.36-.79,2.31-.79,1.34,0,2.36.45,3.07,1.36.55.73.92,1.6,1.1,2.6h.84V3.25h-.6c-.05.37-.13.66-.21.84-.08.18-.21.26-.37.26-.21,0-.5-.11-.89-.34-.47-.29-.92-.52-1.36-.68-.45-.16-1.05-.24-1.81-.24-1.39,0-2.57.37-3.51,1.1-.94.73-1.42,1.78-1.42,3.17,0,.87.21,1.63.6,2.28.39.66.92,1.21,1.55,1.68.63.47,1.47,1,2.49,1.6,1.42.81,2.44,1.55,3.09,2.18.66.63.97,1.42.97,2.33,0,1.08-.34,1.89-1,2.44-.66.55-1.47.84-2.41.84-1.55,0-2.7-.52-3.46-1.57-.55-.76-.92-1.68-1.13-2.75h-.81l-.08,4.62h.6c.05-.37.13-.66.21-.84.08-.18.21-.26.37-.26.21,0,.5.1.89.34.5.29,1,.5,1.52.66.52.16,1.21.24,2.05.24,1.6,0,2.94-.42,3.99-1.23,1.05-.81,1.57-1.97,1.57-3.46,0-.84-.18-1.57-.58-2.2l.08.05Zm-20.55-2.12h-2.91c.81,0,1.1-.73,1.13-.84v-5.25c0-.6.05-1.05.16-1.34.1-.29.29-.5.55-.6.26-.11.66-.16,1.21-.16,1.55,0,2.65.34,3.33,1.02.68.68,1.02,1.7,1.02,3.04s-.31,2.28-.97,3.02c-.66.73-1.84,1.1-3.57,1.1h.05Zm9.13,7.61c-.1.1-.21.21-.31.29-.21.16-.45.24-.73.24-.34,0-.6-.16-.79-.45-.18-.29-.37-.81-.55-1.57l-.66-2.52c-.24-1.05-.63-1.81-1.15-2.28-.52-.47-1.36-.81-2.52-1l-.31-.05c1.23-.18,2.23-.52,2.99-1.05.76-.52,1.31-1.1,1.63-1.76.31-.66.47-1.31.47-1.94,0-1.26-.55-2.28-1.65-3.07-1.1-.79-2.65-1.18-4.67-1.18l-6.35-.03v.58c.24.03.42.08.58.13.29.1.47.29.58.58.1.29.16.73.16,1.36v12.25c0,.63-.05,1.08-.16,1.36-.11.29-.29.47-.58.58-.16.05-.34.1-.58.13v.58h5.06v-.58c-.24-.03-.42-.08-.55-.13-.29-.1-.47-.29-.58-.58-.11-.29-.16-.73-.16-1.36v-5.69h2.49c.66,0,1.18.13,1.55.42.37.29.63.66.81,1.13.18.47.37,1.13.58,1.99l.58,2.47c.24,1,.58,1.68,1.05,2.07.47.39,1.05.6,1.76.6.66,0,1.18-.13,1.57-.37.26-.16.52-.39.79-.68l-.34-.47Zm-15.04-3.1h-.71c-.13.79-.29,1.42-.5,1.86-.26.6-.68,1.05-1.26,1.31-.58.26-1.42.39-2.49.39h-1.91c-.63,0-1.08-.05-1.36-.13-.29-.08-.47-.26-.58-.55-.11-.29-.16-.73-.16-1.36v-5.93h1.73c.71,0,1.26.18,1.65.52.39.34.63.87.71,1.55.03.16.05.29.08.42h.71l-.05-5.4h-.73c-.05.42-.13.79-.21,1.08-.11.37-.31.68-.66.94-.34.26-.81.39-1.42.39h-2.89c.81,0,1.1-.71,1.15-.81v-5.01c0-.63.05-1.08.16-1.36.1-.29.29-.47.58-.55.29-.08.73-.13,1.36-.13h2.18c.92,0,1.6.13,2.05.37.45.24.76.6.94,1.13.13.39.26.92.37,1.6h.71v-3.65h-12.2v.55c.26.03.47.08.63.13.29.11.47.29.58.58.1.29.16.73.16,1.36v12.25c0,.63-.05,1.08-.16,1.36-.11.29-.29.47-.58.58-.16.05-.37.1-.63.13v.55h12.75v-4.17Zm-15.49,3.59c.81,0,1.1-.71,1.15-.81-.08-.29-.1-.71-.1-1.26V5.93c0-.63.05-1.08.16-1.36.1-.29.29-.47.58-.58.16-.05.34-.1.58-.13v-.56l-3.75.05-5.64,14.26-5.77-14.34h-3.88v.58c.24.03.42.08.58.13.29.1.47.29.58.58.11.29.16.73.16,1.36v12.03c0,.63-.05,1.1-.16,1.42-.1.31-.31.55-.6.68-.16.08-.34.13-.58.18v.58h3.51v-.58c-.31-.05-.55-.1-.73-.18-.34-.13-.58-.37-.68-.68-.1-.31-.16-.79-.16-1.42V4.91l6.61,16.05h.42l6.32-16.02v13.26c0,.63-.05,1.08-.16,1.36-.11.29-.29.47-.58.58-.13.06-.31.11-.55.14v.58h5.06v-.58h-2.36ZM116.67.09h.65c-.02.24-.11.5-.25.78-.15.28-.35.54-.61.77-.26.24-.57.43-.93.58-.36.15-.78.23-1.25.23-.24,0-.52-.03-.83-.08-.31-.05-.74-.17-1.3-.34-.23-.07-.48-.12-.76-.19-.28-.07-.55-.1-.82-.1-.37,0-.66.06-.85.19-.19.13-.34.26-.45.41h-.65c.05-.22.15-.46.3-.73.15-.27.35-.53.61-.76.25-.24.56-.44.91-.6.35-.16.75-.25,1.2-.25.35,0,.69.04,1.01.12.32.08.53.14.64.17.51.15.93.26,1.26.34.33.08.64.12.92.12.41,0,.7-.07.87-.2.17-.13.28-.28.34-.45ZM42.3,20.3c.81,0,1.1-.73,1.13-.84-.08-.29-.1-.71-.1-1.26V5.93c0-.63.05-1.08.16-1.36.11-.29.29-.47.58-.58.16-.05.34-.1.58-.13v-.58h-5.09v.58c.24.03.42.08.58.13.29.1.47.29.58.58.11.29.16.73.16,1.36v12.27c0,.63-.05,1.08-.16,1.36-.1.29-.29.47-.58.58-.16.05-.34.1-.58.13v.58h5.09v-.55h-2.33Z"/></clipPath></defs><path class="cls-1" d="m4.88,57.45c1.44,0,1.95-1.3,2-1.49-.14-.51-.19-1.25-.19-2.23v-21.73c0-1.11.09-1.9.28-2.42.19-.51.51-.84,1.02-1.02.28-.09.6-.19,1.02-.23v-1.03H0v1.03c.42.05.74.14,1.02.23.51.19.84.51,1.02,1.02.19.51.28,1.3.28,2.42v21.73c0,1.11-.09,1.9-.28,2.42-.19.51-.51.84-1.02,1.02-.28.09-.6.19-1.02.23v1.02h9.01v-.98h-4.13Z"/><g class="cls-8"><rect class="cls-1" y="27.3" width="9.01" height="31.12"/></g><path class="cls-1" d="m29.85,27.44v1.02c.56.09,1.02.19,1.35.33.6.23.98.65,1.16,1.21.19.56.28,1.39.28,2.51v18.72l-16.4-23.83h-6.55v1.02c.42.05.74.14,1.02.23.51.19.84.51,1.02,1.02.19.51.28,1.3.28,2.42v21.28c0,1.11-.09,1.95-.28,2.51-.19.56-.56.98-1.07,1.21-.28.14-.6.23-1.02.33v1.02h6.22v-1.02c-.56-.09-1.02-.19-1.35-.33-.6-.23-1.02-.65-1.21-1.21-.19-.56-.28-1.39-.28-2.51v-23.09l19.37,28.15h1.21v-25.88c0-1.11.09-1.94.28-2.5.19-.56.56-.98,1.07-1.21.28-.14.6-.23,1.02-.33v-1.02l-6.13-.05Z"/><g class="cls-5"><rect class="cls-1" x="9.64" y="27.39" width="26.34" height="31.03"/></g><path class="cls-1" d="m58.96,27.44v.98c.65.09,1.21.28,1.63.51.65.42.98,1.07.98,1.95,0,.79-.33,2-.93,3.58l-7.57,18.4-8.41-20.9c-.37-.88-.56-1.58-.56-2.09,0-.56.23-.98.74-1.21.28-.14.65-.23,1.11-.33v-1.02h-9.15v.93c1.21.19,2.14,1.11,2.83,2.74l11.33,27.31h.74l10.92-26.34c.84-2,1.9-3.21,3.25-3.67v-.98l-6.92.14Z"/><g class="cls-2"><rect class="cls-1" x="36.8" y="27.3" width="29.08" height="30.98"/></g><path class="cls-1" d="m71.53,57.45c1.44,0,1.95-1.3,2-1.49-.14-.51-.19-1.25-.19-2.23v-21.73c0-1.11.09-1.9.28-2.42.19-.51.51-.84,1.02-1.02.28-.09.6-.19,1.02-.23v-1.03h-9.01v1.03c.42.05.74.14,1.02.23.51.19.84.51,1.02,1.02.19.51.28,1.3.28,2.42v21.73c0,1.11-.09,1.9-.28,2.42-.19.51-.51.84-1.02,1.02-.28.09-.6.19-1.02.23v1.02h9.01v-.98h-4.13Z"/><g class="cls-9"><rect class="cls-1" x="66.65" y="27.3" width="9.01" height="31.12"/></g><path class="cls-1" d="m95.29,46.81c-.7-1.11-1.58-2.09-2.69-2.97-1.11-.88-2.65-1.9-4.6-3.02l-1.35-.79c-1.53-.88-2.74-1.63-3.58-2.23-.84-.6-1.53-1.3-2.09-2.14-.56-.84-.84-1.81-.84-2.93,0-1.49.51-2.69,1.58-3.62,1.07-.93,2.42-1.39,4.09-1.39,2.37,0,4.18.79,5.43,2.42.98,1.3,1.63,2.83,1.95,4.6h1.49v-7.48h-1.07c-.09.65-.23,1.16-.37,1.49-.14.33-.37.46-.65.46-.37,0-.88-.19-1.58-.6-.84-.51-1.63-.93-2.42-1.21-.79-.28-1.86-.42-3.21-.42-2.46,0-4.55.65-6.22,1.95-1.67,1.3-2.51,3.16-2.51,5.62,0,1.53.37,2.88,1.07,4.04.7,1.16,1.63,2.14,2.74,2.97,1.11.84,2.6,1.77,4.41,2.83,2.51,1.44,4.32,2.74,5.48,3.86,1.16,1.11,1.72,2.51,1.72,4.13,0,1.9-.6,3.34-1.77,4.32-1.16.98-2.6,1.49-4.27,1.49-2.74,0-4.78-.93-6.13-2.79-.98-1.35-1.63-2.97-2-4.88h-1.44l-.14,8.18h1.07c.09-.65.23-1.16.37-1.49.14-.33.37-.46.65-.46.37,0,.88.19,1.58.6.88.51,1.77.88,2.69,1.16.93.28,2.14.42,3.62.42,2.83,0,5.2-.74,7.06-2.18,1.86-1.44,2.79-3.48,2.79-6.13,0-1.49-.33-2.79-1.02-3.9l.14.09Z"/><g class="cls-6"><rect class="cls-1" x="76.34" y="26.97" width="19.84" height="31.96"/></g><path class="cls-1" d="m101.87,57.45c1.44,0,1.95-1.3,2-1.49-.14-.51-.19-1.25-.19-2.23v-21.73c0-1.11.09-1.9.28-2.42.19-.51.51-.84,1.02-1.02.28-.09.6-.19,1.02-.23v-1.03h-9.01v1.03c.42.05.74.14,1.02.23.51.19.84.51,1.02,1.02.19.51.28,1.3.28,2.42v21.73c0,1.11-.09,1.9-.28,2.42-.19.51-.51.84-1.02,1.02-.28.09-.6.19-1.02.23v1.02h9.01v-.98h-4.13Z"/><g class="cls-11"><rect class="cls-1" x="96.99" y="27.3" width="9.01" height="31.12"/></g><path class="cls-1" d="m116.99,57.35c-.98,0-1.72-.09-2.18-.28-.46-.19-.79-.51-.98-1.02-.19-.51-.28-1.3-.28-2.37v-11.08h3.9c2.88,0,4.97.61,6.27,1.82,1.3,1.21,1.95,2.97,1.95,5.3,0,5.12-2.88,7.67-8.69,7.67v-.05Zm-3.44-16.93v-8.42c0-1.07.09-1.86.28-2.37.19-.51.51-.88.98-1.07.46-.19,1.21-.28,2.18-.28,2.28,0,3.95.56,4.97,1.63,1.02,1.07,1.53,2.69,1.53,4.89s-.51,3.86-1.53,5.16c-1.02,1.3-2.79,1.95-5.34,1.95h-5.16c1.49,0,2-1.35,2.04-1.49h.05Zm14.63,4.42c-1.44-1.39-3.86-2.33-7.25-2.75v-.09c2.46-.7,4.23-1.72,5.34-3.07,1.11-1.36,1.67-2.89,1.67-4.56,0-2.1-.84-3.77-2.51-5.02-1.67-1.26-4.09-1.91-7.25-1.91-.6,0-8.32-.05-11.43-.05v.98c.46.05.84.14,1.11.23.51.19.84.51,1.02,1.02.19.51.28,1.3.28,2.42v21.73c0,1.11-.09,1.9-.28,2.42-.19.51-.51.84-1.02,1.02-.28.09-.65.19-1.11.23v.98h12.45c2.28,0,4.27-.37,5.95-1.07,1.67-.7,2.97-1.72,3.86-3.02.88-1.31,1.35-2.8,1.35-4.47,0-2.01-.74-3.72-2.18-5.12v.09Z"/><g class="cls-3"><rect class="cls-1" x="106.77" y="27.39" width="23.6" height="31.03"/></g><path class="cls-1" d="m152.37,50.61c-.23,1.49-.51,2.66-.88,3.54-.46,1.11-1.21,1.95-2.23,2.46-1.02.51-2.51.74-4.41.74h-9.01c1.53,0,2.04-1.49,2.04-1.49-.14-.51-.19-1.21-.19-2.14v-21.73c0-1.11.09-1.9.28-2.42.19-.51.51-.84,1.02-1.02.23-.09.56-.19.98-.23v-1.03h-9.01v1.03c.42.05.74.14,1.02.23.51.19.84.51,1.02,1.02.19.51.28,1.3.28,2.42v21.73c0,1.11-.09,1.9-.28,2.42-.19.51-.51.84-1.02,1.02-.28.09-.6.19-1.02.23v1.02h22.72v-7.77l-1.3-.05Z"/><g class="cls-4"><rect class="cls-1" x="130.96" y="27.3" width="22.72" height="31.12"/></g><path class="cls-1" d="m177.11,51.04h-1.25c-.23,1.39-.51,2.51-.88,3.3-.46,1.07-1.21,1.86-2.23,2.32-1.02.46-2.51.7-4.41.7h-3.39c-1.11,0-1.9-.09-2.42-.23-.51-.14-.84-.46-1.02-.98-.19-.51-.28-1.3-.28-2.42v-10.5h3.07c1.25,0,2.23.33,2.93.93.7.6,1.11,1.53,1.25,2.74.05.28.09.51.14.74h1.25l-.09-9.57h-1.3c-.09.74-.23,1.39-.37,1.9-.19.65-.56,1.21-1.16,1.67-.6.46-1.44.7-2.51.7h-5.11c1.44,0,1.95-1.25,2.04-1.44v-8.87c0-1.11.09-1.9.28-2.42.19-.51.51-.84,1.02-.98.51-.14,1.3-.23,2.42-.23h3.86c1.63,0,2.83.23,3.62.65.79.42,1.35,1.07,1.67,2,.23.7.46,1.63.65,2.83h1.25v-6.46h-21.6v.98c.46.05.84.14,1.11.23.51.19.84.51,1.02,1.02.19.51.28,1.3.28,2.42v21.69c0,1.11-.09,1.9-.28,2.42-.19.51-.51.84-1.02,1.02-.28.09-.65.19-1.11.23v.98h22.58v-7.39Z"/><g class="cls-10"><rect class="cls-1" x="154.53" y="27.44" width="22.58" height="30.98"/></g><path class="cls-1" d="m129.18,3.38c1.08,0,2.05.37,2.91,1.08.87.71,1.55,1.7,2.07,3.02.52,1.31.79,2.81.79,4.52s-.24,3.2-.71,4.52c-.47,1.32-1.13,2.34-1.97,3.07-.84.73-1.81,1.1-2.94,1.1s-2.05-.34-2.91-1.05c-.87-.71-1.57-1.7-2.1-3.02-.52-1.31-.79-2.81-.79-4.52s.24-3.2.71-4.52c.47-1.32,1.13-2.34,1.97-3.07.84-.73,1.81-1.11,2.94-1.11l.03-.03Zm.1-.42c-1.6,0-3.04.39-4.3,1.18-1.26.79-2.26,1.86-2.96,3.26-.71,1.39-1.05,2.99-1.05,4.8s.34,3.47,1.02,4.8c.68,1.34,1.65,2.36,2.91,3.07,1.26.71,2.7,1.05,4.35,1.05s3.04-.39,4.3-1.18c1.26-.79,2.26-1.86,2.96-3.26.71-1.39,1.05-2.99,1.05-4.8s-.34-3.47-1.02-4.8c-.68-1.34-1.65-2.36-2.91-3.07-1.26-.69-2.7-1.05-4.35-1.05Zm-20.55,10.76l2.99-7.38,2.94,7.38h-5.93Zm9.78,6.6c.81,0,1.1-.73,1.13-.84-.16-.21-.29-.47-.42-.76l-6.35-15.4h-.52l-6.11,14.82c-.5,1.23-1.18,1.94-2.05,2.15v.5h4.14v-.58c-.37-.05-.66-.16-.87-.29-.37-.24-.55-.6-.55-1.1,0-.47.18-1.15.52-2.04l1.08-2.62h6.35l1.6,4.06c.21.49.31.89.31,1.18,0,.34-.13.58-.42.71-.21.08-.52.16-.94.21v.52h5.67v-.5h-2.54l-.03-.03Zm-14.78-6.03c-.39-.63-.89-1.18-1.52-1.68-.63-.5-1.5-1.08-2.6-1.7l-.76-.45c-.87-.5-1.55-.92-2.02-1.26-.47-.34-.87-.73-1.18-1.21-.31-.47-.47-1.02-.47-1.65,0-.84.29-1.52.89-2.05.6-.52,1.36-.79,2.31-.79,1.34,0,2.36.45,3.07,1.36.55.73.92,1.6,1.1,2.6h.84V3.25h-.6c-.05.37-.13.66-.21.84-.08.18-.21.26-.37.26-.21,0-.5-.11-.89-.34-.47-.29-.92-.52-1.36-.68-.45-.16-1.05-.24-1.81-.24-1.39,0-2.57.37-3.51,1.1-.94.73-1.42,1.78-1.42,3.17,0,.87.21,1.63.6,2.28.39.66.92,1.21,1.55,1.68.63.47,1.47,1,2.49,1.6,1.42.81,2.44,1.55,3.09,2.18.66.63.97,1.42.97,2.33,0,1.08-.34,1.89-1,2.44-.66.55-1.47.84-2.41.84-1.55,0-2.7-.52-3.46-1.57-.55-.76-.92-1.68-1.13-2.75h-.81l-.08,4.62h.6c.05-.37.13-.66.21-.84.08-.18.21-.26.37-.26.21,0,.5.1.89.34.5.29,1,.5,1.52.66.52.16,1.21.24,2.05.24,1.6,0,2.94-.42,3.99-1.23,1.05-.81,1.57-1.97,1.57-3.46,0-.84-.18-1.57-.58-2.2l.08.05Zm-20.55-2.12h-2.91c.81,0,1.1-.73,1.13-.84v-5.25c0-.6.05-1.05.16-1.34.1-.29.29-.5.55-.6.26-.11.66-.16,1.21-.16,1.55,0,2.65.34,3.33,1.02.68.68,1.02,1.7,1.02,3.04s-.31,2.28-.97,3.02c-.66.73-1.84,1.1-3.57,1.1h.05Zm9.13,7.61c-.1.1-.21.21-.31.29-.21.16-.45.24-.73.24-.34,0-.6-.16-.79-.45-.18-.29-.37-.81-.55-1.57l-.66-2.52c-.24-1.05-.63-1.81-1.15-2.28-.52-.47-1.36-.81-2.52-1l-.31-.05c1.23-.18,2.23-.52,2.99-1.05.76-.52,1.31-1.1,1.63-1.76.31-.66.47-1.31.47-1.94,0-1.26-.55-2.28-1.65-3.07-1.1-.79-2.65-1.18-4.67-1.18l-6.35-.03v.58c.24.03.42.08.58.13.29.1.47.29.58.58.1.29.16.73.16,1.36v12.25c0,.63-.05,1.08-.16,1.36-.11.29-.29.47-.58.58-.16.05-.34.1-.58.13v.58h5.06v-.58c-.24-.03-.42-.08-.55-.13-.29-.1-.47-.29-.58-.58-.11-.29-.16-.73-.16-1.36v-5.69h2.49c.66,0,1.18.13,1.55.42.37.29.63.66.81,1.13.18.47.37,1.13.58,1.99l.58,2.47c.24,1,.58,1.68,1.05,2.07.47.39,1.05.6,1.76.6.66,0,1.18-.13,1.57-.37.26-.16.52-.39.79-.68l-.34-.47Zm-15.04-3.1h-.71c-.13.79-.29,1.42-.5,1.86-.26.6-.68,1.05-1.26,1.31-.58.26-1.42.39-2.49.39h-1.91c-.63,0-1.08-.05-1.36-.13-.29-.08-.47-.26-.58-.55-.11-.29-.16-.73-.16-1.36v-5.93h1.73c.71,0,1.26.18,1.65.52.39.34.63.87.71,1.55.03.16.05.29.08.42h.71l-.05-5.4h-.73c-.05.42-.13.79-.21,1.08-.11.37-.31.68-.66.94-.34.26-.81.39-1.42.39h-2.89c.81,0,1.1-.71,1.15-.81v-5.01c0-.63.05-1.08.16-1.36.1-.29.29-.47.58-.55.29-.08.73-.13,1.36-.13h2.18c.92,0,1.6.13,2.05.37.45.24.76.6.94,1.13.13.39.26.92.37,1.6h.71v-3.65h-12.2v.55c.26.03.47.08.63.13.29.11.47.29.58.58.1.29.16.73.16,1.36v12.25c0,.63-.05,1.08-.16,1.36-.11.29-.29.47-.58.58-.16.05-.37.1-.63.13v.55h12.75v-4.17Zm-15.49,3.59c.81,0,1.1-.71,1.15-.81-.08-.29-.1-.71-.1-1.26V5.93c0-.63.05-1.08.16-1.36.1-.29.29-.47.58-.58.16-.05.34-.1.58-.13v-.56l-3.75.05-5.64,14.26-5.77-14.34h-3.88v.58c.24.03.42.08.58.13.29.1.47.29.58.58.11.29.16.73.16,1.36v12.03c0,.63-.05,1.1-.16,1.42-.1.31-.31.55-.6.68-.16.08-.34.13-.58.18v.58h3.51v-.58c-.31-.05-.55-.1-.73-.18-.34-.13-.58-.37-.68-.68-.1-.31-.16-.79-.16-1.42V4.91l6.61,16.05h.42l6.32-16.02v13.26c0,.63-.05,1.08-.16,1.36-.11.29-.29.47-.58.58-.13.06-.31.11-.55.14v.58h5.06v-.58h-2.36ZM116.67.09h.65c-.02.24-.11.5-.25.78-.15.28-.35.54-.61.77-.26.24-.57.43-.93.58-.36.15-.78.23-1.25.23-.24,0-.52-.03-.83-.08-.31-.05-.74-.17-1.3-.34-.23-.07-.48-.12-.76-.19-.28-.07-.55-.1-.82-.1-.37,0-.66.06-.85.19-.19.13-.34.26-.45.41h-.65c.05-.22.15-.46.3-.73.15-.27.35-.53.61-.76.25-.24.56-.44.91-.6.35-.16.75-.25,1.2-.25.35,0,.69.04,1.01.12.32.08.53.14.64.17.51.15.93.26,1.26.34.33.08.64.12.92.12.41,0,.7-.07.87-.2.17-.13.28-.28.34-.45ZM42.3,20.3c.81,0,1.1-.73,1.13-.84-.08-.29-.1-.71-.1-1.26V5.93c0-.63.05-1.08.16-1.36.11-.29.29-.47.58-.58.16-.05.34-.1.58-.13v-.58h-5.09v.58c.24.03.42.08.58.13.29.1.47.29.58.58.11.29.16.73.16,1.36v12.27c0,.63-.05,1.08-.16,1.36-.1.29-.29.47-.58.58-.16.05-.34.1-.58.13v.58h5.09v-.55h-2.33Z"/><g class="cls-7"><rect class="cls-1" x="39.54" width="98.03" height="21.3"/></g></svg>