<?xml version="1.0" encoding="UTF-8"?><svg id="Layer_1" xmlns="http://www.w3.org/2000/svg" viewBox="0 0 227.15 108.11"><defs><style>.cls-1{fill:#d19e78}</style></defs><path class="cls-1" d="M92.38,24.56c1.76-4.28,3.42-8.3,5.08-12.32,1.51-3.65,3.03-7.3,4.52-10.96,.27-.65,.58-1.08,1.37-1.08,2.63,.01,5.27,.04,7.9-.17,.52-.04,1.19-.16,1.35,.63,.16,.78-.35,1.04-.97,1.25-1.51,.5-1.87,1.7-1.87,3.13,0,5.15,0,10.3,0,15.46,0,3.59,.03,7.19-.02,10.78-.02,1.69,.43,2.99,2.19,3.54,.48,.15,.73,.47,.66,.99-.07,.6-.53,.63-.98,.64-3.71,0-7.43,0-11.14,0-.46,0-.91-.05-.97-.65-.06-.54,.26-.81,.73-.94,1.79-.48,2.3-1.8,2.3-3.47,0-5.11,.16-10.23-.08-15.33-.16-3.52,.34-7.01-.01-10.61-.44,.2-.47,.62-.61,.95-3.93,9.57-7.85,19.14-11.78,28.7-.25,.6-.35,1.33-1.28,1.36-.92,.03-1.09-.65-1.36-1.27-3.88-9.07-7.76-18.13-11.64-27.2-.15-.36-.31-.72-.52-1.19-.37,.36-.25,.73-.25,1.04,0,7.91,.01,15.82,0,23.72,0,1.55,.45,2.75,2.08,3.22,.52,.15,.84,.46,.76,1.05-.1,.68-.64,.62-1.11,.63-1.72,.01-3.43,0-5.15,0-.48,0-1.01,.01-1.08-.66-.07-.59,.26-.89,.79-1.01,1.69-.38,2.15-1.65,2.2-3.14,.05-1.52,.02-3.04,.02-4.55,0-7.11,0-14.22,.03-21.33,0-1.84-.25-3.46-2.35-4.05-.4-.11-.54-.45-.49-.85,.05-.44,.36-.61,.75-.61,2.92,0,5.83,0,8.75,0,.71,0,.88,.56,1.12,1.07,3.49,7.41,6.98,14.81,10.48,22.21,.13,.28,.3,.54,.58,1.05Z"/><path class="cls-1" d="M130.34,24.46c1.69-4.52,3.55-8.85,4.68-13.43,.2-.81,.08-1.52-.75-1.93-.46-.23-.62-.6-.53-1.09,.11-.59,.59-.58,1.03-.58,1.8,0,3.6,0,5.39,0,.42,0,.82,.06,.91,.58,.09,.52-.16,.83-.64,.99-1.61,.53-2.56,1.74-3.22,3.2-1.58,3.46-2.73,7.08-4.1,10.61-2.92,7.52-5.37,15.22-8.96,22.47-.42,.86-.94,1.67-1.37,2.52-1.34,2.61-3.5,3.55-6.34,3.26-1.88-.19-3.1-1.36-3.06-3.05,.04-1.74,1.33-2.93,3.23-2.95,.64,0,1.28,0,1.92-.02,1.57-.06,2.84-.7,3.8-1.96,1.59-2.08,2.63-4.47,3.78-6.79,.25-.51,.14-1-.06-1.51-2.7-6.96-5.35-13.95-8.1-20.89-.81-2.04-1.81-4.04-4.09-4.91-.44-.17-.53-.56-.46-1,.08-.45,.42-.56,.8-.56,3.83,0,7.67,0,11.5,0,.39,0,.72,.12,.79,.57,.07,.42,0,.83-.43,1.02-.97,.44-1.1,1.18-.81,2.09,1.42,4.41,3.09,8.73,4.76,13.05,.02,.06,.11,.1,.33,.3Z"/><path class="cls-1" d="M164.78,4.93c.64,.53,.81,1.1,1.04,1.64,1.69,3.92,.77,7.58-1.1,11.14-1.1,2.09-2.52,3.97-3.88,5.9-1.84,2.6-3.27,5.33-3.44,8.66-.21,4.12,2.74,7.11,7.03,7.27,1.04,.04,2.06-.04,3.14-.2-.82,1.03-3.63,1.72-5.38,1.61-5.35-.33-8.77-6.3-8.86-10.01-.07-2.87,.57-5.54,1.69-8.14,.15-.35,.45-.67,.31-1.29-2.25,1.89-3.69,4.1-4.13,6.94-.42,2.77,.39,5.33,1.51,8.1-3.68-3.13-5.04-7.99-3.61-12.37,.99-3.04,2.74-5.67,4.54-8.26,1.71-2.46,3.51-4.86,5.01-7.45,1.35-2.33,2.4-4.78,2.63-7.51,.02-.27-.02-.63,.3-.72,.32-.08,.44,.27,.64,.45,1.38,1.26,1.57,2.81,1.4,4.59-.48,5.08-2.31,9.66-4.86,14.03-1.68,2.87-3.07,5.89-2.99,9.35,0,.31,.05,.63,.07,.95,.49,0,.39-.38,.44-.59,.91-4.02,2.62-7.7,4.77-11.19,1.75-2.84,3.24-5.78,3.69-9.15,.16-1.18,.08-2.35,.04-3.72Z"/><path class="cls-1" d="M43.36,66.65c1.61-1.47,2.8-2.81,4.22-3.91,3.58-2.76,7.35-5.12,11.92-5.82,2.33-.36,4.48,.02,6.1,1.92,1.19,1.4,.8,2.74-.92,3.35-1.13,.4-1.69,.13-1.95-1.06-.17-.76-.63-.68-1.17-.6-2.29,.34-4.39,1.2-6.35,2.39-3.21,1.94-6,4.35-8.33,7.3-2.5,3.16-4.04,6.66-4.26,10.72-.08,1.42-.63,1.74-1.96,1.3-1.91-.63-2.99-2.06-3.07-4.12-.14-3.64,.26-7.25,.57-10.87,.18-2.11,.42-4.21,.63-6.31,.17-1.75,1-2.23,2.58-1.41,1.26,.66,2,1.68,2,3.16,0,1.19,0,2.38,0,3.95Z"/><path class="cls-1" d="M171.08,31.79c3.26-2.62,4.41-6.43,5.75-10.18,2.18,2.53,1.63,10.53-.94,14.8-2.46,4.08-7.62,6.92-11.32,6.05,3.17-1.28,5.59-3.2,7.27-5.98,.53-.88,1.01-1.78,1.12-2.91-.42,.4-.82,.82-1.26,1.19-1.81,1.53-3.82,2.52-6.26,2.67-2.77,.17-4.08-2.55-3.64-4.61,.54-2.54,2.88-4.31,5.45-4.12,1.56,.12,2.11-.31,2.68-1.75,.52-1.32,.97-2.63,1-4.06,0-.4,.33-.62,.62-.84,.74-.53,.8-1.21,.25-1.86-1.31-1.54-1.55-3.3-1.45-5.25,.13-2.45-1.02-4.46-2.74-6.37,2.7,1.34,6.76,6.12,7.24,10.73,.48,4.7-1.46,8.62-3.77,12.48Z"/><path class="cls-1" d="M226.57,65.33c-.41-.21-.66,.1-.93,.34-5.13,4.39-11.2,6.87-17.64,8.48-3.37,.84-6.53-.98-7.84-4.18-.68-1.66-1.27-3.36-1.86-5.06-.49-1.42-1.47-2.33-2.79-2.95-.94-.43-1.7-.3-2.52,.38-3.35,2.78-6.74,5.5-10.12,8.25-1.11,.91-1.21,.88-1.56-.52-.61-2.44-.91-4.96-1.76-7.34-1.2-3.35-3.65-4.16-6.61-2.29-3.97,2.51-7.06,5.97-10.24,9.33-.45,.48-.82,1.05-1.44,1.38-.34-.45-.2-.91-.21-1.33-.07-2.4,.3-4.78,.26-7.18-.02-1.71-.97-2.65-2.31-3.32-1.08-.54-1.79-.14-1.99,1.04-.14,.82-.25,1.66-.31,2.49-.09,1.23-.63,2.19-1.54,3-3.1,2.75-6.47,5.07-10.25,6.79-2.93,1.33-5.93,2.36-9.24,2.15-1.38-.09-2.39-.67-2.97-1.88-.54-1.13-.76-2.33-.58-3.61,.29-2,1.09-3.83,1.76-5.71,.17-.49,.39-.97,.13-1.5-.6-1.2-1.63-1.85-2.88-2.14-1.17-.27-1.56,.72-2.1,1.45-.12,.16-.25,.31-.34,.49-.52,1.02-1.23,1.08-2.27,.68-4.75-1.82-9.63-2.2-14.58-.94-3.56,.9-6.94,2.32-8.99,5.5-1.38,2.16-3.13,3.81-5.08,5.31-5.26,4.06-10.94,7.03-17.84,6.91-3.74-.06-6.43-1.88-8.49-4.81-.73-1.03-.53-1.28,.71-1.46,3.76-.55,6.9-2.25,9.16-5.34,1.91-2.61,1.29-5.68-1.31-7.57-1.94-1.41-4.01-1.66-6.25-1.02-4.12,1.19-7.11,5.11-7.61,9.96-.45,4.32,1.94,8.8,5.85,10.87,5.04,2.66,10.46,3.01,15.97,2.3,5.05-.65,9.24-3.17,12.96-6.53,.64-.58,.93-.6,1.41,.19,2.04,3.35,5.05,4.56,8.89,3.95,1.92-.31,3.72-.93,5.45-1.76,3.66-1.75,6.96-4.07,10.04-6.69,.66-.56,1-.65,1.44,.3,2.33,5.04,7.58,7.76,13.02,6.67,5.45-1.1,10.34-3.28,13.99-7.69,.26-.31,.5-.7,1.07-.89,0,1.23,0,2.35,0,3.46,0,2.41,.59,4.49,3,5.64,.89,.43,1.61,.48,2.4-.21,1.85-1.61,3.33-3.55,4.9-5.4,2.39-2.84,4.77-5.7,7.73-7.98,1.34-1.03,1.46-.98,1.86,.66,.68,2.75,1.32,5.52,2.46,8.13,1.13,2.61,3.63,3.34,5.88,1.72,3.05-2.2,5.97-4.56,8.88-6.92,1.59-1.29,1.53-1.3,2.52,.56,2.93,5.48,7.49,8.36,13.73,8.43,3.78,.04,7.07-1.5,10.23-3.36,2.32-1.37,4.38-3.08,6.08-5.18,.68-.84,1.2-1.8,1.23-2.93,.01-.45-.13-.89-.57-1.11Zm-155.11,2.13c.64-1.49,1.61-2.75,2.82-3.82,.64-.56,1.35-.99,2.24-1.05,.68,.03,1.28,.29,1.57,.91,.3,.66-.09,1.26-.48,1.75-1.26,1.59-2.9,2.73-4.67,3.68-.63,.34-1.47,1.2-1.96,.71-.49-.5,.17-1.47,.48-2.19Zm53.22-1.03c-2.23,2.2-4.76,4.02-7.43,5.62-2.82,1.69-5.77,3.08-9.02,3.77-1.05,.22-2,.18-2.75-.66-.73-.82-.59-1.77-.26-2.71,.77-2.25,2.4-3.7,4.43-4.81,3.46-1.89,7.21-2.48,11.42-2.68,.88,.11,2.11,.27,3.33,.43,.92,.12,.85,.5,.29,1.05Z"/><path class="cls-1" d="M37.79,106.16c-.33-.56-.81-.99-1.39-1.29-.49-.26-.79-.65-.96-1.17-.58-1.74-1.11-3.5-1.44-5.31-.82-4.57-.99-9.21-1.13-13.82-.25-8.34-.04-16.68,.35-25.02,.34-7.33,.75-14.62,1.9-21.91,1.35-8.58,1.92-17.28,2.26-25.97,.08-2.14-.54-3.19-2.42-4-1.46-.63-2.2-.24-2.41,1.33-.46,3.32-.9,6.64-1.31,9.97-.68,5.5-1.37,11-1.8,16.53-.27,3.46-.53,6.9-1.45,10.28-1.23,4.55-2.49,9.09-4.07,13.53-.23,.65-.36,1.44-1.44,1.14-2.27-.64-4.59-1-6.96-1.11-4.44-.21-8.57,.6-12.15,3.42-3.13,2.47-4.25,7-2.57,10.59,3.61,7.71,13.81,8.89,19.46,2.32,2.83-3.28,4.89-6.99,6.61-10.92,.39-.9,.78-1.8,1.17-2.7l.2,.04c0,.38,0,.77,0,1.15-.04,2.99,0,5.98-.16,8.98-.17,3.34,0,6.7,.15,10.05,.22,4.86,.39,9.73,1.26,14.53,.56,3.08,1.28,6.11,3.31,8.63,.98,1.22,2.26,2,3.71,2.53,.54,.2,1.14,.23,1.55-.27,.44-.55,.05-1.07-.23-1.54Zm-16.39-41.33c-1.47,2.7-2.93,5.4-5.03,7.68-1.99,2.15-4.25,3.86-6.54,3.96-3.72-.01-5.68-2.27-5.22-5.15,.62-3.87,3.09-6.1,6.68-7.19,3.11-.94,6.31-.68,9.5-.48,.84,.05,1.09,.3,.61,1.18Z"/></svg>