<?xml version="1.0" encoding="UTF-8"?><svg id="Layer_1" xmlns="http://www.w3.org/2000/svg" xmlns:xlink="http://www.w3.org/1999/xlink" viewBox="0 0 69.93 33.27"><defs><style>.cls-1{fill:url(#linear-gradient-2);}.cls-2{fill:url(#linear-gradient-6);}.cls-3{fill:url(#linear-gradient-5);}.cls-4{fill:url(#linear-gradient-7);}.cls-5{fill:url(#linear-gradient-3);}.cls-6{fill:url(#linear-gradient);}.cls-7{fill:url(#linear-gradient-4);}</style><linearGradient id="linear-gradient" x1="28.16" y1="22.66" x2="28.16" y2="33.89" gradientTransform="translate(0 33.87) scale(1 -1)" gradientUnits="userSpaceOnUse"><stop offset="0" stop-color="#f4d38f"/><stop offset=".32" stop-color="#d8b15e"/><stop offset=".66" stop-color="#f4d38f"/><stop offset="1" stop-color="#d8b15e"/></linearGradient><linearGradient id="linear-gradient-2" x1="39.16" y1="18.14" x2="39.16" y2="31.6" xlink:href="#linear-gradient"/><linearGradient id="linear-gradient-3" x1="48.64" y1="21.27" x2="48.64" y2="33.8" xlink:href="#linear-gradient"/><linearGradient id="linear-gradient-4" x1="15.97" y1="8.5" x2="15.97" y2="16.4" xlink:href="#linear-gradient"/><linearGradient id="linear-gradient-5" x1="52.3" y1="20.75" x2="52.3" y2="31.24" xlink:href="#linear-gradient"/><linearGradient id="linear-gradient-6" x1="45.14" y1="8.45" x2="45.14" y2="15.77" xlink:href="#linear-gradient"/><linearGradient id="linear-gradient-7" x1="5.89" y1=".6" x2="5.89" y2="31.61" xlink:href="#linear-gradient"/></defs><path class="cls-6" d="M28.42,7.55c.54-1.32,1.05-2.56,1.56-3.79,.46-1.12,.93-2.25,1.39-3.37,.08-.2,.18-.33,.42-.33,.81,0,1.62,0,2.43-.05,.16,0,.37-.05,.42,.19,.05,.24-.11,.32-.3,.38-.46,.15-.58,.52-.58,.96V9.62c0,.52,.13,.92,.67,1.09,.15,.05,.22,.14,.2,.3-.02,.18-.16,.19-.3,.2h-3.43c-.14,0-.28-.02-.3-.2-.02-.17,.08-.25,.22-.29,.55-.15,.71-.55,.71-1.07,0-1.57,.05-3.15-.02-4.72-.05-1.08,.1-2.16,0-3.27-.14,.06-.14,.19-.19,.29-1.21,2.95-2.42,5.89-3.63,8.84-.08,.18-.11,.41-.39,.42-.28,0-.34-.2-.42-.39-1.19-2.79-2.39-5.58-3.58-8.38-.05-.11-.1-.22-.16-.37-.11,.11-.08,.22-.08,.32v7.3c0,.48,.14,.85,.64,.99,.16,.05,.26,.14,.23,.32-.03,.21-.2,.19-.34,.19h-1.59c-.15,0-.31,0-.33-.2-.02-.18,.08-.27,.24-.31,.52-.12,.66-.51,.68-.97,.02-.47,0-.94,0-1.4V1.74c0-.57-.08-1.07-.72-1.25-.12-.03-.17-.14-.15-.26,.02-.14,.11-.19,.23-.19h2.69c.22,0,.27,.17,.34,.33,1.07,2.28,2.15,4.56,3.23,6.84,.04,.09,.09,.17,.18,.32h0l.03,.02Z"/><path class="cls-1" d="M40.11,7.52c.52-1.39,1.09-2.73,1.44-4.14,.06-.25,.02-.47-.23-.59-.14-.07-.19-.18-.16-.34,.03-.18,.18-.18,.32-.18h1.66c.13,0,.25,.02,.28,.18s-.05,.26-.2,.3c-.5,.16-.79,.54-.99,.99-.49,1.07-.84,2.18-1.26,3.27-.9,2.32-1.65,4.69-2.76,6.92-.13,.26-.29,.51-.42,.78-.41,.8-1.08,1.09-1.95,1-.58-.06-.95-.42-.94-.94,0-.54,.41-.9,.99-.91h.59c.48-.02,.87-.22,1.17-.6,.49-.64,.81-1.38,1.16-2.09,.08-.16,.04-.31-.02-.46-.83-2.14-1.65-4.3-2.49-6.43-.25-.63-.56-1.24-1.26-1.51-.14-.05-.16-.17-.14-.31,.02-.14,.13-.17,.25-.17h3.54c.12,0,.22,.04,.24,.18,.02,.13,0,.26-.13,.31-.3,.14-.34,.36-.25,.64,.44,1.36,.95,2.69,1.47,4.02,0,.02,.03,.03,.1,.09h-.01Z"/><path class="cls-5" d="M50.71,1.51c.2,.16,.25,.34,.32,.5,.52,1.21,.24,2.33-.34,3.43-.34,.64-.78,1.22-1.19,1.82-.57,.8-1.01,1.64-1.06,2.67-.06,1.27,.84,2.19,2.16,2.24,.32,.01,.63-.01,.97-.06-.25,.32-1.12,.53-1.66,.5-1.65-.1-2.7-1.94-2.73-3.08-.02-.88,.18-1.71,.52-2.51,.05-.11,.14-.21,.1-.4-.69,.58-1.14,1.26-1.27,2.14-.13,.85,.12,1.64,.46,2.49-1.13-.96-1.55-2.46-1.11-3.81,.3-.94,.84-1.75,1.4-2.54,.53-.76,1.08-1.5,1.54-2.29,.42-.72,.74-1.47,.81-2.31,0-.08,0-.19,.09-.22,.1-.02,.14,.08,.2,.14,.42,.39,.48,.87,.43,1.41-.15,1.56-.71,2.97-1.5,4.32-.52,.88-.95,1.81-.92,2.88,0,.1,.02,.19,.02,.29,.15,0,.12-.12,.14-.18,.28-1.24,.81-2.37,1.47-3.45,.54-.87,1-1.78,1.14-2.82,.05-.36,.02-.72,0-1.15h0Z"/><path class="cls-7" d="M13.33,20.51c.5-.45,.86-.87,1.3-1.2,1.1-.85,2.26-1.58,3.67-1.79,.72-.11,1.38,0,1.88,.59,.37,.43,.25,.84-.28,1.03-.35,.12-.52,.04-.6-.33-.05-.23-.19-.21-.36-.18-.71,.1-1.35,.37-1.96,.74-.99,.6-1.85,1.34-2.57,2.25-.77,.97-1.24,2.05-1.31,3.3-.02,.44-.19,.54-.6,.4-.59-.19-.92-.63-.95-1.27-.04-1.12,.08-2.23,.18-3.35,.06-.65,.13-1.3,.19-1.94,.05-.54,.31-.69,.79-.43,.39,.2,.62,.52,.62,.97v1.22h0Z"/><path class="cls-3" d="M52.65,9.78c1-.81,1.36-1.98,1.77-3.13,.67,.78,.5,3.24-.29,4.56-.76,1.26-2.35,2.13-3.49,1.86,.98-.39,1.72-.99,2.24-1.84,.16-.27,.31-.55,.34-.9-.13,.12-.25,.25-.39,.37-.56,.47-1.18,.78-1.93,.82-.85,.05-1.26-.79-1.12-1.42,.17-.78,.89-1.33,1.68-1.27,.48,.04,.65-.1,.83-.54,.16-.41,.3-.81,.31-1.25,0-.12,.1-.19,.19-.26,.23-.16,.25-.37,.08-.57-.4-.47-.48-1.02-.45-1.62,.04-.75-.31-1.37-.84-1.96,.83,.41,2.08,1.88,2.23,3.3,.15,1.45-.45,2.65-1.16,3.84h0Z"/><path class="cls-2" d="M69.74,20.11c-.13-.06-.2,.03-.29,.1-1.58,1.35-3.45,2.12-5.43,2.61-1.04,.26-2.01-.3-2.41-1.29-.21-.51-.39-1.03-.57-1.56-.15-.44-.45-.72-.86-.91-.29-.13-.52-.09-.78,.12-1.03,.86-2.08,1.69-3.12,2.54-.34,.28-.37,.27-.48-.16-.19-.75-.28-1.53-.54-2.26-.37-1.03-1.12-1.28-2.04-.71-1.22,.77-2.17,1.84-3.15,2.87-.14,.15-.25,.32-.44,.42-.1-.14-.06-.28-.06-.41-.02-.74,.09-1.47,.08-2.21,0-.53-.3-.82-.71-1.02-.33-.17-.55-.04-.61,.32-.04,.25-.08,.51-.1,.77-.03,.38-.19,.67-.47,.92-.95,.85-1.99,1.56-3.16,2.09-.9,.41-1.83,.73-2.85,.66-.42-.03-.74-.21-.91-.58-.17-.35-.23-.72-.18-1.11,.09-.62,.34-1.18,.54-1.76,.05-.15,.12-.3,.04-.46-.18-.37-.5-.57-.89-.66-.36-.08-.48,.22-.65,.45-.04,.05-.08,.1-.1,.15-.16,.31-.38,.33-.7,.21-1.46-.56-2.97-.68-4.49-.29-1.1,.28-2.14,.71-2.77,1.69-.42,.67-.96,1.17-1.56,1.64-1.62,1.25-3.37,2.16-5.49,2.13-1.15-.02-1.98-.58-2.61-1.48-.22-.32-.16-.39,.22-.45,1.16-.17,2.12-.69,2.82-1.64,.59-.8,.4-1.75-.4-2.33-.6-.43-1.23-.51-1.92-.31-1.27,.37-2.19,1.57-2.34,3.07-.14,1.33,.6,2.71,1.8,3.35,1.55,.82,3.22,.93,4.92,.71,1.56-.2,2.85-.98,3.99-2.01,.2-.18,.29-.18,.43,.06,.63,1.03,1.56,1.4,2.74,1.22,.59-.1,1.15-.29,1.68-.54,1.13-.54,2.14-1.25,3.09-2.06,.2-.17,.31-.2,.44,.09,.72,1.55,2.33,2.39,4.01,2.05s3.18-1.01,4.31-2.37c.08-.1,.15-.22,.33-.27v1.07c0,.74,.18,1.38,.92,1.74,.27,.13,.5,.15,.74-.06,.57-.5,1.03-1.09,1.51-1.66,.74-.87,1.47-1.76,2.38-2.46,.41-.32,.45-.3,.57,.2,.21,.85,.41,1.7,.76,2.5s1.12,1.03,1.81,.53c.94-.68,1.84-1.4,2.73-2.13,.49-.4,.47-.4,.78,.17,.9,1.69,2.31,2.57,4.23,2.6,1.16,.01,2.18-.46,3.15-1.03,.71-.42,1.35-.95,1.87-1.6,.21-.26,.37-.55,.38-.9,0-.14-.04-.27-.18-.34h0v-.02Zm-47.77,.65c.2-.46,.5-.85,.87-1.18,.2-.17,.42-.3,.69-.32,.21,0,.39,.09,.48,.28,.09,.2-.03,.39-.15,.54-.39,.49-.89,.84-1.44,1.13-.19,.1-.45,.37-.6,.22-.15-.15,.05-.45,.15-.67h0Zm16.39-.31c-.69,.68-1.47,1.24-2.29,1.73-.87,.52-1.78,.95-2.78,1.16-.32,.07-.62,.06-.85-.2-.22-.25-.18-.55-.08-.83,.24-.69,.74-1.14,1.36-1.48,1.07-.58,2.22-.76,3.52-.83,.27,.03,.65,.08,1.03,.13,.28,.04,.26,.15,.09,.32h0Z"/><path class="cls-4" d="M11.61,32.68c-.1-.17-.25-.3-.43-.4-.15-.08-.24-.2-.3-.36-.18-.54-.34-1.08-.44-1.64-.25-1.41-.3-2.84-.35-4.26-.08-2.57-.01-5.14,.11-7.7,.1-2.26,.23-4.5,.59-6.75,.42-2.64,.59-5.32,.7-8,.02-.66-.17-.98-.75-1.23-.45-.19-.68-.07-.74,.41-.14,1.02-.28,2.04-.4,3.07-.21,1.69-.42,3.39-.55,5.09-.08,1.07-.16,2.12-.45,3.17-.38,1.4-.77,2.8-1.25,4.17-.07,.2-.11,.44-.44,.35-.7-.2-1.41-.31-2.14-.34-1.37-.06-2.64,.18-3.74,1.05-.96,.76-1.31,2.16-.79,3.26,1.11,2.37,4.25,2.74,5.99,.71,.87-1.01,1.51-2.15,2.04-3.36l.36-.83h.06v.37c-.01,.92,0,1.84-.05,2.77-.05,1.03,0,2.06,.05,3.09,.07,1.5,.12,3,.39,4.47,.17,.95,.39,1.88,1.02,2.66,.3,.38,.7,.62,1.14,.78,.17,.06,.35,.07,.48-.08,.14-.17,.02-.33-.07-.47h-.04Zm-5.05-12.72c-.45,.83-.9,1.66-1.55,2.36-.61,.66-1.31,1.19-2.01,1.22-1.15,0-1.75-.7-1.61-1.59,.19-1.19,.95-1.88,2.06-2.21,.96-.29,1.94-.21,2.93-.15,.26,.02,.34,.09,.19,.36h0Z"/></svg>