<?xml version="1.0" encoding="UTF-8"?><svg id="Layer_1" xmlns="http://www.w3.org/2000/svg" xmlns:xlink="http://www.w3.org/1999/xlink" viewBox="0 0 32.69 16.93"><defs><style>.cls-1{fill:url(#linear-gradient-2);}.cls-2{fill:url(#linear-gradient-6);}.cls-3{clip-path:url(#clippath-2);}.cls-4{clip-path:url(#clippath-6);}.cls-5{clip-path:url(#clippath-7);}.cls-6{clip-path:url(#clippath-1);}.cls-7{clip-path:url(#clippath-4);}.cls-8{fill:#d8b160;fill-rule:evenodd;}.cls-9{fill:url(#linear-gradient-5);}.cls-10{clip-path:url(#clippath);}.cls-11{clip-rule:evenodd;}.cls-11,.cls-12{fill:none;}.cls-13{clip-path:url(#clippath-3);}.cls-14{fill:url(#linear-gradient-7);}.cls-15{fill:url(#linear-gradient-3);}.cls-16{clip-path:url(#clippath-5);}.cls-17{fill:url(#linear-gradient);}.cls-18{fill:url(#linear-gradient-4);}.cls-19{fill:url(#linear-gradient-8);}</style><clipPath id="clippath"><path class="cls-11" d="M15.43,10.92c-.27-.02-.38-.21-.32-.43,.2-.82,1.38-1.16,2.27-1.16,.27,0,.52,.04,.7,.09-.63,.66-1.79,1.4-2.65,1.5Zm-4.2-1.86c.2,.2-.3,.68-1.06,1.02-.02-.45,.68-1.4,1.06-1.02Zm-5.76,2.42c.07,.27,.66,.5,.64,.27,.07-.52,.07-.63,.13-.77,.43-1.23,1.91-2.33,2.81-2.31l-.02,.14c-.02,.14,.23,.25,.48-.04,.13-.14-.13-.52-.54-.59-.98-.16-2.31,.88-2.76,1.45l.02-.7c0-.11-.11-.29-.27-.38-.18-.09-.36-.09-.36,.04-.25,2.25-.21,2.72-.14,2.88Zm-4.14-.47c-.2,0-.34-.05-.47-.16-.13-.09-.21-.29-.21-.52s.09-.5,.32-.75c.27-.29,.7-.48,1.47-.48,.21,0,.46,.02,.73,.05l-.02,.04c-.38,.75-.95,1.73-1.82,1.82Zm21.21-1.76h0s-.03,.02-.04,.04c-.64,.72-2.18,1.63-3.09,1.45-.32-.09-.41-.45-.39-.75,.04-.34,.2-.66,.29-.93,.13-.21-.48-.61-.59-.41l-.3,.41h-.02c-.45-.2-.95-.3-1.45-.3-.63,0-1.23,.16-1.72,.48-.29,.2-.47,.43-.57,.68h0c-.76,.72-1.82,1.51-3.15,1.51-.63,0-1.25-.57-1.31-.91,.63,0,1.4-.43,1.63-1,.2-.52-.32-1.06-.88-1.06-.88,.04-1.41,.84-1.41,1.63,0,.18,.04,.36,.09,.52,.36,1.11,1.72,1.31,2.77,1.25,.86-.05,1.67-.49,2.26-1.1h0c.08,.21,.24,.4,.46,.57,.2,.12,.41,.18,.64,.18,.95,0,2.13-.91,2.63-1.36,.23,.64,.68,.98,1.27,1.13,.75,.18,1.99-.39,2.43-.84,.19-.19,.33-.35,.43-.5l-.02,.02c0,.06,0,.13,0,.19,0,.25,.02,.52,.04,.79,.05,.22,.52,.57,.66,.45,.7-.61,1.2-1.56,2.11-2.15,.16,.7,.27,1.11,.45,1.5,.11,.2,.45,.38,.59,.3,.48-.32,.93-.68,1.74-1.34,.05,.16,.14,.36,.27,.54,.16,.21,.34,.43,.61,.61,.39,.25,.82,.36,1.2,.36,1.02,0,2.18-.88,2.45-1.36,.21-.39-.02-.54-.07-.45-.25,.43-2.2,1.31-2.77,1.31-.25,0-.47-.09-.66-.22-.36-.3-.45-.95-.63-1.31-.13-.2-.47-.38-.59-.29l-1.74,1.41c-.16-.63-.18-1-.38-1.47-.14-.2-.45-.38-.59-.3-.77,.38-1.38,1.09-2,1.77-.02-.59,.05-.91,.04-1.38,.05-.23-.54-.63-.59-.32-.03,.2-.06,.42-.08,.66h0ZM5.26,15.52c.2,.04,.27-.04,.21-.18-.04-.11-.18-.23-.29-.29h-.02l-.04-.04c-.05-.09-.11-.3-.21-.68-.09-.41-.14-.95-.16-1.54-.05-.52-.05-1.07-.05-1.66,0-.81,.02-1.65,.05-2.49,.02-.68,.05-1.38,.13-2.27,.02-.3,.16-.8,.2-1.16,.09-.84,.29-2.95,.3-3.76-.04-.27-.63-.59-.68-.32-.02,.04-.36,2.59-.48,4.11l-.04,.64c-.21,.95-.45,1.86-.82,2.84l-.14-.05c-.48-.13-.84-.16-1.2-.16-.77,0-1.29,.25-1.65,.59-.23,.23-.38,.57-.38,.91,0,.38,.18,.77,.61,1.11,.41,.3,.75,.36,1.09,.36,1.25-.09,1.99-1.72,2.36-2.72v.64c0,.48-.02,.98-.02,1.45,0,.57,.02,1.13,.05,1.63,.02,.61,.09,1.16,.18,1.59,.07,.39,.21,.81,.47,1.09,.13,.14,.32,.29,.52,.34Z"/></clipPath><linearGradient id="linear-gradient" x1="12.33" y1="-.55" x2="19.2" y2="14.21" gradientUnits="userSpaceOnUse"><stop offset="0" stop-color="#f5d490"/><stop offset=".32" stop-color="#d9b25e"/><stop offset=".66" stop-color="#f5d490"/><stop offset="1" stop-color="#d9b25e"/></linearGradient><clipPath id="clippath-1"><path class="cls-11" d="M16.21,0h-1.46l-1.46,3.55-1.67-3.55h-1.46V.21h.04s.06,.01,.11,.03c.04,.01,.08,.03,.12,.06,.04,.03,.08,.07,.1,.12,.03,.05,.04,.12,.04,.2v3.97c0,.08-.02,.15-.04,.2-.03,.05-.06,.1-.1,.12-.04,.03-.08,.05-.12,.06-.04,.01-.08,.02-.11,.02h-.04v.21h1.04v-.21h-.04s-.06-.01-.1-.03c-.04-.01-.08-.03-.12-.06-.04-.03-.08-.07-.1-.12-.03-.05-.04-.12-.04-.2V.83l1.88,4.39h.21L14.75,.63v3.97c0,.08-.01,.15-.04,.2-.03,.05-.06,.1-.1,.12-.04,.03-.08,.05-.12,.06-.04,.01-.08,.02-.1,.02h-.04v.21h1.88v-.21h-.04s-.06-.01-.1-.03c-.04-.01-.08-.03-.12-.06-.04-.03-.08-.07-.1-.12-.03-.05-.04-.12-.04-.2V.63c0-.08,.01-.15,.04-.2,.03-.05,.06-.09,.1-.12,.04-.03,.08-.05,.12-.06,.04-.01,.08-.02,.1-.02h.04v-.21Zm4.08,1.25v-.21h-1.05v.21h.02s.03,0,.05,.01c.02,0,.04,.02,.06,.03,.02,.01,.04,.03,.05,.06,.01,.03,.02,.06,.02,.1,0,.1-.07,.36-.22,.77-.14,.41-.31,.85-.5,1.33-.19-.51-.37-.97-.52-1.39-.15-.42-.23-.65-.23-.71,0-.04,0-.08,.02-.1,.01-.03,.03-.05,.05-.06,.02-.01,.04-.02,.06-.03,.02,0,.04-.01,.05-.01h.02v-.21h-1.88v.21c.21,0,.42,.21,.62,.63l1.25,3.23c-.16,.33-.29,.6-.4,.78-.11,.19-.21,.32-.3,.4-.09,.08-.18,.13-.26,.14-.09,.02-.18,.02-.29,.02h-.21c-.08,0-.15,.01-.2,.04-.05,.03-.09,.06-.12,.11-.03,.04-.05,.08-.06,.12-.01,.04-.02,.08-.02,.11v.04s0,.04,0,.04c0,.03,0,.06,.02,.1,.01,.04,.03,.08,.06,.12,.03,.04,.07,.08,.12,.1,.05,.03,.12,.04,.2,.04h.22c.08,0,.16,0,.23-.02,.07-.01,.15-.05,.22-.11,.07-.06,.16-.17,.25-.32,.09-.15,.2-.35,.32-.62,.12-.26,.27-.6,.43-1.02l1.25-3.34c.09-.22,.19-.38,.3-.48,.11-.1,.22-.15,.33-.15Z"/></clipPath><linearGradient id="linear-gradient-2" x1="14.14" y1="-.2" x2="16.29" y2="7.45" gradientUnits="userSpaceOnUse"><stop offset="0" stop-color="#f5d490"/><stop offset=".32" stop-color="#d9b25e"/><stop offset=".66" stop-color="#f5d490"/><stop offset="1" stop-color="#d9b25e"/></linearGradient><clipPath id="clippath-2"><path class="cls-12" d="M11.22,16.35c-.03,.07-.11,.18-.16,.23-.13,.14-.15,.13-.14-.03,.02-.17,.12-.66,.18-.85l.04-.15,.12,.06c.12,.06,.12,.06,.12,.15,0,.11-.09,.41-.17,.58Zm.45-2.04c.16-.3,.32-.56,.43-.72,.12-.18,.25-.32,.29-.32,0,0,0,0,0,0,.04,.02,.03,.27-.02,.41-.1,.29-.35,.69-.58,.93-.12,.12-.45,.43-.45,.41,0-.03,.23-.53,.32-.7Zm.86,1.09c-.43,.16-.58,.2-.83,.22-.11,0-.17,0-.23-.01l-.03-.06s-.07-.08-.12-.11c-.05-.02-.09-.05-.09-.05,0,0,.01-.05,.04-.11,.03-.09,.06-.13,.15-.18,.18-.12,.56-.5,.7-.7,.29-.4,.49-.9,.43-1.07-.04-.11-.11-.17-.21-.17-.12,0-.27,.11-.44,.33-.55,.68-1.04,1.74-1.15,2.49-.06,.44-.02,.7,.13,.78,.04,.02,.09,.04,.11,.04,.07,0,.21-.11,.28-.23,.14-.21,.27-.63,.25-.79v-.09s.07,.01,.07,.01c.18,.03,.56-.06,.95-.21,.15-.06,.34-.13,.41-.15,.07-.02,.13-.05,.12-.06-.02-.05-.21,0-.52,.12Z"/></clipPath><linearGradient id="linear-gradient-3" x1="11.65" y1="13.74" x2="12.38" y2="18.19" gradientUnits="userSpaceOnUse"><stop offset="0" stop-color="#f4d38f"/><stop offset=".32" stop-color="#d9b160"/><stop offset=".66" stop-color="#f4d38f"/><stop offset="1" stop-color="#d9b160"/></linearGradient><clipPath id="clippath-3"><path class="cls-12" d="M13.49,15.63s-.04,.08-.06,.08c-.04,0-.11-.08-.14-.15-.03-.08-.03-.23,0-.26,.02-.01,.02-.04,.02-.06-.02-.08,.1-.23,.18-.23,.04,0,.1,.11,.1,.21,0,.07-.06,.29-.11,.41Zm-.17,.29c-.04,.05-.11,.12-.16,.16-.08,.06-.16,.08-.19,.05-.04-.04,.03-.37,.11-.56l.04-.09,.05,.1c.03,.06,.09,.14,.13,.18l.09,.07-.08,.1Zm2.11-.6s-.19,.04-.46,.16c-.09,.04-.25,.11-.35,.15-.27,.12-.52,.18-.74,.18-.1,0-.22,0-.26-.02l-.07-.02,.06-.15c.09-.22,.11-.38,.08-.49-.04-.12-.14-.19-.25-.19-.03,0-.05,0-.08,.01-.05,.02-.09,.05-.13,.12-.04,.07-.08,.1-.12,.11-.15,.03-.32,.26-.36,.5-.05,.23,.06,.47,.24,.52,.14,.04,.29-.05,.45-.26,.06-.08,.06-.08,.15-.06,.13,.04,.39,.03,.6-.02,.21-.05,.42-.13,.78-.31,.13-.06,.25-.12,.25-.12s.06-.02,.12-.05c.08-.04,.11-.06,.09-.07Z"/></clipPath><linearGradient id="linear-gradient-4" x1="13.71" y1="13.4" x2="14.44" y2="17.85" gradientUnits="userSpaceOnUse"><stop offset="0" stop-color="#f4d38f"/><stop offset=".32" stop-color="#d9b160"/><stop offset=".66" stop-color="#f4d38f"/><stop offset="1" stop-color="#d9b160"/></linearGradient><clipPath id="clippath-4"><path class="cls-12" d="M15.5,15.05c-.03,.08-.06,.15-.07,.15-.03,0-.04-.11-.01-.2,.01-.05,.05-.12,.09-.16l.07-.08v.07s-.05,.14-.08,.22Zm2.01,.3c-.14,.07-.37,.24-.58,.44-.5,.47-.94,.82-1.17,.93-.16,.08-.23,.09-.25,.06-.02-.03,.04-.25,.14-.51,.12-.32,.17-.53,.15-.64-.01-.06-.04-.11-.14-.21l-.13-.13,.09-.19c.14-.3,.14-.44-.03-.48-.01,0-.03,0-.04,0-.11,0-.25,.12-.3,.25-.07,.17-.02,.34,.15,.52,.06,.07,.11,.14,.12,.19,.02,.08,.02,.11-.1,.46-.18,.52-.19,.67-.03,.81,.03,.03,.08,.06,.11,.07,.08,.03,.14,.01,.31-.07,.19-.09,.37-.24,.9-.72,.43-.39,.57-.5,.83-.69,.16-.12,.16-.17,0-.09Z"/></clipPath><linearGradient id="linear-gradient-5" x1="15.97" y1="13.03" x2="16.7" y2="17.49" gradientUnits="userSpaceOnUse"><stop offset="0" stop-color="#f4d38f"/><stop offset=".32" stop-color="#d9b160"/><stop offset=".66" stop-color="#f4d38f"/><stop offset="1" stop-color="#d9b160"/></linearGradient><clipPath id="clippath-5"><path class="cls-12" d="M22.67,15.31s-.2,.07-.23,.09c-.2,.13-.2,.13-.56,.4-.63,.46-.76,.52-.93,.57-.04,.01-.05,0-.05-.08s.06-.36,.14-.63c.02-.07,.04-.16,.04-.19,0-.07-.07-.16-.14-.17-.08-.02-.23,.07-.46,.25-.09,.07-.16,.13-.16,.12s.02-.05,.05-.1c.08-.15,.16-.36,.16-.43,0-.07-.04-.12-.1-.14-.09-.03-.31,.17-.6,.55-.26,.35-.39,.51-.41,.51s.07-.25,.2-.56c.04-.09,.13-.19,.04-.26-.11-.08-.17-.05-.28,.17-.17,.36-.18,.7-.01,.74,.06,.01,.14-.03,.2-.1,.02-.02,.13-.17,.24-.32,.23-.31,.34-.45,.42-.52l.06-.04-.06,.13c-.12,.24-.15,.51-.06,.56,.08,.04,.13,.02,.29-.13,.16-.15,.4-.33,.42-.31,0,0-.01,.06-.04,.11-.07,.15-.15,.38-.17,.52-.02,.2,.05,.36,.18,.42,.09,.04,.22,.02,.37-.06,.07-.04,.34-.23,.6-.43,.43-.33,.49-.37,.73-.55,.05-.04,.14-.1,.13-.12Z"/></clipPath><linearGradient id="linear-gradient-6" x1="20.38" y1="12.31" x2="21.1" y2="16.77" gradientUnits="userSpaceOnUse"><stop offset="0" stop-color="#f4d38f"/><stop offset=".32" stop-color="#d9b160"/><stop offset=".66" stop-color="#f4d38f"/><stop offset="1" stop-color="#d9b160"/></linearGradient><clipPath id="clippath-6"><path class="cls-12" d="M22.85,15.29c.05-.06,.08-.09,.1-.09,.02,0,.03,.03,.02,.09-.01,.1-.06,.17-.16,.24-.06,.04-.12,.06-.12,.04,0-.04,.09-.2,.16-.27Zm2.02,.04s-.06-.01-.16,.04c-.18,.08-.29,.15-.73,.36-.66,.32-.83,.38-1.08,.39-.16,0-.2-.02-.22-.05-.04-.06-.06-.17-.04-.3l.02-.11h.08c.14-.01,.22-.05,.28-.14,.09-.12,.11-.22,.08-.29-.04-.08-.15-.15-.23-.15-.29,0-.56,.53-.44,.85,.04,.1,.16,.22,.27,.27,.04,.02,.13,.03,.21,.03,.27,0,.42-.05,1.12-.41,.36-.18,.57-.3,.65-.35,.08-.05,.16-.09,.18-.1,.02-.01,.03-.02,.01-.03Z"/></clipPath><linearGradient id="linear-gradient-7" x1="22.99" y1="11.89" x2="23.72" y2="16.34" gradientUnits="userSpaceOnUse"><stop offset="0" stop-color="#f4d38f"/><stop offset=".32" stop-color="#d9b160"/><stop offset=".66" stop-color="#f4d38f"/><stop offset="1" stop-color="#d9b160"/></linearGradient><clipPath id="clippath-7"><path class="cls-12" d="M27.46,15.34c-.39,.24-.67,.41-1.11,.7-.28,.18-.59,.33-.66,.33-.08,0-.06-.13,.12-.69,.11-.37,.12-.45,.04-.52-.06-.06-.13-.06-.22-.02-.12,.06-.31,.24-.54,.5-.13,.15-.23,.26-.24,.26s.05-.17,.11-.37c.08-.24,.11-.37,.1-.38-.01-.01-.05-.04-.08-.05-.05-.02-.07-.02-.1,.01-.11,.1-.24,.42-.26,.64-.02,.22,.05,.33,.19,.31,.02,0,.1-.09,.18-.18,.24-.3,.45-.51,.57-.6,.07-.04,.12-.08,.12-.07,0,0-.04,.1-.08,.21-.13,.32-.15,.43-.16,.65,0,.21,.03,.28,.13,.34,.15,.08,.32,0,.86-.35,.4-.27,.72-.45,1.11-.71,.07-.05,0-.08-.1-.03Z"/></clipPath><linearGradient id="linear-gradient-8" x1="25.42" y1="11.49" x2="26.15" y2="15.94" gradientUnits="userSpaceOnUse"><stop offset="0" stop-color="#f4d38f"/><stop offset=".32" stop-color="#d9b160"/><stop offset=".66" stop-color="#f4d38f"/><stop offset="1" stop-color="#d9b160"/></linearGradient></defs><g class="cls-10"><rect class="cls-17" y=".87" width="32.82" height="14.69"/></g><g class="cls-6"><rect class="cls-1" x="10.16" width="10.14" height="7.31"/></g><path class="cls-8" d="M24.47,.24s-1.17,1.47-.91,2.75c0,0-.67-.1-1.18,.6,0,0,1.66-.14,2.01,.95,.34-1.08,2.17-.95,2.17-.95-.51-.7-1.18-.6-1.18-.6,.26-1.28-.91-2.75-.91-2.75"/><path class="cls-8" d="M24.39,6.52c-.44-1.7-3.47-1.54-3.47-1.54,1.7-2.27,3.47-.09,3.47-.09,0,0,1.77-2.18,3.48,.09,0,0-3.03-.16-3.47,1.54"/><g class="cls-3"><rect class="cls-15" x="10.66" y="13.14" width="2.4" height="3.64"/></g><g class="cls-13"><rect class="cls-18" x="12.7" y="14.94" width="2.75" height="1.3"/></g><g class="cls-7"><rect class="cls-9" x="15.17" y="14.63" width="2.51" height="2.32"/></g><g class="cls-16"><rect class="cls-2" x="19.2" y="14.97" width="3.47" height="1.53"/></g><g class="cls-4"><rect class="cls-14" x="22.32" y="15.06" width="2.58" height="1.15"/></g><g class="cls-5"><rect class="cls-19" x="24.62" y="15.09" width="3.02" height="1.41"/></g></svg>