<?xml version="1.0" encoding="UTF-8"?><svg id="Layer_1" xmlns="http://www.w3.org/2000/svg" xmlns:xlink="http://www.w3.org/1999/xlink" viewBox="0 0 157.36 142.44"><defs><style>.cls-1{fill:url(#linear-gradient-2);}.cls-2{fill:url(#linear-gradient-6);}.cls-3{fill:url(#linear-gradient-5);}.cls-4{fill:url(#linear-gradient-3);}.cls-5{fill:url(#linear-gradient);}.cls-6{fill:url(#linear-gradient-4);}</style><linearGradient id="linear-gradient" x1="64.37" y1="34.11" x2="96.73" y2="34.11" gradientUnits="userSpaceOnUse"><stop offset="0" stop-color="#f4d38f"/><stop offset=".32" stop-color="#d8b15e"/><stop offset=".66" stop-color="#f4d38f"/><stop offset="1" stop-color="#d8b15e"/></linearGradient><linearGradient id="linear-gradient-2" x1="33.28" y1="80.61" x2="127.82" y2="80.61" xlink:href="#linear-gradient"/><linearGradient id="linear-gradient-3" x1="59.16" y1="29.37" x2="101.93" y2="29.37" xlink:href="#linear-gradient"/><linearGradient id="linear-gradient-4" x1="19.74" y1="100.1" x2="137.62" y2="100.1" xlink:href="#linear-gradient"/><linearGradient id="linear-gradient-5" x1="0" y1="95.95" x2="157.36" y2="95.95" xlink:href="#linear-gradient"/><linearGradient id="linear-gradient-6" x1="29.94" y1="125.97" x2="127.42" y2="125.97" xlink:href="#linear-gradient"/></defs><g><path class="cls-5" d="M96.49,56.34s-.02-.01-.03-.02c-.7-.4-1.39-.72-2.05-.96,2.19-18.47-13.86-38.68-13.86-38.68,0,0-16.06,20.22-13.87,38.68-.66,.24-1.34,.56-2.05,.96-.01,.01-.02,.01-.03,.02-2.51-21.22,15.95-44.46,15.95-44.46,0,0,18.46,23.24,15.94,44.46Z"/><g><path class="cls-1" d="M127.82,75.89s-41.3-3.12-49.07,21.46c-7.78-24.58-45.47-21.46-45.47-21.46,4.92-6.78,10.52-10.27,15.32-12.03-3.06,1.79-6.26,4.48-9.18,8.51,0,0,32.8-2.71,39.57,18.67,6.76-21.38,42.68-18.67,42.68-18.67-2.92-4.03-6.12-6.72-9.18-8.51,4.8,1.76,10.4,5.25,15.33,12.03Z"/><path class="cls-4" d="M101.62,58.74s-.06-.02-.09-.03c-.02-.01-.03-.01-.04-.02-.9-.52-1.78-.93-2.61-1.23,2.88-24.39-18.33-51.11-18.33-51.11,0,0-21.22,26.72-18.34,51.11-.84,.31-1.72,.71-2.63,1.24,0,0,0,.01-.02,.01-.03,.01-.06,.02-.09,.03C56.16,30.69,80.55,0,80.55,0c0,0,24.38,30.69,21.07,58.74Z"/></g></g><g><path class="cls-6" d="M137.62,108.2c-.98,.1-1.98,.2-3,.31-.03,.01-.07,.01-.11,.01-1.44,.08-2.97,.2-4.56,.34-25.22-32.65-51.33-.6-51.33-.6,0,0-25.99-32.05-51.22,.6-1.59-.14-3.11-.26-4.55-.34-.04,0-.08,0-.11-.01-1.02-.11-2.02-.21-3-.31,29-37.54,58.87-.69,58.87-.69,0,0,30.02-36.85,59.01,.69Z"/><g><path class="cls-3" d="M157.36,107.61s-4.25-.23-10.79,.01c-33.36-43.45-67.97-.98-67.97-.98,0,0-34.44-42.47-67.81,.98-6.54-.24-10.79-.01-10.79-.01,38.57-51.32,78.59-1.97,78.59-1.97,0,0,40.21-49.35,78.77,1.97Z"/><path class="cls-2" d="M127.42,109.5c-19.87,3.26-43.25,11.66-48.74,32.94-5.49-21.28-28.87-29.68-48.74-32.94,.95-.01,2.1,.01,3.41,.05h.03c.17,.03,.35,.05,.53,.08-.1,.14-.21,.27-.31,.41,0,0,.95-.06,2.58-.06h.02c17.3,2.82,37.7,10.13,42.48,28.67,4.79-18.55,25.19-25.85,42.49-28.67h.02c1.62,0,2.57,.06,2.57,.06-.1-.14-.21-.27-.31-.41,.18-.03,.36-.05,.53-.08h.03c1.31-.04,2.46-.06,3.41-.05Z"/></g></g></svg>