<?xml version="1.0" encoding="utf-8"?>
<!-- Generator: Adobe Illustrator 27.3.1, SVG Export Plug-In . SVG Version: 6.00 Build 0)  -->
<svg version="1.1" id="Layer_1" xmlns="http://www.w3.org/2000/svg" xmlns:xlink="http://www.w3.org/1999/xlink" x="0px" y="0px"
	 viewBox="0 0 69.9 33.3" style="enable-background:new 0 0 69.9 33.3;" xml:space="preserve">
<style type="text/css">
	.st0{fill:#d19e78;}
</style>
<path class="st0" d="M28.4,7.6C29,6.2,29.5,5,30,3.8c0.5-1.1,0.9-2.2,1.4-3.4c0.1-0.2,0.2-0.3,0.4-0.3c0.8,0,1.6,0,2.4-0.1
	c0.2,0,0.4-0.1,0.4,0.2s-0.1,0.3-0.3,0.4c-0.5,0.2-0.6,0.5-0.6,1v8.1c0,0.5,0.1,0.9,0.7,1.1c0.2,0.1,0.2,0.1,0.2,0.3
	c0,0.2-0.2,0.2-0.3,0.2h-3.4c-0.1,0-0.3,0-0.3-0.2c0-0.2,0.1-0.2,0.2-0.3c0.5-0.1,0.7-0.6,0.7-1.1c0-1.6,0-3.2,0-4.7
	c0-1.1,0.1-2.2,0-3.3c-0.1,0.1-0.1,0.2-0.2,0.3c-1.2,2.9-2.4,5.9-3.6,8.8c-0.1,0.2-0.1,0.4-0.4,0.4c-0.3,0-0.3-0.2-0.4-0.4
	c-1.2-2.8-2.4-5.6-3.6-8.4c0-0.1-0.1-0.2-0.2-0.4c-0.1,0.1-0.1,0.2-0.1,0.3v7.3c0,0.5,0.1,0.9,0.6,1c0.2,0.1,0.3,0.1,0.2,0.3
	c0,0.2-0.2,0.2-0.3,0.2H22c-0.1,0-0.3,0-0.3-0.2c0-0.2,0.1-0.3,0.2-0.3c0.5-0.1,0.7-0.5,0.7-1c0-0.5,0-0.9,0-1.4V1.7
	c0-0.6-0.1-1.1-0.7-1.2c-0.1,0-0.2-0.1-0.1-0.3c0-0.1,0.1-0.2,0.2-0.2h2.7c0.2,0,0.3,0.2,0.3,0.3c1.1,2.3,2.1,4.6,3.2,6.8
	C28.2,7.3,28.3,7.4,28.4,7.6L28.4,7.6C28.4,7.5,28.4,7.6,28.4,7.6z"/>
<path class="st0" d="M40.1,7.5c0.5-1.4,1.1-2.7,1.4-4.1c0.1-0.2,0-0.5-0.2-0.6c-0.1-0.1-0.2-0.2-0.2-0.3c0-0.2,0.2-0.2,0.3-0.2h1.7
	c0.1,0,0.2,0,0.3,0.2s0,0.3-0.2,0.3c-0.5,0.2-0.8,0.5-1,1C41.7,4.8,41.4,5.9,41,7c-0.9,2.3-1.7,4.7-2.8,6.9
	c-0.1,0.3-0.3,0.5-0.4,0.8c-0.4,0.8-1.1,1.1-2,1c-0.6-0.1-1-0.4-0.9-0.9c0-0.5,0.4-0.9,1-0.9h0.6c0.5,0,0.9-0.2,1.2-0.6
	c0.5-0.6,0.8-1.4,1.2-2.1c0.1-0.2,0-0.3,0-0.5c-0.8-2.1-1.7-4.3-2.5-6.4C36,3.7,35.7,3,35,2.8c-0.1,0-0.2-0.2-0.1-0.3
	c0-0.1,0.1-0.2,0.2-0.2h3.5c0.1,0,0.2,0,0.2,0.2c0,0.1,0,0.3-0.1,0.3c-0.3,0.1-0.3,0.4-0.2,0.6C39,4.8,39.5,6.1,40.1,7.5
	C40,7.5,40.1,7.5,40.1,7.5L40.1,7.5L40.1,7.5z"/>
<path class="st0" d="M50.7,1.5C50.9,1.7,51,1.9,51,2c0.5,1.2,0.2,2.3-0.3,3.4c-0.3,0.6-0.8,1.2-1.2,1.8c-0.6,0.8-1,1.6-1.1,2.7
	c-0.1,1.3,0.8,2.2,2.2,2.2c0.3,0,0.6,0,1-0.1c-0.2,0.3-1.1,0.5-1.7,0.5c-1.7-0.1-2.7-1.9-2.7-3.1c0-0.9,0.2-1.7,0.5-2.5
	c0-0.1,0.1-0.2,0.1-0.4c-0.7,0.6-1.1,1.3-1.3,2.1c-0.1,0.9,0.1,1.6,0.5,2.5c-1.1-1-1.5-2.5-1.1-3.8c0.3-0.9,0.8-1.8,1.4-2.5
	c0.5-0.8,1.1-1.5,1.5-2.3c0.4-0.7,0.7-1.5,0.8-2.3c0-0.1,0-0.2,0.1-0.2c0.1,0,0.1,0.1,0.2,0.1c0.4,0.4,0.5,0.9,0.4,1.4
	c-0.2,1.6-0.7,3-1.5,4.3c-0.5,0.9-1,1.8-0.9,2.9c0,0.1,0,0.2,0,0.3c0.2,0,0.1-0.1,0.1-0.2c0.3-1.2,0.8-2.4,1.5-3.4
	c0.5-0.9,1-1.8,1.1-2.8C50.8,2.3,50.7,1.9,50.7,1.5L50.7,1.5L50.7,1.5z"/>
<path class="st0" d="M13.3,20.5c0.5-0.5,0.9-0.9,1.3-1.2c1.1-0.9,2.3-1.6,3.7-1.8c0.7-0.1,1.4,0,1.9,0.6c0.4,0.4,0.2,0.8-0.3,1
	c-0.4,0.1-0.5,0-0.6-0.3c0-0.2-0.2-0.2-0.4-0.2c-0.7,0.1-1.4,0.4-2,0.7c-1,0.6-1.9,1.3-2.6,2.2c-0.8,1-1.2,2-1.3,3.3
	c0,0.4-0.2,0.5-0.6,0.4c-0.6-0.2-0.9-0.6-0.9-1.3c0-1.1,0.1-2.2,0.2-3.4c0.1-0.6,0.1-1.3,0.2-1.9c0.1-0.5,0.3-0.7,0.8-0.4
	c0.4,0.2,0.6,0.5,0.6,1L13.3,20.5L13.3,20.5L13.3,20.5z"/>
<path class="st0" d="M52.7,9.8c1-0.8,1.4-2,1.8-3.1c0.7,0.8,0.5,3.2-0.3,4.6c-0.8,1.3-2.3,2.1-3.5,1.9c1-0.4,1.7-1,2.2-1.8
	c0.2-0.3,0.3-0.6,0.3-0.9c-0.1,0.1-0.2,0.2-0.4,0.4c-0.6,0.5-1.2,0.8-1.9,0.8c-0.8,0.1-1.3-0.8-1.1-1.4c0.2-0.8,0.9-1.3,1.7-1.3
	c0.5,0,0.7-0.1,0.8-0.5c0.2-0.4,0.3-0.8,0.3-1.2c0-0.1,0.1-0.2,0.2-0.3C53,6.6,53,6.4,52.9,6.2c-0.4-0.5-0.5-1-0.5-1.6
	c0-0.8-0.3-1.4-0.8-2c0.8,0.4,2.1,1.9,2.2,3.3C54,7.4,53.4,8.6,52.7,9.8L52.7,9.8L52.7,9.8z"/>
<path class="st0" d="M69.7,20.1c-0.1-0.1-0.2,0-0.3,0.1c-1.6,1.4-3.4,2.1-5.4,2.6c-1,0.3-2-0.3-2.4-1.3c-0.2-0.5-0.4-1-0.6-1.6
	c-0.2-0.4-0.5-0.7-0.9-0.9c-0.3-0.1-0.5-0.1-0.8,0.1c-1,0.9-2.1,1.7-3.1,2.5c-0.3,0.3-0.4,0.3-0.5-0.2c-0.2-0.8-0.3-1.5-0.5-2.3
	c-0.4-1-1.1-1.3-2-0.7c-1.2,0.8-2.2,1.8-3.2,2.9c-0.1,0.1-0.2,0.3-0.4,0.4c-0.1-0.1-0.1-0.3-0.1-0.4c0-0.7,0.1-1.5,0.1-2.2
	c0-0.5-0.3-0.8-0.7-1c-0.3-0.2-0.5,0-0.6,0.3c0,0.2-0.1,0.5-0.1,0.8c0,0.4-0.2,0.7-0.5,0.9c-1,0.9-2,1.6-3.2,2.1
	c-0.9,0.4-1.8,0.7-2.8,0.7c-0.4,0-0.7-0.2-0.9-0.6c-0.2-0.4-0.2-0.7-0.2-1.1c0.1-0.6,0.3-1.2,0.5-1.8c0-0.1,0.1-0.3,0-0.5
	c-0.2-0.4-0.5-0.6-0.9-0.7c-0.4-0.1-0.5,0.2-0.7,0.5c0,0-0.1,0.1-0.1,0.1c-0.2,0.3-0.4,0.3-0.7,0.2c-1.5-0.6-3-0.7-4.5-0.3
	c-1.1,0.3-2.1,0.7-2.8,1.7c-0.4,0.7-1,1.2-1.6,1.6c-1.6,1.2-3.4,2.2-5.5,2.1c-1.1,0-2-0.6-2.6-1.5c-0.2-0.3-0.2-0.4,0.2-0.5
	c1.2-0.2,2.1-0.7,2.8-1.6c0.6-0.8,0.4-1.8-0.4-2.3c-0.6-0.4-1.2-0.5-1.9-0.3c-1.3,0.4-2.2,1.6-2.3,3.1c-0.1,1.3,0.6,2.7,1.8,3.4
	c1.5,0.8,3.2,0.9,4.9,0.7c1.6-0.2,2.9-1,4-2c0.2-0.2,0.3-0.2,0.4,0.1c0.6,1,1.6,1.4,2.7,1.2c0.6-0.1,1.2-0.3,1.7-0.5
	c1.1-0.5,2.1-1.2,3.1-2.1c0.2-0.2,0.3-0.2,0.4,0.1c0.7,1.5,2.3,2.4,4,2s3.2-1,4.3-2.4c0.1-0.1,0.2-0.2,0.3-0.3v1.1
	c0,0.7,0.2,1.4,0.9,1.7c0.3,0.1,0.5,0.1,0.7-0.1c0.6-0.5,1-1.1,1.5-1.7c0.7-0.9,1.5-1.8,2.4-2.5c0.4-0.3,0.5-0.3,0.6,0.2
	c0.2,0.9,0.4,1.7,0.8,2.5s1.1,1,1.8,0.5c0.9-0.7,1.8-1.4,2.7-2.1c0.5-0.4,0.5-0.4,0.8,0.2c0.9,1.7,2.3,2.6,4.2,2.6
	c1.2,0,2.2-0.5,3.2-1c0.7-0.4,1.3-1,1.9-1.6c0.2-0.3,0.4-0.5,0.4-0.9C69.9,20.3,69.9,20.2,69.7,20.1L69.7,20.1L69.7,20.1L69.7,20.1z
	 M22,20.8c0.2-0.5,0.5-0.9,0.9-1.2c0.2-0.2,0.4-0.3,0.7-0.3c0.2,0,0.4,0.1,0.5,0.3c0.1,0.2,0,0.4-0.1,0.5c-0.4,0.5-0.9,0.8-1.4,1.1
	c-0.2,0.1-0.5,0.4-0.6,0.2C21.7,21.3,21.9,21,22,20.8L22,20.8z M38.4,20.5c-0.7,0.7-1.5,1.2-2.3,1.7c-0.9,0.5-1.8,1-2.8,1.2
	c-0.3,0.1-0.6,0.1-0.8-0.2c-0.2-0.2-0.2-0.5-0.1-0.8c0.2-0.7,0.7-1.1,1.4-1.5c1.1-0.6,2.2-0.8,3.5-0.8c0.3,0,0.7,0.1,1,0.1
	C38.5,20.2,38.5,20.3,38.4,20.5C38.4,20.4,38.4,20.4,38.4,20.5z"/>
<path class="st0" d="M11.6,32.7c-0.1-0.2-0.2-0.3-0.4-0.4c-0.1-0.1-0.2-0.2-0.3-0.4c-0.2-0.5-0.3-1.1-0.4-1.6
	c-0.2-1.4-0.3-2.8-0.4-4.3c-0.1-2.6,0-5.1,0.1-7.7c0.1-2.3,0.2-4.5,0.6-6.8c0.4-2.6,0.6-5.3,0.7-8c0-0.7-0.2-1-0.8-1.2
	c-0.4-0.2-0.7-0.1-0.7,0.4c-0.1,1-0.3,2-0.4,3.1C9.4,7.5,9.2,9.2,9,10.9C9,12,8.9,13,8.6,14.1c-0.4,1.4-0.8,2.8-1.2,4.2
	c-0.1,0.2-0.1,0.4-0.4,0.4c-0.7-0.2-1.4-0.3-2.1-0.3c-1.4-0.1-2.6,0.2-3.7,1c-1,0.8-1.3,2.2-0.8,3.3c1.1,2.4,4.2,2.7,6,0.7
	c0.9-1,1.5-2.1,2-3.4l0.4-0.8h0.1v0.4c0,0.9,0,1.8-0.1,2.8c-0.1,1,0,2.1,0.1,3.1c0.1,1.5,0.1,3,0.4,4.5c0.2,1,0.4,1.9,1,2.7
	c0.3,0.4,0.7,0.6,1.1,0.8c0.2,0.1,0.4,0.1,0.5-0.1C11.9,33,11.7,32.8,11.6,32.7C11.6,32.7,11.6,32.7,11.6,32.7z M6.6,20
	c-0.4,0.8-0.9,1.7-1.6,2.4c-0.6,0.7-1.3,1.2-2,1.2c-1.1,0-1.8-0.7-1.6-1.6c0.2-1.2,0.9-1.9,2.1-2.2c1-0.3,1.9-0.2,2.9-0.1
	C6.6,19.6,6.7,19.7,6.6,20L6.6,20L6.6,20z"/>
</svg>
