<?xml version="1.0" encoding="UTF-8"?><svg id="Layer_1" xmlns="http://www.w3.org/2000/svg" xmlns:xlink="http://www.w3.org/1999/xlink" viewBox="0 0 179.17 50.81"><defs><style>.cls-1{clip-path:url(#clippath-2);}.cls-2{clip-path:url(#clippath-6);}.cls-3{clip-path:url(#clippath-7);}.cls-4{clip-path:url(#clippath-1);}.cls-5{clip-path:url(#clippath-4);}.cls-6{fill:#cda582;}.cls-7{clip-path:url(#clippath-9);}.cls-8{clip-path:url(#clippath);}.cls-9{fill:none;}.cls-10{clip-path:url(#clippath-3);}.cls-11{clip-path:url(#clippath-8);}.cls-12{clip-path:url(#clippath-5);}</style><clipPath id="clippath"><path class="cls-9" d="m87.82,44.77s-.05.06-.07.1c-.02.03-.04.06-.06.1.08,0,.16,0,.26.03h0s.04.01.06.04c.01.03.02.06.04.1.01.04.02.09.01.14,0,.01,0,.03,0,.05,0,.02,0,.04,0,.05-.02.03-.04.05-.06.05h-.04s-.04,0-.07,0c-.08.01-.16.04-.26.1,0,.03.01.05.02.06,0,.02.02.03.03.05.01.01.02.02.03.03,0,0,.02.02.02.03,0,.01.01.02.02.03.02.01.03.03.04.04.01.01.03.03.05.04.08.06.16.1.26.13.1.03.19.04.29.04.08-.1.14-.2.18-.3.04-.1.08-.2.1-.3.06-.23.08-.4.06-.52-.02-.12-.03-.2-.05-.23-.03-.06-.07-.11-.13-.14-.06-.03-.13-.04-.21-.03-.08,0-.17.04-.26.1-.09.05-.18.13-.27.23m-.74,1.42c-.05.11-.08.2-.09.26,0,.04,0,.08,0,.11s0,.07.02.09c.02.04.05.07.09.09.03.02.08.03.14.03s.13-.02.23-.06c.06-.03.12-.06.19-.09.07-.04.14-.08.21-.12.13-.08.22-.16.3-.24-.24-.01-.44-.1-.62-.25-.08-.07-.14-.16-.18-.26-.01.01-.02.03-.03.04-.01.01-.02.03-.03.04-.01.01-.02.03-.04.06-.02.03-.04.05-.06.09-.02.04-.04.08-.06.12-.02.04-.03.07-.05.11Zm-8.37,4.12c.04-.05.13-.14.25-.28.12-.13.26-.3.43-.5s.36-.43.56-.69c.21-.26.43-.54.65-.84-.41.39-.76.74-1.05,1.05-.29.31-.48.52-.56.64-.07.11-.13.22-.17.32-.04.1-.08.2-.11.29Zm4.8-3.72c.23-.06.43-.15.59-.25.16-.1.3-.22.42-.35-.18.08-.33.15-.45.23-.13.07-.23.14-.31.19-.1.07-.18.13-.25.18Zm-1.88-.05l.03-.04c.03-.05.07-.13.14-.23.07-.1.14-.21.22-.34.08-.13.16-.26.25-.39.09-.14.17-.26.25-.38.08-.12.14-.22.2-.31.06-.09.09-.15.11-.19,0-.01.02-.03.03-.05.01-.01.02-.03.04-.05.02-.02.04-.04.06-.06,0,0,.01,0,.02-.02,0,0,.02-.02.04-.03.01,0,.02-.01.04-.02.01,0,.03-.01.04-.02.07-.03.14-.06.23-.09.09-.03.18-.06.26-.07.08-.01.14-.01.19,0,.05.01.06.05.04.11-.02.03-.03.05-.05.07-.02.02-.04.05-.06.07h0c-.08.12-.16.23-.24.35-.07.1-.15.22-.24.34-.09.13-.18.25-.27.38.21-.16.42-.31.62-.45.2-.14.38-.27.56-.38.17-.11.33-.2.48-.28.15-.07.27-.12.37-.15.14-.03.26-.02.36.04.09.05.16.14.22.28.06.14.07.34.03.63,0,.01,0,.03,0,.04s0,.03,0,.04c0,.01,0,.03,0,.04s0,.03,0,.04c.08-.02.16-.04.25-.05s.17-.03.26-.04c.19-.03.39-.06.6-.07.12,0,.25-.02.38-.02.03-.03.06-.05.09-.07.11-.08.18-.12.2-.13,0,0,.01,0,.02,0,.03-.09.06-.17.11-.25.04-.07.09-.14.13-.19.04-.05.09-.1.13-.14.04-.04.07-.07.09-.09.05-.05.12-.09.2-.13.08-.04.16-.07.24-.09.08-.02.16-.03.25-.03s.16.02.22.05c.04.03.09.06.13.1.04.04.08.1.11.17,0,.02.01.04.02.06,0,.02.01.04.02.06.02.08.03.17.04.27,0,.1,0,.22-.03.35,0,0,0,.01,0,.02-.03.15-.06.28-.11.38-.04.11-.08.19-.11.26-.03.05-.05.08-.05.08,0,0-.01,0-.02,0h0s.09-.02.13-.03c.04-.01.08-.03.13-.04.15-.05.29-.11.42-.18.13-.07.25-.13.36-.2.06-.04.12-.07.18-.11.03-.03.07-.05.1-.08.25-.21.46-.39.62-.54-.09-.06-.16-.14-.19-.24-.04-.1-.05-.21-.05-.32,0-.1.02-.19.07-.28.04-.08.09-.15.15-.21.06-.07.13-.13.21-.18.07.01.14.03.2.06.05.03.1.06.14.1.05.04.08.09.09.16l-.02.02s-.01.01-.02.02c0,0-.02.02-.03.03-.06.06-.12.13-.17.21-.03.05-.05.09-.06.14-.01.05-.02.09,0,.14,0,.01,0,.02,0,.03.03.11.08.16.17.15.04,0,.08-.02.12-.03.04-.02.08-.03.12-.04.24-.09.42-.12.57-.1.04.01.09.03.14.05.05.02.1.06.14.11.08.09.09.21.05.35-.05.14-.12.29-.23.45s-.22.32-.35.47c-.13.16-.25.3-.34.43-.1.13-.16.24-.18.32-.02.09.02.13.13.14.1.01.22,0,.36-.04.13-.04.27-.09.42-.16.15-.07.3-.15.45-.23.15-.09.3-.18.44-.28.34-.22.69-.47,1.04-.76h.3c-.41.35-.82.66-1.22.92-.17.11-.35.22-.53.32-.18.1-.37.19-.55.27-.18.08-.36.14-.53.17-.17.04-.33.05-.47.03-.18-.02-.29-.08-.34-.17-.05-.09-.06-.21-.03-.34.03-.13.08-.27.17-.42.09-.15.17-.29.27-.43.09-.14.18-.26.26-.37.08-.11.13-.19.16-.24.01-.02.02-.04.03-.07.01-.05,0-.08,0-.09-.01-.02-.03-.03-.06-.03-.03,0-.06,0-.1,0-.12.03-.2.04-.26.04-.06,0-.1,0-.13,0,0,0,0,0-.01,0,0,0,0,0-.01,0-.04.04-.07.07-.1.11-.03.03-.05.06-.08.09-.03.03-.05.05-.08.07-.03.03-.06.05-.09.07-.04.02-.07.05-.11.08-.09.07-.19.14-.29.21-.1.07-.19.13-.26.18-.09.06-.18.12-.27.17l-.03-.03c-.12.07-.26.14-.4.21-.22.11-.44.19-.67.23-.02,0-.04,0-.05,0-.13.14-.28.28-.45.41-.18.13-.39.25-.65.36-.03.01-.05.02-.08.03-.03,0-.05.02-.07.03-.11.03-.2.05-.28.05-.08,0-.14,0-.2-.01-.06-.01-.11-.03-.16-.06-.04-.03-.07-.06-.09-.1-.02-.03-.05-.06-.07-.1-.06-.1-.08-.22-.07-.38,0-.06.01-.14.04-.24.04-.13.09-.25.16-.38.07-.12.15-.24.23-.35.05-.07.11-.13.16-.19-.13.02-.25.04-.37.06-.4.07-.76.15-1.08.24-.08.22-.2.4-.37.56-.16.15-.34.28-.54.37-.2.1-.4.17-.6.21-.2.04-.38.07-.53.07-.11-.03-.18-.07-.2-.14-.02-.06-.03-.12-.03-.15,0-.02,0-.04.02-.06.11-.1.26-.22.46-.34.2-.13.44-.25.74-.36.04-.02.09-.04.14-.05.05-.02.09-.03.14-.05.03-.04.05-.08.07-.12.02-.04.04-.07.06-.11.05-.11.09-.22.11-.32.03-.1.05-.19.06-.27.02-.09.02-.17.02-.25-.35.15-.72.37-1.11.63-.39.27-.8.57-1.21.89-.06.04-.12.09-.18.14-.06.05-.12.09-.18.14l-.12.16c-.12.17-.23.33-.34.48-.1.15-.19.28-.25.37-.3.46-.6.91-.93,1.34-.32.43-.64.81-.97,1.12-.07.06-.15.15-.25.25-.1.1-.21.2-.32.29-.11.1-.21.18-.31.25-.1.07-.17.11-.22.11-.07,0-.12-.01-.16-.06-.04-.05-.06-.07-.06-.08,0-.01-.01-.03-.02-.04,0-.01-.01-.03-.02-.05h0s-.01-.08-.02-.17c0-.09,0-.2.03-.34.02-.14.08-.29.16-.46.08-.17.2-.35.37-.53.09-.1.22-.23.37-.37.15-.14.33-.31.53-.5.08-.07.16-.14.24-.22.08-.08.17-.15.26-.23.16-.15.34-.3.51-.46.18-.16.36-.32.56-.48l.09-.12.1-.16Zm39.13-1.73s-.05-.06,0-.14c.04-.08.09-.18.16-.28.07-.1.13-.21.19-.31.06-.11.08-.19.06-.26,0,0,0-.02,0-.03.01-.03.04-.06.1-.1.04-.03.12-.07.23-.12.11-.05.22-.08.31-.09.1,0,.16.02.2.08.04.06,0,.2-.1.4-.08.14-.17.27-.28.4-.11.12-.22.27-.33.43-.09,0-.17.01-.24.02-.06,0-.12.01-.18.01-.06,0-.1,0-.13-.01Zm5.87-3.05c.03-.11,0-.14-.1-.09-.1.05-.24.15-.41.3-.17.15-.36.33-.58.53-.22.21-.42.41-.61.61-.19.2-.36.38-.51.53-.15.15-.23.25-.27.3.42-.26.8-.53,1.14-.78.15-.11.29-.23.44-.35.15-.12.28-.24.4-.37.12-.12.22-.24.31-.36.09-.12.15-.23.18-.33Zm-13.83,4.73s-.09-.06-.14-.11c-.06-.04-.11-.1-.16-.16-.05-.06-.08-.13-.09-.2-.01-.06,0-.11.02-.17-.11.08-.21.15-.32.22-.15.1-.31.2-.47.29-.16.09-.31.18-.46.25-.15.07-.29.13-.43.17-.13.04-.25.05-.35.05-.15-.01-.29-.05-.42-.11-.11-.05-.21-.13-.3-.23-.09-.1-.15-.25-.16-.45-.01-.13,0-.25,0-.37.02-.12.03-.22.05-.31.02-.1.05-.2.07-.28-.39.31-.75.59-1.08.83-.14.1-.28.2-.42.3-.14.1-.27.19-.39.27-.12.08-.22.14-.31.18-.09.05-.15.07-.19.07-.22,0-.38-.04-.46-.14-.04.03-.09.07-.13.1-.44.32-.89.62-1.35.9-.45.29-.92.53-1.4.72-.48.2-.98.33-1.49.42-.51.08-1.05.07-1.61-.02-.12-.02-.23-.04-.33-.07-.1-.03-.2-.05-.3-.09-.37-.13-.66-.3-.87-.51-.21-.21-.37-.43-.47-.68-.1-.24-.16-.49-.18-.74-.02-.25-.01-.49.02-.72.03-.23.07-.43.12-.6.05-.18.09-.31.11-.4.09-.29.2-.56.32-.82.12-.25.24-.48.35-.66.13-.22.25-.42.39-.62.42-.6.83-1.12,1.23-1.57.41-.44.8-.83,1.18-1.15.38-.32.75-.58,1.1-.79.35-.21.67-.37.97-.5.7-.29,1.37-.42,1.99-.4.15,0,.3.04.43.11.11.05.22.13.32.24.1.11.18.26.22.44.01.05.02.11.02.16,0,.05,0,.11,0,.18s0,.14-.02.21c-.03.04-.06.07-.1.11-.03.03-.07.06-.12.1-.05.03-.11.06-.19.07h0s-.02-.01-.03-.04c0-.01,0-.03,0-.04-.01-.05-.02-.1-.03-.16,0-.05-.02-.1-.03-.15-.02-.05-.03-.1-.04-.14,0,0,0,0,0-.02h0c-.04-.13-.1-.22-.16-.29-.07-.07-.13-.12-.21-.15-.07-.03-.14-.05-.21-.06-.07,0-.12-.01-.16-.01-.2-.01-.49.04-.87.16-.38.12-.82.34-1.32.65-.49.31-1.02.72-1.58,1.24-.56.52-1.11,1.15-1.65,1.91-.54.75-.93,1.46-1.19,2.12-.25.66-.35,1.24-.29,1.73.06.49.29.88.69,1.17.4.29.98.44,1.74.45.62.01,1.21-.09,1.79-.29.57-.21,1.12-.48,1.64-.8.52-.33,1.02-.69,1.51-1.08.11-.09.22-.18.33-.27.05-.05.11-.11.18-.19.12-.11.26-.24.43-.38.17-.14.35-.28.54-.43.19-.14.39-.28.59-.41.2-.13.39-.23.58-.32.19-.09.35-.15.49-.18.14-.02.26-.02.38,0,.1.03.19.09.28.17.09.08.15.22.19.42,0,.01,0,.02,0,.03,0,0-.01,0-.02-.02-.02-.04-.05-.08-.09-.13-.04-.04-.09-.08-.15-.11-.06-.03-.13-.05-.21-.05-.08,0-.16.02-.25.07-.08.05-.2.11-.35.21-.15.09-.31.2-.48.32-.17.12-.34.25-.52.39-.18.14-.34.27-.48.4-.14.13-.26.25-.35.36-.09.11-.13.2-.13.26.02,0,.06-.03.12-.06.05-.03.12-.08.21-.14.09-.06.21-.14.36-.25.15-.11.31-.24.49-.38.18-.14.35-.28.51-.4.16-.13.31-.23.44-.32.13-.09.22-.14.27-.15.14-.03.26,0,.35.07l.02.02c.05.05.09.12.1.19.01.08,0,.15-.02.22-.03.06-.06.17-.09.32-.04.15-.06.31-.07.46,0,.16,0,.3.05.42.04.12.13.18.26.17.1,0,.23-.03.37-.08.14-.05.29-.12.45-.2.16-.08.32-.17.48-.27.16-.1.31-.19.45-.29.14-.09.27-.18.39-.26l.06-.04c.06-.09.12-.18.18-.26.08-.11.15-.21.21-.31.06-.1.1-.17.12-.23.01-.03.03-.07.06-.1.03-.04.06-.05.11-.03.03.02.08.05.13.08.05.04.1.08.14.13.04.05.07.1.09.16.02.06,0,.12-.03.17-.05.07-.11.15-.18.23-.07.08-.14.16-.2.24-.07.08-.12.15-.17.22-.05.07-.08.12-.1.16.35-.32.69-.6,1-.84.14-.1.28-.2.42-.29.14-.09.28-.17.42-.24.13-.07.26-.12.37-.15.12-.03.21-.04.3,0,.16.04.26.15.3.3.04.15.02.34-.03.54-.06.21-.15.43-.28.66-.13.23-.28.44-.44.64.13-.12.27-.24.42-.37.13-.11.29-.23.46-.37.18-.14.36-.27.56-.42.19-.14.37-.26.56-.38.18-.12.36-.22.52-.3.16-.08.32-.14.46-.18.14-.04.26-.05.36-.03.04.01.09.03.14.05.05.02.1.06.14.11.08.09.09.21.04.35-.05.14-.12.29-.23.45-.1.16-.22.32-.36.47-.13.16-.25.3-.34.43-.09.13-.15.24-.18.32-.03.09.01.13.12.14.1.01.22,0,.36-.04.14-.04.27-.09.42-.16.15-.07.29-.15.45-.23.15-.09.3-.18.44-.28.17-.11.35-.23.53-.36.1-.13.19-.25.28-.35.02-.03.08-.06.18-.1.1-.04.21-.08.31-.11.11-.03.2-.04.28-.03.08,0,.1.04.08.11-.11.16-.24.33-.39.51-.15.18-.28.34-.4.49-.11.15-.19.28-.23.39-.04.11,0,.16.11.17.1.01.22,0,.36-.04.13-.04.27-.09.42-.16.15-.07.29-.15.45-.23.15-.09.3-.18.44-.28.26-.16.52-.35.78-.55h0c.03-.14.07-.27.12-.4.13-.29.28-.57.46-.84.18-.27.35-.49.5-.68.03-.03.05-.06.07-.09.02-.03.05-.05.07-.08.3-.34.63-.67,1-.99.36-.33.76-.64,1.19-.93.07-.04.13-.07.19-.1.05-.02.11-.03.17-.04.06,0,.11,0,.17.02.03.01.07.05.12.11.04.06.06.14.06.25,0,.11-.04.24-.12.39-.08.15-.22.34-.43.55-.21.21-.49.45-.86.72-.36.27-.84.57-1.41.9l-.15.17c-.06.07-.12.16-.18.26-.07.1-.13.21-.19.32-.06.12-.12.24-.17.37-.05.13-.08.26-.11.4,0,.04,0,.08-.01.11,0,.04,0,.07,0,.11,0,.15.03.3.08.43h0s.06.07.1.09c.04.02.09.03.15.02.1,0,.23-.03.37-.08.14-.05.29-.12.45-.2.16-.08.32-.17.48-.27h.02c.05-.07.12-.15.21-.24.12-.11.26-.24.43-.38.17-.14.35-.28.54-.43.19-.14.39-.28.59-.41.2-.13.39-.23.58-.32.19-.09.35-.15.49-.18.14-.02.26-.02.38,0,.1.03.19.09.28.17.09.08.15.22.19.42,0,.01,0,.02,0,.03,0,0-.01,0-.02-.02-.02-.04-.05-.08-.09-.13-.04-.04-.09-.08-.15-.11-.06-.03-.13-.05-.21-.05-.08,0-.16.02-.25.07-.08.05-.2.11-.35.21-.15.09-.31.2-.48.32-.17.12-.34.25-.52.39-.18.14-.34.27-.48.4-.14.13-.26.25-.35.36-.09.11-.13.2-.13.26.02,0,.06-.03.12-.06.05-.03.12-.08.21-.14.09-.06.21-.14.36-.25.15-.11.31-.24.49-.38.18-.14.35-.28.51-.4.16-.13.31-.23.44-.32.13-.09.22-.14.27-.15.14-.03.26,0,.35.07l.02.02c.06.05.09.12.1.19.01.08,0,.15-.02.22-.03.06-.06.17-.09.32-.04.15-.06.31-.07.46,0,.16,0,.3.05.42.04.12.13.18.26.17.1,0,.23-.03.37-.08.14-.05.29-.12.45-.2.16-.08.32-.17.48-.27.16-.1.31-.19.45-.29.14-.09.27-.18.39-.26.12-.08.21-.14.27-.19h.28c-.39.31-.76.58-1.11.81-.15.1-.31.2-.47.29-.16.09-.31.18-.46.25-.15.07-.29.13-.43.17-.13.04-.25.05-.35.05-.15-.01-.29-.05-.42-.11-.11-.05-.21-.13-.3-.23-.09-.1-.15-.25-.16-.45-.01-.13,0-.25,0-.37.02-.12.03-.22.05-.31.02-.1.05-.2.07-.28-.39.31-.75.59-1.08.83-.14.1-.28.2-.42.3-.14.1-.27.19-.39.27-.12.08-.22.14-.31.18-.09.05-.15.07-.19.07-.27,0-.44-.06-.51-.21-.03-.06-.04-.12-.03-.19-.09.05-.18.1-.26.15-.14.08-.28.15-.41.2-.13.06-.25.1-.36.13h-.02c-.18.05-.35.04-.54-.03-.02-.01-.04-.03-.07-.04-.02-.01-.04-.03-.07-.04-.13-.12-.21-.24-.25-.39-.02-.05-.03-.09-.03-.13,0-.04-.01-.09-.02-.13,0-.06,0-.13,0-.19,0-.03,0-.07,0-.1-.2.15-.4.29-.6.42-.17.11-.35.22-.53.32-.19.1-.37.19-.55.27-.18.08-.36.14-.53.17-.17.04-.33.05-.47.03-.21-.03-.34-.1-.37-.23-.03-.13-.01-.28.06-.45.02-.06.05-.12.08-.18-.03.02-.07.04-.1.06-.17.11-.35.22-.53.32-.19.1-.37.19-.55.27-.18.08-.36.14-.53.17-.17.04-.33.05-.47.03-.18-.02-.29-.08-.34-.17-.05-.09-.06-.21-.03-.34.03-.13.09-.27.17-.42.08-.15.17-.29.27-.43.1-.14.18-.26.26-.37.08-.11.13-.19.16-.24.03-.04.04-.09.04-.14,0,0-.02-.02-.06-.05-.04-.03-.13-.01-.26.04-.13.05-.33.17-.59.36-.26.19-.6.49-1.04.91-.32.3-.59.56-.8.77-.21.21-.38.38-.51.51-.13.13-.22.24-.28.31-.06.07-.1.13-.12.16-.03.03-.06.04-.08.03-.03-.02-.07-.04-.12-.08-.05-.03-.09-.08-.12-.13-.03-.05-.05-.12-.06-.18,0-.07.02-.15.08-.24.29-.39.55-.76.77-1.11.09-.15.18-.3.27-.45.09-.15.16-.29.22-.43.06-.13.11-.26.14-.37.03-.11.04-.2.02-.27-.02-.08-.09-.1-.21-.06-.12.04-.27.12-.44.23-.17.12-.36.25-.56.42-.2.16-.39.32-.58.48-.19.16-.35.31-.5.45-.15.14-.25.24-.32.3-.03.03-.05.04-.07.04s-.03,0-.05,0Zm31.41.99c-.16-.17-.33-.36-.51-.56-.18-.2-.35-.39-.51-.58-.16-.18-.31-.35-.43-.49-.13-.14-.21-.24-.26-.3-.03,0-.05,0-.07-.04-.02-.03-.03-.07-.04-.12-.03-.06-.04-.12-.02-.17.01-.05.03-.09.06-.13.03-.04.07-.08.12-.12.05-.05.12-.06.21-.06,0,0,0,0,.01,0,0,0,0,0,.01,0h.05s.08,0,.12,0c.04,0,.08,0,.12,0h.05c.31-.03.6-.07.86-.13.26-.05.5-.09.71-.12.07,0,.14-.02.23-.03.09-.02.19-.03.28-.04.1-.01.2-.03.3-.04.1-.02.19-.03.27-.05.5-.12.9-.25,1.19-.41.29-.15.49-.27.6-.35.24-.18.45-.37.63-.57.18-.2.33-.39.45-.58.12-.21.23-.42.34-.63.19-.45.33-.87.4-1.27.03-.17.06-.34.07-.5.01-.17,0-.32-.02-.47-.02-.14-.07-.28-.14-.39-.07-.12-.18-.21-.31-.27-.18-.08-.4-.08-.68,0-.28.07-.6.21-.95.41-.35.2-.73.45-1.13.75-.4.3-.82.64-1.25,1.02-.6.53-1.19,1.12-1.78,1.75-.59.63-1.15,1.27-1.68,1.9-.46.63-.99,1.31-1.6,2.05l-.07.09s-.06.07-.09.11c-.03.04-.06.08-.1.13-.06.06-.12.14-.2.23-.08.09-.16.18-.24.26-.08.08-.16.15-.24.21-.08.06-.14.09-.18.09-.02,0-.04,0-.06-.03-.01-.02-.03-.06-.05-.12-.02-.06-.04-.12-.05-.2-.01-.07,0-.15,0-.24.02-.09.06-.17.12-.25.08-.08.22-.24.42-.46.2-.23.43-.49.69-.8.26-.31.54-.65.84-1.01.3-.36.58-.73.86-1.1.28-.37.54-.72.77-1.07.24-.34.42-.65.56-.91.21-.41.39-.79.53-1.16.14-.37.24-.71.3-1.03.06-.32.08-.6.06-.84-.02-.24-.09-.45-.2-.61-.1-.14-.31-.23-.65-.28-.33-.05-.75-.04-1.26.04-.51.08-1.09.23-1.75.45-.66.23-1.36.54-2.11.96-.16.09-.31.18-.46.27-.15.09-.29.18-.42.27-.14.09-.29.18-.44.28-.15.1-.3.19-.44.28s-.26.17-.37.24c-.11.07-.19.13-.24.16-.06.04-.1.06-.13.07-.03,0-.05,0-.06,0-.01-.01-.01-.03,0-.06.03-.14.09-.28.17-.41.08-.13.17-.26.28-.37.1-.12.2-.22.3-.31.1-.09.19-.16.26-.22.58-.41,1.26-.8,2.03-1.15.77-.36,1.66-.65,2.66-.88.09-.02.21-.04.35-.06.14-.02.3-.04.47-.05.17,0,.34-.01.52,0,.18,0,.35.03.51.07.21.06.42.16.62.3.2.14.36.33.49.57.12.23.2.48.25.75.04.28.03.6-.04.96-.07.36-.21.77-.4,1.23-.2.46-.47.98-.83,1.57l.63-.7c.46-.49.93-.96,1.41-1.43.49-.46.97-.86,1.44-1.2.47-.34.94-.6,1.38-.78.45-.18.86-.24,1.25-.16.32.08.58.24.76.5.08.11.14.24.2.41.06.16.09.35.09.57,0,.22-.01.48-.06.77-.05.29-.14.62-.27.99-.06.17-.13.33-.21.49-.08.16-.17.31-.26.46-.03.05-.09.14-.17.26-.08.12-.19.26-.34.41-.14.15-.31.32-.51.49-.2.17-.43.33-.69.47-.15.08-.35.17-.6.27-.25.1-.51.19-.79.26-.12.03-.25.06-.39.09-.15.03-.29.05-.45.07-.15.02-.3.04-.45.06-.15.02-.28.03-.39.04h0c-.05,0-.1.01-.14.01-.04,0-.06,0-.07,0-.21.02-.4.04-.54.06-.15.02-.28.04-.39.06.15.17.34.39.55.66.21.27.47.62.76,1.03l.18.25c.27.34.52.63.74.86.23.23.46.46.7.68.23.21.43.37.59.47.16.1.3.16.4.18.11.02.19.01.25-.02.06-.04.11-.08.14-.14.04-.06.06-.12.08-.18.02-.06.04-.11.05-.14.04-.08.08-.1.1-.08.01.01.02.03.02.06-.08.21-.17.37-.29.46-.12.1-.24.15-.37.16-.13.01-.27,0-.41-.05-.14-.05-.27-.11-.4-.19-.12-.06-.21-.13-.29-.18-.08-.06-.15-.12-.21-.17-.06-.06-.12-.12-.18-.18-.05-.06-.12-.14-.19-.21-.08-.08-.16-.15-.22-.22-.07-.07-.13-.15-.2-.22-.07-.08-.13-.16-.21-.24-.07-.08-.15-.17-.23-.27-.19-.21-.35-.41-.5-.59-.15-.18-.28-.34-.39-.47-.13-.15-.24-.29-.34-.42-.01.06.03.16.13.31.1.15.22.32.36.5.14.18.29.36.44.54.15.18.27.33.35.45.12.13.24.27.37.42.12.15.25.33.37.53l-1.31-1.45Zm32.12-1.72c-.44.16-.76.33-.96.51-.2.18-.32.33-.36.47-.04.14-.01.23.08.28.09.06.22.04.37-.04.16-.09.31-.25.46-.47.15-.22.29-.47.41-.75Zm-3.12-.5s-.02.02-.03.03c0,0-.01,0-.02,0l-.02.02.15-.03c.15-.04.28-.09.4-.16.12-.07.2-.12.24-.15.02-.01.04-.04.06-.09v-.04c.01-.06-.01-.08-.07-.07-.06,0-.15.04-.26.13-.07.04-.14.09-.21.15-.07.06-.15.12-.23.18,0,0,0,0,0,0h0Zm-9.19-.24c-.17.12-.34.25-.51.38-.17.13-.32.26-.46.38-.14.12-.25.24-.33.34-.08.1-.12.19-.12.25.02.01.06,0,.12,0,.05-.01.12-.05.21-.1.09-.05.22-.13.38-.24.12-.08.24-.16.37-.26.13-.1.26-.2.39-.3.13-.11.26-.21.38-.32.12-.11.23-.22.33-.32.02-.01.04-.04.08-.08.04-.04.05-.09.04-.15,0-.04-.05-.04-.14,0-.09.04-.19.09-.29.15-.11.06-.21.13-.3.18-.09.06-.15.09-.16.1Zm-3,5.34s.11-.12.26-.29c.15-.17.35-.4.59-.68.24-.28.5-.61.8-.99.29-.38.59-.78.89-1.22-.21.13-.41.26-.6.41-.2.14-.38.29-.56.45-.02.02-.1.1-.25.25-.14.15-.3.32-.47.52-.13.14-.25.29-.36.43-.11.15-.2.28-.26.4-.02.05-.05.14-.07.26-.03.12-.02.28.02.46Zm-3.45-8.59c.03-.11,0-.14-.1-.09-.1.05-.24.15-.41.3-.17.15-.36.33-.58.53-.22.21-.42.41-.61.61-.19.2-.36.38-.51.53-.15.15-.23.25-.27.3.42-.26.8-.53,1.14-.78.15-.11.29-.23.44-.35.15-.12.28-.24.4-.37.12-.12.22-.24.31-.36.09-.12.15-.23.18-.33Zm-4.71,3.25c-.16.12-.33.25-.5.38-.17.13-.32.26-.46.38-.13.12-.24.24-.33.34-.09.1-.12.19-.12.25.02,0,.06-.03.12-.06.05-.03.12-.08.21-.14.09-.06.21-.14.37-.25.12-.08.24-.18.38-.29.14-.11.27-.22.41-.32.13-.11.26-.21.38-.3.12-.09.22-.17.31-.23.02-.01.04-.04.08-.07.04-.03.05-.08.05-.14,0-.04-.05-.04-.14,0-.09.04-.19.09-.3.15-.11.06-.21.13-.3.18-.09.06-.15.09-.16.1Zm-3.46-.23s-.05.06-.07.1c-.02.03-.04.06-.06.1.08,0,.16,0,.26.03h0s.04.01.06.04c.01.03.02.06.04.1.01.04.02.09.01.14,0,.01,0,.03,0,.05,0,.02,0,.04,0,.05-.02.03-.04.05-.06.05h-.04s-.04,0-.07,0c-.08.01-.16.04-.26.1,0,.03.01.05.02.06,0,.02.02.03.03.05.01.01.02.02.03.03,0,0,.01.02.02.03,0,.01.01.02.02.03.02.01.03.03.05.04.01.01.03.03.05.04.08.06.16.1.26.13.1.03.19.04.29.04.08-.1.14-.2.18-.3.04-.1.08-.2.1-.3.06-.23.08-.4.06-.52-.02-.12-.03-.2-.05-.23-.03-.06-.07-.11-.13-.14-.06-.03-.13-.04-.21-.03-.08,0-.17.04-.26.1-.09.05-.18.13-.27.23Zm-.74,1.42c-.05.11-.08.2-.09.26,0,.04,0,.08,0,.11s0,.07.02.09c.02.04.05.07.09.09.03.02.08.03.14.03s.13-.02.23-.06c.06-.03.12-.06.19-.09.07-.04.14-.08.21-.12.13-.08.22-.16.3-.24-.24-.01-.44-.1-.62-.25-.08-.07-.14-.16-.18-.26-.01.01-.02.03-.03.04-.01.01-.02.03-.03.04-.01.01-.02.03-.04.06-.02.03-.04.05-.06.09-.02.04-.04.08-.06.12-.02.04-.03.07-.05.11Zm-.62.68c-.06-.1-.08-.22-.07-.38,0-.06.01-.14.04-.24.04-.13.09-.25.16-.38.07-.12.15-.24.23-.35.12-.15.23-.26.34-.34.11-.08.18-.12.2-.13,0,0,.01,0,.02,0,.03-.09.06-.17.11-.25.04-.07.09-.14.13-.19.04-.05.09-.1.13-.14.04-.04.07-.07.09-.09.05-.05.12-.09.2-.13.08-.04.16-.07.24-.09.08-.02.16-.03.25-.03s.16.02.22.05c.04.03.09.06.13.1.04.04.08.1.12.17,0,.02.01.04.02.06,0,.02.01.04.02.06.02.08.03.17.04.27,0,.1,0,.22-.03.35,0,0,0,.01,0,.02-.03.15-.06.28-.11.38-.04.11-.08.19-.11.26-.03.05-.05.08-.05.08,0,0-.01,0-.02,0h0s.09-.02.13-.03c.04-.01.08-.03.13-.04.15-.05.29-.11.42-.18.13-.07.25-.13.36-.2.12-.07.24-.15.35-.23h0c.14-.13.3-.27.47-.41.03-.03.09-.06.16-.11.07-.05.15-.1.22-.15.1-.06.23-.14.39-.22.16-.08.31-.15.46-.19.15-.05.29-.07.42-.06.13,0,.21.07.26.19.02-.03.04-.06.07-.09.02-.03.05-.05.07-.09.35-.44.75-.9,1.23-1.38.47-.47,1-.91,1.6-1.3.07-.04.13-.07.19-.1.05-.02.11-.03.17-.04.06,0,.12,0,.17.02.03.01.07.05.12.11.04.06.06.14.06.25,0,.11-.04.24-.12.39-.08.15-.22.34-.43.55-.21.21-.49.45-.86.72-.36.27-.84.57-1.41.9l-.34.4s-.07.1-.14.18c-.06.08-.13.17-.2.28-.07.1-.14.21-.21.32-.07.11-.13.22-.16.31-.03.07-.06.15-.08.23-.03.08-.05.17-.07.26-.03.2-.02.37.05.5.06.13.17.19.33.19.1,0,.24-.04.4-.12.16-.07.33-.16.51-.27.18-.11.37-.23.56-.36.19-.13.37-.25.54-.38.43-.35.86-.66,1.26-1.04-.09-.06-.16-.14-.19-.24-.04-.1-.05-.21-.05-.32,0-.1.02-.19.07-.28.04-.08.09-.15.15-.21.06-.07.13-.13.21-.18.07.01.14.03.2.06.05.03.1.06.14.1.05.04.08.09.09.16l-.02.02s-.01.01-.02.02c0,0-.02.02-.03.03-.06.06-.12.13-.17.21-.03.05-.05.09-.06.14-.01.05-.01.09,0,.14,0,.01,0,.02,0,.03.03.11.09.16.17.15.04,0,.08-.02.12-.03.04-.02.08-.03.12-.04.24-.09.42-.12.57-.1.04.01.09.03.14.05.05.02.1.06.14.11.08.09.09.21.05.35-.05.14-.12.29-.23.45-.1.16-.22.32-.35.47-.13.16-.25.3-.34.43-.1.13-.16.24-.18.32-.02.09.02.13.13.14.1.01.22,0,.36-.04.13-.04.27-.09.42-.16.15-.07.29-.15.45-.23.15-.09.3-.18.44-.28.17-.11.35-.23.53-.36.1-.13.19-.25.28-.35.02-.03.08-.06.18-.1.1-.04.21-.08.31-.11.11-.03.2-.04.28-.03.08,0,.1.04.08.11-.11.16-.24.33-.39.51-.15.18-.28.34-.4.49-.11.15-.19.28-.23.39-.04.11,0,.16.11.17.1.01.22,0,.36-.04.13-.04.27-.09.42-.16.15-.07.29-.15.45-.23.15-.09.3-.18.44-.28.06-.04.12-.08.18-.12.02-.04.04-.08.07-.11.07-.09.19-.22.37-.4.18-.17.38-.35.61-.54.04-.03.09-.06.16-.11.07-.05.14-.1.22-.15.1-.06.23-.14.39-.22.15-.08.31-.15.46-.19.15-.05.29-.07.42-.06.13,0,.22.06.27.17.01-.03.02-.07.04-.1.02-.04.03-.07.05-.1,0-.01.02-.02.05-.03.03,0,.07,0,.13.03.02.01.05.03.09.06.04.03.07.05.09.08.03.03.05.06.07.1.02.04.02.07,0,.1-.04.08-.1.19-.16.31-.07.13-.14.27-.23.44-.06.1-.11.2-.17.31-.06.11-.12.22-.19.34-.04.07-.09.15-.13.22-.04.08-.09.15-.13.23.03-.01.05-.02.07-.03.02,0,.05-.02.07-.03.35-.14.69-.27,1.02-.38.33-.11.64-.2.92-.28.28-.08.52-.14.73-.19.06-.01.11-.03.16-.04l.13-.16c.1-.13.2-.24.28-.35.09-.1.16-.19.22-.25.06-.06.11-.12.15-.15.01,0,.03-.02.05-.03.02-.01.05-.03.07-.04.17-.03.29-.04.37-.03.07,0,.14.02.2.02.02,0,.03.01.05.02.02,0,.01.03-.02.06-.22.21-.44.44-.67.71-.23.27-.44.54-.65.81-.02.03-.03.06-.05.08-.02.02-.03.04-.04.06-.05.1-.09.18-.1.24-.01.06-.01.11,0,.15.01.04.03.08.07.11.02,0,.04,0,.07,0,.15-.01.34-.1.57-.25.23-.15.48-.34.73-.55.25-.21.49-.42.72-.63.23-.21.41-.39.55-.52.08-.08.13-.13.16-.15.03-.05.06-.1.1-.14.04-.05.07-.07.1-.07.04,0,.1-.01.16-.02.06,0,.12,0,.17,0,.05.01.09.04.13.08.03.04.04.11.02.2-.06.15-.15.31-.28.49-.13.18-.26.37-.41.56-.15.19-.29.38-.44.56-.15.18-.27.34-.37.48-.1.14-.16.25-.19.34-.03.09,0,.14.09.14.1.01.23,0,.37-.05.14-.05.3-.11.46-.2.16-.08.33-.18.51-.29.18-.11.35-.22.51-.34.21-.15.43-.32.66-.5,0-.01.02-.03.02-.04.08-.15.18-.28.29-.41.11-.13.21-.24.31-.33.1-.09.18-.16.23-.19.01,0,.03-.02.05-.03.02-.01.04-.03.07-.04.09-.05.19-.1.28-.14.1-.04.19-.07.27-.09.07-.01.13-.02.18-.01.05,0,.1.02.14.05.1.07.16.14.18.22.02.08.03.15.01.22,0,.01-.01.03-.02.05,0,.02-.02.05-.03.08-.08.13-.21.23-.37.29-.16.07-.33.12-.49.15-.05.01-.1.02-.14.02-.04,0-.09,0-.13.01-.03,0-.05,0-.07,0s-.04,0-.06,0c-.02.03-.04.06-.07.12-.03.05-.06.11-.09.16-.03.06-.05.11-.08.16-.02.05-.04.09-.04.12,0,.02,0,.05,0,.1s.01.09.04.14c.02.05.05.09.1.12.04.04.11.05.21.05.02,0,.05,0,.07,0,.03,0,.05,0,.08-.01.17-.03.37-.11.59-.22.22-.11.45-.24.67-.37.22-.14.42-.27.61-.4.1-.07.18-.12.25-.17h0c.5-.4.91-.74,1.23-1.02.32-.28.52-.46.6-.53.02-.05.04-.08.07-.11.05-.05.12-.09.21-.1.09-.02.18-.02.28-.01.1,0,.22.02.34.04-.05,0-.1.05-.16.12-.06.07-.11.15-.17.24-.06.1-.12.22-.19.35-.06.19-.12.37-.18.54-.06.17-.12.33-.18.48.2-.03.39-.04.57-.06.18-.01.34-.02.47-.03.16,0,.31,0,.44,0h.55c-.43.03-.83.06-1.18.11-.35.05-.67.11-.95.18-.18.43-.35.78-.53,1.06-.18.28-.35.49-.51.64-.16.15-.32.24-.47.28-.15.04-.28.02-.39-.03-.14-.07-.25-.15-.32-.23-.07-.08-.12-.17-.15-.25-.03-.09-.05-.19-.05-.29.05-.17.13-.33.26-.46.12-.13.26-.25.43-.35.16-.1.35-.18.55-.26.2-.07.4-.13.61-.18.09-.22.18-.43.25-.64.08-.21.15-.4.21-.57-.25.23-.49.44-.74.62-.17.13-.33.25-.48.36h.03c-.31.24-.61.46-.91.67-.26.17-.53.34-.81.51-.29.16-.54.28-.77.35-.16.05-.3.08-.41.08s-.21-.01-.29-.04c-.09-.03-.17-.07-.22-.13-.07-.06-.12-.14-.16-.22-.05-.1-.07-.22-.07-.35-.12.09-.24.18-.35.27-.19.14-.38.27-.58.39-.2.13-.41.23-.61.33-.2.09-.4.16-.6.21-.19.04-.37.06-.54.03-.18-.03-.27-.11-.28-.25-.01-.14.02-.31.1-.51.08-.2.2-.41.35-.64.15-.23.3-.44.44-.64-.15.15-.33.32-.52.5-.19.18-.39.34-.58.49-.2.15-.39.28-.58.38-.19.1-.37.15-.53.16h-.1s-.06,0-.09,0c-.1-.01-.18-.04-.24-.07-.06-.04-.1-.08-.13-.14-.03-.06-.04-.12-.04-.19s0-.13.02-.2c.02-.08.04-.15.07-.23.03-.07.07-.14.11-.21.04-.07.07-.12.11-.18-.18.04-.37.1-.58.16-.27.08-.57.17-.89.28-.32.11-.66.24-1,.38-.06.03-.14.06-.25.1-.11.04-.19.07-.24.11-.03.04-.05.08-.07.11-.02.04-.04.07-.07.11-.16.28-.34.56-.52.84-.18.28-.37.55-.56.82-.19.27-.39.52-.58.76-.2.24-.39.45-.58.65-.07.06-.15.15-.25.25-.1.1-.21.2-.32.29-.11.09-.21.18-.31.25-.1.07-.18.11-.23.11-.07.01-.12,0-.15-.05-.04-.05-.06-.07-.06-.09-.02-.03-.04-.07-.07-.12-.03-.06-.05-.12-.07-.2-.02-.08-.03-.16-.04-.26,0-.1,0-.2.03-.31.02-.08.06-.19.13-.31.07-.12.16-.25.26-.4.1-.14.22-.28.35-.43.13-.15.26-.29.4-.43.13-.14.27-.27.4-.39.13-.12.26-.22.37-.29.2-.16.4-.31.62-.44.21-.14.44-.26.67-.39.08-.13.17-.26.25-.39.09-.13.17-.26.24-.39.09-.15.18-.3.27-.45.09-.15.17-.31.25-.46.01-.02.02-.04.03-.06,0-.02.02-.04.03-.06-.08.08-.21.21-.39.38-.18.17-.37.35-.58.53-.21.18-.43.35-.65.51-.22.16-.42.26-.6.31-.13.03-.23.03-.31-.02-.08-.04-.14-.11-.17-.2-.02-.06-.03-.13-.03-.2-.17.11-.34.21-.52.31-.19.1-.37.19-.55.27-.18.08-.36.14-.53.17-.17.04-.33.05-.47.03-.21-.03-.34-.1-.37-.23-.03-.13-.01-.28.06-.45.03-.06.05-.12.09-.18-.04.03-.07.05-.11.07-.17.11-.35.22-.53.32-.18.1-.37.19-.55.27-.18.08-.36.14-.53.17-.17.04-.33.05-.47.03-.18-.02-.29-.08-.34-.17-.05-.09-.06-.21-.03-.34.03-.13.08-.27.17-.42.09-.15.17-.29.27-.43.09-.14.18-.26.26-.37.08-.11.13-.19.16-.24.01-.02.02-.04.03-.07.01-.05,0-.08,0-.09-.01-.02-.03-.03-.06-.03-.03,0-.06,0-.1,0-.12.03-.2.04-.26.04-.06,0-.1,0-.13,0,0,0,0,0-.01,0,0,0,0,0-.01,0-.04.04-.07.07-.1.11-.03.03-.05.06-.08.09-.03.03-.05.05-.08.07-.03.03-.06.05-.09.07-.04.02-.07.05-.11.08-.24.18-.48.35-.72.54-.2.15-.39.3-.58.43-.17.12-.34.24-.52.36-.18.12-.35.22-.52.3-.17.09-.32.16-.47.21-.15.05-.27.07-.37.07-.16,0-.3-.04-.43-.09-.11-.05-.21-.12-.31-.22-.1-.1-.15-.25-.16-.45-.01-.13,0-.27.06-.43.05-.16.1-.3.16-.44.07-.16.15-.32.24-.47-.32.26-.62.5-.9.72-.12.09-.23.18-.35.27-.12.09-.23.17-.33.24-.1.07-.19.13-.27.18-.08.05-.14.08-.18.08-.13.03-.23.03-.3-.01-.08-.04-.13-.1-.16-.18-.03-.08-.03-.17,0-.27.02-.1.06-.19.13-.28-.12.07-.24.13-.38.2-.22.11-.44.19-.67.23-.02,0-.04,0-.05,0-.13.14-.28.28-.45.41-.18.13-.39.25-.65.36-.03.01-.05.02-.08.03-.03,0-.05.02-.07.03-.11.03-.2.05-.28.05-.08,0-.14,0-.2-.01-.06-.01-.11-.03-.16-.06-.04-.03-.07-.06-.09-.1-.02-.03-.05-.06-.07-.1Zm12.91-2.06s-.05-.06,0-.14c.04-.08.09-.18.16-.28.07-.1.13-.21.19-.31.06-.11.08-.19.06-.26,0,0,0-.02,0-.03.01-.03.04-.06.1-.1.04-.03.12-.07.23-.12.11-.05.22-.08.31-.09.1,0,.16.02.2.08.04.06,0,.2-.1.4-.08.14-.17.27-.28.4-.11.12-.22.27-.33.43-.09,0-.17.01-.24.02-.06,0-.12.01-.18.01-.06,0-.1,0-.13-.01Z"/></clipPath><clipPath id="clippath-1"><path class="cls-9" d="m4.93,30.83c1.46,0,1.97-1.32,2.02-1.5-.14-.52-.19-1.27-.19-2.26V5.08c0-1.13.09-1.93.28-2.44.19-.52.52-.85,1.03-1.03.28-.09.61-.19,1.03-.23V.33H0v1.04c.42.05.75.14,1.03.23.52.19.85.52,1.03,1.03.19.52.28,1.32.28,2.44v21.99c0,1.13-.09,1.93-.28,2.44-.19.52-.52.85-1.03,1.03-.28.09-.61.19-1.03.24v1.03h9.12v-.99h-4.18Z"/></clipPath><clipPath id="clippath-2"><path class="cls-9" d="m30.2.47v1.03c.56.09,1.03.19,1.36.33.61.24.99.66,1.17,1.22.19.56.28,1.41.28,2.54v18.94L16.43.42h-6.63v1.03c.42.05.75.14,1.03.24.52.19.85.52,1.03,1.03.19.52.28,1.32.28,2.44v21.52c0,1.13-.09,1.97-.28,2.54-.19.56-.56.99-1.08,1.22-.28.14-.61.24-1.03.33v1.03h6.3v-1.03c-.56-.09-1.03-.19-1.36-.33-.61-.24-1.03-.66-1.22-1.22-.19-.56-.28-1.41-.28-2.54V3.34l19.6,28.48h1.22V5.63c0-1.13.09-1.97.28-2.53.19-.56.56-.99,1.08-1.22.28-.14.61-.24,1.03-.33V.52l-6.2-.05Z"/></clipPath><clipPath id="clippath-3"><path class="cls-9" d="m59.64.47v.99c.66.09,1.22.28,1.64.52.66.42.99,1.08.99,1.97,0,.8-.33,2.02-.94,3.62l-7.66,18.61-8.51-21.15c-.38-.89-.56-1.6-.56-2.11,0-.56.24-.99.75-1.22.28-.14.66-.24,1.13-.33V.33h-9.26v.94c1.22.19,2.16,1.13,2.87,2.77l11.47,27.63h.75l11.04-26.65c.85-2.02,1.93-3.24,3.29-3.71V.33l-7,.14Z"/></clipPath><clipPath id="clippath-4"><path class="cls-9" d="m72.36,30.83c1.46,0,1.97-1.32,2.02-1.5-.14-.52-.19-1.27-.19-2.26V5.08c0-1.13.09-1.93.28-2.44.19-.52.52-.85,1.03-1.03.28-.09.61-.19,1.03-.23V.33h-9.12v1.04c.42.05.75.14,1.03.23.52.19.85.52,1.03,1.03.19.52.28,1.32.28,2.44v21.99c0,1.13-.09,1.93-.28,2.44-.19.52-.52.85-1.03,1.03-.28.09-.61.19-1.03.24v1.03h9.12v-.99h-4.18Z"/></clipPath><clipPath id="clippath-5"><path class="cls-9" d="m96.4,20.07c-.7-1.13-1.6-2.11-2.73-3.01-1.13-.89-2.68-1.93-4.65-3.05l-1.36-.8c-1.55-.89-2.77-1.64-3.62-2.26-.85-.61-1.55-1.32-2.11-2.16-.56-.85-.85-1.83-.85-2.96,0-1.5.52-2.73,1.6-3.67,1.08-.94,2.44-1.41,4.14-1.41,2.4,0,4.23.8,5.5,2.44.99,1.32,1.65,2.87,1.97,4.65h1.5V.28h-1.08c-.09.66-.24,1.17-.38,1.5-.14.33-.38.47-.66.47-.38,0-.89-.19-1.6-.61-.85-.52-1.64-.94-2.44-1.22-.8-.28-1.88-.42-3.24-.42-2.49,0-4.61.66-6.3,1.97-1.69,1.32-2.54,3.2-2.54,5.69,0,1.55.38,2.91,1.08,4.09.71,1.17,1.64,2.16,2.77,3.01,1.13.85,2.63,1.79,4.46,2.87,2.54,1.46,4.37,2.77,5.55,3.9,1.17,1.13,1.74,2.54,1.74,4.18,0,1.93-.61,3.38-1.79,4.37-1.17.99-2.63,1.5-4.32,1.5-2.77,0-4.84-.94-6.2-2.82-.99-1.36-1.64-3.01-2.02-4.93h-1.46l-.14,8.27h1.08c.09-.66.24-1.17.38-1.5.14-.33.38-.47.66-.47.38,0,.89.19,1.6.61.89.52,1.79.89,2.73,1.17.94.28,2.16.42,3.67.42,2.87,0,5.26-.75,7.14-2.21,1.88-1.46,2.82-3.52,2.82-6.2,0-1.5-.33-2.82-1.03-3.95l.14.09Z"/></clipPath><clipPath id="clippath-6"><path class="cls-9" d="m103.05,30.83c1.46,0,1.97-1.32,2.02-1.5-.14-.52-.19-1.27-.19-2.26V5.08c0-1.13.09-1.93.28-2.44.19-.52.52-.85,1.03-1.03.28-.09.61-.19,1.03-.23V.33h-9.12v1.04c.42.05.75.14,1.03.23.52.19.85.52,1.03,1.03.19.52.28,1.32.28,2.44v21.99c0,1.13-.09,1.93-.28,2.44-.19.52-.52.85-1.03,1.03-.28.09-.61.19-1.03.24v1.03h9.12v-.99h-4.18Z"/></clipPath><clipPath id="clippath-7"><path class="cls-9" d="m118.35,30.73c-.99,0-1.74-.09-2.21-.28-.47-.19-.8-.52-.99-1.03-.19-.52-.28-1.32-.28-2.4v-11.21h3.95c2.91,0,5.03.62,6.34,1.84,1.32,1.22,1.97,3.01,1.97,5.36,0,5.18-2.91,7.76-8.79,7.76v-.05Zm-3.48-17.13V5.08c0-1.08.09-1.88.28-2.4.19-.52.52-.89.99-1.08.47-.19,1.22-.28,2.21-.28,2.3,0,3.99.56,5.03,1.64,1.03,1.08,1.55,2.73,1.55,4.94s-.52,3.91-1.55,5.22c-1.03,1.32-2.82,1.97-5.4,1.97h-5.22c1.5,0,2.02-1.36,2.07-1.5h.05Zm14.8,4.47c-1.46-1.41-3.9-2.36-7.33-2.78v-.09c2.49-.7,4.28-1.74,5.4-3.1,1.13-1.37,1.69-2.92,1.69-4.61,0-2.12-.85-3.81-2.54-5.08-1.69-1.28-4.14-1.93-7.33-1.93-.61,0-8.41-.05-11.56-.05v.99c.47.05.85.14,1.13.24.52.19.85.52,1.03,1.03.19.52.28,1.32.28,2.44v21.98c0,1.13-.09,1.93-.28,2.44-.19.52-.52.85-1.03,1.03-.28.09-.66.19-1.13.24v.99h12.59c2.3,0,4.32-.38,6.02-1.08,1.69-.71,3.01-1.74,3.9-3.05.89-1.32,1.36-2.83,1.36-4.52,0-2.03-.75-3.77-2.21-5.18v.09Z"/></clipPath><clipPath id="clippath-8"><path class="cls-9" d="m154.14,23.91c-.24,1.5-.52,2.69-.89,3.58-.47,1.13-1.22,1.97-2.26,2.49-1.03.52-2.54.75-4.46.75h-9.12c1.55,0,2.07-1.5,2.07-1.5-.14-.52-.19-1.22-.19-2.16V5.08c0-1.13.09-1.93.28-2.44.19-.52.52-.85,1.03-1.03.24-.09.56-.19.99-.23V.33h-9.12v1.04c.42.05.75.14,1.03.23.52.19.85.52,1.03,1.03.19.52.28,1.32.28,2.44v21.99c0,1.13-.09,1.93-.28,2.44-.19.52-.52.85-1.03,1.03-.28.09-.61.19-1.03.24v1.03h22.98v-7.86l-1.32-.05Z"/></clipPath><clipPath id="clippath-9"><path class="cls-9" d="m179.17,24.34h-1.27c-.24,1.41-.52,2.54-.89,3.34-.47,1.08-1.22,1.88-2.26,2.35-1.03.47-2.54.71-4.46.71h-3.43c-1.13,0-1.93-.09-2.44-.24-.52-.14-.85-.47-1.03-.99-.19-.52-.28-1.32-.28-2.44v-10.62h3.1c1.27,0,2.26.33,2.96.94.71.61,1.13,1.55,1.27,2.77.05.28.09.52.14.75h1.27l-.09-9.68h-1.32c-.09.75-.24,1.41-.38,1.93-.19.66-.56,1.22-1.17,1.69-.61.47-1.46.71-2.54.71h-5.17c1.46,0,1.97-1.27,2.07-1.46V5.12c0-1.13.09-1.93.28-2.44.19-.52.52-.85,1.03-.99.52-.14,1.32-.24,2.44-.24h3.9c1.65,0,2.87.24,3.67.66.8.42,1.36,1.08,1.69,2.02.24.7.47,1.64.66,2.87h1.27V.47h-21.85v.99c.47.05.85.14,1.13.24.52.19.85.52,1.03,1.03.19.52.28,1.32.28,2.44v21.95c0,1.13-.09,1.93-.28,2.44-.19.52-.52.85-1.03,1.03-.28.09-.66.19-1.13.24v.99h22.84v-7.47Z"/></clipPath></defs><g class="cls-8"><rect class="cls-6" x="78.41" y="37.41" width="100.76" height="13.4"/></g><g class="cls-4"><rect class="cls-6" y=".33" width="9.12" height="31.49"/></g><g class="cls-1"><rect class="cls-6" x="9.76" y=".42" width="26.65" height="31.39"/></g><g class="cls-10"><rect class="cls-6" x="37.23" y=".33" width="29.42" height="31.34"/></g><g class="cls-5"><rect class="cls-6" x="67.42" y=".33" width="9.12" height="31.49"/></g><g class="cls-12"><rect class="cls-6" x="77.23" width="20.07" height="32.33"/></g><g class="cls-2"><rect class="cls-6" x="98.12" y=".33" width="9.12" height="31.49"/></g><g class="cls-3"><rect class="cls-6" x="108.01" y=".42" width="23.87" height="31.39"/></g><g class="cls-11"><rect class="cls-6" x="132.48" y=".33" width="22.98" height="31.49"/></g><g class="cls-7"><rect class="cls-6" x="156.33" y=".47" width="22.84" height="31.34"/></g></svg>