<?xml version="1.0" encoding="UTF-8"?><svg id="Layer_1" xmlns="http://www.w3.org/2000/svg" viewBox="0 0 357.81 391.76"><defs><style>.cls-1{fill:#cda582;}</style></defs><path class="cls-1" d="m45.27,0c3.74,2.72,7.26,5.68,5.31,10.99-.7,1.89-2.1,3.65-3.54,5.13-5.56,5.7-11.27,11.27-16.92,16.88.11.34.21.67.32,1.01,1.3,0,2.6,0,3.91,0,24.72,0,49.43,0,74.15,0,3.81,0,7.34.84,9.38,4.31,4.01,6.81-1.84,12.65-7.56,12.75-9.55.16-19.11.05-28.67.05-17.07,0-34.14,0-51.75,0,.85,1.03,1.38,1.78,2.02,2.43,5.21,5.24,10.42,10.48,15.67,15.68,5.16,5.12,4.26,11.94-1.2,14.83-3.43,1.82-6.96,1.32-9.61-1.29-11.55-11.33-23.02-22.74-34.3-34.33-3.75-3.85-3.19-8.86,1.14-13.25C14.09,24.57,24.66,14.05,35.28,3.6c1.51-1.49,3.59-2.41,5.41-3.6,1.53,0,3.06,0,4.59,0Z"/><path class="cls-1" d="m299.84,0c2.72,2.09,5.68,3.93,8.11,6.3,9.84,9.62,19.52,19.39,29.24,29.13,4.57,4.58,4.53,9.46-.08,14.06-10.72,10.72-21.47,21.41-32.15,32.17-2.71,2.73-6.04,3.98-9.55,3.06-3.39-.89-5.34-3.73-5.82-7.36-.48-3.67,1.49-6.25,3.83-8.61,5.64-5.68,11.34-11.3,17.71-17.63-2.05,0-3.35,0-4.65,0-25.22,0-50.45,0-75.67-.01-4.89,0-7.47-1.99-8.95-6.73-1.29-4.12,1.41-9.02,5.66-9.89,1.97-.4,4.04-.45,6.06-.45,24.2-.03,48.41-.02,72.61-.02,1.4,0,2.79,0,5.27,0-3.25-3.18-5.89-5.75-8.5-8.34-2.99-2.96-5.86-6.04-8.94-8.89C288.09,11.28,287.46,5.19,295.25,0,296.78,0,298.31,0,299.84,0Z"/><path class="cls-1" d="m304.83,175.62c6.08-3.39,12.43-5.55,19.56-5.18,17.61.9,32.09,13.49,32.64,30.91.8,25.42.66,50.86.75,76.3.04,9.64.19,19.34-.71,28.92-1.63,17.17-7.62,32.82-17.97,46.82-8.42,11.39-18.94,20.35-31.23,27-8.82,4.77-18.27,8.28-28.45,9.63-20.73,2.75-41.56,1.51-62.29,1.11-14.52-.28-27.75-6.35-39.36-15.25-3.48-2.67-6.6-5.86-9.72-8.97-39.49-39.41-78.92-78.87-118.44-118.25-8.08-8.06-10.08-17.38-6.61-28.04,2.4-7.37,8.19-11.83,14.36-15.64,9.71-6,20.36-6.3,31.4-4.81,10.41,1.4,18.07,7.56,25.99,13.45,6.49,4.82,12.86,9.8,19.31,14.67.56.42,1.35.54,2.38.93,0-1.73,0-3.22,0-4.7,0-45.47.02-90.94-.02-136.42,0-7.75,1.04-15.17,5.6-21.69,5.63-8.05,12.94-13.15,23.01-14.53,11.1-1.52,20.7,1.36,28.77,8.7,5.09,4.62,8.65,10.6,9.64,17.59.7,4.98,1,10.05,1.05,15.08.13,14.39.05,28.79.05,43.18v3.19c5.33-1.23,10.32-3.31,15.31-3.31,7.38,0,14.71,1.52,21.01,6.1,5.07,3.69,8.95,8.23,11.62,13.91.37.79,2.33,1.72,2.91,1.41,18.97-10.32,41.62-1.39,48.84,17.41.04.1.19.16.6.49Zm-151.28-11.24s.04,0,.05,0c0,13.63,0,27.26,0,40.89,0,13.12.01,26.24,0,39.36,0,4.12-1.16,7.57-5.16,9.68-3.84,2.03-6.85.68-9.93-1.63-12.97-9.74-26.3-19.01-38.87-29.23-10.11-8.22-24.35-9.3-34.05-3.54-8.39,4.98-9.77,11.18-3.26,17.65,41.34,41.12,82.6,82.31,124.17,123.19,9.2,9.05,21.26,13.15,34.01,13.68,13.98.59,28.02.27,42.02-.08,6.44-.16,12.96-.82,19.24-2.19,17.13-3.74,31.02-13.25,41.95-26.6,11.51-14.06,16.84-30.77,16.96-48.9.2-30.32.13-60.64.02-90.95-.04-9.89-4.78-15.43-14.46-17.74-9.9-2.36-19.4,5.14-19.53,15.29-.05,3.75-.32,7.52-.77,11.25-.45,3.69-3.95,7.24-9.64,6.43-3.53-.5-6.36-3.62-6.43-7.83-.12-8.02-.04-16.05-.11-24.07-.09-9.52-4.91-16.42-13.81-18.24-10.16-2.08-19.37,3.35-20.17,15.3-.54,8.12-.05,16.3-.24,24.45-.05,2.03-.66,4.15-1.45,6.04-1.46,3.46-5.77,5.22-9.81,4.33-2.85-.63-5.51-4.09-5.53-7.43-.06-13.5.09-27.01-.16-40.51-.11-6.27-1.27-12.27-7.14-16.3-7.84-5.39-21.18-4.28-25.42,6.54-.95,2.43-1.38,5.22-1.41,7.85-.14,13.25-.03,26.5-.08,39.74-.02,6.64-3.34,10.15-9.38,10.13-4.8-.02-7.63-3.67-7.63-9.9,0-41.15.03-82.29-.07-123.44,0-2.79-.75-5.62-1.44-8.35-2.08-8.19-12.73-13.17-21.73-9.87-6.03,2.21-10.75,8.25-10.74,14.05.03,26.98.01,53.97.01,80.95Z"/></svg>