<?xml version="1.0" encoding="UTF-8"?><svg id="Layer_1" xmlns="http://www.w3.org/2000/svg" viewBox="0 0 466.45 435.07"><defs><style>.cls-1{fill:#d19e78;}</style></defs><path class="cls-1" d="m280.32,210.75c-3.13-.9-6.41-1.36-9.74-1.36-4.77,0-9.82.96-14.97,2.83-.07.03-.16.06-.24.09h29.43c-1.45-.61-2.95-1.12-4.49-1.56Zm37.3-2.55c-6.11,0-12.1,1.45-17.49,4.12h16.66c3.99,0,7.76-.99,11.09-2.75-3.31-.92-6.76-1.37-10.26-1.37Zm106.01,112c-2.16-8.21-5.2-16.21-8.13-24.18h-.01c-7.73-21.03-15.29-42.14-23.62-62.95-5.71-14.27-21.49-20.33-36.36-15.76-6.02,1.85-10.63,5.55-14.64,10.18-.43-.15-.58-.15-.63-.22-11.65-13.39-33.09-13.96-45.7.31-.38.43-2.29.25-2.83-.3-3.93-3.9-8.5-6.49-13.82-8.02-6.6-1.89-13.14-.94-19.25,1.28-4.13,1.51-7.63,4.72-11.68,7.35l-.96-2.64c-1.58-4.31-3.14-8.64-4.71-12.95-2.14-5.92-4.3-11.84-6.47-17.74-.63-1.7-1.25-3.38-1.89-5.06-1.43-3.82-3.04-7.6-4.92-11.22-.16-.32-.32-.63-.49-.96-2.94-5.49-7.69-9.37-13.3-11.66-8.89-3.65-17.71-3.13-26.45,1.48-7.91,4.18-12.43,10.6-14.67,18.97-1.12,4.18-1.02,8.24-.24,12.24.49,2.49,1.24,4.96,2.14,7.41.8,2.18,1.59,4.37,2.38,6.55.35.93.68,1.86,1.02,2.79,12.61,34.54,25.17,69.09,37.74,103.65l1.42,3.88c-.97-.01-1.67.13-2.26-.04-6.8-2.1-13.58-4.3-20.41-6.33-8.33-2.49-16.53-5.28-25.58-3.31-9.59,2.1-18.32,5.55-24.55,13.45-3.97,5.02-7.42,10.45-7.19,17.28.34,9.87,4.81,16.99,13.93,21.23,44.61,20.71,89.15,41.51,133.75,62.25,3.51,1.62,7.06,3.34,10.75,4.49,12.3,3.88,25.09,4.92,37.2.77,17.3-5.92,34.92-11.16,51.26-19.69,8.02-4.19,14.79-9.95,20.65-16.55,8.18-9.23,14.2-19.81,17.73-31.78,4.35-14.72,4.61-29.49.78-44.19Zm-15.88,42.35c-5.03,14.35-13.67,26.41-26.73,34.67-4.78,3.03-9.98,5.54-15.28,7.62-11.48,4.5-23.01,9-34.78,12.72-10.72,3.41-21.93,3.65-32.28-1.08-46.76-21.31-93.35-43-139.99-64.59-7.34-3.39-8.06-8.94-2.61-15.6,6.29-7.69,18.42-11.09,29.27-7.34,13.49,4.68,27.32,8.34,41.01,12.5,3.25.97,6.14,1.2,8.71-1.65,2.69-2.95,2.6-6.16,1.36-9.56-3.94-10.88-7.91-21.74-11.87-32.61l-12.33-33.86h-.03c-6.24-17.14-12.49-34.3-18.73-51.46-.3-.8-.58-1.58-.87-2.38-1.59-4.4-3.22-8.8-4.81-13.2-.41-1.14-.62-2.35-.62-3.59-.03-4.07,1.98-8.5,5.28-11.29,6.45-5.45,16.78-4.53,20.97,1.62.01.03.03.06.06.09,1.37,2.02,2.82,4.12,3.65,6.39,1.18,3.25,2.38,6.49,3.56,9.74,1.54,4.21,3.07,8.4,4.61,12.61,9.74,26.61,19.42,53.24,29.11,79.87,1.87,5.17,5.31,7.34,9.3,5.9,5.02-1.82,6.7-5.71,4.72-11.22-3.96-10.98-8.04-21.92-11.91-32.95-.78-2.18-1.25-4.62-1.21-6.92.25-10.24,10.97-15.19,19.09-13.08,6.08,1.56,8.84,6.18,10.83,11.35,4.27,11.1,8.22,22.33,12.34,33.49,1.02,2.76,4.27,4.83,6.82,4.49,3.62-.47,6.66-3.23,6.82-6.54.09-1.8-.04-3.75-.62-5.43-2.3-6.82-5.17-13.45-7.17-20.33-2.94-10.14,3.06-17.42,12.09-18.76,7.93-1.17,13.99,3.08,16.95,10.95,2.48,6.61,4.83,13.28,7.35,19.9,1.31,3.47,4.61,5.2,7.68,4.55,4.96-1.05,6.79-5.03,6.05-8.24-.75-3.22-1.67-6.42-2.76-9.55-2.95-8.44,2.66-17.52,11.57-18.54,8.71-1,14.3,2.15,17.33,10.33,9.23,25.06,18.42,50.16,27.4,75.32,5.36,15.06,5.99,30.51.69,45.63Z"/><path class="cls-1" d="m466.45,46.16v120c0,9.56-7.82,17.39-17.39,17.39h-16.22c1.51-3.26,2.35-6.9,2.35-10.72V39.49c0-3.83-.84-7.46-2.35-10.72h16.22c9.57,0,17.39,7.83,17.39,17.39Z"/><path class="cls-1" d="m428.85,39.49v133.33c0,3.96-1.2,7.65-3.27,10.72-1.78,2.64-4.2,4.84-7.02,6.34-2.7,1.44-5.77,2.26-9.03,2.26h-18.8c.35-.74.67-1.49.95-2.26.75-2.02,1.27-4.13,1.53-6.34.13-1.08.2-2.19.2-3.31V32.08c0-1.12-.07-2.23-.2-3.31-.26-2.21-.79-4.32-1.53-6.34-.29-.77-.6-1.53-.96-2.26h18.8c3.26,0,6.34.82,9.04,2.26,2.83,1.51,5.23,3.69,7.01,6.34,2.07,3.07,3.27,6.76,3.27,10.72Z"/><path class="cls-1" d="m387.06,32.08v148.15c0,1.13-.09,2.24-.25,3.31-.35,2.24-1.06,4.38-2.05,6.34-.39.78-.84,1.53-1.32,2.26-1.71,2.55-3.95,4.72-6.57,6.34-3.28,2.04-7.14,3.22-11.27,3.22h-21.67c.51-1.04.96-2.12,1.35-3.22.72-2.02,1.22-4.14,1.49-6.34.09-.74.15-1.5.19-2.26.02-.48.03-.95.03-1.43V23.85c0-.48-.01-.95-.03-1.43-.04-.76-.1-1.51-.19-2.26-.27-2.19-.77-4.31-1.49-6.33-.39-1.1-.84-2.18-1.35-3.22h21.67c4.13,0,7.99,1.18,11.27,3.22,2.61,1.62,4.85,3.78,6.56,6.33.49.72.93,1.48,1.33,2.26,1,1.96,1.7,4.09,2.05,6.34.16,1.08.25,2.19.25,3.31Z"/><path class="cls-1" d="m0,46.16v120c0,9.56,7.82,17.39,17.39,17.39h16.22c-1.51-3.26-2.35-6.9-2.35-10.72V39.49c0-3.83.84-7.46,2.35-10.72h-16.22C7.82,28.76,0,36.59,0,46.16Z"/><path class="cls-1" d="m37.6,39.49v133.33c0,3.96,1.2,7.65,3.27,10.72,1.78,2.64,4.2,4.84,7.02,6.34,2.7,1.44,5.77,2.26,9.03,2.26h18.8c-.35-.74-.67-1.49-.95-2.26-.75-2.02-1.27-4.13-1.53-6.34-.13-1.08-.2-2.19-.2-3.31V32.08c0-1.12.07-2.23.2-3.31.26-2.21.79-4.32,1.53-6.34.29-.77.6-1.53.96-2.26h-18.8c-3.26,0-6.34.82-9.04,2.26-2.83,1.51-5.23,3.69-7.01,6.34-2.07,3.07-3.27,6.76-3.27,10.72Z"/><path class="cls-1" d="m79.39,32.08v148.15c0,1.13.09,2.24.25,3.31.35,2.24,1.06,4.38,2.05,6.34.39.78.84,1.53,1.32,2.26,1.71,2.55,3.95,4.72,6.57,6.34,3.28,2.04,7.14,3.22,11.27,3.22h21.67c-.51-1.04-.96-2.12-1.35-3.22-.72-2.02-1.22-4.14-1.49-6.34-.09-.74-.15-1.5-.19-2.26-.02-.48-.03-.95-.03-1.43V23.85c0-.48.01-.95.03-1.43.04-.76.1-1.51.19-2.26.27-2.19.77-4.31,1.49-6.33.39-1.1.84-2.18,1.35-3.22h-21.67c-4.13,0-7.99,1.18-11.27,3.22-2.61,1.62-4.85,3.78-6.56,6.33-.49.72-.93,1.48-1.33,2.26-1,1.96-1.7,4.09-2.05,6.34-.16,1.08-.25,2.19-.25,3.31Z"/><path class="cls-1" d="m340.6,22.43c-.04-.77-.13-1.52-.25-2.27-.34-2.22-1-4.36-1.93-6.33-.52-1.13-1.12-2.2-1.82-3.22-1.65-2.48-3.78-4.64-6.21-6.33-3.87-2.7-8.56-4.28-13.6-4.28h-164.61c-13.12,0-23.85,10.73-23.85,23.85v164.61c0,13.12,10.73,23.85,23.85,23.85h15.8c-.06-.17-.14-.35-.2-.53l-1.09-2.98c-1.16-3.2-1.98-6.07-2.51-8.75-1.12-5.73-1-11.04.37-16.22,2.98-11.16,9.42-19.42,19.12-24.52,6.15-3.25,12.5-4.9,18.87-4.9,5.02,0,10.1,1.03,15.06,3.07,7.84,3.2,13.98,8.63,17.74,15.69.2.34.4.74.59,1.15,1.88,3.6,3.61,7.56,5.3,12.07.59,1.58,1.18,3.18,1.77,4.76l.12.35c2.53,6.81,4.99,13.62,7.47,20.44.05.12.09.26.13.37h66.07c3.99,0,7.77-.99,11.09-2.74.87-.46,1.71-.98,2.51-1.54,2.43-1.69,4.56-3.85,6.21-6.33.7-1.02,1.3-2.1,1.82-3.22.93-1.99,1.59-4.12,1.93-6.34.12-.74.21-1.5.25-2.26.03-.46.05-.95.05-1.42V23.85c0-.47-.02-.96-.05-1.42Z"/></svg>