<?xml version="1.0" encoding="UTF-8"?><svg id="Layer_1" xmlns="http://www.w3.org/2000/svg" xmlns:xlink="http://www.w3.org/1999/xlink" viewBox="0 0 70.48 70.84"><defs><style>.cls-1{fill:url(#New_Gradient_Swatch_1);}.cls-2{fill:url(#New_Gradient_Swatch_1-2);}</style><linearGradient id="New_Gradient_Swatch_1" x1="35.24" y1="70.84" x2="35.24" y2="0" gradientTransform="matrix(1, 0, 0, 1, 0, 0)" gradientUnits="userSpaceOnUse"><stop offset="0" stop-color="#fcf2b1"/><stop offset=".11" stop-color="#f0e68b"/><stop offset=".24" stop-color="#c4a35b"/><stop offset=".43" stop-color="#fae37f"/><stop offset=".6" stop-color="#d3bd59"/><stop offset=".66" stop-color="#f0e9a4"/><stop offset=".7" stop-color="#ffffc8"/><stop offset=".85" stop-color="#f4ed9c"/><stop offset=".93" stop-color="#f0e68b"/></linearGradient><linearGradient id="New_Gradient_Swatch_1-2" x1="35.11" y1="52.14" x2="35.11" y2="18.9" xlink:href="#New_Gradient_Swatch_1"/></defs><path class="cls-1" d="M14.09,6.9c-1.23,1.2-2.61,2.24-3.83,3.47C3.1,17.61-.21,26.35,0,36.47c.03,1.5,.16,3,.48,4.48,.62,.9,.56,1.98,.8,2.98,.34,1.45,1.08,2.78,1.22,4.28,2.4,6.23,6.39,11.24,11.68,15.26,.71,.54,1.44,1.07,2.16,1.6,.36,.01,.62,.26,.9,.43,5,2.92,10.37,4.6,16.16,4.85,6.09,.26,11.9-.86,17.37-3.62,.63-.32,1.23-.62,2.03-.41,5.56,1.48,11.14,2.87,16.69,4.4,1.23,.34,1.05-.09,.83-.89-1.49-5.4-2.96-10.8-4.44-16.21-.1-.36-.27-.72-.08-1.1,.6-1.16,1.21-2.32,1.81-3.48v.02c.05-.21,.09-.43,.17-.63,3.08-7.84,3.35-15.79,.93-23.84-1.01-3.36-2.7-6.4-4.51-9.38h0c-1.85-2.43-3.92-4.68-6.13-6.79l-2.89-2.24c-.36-.2-.72-.39-1.07-.6C43.04-1.11,31.62-1.78,19.82,3.55c-2.03,.92-3.82,2.24-5.73,3.34ZM56.81,15.81c1.63,1.58,2.9,3.41,3.87,5.46,.13,.18,.3,.33,.4,.53,2.02,4.05,3.21,8.31,3.24,12.87,.03,3.4-.29,6.74-1.6,9.92-.43,1.64-1.14,3.15-2.05,4.57,.02,.18,.02,.34-.2,.41-.15,.44-.31,.87-.72,1.14-.5,.81-.57,1.64-.23,2.54,.14,.37,.16,.79,.24,1.19,.95,2.44,1.42,5.01,2.18,7.51,.13,.41-.13,.57-.5,.46-1.78-.54-3.64-.81-5.37-1.51h.03c-1.46-.17-2.85-.65-4.26-1.03-.46-.12-.86-.13-1.29,.13-2.88,1.74-5.94,3.07-9.24,3.77-3.83,.81-7.67,.99-11.51,.06-.43,.12-.81-.11-1.2-.21-11.08-2.91-18.28-9.84-21.54-20.83-.46-.93-.58-1.94-.64-2.96-.12-.89-.28-1.78-.35-2.67-.29-3.63,.27-7.17,1.23-10.65,.1-1.34,.56-2.55,1.38-3.61,.62-.77,.77-1.82,1.52-2.51,.32-1.03,1.03-1.82,1.66-2.65,2.34-3.08,5.09-5.72,8.54-7.54,2.06-1.39,4.33-2.32,6.73-2.92,2.1-.77,4.29-1.05,6.49-1.19,3.24-.2,6.42,.14,9.52,1.18l.06-.03,.05,.05c4.22,1.1,7.92,3.13,11.11,6.11,.98,.66,1.79,1.49,2.48,2.45Z"/><path class="cls-2" d="M46.37,40.66c1.31-1.76,2.69-3.48,3.93-5.29,1.1-1.61,1.89-3.39,2.44-5.27,.27-1.81,.35-3.62,0-5.43-.19-.53-.34-1.09-.59-1.58-1.3-2.52-2.86-4.62-6.22-4.11-.82,.13-1.45,.3-1.78,1.1-.68,1.62-1.19,3.36-2.1,4.85-1.68,2.75-.8,4.81,1.34,6.71,.63,.56,.7,1.22,.24,1.92-.99,1.5-1.93,3.04-3.27,4.27-.21,.41-.46,.78-.94,.92h.01c-.11,.34-.31,.61-.7,.68-2.09,2.09-4.64,3.42-7.33,4.51-.65,.27-1.17,.01-1.59-.5-.85-1.05-1.73-2.08-2.54-3.16-.42-.56-.88-.9-1.59-.87-1.86,.88-3.74,1.71-5.56,2.64-3.22,1.65-3.04,.91-2.62,4.55v-.02c.45,.85,.59,1.83,1.32,2.57,2.96,2.99,6.51,3.57,10.4,2.54,1.91-.51,3.75-1.28,5.63-1.94h-.02c2.22-1.28,4.46-2.54,6.46-4.19,1.82-1.5,3.38-3.27,5.09-4.88Z"/></svg>