<?xml version="1.0" encoding="utf-8"?>
<!-- Generator: Adobe Illustrator 27.1.1, SVG Export Plug-In . SVG Version: 6.00 Build 0)  -->
<svg version="1.1" id="Layer_1" xmlns="http://www.w3.org/2000/svg" xmlns:xlink="http://www.w3.org/1999/xlink" x="0px" y="0px"
	 viewBox="0 0 70.5 70.8" style="enable-background:new 0 0 70.5 70.8;" xml:space="preserve">
<style type="text/css">
	.st0{fill:#E4C66A;}
</style>
<path class="st0" d="M14.1,6.9c-1.2,1.2-2.6,2.2-3.8,3.5C3.1,17.6-0.2,26.4,0,36.5c0,1.5,0.2,3,0.5,4.5c0.6,0.9,0.6,2,0.8,3
	c0.3,1.5,1.1,2.8,1.2,4.3c2.4,6.2,6.4,11.2,11.7,15.3c0.7,0.5,1.4,1.1,2.2,1.6c0.4,0,0.6,0.3,0.9,0.4c5,2.9,10.4,4.6,16.2,4.8
	c6.1,0.3,11.9-0.9,17.4-3.6c0.6-0.3,1.2-0.6,2-0.4c5.6,1.5,11.1,2.9,16.7,4.4c1.2,0.3,1.1-0.1,0.8-0.9c-1.5-5.4-3-10.8-4.4-16.2
	c-0.1-0.4-0.3-0.7-0.1-1.1c0.6-1.2,1.2-2.3,1.8-3.5v0c0.1-0.2,0.1-0.4,0.2-0.6c3.1-7.8,3.3-15.8,0.9-23.8c-1-3.4-2.7-6.4-4.5-9.4
	l0,0c-1.8-2.4-3.9-4.7-6.1-6.8l-2.9-2.2c-0.4-0.2-0.7-0.4-1.1-0.6C43-1.1,31.6-1.8,19.8,3.5C17.8,4.5,16,5.8,14.1,6.9L14.1,6.9z
	 M56.8,15.8c1.6,1.6,2.9,3.4,3.9,5.5c0.1,0.2,0.3,0.3,0.4,0.5c2,4.1,3.2,8.3,3.2,12.9c0,3.4-0.3,6.7-1.6,9.9c-0.4,1.6-1.1,3.2-2,4.6
	c0,0.2,0,0.3-0.2,0.4c-0.2,0.4-0.3,0.9-0.7,1.1c-0.5,0.8-0.6,1.6-0.2,2.5c0.1,0.4,0.2,0.8,0.2,1.2c1,2.4,1.4,5,2.2,7.5
	c0.1,0.4-0.1,0.6-0.5,0.5c-1.8-0.5-3.6-0.8-5.4-1.5h0c-1.5-0.2-2.8-0.7-4.3-1c-0.5-0.1-0.9-0.1-1.3,0.1c-2.9,1.7-5.9,3.1-9.2,3.8
	c-3.8,0.8-7.7,1-11.5,0.1c-0.4,0.1-0.8-0.1-1.2-0.2c-11.1-2.9-18.3-9.8-21.5-20.8c-0.5-0.9-0.6-1.9-0.6-3c-0.1-0.9-0.3-1.8-0.3-2.7
	C5.8,33.5,6.3,30,7.3,26.5c0.1-1.3,0.6-2.5,1.4-3.6c0.6-0.8,0.8-1.8,1.5-2.5c0.3-1,1-1.8,1.7-2.6c2.3-3.1,5.1-5.7,8.5-7.5
	c2.1-1.4,4.3-2.3,6.7-2.9c2.1-0.8,4.3-1.1,6.5-1.2c3.2-0.2,6.4,0.1,9.5,1.2l0.1,0l0,0.1c4.2,1.1,7.9,3.1,11.1,6.1
	C55.3,14.1,56.2,14.9,56.8,15.8L56.8,15.8z"/>
<path class="st0" d="M46.4,40.7c1.3-1.8,2.7-3.5,3.9-5.3c1.1-1.6,1.9-3.4,2.4-5.3c0.3-1.8,0.3-3.6,0-5.4c-0.2-0.5-0.3-1.1-0.6-1.6
	c-1.3-2.5-2.9-4.6-6.2-4.1c-0.8,0.1-1.5,0.3-1.8,1.1c-0.7,1.6-1.2,3.4-2.1,4.9c-1.7,2.8-0.8,4.8,1.3,6.7c0.6,0.6,0.7,1.2,0.2,1.9
	c-1,1.5-1.9,3-3.3,4.3c-0.2,0.4-0.5,0.8-0.9,0.9h0c-0.1,0.3-0.3,0.6-0.7,0.7c-2.1,2.1-4.6,3.4-7.3,4.5c-0.6,0.3-1.2,0-1.6-0.5
	c-0.9-1-1.7-2.1-2.5-3.2c-0.4-0.6-0.9-0.9-1.6-0.9c-1.9,0.9-3.7,1.7-5.6,2.6c-3.2,1.7-3,0.9-2.6,4.5v0c0.5,0.8,0.6,1.8,1.3,2.6
	c3,3,6.5,3.6,10.4,2.5c1.9-0.5,3.8-1.3,5.6-1.9h0c2.2-1.3,4.5-2.5,6.5-4.2C43.1,44.1,44.7,42.3,46.4,40.7L46.4,40.7z"/>
</svg>
